G75*
%MOIN*%
%OFA0B0*%
%FSLAX24Y24*%
%IPPOS*%
%LPD*%
%AMOC8*
5,1,8,0,0,1.08239X$1,22.5*
%
%ADD10C,0.0867*%
%ADD11R,0.0820X0.0820*%
%ADD12C,0.0820*%
%ADD13C,0.0050*%
%ADD14C,0.0560*%
%ADD15OC8,0.0820*%
%ADD16C,0.1340*%
%ADD17C,0.0552*%
%ADD18OC8,0.0789*%
%ADD19R,0.0456X0.0456*%
D10*
X007846Y009070D02*
X008633Y009070D01*
X009420Y010645D02*
X009420Y011432D01*
X006940Y011432D02*
X006940Y010645D01*
D11*
X020192Y009732D03*
X023223Y009752D03*
X026235Y009752D03*
X029232Y009720D03*
X032318Y009693D03*
X035408Y009772D03*
X036014Y021929D03*
D12*
X036014Y022929D03*
X036014Y023929D03*
X035873Y026445D03*
X034873Y026445D03*
X033873Y026445D03*
X032873Y026445D03*
X031873Y026445D03*
X030873Y026445D03*
X029873Y026445D03*
X028873Y026445D03*
X026873Y026445D03*
X025873Y026445D03*
X024873Y026445D03*
X023873Y026445D03*
X022873Y026445D03*
X021873Y026445D03*
X020873Y026445D03*
X019873Y026445D03*
X018273Y026445D03*
X017273Y026445D03*
X016273Y026445D03*
X015273Y026445D03*
X014273Y026445D03*
X013273Y026445D03*
X012273Y026445D03*
X011273Y026445D03*
X013440Y025169D03*
X013440Y022169D03*
X020306Y020421D03*
X023306Y020421D03*
X024755Y020421D03*
X027755Y020421D03*
X024251Y015224D03*
X021251Y015224D03*
X020192Y011732D03*
X020192Y010732D03*
X023223Y010752D03*
X023223Y011752D03*
X026235Y011752D03*
X026235Y010752D03*
X029232Y010720D03*
X029232Y011720D03*
X032318Y011693D03*
X032318Y010693D03*
X035408Y010772D03*
X035408Y011772D03*
X035408Y012772D03*
X038873Y009445D03*
X039873Y009445D03*
X037873Y007445D03*
X036873Y007445D03*
X035873Y007445D03*
X034873Y007445D03*
X033873Y007445D03*
X032873Y007445D03*
X031873Y007445D03*
X030873Y007445D03*
X028873Y007445D03*
X027873Y007445D03*
X026873Y007445D03*
X025873Y007445D03*
X024873Y007445D03*
X023873Y007445D03*
X022873Y007445D03*
X021873Y007445D03*
X019873Y007445D03*
X018873Y007445D03*
X017873Y007445D03*
X016873Y007445D03*
X015873Y007445D03*
X014873Y007445D03*
X038873Y026445D03*
X039873Y026445D03*
D13*
X026030Y014718D02*
X025975Y014764D01*
X025911Y014799D01*
X025842Y014821D01*
X025770Y014829D01*
X025705Y014824D01*
X025640Y014808D01*
X025580Y014780D01*
X025525Y014743D01*
X025478Y014697D01*
X025439Y014644D01*
X025410Y014584D01*
X025392Y014520D01*
X025385Y014455D01*
X025392Y014389D01*
X025410Y014325D01*
X025439Y014265D01*
X025477Y014212D01*
X025524Y014165D01*
X025579Y014128D01*
X025639Y014101D01*
X025704Y014085D01*
X025769Y014080D01*
X025842Y014088D01*
X025911Y014110D01*
X025975Y014145D01*
X026030Y014192D01*
X026076Y014249D01*
X026109Y014313D01*
X026129Y014383D01*
X026135Y014456D01*
X026129Y014528D01*
X026109Y014597D01*
X026076Y014661D01*
X026030Y014718D01*
X026018Y014728D02*
X025509Y014728D01*
X025465Y014679D02*
X026061Y014679D01*
X026091Y014631D02*
X025433Y014631D01*
X025410Y014582D02*
X026113Y014582D01*
X026127Y014534D02*
X025396Y014534D01*
X025389Y014485D02*
X026133Y014485D01*
X026134Y014437D02*
X025387Y014437D01*
X025392Y014388D02*
X026130Y014388D01*
X026117Y014340D02*
X025406Y014340D01*
X025426Y014291D02*
X026098Y014291D01*
X026071Y014243D02*
X025455Y014243D01*
X025495Y014194D02*
X026032Y014194D01*
X025976Y014146D02*
X025553Y014146D01*
X025653Y014097D02*
X025872Y014097D01*
X025842Y013719D02*
X025911Y013697D01*
X025975Y013662D01*
X026030Y013616D01*
X026076Y013559D01*
X026109Y013495D01*
X026129Y013426D01*
X026135Y013354D01*
X026129Y013281D01*
X026109Y013211D01*
X026076Y013147D01*
X026030Y013090D01*
X025975Y013043D01*
X025911Y013008D01*
X025842Y012986D01*
X025769Y012978D01*
X025704Y012983D01*
X025639Y012999D01*
X025579Y013026D01*
X025524Y013063D01*
X025477Y013110D01*
X025439Y013163D01*
X025410Y013223D01*
X025392Y013287D01*
X025385Y013353D01*
X025392Y013418D01*
X025410Y013482D01*
X025439Y013542D01*
X025478Y013595D01*
X025525Y013641D01*
X025580Y013678D01*
X025640Y013706D01*
X025705Y013722D01*
X025770Y013727D01*
X025842Y013719D01*
X025872Y013709D02*
X025656Y013709D01*
X025554Y013661D02*
X025976Y013661D01*
X026033Y013612D02*
X025495Y013612D01*
X025455Y013564D02*
X026072Y013564D01*
X026098Y013515D02*
X025426Y013515D01*
X025406Y013467D02*
X026117Y013467D01*
X026130Y013418D02*
X025392Y013418D01*
X025387Y013370D02*
X026134Y013370D01*
X026133Y013321D02*
X025389Y013321D01*
X025396Y013273D02*
X026127Y013273D01*
X026113Y013224D02*
X025410Y013224D01*
X025433Y013176D02*
X026091Y013176D01*
X026060Y013127D02*
X025464Y013127D01*
X025509Y013079D02*
X026017Y013079D01*
X025952Y013030D02*
X025573Y013030D01*
X025712Y012982D02*
X025808Y012982D01*
X025953Y014776D02*
X025574Y014776D01*
X025720Y014825D02*
X025804Y014825D01*
X020250Y014436D02*
X020243Y014508D01*
X020223Y014577D01*
X020190Y014642D01*
X020144Y014698D01*
X020089Y014744D01*
X020026Y014779D01*
X019957Y014801D01*
X019885Y014809D01*
X019819Y014804D01*
X019755Y014788D01*
X019694Y014761D01*
X019639Y014724D01*
X019592Y014678D01*
X019553Y014624D01*
X019524Y014564D01*
X019506Y014501D01*
X019500Y014435D01*
X019506Y014369D01*
X019524Y014305D01*
X019553Y014246D01*
X019591Y014192D01*
X019639Y014146D01*
X019693Y014108D01*
X019754Y014081D01*
X019818Y014065D01*
X019884Y014060D01*
X019956Y014068D01*
X020025Y014090D01*
X020089Y014125D01*
X020145Y014172D01*
X020190Y014229D01*
X020223Y014293D01*
X020244Y014363D01*
X020250Y014436D01*
X020250Y014437D02*
X019500Y014437D01*
X019505Y014485D02*
X020245Y014485D01*
X020236Y014534D02*
X019516Y014534D01*
X019533Y014582D02*
X020221Y014582D01*
X020195Y014631D02*
X019558Y014631D01*
X019594Y014679D02*
X020159Y014679D01*
X020109Y014728D02*
X019646Y014728D01*
X019729Y014776D02*
X020031Y014776D01*
X020246Y014388D02*
X019504Y014388D01*
X019514Y014340D02*
X020237Y014340D01*
X020222Y014291D02*
X019531Y014291D01*
X019555Y014243D02*
X020197Y014243D01*
X020162Y014194D02*
X019590Y014194D01*
X019639Y014146D02*
X020113Y014146D01*
X020039Y014097D02*
X019718Y014097D01*
X019819Y013702D02*
X019885Y013707D01*
X019957Y013699D01*
X020026Y013677D01*
X020089Y013642D01*
X020144Y013596D01*
X020190Y013540D01*
X020223Y013475D01*
X020243Y013406D01*
X020250Y013334D01*
X020244Y013261D01*
X020223Y013191D01*
X020190Y013127D01*
X020145Y013070D01*
X020089Y013023D01*
X020025Y012988D01*
X019956Y012966D01*
X019884Y012958D01*
X019818Y012963D01*
X019754Y012979D01*
X019693Y013006D01*
X019639Y013044D01*
X019591Y013090D01*
X019553Y013144D01*
X019524Y013203D01*
X019506Y013267D01*
X019500Y013333D01*
X019506Y013399D01*
X019524Y013462D01*
X019553Y013522D01*
X019592Y013576D01*
X019639Y013622D01*
X019694Y013659D01*
X019755Y013686D01*
X019819Y013702D01*
X019699Y013661D02*
X020055Y013661D01*
X020125Y013612D02*
X019630Y013612D01*
X019584Y013564D02*
X020170Y013564D01*
X020202Y013515D02*
X019550Y013515D01*
X019527Y013467D02*
X020226Y013467D01*
X020240Y013418D02*
X019512Y013418D01*
X019503Y013370D02*
X020247Y013370D01*
X020249Y013321D02*
X019501Y013321D01*
X019506Y013273D02*
X020244Y013273D01*
X020233Y013224D02*
X019518Y013224D01*
X019537Y013176D02*
X020215Y013176D01*
X020190Y013127D02*
X019564Y013127D01*
X019603Y013079D02*
X020152Y013079D01*
X020097Y013030D02*
X019658Y013030D01*
X019748Y012982D02*
X020006Y012982D01*
X018032Y011963D02*
X017445Y011963D01*
X017451Y011974D02*
X017419Y011914D01*
X017400Y011849D01*
X017393Y011782D01*
X017391Y011779D01*
X017397Y011713D01*
X017416Y011649D01*
X017447Y011591D01*
X017489Y011539D01*
X017540Y011496D01*
X017598Y011465D01*
X017661Y011445D01*
X017727Y011438D01*
X017738Y011436D01*
X017806Y011443D01*
X017871Y011464D01*
X017930Y011496D01*
X017983Y011540D01*
X018025Y011593D01*
X018057Y011653D01*
X018076Y011718D01*
X018082Y011786D01*
X018083Y011783D01*
X018077Y011850D01*
X018058Y011914D01*
X018027Y011973D01*
X017985Y012025D01*
X017934Y012068D01*
X017875Y012100D01*
X017812Y012120D01*
X017745Y012127D01*
X017737Y012128D01*
X017670Y012121D01*
X017605Y012101D01*
X017546Y012069D01*
X017494Y012026D01*
X017451Y011974D01*
X017482Y012012D02*
X017996Y012012D01*
X017943Y012060D02*
X017535Y012060D01*
X017630Y012109D02*
X017847Y012109D01*
X018058Y011915D02*
X017419Y011915D01*
X017405Y011866D02*
X018072Y011866D01*
X018080Y011818D02*
X017397Y011818D01*
X017392Y011769D02*
X018081Y011769D01*
X018076Y011721D02*
X017396Y011721D01*
X017409Y011672D02*
X018063Y011672D01*
X018042Y011624D02*
X017429Y011624D01*
X017459Y011575D02*
X018011Y011575D01*
X017967Y011527D02*
X017503Y011527D01*
X017573Y011478D02*
X017898Y011478D01*
X016293Y011716D02*
X016274Y011651D01*
X016242Y011591D01*
X016200Y011538D01*
X016147Y011494D01*
X016088Y011462D01*
X016023Y011441D01*
X015955Y011434D01*
X015944Y011436D01*
X015878Y011443D01*
X015815Y011463D01*
X015757Y011494D01*
X015706Y011537D01*
X015664Y011589D01*
X015633Y011647D01*
X015614Y011711D01*
X015608Y011777D01*
X015610Y011780D01*
X015617Y011847D01*
X015636Y011912D01*
X015668Y011972D01*
X015711Y012024D01*
X015763Y012067D01*
X015822Y012099D01*
X015887Y012119D01*
X015954Y012126D01*
X015962Y012125D01*
X016029Y012118D01*
X016092Y012098D01*
X016151Y012066D01*
X016202Y012023D01*
X016244Y011971D01*
X016275Y011912D01*
X016294Y011848D01*
X016300Y011781D01*
X016299Y011784D01*
X016293Y011716D01*
X016293Y011721D02*
X015613Y011721D01*
X015609Y011769D02*
X016298Y011769D01*
X016297Y011818D02*
X015614Y011818D01*
X015622Y011866D02*
X016289Y011866D01*
X016274Y011915D02*
X015638Y011915D01*
X015663Y011963D02*
X016248Y011963D01*
X016211Y012012D02*
X015700Y012012D01*
X015754Y012060D02*
X016158Y012060D01*
X016057Y012109D02*
X015853Y012109D01*
X015626Y011672D02*
X016280Y011672D01*
X016260Y011624D02*
X015645Y011624D01*
X015674Y011575D02*
X016230Y011575D01*
X016187Y011527D02*
X015718Y011527D01*
X015786Y011478D02*
X016118Y011478D01*
X015955Y009566D02*
X015888Y009559D01*
X015823Y009539D01*
X015764Y009507D01*
X015711Y009464D01*
X015669Y009412D01*
X015637Y009352D01*
X015618Y009287D01*
X015611Y009220D01*
X015609Y009217D01*
X015615Y009151D01*
X015634Y009087D01*
X015665Y009029D01*
X015707Y008977D01*
X015758Y008934D01*
X015816Y008903D01*
X015879Y008883D01*
X015945Y008876D01*
X015956Y008874D01*
X016024Y008881D01*
X016089Y008902D01*
X016148Y008934D01*
X016201Y008978D01*
X016243Y009031D01*
X016275Y009091D01*
X016294Y009156D01*
X016300Y009224D01*
X016301Y009221D01*
X016295Y009288D01*
X016276Y009352D01*
X016245Y009411D01*
X016203Y009463D01*
X016152Y009506D01*
X016093Y009538D01*
X016030Y009558D01*
X015963Y009565D01*
X015955Y009566D01*
X015821Y009538D02*
X016092Y009538D01*
X016171Y009490D02*
X015743Y009490D01*
X015693Y009441D02*
X016221Y009441D01*
X016255Y009393D02*
X015659Y009393D01*
X015635Y009344D02*
X016278Y009344D01*
X016293Y009296D02*
X015620Y009296D01*
X015614Y009247D02*
X016299Y009247D01*
X016298Y009199D02*
X015611Y009199D01*
X015615Y009150D02*
X016292Y009150D01*
X016278Y009102D02*
X015630Y009102D01*
X015652Y009053D02*
X016255Y009053D01*
X016222Y009005D02*
X015684Y009005D01*
X015731Y008956D02*
X016175Y008956D01*
X016100Y008908D02*
X015806Y008908D01*
X017396Y009151D02*
X017415Y009087D01*
X017446Y009029D01*
X017488Y008977D01*
X017539Y008934D01*
X017597Y008903D01*
X017660Y008883D01*
X017726Y008876D01*
X017737Y008874D01*
X017805Y008881D01*
X017870Y008902D01*
X017929Y008934D01*
X017982Y008978D01*
X018024Y009031D01*
X018056Y009091D01*
X018075Y009156D01*
X018081Y009224D01*
X018082Y009221D01*
X018076Y009288D01*
X018057Y009352D01*
X018026Y009411D01*
X017984Y009463D01*
X017933Y009506D01*
X017874Y009538D01*
X017811Y009558D01*
X017744Y009565D01*
X017736Y009566D01*
X017669Y009559D01*
X017604Y009539D01*
X017545Y009507D01*
X017493Y009464D01*
X017450Y009412D01*
X017418Y009352D01*
X017399Y009287D01*
X017392Y009220D01*
X017390Y009217D01*
X017396Y009151D01*
X017396Y009150D02*
X018073Y009150D01*
X018079Y009199D02*
X017392Y009199D01*
X017395Y009247D02*
X018080Y009247D01*
X018074Y009296D02*
X017401Y009296D01*
X017416Y009344D02*
X018060Y009344D01*
X018036Y009393D02*
X017440Y009393D01*
X017474Y009441D02*
X018002Y009441D01*
X017952Y009490D02*
X017524Y009490D01*
X017602Y009538D02*
X017873Y009538D01*
X018059Y009102D02*
X017411Y009102D01*
X017433Y009053D02*
X018036Y009053D01*
X018003Y009005D02*
X017465Y009005D01*
X017512Y008956D02*
X017956Y008956D01*
X017881Y008908D02*
X017587Y008908D01*
D14*
X030006Y014532D02*
X030486Y014532D01*
X030486Y015532D02*
X030006Y015532D01*
X030006Y016532D02*
X030486Y016532D01*
X030486Y017532D02*
X030006Y017532D01*
X029942Y019301D02*
X030422Y019301D01*
X030422Y020301D02*
X029942Y020301D01*
X029942Y021301D02*
X030422Y021301D01*
X030422Y022301D02*
X029942Y022301D01*
X032942Y022301D02*
X033422Y022301D01*
X033422Y021301D02*
X032942Y021301D01*
X032942Y020301D02*
X033422Y020301D01*
X033422Y019301D02*
X032942Y019301D01*
X033006Y017532D02*
X033486Y017532D01*
X033486Y016532D02*
X033006Y016532D01*
X033006Y015532D02*
X033486Y015532D01*
X033486Y014532D02*
X033006Y014532D01*
D15*
X038873Y014445D03*
X039873Y014445D03*
X039873Y013445D03*
X038873Y013445D03*
X038873Y012445D03*
X039873Y012445D03*
X039873Y011445D03*
X038873Y011445D03*
X038873Y010445D03*
X039873Y010445D03*
X039873Y015445D03*
X038873Y015445D03*
X038873Y016445D03*
X039873Y016445D03*
X039873Y017445D03*
X038873Y017445D03*
X038873Y018445D03*
X039873Y018445D03*
X039873Y019445D03*
X038873Y019445D03*
X038873Y020445D03*
X039873Y020445D03*
X039873Y021445D03*
X038873Y021445D03*
X038873Y022445D03*
X039873Y022445D03*
X039873Y023445D03*
X038873Y023445D03*
X038873Y024445D03*
X039873Y024445D03*
X039873Y025445D03*
X038873Y025445D03*
X027546Y024020D03*
X026546Y024020D03*
X025546Y024020D03*
X024546Y024020D03*
X023546Y024020D03*
X022546Y024020D03*
X021546Y024020D03*
X020546Y024020D03*
X020546Y023020D03*
X021546Y023020D03*
X022546Y023020D03*
X023546Y023020D03*
X024546Y023020D03*
X025546Y023020D03*
X026546Y023020D03*
X027546Y023020D03*
D16*
X007373Y007445D03*
X007873Y026445D03*
X037373Y026445D03*
X039873Y007445D03*
D17*
X027873Y016445D03*
X026873Y016445D03*
X026873Y017445D03*
X027873Y017445D03*
X027873Y018445D03*
X026873Y018445D03*
X023681Y013748D03*
X022720Y013748D03*
X021781Y013748D03*
D18*
X016448Y016402D03*
X016448Y017402D03*
X016448Y019402D03*
X016448Y020402D03*
X016448Y021402D03*
X016448Y022402D03*
X008448Y022402D03*
X008448Y023402D03*
X008448Y024402D03*
X008448Y021402D03*
X008448Y020402D03*
X008448Y019402D03*
X008448Y018402D03*
X008448Y017402D03*
X008448Y016402D03*
X008448Y015402D03*
D19*
X015172Y022902D03*
X016825Y025402D03*
X024759Y018768D03*
X024759Y018276D03*
X024719Y017272D03*
X020251Y017272D03*
X020251Y017783D03*
X020290Y016248D03*
X031176Y023689D03*
M02*
