G75*
%MOIN*%
%OFA0B0*%
%FSLAX24Y24*%
%IPPOS*%
%LPD*%
%AMOC8*
5,1,8,0,0,1.08239X$1,22.5*
%
%ADD10C,0.0787*%
%ADD11R,0.0740X0.0740*%
%ADD12C,0.0740*%
%ADD13C,0.0480*%
%ADD14OC8,0.0740*%
%ADD15C,0.0800*%
%ADD16R,0.0472X0.0236*%
%ADD17C,0.0472*%
%ADD18OC8,0.0709*%
%ADD19C,0.0160*%
%ADD20C,0.0120*%
%ADD21C,0.0100*%
%ADD22R,0.0376X0.0376*%
%ADD23C,0.0400*%
D10*
X007846Y009070D02*
X008633Y009070D01*
X009420Y010645D02*
X009420Y011432D01*
X006940Y011432D02*
X006940Y010645D01*
D11*
X020192Y009732D03*
X023223Y009752D03*
X026235Y009752D03*
X029232Y009720D03*
X032318Y009693D03*
X035408Y009772D03*
X036014Y021929D03*
D12*
X036014Y022929D03*
X036014Y023929D03*
X035873Y026445D03*
X034873Y026445D03*
X033873Y026445D03*
X032873Y026445D03*
X031873Y026445D03*
X030873Y026445D03*
X029873Y026445D03*
X028873Y026445D03*
X026873Y026445D03*
X025873Y026445D03*
X024873Y026445D03*
X023873Y026445D03*
X022873Y026445D03*
X021873Y026445D03*
X020873Y026445D03*
X019873Y026445D03*
X018273Y026445D03*
X017273Y026445D03*
X016273Y026445D03*
X015273Y026445D03*
X014273Y026445D03*
X013273Y026445D03*
X012273Y026445D03*
X011273Y026445D03*
X013440Y025169D03*
X013440Y022169D03*
X020306Y020421D03*
X023306Y020421D03*
X024755Y020421D03*
X027755Y020421D03*
X024251Y015224D03*
X021251Y015224D03*
X020192Y011732D03*
X020192Y010732D03*
X017735Y011780D03*
X015955Y011780D03*
X015955Y009220D03*
X017735Y009220D03*
X017873Y007445D03*
X018873Y007445D03*
X019873Y007445D03*
X021873Y007445D03*
X022873Y007445D03*
X023873Y007445D03*
X024873Y007445D03*
X025873Y007445D03*
X026873Y007445D03*
X027873Y007445D03*
X028873Y007445D03*
X030873Y007445D03*
X031873Y007445D03*
X032873Y007445D03*
X033873Y007445D03*
X034873Y007445D03*
X035873Y007445D03*
X036873Y007445D03*
X037873Y007445D03*
X038873Y009445D03*
X039873Y009445D03*
X035408Y010772D03*
X035408Y011772D03*
X035408Y012772D03*
X032318Y011693D03*
X032318Y010693D03*
X029232Y010720D03*
X029232Y011720D03*
X026235Y011752D03*
X026235Y010752D03*
X023223Y010752D03*
X023223Y011752D03*
X016873Y007445D03*
X015873Y007445D03*
X014873Y007445D03*
X038873Y026445D03*
X039873Y026445D03*
D13*
X033422Y022301D02*
X032942Y022301D01*
X032942Y021301D02*
X033422Y021301D01*
X033422Y020301D02*
X032942Y020301D01*
X032942Y019301D02*
X033422Y019301D01*
X033486Y017532D02*
X033006Y017532D01*
X033006Y016532D02*
X033486Y016532D01*
X033486Y015532D02*
X033006Y015532D01*
X033006Y014532D02*
X033486Y014532D01*
X030486Y014532D02*
X030006Y014532D01*
X030006Y015532D02*
X030486Y015532D01*
X030486Y016532D02*
X030006Y016532D01*
X030006Y017532D02*
X030486Y017532D01*
X030422Y019301D02*
X029942Y019301D01*
X029942Y020301D02*
X030422Y020301D01*
X030422Y021301D02*
X029942Y021301D01*
X029942Y022301D02*
X030422Y022301D01*
D14*
X027546Y023020D03*
X026546Y023020D03*
X025546Y023020D03*
X024546Y023020D03*
X023546Y023020D03*
X022546Y023020D03*
X021546Y023020D03*
X020546Y023020D03*
X020546Y024020D03*
X021546Y024020D03*
X022546Y024020D03*
X023546Y024020D03*
X024546Y024020D03*
X025546Y024020D03*
X026546Y024020D03*
X027546Y024020D03*
X038873Y024445D03*
X039873Y024445D03*
X039873Y023445D03*
X038873Y023445D03*
X038873Y022445D03*
X039873Y022445D03*
X039873Y021445D03*
X038873Y021445D03*
X038873Y020445D03*
X039873Y020445D03*
X039873Y019445D03*
X038873Y019445D03*
X038873Y018445D03*
X039873Y018445D03*
X039873Y017445D03*
X038873Y017445D03*
X038873Y016445D03*
X039873Y016445D03*
X039873Y015445D03*
X038873Y015445D03*
X038873Y014445D03*
X039873Y014445D03*
X039873Y013445D03*
X038873Y013445D03*
X038873Y012445D03*
X039873Y012445D03*
X039873Y011445D03*
X038873Y011445D03*
X038873Y010445D03*
X039873Y010445D03*
X039873Y025445D03*
X038873Y025445D03*
D15*
X025762Y014456D03*
X025762Y013356D03*
X019877Y013336D03*
X019877Y014436D03*
D16*
X021648Y016278D03*
X021648Y016778D03*
X021648Y017278D03*
X021648Y017778D03*
X021648Y018278D03*
X021648Y018778D03*
X021648Y019278D03*
X023853Y019278D03*
X023853Y018778D03*
X023853Y018278D03*
X023853Y017778D03*
X023853Y017278D03*
X023853Y016778D03*
X023853Y016278D03*
D17*
X026873Y016445D03*
X027873Y016445D03*
X027873Y017445D03*
X026873Y017445D03*
X026873Y018445D03*
X027873Y018445D03*
X023681Y013748D03*
X022720Y013748D03*
X021781Y013748D03*
D18*
X016448Y016402D03*
X016448Y017402D03*
X016448Y019402D03*
X016448Y020402D03*
X016448Y021402D03*
X016448Y022402D03*
X008448Y022402D03*
X008448Y023402D03*
X008448Y024402D03*
X008448Y021402D03*
X008448Y020402D03*
X008448Y019402D03*
X008448Y018402D03*
X008448Y017402D03*
X008448Y016402D03*
X008448Y015402D03*
D19*
X008448Y016402D02*
X008010Y016402D01*
X007613Y016799D01*
X007613Y024575D01*
X010192Y027154D01*
X020164Y027154D01*
X020873Y026445D01*
X022672Y025756D02*
X022873Y025957D01*
X022873Y026445D01*
X022672Y025756D02*
X017180Y025756D01*
X016825Y025402D01*
X016273Y025813D02*
X015625Y025165D01*
X013444Y025165D01*
X013440Y025169D01*
X012337Y026380D02*
X012273Y026445D01*
X012337Y026380D02*
X012337Y020854D01*
X008885Y017402D01*
X008448Y017402D01*
X013440Y021091D02*
X016196Y018335D01*
X018219Y018335D01*
X020306Y020421D01*
X020192Y021209D02*
X021735Y021209D01*
X023546Y023020D01*
X022546Y023020D02*
X021286Y021760D01*
X020192Y021760D01*
X018833Y020402D01*
X016448Y020402D01*
X016448Y021402D02*
X019322Y021402D01*
X019995Y022075D01*
X020601Y022075D01*
X021546Y023020D01*
X020546Y023020D02*
X019928Y022402D01*
X016448Y022402D01*
X015172Y022902D02*
X016273Y024002D01*
X016273Y026445D01*
X016273Y025813D01*
X013440Y022169D02*
X013440Y021091D01*
X016448Y019402D02*
X018385Y019402D01*
X020192Y021209D01*
X023223Y019417D02*
X023676Y019870D01*
X028105Y019870D01*
X028892Y020657D01*
X028892Y022016D01*
X030211Y023335D01*
X030822Y023335D01*
X031176Y023689D01*
X030664Y024240D02*
X032554Y024240D01*
X033164Y023630D01*
X033696Y023630D01*
X035192Y025126D01*
X037554Y025126D01*
X038873Y026445D01*
X039873Y026445D01*
X033164Y023630D02*
X033164Y022319D01*
X033182Y021301D02*
X035386Y021301D01*
X036014Y021929D01*
X031825Y020618D02*
X031825Y019299D01*
X032455Y018669D01*
X035644Y018669D01*
X039050Y015264D01*
X039050Y015268D01*
X038873Y015445D01*
X038873Y014445D02*
X037664Y014445D01*
X033892Y018217D01*
X030930Y018217D01*
X030246Y017532D01*
X029861Y016917D02*
X030246Y016532D01*
X030242Y016532D01*
X029129Y017646D01*
X029129Y017961D01*
X029640Y018472D01*
X030349Y018472D01*
X031314Y019437D01*
X031314Y020169D01*
X030182Y021301D01*
X030182Y022262D02*
X031825Y020618D01*
X030182Y020301D02*
X029052Y020301D01*
X028028Y019278D01*
X028617Y018689D01*
X028617Y018189D01*
X027873Y017445D01*
X027318Y016917D02*
X029861Y016917D01*
X027318Y016917D02*
X026873Y017362D01*
X026873Y017445D01*
X024719Y017272D02*
X024674Y017278D01*
X023853Y017278D01*
X023853Y017778D02*
X023386Y017778D01*
X023223Y017941D01*
X023223Y019417D01*
X023853Y019278D02*
X028028Y019278D01*
X027755Y020421D02*
X027755Y021783D01*
X028656Y022685D01*
X029050Y023079D01*
X029503Y023079D01*
X030664Y024240D01*
X028656Y022909D02*
X027546Y024020D01*
X026546Y024020D01*
X028656Y022909D02*
X028656Y022685D01*
X030182Y022301D02*
X030182Y022262D01*
X024759Y018768D02*
X024690Y018778D01*
X023853Y018778D01*
X023853Y018278D02*
X024737Y018278D01*
X024759Y018276D01*
X023853Y016278D02*
X022800Y015224D01*
X021251Y015224D01*
X019877Y013336D02*
X018321Y011780D01*
X017735Y011780D01*
X015955Y011780D02*
X015487Y011780D01*
X014857Y011150D01*
X014857Y007461D01*
X014873Y007445D01*
X017873Y007445D02*
X018873Y007445D01*
X020192Y009732D02*
X023203Y009732D01*
X023223Y009752D01*
X023223Y010752D02*
X026235Y010752D01*
X030246Y014532D02*
X031916Y012862D01*
X035318Y012862D01*
X035408Y012772D01*
X035408Y011772D02*
X038199Y011772D01*
X038873Y012445D01*
X035408Y009772D02*
X034487Y010693D01*
X032318Y010693D01*
X021648Y017278D02*
X020257Y017278D01*
X020251Y017272D01*
X020257Y017778D02*
X020251Y017783D01*
X020257Y017778D02*
X021648Y017778D01*
D20*
X021648Y016278D02*
X020320Y016278D01*
X020290Y016248D01*
X023853Y016778D02*
X024386Y016778D01*
X024680Y016484D01*
X024680Y015654D01*
X024251Y015224D01*
X028495Y010752D02*
X028971Y011228D01*
X031782Y011228D01*
X032318Y010693D01*
X028495Y010752D02*
X026235Y010752D01*
X023223Y010752D02*
X020211Y010752D01*
X020192Y010732D01*
X020160Y010732D01*
X016873Y007445D01*
X024546Y023020D02*
X024546Y023181D01*
X025054Y023689D01*
X025054Y025626D01*
X025873Y026445D01*
X026038Y025610D02*
X026873Y026445D01*
X026038Y025610D02*
X026038Y023728D01*
X025546Y023236D01*
X025546Y023020D01*
D21*
X006533Y010254D02*
X006533Y006586D01*
X041648Y006586D01*
X041648Y027224D01*
X037670Y027220D01*
X037843Y027148D01*
X038076Y026915D01*
X038203Y026610D01*
X038203Y026280D01*
X038096Y026021D01*
X038356Y026282D01*
X038333Y026337D01*
X038333Y026552D01*
X038415Y026751D01*
X038567Y026903D01*
X038765Y026985D01*
X038980Y026985D01*
X039179Y026903D01*
X039330Y026751D01*
X039354Y026695D01*
X039392Y026695D01*
X039415Y026751D01*
X039567Y026903D01*
X039765Y026985D01*
X039980Y026985D01*
X040179Y026903D01*
X040330Y026751D01*
X040413Y026552D01*
X040413Y026337D01*
X040330Y026139D01*
X040179Y025987D01*
X041648Y025987D01*
X041648Y025889D02*
X040192Y025889D01*
X040179Y025987D02*
X040119Y025962D01*
X040413Y025669D01*
X040413Y025221D01*
X040136Y024945D01*
X040413Y024669D01*
X040413Y024221D01*
X040136Y023945D01*
X040413Y023669D01*
X040413Y023221D01*
X040136Y022945D01*
X040413Y022669D01*
X040413Y022221D01*
X040136Y021945D01*
X040413Y021669D01*
X040413Y021221D01*
X040136Y020945D01*
X040413Y020669D01*
X040413Y020221D01*
X040136Y019945D01*
X040413Y019669D01*
X040413Y019221D01*
X040136Y018945D01*
X040413Y018669D01*
X040413Y018221D01*
X040136Y017945D01*
X040413Y017669D01*
X040413Y017221D01*
X040136Y016945D01*
X040413Y016669D01*
X040413Y016221D01*
X040136Y015945D01*
X040413Y015669D01*
X040413Y015221D01*
X040136Y014945D01*
X040413Y014669D01*
X040413Y014221D01*
X040136Y013945D01*
X040413Y013669D01*
X040413Y013221D01*
X040136Y012945D01*
X040413Y012669D01*
X040413Y012221D01*
X040136Y011945D01*
X040413Y011669D01*
X040413Y011221D01*
X040136Y010945D01*
X040413Y010669D01*
X040413Y010221D01*
X040103Y009911D01*
X040145Y009890D01*
X040211Y009842D01*
X040269Y009784D01*
X040317Y009717D01*
X040355Y009644D01*
X040380Y009567D01*
X040391Y009495D01*
X039923Y009495D01*
X039923Y009395D01*
X040391Y009395D01*
X040380Y009323D01*
X040355Y009245D01*
X040317Y009172D01*
X040269Y009106D01*
X040211Y009048D01*
X040145Y009000D01*
X040072Y008963D01*
X039994Y008938D01*
X039923Y008926D01*
X039923Y009395D01*
X039823Y009395D01*
X039823Y008926D01*
X039751Y008938D01*
X039673Y008963D01*
X039600Y009000D01*
X039534Y009048D01*
X039476Y009106D01*
X039428Y009172D01*
X039391Y009245D01*
X039373Y009301D01*
X039355Y009245D01*
X039317Y009172D01*
X039269Y009106D01*
X039211Y009048D01*
X039145Y009000D01*
X039072Y008963D01*
X038994Y008938D01*
X038923Y008926D01*
X038923Y009395D01*
X038923Y009495D01*
X039823Y009495D01*
X039823Y009395D01*
X039354Y009395D01*
X038923Y009395D01*
X038823Y009395D01*
X038823Y008926D01*
X038751Y008938D01*
X038673Y008963D01*
X038600Y009000D01*
X038534Y009048D01*
X038476Y009106D01*
X038428Y009172D01*
X038391Y009245D01*
X038366Y009323D01*
X038354Y009395D01*
X038823Y009395D01*
X038823Y009495D01*
X038354Y009495D01*
X038366Y009567D01*
X038391Y009644D01*
X038428Y009717D01*
X038476Y009784D01*
X038534Y009842D01*
X038600Y009890D01*
X038643Y009911D01*
X038333Y010221D01*
X038333Y010669D01*
X038609Y010945D01*
X038333Y011221D01*
X038333Y011556D01*
X038249Y011522D01*
X035889Y011522D01*
X035866Y011466D01*
X035714Y011314D01*
X035612Y011272D01*
X035714Y011229D01*
X035866Y011078D01*
X035948Y010879D01*
X035948Y010664D01*
X035866Y010466D01*
X035714Y010314D01*
X035709Y010312D01*
X035849Y010312D01*
X035948Y010212D01*
X035948Y009331D01*
X035849Y009232D01*
X034968Y009232D01*
X034868Y009331D01*
X034868Y009958D01*
X034383Y010443D01*
X032799Y010443D01*
X032775Y010387D01*
X032623Y010235D01*
X032570Y010213D01*
X032707Y010213D01*
X032745Y010203D01*
X032780Y010183D01*
X032808Y010155D01*
X032827Y010121D01*
X032838Y010083D01*
X032838Y009743D01*
X032368Y009743D01*
X032368Y009643D01*
X032838Y009643D01*
X032838Y009303D01*
X032827Y009265D01*
X032808Y009231D01*
X032780Y009203D01*
X032745Y009183D01*
X032707Y009173D01*
X032368Y009173D01*
X032368Y009643D01*
X032268Y009643D01*
X032268Y009173D01*
X031928Y009173D01*
X031890Y009183D01*
X031855Y009203D01*
X031828Y009231D01*
X031808Y009265D01*
X031798Y009303D01*
X031798Y009643D01*
X032268Y009643D01*
X032268Y009743D01*
X031798Y009743D01*
X031798Y010083D01*
X031808Y010121D01*
X031828Y010155D01*
X031855Y010183D01*
X031890Y010203D01*
X031928Y010213D01*
X032065Y010213D01*
X032012Y010235D01*
X031860Y010387D01*
X031778Y010585D01*
X031778Y010800D01*
X031809Y010876D01*
X031687Y010998D01*
X029701Y010998D01*
X029772Y010828D01*
X029772Y010613D01*
X029690Y010415D01*
X029538Y010263D01*
X029533Y010260D01*
X029672Y010260D01*
X029772Y010161D01*
X029772Y009280D01*
X029672Y009180D01*
X028792Y009180D01*
X028692Y009280D01*
X028692Y010161D01*
X028792Y010260D01*
X028931Y010260D01*
X028926Y010263D01*
X028774Y010415D01*
X028692Y010613D01*
X028692Y010624D01*
X028590Y010522D01*
X026724Y010522D01*
X026693Y010446D01*
X026541Y010294D01*
X026487Y010272D01*
X026625Y010272D01*
X026663Y010262D01*
X026697Y010242D01*
X026725Y010214D01*
X026745Y010180D01*
X026755Y010142D01*
X026755Y009802D01*
X026285Y009802D01*
X026285Y009702D01*
X026755Y009702D01*
X026755Y009362D01*
X026745Y009324D01*
X026725Y009290D01*
X026697Y009262D01*
X026663Y009242D01*
X026625Y009232D01*
X026285Y009232D01*
X026285Y009702D01*
X026185Y009702D01*
X026185Y009232D01*
X025845Y009232D01*
X025807Y009242D01*
X025773Y009262D01*
X025745Y009290D01*
X025725Y009324D01*
X025715Y009362D01*
X025715Y009702D01*
X026185Y009702D01*
X026185Y009802D01*
X025715Y009802D01*
X025715Y010142D01*
X025725Y010180D01*
X025745Y010214D01*
X025773Y010242D01*
X025807Y010262D01*
X025845Y010272D01*
X025983Y010272D01*
X025929Y010294D01*
X025777Y010446D01*
X025754Y010502D01*
X023704Y010502D01*
X023681Y010446D01*
X023529Y010294D01*
X023475Y010272D01*
X023613Y010272D01*
X023651Y010262D01*
X023685Y010242D01*
X023713Y010214D01*
X023733Y010180D01*
X023743Y010142D01*
X023743Y009802D01*
X023273Y009802D01*
X023273Y009702D01*
X023273Y009232D01*
X023613Y009232D01*
X023651Y009242D01*
X023685Y009262D01*
X023713Y009290D01*
X023733Y009324D01*
X023743Y009362D01*
X023743Y009702D01*
X023273Y009702D01*
X023173Y009702D01*
X022703Y009702D01*
X022703Y009362D01*
X022713Y009324D01*
X022733Y009290D01*
X022761Y009262D01*
X022795Y009242D01*
X022833Y009232D01*
X023173Y009232D01*
X023173Y009702D01*
X023173Y009802D01*
X022703Y009802D01*
X022703Y010142D01*
X022713Y010180D01*
X022733Y010214D01*
X022761Y010242D01*
X022795Y010262D01*
X022833Y010272D01*
X022971Y010272D01*
X022917Y010294D01*
X022765Y010446D01*
X022734Y010522D01*
X020689Y010522D01*
X020649Y010426D01*
X020497Y010274D01*
X020444Y010252D01*
X020581Y010252D01*
X020619Y010242D01*
X020654Y010222D01*
X020682Y010194D01*
X020701Y010160D01*
X020712Y010122D01*
X020712Y009782D01*
X020242Y009782D01*
X020242Y009682D01*
X020712Y009682D01*
X020712Y009343D01*
X020701Y009304D01*
X020682Y009270D01*
X020654Y009242D01*
X020619Y009223D01*
X020581Y009212D01*
X020242Y009212D01*
X020242Y009682D01*
X020142Y009682D01*
X020142Y009212D01*
X019802Y009212D01*
X019764Y009223D01*
X019729Y009242D01*
X018995Y009242D01*
X018897Y009144D02*
X038449Y009144D01*
X038392Y009242D02*
X035859Y009242D01*
X035948Y009341D02*
X038363Y009341D01*
X038361Y009538D02*
X035948Y009538D01*
X035948Y009636D02*
X038388Y009636D01*
X038441Y009735D02*
X035948Y009735D01*
X035948Y009833D02*
X038526Y009833D01*
X038622Y009932D02*
X035948Y009932D01*
X035948Y010030D02*
X038524Y010030D01*
X038425Y010129D02*
X035948Y010129D01*
X035933Y010227D02*
X038333Y010227D01*
X038333Y010326D02*
X035726Y010326D01*
X035824Y010424D02*
X038333Y010424D01*
X038333Y010523D02*
X035890Y010523D01*
X035930Y010621D02*
X038333Y010621D01*
X038384Y010720D02*
X035948Y010720D01*
X035948Y010818D02*
X038482Y010818D01*
X038581Y010917D02*
X035932Y010917D01*
X035892Y011015D02*
X038539Y011015D01*
X038440Y011114D02*
X035830Y011114D01*
X035731Y011212D02*
X038342Y011212D01*
X038333Y011311D02*
X035707Y011311D01*
X035809Y011409D02*
X038333Y011409D01*
X038333Y011508D02*
X035883Y011508D01*
X035889Y012022D02*
X035866Y012078D01*
X035714Y012229D01*
X035586Y012283D01*
X035608Y012290D01*
X035681Y012327D01*
X035747Y012375D01*
X035805Y012433D01*
X035853Y012499D01*
X035890Y012572D01*
X035915Y012650D01*
X035927Y012722D01*
X035458Y012722D01*
X035458Y012822D01*
X035358Y012822D01*
X035358Y013290D01*
X035286Y013279D01*
X035209Y013254D01*
X035136Y013216D01*
X035069Y013168D01*
X035012Y013110D01*
X034963Y013044D01*
X034926Y012971D01*
X034901Y012893D01*
X034890Y012822D01*
X035358Y012822D01*
X035358Y012722D01*
X034890Y012722D01*
X034901Y012650D01*
X034926Y012572D01*
X034963Y012499D01*
X035012Y012433D01*
X035069Y012375D01*
X035136Y012327D01*
X035209Y012290D01*
X035231Y012283D01*
X035102Y012229D01*
X034950Y012078D01*
X034868Y011879D01*
X034868Y011664D01*
X034950Y011466D01*
X035102Y011314D01*
X035204Y011272D01*
X035102Y011229D01*
X034950Y011078D01*
X034868Y010879D01*
X034868Y010665D01*
X034628Y010905D01*
X034537Y010943D01*
X032799Y010943D01*
X032775Y010999D01*
X032623Y011151D01*
X032522Y011193D01*
X032623Y011235D01*
X032775Y011387D01*
X032858Y011585D01*
X032858Y011800D01*
X032775Y011999D01*
X032623Y012151D01*
X032425Y012233D01*
X032210Y012233D01*
X032012Y012151D01*
X031860Y011999D01*
X031778Y011800D01*
X031778Y011585D01*
X031830Y011458D01*
X029708Y011458D01*
X029772Y011613D01*
X029772Y011828D01*
X029690Y012026D01*
X029538Y012178D01*
X029339Y012260D01*
X029125Y012260D01*
X028926Y012178D01*
X028774Y012026D01*
X028692Y011828D01*
X028692Y011613D01*
X028774Y011415D01*
X028803Y011386D01*
X028741Y011324D01*
X028399Y010982D01*
X026724Y010982D01*
X026693Y011058D01*
X026541Y011210D01*
X026439Y011252D01*
X026541Y011294D01*
X026693Y011446D01*
X026775Y011645D01*
X026775Y011859D01*
X026693Y012058D01*
X026541Y012210D01*
X026342Y012292D01*
X026127Y012292D01*
X025929Y012210D01*
X025777Y012058D01*
X025695Y011859D01*
X025695Y011645D01*
X025777Y011446D01*
X025929Y011294D01*
X026031Y011252D01*
X025929Y011210D01*
X025777Y011058D01*
X025754Y011002D01*
X023704Y011002D01*
X023681Y011058D01*
X023529Y011210D01*
X023427Y011252D01*
X023529Y011294D01*
X023681Y011446D01*
X023763Y011645D01*
X023763Y011859D01*
X023681Y012058D01*
X023529Y012210D01*
X023331Y012292D01*
X023116Y012292D01*
X022917Y012210D01*
X022765Y012058D01*
X022683Y011859D01*
X022683Y011645D01*
X022765Y011446D01*
X022917Y011294D01*
X023019Y011252D01*
X022917Y011210D01*
X022765Y011058D01*
X022734Y010982D01*
X020673Y010982D01*
X020649Y011038D01*
X020497Y011190D01*
X020396Y011232D01*
X020497Y011274D01*
X020649Y011426D01*
X020732Y011625D01*
X020732Y011840D01*
X020649Y012038D01*
X020497Y012190D01*
X020299Y012272D01*
X020084Y012272D01*
X019886Y012190D01*
X019734Y012038D01*
X019652Y011840D01*
X019652Y011625D01*
X019734Y011426D01*
X019886Y011274D01*
X019988Y011232D01*
X019886Y011190D01*
X019734Y011038D01*
X019652Y010840D01*
X019652Y010625D01*
X019674Y010571D01*
X018275Y009173D01*
X018275Y009327D01*
X018193Y009526D01*
X018041Y009678D01*
X017843Y009760D01*
X017628Y009760D01*
X017429Y009678D01*
X017277Y009526D01*
X017195Y009327D01*
X017195Y009113D01*
X017277Y008914D01*
X017429Y008762D01*
X017628Y008680D01*
X017783Y008680D01*
X017056Y007953D01*
X016980Y007985D01*
X016765Y007985D01*
X016567Y007903D01*
X016415Y007751D01*
X016373Y007649D01*
X016330Y007751D01*
X016179Y007903D01*
X015980Y007985D01*
X015765Y007985D01*
X015567Y007903D01*
X015415Y007751D01*
X015373Y007649D01*
X015330Y007751D01*
X015179Y007903D01*
X015107Y007932D01*
X015107Y011046D01*
X015516Y011455D01*
X015649Y011322D01*
X015848Y011240D01*
X016063Y011240D01*
X016261Y011322D01*
X016413Y011474D01*
X016495Y011673D01*
X016495Y011887D01*
X016413Y012086D01*
X016261Y012238D01*
X016063Y012320D01*
X015848Y012320D01*
X015649Y012238D01*
X015497Y012086D01*
X015474Y012030D01*
X015438Y012030D01*
X015346Y011992D01*
X014715Y011362D01*
X014645Y011291D01*
X014607Y011199D01*
X014607Y007919D01*
X014567Y007903D01*
X014415Y007751D01*
X014333Y007552D01*
X014333Y007337D01*
X014415Y007139D01*
X014567Y006987D01*
X014765Y006905D01*
X014980Y006905D01*
X015179Y006987D01*
X015330Y007139D01*
X015373Y007241D01*
X015415Y007139D01*
X015567Y006987D01*
X015765Y006905D01*
X015980Y006905D01*
X016179Y006987D01*
X016330Y007139D01*
X016373Y007241D01*
X016415Y007139D01*
X016567Y006987D01*
X016765Y006905D01*
X016980Y006905D01*
X017179Y006987D01*
X017330Y007139D01*
X017384Y007267D01*
X017391Y007245D01*
X017428Y007172D01*
X017476Y007106D01*
X017534Y007048D01*
X017600Y007000D01*
X017673Y006963D01*
X017751Y006938D01*
X017823Y006926D01*
X017823Y007395D01*
X017923Y007395D01*
X017923Y007495D01*
X018823Y007495D01*
X018823Y007963D01*
X018751Y007952D01*
X018673Y007927D01*
X018600Y007890D01*
X018534Y007842D01*
X018476Y007784D01*
X018428Y007717D01*
X018391Y007644D01*
X018373Y007589D01*
X018355Y007644D01*
X018317Y007717D01*
X018269Y007784D01*
X018211Y007842D01*
X018145Y007890D01*
X018072Y007927D01*
X017994Y007952D01*
X017923Y007963D01*
X017923Y007495D01*
X017823Y007495D01*
X017823Y007963D01*
X017751Y007952D01*
X017683Y007930D01*
X019672Y009919D01*
X019672Y009782D01*
X020142Y009782D01*
X020142Y009682D01*
X019672Y009682D01*
X019672Y009343D01*
X019682Y009304D01*
X019702Y009270D01*
X019729Y009242D01*
X019672Y009341D02*
X019094Y009341D01*
X019192Y009439D02*
X019672Y009439D01*
X019672Y009538D02*
X019291Y009538D01*
X019389Y009636D02*
X019672Y009636D01*
X019672Y009833D02*
X019586Y009833D01*
X019488Y009735D02*
X020142Y009735D01*
X020142Y009636D02*
X020242Y009636D01*
X020242Y009538D02*
X020142Y009538D01*
X020142Y009439D02*
X020242Y009439D01*
X020242Y009341D02*
X020142Y009341D01*
X020142Y009242D02*
X020242Y009242D01*
X020654Y009242D02*
X022795Y009242D01*
X022709Y009341D02*
X020711Y009341D01*
X020712Y009439D02*
X022703Y009439D01*
X022703Y009538D02*
X020712Y009538D01*
X020712Y009636D02*
X022703Y009636D01*
X022703Y009833D02*
X020712Y009833D01*
X020712Y009932D02*
X022703Y009932D01*
X022703Y010030D02*
X020712Y010030D01*
X020710Y010129D02*
X022703Y010129D01*
X022746Y010227D02*
X020645Y010227D01*
X020549Y010326D02*
X022886Y010326D01*
X022787Y010424D02*
X020647Y010424D01*
X020659Y011015D02*
X022748Y011015D01*
X022821Y011114D02*
X020574Y011114D01*
X020444Y011212D02*
X022923Y011212D01*
X022901Y011311D02*
X020534Y011311D01*
X020632Y011409D02*
X022802Y011409D01*
X022740Y011508D02*
X020683Y011508D01*
X020724Y011606D02*
X022699Y011606D01*
X022683Y011705D02*
X020732Y011705D01*
X020732Y011803D02*
X022683Y011803D01*
X022701Y011902D02*
X020706Y011902D01*
X020665Y012000D02*
X022741Y012000D01*
X022806Y012099D02*
X020589Y012099D01*
X020480Y012197D02*
X022905Y012197D01*
X023541Y012197D02*
X025917Y012197D01*
X025818Y012099D02*
X023640Y012099D01*
X023705Y012000D02*
X025753Y012000D01*
X025712Y011902D02*
X023746Y011902D01*
X023763Y011803D02*
X025695Y011803D01*
X025695Y011705D02*
X023763Y011705D01*
X023747Y011606D02*
X025711Y011606D01*
X025752Y011508D02*
X023706Y011508D01*
X023644Y011409D02*
X025814Y011409D01*
X025912Y011311D02*
X023546Y011311D01*
X023523Y011212D02*
X025935Y011212D01*
X025833Y011114D02*
X023625Y011114D01*
X023698Y011015D02*
X025760Y011015D01*
X025799Y010424D02*
X023659Y010424D01*
X023561Y010326D02*
X025897Y010326D01*
X025758Y010227D02*
X023700Y010227D01*
X023743Y010129D02*
X025715Y010129D01*
X025715Y010030D02*
X023743Y010030D01*
X023743Y009932D02*
X025715Y009932D01*
X025715Y009833D02*
X023743Y009833D01*
X023743Y009636D02*
X025715Y009636D01*
X025715Y009538D02*
X023743Y009538D01*
X023743Y009439D02*
X025715Y009439D01*
X025721Y009341D02*
X023737Y009341D01*
X023651Y009242D02*
X025807Y009242D01*
X026185Y009242D02*
X026285Y009242D01*
X026285Y009341D02*
X026185Y009341D01*
X026185Y009439D02*
X026285Y009439D01*
X026285Y009538D02*
X026185Y009538D01*
X026185Y009636D02*
X026285Y009636D01*
X026285Y009735D02*
X028692Y009735D01*
X028692Y009833D02*
X026755Y009833D01*
X026755Y009932D02*
X028692Y009932D01*
X028692Y010030D02*
X026755Y010030D01*
X026755Y010129D02*
X028692Y010129D01*
X028758Y010227D02*
X026712Y010227D01*
X026572Y010326D02*
X028863Y010326D01*
X028770Y010424D02*
X026671Y010424D01*
X026710Y011015D02*
X028433Y011015D01*
X028531Y011114D02*
X026637Y011114D01*
X026535Y011212D02*
X028630Y011212D01*
X028728Y011311D02*
X026557Y011311D01*
X026656Y011409D02*
X028779Y011409D01*
X028736Y011508D02*
X026718Y011508D01*
X026759Y011606D02*
X028695Y011606D01*
X028692Y011705D02*
X026775Y011705D01*
X026775Y011803D02*
X028692Y011803D01*
X028723Y011902D02*
X026757Y011902D01*
X026717Y012000D02*
X028763Y012000D01*
X028847Y012099D02*
X026652Y012099D01*
X026553Y012197D02*
X028972Y012197D01*
X029492Y012197D02*
X032124Y012197D01*
X031960Y012099D02*
X029617Y012099D01*
X029701Y012000D02*
X031861Y012000D01*
X031820Y011902D02*
X029741Y011902D01*
X029772Y011803D02*
X031779Y011803D01*
X031778Y011705D02*
X029772Y011705D01*
X029769Y011606D02*
X031778Y011606D01*
X031810Y011508D02*
X029728Y011508D01*
X029735Y010917D02*
X031768Y010917D01*
X031785Y010818D02*
X029772Y010818D01*
X029772Y010720D02*
X031778Y010720D01*
X031778Y010621D02*
X029772Y010621D01*
X029735Y010523D02*
X031804Y010523D01*
X031844Y010424D02*
X029694Y010424D01*
X029601Y010326D02*
X031921Y010326D01*
X032030Y010227D02*
X029706Y010227D01*
X029772Y010129D02*
X031812Y010129D01*
X031798Y010030D02*
X029772Y010030D01*
X029772Y009932D02*
X031798Y009932D01*
X031798Y009833D02*
X029772Y009833D01*
X029772Y009735D02*
X032268Y009735D01*
X032268Y009636D02*
X032368Y009636D01*
X032368Y009538D02*
X032268Y009538D01*
X032268Y009439D02*
X032368Y009439D01*
X032368Y009341D02*
X032268Y009341D01*
X032268Y009242D02*
X032368Y009242D01*
X032814Y009242D02*
X034957Y009242D01*
X034868Y009341D02*
X032838Y009341D01*
X032838Y009439D02*
X034868Y009439D01*
X034868Y009538D02*
X032838Y009538D01*
X032838Y009636D02*
X034868Y009636D01*
X034868Y009735D02*
X032368Y009735D01*
X032838Y009833D02*
X034868Y009833D01*
X034868Y009932D02*
X032838Y009932D01*
X032838Y010030D02*
X034796Y010030D01*
X034697Y010129D02*
X032823Y010129D01*
X032714Y010326D02*
X034500Y010326D01*
X034402Y010424D02*
X032791Y010424D01*
X032605Y010227D02*
X034599Y010227D01*
X034814Y010720D02*
X034868Y010720D01*
X034868Y010818D02*
X034715Y010818D01*
X034600Y010917D02*
X034884Y010917D01*
X034925Y011015D02*
X032759Y011015D01*
X032660Y011114D02*
X034987Y011114D01*
X035085Y011212D02*
X032568Y011212D01*
X032699Y011311D02*
X035110Y011311D01*
X035007Y011409D02*
X032785Y011409D01*
X032825Y011508D02*
X034933Y011508D01*
X034892Y011606D02*
X032858Y011606D01*
X032858Y011705D02*
X034868Y011705D01*
X034868Y011803D02*
X032856Y011803D01*
X032816Y011902D02*
X034878Y011902D01*
X034918Y012000D02*
X032774Y012000D01*
X032675Y012099D02*
X034972Y012099D01*
X035070Y012197D02*
X032511Y012197D01*
X034895Y012690D02*
X013259Y012690D01*
X013358Y012788D02*
X019817Y012788D01*
X019827Y012788D02*
X019927Y012788D01*
X019927Y012787D02*
X020005Y012799D01*
X020088Y012826D01*
X020165Y012865D01*
X020235Y012916D01*
X020296Y012978D01*
X020347Y013048D01*
X020386Y013125D01*
X020413Y013207D01*
X020426Y013286D01*
X019927Y013286D01*
X019927Y013386D01*
X020426Y013386D01*
X020413Y013465D01*
X020386Y013547D01*
X020347Y013624D01*
X020296Y013694D01*
X020235Y013755D01*
X020165Y013806D01*
X020088Y013846D01*
X020006Y013872D01*
X020200Y013953D01*
X020360Y014113D01*
X020447Y014322D01*
X020447Y014549D01*
X020360Y014759D01*
X020200Y014919D01*
X019990Y015006D01*
X019763Y015006D01*
X019554Y014919D01*
X019393Y014759D01*
X019307Y014549D01*
X019307Y014322D01*
X019393Y014113D01*
X019554Y013953D01*
X019748Y013872D01*
X019666Y013846D01*
X019588Y013806D01*
X019518Y013755D01*
X019457Y013694D01*
X019406Y013624D01*
X019367Y013547D01*
X019340Y013465D01*
X019328Y013386D01*
X019827Y013386D01*
X019827Y013286D01*
X019927Y013286D01*
X019927Y012787D01*
X019936Y012788D02*
X035358Y012788D01*
X035358Y012887D02*
X035458Y012887D01*
X035458Y012822D02*
X035458Y013290D01*
X035530Y013279D01*
X035608Y013254D01*
X035681Y013216D01*
X035747Y013168D01*
X035805Y013110D01*
X035853Y013044D01*
X035890Y012971D01*
X035915Y012893D01*
X035927Y012822D01*
X035458Y012822D01*
X035458Y012788D02*
X038452Y012788D01*
X038354Y012690D02*
X035922Y012690D01*
X035896Y012591D02*
X038333Y012591D01*
X038333Y012669D02*
X038333Y012258D01*
X038096Y012022D01*
X035889Y012022D01*
X035845Y012099D02*
X038173Y012099D01*
X038272Y012197D02*
X035746Y012197D01*
X035620Y012296D02*
X038333Y012296D01*
X038333Y012394D02*
X035766Y012394D01*
X035848Y012493D02*
X038333Y012493D01*
X038333Y012669D02*
X038609Y012945D01*
X038333Y013221D01*
X038333Y013669D01*
X038609Y013945D01*
X038359Y014195D01*
X037614Y014195D01*
X037522Y014233D01*
X033789Y017967D01*
X031033Y017967D01*
X030832Y017766D01*
X030833Y017765D01*
X030896Y017614D01*
X030896Y017451D01*
X030833Y017300D01*
X030718Y017185D01*
X030567Y017122D01*
X030009Y017122D01*
X034633Y017122D01*
X034732Y017024D02*
X030108Y017024D01*
X030189Y016942D02*
X030009Y017122D01*
X030189Y016942D02*
X030567Y016942D01*
X030718Y016880D01*
X030833Y016765D01*
X030896Y016614D01*
X030896Y016451D01*
X030833Y016300D01*
X030718Y016185D01*
X030567Y016122D01*
X029924Y016122D01*
X029773Y016185D01*
X029658Y016300D01*
X029596Y016451D01*
X029596Y016614D01*
X029618Y016667D01*
X028189Y016667D01*
X028215Y016628D01*
X028244Y016558D01*
X028259Y016483D01*
X028259Y016474D01*
X027901Y016474D01*
X027901Y016416D01*
X027901Y016059D01*
X027911Y016059D01*
X027985Y016074D01*
X028056Y016103D01*
X028119Y016145D01*
X028173Y016199D01*
X028215Y016262D01*
X028244Y016332D01*
X028259Y016407D01*
X028259Y016416D01*
X027901Y016416D01*
X027844Y016416D01*
X027844Y016059D01*
X027835Y016059D01*
X027760Y016074D01*
X027690Y016103D01*
X027627Y016145D01*
X027573Y016199D01*
X027530Y016262D01*
X027501Y016332D01*
X027486Y016407D01*
X027486Y016416D01*
X027844Y016416D01*
X027844Y016474D01*
X027486Y016474D01*
X027486Y016483D01*
X027501Y016558D01*
X027530Y016628D01*
X027557Y016667D01*
X027268Y016667D01*
X027194Y016698D01*
X027217Y016675D01*
X027279Y016526D01*
X027279Y016364D01*
X027217Y016215D01*
X027103Y016101D01*
X026954Y016039D01*
X035717Y016039D01*
X035815Y015940D02*
X033572Y015940D01*
X033567Y015942D02*
X033718Y015880D01*
X033833Y015765D01*
X033896Y015614D01*
X033896Y015451D01*
X033833Y015300D01*
X033718Y015185D01*
X033567Y015122D01*
X032924Y015122D01*
X032773Y015185D01*
X032658Y015300D01*
X032596Y015451D01*
X032596Y015614D01*
X032658Y015765D01*
X032773Y015880D01*
X032924Y015942D01*
X033567Y015942D01*
X033567Y016122D02*
X033718Y016185D01*
X033833Y016300D01*
X033896Y016451D01*
X033896Y016614D01*
X033833Y016765D01*
X033718Y016880D01*
X033567Y016942D01*
X032924Y016942D01*
X032773Y016880D01*
X032658Y016765D01*
X032596Y016614D01*
X032596Y016451D01*
X032658Y016300D01*
X032773Y016185D01*
X032924Y016122D01*
X033567Y016122D01*
X033603Y016137D02*
X035618Y016137D01*
X035520Y016236D02*
X033769Y016236D01*
X033847Y016334D02*
X035421Y016334D01*
X035323Y016433D02*
X033888Y016433D01*
X033896Y016531D02*
X035224Y016531D01*
X035126Y016630D02*
X033889Y016630D01*
X033848Y016728D02*
X035027Y016728D01*
X034929Y016827D02*
X033771Y016827D01*
X033609Y016925D02*
X034830Y016925D01*
X034535Y017221D02*
X033754Y017221D01*
X033718Y017185D02*
X033833Y017300D01*
X033896Y017451D01*
X033896Y017614D01*
X033833Y017765D01*
X033718Y017880D01*
X033567Y017942D01*
X032924Y017942D01*
X032773Y017880D01*
X032658Y017765D01*
X032596Y017614D01*
X032596Y017451D01*
X032658Y017300D01*
X032773Y017185D01*
X032924Y017122D01*
X033567Y017122D01*
X033718Y017185D01*
X033841Y017319D02*
X034436Y017319D01*
X034338Y017418D02*
X033882Y017418D01*
X033896Y017516D02*
X034239Y017516D01*
X034141Y017615D02*
X033895Y017615D01*
X033855Y017713D02*
X034042Y017713D01*
X033944Y017812D02*
X033786Y017812D01*
X033845Y017910D02*
X033645Y017910D01*
X032847Y017910D02*
X030977Y017910D01*
X030879Y017812D02*
X032705Y017812D01*
X032637Y017713D02*
X030855Y017713D01*
X030895Y017615D02*
X032596Y017615D01*
X032596Y017516D02*
X030896Y017516D01*
X030882Y017418D02*
X032609Y017418D01*
X032650Y017319D02*
X030841Y017319D01*
X030754Y017221D02*
X032738Y017221D01*
X032883Y016925D02*
X030609Y016925D01*
X030771Y016827D02*
X032720Y016827D01*
X032643Y016728D02*
X030848Y016728D01*
X030889Y016630D02*
X032602Y016630D01*
X032596Y016531D02*
X030896Y016531D01*
X030888Y016433D02*
X032603Y016433D01*
X032644Y016334D02*
X030847Y016334D01*
X030769Y016236D02*
X032723Y016236D01*
X032888Y016137D02*
X030603Y016137D01*
X030567Y015942D02*
X030718Y015880D01*
X030833Y015765D01*
X030896Y015614D01*
X030896Y015451D01*
X030833Y015300D01*
X030718Y015185D01*
X030567Y015122D01*
X029924Y015122D01*
X029773Y015185D01*
X029658Y015300D01*
X029596Y015451D01*
X029596Y015614D01*
X029658Y015765D01*
X029773Y015880D01*
X029924Y015942D01*
X030567Y015942D01*
X030572Y015940D02*
X032919Y015940D01*
X032735Y015842D02*
X030756Y015842D01*
X030842Y015743D02*
X032649Y015743D01*
X032608Y015645D02*
X030883Y015645D01*
X030896Y015546D02*
X032596Y015546D01*
X032597Y015448D02*
X030894Y015448D01*
X030854Y015349D02*
X032638Y015349D01*
X032708Y015251D02*
X030784Y015251D01*
X030639Y015152D02*
X032852Y015152D01*
X032924Y014942D02*
X032773Y014880D01*
X032658Y014765D01*
X032596Y014614D01*
X032596Y014451D01*
X032658Y014300D01*
X032773Y014185D01*
X032924Y014122D01*
X033567Y014122D01*
X033718Y014185D01*
X033833Y014300D01*
X033896Y014451D01*
X033896Y014614D01*
X033833Y014765D01*
X033718Y014880D01*
X033567Y014942D01*
X032924Y014942D01*
X032750Y014857D02*
X030702Y014857D01*
X030670Y014878D02*
X030599Y014907D01*
X030524Y014922D01*
X030276Y014922D01*
X030276Y014562D01*
X030876Y014562D01*
X030876Y014571D01*
X030861Y014646D01*
X030831Y014717D01*
X030789Y014781D01*
X030734Y014835D01*
X030670Y014878D01*
X030804Y014758D02*
X032656Y014758D01*
X032615Y014660D02*
X030855Y014660D01*
X030876Y014502D02*
X030276Y014502D01*
X030276Y014142D01*
X030524Y014142D01*
X030599Y014157D01*
X030670Y014187D01*
X030734Y014230D01*
X030789Y014284D01*
X030831Y014348D01*
X030861Y014419D01*
X030876Y014494D01*
X030876Y014502D01*
X030870Y014463D02*
X032596Y014463D01*
X032596Y014561D02*
X030276Y014561D01*
X030276Y014562D02*
X030276Y014502D01*
X030216Y014502D01*
X030216Y014142D01*
X029967Y014142D01*
X029892Y014157D01*
X029821Y014187D01*
X029757Y014230D01*
X029703Y014284D01*
X029660Y014348D01*
X029631Y014419D01*
X029616Y014494D01*
X029616Y014502D01*
X030216Y014502D01*
X030216Y014562D01*
X029616Y014562D01*
X029616Y014571D01*
X029631Y014646D01*
X029660Y014717D01*
X029703Y014781D01*
X029757Y014835D01*
X029821Y014878D01*
X029892Y014907D01*
X029967Y014922D01*
X030216Y014922D01*
X030216Y014562D01*
X030276Y014562D01*
X030216Y014561D02*
X026332Y014561D01*
X026332Y014569D02*
X026246Y014778D01*
X026085Y014939D01*
X025876Y015026D01*
X025649Y015026D01*
X025440Y014939D01*
X025279Y014778D01*
X025192Y014569D01*
X025192Y014342D01*
X025279Y014133D01*
X025440Y013972D01*
X025634Y013892D01*
X025551Y013865D01*
X025474Y013826D01*
X025404Y013775D01*
X025343Y013714D01*
X025292Y013644D01*
X025253Y013567D01*
X025226Y013484D01*
X025214Y013406D01*
X025712Y013406D01*
X025712Y013306D01*
X025214Y013306D01*
X025226Y013227D01*
X025253Y013144D01*
X025292Y013067D01*
X025343Y012997D01*
X025404Y012936D01*
X025474Y012885D01*
X025551Y012846D01*
X025634Y012819D01*
X025712Y012807D01*
X025712Y013306D01*
X025812Y013306D01*
X025812Y013406D01*
X026311Y013406D01*
X026299Y013484D01*
X026272Y013567D01*
X026233Y013644D01*
X026182Y013714D01*
X026121Y013775D01*
X026051Y013826D01*
X025974Y013865D01*
X025891Y013892D01*
X026085Y013972D01*
X026246Y014133D01*
X026332Y014342D01*
X026332Y014569D01*
X026295Y014660D02*
X029636Y014660D01*
X029688Y014758D02*
X026254Y014758D01*
X026167Y014857D02*
X029789Y014857D01*
X029852Y015152D02*
X024791Y015152D01*
X024791Y015117D02*
X024791Y015332D01*
X024759Y015408D01*
X024775Y015424D01*
X024910Y015558D01*
X024910Y016580D01*
X024616Y016873D01*
X024482Y017008D01*
X024218Y017008D01*
X024184Y017042D01*
X024209Y017067D01*
X024229Y017102D01*
X024239Y017140D01*
X024239Y017269D01*
X023862Y017269D01*
X023862Y017287D01*
X024239Y017287D01*
X024239Y017415D01*
X024229Y017454D01*
X024209Y017488D01*
X024184Y017513D01*
X024259Y017589D01*
X024259Y017966D01*
X024198Y018028D01*
X024400Y018028D01*
X024400Y018017D01*
X024500Y017917D01*
X025017Y017917D01*
X025117Y018017D01*
X025117Y019026D01*
X025115Y019028D01*
X027925Y019028D01*
X028367Y018585D01*
X028367Y018293D01*
X027925Y017851D01*
X027792Y017851D01*
X027643Y017789D01*
X027528Y017675D01*
X027466Y017526D01*
X027466Y017364D01*
X027528Y017215D01*
X027576Y017167D01*
X027421Y017167D01*
X027263Y017326D01*
X027279Y017364D01*
X027279Y017526D01*
X027217Y017675D01*
X027103Y017789D01*
X026954Y017851D01*
X026792Y017851D01*
X026643Y017789D01*
X026528Y017675D01*
X026466Y017526D01*
X026466Y017364D01*
X026528Y017215D01*
X026643Y017101D01*
X026792Y017039D01*
X026843Y017039D01*
X027085Y016797D01*
X026954Y016851D01*
X026792Y016851D01*
X026643Y016789D01*
X026528Y016675D01*
X026466Y016526D01*
X026466Y016364D01*
X026528Y016215D01*
X026643Y016101D01*
X026792Y016039D01*
X026954Y016039D01*
X026791Y016039D02*
X024910Y016039D01*
X024910Y016137D02*
X026606Y016137D01*
X026520Y016236D02*
X024910Y016236D01*
X024910Y016334D02*
X026479Y016334D01*
X026466Y016433D02*
X024910Y016433D01*
X024910Y016531D02*
X026469Y016531D01*
X026510Y016630D02*
X024859Y016630D01*
X024761Y016728D02*
X026582Y016728D01*
X026733Y016827D02*
X024662Y016827D01*
X024564Y016925D02*
X026956Y016925D01*
X027012Y016827D02*
X027055Y016827D01*
X027236Y016630D02*
X027532Y016630D01*
X027496Y016531D02*
X027277Y016531D01*
X027279Y016433D02*
X027844Y016433D01*
X027901Y016433D02*
X029603Y016433D01*
X029596Y016531D02*
X028249Y016531D01*
X028214Y016630D02*
X029602Y016630D01*
X029644Y016334D02*
X028245Y016334D01*
X028198Y016236D02*
X029723Y016236D01*
X029888Y016137D02*
X028108Y016137D01*
X027901Y016137D02*
X027844Y016137D01*
X027844Y016236D02*
X027901Y016236D01*
X027901Y016334D02*
X027844Y016334D01*
X027638Y016137D02*
X027140Y016137D01*
X027226Y016236D02*
X027548Y016236D01*
X027501Y016334D02*
X027267Y016334D01*
X026858Y017024D02*
X024201Y017024D01*
X024235Y017122D02*
X026621Y017122D01*
X026526Y017221D02*
X024239Y017221D01*
X024239Y017319D02*
X026485Y017319D01*
X026466Y017418D02*
X024239Y017418D01*
X024187Y017516D02*
X026466Y017516D01*
X026503Y017615D02*
X024259Y017615D01*
X024259Y017713D02*
X026567Y017713D01*
X026697Y017812D02*
X024259Y017812D01*
X024259Y017910D02*
X027985Y017910D01*
X027954Y018039D02*
X028103Y018101D01*
X028217Y018215D01*
X028279Y018364D01*
X028279Y018526D01*
X028217Y018675D01*
X028103Y018789D01*
X027954Y018851D01*
X027792Y018851D01*
X027643Y018789D01*
X027528Y018675D01*
X027466Y018526D01*
X027466Y018364D01*
X027528Y018215D01*
X027643Y018101D01*
X027792Y018039D01*
X027954Y018039D01*
X028083Y018009D02*
X025108Y018009D01*
X025117Y018107D02*
X026636Y018107D01*
X026643Y018101D02*
X026792Y018039D01*
X026954Y018039D01*
X027103Y018101D01*
X027217Y018215D01*
X027279Y018364D01*
X027279Y018526D01*
X027217Y018675D01*
X027103Y018789D01*
X026954Y018851D01*
X026792Y018851D01*
X026643Y018789D01*
X026528Y018675D01*
X026466Y018526D01*
X026466Y018364D01*
X026528Y018215D01*
X026643Y018101D01*
X026537Y018206D02*
X025117Y018206D01*
X025117Y018304D02*
X026491Y018304D01*
X026466Y018403D02*
X025117Y018403D01*
X025117Y018501D02*
X026466Y018501D01*
X026497Y018600D02*
X025117Y018600D01*
X025117Y018698D02*
X026552Y018698D01*
X026661Y018797D02*
X025117Y018797D01*
X025117Y018895D02*
X028057Y018895D01*
X028084Y018797D02*
X028155Y018797D01*
X028194Y018698D02*
X028254Y018698D01*
X028248Y018600D02*
X028352Y018600D01*
X028367Y018501D02*
X028279Y018501D01*
X028279Y018403D02*
X028367Y018403D01*
X028367Y018304D02*
X028254Y018304D01*
X028280Y018206D02*
X028208Y018206D01*
X028182Y018107D02*
X028110Y018107D01*
X027636Y018107D02*
X027110Y018107D01*
X027208Y018206D02*
X027537Y018206D01*
X027491Y018304D02*
X027254Y018304D01*
X027279Y018403D02*
X027466Y018403D01*
X027466Y018501D02*
X027279Y018501D01*
X027248Y018600D02*
X027497Y018600D01*
X027552Y018698D02*
X027194Y018698D01*
X027084Y018797D02*
X027661Y018797D01*
X027958Y018994D02*
X025117Y018994D01*
X025214Y020120D02*
X025295Y020314D01*
X025295Y020529D01*
X025212Y020727D01*
X025060Y020879D01*
X024862Y020961D01*
X024647Y020961D01*
X024449Y020879D01*
X024297Y020727D01*
X024215Y020529D01*
X024215Y020314D01*
X024295Y020120D01*
X023766Y020120D01*
X023846Y020314D01*
X023846Y020529D01*
X023764Y020727D01*
X023612Y020879D01*
X023413Y020961D01*
X023198Y020961D01*
X023000Y020879D01*
X022848Y020727D01*
X022766Y020529D01*
X022766Y020314D01*
X022848Y020115D01*
X023000Y019963D01*
X023198Y019881D01*
X023333Y019881D01*
X023011Y019559D01*
X022973Y019467D01*
X022973Y017891D01*
X023011Y017799D01*
X023081Y017729D01*
X023245Y017566D01*
X023337Y017528D01*
X023508Y017528D01*
X023522Y017513D01*
X023497Y017488D01*
X023477Y017454D01*
X023467Y017415D01*
X023467Y017287D01*
X023844Y017287D01*
X023844Y017269D01*
X023467Y017269D01*
X023467Y017140D01*
X023477Y017102D01*
X023497Y017067D01*
X023522Y017042D01*
X023447Y016966D01*
X023447Y016589D01*
X023508Y016528D01*
X023447Y016466D01*
X023447Y016225D01*
X022696Y015474D01*
X021732Y015474D01*
X021708Y015530D01*
X021557Y015682D01*
X021358Y015764D01*
X021143Y015764D01*
X020945Y015682D01*
X020793Y015530D01*
X020711Y015332D01*
X020711Y015117D01*
X020793Y014919D01*
X020945Y014767D01*
X021143Y014684D01*
X021358Y014684D01*
X021557Y014767D01*
X021708Y014919D01*
X021732Y014974D01*
X022850Y014974D01*
X022941Y015012D01*
X023918Y015989D01*
X024160Y015989D01*
X024259Y016089D01*
X024259Y016466D01*
X024198Y016528D01*
X024218Y016548D01*
X024291Y016548D01*
X024450Y016389D01*
X024450Y015749D01*
X024434Y015733D01*
X024358Y015764D01*
X024143Y015764D01*
X023945Y015682D01*
X023793Y015530D01*
X023711Y015332D01*
X023711Y015117D01*
X023793Y014919D01*
X023945Y014767D01*
X024143Y014684D01*
X024358Y014684D01*
X024557Y014767D01*
X024708Y014919D01*
X024791Y015117D01*
X024764Y015054D02*
X036702Y015054D01*
X036800Y014955D02*
X026045Y014955D01*
X025480Y014955D02*
X024724Y014955D01*
X024647Y014857D02*
X025358Y014857D01*
X025271Y014758D02*
X024537Y014758D01*
X024791Y015251D02*
X029708Y015251D01*
X029638Y015349D02*
X024783Y015349D01*
X024799Y015448D02*
X029597Y015448D01*
X029596Y015546D02*
X024898Y015546D01*
X024910Y015645D02*
X029608Y015645D01*
X029649Y015743D02*
X024910Y015743D01*
X024910Y015842D02*
X029735Y015842D01*
X029919Y015940D02*
X024910Y015940D01*
X024450Y015940D02*
X023869Y015940D01*
X023771Y015842D02*
X024450Y015842D01*
X024444Y015743D02*
X024409Y015743D01*
X024450Y016039D02*
X024209Y016039D01*
X024259Y016137D02*
X024450Y016137D01*
X024450Y016236D02*
X024259Y016236D01*
X024259Y016334D02*
X024450Y016334D01*
X024406Y016433D02*
X024259Y016433D01*
X024307Y016531D02*
X024202Y016531D01*
X023504Y016531D02*
X021997Y016531D01*
X021993Y016528D02*
X022055Y016589D01*
X022055Y016966D01*
X021993Y017028D01*
X022055Y017089D01*
X022055Y017466D01*
X021993Y017528D01*
X022055Y017589D01*
X022055Y017966D01*
X021993Y018028D01*
X022055Y018089D01*
X022055Y018466D01*
X021993Y018528D01*
X022055Y018589D01*
X022055Y018966D01*
X021993Y019028D01*
X022055Y019089D01*
X022055Y019466D01*
X021955Y019566D01*
X021342Y019566D01*
X021242Y019466D01*
X021242Y019089D01*
X021304Y019028D01*
X021242Y018966D01*
X021242Y018589D01*
X021304Y018528D01*
X021242Y018466D01*
X021242Y018089D01*
X021304Y018028D01*
X021304Y018028D01*
X020609Y018028D01*
X020609Y018042D01*
X020509Y018142D01*
X019992Y018142D01*
X019893Y018042D01*
X019893Y017013D01*
X019992Y016914D01*
X020509Y016914D01*
X020609Y017013D01*
X020609Y017028D01*
X021304Y017028D01*
X021242Y016966D01*
X021242Y016589D01*
X021304Y016528D01*
X021284Y016508D01*
X020647Y016508D01*
X020549Y016606D01*
X020031Y016606D01*
X019932Y016507D01*
X019932Y015990D01*
X020031Y015890D01*
X020549Y015890D01*
X020648Y015990D01*
X020648Y016048D01*
X021284Y016048D01*
X021342Y015989D01*
X021955Y015989D01*
X022055Y016089D01*
X022055Y016466D01*
X021993Y016528D01*
X022055Y016433D02*
X023447Y016433D01*
X023447Y016334D02*
X022055Y016334D01*
X022055Y016236D02*
X023447Y016236D01*
X023359Y016137D02*
X022055Y016137D01*
X022004Y016039D02*
X023261Y016039D01*
X023162Y015940D02*
X020599Y015940D01*
X020648Y016039D02*
X021292Y016039D01*
X021409Y015743D02*
X022965Y015743D01*
X022867Y015645D02*
X021594Y015645D01*
X021692Y015546D02*
X022768Y015546D01*
X023064Y015842D02*
X016411Y015842D01*
X016446Y015877D02*
X016665Y015877D01*
X016972Y016184D01*
X016972Y016619D01*
X016689Y016902D01*
X016972Y017184D01*
X016972Y017619D01*
X016665Y017926D01*
X016230Y017926D01*
X016084Y017779D01*
X013228Y017779D01*
X013092Y017723D01*
X012988Y017619D01*
X007269Y011900D01*
X007259Y011910D01*
X007052Y011996D01*
X006828Y011996D01*
X006621Y011910D01*
X006533Y011823D01*
X006533Y027186D01*
X007496Y027187D01*
X007403Y027148D01*
X007169Y026915D01*
X007043Y026610D01*
X007043Y026280D01*
X007169Y025975D01*
X007403Y025741D01*
X007708Y025615D01*
X008038Y025615D01*
X008343Y025741D01*
X008576Y025975D01*
X008703Y026280D01*
X008703Y026610D01*
X008576Y026915D01*
X008343Y027148D01*
X008248Y027188D01*
X009874Y027190D01*
X007401Y024716D01*
X007363Y024625D01*
X007363Y016749D01*
X007401Y016658D01*
X007471Y016587D01*
X007869Y016190D01*
X007953Y016155D01*
X008206Y015902D01*
X007923Y015619D01*
X007923Y015184D01*
X008230Y014877D01*
X008665Y014877D01*
X008972Y015184D01*
X008972Y015619D01*
X008689Y015902D01*
X008972Y016184D01*
X008972Y016619D01*
X008675Y016916D01*
X008952Y017193D01*
X008952Y017352D01*
X008498Y017352D01*
X008498Y017452D01*
X008952Y017452D01*
X008952Y017610D01*
X008675Y017887D01*
X008972Y018184D01*
X008972Y018619D01*
X008689Y018902D01*
X008972Y019184D01*
X008972Y019619D01*
X008689Y019902D01*
X008972Y020184D01*
X008972Y020619D01*
X008689Y020902D01*
X008972Y021184D01*
X008972Y021619D01*
X008689Y021902D01*
X008972Y022184D01*
X008972Y022619D01*
X008689Y022902D01*
X008972Y023184D01*
X008972Y023619D01*
X008689Y023902D01*
X008972Y024184D01*
X008972Y024619D01*
X008665Y024926D01*
X008318Y024926D01*
X010295Y026904D01*
X010969Y026904D01*
X010967Y026903D01*
X010815Y026751D01*
X010733Y026552D01*
X010733Y026337D01*
X010815Y026139D01*
X010967Y025987D01*
X011165Y025905D01*
X011380Y025905D01*
X011579Y025987D01*
X012025Y025987D01*
X012000Y026000D02*
X012073Y025963D01*
X012151Y025938D01*
X012223Y025926D01*
X012223Y026395D01*
X012323Y026395D01*
X012323Y025926D01*
X012394Y025938D01*
X012472Y025963D01*
X012545Y026000D01*
X012611Y026048D01*
X012669Y026106D01*
X012717Y026172D01*
X012755Y026245D01*
X012762Y026267D01*
X012815Y026139D01*
X012967Y025987D01*
X013165Y025905D01*
X013380Y025905D01*
X013579Y025987D01*
X013967Y025987D01*
X014165Y025905D01*
X014380Y025905D01*
X014579Y025987D01*
X014967Y025987D01*
X015165Y025905D01*
X015380Y025905D01*
X015579Y025987D01*
X015967Y025987D01*
X016023Y025964D01*
X016023Y025917D01*
X015521Y025415D01*
X013922Y025415D01*
X013897Y025475D01*
X013746Y025627D01*
X013547Y025709D01*
X013332Y025709D01*
X013134Y025627D01*
X012982Y025475D01*
X012900Y025277D01*
X012900Y025062D01*
X012982Y024863D01*
X013134Y024712D01*
X013332Y024629D01*
X013547Y024629D01*
X013746Y024712D01*
X013897Y024863D01*
X013919Y024915D01*
X015674Y024915D01*
X015766Y024953D01*
X015837Y025024D01*
X016023Y025210D01*
X016023Y024106D01*
X015176Y023260D01*
X014913Y023260D01*
X014814Y023160D01*
X014814Y022643D01*
X014913Y022543D01*
X015430Y022543D01*
X015530Y022643D01*
X015530Y022906D01*
X016485Y023861D01*
X016523Y023953D01*
X016523Y025088D01*
X016567Y025043D01*
X017084Y025043D01*
X017184Y025143D01*
X017184Y025406D01*
X017283Y025506D01*
X022722Y025506D01*
X022814Y025544D01*
X023014Y025745D01*
X023085Y025815D01*
X023123Y025907D01*
X023123Y025964D01*
X023179Y025987D01*
X023567Y025987D01*
X023765Y025905D01*
X023980Y025905D01*
X024179Y025987D01*
X024567Y025987D01*
X024765Y025905D01*
X024980Y025905D01*
X025027Y025924D01*
X024824Y025721D01*
X024824Y024505D01*
X024770Y024560D01*
X024322Y024560D01*
X024032Y024269D01*
X023761Y024540D01*
X023596Y024540D01*
X023596Y024070D01*
X023496Y024070D01*
X023496Y024540D01*
X023331Y024540D01*
X023060Y024269D01*
X022770Y024560D01*
X022322Y024560D01*
X022046Y024283D01*
X021770Y024560D01*
X021322Y024560D01*
X021046Y024283D01*
X020770Y024560D01*
X020322Y024560D01*
X020006Y024243D01*
X020006Y023796D01*
X020282Y023520D01*
X020006Y023243D01*
X020006Y022833D01*
X019824Y022652D01*
X016939Y022652D01*
X016665Y022926D01*
X016230Y022926D01*
X015923Y022619D01*
X015923Y022184D01*
X016206Y021902D01*
X015923Y021619D01*
X015923Y021184D01*
X016206Y020902D01*
X015923Y020619D01*
X015923Y020184D01*
X016206Y019902D01*
X015923Y019619D01*
X015923Y019184D01*
X016230Y018877D01*
X016665Y018877D01*
X016939Y019152D01*
X018434Y019152D01*
X018526Y019190D01*
X019766Y020429D01*
X019766Y020314D01*
X019789Y020258D01*
X018116Y018585D01*
X016299Y018585D01*
X013690Y021194D01*
X013690Y021688D01*
X013746Y021712D01*
X013897Y021863D01*
X013980Y022062D01*
X013980Y022277D01*
X013897Y022475D01*
X013746Y022627D01*
X013547Y022709D01*
X013332Y022709D01*
X013134Y022627D01*
X012982Y022475D01*
X012900Y022277D01*
X012900Y022062D01*
X012982Y021863D01*
X013134Y021712D01*
X013190Y021688D01*
X013190Y021041D01*
X013228Y020949D01*
X015984Y018193D01*
X016054Y018123D01*
X016146Y018085D01*
X018269Y018085D01*
X018361Y018123D01*
X020142Y019904D01*
X020198Y019881D01*
X020413Y019881D01*
X020612Y019963D01*
X020764Y020115D01*
X020846Y020314D01*
X020846Y020529D01*
X020764Y020727D01*
X020612Y020879D01*
X020419Y020959D01*
X021785Y020959D01*
X021877Y020997D01*
X023359Y022480D01*
X023770Y022480D01*
X024046Y022756D01*
X024322Y022480D01*
X024770Y022480D01*
X025046Y022756D01*
X025322Y022480D01*
X025770Y022480D01*
X026060Y022770D01*
X026331Y022500D01*
X026496Y022500D01*
X026496Y022970D01*
X026596Y022970D01*
X026596Y023070D01*
X027496Y023070D01*
X027496Y022970D01*
X027066Y022970D01*
X026596Y022970D01*
X026596Y022500D01*
X026761Y022500D01*
X027046Y022784D01*
X027331Y022500D01*
X027496Y022500D01*
X027496Y022970D01*
X027596Y022970D01*
X027596Y023070D01*
X028066Y023070D01*
X028066Y023146D01*
X028406Y022806D01*
X028406Y022789D01*
X027543Y021925D01*
X027505Y021833D01*
X027505Y020902D01*
X027449Y020879D01*
X027297Y020727D01*
X027215Y020529D01*
X027215Y020314D01*
X027295Y020120D01*
X025214Y020120D01*
X025237Y020176D02*
X027272Y020176D01*
X027231Y020274D02*
X025278Y020274D01*
X025295Y020373D02*
X027215Y020373D01*
X027215Y020471D02*
X025295Y020471D01*
X025278Y020570D02*
X027232Y020570D01*
X027272Y020668D02*
X025237Y020668D01*
X025173Y020767D02*
X027337Y020767D01*
X027435Y020865D02*
X025074Y020865D01*
X024435Y020865D02*
X023625Y020865D01*
X023724Y020767D02*
X024337Y020767D01*
X024272Y020668D02*
X023788Y020668D01*
X023829Y020570D02*
X024232Y020570D01*
X024215Y020471D02*
X023846Y020471D01*
X023846Y020373D02*
X024215Y020373D01*
X024231Y020274D02*
X023829Y020274D01*
X023789Y020176D02*
X024272Y020176D01*
X023333Y019880D02*
X020118Y019880D01*
X020020Y019782D02*
X023234Y019782D01*
X023136Y019683D02*
X019921Y019683D01*
X019823Y019585D02*
X023037Y019585D01*
X022981Y019486D02*
X022034Y019486D01*
X022055Y019388D02*
X022973Y019388D01*
X022973Y019289D02*
X022055Y019289D01*
X022055Y019191D02*
X022973Y019191D01*
X022973Y019092D02*
X022055Y019092D01*
X022027Y018994D02*
X022973Y018994D01*
X022973Y018895D02*
X022055Y018895D01*
X022055Y018797D02*
X022973Y018797D01*
X022973Y018698D02*
X022055Y018698D01*
X022055Y018600D02*
X022973Y018600D01*
X022973Y018501D02*
X022019Y018501D01*
X022055Y018403D02*
X022973Y018403D01*
X022973Y018304D02*
X022055Y018304D01*
X022055Y018206D02*
X022973Y018206D01*
X022973Y018107D02*
X022055Y018107D01*
X022012Y018009D02*
X022973Y018009D01*
X022973Y017910D02*
X022055Y017910D01*
X022055Y017812D02*
X023006Y017812D01*
X023097Y017713D02*
X022055Y017713D01*
X022055Y017615D02*
X023196Y017615D01*
X023467Y017418D02*
X022055Y017418D01*
X022055Y017319D02*
X023467Y017319D01*
X023467Y017221D02*
X022055Y017221D01*
X022055Y017122D02*
X023471Y017122D01*
X023505Y017024D02*
X021997Y017024D01*
X022055Y016925D02*
X023447Y016925D01*
X023447Y016827D02*
X022055Y016827D01*
X022055Y016728D02*
X023447Y016728D01*
X023447Y016630D02*
X022055Y016630D01*
X021300Y016531D02*
X020623Y016531D01*
X020521Y016925D02*
X021242Y016925D01*
X021242Y016827D02*
X016764Y016827D01*
X016713Y016925D02*
X019980Y016925D01*
X019893Y017024D02*
X016811Y017024D01*
X016910Y017122D02*
X019893Y017122D01*
X019893Y017221D02*
X016972Y017221D01*
X016972Y017319D02*
X019893Y017319D01*
X019893Y017418D02*
X016972Y017418D01*
X016972Y017516D02*
X019893Y017516D01*
X019893Y017615D02*
X016972Y017615D01*
X016877Y017713D02*
X019893Y017713D01*
X019893Y017812D02*
X016779Y017812D01*
X016680Y017910D02*
X019893Y017910D01*
X019893Y018009D02*
X008796Y018009D01*
X008698Y017910D02*
X016215Y017910D01*
X016116Y017812D02*
X008750Y017812D01*
X008849Y017713D02*
X013082Y017713D01*
X012984Y017615D02*
X008947Y017615D01*
X008952Y017516D02*
X012885Y017516D01*
X012787Y017418D02*
X008498Y017418D01*
X008398Y017418D02*
X007863Y017418D01*
X007943Y017452D02*
X008398Y017452D01*
X008398Y017352D01*
X007943Y017352D01*
X007943Y017193D01*
X008220Y016916D01*
X008035Y016731D01*
X007863Y016903D01*
X007863Y024471D01*
X007923Y024532D01*
X007923Y024184D01*
X008206Y023902D01*
X007923Y023619D01*
X007923Y023184D01*
X008206Y022902D01*
X007923Y022619D01*
X007923Y022184D01*
X008206Y021902D01*
X007923Y021619D01*
X007923Y021184D01*
X008206Y020902D01*
X007923Y020619D01*
X007923Y020184D01*
X008206Y019902D01*
X007923Y019619D01*
X007923Y019184D01*
X008206Y018902D01*
X007923Y018619D01*
X007923Y018184D01*
X008220Y017887D01*
X007943Y017610D01*
X007943Y017452D01*
X007943Y017516D02*
X007863Y017516D01*
X007863Y017615D02*
X007948Y017615D01*
X007863Y017713D02*
X008046Y017713D01*
X008145Y017812D02*
X007863Y017812D01*
X007863Y017910D02*
X008197Y017910D01*
X008099Y018009D02*
X007863Y018009D01*
X007863Y018107D02*
X008000Y018107D01*
X007923Y018206D02*
X007863Y018206D01*
X007863Y018304D02*
X007923Y018304D01*
X007923Y018403D02*
X007863Y018403D01*
X007863Y018501D02*
X007923Y018501D01*
X007923Y018600D02*
X007863Y018600D01*
X007863Y018698D02*
X008003Y018698D01*
X008101Y018797D02*
X007863Y018797D01*
X007863Y018895D02*
X008200Y018895D01*
X008114Y018994D02*
X007863Y018994D01*
X007863Y019092D02*
X008015Y019092D01*
X007923Y019191D02*
X007863Y019191D01*
X007863Y019289D02*
X007923Y019289D01*
X007923Y019388D02*
X007863Y019388D01*
X007863Y019486D02*
X007923Y019486D01*
X007923Y019585D02*
X007863Y019585D01*
X007863Y019683D02*
X007988Y019683D01*
X008086Y019782D02*
X007863Y019782D01*
X007863Y019880D02*
X008185Y019880D01*
X008129Y019979D02*
X007863Y019979D01*
X007863Y020077D02*
X008030Y020077D01*
X007932Y020176D02*
X007863Y020176D01*
X007863Y020274D02*
X007923Y020274D01*
X007923Y020373D02*
X007863Y020373D01*
X007863Y020471D02*
X007923Y020471D01*
X007923Y020570D02*
X007863Y020570D01*
X007863Y020668D02*
X007973Y020668D01*
X008071Y020767D02*
X007863Y020767D01*
X007863Y020865D02*
X008170Y020865D01*
X008144Y020964D02*
X007863Y020964D01*
X007863Y021062D02*
X008045Y021062D01*
X007947Y021161D02*
X007863Y021161D01*
X007863Y021259D02*
X007923Y021259D01*
X007923Y021358D02*
X007863Y021358D01*
X007863Y021456D02*
X007923Y021456D01*
X007923Y021555D02*
X007863Y021555D01*
X007863Y021653D02*
X007958Y021653D01*
X007863Y021752D02*
X008056Y021752D01*
X008155Y021850D02*
X007863Y021850D01*
X007863Y021949D02*
X008159Y021949D01*
X008060Y022047D02*
X007863Y022047D01*
X007863Y022146D02*
X007962Y022146D01*
X007923Y022244D02*
X007863Y022244D01*
X007863Y022343D02*
X007923Y022343D01*
X007923Y022441D02*
X007863Y022441D01*
X007863Y022540D02*
X007923Y022540D01*
X007943Y022638D02*
X007863Y022638D01*
X007863Y022737D02*
X008041Y022737D01*
X008140Y022835D02*
X007863Y022835D01*
X007863Y022934D02*
X008174Y022934D01*
X008075Y023032D02*
X007863Y023032D01*
X007863Y023131D02*
X007977Y023131D01*
X007923Y023229D02*
X007863Y023229D01*
X007863Y023328D02*
X007923Y023328D01*
X007923Y023426D02*
X007863Y023426D01*
X007863Y023525D02*
X007923Y023525D01*
X007928Y023623D02*
X007863Y023623D01*
X007863Y023722D02*
X008026Y023722D01*
X008125Y023820D02*
X007863Y023820D01*
X007863Y023919D02*
X008189Y023919D01*
X008090Y024017D02*
X007863Y024017D01*
X007863Y024116D02*
X007992Y024116D01*
X007923Y024214D02*
X007863Y024214D01*
X007863Y024313D02*
X007923Y024313D01*
X007923Y024411D02*
X007863Y024411D01*
X007901Y024510D02*
X007923Y024510D01*
X007588Y024904D02*
X006533Y024904D01*
X006533Y025002D02*
X007687Y025002D01*
X007785Y025101D02*
X006533Y025101D01*
X006533Y025199D02*
X007884Y025199D01*
X007982Y025298D02*
X006533Y025298D01*
X006533Y025396D02*
X008081Y025396D01*
X008179Y025495D02*
X006533Y025495D01*
X006533Y025593D02*
X008278Y025593D01*
X008223Y025692D02*
X008376Y025692D01*
X008392Y025790D02*
X008475Y025790D01*
X008490Y025889D02*
X008573Y025889D01*
X008581Y025987D02*
X008672Y025987D01*
X008622Y026086D02*
X008770Y026086D01*
X008869Y026184D02*
X008663Y026184D01*
X008703Y026283D02*
X008967Y026283D01*
X009066Y026381D02*
X008703Y026381D01*
X008703Y026480D02*
X009164Y026480D01*
X009263Y026578D02*
X008703Y026578D01*
X008675Y026677D02*
X009361Y026677D01*
X009460Y026775D02*
X008634Y026775D01*
X008593Y026874D02*
X009558Y026874D01*
X009657Y026972D02*
X008519Y026972D01*
X008420Y027071D02*
X009755Y027071D01*
X009854Y027169D02*
X008292Y027169D01*
X007453Y027169D02*
X006533Y027169D01*
X006533Y027071D02*
X007325Y027071D01*
X007227Y026972D02*
X006533Y026972D01*
X006533Y026874D02*
X007152Y026874D01*
X007111Y026775D02*
X006533Y026775D01*
X006533Y026677D02*
X007070Y026677D01*
X007043Y026578D02*
X006533Y026578D01*
X006533Y026480D02*
X007043Y026480D01*
X007043Y026381D02*
X006533Y026381D01*
X006533Y026283D02*
X007043Y026283D01*
X007082Y026184D02*
X006533Y026184D01*
X006533Y026086D02*
X007123Y026086D01*
X007164Y025987D02*
X006533Y025987D01*
X006533Y025889D02*
X007255Y025889D01*
X007354Y025790D02*
X006533Y025790D01*
X006533Y025692D02*
X007522Y025692D01*
X007490Y024805D02*
X006533Y024805D01*
X006533Y024707D02*
X007397Y024707D01*
X007363Y024608D02*
X006533Y024608D01*
X006533Y024510D02*
X007363Y024510D01*
X007363Y024411D02*
X006533Y024411D01*
X006533Y024313D02*
X007363Y024313D01*
X007363Y024214D02*
X006533Y024214D01*
X006533Y024116D02*
X007363Y024116D01*
X007363Y024017D02*
X006533Y024017D01*
X006533Y023919D02*
X007363Y023919D01*
X007363Y023820D02*
X006533Y023820D01*
X006533Y023722D02*
X007363Y023722D01*
X007363Y023623D02*
X006533Y023623D01*
X006533Y023525D02*
X007363Y023525D01*
X007363Y023426D02*
X006533Y023426D01*
X006533Y023328D02*
X007363Y023328D01*
X007363Y023229D02*
X006533Y023229D01*
X006533Y023131D02*
X007363Y023131D01*
X007363Y023032D02*
X006533Y023032D01*
X006533Y022934D02*
X007363Y022934D01*
X007363Y022835D02*
X006533Y022835D01*
X006533Y022737D02*
X007363Y022737D01*
X007363Y022638D02*
X006533Y022638D01*
X006533Y022540D02*
X007363Y022540D01*
X007363Y022441D02*
X006533Y022441D01*
X006533Y022343D02*
X007363Y022343D01*
X007363Y022244D02*
X006533Y022244D01*
X006533Y022146D02*
X007363Y022146D01*
X007363Y022047D02*
X006533Y022047D01*
X006533Y021949D02*
X007363Y021949D01*
X007363Y021850D02*
X006533Y021850D01*
X006533Y021752D02*
X007363Y021752D01*
X007363Y021653D02*
X006533Y021653D01*
X006533Y021555D02*
X007363Y021555D01*
X007363Y021456D02*
X006533Y021456D01*
X006533Y021358D02*
X007363Y021358D01*
X007363Y021259D02*
X006533Y021259D01*
X006533Y021161D02*
X007363Y021161D01*
X007363Y021062D02*
X006533Y021062D01*
X006533Y020964D02*
X007363Y020964D01*
X007363Y020865D02*
X006533Y020865D01*
X006533Y020767D02*
X007363Y020767D01*
X007363Y020668D02*
X006533Y020668D01*
X006533Y020570D02*
X007363Y020570D01*
X007363Y020471D02*
X006533Y020471D01*
X006533Y020373D02*
X007363Y020373D01*
X007363Y020274D02*
X006533Y020274D01*
X006533Y020176D02*
X007363Y020176D01*
X007363Y020077D02*
X006533Y020077D01*
X006533Y019979D02*
X007363Y019979D01*
X007363Y019880D02*
X006533Y019880D01*
X006533Y019782D02*
X007363Y019782D01*
X007363Y019683D02*
X006533Y019683D01*
X006533Y019585D02*
X007363Y019585D01*
X007363Y019486D02*
X006533Y019486D01*
X006533Y019388D02*
X007363Y019388D01*
X007363Y019289D02*
X006533Y019289D01*
X006533Y019191D02*
X007363Y019191D01*
X007363Y019092D02*
X006533Y019092D01*
X006533Y018994D02*
X007363Y018994D01*
X007363Y018895D02*
X006533Y018895D01*
X006533Y018797D02*
X007363Y018797D01*
X007363Y018698D02*
X006533Y018698D01*
X006533Y018600D02*
X007363Y018600D01*
X007363Y018501D02*
X006533Y018501D01*
X006533Y018403D02*
X007363Y018403D01*
X007363Y018304D02*
X006533Y018304D01*
X006533Y018206D02*
X007363Y018206D01*
X007363Y018107D02*
X006533Y018107D01*
X006533Y018009D02*
X007363Y018009D01*
X007363Y017910D02*
X006533Y017910D01*
X006533Y017812D02*
X007363Y017812D01*
X007363Y017713D02*
X006533Y017713D01*
X006533Y017615D02*
X007363Y017615D01*
X007363Y017516D02*
X006533Y017516D01*
X006533Y017418D02*
X007363Y017418D01*
X007363Y017319D02*
X006533Y017319D01*
X006533Y017221D02*
X007363Y017221D01*
X007363Y017122D02*
X006533Y017122D01*
X006533Y017024D02*
X007363Y017024D01*
X007363Y016925D02*
X006533Y016925D01*
X006533Y016827D02*
X007363Y016827D01*
X007372Y016728D02*
X006533Y016728D01*
X006533Y016630D02*
X007429Y016630D01*
X007527Y016531D02*
X006533Y016531D01*
X006533Y016433D02*
X007626Y016433D01*
X007724Y016334D02*
X006533Y016334D01*
X006533Y016236D02*
X007823Y016236D01*
X007970Y016137D02*
X006533Y016137D01*
X006533Y016039D02*
X008069Y016039D01*
X008167Y015940D02*
X006533Y015940D01*
X006533Y015842D02*
X008146Y015842D01*
X008048Y015743D02*
X006533Y015743D01*
X006533Y015645D02*
X007949Y015645D01*
X007923Y015546D02*
X006533Y015546D01*
X006533Y015448D02*
X007923Y015448D01*
X007923Y015349D02*
X006533Y015349D01*
X006533Y015251D02*
X007923Y015251D01*
X007955Y015152D02*
X006533Y015152D01*
X006533Y015054D02*
X008054Y015054D01*
X008152Y014955D02*
X006533Y014955D01*
X006533Y014857D02*
X010226Y014857D01*
X010324Y014955D02*
X008743Y014955D01*
X008841Y015054D02*
X010423Y015054D01*
X010521Y015152D02*
X008940Y015152D01*
X008972Y015251D02*
X010620Y015251D01*
X010718Y015349D02*
X008972Y015349D01*
X008972Y015448D02*
X010817Y015448D01*
X010915Y015546D02*
X008972Y015546D01*
X008946Y015645D02*
X011014Y015645D01*
X011112Y015743D02*
X008847Y015743D01*
X008749Y015842D02*
X011211Y015842D01*
X011309Y015940D02*
X008728Y015940D01*
X008826Y016039D02*
X011408Y016039D01*
X011506Y016137D02*
X008925Y016137D01*
X008972Y016236D02*
X011605Y016236D01*
X011703Y016334D02*
X008972Y016334D01*
X008972Y016433D02*
X011802Y016433D01*
X011900Y016531D02*
X008972Y016531D01*
X008961Y016630D02*
X011999Y016630D01*
X012097Y016728D02*
X008862Y016728D01*
X008764Y016827D02*
X012196Y016827D01*
X012294Y016925D02*
X008685Y016925D01*
X008783Y017024D02*
X012393Y017024D01*
X012491Y017122D02*
X008882Y017122D01*
X008952Y017221D02*
X012590Y017221D01*
X012688Y017319D02*
X008952Y017319D01*
X008210Y016925D02*
X007863Y016925D01*
X007863Y017024D02*
X008112Y017024D01*
X008013Y017122D02*
X007863Y017122D01*
X007863Y017221D02*
X007943Y017221D01*
X007943Y017319D02*
X007863Y017319D01*
X007939Y016827D02*
X008131Y016827D01*
X008895Y018107D02*
X016091Y018107D01*
X015971Y018206D02*
X008972Y018206D01*
X008972Y018304D02*
X015872Y018304D01*
X015774Y018403D02*
X008972Y018403D01*
X008972Y018501D02*
X015675Y018501D01*
X015577Y018600D02*
X008972Y018600D01*
X008892Y018698D02*
X015478Y018698D01*
X015380Y018797D02*
X008794Y018797D01*
X008695Y018895D02*
X015281Y018895D01*
X015183Y018994D02*
X008781Y018994D01*
X008880Y019092D02*
X015084Y019092D01*
X014986Y019191D02*
X008972Y019191D01*
X008972Y019289D02*
X014887Y019289D01*
X014789Y019388D02*
X008972Y019388D01*
X008972Y019486D02*
X014690Y019486D01*
X014592Y019585D02*
X008972Y019585D01*
X008907Y019683D02*
X014493Y019683D01*
X014395Y019782D02*
X008809Y019782D01*
X008710Y019880D02*
X014296Y019880D01*
X014198Y019979D02*
X008766Y019979D01*
X008865Y020077D02*
X014099Y020077D01*
X014001Y020176D02*
X008963Y020176D01*
X008972Y020274D02*
X013902Y020274D01*
X013804Y020373D02*
X008972Y020373D01*
X008972Y020471D02*
X013705Y020471D01*
X013607Y020570D02*
X008972Y020570D01*
X008922Y020668D02*
X013508Y020668D01*
X013410Y020767D02*
X008824Y020767D01*
X008725Y020865D02*
X013311Y020865D01*
X013222Y020964D02*
X008751Y020964D01*
X008850Y021062D02*
X013190Y021062D01*
X013190Y021161D02*
X008948Y021161D01*
X008972Y021259D02*
X013190Y021259D01*
X013190Y021358D02*
X008972Y021358D01*
X008972Y021456D02*
X013190Y021456D01*
X013190Y021555D02*
X008972Y021555D01*
X008937Y021653D02*
X013190Y021653D01*
X013093Y021752D02*
X008839Y021752D01*
X008740Y021850D02*
X012995Y021850D01*
X012946Y021949D02*
X008736Y021949D01*
X008835Y022047D02*
X012906Y022047D01*
X012900Y022146D02*
X008933Y022146D01*
X008972Y022244D02*
X012900Y022244D01*
X012927Y022343D02*
X008972Y022343D01*
X008972Y022441D02*
X012968Y022441D01*
X013047Y022540D02*
X008972Y022540D01*
X008952Y022638D02*
X013161Y022638D01*
X013718Y022638D02*
X014818Y022638D01*
X014814Y022737D02*
X008854Y022737D01*
X008755Y022835D02*
X014814Y022835D01*
X014814Y022934D02*
X008721Y022934D01*
X008820Y023032D02*
X014814Y023032D01*
X014814Y023131D02*
X008918Y023131D01*
X008972Y023229D02*
X014883Y023229D01*
X015245Y023328D02*
X008972Y023328D01*
X008972Y023426D02*
X015343Y023426D01*
X015442Y023525D02*
X008972Y023525D01*
X008967Y023623D02*
X015540Y023623D01*
X015639Y023722D02*
X008869Y023722D01*
X008770Y023820D02*
X015737Y023820D01*
X015836Y023919D02*
X008706Y023919D01*
X008805Y024017D02*
X015934Y024017D01*
X016023Y024116D02*
X008903Y024116D01*
X008972Y024214D02*
X016023Y024214D01*
X016023Y024313D02*
X008972Y024313D01*
X008972Y024411D02*
X016023Y024411D01*
X016023Y024510D02*
X008972Y024510D01*
X008972Y024608D02*
X016023Y024608D01*
X016023Y024707D02*
X013734Y024707D01*
X013839Y024805D02*
X016023Y024805D01*
X016023Y024904D02*
X013914Y024904D01*
X013878Y025495D02*
X015601Y025495D01*
X015699Y025593D02*
X013779Y025593D01*
X013589Y025692D02*
X015798Y025692D01*
X015896Y025790D02*
X009182Y025790D01*
X009083Y025692D02*
X013290Y025692D01*
X013100Y025593D02*
X008985Y025593D01*
X008886Y025495D02*
X013002Y025495D01*
X012949Y025396D02*
X008788Y025396D01*
X008689Y025298D02*
X012908Y025298D01*
X012900Y025199D02*
X008591Y025199D01*
X008492Y025101D02*
X012900Y025101D01*
X012924Y025002D02*
X008394Y025002D01*
X008687Y024904D02*
X012965Y024904D01*
X013040Y024805D02*
X008785Y024805D01*
X008884Y024707D02*
X013145Y024707D01*
X012967Y025987D02*
X012520Y025987D01*
X012649Y026086D02*
X012868Y026086D01*
X012796Y026184D02*
X012724Y026184D01*
X012323Y026184D02*
X012223Y026184D01*
X012223Y026086D02*
X012323Y026086D01*
X012323Y025987D02*
X012223Y025987D01*
X012000Y026000D02*
X011934Y026048D01*
X011876Y026106D01*
X011828Y026172D01*
X011791Y026245D01*
X011784Y026267D01*
X011730Y026139D01*
X011579Y025987D01*
X011677Y026086D02*
X011896Y026086D01*
X011822Y026184D02*
X011749Y026184D01*
X012223Y026283D02*
X012323Y026283D01*
X012323Y026381D02*
X012223Y026381D01*
X010967Y025987D02*
X009379Y025987D01*
X009280Y025889D02*
X015995Y025889D01*
X015967Y025987D02*
X015815Y026139D01*
X015773Y026241D01*
X015730Y026139D01*
X015579Y025987D01*
X015677Y026086D02*
X015868Y026086D01*
X015796Y026184D02*
X015749Y026184D01*
X014967Y025987D02*
X014815Y026139D01*
X014773Y026241D01*
X014730Y026139D01*
X014579Y025987D01*
X014677Y026086D02*
X014868Y026086D01*
X014796Y026184D02*
X014749Y026184D01*
X013967Y025987D02*
X013815Y026139D01*
X013773Y026241D01*
X013730Y026139D01*
X013579Y025987D01*
X013677Y026086D02*
X013868Y026086D01*
X013796Y026184D02*
X013749Y026184D01*
X015815Y025002D02*
X016023Y025002D01*
X016023Y025101D02*
X015914Y025101D01*
X016012Y025199D02*
X016023Y025199D01*
X016523Y025002D02*
X024824Y025002D01*
X024824Y024904D02*
X016523Y024904D01*
X016523Y024805D02*
X024824Y024805D01*
X024824Y024707D02*
X016523Y024707D01*
X016523Y024608D02*
X024824Y024608D01*
X024819Y024510D02*
X024824Y024510D01*
X024272Y024510D02*
X023791Y024510D01*
X023890Y024411D02*
X024174Y024411D01*
X024075Y024313D02*
X023988Y024313D01*
X023596Y024313D02*
X023496Y024313D01*
X023496Y024411D02*
X023596Y024411D01*
X023596Y024510D02*
X023496Y024510D01*
X023301Y024510D02*
X022819Y024510D01*
X022918Y024411D02*
X023202Y024411D01*
X023104Y024313D02*
X023016Y024313D01*
X023496Y024214D02*
X023596Y024214D01*
X023596Y024116D02*
X023496Y024116D01*
X022272Y024510D02*
X021819Y024510D01*
X021918Y024411D02*
X022174Y024411D01*
X022075Y024313D02*
X022016Y024313D01*
X021272Y024510D02*
X020819Y024510D01*
X020918Y024411D02*
X021174Y024411D01*
X021075Y024313D02*
X021016Y024313D01*
X020272Y024510D02*
X016523Y024510D01*
X016523Y024411D02*
X020174Y024411D01*
X020075Y024313D02*
X016523Y024313D01*
X016523Y024214D02*
X020006Y024214D01*
X020006Y024116D02*
X016523Y024116D01*
X016523Y024017D02*
X020006Y024017D01*
X020006Y023919D02*
X016509Y023919D01*
X016444Y023820D02*
X020006Y023820D01*
X020080Y023722D02*
X016346Y023722D01*
X016247Y023623D02*
X020179Y023623D01*
X020277Y023525D02*
X016149Y023525D01*
X016050Y023426D02*
X020189Y023426D01*
X020090Y023328D02*
X015952Y023328D01*
X015853Y023229D02*
X020006Y023229D01*
X020006Y023131D02*
X015755Y023131D01*
X015656Y023032D02*
X020006Y023032D01*
X020006Y022934D02*
X015558Y022934D01*
X015530Y022835D02*
X016140Y022835D01*
X016041Y022737D02*
X015530Y022737D01*
X015525Y022638D02*
X015943Y022638D01*
X015923Y022540D02*
X013833Y022540D01*
X013911Y022441D02*
X015923Y022441D01*
X015923Y022343D02*
X013952Y022343D01*
X013980Y022244D02*
X015923Y022244D01*
X015962Y022146D02*
X013980Y022146D01*
X013974Y022047D02*
X016060Y022047D01*
X016159Y021949D02*
X013933Y021949D01*
X013884Y021850D02*
X016155Y021850D01*
X016056Y021752D02*
X013786Y021752D01*
X013690Y021653D02*
X015958Y021653D01*
X015923Y021555D02*
X013690Y021555D01*
X013690Y021456D02*
X015923Y021456D01*
X015923Y021358D02*
X013690Y021358D01*
X013690Y021259D02*
X015923Y021259D01*
X015947Y021161D02*
X013723Y021161D01*
X013821Y021062D02*
X016045Y021062D01*
X016144Y020964D02*
X013920Y020964D01*
X014018Y020865D02*
X016170Y020865D01*
X016071Y020767D02*
X014117Y020767D01*
X014215Y020668D02*
X015973Y020668D01*
X015923Y020570D02*
X014314Y020570D01*
X014412Y020471D02*
X015923Y020471D01*
X015923Y020373D02*
X014511Y020373D01*
X014609Y020274D02*
X015923Y020274D01*
X015932Y020176D02*
X014708Y020176D01*
X014806Y020077D02*
X016030Y020077D01*
X016129Y019979D02*
X014905Y019979D01*
X015003Y019880D02*
X016185Y019880D01*
X016086Y019782D02*
X015102Y019782D01*
X015200Y019683D02*
X015988Y019683D01*
X015923Y019585D02*
X015299Y019585D01*
X015397Y019486D02*
X015923Y019486D01*
X015923Y019388D02*
X015496Y019388D01*
X015594Y019289D02*
X015923Y019289D01*
X015923Y019191D02*
X015693Y019191D01*
X015791Y019092D02*
X016015Y019092D01*
X016114Y018994D02*
X015890Y018994D01*
X015988Y018895D02*
X016212Y018895D01*
X016087Y018797D02*
X018328Y018797D01*
X018426Y018895D02*
X016683Y018895D01*
X016781Y018994D02*
X018525Y018994D01*
X018623Y019092D02*
X016880Y019092D01*
X016185Y018698D02*
X018229Y018698D01*
X018131Y018600D02*
X016284Y018600D01*
X016068Y017039D02*
X016206Y016902D01*
X015923Y016619D01*
X015923Y016401D01*
X010931Y011409D01*
X009984Y011409D01*
X010932Y011409D01*
X011031Y011508D02*
X009984Y011508D01*
X009984Y011544D02*
X009898Y011752D01*
X009740Y011910D01*
X009532Y011996D01*
X009308Y011996D01*
X009101Y011910D01*
X008942Y011752D01*
X008857Y011544D01*
X008857Y010533D01*
X008942Y010326D01*
X007418Y010326D01*
X007504Y010533D01*
X007504Y011088D01*
X013455Y017039D01*
X016068Y017039D01*
X016084Y017024D02*
X013440Y017024D01*
X013341Y016925D02*
X016182Y016925D01*
X016131Y016827D02*
X013243Y016827D01*
X013144Y016728D02*
X016033Y016728D01*
X015934Y016630D02*
X013045Y016630D01*
X012947Y016531D02*
X015923Y016531D01*
X015923Y016433D02*
X012848Y016433D01*
X012750Y016334D02*
X015857Y016334D01*
X015759Y016236D02*
X012651Y016236D01*
X012553Y016137D02*
X015660Y016137D01*
X015562Y016039D02*
X012454Y016039D01*
X012356Y015940D02*
X015463Y015940D01*
X015365Y015842D02*
X012257Y015842D01*
X012159Y015743D02*
X015266Y015743D01*
X015168Y015645D02*
X012060Y015645D01*
X011962Y015546D02*
X015069Y015546D01*
X014971Y015448D02*
X011863Y015448D01*
X011765Y015349D02*
X014872Y015349D01*
X014774Y015251D02*
X011666Y015251D01*
X011568Y015152D02*
X014675Y015152D01*
X014577Y015054D02*
X011469Y015054D01*
X011371Y014955D02*
X014478Y014955D01*
X014380Y014857D02*
X011272Y014857D01*
X011174Y014758D02*
X014281Y014758D01*
X014183Y014660D02*
X011075Y014660D01*
X010977Y014561D02*
X014084Y014561D01*
X013986Y014463D02*
X010878Y014463D01*
X010780Y014364D02*
X013887Y014364D01*
X013789Y014266D02*
X010681Y014266D01*
X010583Y014167D02*
X013690Y014167D01*
X013592Y014069D02*
X010484Y014069D01*
X010386Y013970D02*
X013493Y013970D01*
X013395Y013872D02*
X010287Y013872D01*
X010189Y013773D02*
X013296Y013773D01*
X013198Y013675D02*
X010090Y013675D01*
X009992Y013576D02*
X013099Y013576D01*
X013001Y013478D02*
X009893Y013478D01*
X009795Y013379D02*
X012902Y013379D01*
X012804Y013281D02*
X009696Y013281D01*
X009598Y013182D02*
X012705Y013182D01*
X012607Y013084D02*
X009499Y013084D01*
X009401Y012985D02*
X012508Y012985D01*
X012410Y012887D02*
X009302Y012887D01*
X009204Y012788D02*
X012311Y012788D01*
X012213Y012690D02*
X009105Y012690D01*
X009007Y012591D02*
X012114Y012591D01*
X012016Y012493D02*
X008908Y012493D01*
X008810Y012394D02*
X011917Y012394D01*
X011819Y012296D02*
X008711Y012296D01*
X008613Y012197D02*
X011720Y012197D01*
X011622Y012099D02*
X008514Y012099D01*
X008416Y012000D02*
X011523Y012000D01*
X011425Y011902D02*
X009748Y011902D01*
X009846Y011803D02*
X011326Y011803D01*
X011228Y011705D02*
X009918Y011705D01*
X009958Y011606D02*
X011129Y011606D01*
X011782Y011212D02*
X014612Y011212D01*
X014607Y011114D02*
X011683Y011114D01*
X011585Y011015D02*
X014607Y011015D01*
X014607Y010917D02*
X011486Y010917D01*
X011388Y010818D02*
X014607Y010818D01*
X014607Y010720D02*
X011282Y010720D01*
X011294Y010725D02*
X016446Y015877D01*
X016313Y015743D02*
X021092Y015743D01*
X020907Y015645D02*
X016214Y015645D01*
X016116Y015546D02*
X020809Y015546D01*
X020759Y015448D02*
X016017Y015448D01*
X015919Y015349D02*
X020718Y015349D01*
X020711Y015251D02*
X015820Y015251D01*
X015722Y015152D02*
X020711Y015152D01*
X020737Y015054D02*
X015623Y015054D01*
X015525Y014955D02*
X019641Y014955D01*
X019492Y014857D02*
X015426Y014857D01*
X015328Y014758D02*
X019393Y014758D01*
X019352Y014660D02*
X015229Y014660D01*
X015131Y014561D02*
X019312Y014561D01*
X019307Y014463D02*
X015032Y014463D01*
X014934Y014364D02*
X019307Y014364D01*
X019330Y014266D02*
X014835Y014266D01*
X014737Y014167D02*
X019371Y014167D01*
X019438Y014069D02*
X014638Y014069D01*
X014540Y013970D02*
X019536Y013970D01*
X019543Y013773D02*
X014343Y013773D01*
X014441Y013872D02*
X019747Y013872D01*
X020007Y013872D02*
X021393Y013872D01*
X021375Y013829D02*
X021375Y013667D01*
X021437Y013518D01*
X021551Y013404D01*
X021700Y013342D01*
X021862Y013342D01*
X022011Y013404D01*
X022125Y013518D01*
X022187Y013667D01*
X022187Y013829D01*
X022125Y013978D01*
X022011Y014092D01*
X021862Y014154D01*
X021700Y014154D01*
X021551Y014092D01*
X021437Y013978D01*
X021375Y013829D01*
X021375Y013773D02*
X020210Y013773D01*
X020310Y013675D02*
X021375Y013675D01*
X021412Y013576D02*
X020371Y013576D01*
X020409Y013478D02*
X021477Y013478D01*
X021610Y013379D02*
X019927Y013379D01*
X019927Y013281D02*
X019827Y013281D01*
X019827Y013286D02*
X019827Y012787D01*
X019748Y012799D01*
X019666Y012826D01*
X019588Y012865D01*
X019518Y012916D01*
X019457Y012978D01*
X019406Y013048D01*
X019367Y013125D01*
X019340Y013207D01*
X019328Y013286D01*
X019827Y013286D01*
X019827Y013379D02*
X013949Y013379D01*
X014047Y013478D02*
X019344Y013478D01*
X019382Y013576D02*
X014146Y013576D01*
X014244Y013675D02*
X019443Y013675D01*
X019328Y013281D02*
X013850Y013281D01*
X013752Y013182D02*
X019348Y013182D01*
X019388Y013084D02*
X013653Y013084D01*
X013555Y012985D02*
X019451Y012985D01*
X019559Y012887D02*
X013456Y012887D01*
X013161Y012591D02*
X034920Y012591D01*
X034968Y012493D02*
X013062Y012493D01*
X012964Y012394D02*
X035050Y012394D01*
X035197Y012296D02*
X017802Y012296D01*
X017785Y012296D02*
X017685Y012296D01*
X017685Y012299D02*
X017613Y012287D01*
X017536Y012262D01*
X017463Y012225D01*
X017396Y012177D01*
X017339Y012119D01*
X017290Y012053D01*
X017253Y011980D01*
X017228Y011902D01*
X016489Y011902D01*
X016495Y011803D02*
X017685Y011803D01*
X017685Y011830D02*
X017685Y011730D01*
X017217Y011730D01*
X017228Y011658D01*
X017253Y011580D01*
X017290Y011507D01*
X017339Y011441D01*
X017396Y011383D01*
X017463Y011335D01*
X017536Y011298D01*
X017613Y011273D01*
X017685Y011261D01*
X017685Y011730D01*
X017785Y011730D01*
X017785Y011261D01*
X017857Y011273D01*
X017935Y011298D01*
X018008Y011335D01*
X018074Y011383D01*
X018132Y011441D01*
X018180Y011507D01*
X018217Y011580D01*
X018242Y011658D01*
X018254Y011730D01*
X017785Y011730D01*
X017785Y011830D01*
X017685Y011830D01*
X017217Y011830D01*
X017228Y011902D01*
X017264Y012000D02*
X016448Y012000D01*
X016400Y012099D02*
X017324Y012099D01*
X017425Y012197D02*
X016301Y012197D01*
X016121Y012296D02*
X017668Y012296D01*
X017685Y012299D02*
X017685Y011830D01*
X017685Y011902D02*
X017785Y011902D01*
X017785Y011830D02*
X017785Y012299D01*
X017857Y012287D01*
X017935Y012262D01*
X018008Y012225D01*
X018074Y012177D01*
X018132Y012119D01*
X018180Y012053D01*
X018217Y011980D01*
X018242Y011902D01*
X019677Y011902D01*
X019652Y011803D02*
X017785Y011803D01*
X017785Y011830D02*
X018254Y011830D01*
X018242Y011902D01*
X018206Y012000D02*
X019718Y012000D01*
X019794Y012099D02*
X018146Y012099D01*
X018045Y012197D02*
X019903Y012197D01*
X019652Y011705D02*
X018250Y011705D01*
X018225Y011606D02*
X019659Y011606D01*
X019700Y011508D02*
X018180Y011508D01*
X018100Y011409D02*
X019751Y011409D01*
X019849Y011311D02*
X017960Y011311D01*
X017785Y011311D02*
X017685Y011311D01*
X017685Y011409D02*
X017785Y011409D01*
X017785Y011508D02*
X017685Y011508D01*
X017685Y011606D02*
X017785Y011606D01*
X017785Y011705D02*
X017685Y011705D01*
X017685Y012000D02*
X017785Y012000D01*
X017785Y012099D02*
X017685Y012099D01*
X017685Y012197D02*
X017785Y012197D01*
X017221Y011705D02*
X016495Y011705D01*
X016468Y011606D02*
X017245Y011606D01*
X017290Y011508D02*
X016427Y011508D01*
X016348Y011409D02*
X017370Y011409D01*
X017511Y011311D02*
X016234Y011311D01*
X015677Y011311D02*
X015372Y011311D01*
X015470Y011409D02*
X015562Y011409D01*
X015273Y011212D02*
X019939Y011212D01*
X019809Y011114D02*
X015175Y011114D01*
X015107Y011015D02*
X019724Y011015D01*
X019684Y010917D02*
X015107Y010917D01*
X015107Y010818D02*
X019652Y010818D01*
X019652Y010720D02*
X015107Y010720D01*
X015107Y010621D02*
X019653Y010621D01*
X019625Y010523D02*
X015107Y010523D01*
X015107Y010424D02*
X019527Y010424D01*
X019428Y010326D02*
X015107Y010326D01*
X015107Y010227D02*
X019330Y010227D01*
X019231Y010129D02*
X015107Y010129D01*
X015107Y010030D02*
X019133Y010030D01*
X019034Y009932D02*
X015107Y009932D01*
X015107Y009833D02*
X018936Y009833D01*
X018837Y009735D02*
X017903Y009735D01*
X018082Y009636D02*
X018739Y009636D01*
X018640Y009538D02*
X018181Y009538D01*
X018229Y009439D02*
X018542Y009439D01*
X018443Y009341D02*
X018270Y009341D01*
X018275Y009242D02*
X018345Y009242D01*
X018700Y008947D02*
X038723Y008947D01*
X038823Y008947D02*
X038923Y008947D01*
X038923Y009045D02*
X038823Y009045D01*
X038823Y009144D02*
X038923Y009144D01*
X038923Y009242D02*
X038823Y009242D01*
X038823Y009341D02*
X038923Y009341D01*
X038923Y009439D02*
X039823Y009439D01*
X039823Y009341D02*
X039923Y009341D01*
X039923Y009439D02*
X041648Y009439D01*
X041648Y009341D02*
X040383Y009341D01*
X040353Y009242D02*
X041648Y009242D01*
X041648Y009144D02*
X040297Y009144D01*
X040207Y009045D02*
X041648Y009045D01*
X041648Y008947D02*
X040023Y008947D01*
X039923Y008947D02*
X039823Y008947D01*
X039823Y009045D02*
X039923Y009045D01*
X039923Y009144D02*
X039823Y009144D01*
X039823Y009242D02*
X039923Y009242D01*
X039723Y008947D02*
X039023Y008947D01*
X039207Y009045D02*
X039538Y009045D01*
X039449Y009144D02*
X039297Y009144D01*
X039353Y009242D02*
X039392Y009242D01*
X038823Y009439D02*
X035948Y009439D01*
X035980Y007985D02*
X035765Y007985D01*
X035567Y007903D01*
X035415Y007751D01*
X035373Y007649D01*
X035330Y007751D01*
X035179Y007903D01*
X034980Y007985D01*
X034765Y007985D01*
X034567Y007903D01*
X034415Y007751D01*
X034373Y007649D01*
X034330Y007751D01*
X034179Y007903D01*
X033980Y007985D01*
X033765Y007985D01*
X033567Y007903D01*
X033415Y007751D01*
X033373Y007649D01*
X033330Y007751D01*
X033179Y007903D01*
X032980Y007985D01*
X032765Y007985D01*
X032567Y007903D01*
X032415Y007751D01*
X032373Y007649D01*
X032330Y007751D01*
X032179Y007903D01*
X031980Y007985D01*
X031765Y007985D01*
X031567Y007903D01*
X031415Y007751D01*
X031373Y007649D01*
X031330Y007751D01*
X031179Y007903D01*
X030980Y007985D01*
X030765Y007985D01*
X030567Y007903D01*
X030415Y007751D01*
X030333Y007552D01*
X030333Y007337D01*
X030415Y007139D01*
X030567Y006987D01*
X030765Y006905D01*
X030980Y006905D01*
X031179Y006987D01*
X031330Y007139D01*
X031373Y007241D01*
X031415Y007139D01*
X031567Y006987D01*
X031765Y006905D01*
X031980Y006905D01*
X032179Y006987D01*
X032330Y007139D01*
X032373Y007241D01*
X032415Y007139D01*
X032567Y006987D01*
X032765Y006905D01*
X032980Y006905D01*
X033179Y006987D01*
X033330Y007139D01*
X033373Y007241D01*
X033415Y007139D01*
X033567Y006987D01*
X033765Y006905D01*
X033980Y006905D01*
X034179Y006987D01*
X034330Y007139D01*
X034373Y007241D01*
X034415Y007139D01*
X034567Y006987D01*
X034765Y006905D01*
X034980Y006905D01*
X035179Y006987D01*
X035330Y007139D01*
X035373Y007241D01*
X035415Y007139D01*
X035567Y006987D01*
X035765Y006905D01*
X035980Y006905D01*
X036179Y006987D01*
X036330Y007139D01*
X036373Y007241D01*
X036415Y007139D01*
X036567Y006987D01*
X036765Y006905D01*
X036980Y006905D01*
X037179Y006987D01*
X037330Y007139D01*
X037373Y007241D01*
X037415Y007139D01*
X037567Y006987D01*
X037765Y006905D01*
X037980Y006905D01*
X038179Y006987D01*
X038330Y007139D01*
X038413Y007337D01*
X038413Y007552D01*
X038330Y007751D01*
X038179Y007903D01*
X037980Y007985D01*
X037765Y007985D01*
X037567Y007903D01*
X037415Y007751D01*
X037373Y007649D01*
X037330Y007751D01*
X037179Y007903D01*
X036980Y007985D01*
X036765Y007985D01*
X036567Y007903D01*
X036415Y007751D01*
X036373Y007649D01*
X036330Y007751D01*
X036179Y007903D01*
X035980Y007985D01*
X036036Y007962D02*
X036710Y007962D01*
X036527Y007863D02*
X036218Y007863D01*
X036316Y007765D02*
X036429Y007765D01*
X036380Y007666D02*
X036365Y007666D01*
X035710Y007962D02*
X035036Y007962D01*
X035218Y007863D02*
X035527Y007863D01*
X035429Y007765D02*
X035316Y007765D01*
X035365Y007666D02*
X035380Y007666D01*
X035400Y007174D02*
X035345Y007174D01*
X035267Y007075D02*
X035479Y007075D01*
X035592Y006977D02*
X035154Y006977D01*
X034592Y006977D02*
X034154Y006977D01*
X034267Y007075D02*
X034479Y007075D01*
X034400Y007174D02*
X034345Y007174D01*
X033592Y006977D02*
X033154Y006977D01*
X033267Y007075D02*
X033479Y007075D01*
X033400Y007174D02*
X033345Y007174D01*
X033365Y007666D02*
X033380Y007666D01*
X033429Y007765D02*
X033316Y007765D01*
X033218Y007863D02*
X033527Y007863D01*
X033710Y007962D02*
X033036Y007962D01*
X032710Y007962D02*
X032036Y007962D01*
X032218Y007863D02*
X032527Y007863D01*
X032429Y007765D02*
X032316Y007765D01*
X032365Y007666D02*
X032380Y007666D01*
X032400Y007174D02*
X032345Y007174D01*
X032267Y007075D02*
X032479Y007075D01*
X032592Y006977D02*
X032154Y006977D01*
X031592Y006977D02*
X031154Y006977D01*
X031267Y007075D02*
X031479Y007075D01*
X031400Y007174D02*
X031345Y007174D01*
X030592Y006977D02*
X029154Y006977D01*
X029179Y006987D02*
X029330Y007139D01*
X029413Y007337D01*
X029413Y007552D01*
X029330Y007751D01*
X029179Y007903D01*
X028980Y007985D01*
X028765Y007985D01*
X028567Y007903D01*
X028415Y007751D01*
X028373Y007649D01*
X028330Y007751D01*
X028179Y007903D01*
X027980Y007985D01*
X027765Y007985D01*
X027567Y007903D01*
X027415Y007751D01*
X027373Y007649D01*
X027330Y007751D01*
X027179Y007903D01*
X026980Y007985D01*
X026765Y007985D01*
X026567Y007903D01*
X026415Y007751D01*
X026373Y007649D01*
X026330Y007751D01*
X026179Y007903D01*
X025980Y007985D01*
X025765Y007985D01*
X025567Y007903D01*
X025415Y007751D01*
X025373Y007649D01*
X025330Y007751D01*
X025179Y007903D01*
X024980Y007985D01*
X024765Y007985D01*
X024567Y007903D01*
X024415Y007751D01*
X024373Y007649D01*
X024330Y007751D01*
X024179Y007903D01*
X023980Y007985D01*
X023765Y007985D01*
X023567Y007903D01*
X023415Y007751D01*
X023373Y007649D01*
X023330Y007751D01*
X023179Y007903D01*
X022980Y007985D01*
X022765Y007985D01*
X022567Y007903D01*
X022415Y007751D01*
X022373Y007649D01*
X022330Y007751D01*
X022179Y007903D01*
X021980Y007985D01*
X021765Y007985D01*
X021567Y007903D01*
X021415Y007751D01*
X021333Y007552D01*
X021333Y007337D01*
X021415Y007139D01*
X021567Y006987D01*
X021765Y006905D01*
X021980Y006905D01*
X022179Y006987D01*
X022330Y007139D01*
X022373Y007241D01*
X022415Y007139D01*
X022567Y006987D01*
X022765Y006905D01*
X022980Y006905D01*
X023179Y006987D01*
X023330Y007139D01*
X023373Y007241D01*
X023415Y007139D01*
X023567Y006987D01*
X023765Y006905D01*
X023980Y006905D01*
X024179Y006987D01*
X024330Y007139D01*
X024373Y007241D01*
X024415Y007139D01*
X024567Y006987D01*
X024765Y006905D01*
X024980Y006905D01*
X025179Y006987D01*
X025330Y007139D01*
X025373Y007241D01*
X025415Y007139D01*
X025567Y006987D01*
X025765Y006905D01*
X025980Y006905D01*
X026179Y006987D01*
X026330Y007139D01*
X026373Y007241D01*
X026415Y007139D01*
X026567Y006987D01*
X026765Y006905D01*
X026980Y006905D01*
X027179Y006987D01*
X027330Y007139D01*
X027373Y007241D01*
X027415Y007139D01*
X027567Y006987D01*
X027765Y006905D01*
X027980Y006905D01*
X028179Y006987D01*
X028330Y007139D01*
X028373Y007241D01*
X028415Y007139D01*
X028567Y006987D01*
X028765Y006905D01*
X028980Y006905D01*
X029179Y006987D01*
X029267Y007075D02*
X030479Y007075D01*
X030400Y007174D02*
X029345Y007174D01*
X029386Y007272D02*
X030360Y007272D01*
X030333Y007371D02*
X029413Y007371D01*
X029413Y007469D02*
X030333Y007469D01*
X030339Y007568D02*
X029406Y007568D01*
X029365Y007666D02*
X030380Y007666D01*
X030429Y007765D02*
X029316Y007765D01*
X029218Y007863D02*
X030527Y007863D01*
X030710Y007962D02*
X029036Y007962D01*
X028710Y007962D02*
X028036Y007962D01*
X028218Y007863D02*
X028527Y007863D01*
X028429Y007765D02*
X028316Y007765D01*
X028365Y007666D02*
X028380Y007666D01*
X027710Y007962D02*
X027036Y007962D01*
X027218Y007863D02*
X027527Y007863D01*
X027429Y007765D02*
X027316Y007765D01*
X027365Y007666D02*
X027380Y007666D01*
X027400Y007174D02*
X027345Y007174D01*
X027267Y007075D02*
X027479Y007075D01*
X027592Y006977D02*
X027154Y006977D01*
X026592Y006977D02*
X026154Y006977D01*
X026267Y007075D02*
X026479Y007075D01*
X026400Y007174D02*
X026345Y007174D01*
X026365Y007666D02*
X026380Y007666D01*
X026429Y007765D02*
X026316Y007765D01*
X026218Y007863D02*
X026527Y007863D01*
X026710Y007962D02*
X026036Y007962D01*
X025710Y007962D02*
X025036Y007962D01*
X025218Y007863D02*
X025527Y007863D01*
X025429Y007765D02*
X025316Y007765D01*
X025365Y007666D02*
X025380Y007666D01*
X024710Y007962D02*
X024036Y007962D01*
X024218Y007863D02*
X024527Y007863D01*
X024429Y007765D02*
X024316Y007765D01*
X024365Y007666D02*
X024380Y007666D01*
X024400Y007174D02*
X024345Y007174D01*
X024267Y007075D02*
X024479Y007075D01*
X024592Y006977D02*
X024154Y006977D01*
X023592Y006977D02*
X023154Y006977D01*
X023267Y007075D02*
X023479Y007075D01*
X023400Y007174D02*
X023345Y007174D01*
X022592Y006977D02*
X022154Y006977D01*
X022267Y007075D02*
X022479Y007075D01*
X022400Y007174D02*
X022345Y007174D01*
X022365Y007666D02*
X022380Y007666D01*
X022429Y007765D02*
X022316Y007765D01*
X022218Y007863D02*
X022527Y007863D01*
X022710Y007962D02*
X022036Y007962D01*
X021710Y007962D02*
X020036Y007962D01*
X019980Y007985D02*
X019765Y007985D01*
X019567Y007903D01*
X019415Y007751D01*
X019362Y007622D01*
X019355Y007644D01*
X019317Y007717D01*
X019269Y007784D01*
X019211Y007842D01*
X019145Y007890D01*
X019072Y007927D01*
X018994Y007952D01*
X018923Y007963D01*
X018923Y007495D01*
X018823Y007495D01*
X018823Y007395D01*
X018923Y007395D01*
X018923Y006926D01*
X018994Y006938D01*
X019072Y006963D01*
X019145Y007000D01*
X019211Y007048D01*
X019269Y007106D01*
X019317Y007172D01*
X019355Y007245D01*
X019362Y007267D01*
X019415Y007139D01*
X019567Y006987D01*
X019765Y006905D01*
X019980Y006905D01*
X020179Y006987D01*
X020330Y007139D01*
X020413Y007337D01*
X020413Y007552D01*
X020330Y007751D01*
X020179Y007903D01*
X019980Y007985D01*
X020218Y007863D02*
X021527Y007863D01*
X021429Y007765D02*
X020316Y007765D01*
X020365Y007666D02*
X021380Y007666D01*
X021339Y007568D02*
X020406Y007568D01*
X020413Y007469D02*
X021333Y007469D01*
X021333Y007371D02*
X020413Y007371D01*
X020386Y007272D02*
X021360Y007272D01*
X021400Y007174D02*
X020345Y007174D01*
X020267Y007075D02*
X021479Y007075D01*
X021592Y006977D02*
X020154Y006977D01*
X019592Y006977D02*
X019099Y006977D01*
X019239Y007075D02*
X019479Y007075D01*
X019400Y007174D02*
X019318Y007174D01*
X018923Y007174D02*
X018823Y007174D01*
X018823Y007272D02*
X018923Y007272D01*
X018923Y007371D02*
X018823Y007371D01*
X018823Y007395D02*
X018823Y006926D01*
X018751Y006938D01*
X018673Y006963D01*
X018600Y007000D01*
X018534Y007048D01*
X018476Y007106D01*
X018428Y007172D01*
X018391Y007245D01*
X018373Y007301D01*
X018355Y007245D01*
X018317Y007172D01*
X018269Y007106D01*
X018211Y007048D01*
X018145Y007000D01*
X018072Y006963D01*
X017994Y006938D01*
X017923Y006926D01*
X017923Y007395D01*
X018391Y007395D01*
X018823Y007395D01*
X018823Y007469D02*
X017923Y007469D01*
X017923Y007371D02*
X017823Y007371D01*
X017823Y007272D02*
X017923Y007272D01*
X017923Y007174D02*
X017823Y007174D01*
X017823Y007075D02*
X017923Y007075D01*
X017923Y006977D02*
X017823Y006977D01*
X017646Y006977D02*
X017154Y006977D01*
X017267Y007075D02*
X017507Y007075D01*
X017427Y007174D02*
X017345Y007174D01*
X016592Y006977D02*
X016154Y006977D01*
X016267Y007075D02*
X016479Y007075D01*
X016400Y007174D02*
X016345Y007174D01*
X016365Y007666D02*
X016380Y007666D01*
X016429Y007765D02*
X016316Y007765D01*
X016218Y007863D02*
X016527Y007863D01*
X016710Y007962D02*
X016036Y007962D01*
X015710Y007962D02*
X015107Y007962D01*
X015107Y008060D02*
X017163Y008060D01*
X017064Y007962D02*
X017036Y007962D01*
X017261Y008159D02*
X015107Y008159D01*
X015107Y008257D02*
X017360Y008257D01*
X017458Y008356D02*
X015107Y008356D01*
X015107Y008454D02*
X017557Y008454D01*
X017655Y008553D02*
X015107Y008553D01*
X015107Y008651D02*
X017754Y008651D01*
X017459Y008750D02*
X016231Y008750D01*
X016261Y008762D02*
X016413Y008914D01*
X016495Y009113D01*
X016495Y009327D01*
X016413Y009526D01*
X016261Y009678D01*
X016063Y009760D01*
X015848Y009760D01*
X015649Y009678D01*
X015497Y009526D01*
X015415Y009327D01*
X015415Y009113D01*
X015497Y008914D01*
X015649Y008762D01*
X015848Y008680D01*
X016063Y008680D01*
X016261Y008762D01*
X016347Y008848D02*
X017343Y008848D01*
X017264Y008947D02*
X016426Y008947D01*
X016467Y009045D02*
X017223Y009045D01*
X017195Y009144D02*
X016495Y009144D01*
X016495Y009242D02*
X017195Y009242D01*
X017201Y009341D02*
X016490Y009341D01*
X016449Y009439D02*
X017242Y009439D01*
X017289Y009538D02*
X016401Y009538D01*
X016302Y009636D02*
X017388Y009636D01*
X017567Y009735D02*
X016123Y009735D01*
X015787Y009735D02*
X015107Y009735D01*
X015107Y009636D02*
X015608Y009636D01*
X015509Y009538D02*
X015107Y009538D01*
X015107Y009439D02*
X015462Y009439D01*
X015421Y009341D02*
X015107Y009341D01*
X015107Y009242D02*
X015415Y009242D01*
X015415Y009144D02*
X015107Y009144D01*
X015107Y009045D02*
X015443Y009045D01*
X015484Y008947D02*
X015107Y008947D01*
X015107Y008848D02*
X015563Y008848D01*
X015679Y008750D02*
X015107Y008750D01*
X014607Y008750D02*
X009110Y008750D01*
X009111Y008751D02*
X009197Y008958D01*
X009197Y009182D01*
X009111Y009389D01*
X008952Y009548D01*
X008745Y009634D01*
X007733Y009634D01*
X007526Y009548D01*
X007368Y009389D01*
X007282Y009182D01*
X007282Y008958D01*
X007368Y008751D01*
X007526Y008592D01*
X007733Y008506D01*
X008745Y008506D01*
X008952Y008592D01*
X009111Y008751D01*
X009151Y008848D02*
X014607Y008848D01*
X014607Y008947D02*
X009192Y008947D01*
X009197Y009045D02*
X014607Y009045D01*
X014607Y009144D02*
X009197Y009144D01*
X009172Y009242D02*
X014607Y009242D01*
X014607Y009341D02*
X009131Y009341D01*
X009061Y009439D02*
X014607Y009439D01*
X014607Y009538D02*
X008962Y009538D01*
X009193Y010129D02*
X007167Y010129D01*
X007259Y010167D02*
X007052Y010081D01*
X006828Y010081D01*
X006621Y010167D01*
X006533Y010254D01*
X006533Y010227D02*
X006560Y010227D01*
X006533Y010129D02*
X006713Y010129D01*
X006533Y010030D02*
X014607Y010030D01*
X014607Y009932D02*
X006533Y009932D01*
X006533Y009833D02*
X014607Y009833D01*
X014607Y009735D02*
X006533Y009735D01*
X006533Y009636D02*
X014607Y009636D01*
X014607Y010129D02*
X009648Y010129D01*
X009740Y010167D02*
X009898Y010326D01*
X014607Y010326D01*
X014607Y010424D02*
X009939Y010424D01*
X009898Y010326D02*
X009984Y010533D01*
X009984Y010669D01*
X011158Y010669D01*
X011294Y010725D01*
X011880Y011311D02*
X014665Y011311D01*
X014763Y011409D02*
X011979Y011409D01*
X012077Y011508D02*
X014862Y011508D01*
X014960Y011606D02*
X012176Y011606D01*
X012274Y011705D02*
X015059Y011705D01*
X015157Y011803D02*
X012373Y011803D01*
X012471Y011902D02*
X015256Y011902D01*
X015366Y012000D02*
X012570Y012000D01*
X012668Y012099D02*
X015510Y012099D01*
X015609Y012197D02*
X012767Y012197D01*
X012865Y012296D02*
X015789Y012296D01*
X014607Y010621D02*
X009984Y010621D01*
X009980Y010523D02*
X014607Y010523D01*
X014607Y010227D02*
X009800Y010227D01*
X009740Y010167D02*
X009532Y010081D01*
X009308Y010081D01*
X009101Y010167D01*
X008942Y010326D01*
X008902Y010424D02*
X007459Y010424D01*
X007418Y010326D02*
X007259Y010167D01*
X007320Y010227D02*
X009041Y010227D01*
X008861Y010523D02*
X007500Y010523D01*
X007504Y010621D02*
X008857Y010621D01*
X008857Y010720D02*
X007504Y010720D01*
X007504Y010818D02*
X008857Y010818D01*
X008857Y010917D02*
X007504Y010917D01*
X007504Y011015D02*
X008857Y011015D01*
X008857Y011114D02*
X007529Y011114D01*
X007628Y011212D02*
X008857Y011212D01*
X008857Y011311D02*
X007726Y011311D01*
X007825Y011409D02*
X008857Y011409D01*
X008857Y011508D02*
X007923Y011508D01*
X008022Y011606D02*
X008882Y011606D01*
X008923Y011705D02*
X008120Y011705D01*
X008219Y011803D02*
X008994Y011803D01*
X009093Y011902D02*
X008317Y011902D01*
X007763Y012394D02*
X006533Y012394D01*
X006533Y012296D02*
X007665Y012296D01*
X007566Y012197D02*
X006533Y012197D01*
X006533Y012099D02*
X007468Y012099D01*
X007369Y012000D02*
X006533Y012000D01*
X006533Y011902D02*
X006612Y011902D01*
X006533Y012493D02*
X007862Y012493D01*
X007960Y012591D02*
X006533Y012591D01*
X006533Y012690D02*
X008059Y012690D01*
X008157Y012788D02*
X006533Y012788D01*
X006533Y012887D02*
X008256Y012887D01*
X008354Y012985D02*
X006533Y012985D01*
X006533Y013084D02*
X008453Y013084D01*
X008551Y013182D02*
X006533Y013182D01*
X006533Y013281D02*
X008650Y013281D01*
X008748Y013379D02*
X006533Y013379D01*
X006533Y013478D02*
X008847Y013478D01*
X008945Y013576D02*
X006533Y013576D01*
X006533Y013675D02*
X009044Y013675D01*
X009142Y013773D02*
X006533Y013773D01*
X006533Y013872D02*
X009241Y013872D01*
X009339Y013970D02*
X006533Y013970D01*
X006533Y014069D02*
X009438Y014069D01*
X009536Y014167D02*
X006533Y014167D01*
X006533Y014266D02*
X009635Y014266D01*
X009733Y014364D02*
X006533Y014364D01*
X006533Y014463D02*
X009832Y014463D01*
X009930Y014561D02*
X006533Y014561D01*
X006533Y014660D02*
X010029Y014660D01*
X010127Y014758D02*
X006533Y014758D01*
X007268Y011902D02*
X007271Y011902D01*
X009984Y011544D02*
X009984Y011409D01*
X007516Y009538D02*
X006533Y009538D01*
X006533Y009439D02*
X007418Y009439D01*
X007348Y009341D02*
X006533Y009341D01*
X006533Y009242D02*
X007307Y009242D01*
X007282Y009144D02*
X006533Y009144D01*
X006533Y009045D02*
X007282Y009045D01*
X007286Y008947D02*
X006533Y008947D01*
X006533Y008848D02*
X007327Y008848D01*
X007369Y008750D02*
X006533Y008750D01*
X006533Y008651D02*
X007467Y008651D01*
X007621Y008553D02*
X006533Y008553D01*
X006533Y008454D02*
X014607Y008454D01*
X014607Y008356D02*
X006533Y008356D01*
X006533Y008257D02*
X007165Y008257D01*
X007208Y008275D02*
X006903Y008148D01*
X006669Y007915D01*
X006543Y007610D01*
X006543Y007280D01*
X006669Y006975D01*
X006903Y006741D01*
X007208Y006615D01*
X007538Y006615D01*
X007843Y006741D01*
X008076Y006975D01*
X008203Y007280D01*
X008203Y007610D01*
X008076Y007915D01*
X007843Y008148D01*
X007538Y008275D01*
X007208Y008275D01*
X006928Y008159D02*
X006533Y008159D01*
X006533Y008060D02*
X006814Y008060D01*
X006716Y007962D02*
X006533Y007962D01*
X006533Y007863D02*
X006648Y007863D01*
X006607Y007765D02*
X006533Y007765D01*
X006533Y007666D02*
X006566Y007666D01*
X006543Y007568D02*
X006533Y007568D01*
X006533Y007469D02*
X006543Y007469D01*
X006533Y007371D02*
X006543Y007371D01*
X006533Y007272D02*
X006546Y007272D01*
X006533Y007174D02*
X006587Y007174D01*
X006627Y007075D02*
X006533Y007075D01*
X006533Y006977D02*
X006668Y006977D01*
X006766Y006878D02*
X006533Y006878D01*
X006533Y006780D02*
X006864Y006780D01*
X007047Y006681D02*
X006533Y006681D01*
X007698Y006681D02*
X039547Y006681D01*
X039403Y006741D02*
X039169Y006975D01*
X039043Y007280D01*
X039043Y007610D01*
X039169Y007915D01*
X039403Y008148D01*
X039708Y008275D01*
X040038Y008275D01*
X040343Y008148D01*
X040576Y007915D01*
X040703Y007610D01*
X040703Y007280D01*
X040576Y006975D01*
X040343Y006741D01*
X040038Y006615D01*
X039708Y006615D01*
X039403Y006741D01*
X039364Y006780D02*
X007881Y006780D01*
X007980Y006878D02*
X039266Y006878D01*
X039168Y006977D02*
X038154Y006977D01*
X038267Y007075D02*
X039127Y007075D01*
X039087Y007174D02*
X038345Y007174D01*
X038386Y007272D02*
X039046Y007272D01*
X039043Y007371D02*
X038413Y007371D01*
X038413Y007469D02*
X039043Y007469D01*
X039043Y007568D02*
X038406Y007568D01*
X038365Y007666D02*
X039066Y007666D01*
X039107Y007765D02*
X038316Y007765D01*
X038218Y007863D02*
X039148Y007863D01*
X039216Y007962D02*
X038036Y007962D01*
X037710Y007962D02*
X037036Y007962D01*
X037218Y007863D02*
X037527Y007863D01*
X037429Y007765D02*
X037316Y007765D01*
X037365Y007666D02*
X037380Y007666D01*
X037400Y007174D02*
X037345Y007174D01*
X037267Y007075D02*
X037479Y007075D01*
X037592Y006977D02*
X037154Y006977D01*
X036592Y006977D02*
X036154Y006977D01*
X036267Y007075D02*
X036479Y007075D01*
X036400Y007174D02*
X036345Y007174D01*
X034710Y007962D02*
X034036Y007962D01*
X034218Y007863D02*
X034527Y007863D01*
X034429Y007765D02*
X034316Y007765D01*
X034365Y007666D02*
X034380Y007666D01*
X031710Y007962D02*
X031036Y007962D01*
X031218Y007863D02*
X031527Y007863D01*
X031429Y007765D02*
X031316Y007765D01*
X031365Y007666D02*
X031380Y007666D01*
X031821Y009242D02*
X029734Y009242D01*
X029772Y009341D02*
X031798Y009341D01*
X031798Y009439D02*
X029772Y009439D01*
X029772Y009538D02*
X031798Y009538D01*
X031798Y009636D02*
X029772Y009636D01*
X028692Y009636D02*
X026755Y009636D01*
X026755Y009538D02*
X028692Y009538D01*
X028692Y009439D02*
X026755Y009439D01*
X026749Y009341D02*
X028692Y009341D01*
X028730Y009242D02*
X026663Y009242D01*
X026185Y009735D02*
X023273Y009735D01*
X023273Y009636D02*
X023173Y009636D01*
X023173Y009538D02*
X023273Y009538D01*
X023273Y009439D02*
X023173Y009439D01*
X023173Y009341D02*
X023273Y009341D01*
X023273Y009242D02*
X023173Y009242D01*
X023173Y009735D02*
X020242Y009735D01*
X018798Y009045D02*
X038538Y009045D01*
X039428Y008159D02*
X017912Y008159D01*
X018010Y008257D02*
X039665Y008257D01*
X039314Y008060D02*
X017813Y008060D01*
X017813Y007962D02*
X017715Y007962D01*
X017823Y007962D02*
X017923Y007962D01*
X017933Y007962D02*
X018813Y007962D01*
X018823Y007962D02*
X018923Y007962D01*
X018933Y007962D02*
X019710Y007962D01*
X019527Y007863D02*
X019181Y007863D01*
X019283Y007765D02*
X019429Y007765D01*
X019380Y007666D02*
X019343Y007666D01*
X018923Y007666D02*
X018823Y007666D01*
X018823Y007568D02*
X018923Y007568D01*
X018923Y007765D02*
X018823Y007765D01*
X018823Y007863D02*
X018923Y007863D01*
X018564Y007863D02*
X018181Y007863D01*
X018283Y007765D02*
X018462Y007765D01*
X018402Y007666D02*
X018343Y007666D01*
X018363Y007272D02*
X018382Y007272D01*
X018427Y007174D02*
X018318Y007174D01*
X018239Y007075D02*
X018507Y007075D01*
X018646Y006977D02*
X018099Y006977D01*
X017923Y007568D02*
X017823Y007568D01*
X017823Y007666D02*
X017923Y007666D01*
X017923Y007765D02*
X017823Y007765D01*
X017823Y007863D02*
X017923Y007863D01*
X018109Y008356D02*
X041648Y008356D01*
X041648Y008454D02*
X018207Y008454D01*
X018306Y008553D02*
X041648Y008553D01*
X041648Y008651D02*
X018404Y008651D01*
X018503Y008750D02*
X041648Y008750D01*
X041648Y008848D02*
X018601Y008848D01*
X018823Y007075D02*
X018923Y007075D01*
X018923Y006977D02*
X018823Y006977D01*
X015592Y006977D02*
X015154Y006977D01*
X015267Y007075D02*
X015479Y007075D01*
X015400Y007174D02*
X015345Y007174D01*
X015365Y007666D02*
X015380Y007666D01*
X015429Y007765D02*
X015316Y007765D01*
X015218Y007863D02*
X015527Y007863D01*
X014607Y007962D02*
X008029Y007962D01*
X008098Y007863D02*
X014527Y007863D01*
X014429Y007765D02*
X008138Y007765D01*
X008179Y007666D02*
X014380Y007666D01*
X014339Y007568D02*
X008203Y007568D01*
X008203Y007469D02*
X014333Y007469D01*
X014333Y007371D02*
X008203Y007371D01*
X008200Y007272D02*
X014360Y007272D01*
X014400Y007174D02*
X008159Y007174D01*
X008118Y007075D02*
X014479Y007075D01*
X014592Y006977D02*
X008077Y006977D01*
X007931Y008060D02*
X014607Y008060D01*
X014607Y008159D02*
X007818Y008159D01*
X007580Y008257D02*
X014607Y008257D01*
X014607Y008553D02*
X008857Y008553D01*
X009011Y008651D02*
X014607Y008651D01*
X019827Y012887D02*
X019927Y012887D01*
X019927Y012985D02*
X019827Y012985D01*
X019827Y013084D02*
X019927Y013084D01*
X019927Y013182D02*
X019827Y013182D01*
X020194Y012887D02*
X025472Y012887D01*
X025355Y012985D02*
X020302Y012985D01*
X020366Y013084D02*
X025284Y013084D01*
X025240Y013182D02*
X020405Y013182D01*
X020425Y013281D02*
X025217Y013281D01*
X025225Y013478D02*
X023985Y013478D01*
X024025Y013518D02*
X024087Y013667D01*
X024087Y013829D01*
X024025Y013978D01*
X023911Y014092D01*
X023762Y014154D01*
X023600Y014154D01*
X023451Y014092D01*
X023337Y013978D01*
X023275Y013829D01*
X023275Y013667D01*
X023337Y013518D01*
X023451Y013404D01*
X023600Y013342D01*
X023762Y013342D01*
X023911Y013404D01*
X024025Y013518D01*
X024050Y013576D02*
X025258Y013576D01*
X025315Y013675D02*
X024087Y013675D01*
X024087Y013773D02*
X025402Y013773D01*
X025572Y013872D02*
X024069Y013872D01*
X024029Y013970D02*
X025444Y013970D01*
X025343Y014069D02*
X023935Y014069D01*
X023427Y014069D02*
X022974Y014069D01*
X022950Y014092D02*
X022801Y014154D01*
X022640Y014154D01*
X022490Y014092D01*
X022376Y013978D01*
X022314Y013829D01*
X022314Y013667D01*
X022376Y013518D01*
X022490Y013404D01*
X022640Y013342D01*
X022801Y013342D01*
X022950Y013404D01*
X023065Y013518D01*
X023127Y013667D01*
X023127Y013829D01*
X023065Y013978D01*
X022950Y014092D01*
X023068Y013970D02*
X023333Y013970D01*
X023293Y013872D02*
X023109Y013872D01*
X023127Y013773D02*
X023275Y013773D01*
X023275Y013675D02*
X023127Y013675D01*
X023089Y013576D02*
X023312Y013576D01*
X023377Y013478D02*
X023025Y013478D01*
X022892Y013379D02*
X023510Y013379D01*
X023852Y013379D02*
X025712Y013379D01*
X025712Y013281D02*
X025812Y013281D01*
X025812Y013306D02*
X025812Y012807D01*
X025891Y012819D01*
X025974Y012846D01*
X026051Y012885D01*
X026121Y012936D01*
X026182Y012997D01*
X026233Y013067D01*
X026272Y013144D01*
X026299Y013227D01*
X026311Y013306D01*
X025812Y013306D01*
X025812Y013379D02*
X038333Y013379D01*
X038333Y013281D02*
X035517Y013281D01*
X035458Y013281D02*
X035358Y013281D01*
X035299Y013281D02*
X026307Y013281D01*
X026285Y013182D02*
X035089Y013182D01*
X034992Y013084D02*
X026241Y013084D01*
X026170Y012985D02*
X034933Y012985D01*
X034900Y012887D02*
X026053Y012887D01*
X025812Y012887D02*
X025712Y012887D01*
X025712Y012985D02*
X025812Y012985D01*
X025812Y013084D02*
X025712Y013084D01*
X025712Y013182D02*
X025812Y013182D01*
X026300Y013478D02*
X038333Y013478D01*
X038333Y013576D02*
X026267Y013576D01*
X026210Y013675D02*
X038339Y013675D01*
X038437Y013773D02*
X026122Y013773D01*
X025953Y013872D02*
X038536Y013872D01*
X038584Y013970D02*
X026081Y013970D01*
X026182Y014069D02*
X038485Y014069D01*
X038387Y014167D02*
X033676Y014167D01*
X033799Y014266D02*
X037490Y014266D01*
X037391Y014364D02*
X033860Y014364D01*
X033896Y014463D02*
X037293Y014463D01*
X037194Y014561D02*
X033896Y014561D01*
X033877Y014660D02*
X037096Y014660D01*
X036997Y014758D02*
X033836Y014758D01*
X033741Y014857D02*
X036899Y014857D01*
X036603Y015152D02*
X033639Y015152D01*
X033784Y015251D02*
X036505Y015251D01*
X036406Y015349D02*
X033854Y015349D01*
X033894Y015448D02*
X036308Y015448D01*
X036209Y015546D02*
X033896Y015546D01*
X033883Y015645D02*
X036111Y015645D01*
X036012Y015743D02*
X033842Y015743D01*
X033756Y015842D02*
X035914Y015842D01*
X037742Y016925D02*
X038590Y016925D01*
X038609Y016945D02*
X038333Y016669D01*
X038333Y016334D01*
X035786Y018881D01*
X035694Y018919D01*
X033571Y018919D01*
X033654Y018954D01*
X033769Y019069D01*
X033832Y019220D01*
X033832Y019383D01*
X033769Y019533D01*
X033654Y019649D01*
X033503Y019711D01*
X032860Y019711D01*
X032710Y019649D01*
X032594Y019533D01*
X032532Y019383D01*
X032532Y019220D01*
X032594Y019069D01*
X032710Y018954D01*
X032792Y018919D01*
X032559Y018919D01*
X032075Y019403D01*
X032075Y020668D01*
X032757Y020668D01*
X032710Y020649D02*
X032594Y020533D01*
X032532Y020383D01*
X032532Y020220D01*
X032594Y020069D01*
X032710Y019954D01*
X032860Y019891D01*
X033503Y019891D01*
X033654Y019954D01*
X033769Y020069D01*
X033832Y020220D01*
X033832Y020383D01*
X033769Y020533D01*
X033654Y020649D01*
X033503Y020711D01*
X032860Y020711D01*
X032710Y020649D01*
X032631Y020570D02*
X032075Y020570D01*
X032075Y020668D02*
X032037Y020760D01*
X030749Y022048D01*
X030769Y022069D01*
X030832Y022220D01*
X030832Y022383D01*
X030769Y022533D01*
X030654Y022649D01*
X030503Y022711D01*
X029941Y022711D01*
X030315Y023085D01*
X030871Y023085D01*
X030963Y023123D01*
X031171Y023331D01*
X031434Y023331D01*
X031534Y023430D01*
X031534Y023948D01*
X031491Y023990D01*
X032450Y023990D01*
X032914Y023526D01*
X032914Y022711D01*
X032860Y022711D01*
X032710Y022649D01*
X032594Y022533D01*
X032532Y022383D01*
X032532Y022220D01*
X032594Y022069D01*
X032710Y021954D01*
X032860Y021891D01*
X033503Y021891D01*
X033654Y021954D01*
X033769Y022069D01*
X033832Y022220D01*
X033832Y022383D01*
X033769Y022533D01*
X033654Y022649D01*
X033503Y022711D01*
X033414Y022711D01*
X033414Y023380D01*
X033745Y023380D01*
X033837Y023418D01*
X035295Y024876D01*
X037604Y024876D01*
X037695Y024914D01*
X038333Y025551D01*
X038333Y025221D01*
X038609Y024945D01*
X038333Y024669D01*
X038333Y024221D01*
X038609Y023945D01*
X038333Y023669D01*
X038333Y023221D01*
X038609Y022945D01*
X038333Y022669D01*
X038333Y022221D01*
X038609Y021945D01*
X038333Y021669D01*
X038333Y021221D01*
X038609Y020945D01*
X038333Y020669D01*
X038333Y020221D01*
X038609Y019945D01*
X038333Y019669D01*
X038333Y019221D01*
X038609Y018945D01*
X038333Y018669D01*
X038333Y018221D01*
X038609Y017945D01*
X038333Y017669D01*
X038333Y017221D01*
X037446Y017221D01*
X037348Y017319D02*
X038333Y017319D01*
X038333Y017221D02*
X038609Y016945D01*
X038530Y017024D02*
X037643Y017024D01*
X037545Y017122D02*
X038432Y017122D01*
X038491Y016827D02*
X037840Y016827D01*
X037939Y016728D02*
X038393Y016728D01*
X038333Y016630D02*
X038037Y016630D01*
X038136Y016531D02*
X038333Y016531D01*
X038333Y016433D02*
X038234Y016433D01*
X038333Y017418D02*
X037249Y017418D01*
X037151Y017516D02*
X038333Y017516D01*
X038333Y017615D02*
X037052Y017615D01*
X036954Y017713D02*
X038378Y017713D01*
X038476Y017812D02*
X036855Y017812D01*
X036757Y017910D02*
X038575Y017910D01*
X038545Y018009D02*
X036658Y018009D01*
X036560Y018107D02*
X038447Y018107D01*
X038348Y018206D02*
X036461Y018206D01*
X036363Y018304D02*
X038333Y018304D01*
X038333Y018403D02*
X036264Y018403D01*
X036166Y018501D02*
X038333Y018501D01*
X038333Y018600D02*
X036067Y018600D01*
X035969Y018698D02*
X038363Y018698D01*
X038461Y018797D02*
X035870Y018797D01*
X035752Y018895D02*
X038560Y018895D01*
X038560Y018994D02*
X033694Y018994D01*
X033779Y019092D02*
X038462Y019092D01*
X038363Y019191D02*
X033820Y019191D01*
X033832Y019289D02*
X038333Y019289D01*
X038333Y019388D02*
X033830Y019388D01*
X033789Y019486D02*
X038333Y019486D01*
X038333Y019585D02*
X033718Y019585D01*
X033570Y019683D02*
X038348Y019683D01*
X038446Y019782D02*
X032075Y019782D01*
X032075Y019880D02*
X038545Y019880D01*
X038575Y019979D02*
X033679Y019979D01*
X033773Y020077D02*
X038477Y020077D01*
X038378Y020176D02*
X033814Y020176D01*
X033832Y020274D02*
X038333Y020274D01*
X038333Y020373D02*
X033832Y020373D01*
X033795Y020471D02*
X038333Y020471D01*
X038333Y020570D02*
X033733Y020570D01*
X033607Y020668D02*
X038333Y020668D01*
X038431Y020767D02*
X032030Y020767D01*
X031932Y020865D02*
X038530Y020865D01*
X038590Y020964D02*
X033619Y020964D01*
X033606Y020956D02*
X033670Y020998D01*
X033725Y021053D01*
X033767Y021116D01*
X033797Y021187D01*
X033812Y021263D01*
X033812Y021271D01*
X033212Y021271D01*
X033212Y021331D01*
X033812Y021331D01*
X033812Y021340D01*
X033797Y021415D01*
X033767Y021486D01*
X033725Y021550D01*
X033670Y021604D01*
X033606Y021647D01*
X033536Y021676D01*
X033460Y021691D01*
X033212Y021691D01*
X033212Y021331D01*
X033152Y021331D01*
X033152Y021271D01*
X033212Y021271D01*
X033212Y020911D01*
X033460Y020911D01*
X033536Y020926D01*
X033606Y020956D01*
X033731Y021062D02*
X038492Y021062D01*
X038393Y021161D02*
X033786Y021161D01*
X033811Y021259D02*
X038333Y021259D01*
X038333Y021358D02*
X033808Y021358D01*
X033780Y021456D02*
X035535Y021456D01*
X035524Y021467D02*
X035552Y021439D01*
X035587Y021419D01*
X035625Y021409D01*
X035964Y021409D01*
X035964Y021879D01*
X035494Y021879D01*
X035494Y021539D01*
X035505Y021501D01*
X035524Y021467D01*
X035494Y021555D02*
X033720Y021555D01*
X033591Y021653D02*
X035494Y021653D01*
X035494Y021752D02*
X031045Y021752D01*
X030947Y021850D02*
X035494Y021850D01*
X035494Y021979D02*
X035494Y022319D01*
X035505Y022357D01*
X035524Y022391D01*
X035552Y022419D01*
X035587Y022439D01*
X035625Y022449D01*
X035762Y022449D01*
X035709Y022471D01*
X035557Y022623D01*
X035474Y022822D01*
X035474Y023037D01*
X035557Y023235D01*
X035709Y023387D01*
X035810Y023429D01*
X035709Y023471D01*
X035557Y023623D01*
X035474Y023822D01*
X035474Y024037D01*
X035557Y024235D01*
X035709Y024387D01*
X035907Y024469D01*
X036122Y024469D01*
X036320Y024387D01*
X036472Y024235D01*
X036554Y024037D01*
X036554Y023822D01*
X036472Y023623D01*
X036320Y023471D01*
X036218Y023429D01*
X036320Y023387D01*
X036472Y023235D01*
X036554Y023037D01*
X036554Y022822D01*
X036472Y022623D01*
X036320Y022471D01*
X036267Y022449D01*
X036404Y022449D01*
X036442Y022439D01*
X036477Y022419D01*
X036504Y022391D01*
X036524Y022357D01*
X036534Y022319D01*
X036534Y021979D01*
X036064Y021979D01*
X036064Y021879D01*
X036064Y021409D01*
X036404Y021409D01*
X036442Y021419D01*
X036477Y021439D01*
X036504Y021467D01*
X036524Y021501D01*
X036534Y021539D01*
X036534Y021879D01*
X036064Y021879D01*
X035964Y021879D01*
X035964Y021979D01*
X035494Y021979D01*
X035494Y022047D02*
X033748Y022047D01*
X033801Y022146D02*
X035494Y022146D01*
X035494Y022244D02*
X033832Y022244D01*
X033832Y022343D02*
X035501Y022343D01*
X035596Y022441D02*
X033807Y022441D01*
X033763Y022540D02*
X035640Y022540D01*
X035550Y022638D02*
X033664Y022638D01*
X033414Y022737D02*
X035510Y022737D01*
X035474Y022835D02*
X033414Y022835D01*
X033414Y022934D02*
X035474Y022934D01*
X035474Y023032D02*
X033414Y023032D01*
X033414Y023131D02*
X035514Y023131D01*
X035554Y023229D02*
X033414Y023229D01*
X033414Y023328D02*
X035649Y023328D01*
X035804Y023426D02*
X033846Y023426D01*
X033944Y023525D02*
X035655Y023525D01*
X035557Y023623D02*
X034043Y023623D01*
X034141Y023722D02*
X035516Y023722D01*
X035475Y023820D02*
X034240Y023820D01*
X034338Y023919D02*
X035474Y023919D01*
X035474Y024017D02*
X034437Y024017D01*
X034535Y024116D02*
X035507Y024116D01*
X035548Y024214D02*
X034634Y024214D01*
X034732Y024313D02*
X035634Y024313D01*
X035768Y024411D02*
X034831Y024411D01*
X034929Y024510D02*
X038333Y024510D01*
X038333Y024608D02*
X035028Y024608D01*
X035126Y024707D02*
X038371Y024707D01*
X038470Y024805D02*
X035225Y024805D01*
X036261Y024411D02*
X038333Y024411D01*
X038333Y024313D02*
X036394Y024313D01*
X036481Y024214D02*
X038340Y024214D01*
X038438Y024116D02*
X036522Y024116D01*
X036554Y024017D02*
X038537Y024017D01*
X038583Y023919D02*
X036554Y023919D01*
X036554Y023820D02*
X038485Y023820D01*
X038386Y023722D02*
X036513Y023722D01*
X036472Y023623D02*
X038333Y023623D01*
X038333Y023525D02*
X036374Y023525D01*
X036225Y023426D02*
X038333Y023426D01*
X038333Y023328D02*
X036379Y023328D01*
X036475Y023229D02*
X038333Y023229D01*
X038423Y023131D02*
X036515Y023131D01*
X036554Y023032D02*
X038522Y023032D01*
X038598Y022934D02*
X036554Y022934D01*
X036554Y022835D02*
X038500Y022835D01*
X038401Y022737D02*
X036519Y022737D01*
X036478Y022638D02*
X038333Y022638D01*
X038333Y022540D02*
X036389Y022540D01*
X036433Y022441D02*
X038333Y022441D01*
X038333Y022343D02*
X036528Y022343D01*
X036534Y022244D02*
X038333Y022244D01*
X038408Y022146D02*
X036534Y022146D01*
X036534Y022047D02*
X038507Y022047D01*
X038605Y021949D02*
X036064Y021949D01*
X036064Y021850D02*
X035964Y021850D01*
X035964Y021752D02*
X036064Y021752D01*
X036064Y021653D02*
X035964Y021653D01*
X035964Y021555D02*
X036064Y021555D01*
X036064Y021456D02*
X035964Y021456D01*
X035964Y021949D02*
X033643Y021949D01*
X033212Y021653D02*
X033152Y021653D01*
X033152Y021691D02*
X032903Y021691D01*
X032828Y021676D01*
X032757Y021647D01*
X032693Y021604D01*
X032639Y021550D01*
X032596Y021486D01*
X032567Y021415D01*
X032552Y021340D01*
X032552Y021331D01*
X033152Y021331D01*
X033152Y021691D01*
X033152Y021555D02*
X033212Y021555D01*
X033212Y021456D02*
X033152Y021456D01*
X033152Y021358D02*
X033212Y021358D01*
X033212Y021259D02*
X033152Y021259D01*
X033152Y021271D02*
X033152Y020911D01*
X032903Y020911D01*
X032828Y020926D01*
X032757Y020956D01*
X032693Y020998D01*
X032639Y021053D01*
X032596Y021116D01*
X032567Y021187D01*
X032552Y021263D01*
X032552Y021271D01*
X033152Y021271D01*
X033152Y021161D02*
X033212Y021161D01*
X033212Y021062D02*
X033152Y021062D01*
X033152Y020964D02*
X033212Y020964D01*
X032745Y020964D02*
X031833Y020964D01*
X031735Y021062D02*
X032632Y021062D01*
X032578Y021161D02*
X031636Y021161D01*
X031538Y021259D02*
X032552Y021259D01*
X032555Y021358D02*
X031439Y021358D01*
X031341Y021456D02*
X032584Y021456D01*
X032644Y021555D02*
X031242Y021555D01*
X031144Y021653D02*
X032773Y021653D01*
X032721Y021949D02*
X030848Y021949D01*
X030750Y022047D02*
X032616Y022047D01*
X032562Y022146D02*
X030801Y022146D01*
X030832Y022244D02*
X032532Y022244D01*
X032532Y022343D02*
X030832Y022343D01*
X030807Y022441D02*
X032556Y022441D01*
X032601Y022540D02*
X030763Y022540D01*
X030664Y022638D02*
X032699Y022638D01*
X032914Y022737D02*
X029967Y022737D01*
X030066Y022835D02*
X032914Y022835D01*
X032914Y022934D02*
X030164Y022934D01*
X030263Y023032D02*
X032914Y023032D01*
X032914Y023131D02*
X030971Y023131D01*
X031070Y023229D02*
X032914Y023229D01*
X032914Y023328D02*
X031168Y023328D01*
X031530Y023426D02*
X032914Y023426D01*
X032914Y023525D02*
X031534Y023525D01*
X031534Y023623D02*
X032817Y023623D01*
X032719Y023722D02*
X031534Y023722D01*
X031534Y023820D02*
X032620Y023820D01*
X032522Y023919D02*
X031534Y023919D01*
X028377Y022835D02*
X028066Y022835D01*
X028066Y022804D02*
X028066Y022970D01*
X027596Y022970D01*
X027596Y022500D01*
X027761Y022500D01*
X028066Y022804D01*
X027999Y022737D02*
X028354Y022737D01*
X028256Y022638D02*
X027900Y022638D01*
X027802Y022540D02*
X028157Y022540D01*
X028059Y022441D02*
X023321Y022441D01*
X023223Y022343D02*
X027960Y022343D01*
X027862Y022244D02*
X023124Y022244D01*
X023026Y022146D02*
X027763Y022146D01*
X027665Y022047D02*
X022927Y022047D01*
X022829Y021949D02*
X027566Y021949D01*
X027512Y021850D02*
X022730Y021850D01*
X022632Y021752D02*
X027505Y021752D01*
X027505Y021653D02*
X022533Y021653D01*
X022435Y021555D02*
X027505Y021555D01*
X027505Y021456D02*
X022336Y021456D01*
X022238Y021358D02*
X027505Y021358D01*
X027505Y021259D02*
X022139Y021259D01*
X022041Y021161D02*
X027505Y021161D01*
X027505Y021062D02*
X021942Y021062D01*
X021797Y020964D02*
X027505Y020964D01*
X028886Y019782D02*
X031064Y019782D01*
X031064Y019880D02*
X028985Y019880D01*
X029083Y019979D02*
X029684Y019979D01*
X029710Y019954D02*
X029860Y019891D01*
X030503Y019891D01*
X030654Y019954D01*
X030769Y020069D01*
X030832Y020220D01*
X030832Y020298D01*
X031064Y020066D01*
X031064Y019541D01*
X030794Y019271D01*
X030212Y019271D01*
X030212Y019331D01*
X030812Y019331D01*
X030812Y019340D01*
X030797Y019415D01*
X030767Y019486D01*
X031009Y019486D01*
X031064Y019585D02*
X030690Y019585D01*
X030670Y019604D02*
X030606Y019647D01*
X030536Y019676D01*
X030460Y019691D01*
X030212Y019691D01*
X030212Y019331D01*
X030152Y019331D01*
X030152Y019271D01*
X030212Y019271D01*
X030212Y018911D01*
X030434Y018911D01*
X030246Y018722D01*
X029591Y018722D01*
X029499Y018684D01*
X029428Y018614D01*
X028917Y018102D01*
X028879Y018010D01*
X028879Y017596D01*
X028917Y017504D01*
X028987Y017434D01*
X029253Y017167D01*
X028170Y017167D01*
X028217Y017215D01*
X028279Y017364D01*
X028279Y017498D01*
X028829Y018047D01*
X028867Y018139D01*
X028867Y018739D01*
X028829Y018831D01*
X028758Y018901D01*
X028382Y019278D01*
X029155Y020051D01*
X029612Y020051D01*
X029710Y019954D01*
X029828Y019676D02*
X029757Y019647D01*
X029693Y019604D01*
X029639Y019550D01*
X029596Y019486D01*
X029567Y019415D01*
X029552Y019340D01*
X029552Y019331D01*
X030152Y019331D01*
X030152Y019691D01*
X029903Y019691D01*
X029828Y019676D01*
X029864Y019683D02*
X028788Y019683D01*
X028689Y019585D02*
X029674Y019585D01*
X029596Y019486D02*
X028591Y019486D01*
X028492Y019388D02*
X029561Y019388D01*
X029552Y019271D02*
X029552Y019263D01*
X029567Y019187D01*
X029596Y019116D01*
X029639Y019053D01*
X029693Y018998D01*
X029757Y018956D01*
X029828Y018926D01*
X029903Y018911D01*
X030152Y018911D01*
X030152Y019271D01*
X029552Y019271D01*
X029566Y019191D02*
X028468Y019191D01*
X028394Y019289D02*
X030152Y019289D01*
X030212Y019289D02*
X030812Y019289D01*
X030802Y019388D02*
X030911Y019388D01*
X030767Y019486D02*
X030725Y019550D01*
X030670Y019604D01*
X030499Y019683D02*
X031064Y019683D01*
X031064Y019979D02*
X030679Y019979D01*
X030773Y020077D02*
X031052Y020077D01*
X030954Y020176D02*
X030814Y020176D01*
X030832Y020274D02*
X030855Y020274D01*
X030212Y019683D02*
X030152Y019683D01*
X030152Y019585D02*
X030212Y019585D01*
X030212Y019486D02*
X030152Y019486D01*
X030152Y019388D02*
X030212Y019388D01*
X030212Y019191D02*
X030152Y019191D01*
X030152Y019092D02*
X030212Y019092D01*
X030212Y018994D02*
X030152Y018994D01*
X030320Y018797D02*
X028843Y018797D01*
X028867Y018698D02*
X029533Y018698D01*
X029414Y018600D02*
X028867Y018600D01*
X028867Y018501D02*
X029316Y018501D01*
X029217Y018403D02*
X028867Y018403D01*
X028867Y018304D02*
X029119Y018304D01*
X029020Y018206D02*
X028867Y018206D01*
X028854Y018107D02*
X028922Y018107D01*
X028879Y018009D02*
X028790Y018009D01*
X028879Y017910D02*
X028692Y017910D01*
X028593Y017812D02*
X028879Y017812D01*
X028879Y017713D02*
X028495Y017713D01*
X028396Y017615D02*
X028879Y017615D01*
X028912Y017516D02*
X028298Y017516D01*
X028279Y017418D02*
X029003Y017418D01*
X029101Y017319D02*
X028260Y017319D01*
X028220Y017221D02*
X029200Y017221D01*
X027697Y017812D02*
X027048Y017812D01*
X027179Y017713D02*
X027567Y017713D01*
X027503Y017615D02*
X027242Y017615D01*
X027279Y017516D02*
X027466Y017516D01*
X027466Y017418D02*
X027279Y017418D01*
X027269Y017319D02*
X027485Y017319D01*
X027526Y017221D02*
X027368Y017221D01*
X028764Y018895D02*
X030418Y018895D01*
X029700Y018994D02*
X028665Y018994D01*
X028567Y019092D02*
X029612Y019092D01*
X032075Y019486D02*
X032575Y019486D01*
X032534Y019388D02*
X032090Y019388D01*
X032189Y019289D02*
X032532Y019289D01*
X032544Y019191D02*
X032287Y019191D01*
X032386Y019092D02*
X032584Y019092D01*
X032669Y018994D02*
X032484Y018994D01*
X032646Y019585D02*
X032075Y019585D01*
X032075Y019683D02*
X032793Y019683D01*
X032684Y019979D02*
X032075Y019979D01*
X032075Y020077D02*
X032591Y020077D01*
X032550Y020176D02*
X032075Y020176D01*
X032075Y020274D02*
X032532Y020274D01*
X032532Y020373D02*
X032075Y020373D01*
X032075Y020471D02*
X032568Y020471D01*
X036494Y021456D02*
X038333Y021456D01*
X038333Y021555D02*
X036534Y021555D01*
X036534Y021653D02*
X038333Y021653D01*
X038416Y021752D02*
X036534Y021752D01*
X036534Y021850D02*
X038515Y021850D01*
X040140Y021949D02*
X041648Y021949D01*
X041648Y022047D02*
X040239Y022047D01*
X040337Y022146D02*
X041648Y022146D01*
X041648Y022244D02*
X040413Y022244D01*
X040413Y022343D02*
X041648Y022343D01*
X041648Y022441D02*
X040413Y022441D01*
X040413Y022540D02*
X041648Y022540D01*
X041648Y022638D02*
X040413Y022638D01*
X040344Y022737D02*
X041648Y022737D01*
X041648Y022835D02*
X040246Y022835D01*
X040147Y022934D02*
X041648Y022934D01*
X041648Y023032D02*
X040224Y023032D01*
X040322Y023131D02*
X041648Y023131D01*
X041648Y023229D02*
X040413Y023229D01*
X040413Y023328D02*
X041648Y023328D01*
X041648Y023426D02*
X040413Y023426D01*
X040413Y023525D02*
X041648Y023525D01*
X041648Y023623D02*
X040413Y023623D01*
X040359Y023722D02*
X041648Y023722D01*
X041648Y023820D02*
X040261Y023820D01*
X040162Y023919D02*
X041648Y023919D01*
X041648Y024017D02*
X040209Y024017D01*
X040307Y024116D02*
X041648Y024116D01*
X041648Y024214D02*
X040406Y024214D01*
X040413Y024313D02*
X041648Y024313D01*
X041648Y024411D02*
X040413Y024411D01*
X040413Y024510D02*
X041648Y024510D01*
X041648Y024608D02*
X040413Y024608D01*
X040374Y024707D02*
X041648Y024707D01*
X041648Y024805D02*
X040276Y024805D01*
X040177Y024904D02*
X041648Y024904D01*
X041648Y025002D02*
X040194Y025002D01*
X040292Y025101D02*
X041648Y025101D01*
X041648Y025199D02*
X040391Y025199D01*
X040413Y025298D02*
X041648Y025298D01*
X041648Y025396D02*
X040413Y025396D01*
X040413Y025495D02*
X041648Y025495D01*
X041648Y025593D02*
X040413Y025593D01*
X040389Y025692D02*
X041648Y025692D01*
X041648Y025790D02*
X040291Y025790D01*
X040277Y026086D02*
X041648Y026086D01*
X041648Y026184D02*
X040349Y026184D01*
X040390Y026283D02*
X041648Y026283D01*
X041648Y026381D02*
X040413Y026381D01*
X040413Y026480D02*
X041648Y026480D01*
X041648Y026578D02*
X040402Y026578D01*
X040361Y026677D02*
X041648Y026677D01*
X041648Y026775D02*
X040306Y026775D01*
X040207Y026874D02*
X041648Y026874D01*
X041648Y026972D02*
X040010Y026972D01*
X039735Y026972D02*
X039010Y026972D01*
X039207Y026874D02*
X039538Y026874D01*
X039440Y026775D02*
X039306Y026775D01*
X038735Y026972D02*
X038019Y026972D01*
X038093Y026874D02*
X038538Y026874D01*
X038440Y026775D02*
X038134Y026775D01*
X038175Y026677D02*
X038384Y026677D01*
X038344Y026578D02*
X038203Y026578D01*
X038203Y026480D02*
X038333Y026480D01*
X038333Y026381D02*
X038203Y026381D01*
X038203Y026283D02*
X038355Y026283D01*
X038259Y026184D02*
X038163Y026184D01*
X038160Y026086D02*
X038122Y026086D01*
X038276Y025495D02*
X038333Y025495D01*
X038333Y025396D02*
X038178Y025396D01*
X038079Y025298D02*
X038333Y025298D01*
X038355Y025199D02*
X037981Y025199D01*
X037882Y025101D02*
X038453Y025101D01*
X038552Y025002D02*
X037784Y025002D01*
X037671Y024904D02*
X038568Y024904D01*
X037920Y027071D02*
X041648Y027071D01*
X041648Y027169D02*
X037792Y027169D01*
X040231Y021850D02*
X041648Y021850D01*
X041648Y021752D02*
X040329Y021752D01*
X040413Y021653D02*
X041648Y021653D01*
X041648Y021555D02*
X040413Y021555D01*
X040413Y021456D02*
X041648Y021456D01*
X041648Y021358D02*
X040413Y021358D01*
X040413Y021259D02*
X041648Y021259D01*
X041648Y021161D02*
X040352Y021161D01*
X040254Y021062D02*
X041648Y021062D01*
X041648Y020964D02*
X040155Y020964D01*
X040216Y020865D02*
X041648Y020865D01*
X041648Y020767D02*
X040314Y020767D01*
X040413Y020668D02*
X041648Y020668D01*
X041648Y020570D02*
X040413Y020570D01*
X040413Y020471D02*
X041648Y020471D01*
X041648Y020373D02*
X040413Y020373D01*
X040413Y020274D02*
X041648Y020274D01*
X041648Y020176D02*
X040367Y020176D01*
X040269Y020077D02*
X041648Y020077D01*
X041648Y019979D02*
X040170Y019979D01*
X040201Y019880D02*
X041648Y019880D01*
X041648Y019782D02*
X040299Y019782D01*
X040398Y019683D02*
X041648Y019683D01*
X041648Y019585D02*
X040413Y019585D01*
X040413Y019486D02*
X041648Y019486D01*
X041648Y019388D02*
X040413Y019388D01*
X040413Y019289D02*
X041648Y019289D01*
X041648Y019191D02*
X040382Y019191D01*
X040284Y019092D02*
X041648Y019092D01*
X041648Y018994D02*
X040185Y018994D01*
X040186Y018895D02*
X041648Y018895D01*
X041648Y018797D02*
X040284Y018797D01*
X040383Y018698D02*
X041648Y018698D01*
X041648Y018600D02*
X040413Y018600D01*
X040413Y018501D02*
X041648Y018501D01*
X041648Y018403D02*
X040413Y018403D01*
X040413Y018304D02*
X041648Y018304D01*
X041648Y018206D02*
X040397Y018206D01*
X040299Y018107D02*
X041648Y018107D01*
X041648Y018009D02*
X040200Y018009D01*
X040171Y017910D02*
X041648Y017910D01*
X041648Y017812D02*
X040269Y017812D01*
X040368Y017713D02*
X041648Y017713D01*
X041648Y017615D02*
X040413Y017615D01*
X040413Y017516D02*
X041648Y017516D01*
X041648Y017418D02*
X040413Y017418D01*
X040413Y017319D02*
X041648Y017319D01*
X041648Y017221D02*
X040412Y017221D01*
X040314Y017122D02*
X041648Y017122D01*
X041648Y017024D02*
X040215Y017024D01*
X040156Y016925D02*
X041648Y016925D01*
X041648Y016827D02*
X040254Y016827D01*
X040353Y016728D02*
X041648Y016728D01*
X041648Y016630D02*
X040413Y016630D01*
X040413Y016531D02*
X041648Y016531D01*
X041648Y016433D02*
X040413Y016433D01*
X040413Y016334D02*
X041648Y016334D01*
X041648Y016236D02*
X040413Y016236D01*
X040329Y016137D02*
X041648Y016137D01*
X041648Y016039D02*
X040230Y016039D01*
X040141Y015940D02*
X041648Y015940D01*
X041648Y015842D02*
X040239Y015842D01*
X040338Y015743D02*
X041648Y015743D01*
X041648Y015645D02*
X040413Y015645D01*
X040413Y015546D02*
X041648Y015546D01*
X041648Y015448D02*
X040413Y015448D01*
X040413Y015349D02*
X041648Y015349D01*
X041648Y015251D02*
X040413Y015251D01*
X040344Y015152D02*
X041648Y015152D01*
X041648Y015054D02*
X040245Y015054D01*
X040147Y014955D02*
X041648Y014955D01*
X041648Y014857D02*
X040224Y014857D01*
X040323Y014758D02*
X041648Y014758D01*
X041648Y014660D02*
X040413Y014660D01*
X040413Y014561D02*
X041648Y014561D01*
X041648Y014463D02*
X040413Y014463D01*
X040413Y014364D02*
X041648Y014364D01*
X041648Y014266D02*
X040413Y014266D01*
X040359Y014167D02*
X041648Y014167D01*
X041648Y014069D02*
X040260Y014069D01*
X040162Y013970D02*
X041648Y013970D01*
X041648Y013872D02*
X040209Y013872D01*
X040308Y013773D02*
X041648Y013773D01*
X041648Y013675D02*
X040406Y013675D01*
X040413Y013576D02*
X041648Y013576D01*
X041648Y013478D02*
X040413Y013478D01*
X040413Y013379D02*
X041648Y013379D01*
X041648Y013281D02*
X040413Y013281D01*
X040374Y013182D02*
X041648Y013182D01*
X041648Y013084D02*
X040275Y013084D01*
X040177Y012985D02*
X041648Y012985D01*
X041648Y012887D02*
X040194Y012887D01*
X040293Y012788D02*
X041648Y012788D01*
X041648Y012690D02*
X040391Y012690D01*
X040413Y012591D02*
X041648Y012591D01*
X041648Y012493D02*
X040413Y012493D01*
X040413Y012394D02*
X041648Y012394D01*
X041648Y012296D02*
X040413Y012296D01*
X040389Y012197D02*
X041648Y012197D01*
X041648Y012099D02*
X040290Y012099D01*
X040192Y012000D02*
X041648Y012000D01*
X041648Y011902D02*
X040179Y011902D01*
X040278Y011803D02*
X041648Y011803D01*
X041648Y011705D02*
X040376Y011705D01*
X040413Y011606D02*
X041648Y011606D01*
X041648Y011508D02*
X040413Y011508D01*
X040413Y011409D02*
X041648Y011409D01*
X041648Y011311D02*
X040413Y011311D01*
X040404Y011212D02*
X041648Y011212D01*
X041648Y011114D02*
X040305Y011114D01*
X040207Y011015D02*
X041648Y011015D01*
X041648Y010917D02*
X040164Y010917D01*
X040263Y010818D02*
X041648Y010818D01*
X041648Y010720D02*
X040361Y010720D01*
X040413Y010621D02*
X041648Y010621D01*
X041648Y010523D02*
X040413Y010523D01*
X040413Y010424D02*
X041648Y010424D01*
X041648Y010326D02*
X040413Y010326D01*
X040413Y010227D02*
X041648Y010227D01*
X041648Y010129D02*
X040320Y010129D01*
X040222Y010030D02*
X041648Y010030D01*
X041648Y009932D02*
X040123Y009932D01*
X040220Y009833D02*
X041648Y009833D01*
X041648Y009735D02*
X040305Y009735D01*
X040357Y009636D02*
X041648Y009636D01*
X041648Y009538D02*
X040384Y009538D01*
X040080Y008257D02*
X041648Y008257D01*
X041648Y008159D02*
X040318Y008159D01*
X040431Y008060D02*
X041648Y008060D01*
X041648Y007962D02*
X040529Y007962D01*
X040598Y007863D02*
X041648Y007863D01*
X041648Y007765D02*
X040638Y007765D01*
X040679Y007666D02*
X041648Y007666D01*
X041648Y007568D02*
X040703Y007568D01*
X040703Y007469D02*
X041648Y007469D01*
X041648Y007371D02*
X040703Y007371D01*
X040700Y007272D02*
X041648Y007272D01*
X041648Y007174D02*
X040659Y007174D01*
X040618Y007075D02*
X041648Y007075D01*
X041648Y006977D02*
X040577Y006977D01*
X040480Y006878D02*
X041648Y006878D01*
X041648Y006780D02*
X040381Y006780D01*
X040198Y006681D02*
X041648Y006681D01*
X038551Y012887D02*
X035916Y012887D01*
X035883Y012985D02*
X038569Y012985D01*
X038470Y013084D02*
X035824Y013084D01*
X035728Y013182D02*
X038372Y013182D01*
X035458Y013182D02*
X035358Y013182D01*
X035358Y013084D02*
X035458Y013084D01*
X035458Y012985D02*
X035358Y012985D01*
X032816Y014167D02*
X030623Y014167D01*
X030771Y014266D02*
X032693Y014266D01*
X032632Y014364D02*
X030838Y014364D01*
X030276Y014364D02*
X030216Y014364D01*
X030216Y014266D02*
X030276Y014266D01*
X030276Y014167D02*
X030216Y014167D01*
X030216Y014463D02*
X030276Y014463D01*
X030276Y014660D02*
X030216Y014660D01*
X030216Y014758D02*
X030276Y014758D01*
X030276Y014857D02*
X030216Y014857D01*
X029622Y014463D02*
X026332Y014463D01*
X026332Y014364D02*
X029653Y014364D01*
X029721Y014266D02*
X026301Y014266D01*
X026260Y014167D02*
X029868Y014167D01*
X025265Y014167D02*
X020382Y014167D01*
X020423Y014266D02*
X025224Y014266D01*
X025192Y014364D02*
X020447Y014364D01*
X020447Y014463D02*
X025192Y014463D01*
X025192Y014561D02*
X020442Y014561D01*
X020401Y014660D02*
X025230Y014660D01*
X023965Y014758D02*
X021537Y014758D01*
X021647Y014857D02*
X023855Y014857D01*
X023778Y014955D02*
X021724Y014955D01*
X020965Y014758D02*
X020360Y014758D01*
X020262Y014857D02*
X020855Y014857D01*
X020778Y014955D02*
X020112Y014955D01*
X020316Y014069D02*
X021527Y014069D01*
X021433Y013970D02*
X020217Y013970D01*
X022035Y014069D02*
X022467Y014069D01*
X022373Y013970D02*
X022129Y013970D01*
X022169Y013872D02*
X022332Y013872D01*
X022314Y013773D02*
X022187Y013773D01*
X022187Y013675D02*
X022314Y013675D01*
X022352Y013576D02*
X022150Y013576D01*
X022085Y013478D02*
X022416Y013478D01*
X022549Y013379D02*
X021952Y013379D01*
X022983Y015054D02*
X023737Y015054D01*
X023711Y015152D02*
X023081Y015152D01*
X023180Y015251D02*
X023711Y015251D01*
X023718Y015349D02*
X023278Y015349D01*
X023377Y015448D02*
X023759Y015448D01*
X023809Y015546D02*
X023475Y015546D01*
X023574Y015645D02*
X023907Y015645D01*
X024092Y015743D02*
X023672Y015743D01*
X021242Y016630D02*
X016961Y016630D01*
X016972Y016531D02*
X019957Y016531D01*
X019932Y016433D02*
X016972Y016433D01*
X016972Y016334D02*
X019932Y016334D01*
X019932Y016236D02*
X016972Y016236D01*
X016925Y016137D02*
X019932Y016137D01*
X019932Y016039D02*
X016826Y016039D01*
X016728Y015940D02*
X019981Y015940D01*
X021242Y016728D02*
X016862Y016728D01*
X018324Y018107D02*
X019958Y018107D01*
X020543Y018107D02*
X021242Y018107D01*
X021242Y018206D02*
X018444Y018206D01*
X018542Y018304D02*
X021242Y018304D01*
X021242Y018403D02*
X018641Y018403D01*
X018739Y018501D02*
X021277Y018501D01*
X021242Y018600D02*
X018838Y018600D01*
X018936Y018698D02*
X021242Y018698D01*
X021242Y018797D02*
X019035Y018797D01*
X019133Y018895D02*
X021242Y018895D01*
X021270Y018994D02*
X019232Y018994D01*
X019330Y019092D02*
X021242Y019092D01*
X021242Y019191D02*
X019429Y019191D01*
X019527Y019289D02*
X021242Y019289D01*
X021242Y019388D02*
X019626Y019388D01*
X019724Y019486D02*
X021262Y019486D01*
X020726Y020077D02*
X022886Y020077D01*
X022823Y020176D02*
X020789Y020176D01*
X020829Y020274D02*
X022782Y020274D01*
X022766Y020373D02*
X020846Y020373D01*
X020846Y020471D02*
X022766Y020471D01*
X022783Y020570D02*
X020829Y020570D01*
X020788Y020668D02*
X022824Y020668D01*
X022888Y020767D02*
X020724Y020767D01*
X020625Y020865D02*
X022986Y020865D01*
X022984Y019979D02*
X020627Y019979D01*
X019782Y020274D02*
X019611Y020274D01*
X019707Y020176D02*
X019512Y020176D01*
X019608Y020077D02*
X019414Y020077D01*
X019510Y019979D02*
X019315Y019979D01*
X019411Y019880D02*
X019217Y019880D01*
X019313Y019782D02*
X019118Y019782D01*
X019214Y019683D02*
X019020Y019683D01*
X019116Y019585D02*
X018921Y019585D01*
X019017Y019486D02*
X018823Y019486D01*
X018919Y019388D02*
X018724Y019388D01*
X018820Y019289D02*
X018626Y019289D01*
X018722Y019191D02*
X018527Y019191D01*
X019709Y020373D02*
X019766Y020373D01*
X019910Y022737D02*
X016854Y022737D01*
X016755Y022835D02*
X020006Y022835D01*
X017141Y025101D02*
X024824Y025101D01*
X024824Y025199D02*
X017184Y025199D01*
X017184Y025298D02*
X024824Y025298D01*
X024824Y025396D02*
X017184Y025396D01*
X017272Y025495D02*
X024824Y025495D01*
X024824Y025593D02*
X022863Y025593D01*
X022961Y025692D02*
X024824Y025692D01*
X024893Y025790D02*
X023060Y025790D01*
X023115Y025889D02*
X024991Y025889D01*
X024567Y025987D02*
X024415Y026139D01*
X024373Y026241D01*
X024330Y026139D01*
X024179Y025987D01*
X024277Y026086D02*
X024468Y026086D01*
X024396Y026184D02*
X024349Y026184D01*
X023567Y025987D02*
X023415Y026139D01*
X023373Y026241D01*
X023330Y026139D01*
X023179Y025987D01*
X023277Y026086D02*
X023468Y026086D01*
X023396Y026184D02*
X023349Y026184D01*
X028066Y023131D02*
X028081Y023131D01*
X028180Y023032D02*
X027596Y023032D01*
X027596Y022934D02*
X027496Y022934D01*
X027496Y023032D02*
X026596Y023032D01*
X026596Y022934D02*
X026496Y022934D01*
X026496Y022835D02*
X026596Y022835D01*
X026596Y022737D02*
X026496Y022737D01*
X026496Y022638D02*
X026596Y022638D01*
X026596Y022540D02*
X026496Y022540D01*
X026290Y022540D02*
X025830Y022540D01*
X025928Y022638D02*
X026192Y022638D01*
X026093Y022737D02*
X026027Y022737D01*
X025262Y022540D02*
X024830Y022540D01*
X024928Y022638D02*
X025164Y022638D01*
X025065Y022737D02*
X025027Y022737D01*
X024262Y022540D02*
X023830Y022540D01*
X023928Y022638D02*
X024164Y022638D01*
X024065Y022737D02*
X024027Y022737D01*
X026802Y022540D02*
X027290Y022540D01*
X027192Y022638D02*
X026900Y022638D01*
X026999Y022737D02*
X027093Y022737D01*
X027496Y022737D02*
X027596Y022737D01*
X027596Y022835D02*
X027496Y022835D01*
X027496Y022638D02*
X027596Y022638D01*
X027596Y022540D02*
X027496Y022540D01*
X028066Y022934D02*
X028278Y022934D01*
X024409Y018009D02*
X024216Y018009D01*
X024198Y018028D02*
X024198Y018028D01*
X023519Y017516D02*
X022004Y017516D01*
X021300Y017024D02*
X020609Y017024D01*
X028689Y010621D02*
X028692Y010621D01*
X028729Y010523D02*
X028591Y010523D01*
X028400Y007174D02*
X028345Y007174D01*
X028267Y007075D02*
X028479Y007075D01*
X028592Y006977D02*
X028154Y006977D01*
X025592Y006977D02*
X025154Y006977D01*
X025267Y007075D02*
X025479Y007075D01*
X025400Y007174D02*
X025345Y007174D01*
X023710Y007962D02*
X023036Y007962D01*
X023218Y007863D02*
X023527Y007863D01*
X023429Y007765D02*
X023316Y007765D01*
X023365Y007666D02*
X023380Y007666D01*
X010868Y026086D02*
X009477Y026086D01*
X009576Y026184D02*
X010796Y026184D01*
X010755Y026283D02*
X009674Y026283D01*
X009773Y026381D02*
X010733Y026381D01*
X010733Y026480D02*
X009871Y026480D01*
X009970Y026578D02*
X010744Y026578D01*
X010784Y026677D02*
X010068Y026677D01*
X010167Y026775D02*
X010840Y026775D01*
X010938Y026874D02*
X010265Y026874D01*
D22*
X015172Y022902D03*
X016825Y025402D03*
X024759Y018768D03*
X024759Y018276D03*
X024719Y017272D03*
X020251Y017272D03*
X020251Y017783D03*
X020290Y016248D03*
X031176Y023689D03*
D23*
X016448Y017402D02*
X016440Y017409D01*
X013302Y017409D01*
X006940Y011048D01*
X006940Y011039D01*
X009420Y011039D02*
X011085Y011039D01*
X016448Y016402D01*
M02*
