G75*
%MOIN*%
%OFA0B0*%
%FSLAX24Y24*%
%IPPOS*%
%LPD*%
%AMOC8*
5,1,8,0,0,1.08239X$1,22.5*
%
%ADD10C,0.0867*%
%ADD11R,0.0820X0.0820*%
%ADD12C,0.0820*%
%ADD13C,0.0050*%
%ADD14C,0.0560*%
%ADD15OC8,0.0820*%
%ADD16R,0.0552X0.0316*%
%ADD17C,0.1340*%
%ADD18C,0.0552*%
%ADD19OC8,0.0789*%
%ADD20R,0.0456X0.0456*%
D10*
X007846Y009070D02*
X008633Y009070D01*
X009420Y010645D02*
X009420Y011432D01*
X006940Y011432D02*
X006940Y010645D01*
D11*
X020192Y009732D03*
X023223Y009752D03*
X026235Y009752D03*
X029232Y009720D03*
X032318Y009693D03*
X035408Y009772D03*
X036014Y021929D03*
D12*
X036014Y022929D03*
X036014Y023929D03*
X035873Y026445D03*
X034873Y026445D03*
X033873Y026445D03*
X032873Y026445D03*
X031873Y026445D03*
X030873Y026445D03*
X029873Y026445D03*
X028873Y026445D03*
X026873Y026445D03*
X025873Y026445D03*
X024873Y026445D03*
X023873Y026445D03*
X022873Y026445D03*
X021873Y026445D03*
X020873Y026445D03*
X019873Y026445D03*
X018273Y026445D03*
X017273Y026445D03*
X016273Y026445D03*
X015273Y026445D03*
X014273Y026445D03*
X013273Y026445D03*
X012273Y026445D03*
X011273Y026445D03*
X013440Y025169D03*
X013440Y022169D03*
X020306Y020421D03*
X023306Y020421D03*
X024755Y020421D03*
X027755Y020421D03*
X024251Y015224D03*
X021251Y015224D03*
X020192Y011732D03*
X020192Y010732D03*
X023223Y010752D03*
X023223Y011752D03*
X026235Y011752D03*
X026235Y010752D03*
X029232Y010720D03*
X029232Y011720D03*
X032318Y011693D03*
X032318Y010693D03*
X035408Y010772D03*
X035408Y011772D03*
X035408Y012772D03*
X038873Y009445D03*
X039873Y009445D03*
X037873Y007445D03*
X036873Y007445D03*
X035873Y007445D03*
X034873Y007445D03*
X033873Y007445D03*
X032873Y007445D03*
X031873Y007445D03*
X030873Y007445D03*
X028873Y007445D03*
X027873Y007445D03*
X026873Y007445D03*
X025873Y007445D03*
X024873Y007445D03*
X023873Y007445D03*
X022873Y007445D03*
X021873Y007445D03*
X019873Y007445D03*
X018873Y007445D03*
X017873Y007445D03*
X016873Y007445D03*
X015873Y007445D03*
X014873Y007445D03*
X038873Y026445D03*
X039873Y026445D03*
D13*
X025899Y014562D02*
X025872Y014590D01*
X025839Y014611D01*
X025803Y014624D01*
X025764Y014629D01*
X025725Y014625D01*
X025687Y014612D01*
X025653Y014592D01*
X025625Y014564D01*
X025603Y014531D01*
X025590Y014494D01*
X025585Y014455D01*
X025590Y014415D01*
X025604Y014377D01*
X025626Y014344D01*
X025656Y014316D01*
X025690Y014295D01*
X025728Y014283D01*
X025768Y014280D01*
X025806Y014285D01*
X025842Y014298D01*
X025874Y014319D01*
X025901Y014347D01*
X025920Y014380D01*
X025932Y014416D01*
X025935Y014455D01*
X025932Y014493D01*
X025919Y014530D01*
X025899Y014562D01*
X025879Y014582D02*
X025644Y014582D01*
X025605Y014534D02*
X025916Y014534D01*
X025932Y014485D02*
X025589Y014485D01*
X025587Y014437D02*
X025934Y014437D01*
X025923Y014388D02*
X025600Y014388D01*
X025630Y014340D02*
X025894Y014340D01*
X025824Y014291D02*
X025703Y014291D01*
X025764Y013526D02*
X025803Y013522D01*
X025839Y013509D01*
X025872Y013488D01*
X025899Y013460D01*
X025919Y013428D01*
X025932Y013391D01*
X025935Y013353D01*
X025932Y013314D01*
X025920Y013278D01*
X025901Y013245D01*
X025874Y013217D01*
X025842Y013196D01*
X025806Y013183D01*
X025768Y013178D01*
X025728Y013181D01*
X025690Y013193D01*
X025656Y013214D01*
X025626Y013242D01*
X025604Y013275D01*
X025590Y013313D01*
X025585Y013353D01*
X025590Y013392D01*
X025603Y013429D01*
X025625Y013462D01*
X025653Y013490D01*
X025687Y013510D01*
X025725Y013523D01*
X025764Y013526D01*
X025821Y013515D02*
X025703Y013515D01*
X025630Y013467D02*
X025892Y013467D01*
X025922Y013418D02*
X025599Y013418D01*
X025587Y013370D02*
X025934Y013370D01*
X025933Y013321D02*
X025589Y013321D01*
X025606Y013273D02*
X025917Y013273D01*
X025881Y013224D02*
X025645Y013224D01*
X020050Y013333D02*
X020046Y013371D01*
X020033Y013408D01*
X020013Y013441D01*
X019986Y013468D01*
X019953Y013489D01*
X019917Y013502D01*
X019879Y013507D01*
X019839Y013503D01*
X019802Y013491D01*
X019768Y013470D01*
X019739Y013443D01*
X019718Y013409D01*
X019704Y013372D01*
X019699Y013333D01*
X019704Y013293D01*
X019718Y013255D01*
X019741Y013222D01*
X019770Y013194D01*
X019804Y013174D01*
X019843Y013161D01*
X019883Y013158D01*
X019921Y013163D01*
X019956Y013176D01*
X019988Y013198D01*
X020015Y013225D01*
X020034Y013258D01*
X020046Y013295D01*
X020050Y013333D01*
X020049Y013321D02*
X019700Y013321D01*
X019703Y013370D02*
X020046Y013370D01*
X020027Y013418D02*
X019723Y013418D01*
X019764Y013467D02*
X019987Y013467D01*
X020039Y013273D02*
X019712Y013273D01*
X019739Y013224D02*
X020014Y013224D01*
X019955Y013176D02*
X019801Y013176D01*
X019883Y014260D02*
X019843Y014263D01*
X019804Y014276D01*
X019770Y014296D01*
X019741Y014324D01*
X019718Y014357D01*
X019704Y014395D01*
X019699Y014435D01*
X019704Y014474D01*
X019718Y014511D01*
X019739Y014545D01*
X019768Y014572D01*
X019802Y014593D01*
X019839Y014605D01*
X019879Y014609D01*
X019917Y014604D01*
X019953Y014591D01*
X019986Y014570D01*
X020013Y014543D01*
X020033Y014510D01*
X020046Y014473D01*
X020050Y014435D01*
X020046Y014397D01*
X020034Y014360D01*
X020015Y014327D01*
X019988Y014300D01*
X019956Y014279D01*
X019921Y014265D01*
X019883Y014260D01*
X019976Y014291D02*
X019778Y014291D01*
X019730Y014340D02*
X020022Y014340D01*
X020044Y014388D02*
X019707Y014388D01*
X019699Y014437D02*
X020049Y014437D01*
X020042Y014485D02*
X019708Y014485D01*
X019732Y014534D02*
X020018Y014534D01*
X019967Y014582D02*
X019785Y014582D01*
X017846Y011915D02*
X017814Y011935D01*
X017778Y011948D01*
X017740Y011952D01*
X017736Y011952D01*
X017698Y011948D01*
X017661Y011936D01*
X017629Y011916D01*
X017601Y011889D01*
X017580Y011856D01*
X017567Y011820D01*
X017562Y011782D01*
X017561Y011770D01*
X017567Y011732D01*
X017581Y011697D01*
X017602Y011665D01*
X017630Y011639D01*
X017663Y011620D01*
X017699Y011609D01*
X017737Y011606D01*
X017735Y011606D01*
X017774Y011610D01*
X017810Y011623D01*
X017843Y011643D01*
X017871Y011670D01*
X017892Y011703D01*
X017905Y011740D01*
X017909Y011778D01*
X017910Y011783D01*
X017906Y011821D01*
X017893Y011857D01*
X017873Y011889D01*
X017846Y011915D01*
X017628Y011915D01*
X017587Y011866D02*
X017887Y011866D01*
X017906Y011818D02*
X017567Y011818D01*
X017561Y011769D02*
X017908Y011769D01*
X017898Y011721D02*
X017571Y011721D01*
X017597Y011672D02*
X017872Y011672D01*
X017812Y011624D02*
X017657Y011624D01*
X016127Y011781D02*
X016123Y011819D01*
X016110Y011855D01*
X016090Y011887D01*
X016063Y011913D01*
X016031Y011933D01*
X015995Y011946D01*
X015957Y011950D01*
X015953Y011950D01*
X015915Y011946D01*
X015878Y011934D01*
X015846Y011914D01*
X015818Y011887D01*
X015797Y011854D01*
X015784Y011818D01*
X016123Y011818D01*
X016127Y011781D02*
X016126Y011776D01*
X016122Y011738D01*
X016109Y011701D01*
X016088Y011668D01*
X016060Y011641D01*
X016027Y011621D01*
X015991Y011608D01*
X015952Y011604D01*
X015954Y011604D01*
X015916Y011607D01*
X015880Y011618D01*
X015847Y011637D01*
X015819Y011663D01*
X015798Y011695D01*
X015784Y011730D01*
X015778Y011768D01*
X015779Y011780D01*
X015784Y011818D01*
X015778Y011769D02*
X016125Y011769D01*
X016116Y011721D02*
X015787Y011721D01*
X015813Y011672D02*
X016090Y011672D01*
X016032Y011624D02*
X015870Y011624D01*
X015805Y011866D02*
X016103Y011866D01*
X016061Y011915D02*
X015847Y011915D01*
X015954Y009390D02*
X015916Y009386D01*
X015879Y009374D01*
X015846Y009354D01*
X015819Y009327D01*
X015798Y009294D01*
X015785Y009258D01*
X015780Y009220D01*
X015779Y009208D01*
X015785Y009170D01*
X015799Y009135D01*
X015820Y009103D01*
X015848Y009077D01*
X015881Y009058D01*
X015917Y009047D01*
X015955Y009044D01*
X015953Y009044D01*
X015992Y009048D01*
X016028Y009061D01*
X016061Y009081D01*
X016089Y009108D01*
X016110Y009141D01*
X016123Y009178D01*
X016127Y009216D01*
X016128Y009221D01*
X016124Y009259D01*
X016111Y009295D01*
X016091Y009327D01*
X016064Y009353D01*
X016032Y009373D01*
X015996Y009386D01*
X015958Y009390D01*
X015954Y009390D01*
X015837Y009344D02*
X016073Y009344D01*
X016110Y009296D02*
X015799Y009296D01*
X015784Y009247D02*
X016125Y009247D01*
X016125Y009199D02*
X015780Y009199D01*
X015793Y009150D02*
X016113Y009150D01*
X016082Y009102D02*
X015822Y009102D01*
X015897Y009053D02*
X016007Y009053D01*
X017560Y009208D02*
X017566Y009170D01*
X017580Y009135D01*
X017601Y009103D01*
X017629Y009077D01*
X017662Y009058D01*
X017698Y009047D01*
X017736Y009044D01*
X017734Y009044D01*
X017773Y009048D01*
X017809Y009061D01*
X017842Y009081D01*
X017870Y009108D01*
X017891Y009141D01*
X017904Y009178D01*
X017908Y009216D01*
X017909Y009221D01*
X017905Y009259D01*
X017892Y009295D01*
X017872Y009327D01*
X017845Y009353D01*
X017813Y009373D01*
X017777Y009386D01*
X017739Y009390D01*
X017735Y009390D01*
X017697Y009386D01*
X017660Y009374D01*
X017628Y009354D01*
X017600Y009327D01*
X017579Y009294D01*
X017566Y009258D01*
X017561Y009220D01*
X017560Y009208D01*
X017562Y009199D02*
X017906Y009199D01*
X017906Y009247D02*
X017565Y009247D01*
X017580Y009296D02*
X017891Y009296D01*
X017854Y009344D02*
X017618Y009344D01*
X017574Y009150D02*
X017894Y009150D01*
X017863Y009102D02*
X017603Y009102D01*
X017678Y009053D02*
X017788Y009053D01*
D14*
X030006Y014532D02*
X030486Y014532D01*
X030486Y015532D02*
X030006Y015532D01*
X030006Y016532D02*
X030486Y016532D01*
X030486Y017532D02*
X030006Y017532D01*
X029942Y019301D02*
X030422Y019301D01*
X030422Y020301D02*
X029942Y020301D01*
X029942Y021301D02*
X030422Y021301D01*
X030422Y022301D02*
X029942Y022301D01*
X032942Y022301D02*
X033422Y022301D01*
X033422Y021301D02*
X032942Y021301D01*
X032942Y020301D02*
X033422Y020301D01*
X033422Y019301D02*
X032942Y019301D01*
X033006Y017532D02*
X033486Y017532D01*
X033486Y016532D02*
X033006Y016532D01*
X033006Y015532D02*
X033486Y015532D01*
X033486Y014532D02*
X033006Y014532D01*
D15*
X038873Y014445D03*
X039873Y014445D03*
X039873Y013445D03*
X038873Y013445D03*
X038873Y012445D03*
X039873Y012445D03*
X039873Y011445D03*
X038873Y011445D03*
X038873Y010445D03*
X039873Y010445D03*
X039873Y015445D03*
X038873Y015445D03*
X038873Y016445D03*
X039873Y016445D03*
X039873Y017445D03*
X038873Y017445D03*
X038873Y018445D03*
X039873Y018445D03*
X039873Y019445D03*
X038873Y019445D03*
X038873Y020445D03*
X039873Y020445D03*
X039873Y021445D03*
X038873Y021445D03*
X038873Y022445D03*
X039873Y022445D03*
X039873Y023445D03*
X038873Y023445D03*
X038873Y024445D03*
X039873Y024445D03*
X039873Y025445D03*
X038873Y025445D03*
X027546Y024020D03*
X026546Y024020D03*
X025546Y024020D03*
X024546Y024020D03*
X023546Y024020D03*
X022546Y024020D03*
X021546Y024020D03*
X020546Y024020D03*
X020546Y023020D03*
X021546Y023020D03*
X022546Y023020D03*
X023546Y023020D03*
X024546Y023020D03*
X025546Y023020D03*
X026546Y023020D03*
X027546Y023020D03*
D16*
X023853Y019278D03*
X023853Y018778D03*
X023853Y018278D03*
X023853Y017778D03*
X023853Y017278D03*
X023853Y016778D03*
X023853Y016278D03*
X021648Y016278D03*
X021648Y016778D03*
X021648Y017278D03*
X021648Y017778D03*
X021648Y018278D03*
X021648Y018778D03*
X021648Y019278D03*
D17*
X007373Y007445D03*
X007873Y026445D03*
X037373Y026445D03*
X039873Y007445D03*
D18*
X027873Y016445D03*
X026873Y016445D03*
X026873Y017445D03*
X027873Y017445D03*
X027873Y018445D03*
X026873Y018445D03*
X023681Y013748D03*
X022720Y013748D03*
X021781Y013748D03*
D19*
X016448Y016402D03*
X016448Y017402D03*
X016448Y019402D03*
X016448Y020402D03*
X016448Y021402D03*
X016448Y022402D03*
X008448Y022402D03*
X008448Y023402D03*
X008448Y024402D03*
X008448Y021402D03*
X008448Y020402D03*
X008448Y019402D03*
X008448Y018402D03*
X008448Y017402D03*
X008448Y016402D03*
X008448Y015402D03*
D20*
X015172Y022902D03*
X016825Y025402D03*
X024759Y018768D03*
X024759Y018276D03*
X024719Y017272D03*
X020251Y017272D03*
X020251Y017783D03*
X020290Y016248D03*
X031176Y023689D03*
M02*
