G75*
%MOIN*%
%OFA0B0*%
%FSLAX24Y24*%
%IPPOS*%
%LPD*%
%AMOC8*
5,1,8,0,0,1.08239X$1,22.5*
%
%ADD10C,0.0030*%
%ADD11C,0.0010*%
%ADD12C,0.0060*%
%ADD13C,0.0020*%
%ADD14C,0.0100*%
%ADD15C,0.0080*%
%ADD16C,0.0070*%
%ADD17C,0.0050*%
%ADD18C,0.0120*%
D10*
X023413Y017938D02*
X023413Y018308D01*
X023598Y018308D01*
X023660Y018246D01*
X023660Y018123D01*
X023598Y018061D01*
X023413Y018061D01*
X023291Y018061D02*
X023291Y018246D01*
X023230Y018308D01*
X023168Y018246D01*
X023168Y018061D01*
X023045Y018061D02*
X023045Y018308D01*
X023106Y018308D01*
X023168Y018246D01*
X022923Y018246D02*
X022923Y018185D01*
X022676Y018185D01*
X022676Y018246D02*
X022676Y018123D01*
X022738Y018061D01*
X022861Y018061D01*
X022923Y018246D02*
X022861Y018308D01*
X022738Y018308D01*
X022676Y018246D01*
X022555Y018432D02*
X022308Y018432D01*
X022431Y018432D02*
X022431Y018061D01*
X020570Y018135D02*
X020570Y018320D01*
X020570Y018135D02*
X020508Y018073D01*
X020446Y018135D01*
X020384Y018073D01*
X020323Y018135D01*
X020323Y018320D01*
X020201Y018258D02*
X020139Y018320D01*
X020016Y018320D01*
X019954Y018258D01*
X019954Y018135D01*
X020016Y018073D01*
X020139Y018073D01*
X020201Y018135D01*
X020201Y018258D01*
X019832Y018073D02*
X019709Y018073D01*
X019770Y018073D02*
X019770Y018443D01*
X019709Y018443D01*
X019587Y018443D02*
X019340Y018443D01*
X019340Y018073D01*
X019340Y018258D02*
X019464Y018258D01*
X025257Y018406D02*
X025257Y018036D01*
X025504Y018036D01*
X025625Y018036D02*
X025749Y018036D01*
X025687Y018036D02*
X025687Y018282D01*
X025625Y018282D01*
X025687Y018406D02*
X025687Y018468D01*
X025932Y018282D02*
X025871Y018221D01*
X025871Y018097D01*
X025932Y018036D01*
X026118Y018036D01*
X026118Y017974D02*
X026118Y018282D01*
X025932Y018282D01*
X026239Y018221D02*
X026301Y018282D01*
X026424Y018282D01*
X026486Y018221D01*
X026486Y018036D01*
X026669Y018097D02*
X026731Y018036D01*
X026669Y018097D02*
X026669Y018344D01*
X026607Y018282D02*
X026731Y018282D01*
X026239Y018406D02*
X026239Y018036D01*
X026118Y017974D02*
X026056Y017912D01*
X025994Y017912D01*
X028179Y018073D02*
X028179Y018443D01*
X028364Y018443D01*
X028426Y018382D01*
X028426Y018258D01*
X028364Y018196D01*
X028179Y018196D01*
X028547Y018135D02*
X028609Y018073D01*
X028794Y018073D01*
X028794Y018320D01*
X028916Y018320D02*
X028977Y018320D01*
X029039Y018258D01*
X029101Y018320D01*
X029163Y018258D01*
X029163Y018073D01*
X029284Y018073D02*
X029469Y018073D01*
X029531Y018135D01*
X029531Y018258D01*
X029469Y018320D01*
X029284Y018320D01*
X029284Y017950D01*
X029039Y018073D02*
X029039Y018258D01*
X028916Y018320D02*
X028916Y018073D01*
X028547Y018135D02*
X028547Y018320D01*
X031329Y018443D02*
X031329Y018073D01*
X031329Y018196D02*
X031514Y018196D01*
X031576Y018258D01*
X031576Y018382D01*
X031514Y018443D01*
X031329Y018443D01*
X031452Y018196D02*
X031576Y018073D01*
X031697Y018135D02*
X031697Y018258D01*
X031759Y018320D01*
X031882Y018320D01*
X031944Y018258D01*
X031944Y018196D01*
X031697Y018196D01*
X031697Y018135D02*
X031759Y018073D01*
X031882Y018073D01*
X032065Y018073D02*
X032189Y018073D01*
X032127Y018073D02*
X032127Y018443D01*
X032065Y018443D01*
X032373Y018320D02*
X032496Y018320D01*
X032558Y018258D01*
X032558Y018073D01*
X032373Y018073D01*
X032311Y018135D01*
X032373Y018196D01*
X032558Y018196D01*
X032679Y018135D02*
X032741Y018073D01*
X032926Y018073D01*
X032926Y018011D02*
X032864Y017950D01*
X032803Y017950D01*
X032926Y018011D02*
X032926Y018320D01*
X032679Y018320D02*
X032679Y018135D01*
X032121Y013719D02*
X032121Y013349D01*
X032121Y013534D02*
X031874Y013534D01*
X031753Y013534D02*
X031691Y013595D01*
X031506Y013595D01*
X031506Y013225D01*
X031506Y013349D02*
X031691Y013349D01*
X031753Y013410D01*
X031753Y013534D01*
X031874Y013349D02*
X031874Y013719D01*
D11*
X029194Y014543D02*
X029044Y014543D01*
X029044Y014618D01*
X029069Y014643D01*
X029119Y014643D01*
X029144Y014618D01*
X029144Y014543D01*
X029144Y014593D02*
X029194Y014643D01*
X029194Y014691D02*
X029094Y014791D01*
X029069Y014791D01*
X029044Y014766D01*
X029044Y014716D01*
X029069Y014691D01*
X029194Y014691D02*
X029194Y014791D01*
X022864Y011567D02*
X022789Y011492D01*
X022889Y011492D01*
X022864Y011417D02*
X022864Y011567D01*
X022742Y011542D02*
X022742Y011492D01*
X022717Y011467D01*
X022641Y011467D01*
X022641Y011417D02*
X022641Y011567D01*
X022717Y011567D01*
X022742Y011542D01*
X022692Y011467D02*
X022742Y011417D01*
X028658Y010388D02*
X028733Y010388D01*
X028758Y010363D01*
X028758Y010313D01*
X028733Y010288D01*
X028658Y010288D01*
X028708Y010288D02*
X028758Y010238D01*
X028805Y010238D02*
X028905Y010238D01*
X028855Y010238D02*
X028855Y010388D01*
X028805Y010338D01*
X028658Y010388D02*
X028658Y010238D01*
X033090Y019264D02*
X033090Y019414D01*
X033090Y019339D02*
X033190Y019339D01*
X033238Y019339D02*
X033263Y019364D01*
X033313Y019364D01*
X033338Y019339D01*
X033338Y019314D01*
X033238Y019314D01*
X033238Y019289D02*
X033238Y019339D01*
X033238Y019289D02*
X033263Y019264D01*
X033313Y019264D01*
X033385Y019289D02*
X033410Y019314D01*
X033485Y019314D01*
X033485Y019339D02*
X033485Y019264D01*
X033410Y019264D01*
X033385Y019289D01*
X033410Y019364D02*
X033460Y019364D01*
X033485Y019339D01*
X033532Y019364D02*
X033582Y019364D01*
X033557Y019389D02*
X033557Y019289D01*
X033582Y019264D01*
X033630Y019289D02*
X033630Y019339D01*
X033656Y019364D01*
X033706Y019364D01*
X033731Y019339D01*
X033731Y019314D01*
X033630Y019314D01*
X033630Y019289D02*
X033656Y019264D01*
X033706Y019264D01*
X033778Y019264D02*
X033778Y019364D01*
X033828Y019364D02*
X033853Y019364D01*
X033828Y019364D02*
X033778Y019314D01*
X033190Y019264D02*
X033190Y019414D01*
X033263Y020248D02*
X033338Y020248D01*
X033338Y020348D01*
X033385Y020348D02*
X033410Y020348D01*
X033435Y020323D01*
X033460Y020348D01*
X033485Y020323D01*
X033485Y020248D01*
X033532Y020248D02*
X033607Y020248D01*
X033632Y020273D01*
X033632Y020323D01*
X033607Y020348D01*
X033532Y020348D01*
X033532Y020198D01*
X033435Y020248D02*
X033435Y020323D01*
X033385Y020348D02*
X033385Y020248D01*
X033263Y020248D02*
X033238Y020273D01*
X033238Y020348D01*
X033190Y020323D02*
X033165Y020298D01*
X033090Y020298D01*
X033090Y020248D02*
X033090Y020398D01*
X033165Y020398D01*
X033190Y020373D01*
X033190Y020323D01*
X033257Y021232D02*
X033282Y021232D01*
X033282Y021257D01*
X033257Y021257D01*
X033257Y021232D01*
X033331Y021232D02*
X033331Y021382D01*
X033406Y021382D01*
X033431Y021357D01*
X033431Y021307D01*
X033406Y021282D01*
X033331Y021282D01*
X033210Y021307D02*
X033185Y021282D01*
X033110Y021282D01*
X033110Y021232D02*
X033110Y021382D01*
X033185Y021382D01*
X033210Y021357D01*
X033210Y021307D01*
X033478Y021332D02*
X033478Y021257D01*
X033503Y021232D01*
X033578Y021232D01*
X033578Y021332D01*
X033626Y021332D02*
X033651Y021332D01*
X033676Y021307D01*
X033701Y021332D01*
X033726Y021307D01*
X033726Y021232D01*
X033773Y021232D02*
X033848Y021232D01*
X033873Y021257D01*
X033873Y021307D01*
X033848Y021332D01*
X033773Y021332D01*
X033773Y021182D01*
X033676Y021232D02*
X033676Y021307D01*
X033626Y021332D02*
X033626Y021232D01*
X014095Y021255D02*
X014095Y021204D01*
X014070Y021179D01*
X014095Y021132D02*
X014045Y021082D01*
X014045Y021107D02*
X014045Y021032D01*
X014095Y021032D02*
X013945Y021032D01*
X013945Y021107D01*
X013970Y021132D01*
X014020Y021132D01*
X014045Y021107D01*
X013970Y021179D02*
X013945Y021204D01*
X013945Y021255D01*
X013970Y021280D01*
X013995Y021280D01*
X014020Y021255D01*
X014045Y021280D01*
X014070Y021280D01*
X014095Y021255D01*
X014020Y021255D02*
X014020Y021230D01*
D12*
X013660Y021010D02*
X013489Y020840D01*
X013546Y020783D02*
X013319Y021010D01*
X013319Y020783D02*
X013660Y020783D01*
X013376Y020642D02*
X013603Y020415D01*
X013660Y020415D01*
X013660Y020288D02*
X013660Y020231D01*
X013603Y020231D01*
X013603Y020288D01*
X013660Y020288D01*
X013660Y020033D02*
X013319Y020033D01*
X013489Y019863D01*
X013489Y020090D01*
X013319Y020415D02*
X013319Y020642D01*
X013376Y020642D01*
X012293Y020692D02*
X012032Y020692D01*
X012032Y020822D01*
X012076Y020866D01*
X012163Y020866D01*
X012206Y020822D01*
X012206Y020692D01*
X012206Y020779D02*
X012293Y020866D01*
X012293Y021282D02*
X012293Y021368D01*
X012293Y021325D02*
X012032Y021325D01*
X012032Y021282D02*
X012032Y021368D01*
X012032Y021478D02*
X012293Y021652D01*
X012032Y021652D01*
X012032Y021478D02*
X012293Y021478D01*
X012293Y020571D02*
X012032Y020571D01*
X012032Y020398D02*
X012293Y020398D01*
X012206Y020484D01*
X012293Y020571D01*
X012163Y020276D02*
X012206Y020233D01*
X012206Y020103D01*
X012293Y020103D02*
X012032Y020103D01*
X012032Y020233D01*
X012076Y020276D01*
X012163Y020276D01*
X010643Y020298D02*
X010382Y020298D01*
X010643Y020471D01*
X010382Y020471D01*
X010382Y020592D02*
X010382Y020722D01*
X010426Y020766D01*
X010599Y020766D01*
X010643Y020722D01*
X010643Y020592D01*
X010382Y020592D01*
X010426Y020176D02*
X010382Y020133D01*
X010382Y020046D01*
X010426Y020003D01*
X010599Y020003D01*
X010643Y020046D01*
X010643Y020133D01*
X010599Y020176D01*
X010513Y020176D01*
X010513Y020090D01*
X010643Y021203D02*
X010382Y021203D01*
X010469Y021290D01*
X010382Y021376D01*
X010643Y021376D01*
X010513Y021498D02*
X010513Y021671D01*
X010599Y021584D02*
X010426Y021584D01*
X005227Y021375D02*
X004800Y021375D01*
X005013Y021375D02*
X005013Y022015D01*
X004800Y021802D01*
X004582Y022015D02*
X004155Y021375D01*
X004582Y021375D02*
X004155Y022015D01*
X010382Y017722D02*
X010382Y017636D01*
X010426Y017592D01*
X010426Y017471D02*
X010382Y017428D01*
X010382Y017341D01*
X010426Y017298D01*
X010469Y017298D01*
X010513Y017341D01*
X010513Y017428D01*
X010556Y017471D01*
X010599Y017471D01*
X010643Y017428D01*
X010643Y017341D01*
X010599Y017298D01*
X010643Y017176D02*
X010382Y017176D01*
X010469Y017090D01*
X010382Y017003D01*
X010643Y017003D01*
X010643Y016750D02*
X010643Y016576D01*
X010382Y016576D01*
X010382Y016750D01*
X010513Y016663D02*
X010513Y016576D01*
X010643Y016455D02*
X010643Y016282D01*
X010382Y016282D01*
X010426Y016160D02*
X010469Y016160D01*
X010513Y016117D01*
X010513Y015987D01*
X010513Y015866D02*
X010513Y015692D01*
X010469Y015692D02*
X010382Y015779D01*
X010469Y015866D01*
X010643Y015866D01*
X010643Y015987D02*
X010643Y016117D01*
X010599Y016160D01*
X010556Y016160D01*
X010513Y016117D01*
X010426Y016160D02*
X010382Y016117D01*
X010382Y015987D01*
X010643Y015987D01*
X010643Y015692D02*
X010469Y015692D01*
X010382Y015571D02*
X010643Y015571D01*
X010382Y015398D01*
X010643Y015398D01*
X010643Y015276D02*
X010643Y015103D01*
X010382Y015103D01*
X010382Y015276D01*
X010513Y015190D02*
X010513Y015103D01*
X010382Y012766D02*
X010382Y012592D01*
X010382Y012679D02*
X010643Y012679D01*
X010599Y012471D02*
X010643Y012428D01*
X010643Y012341D01*
X010599Y012298D01*
X010513Y012341D02*
X010513Y012428D01*
X010556Y012471D01*
X010599Y012471D01*
X010513Y012341D02*
X010469Y012298D01*
X010426Y012298D01*
X010382Y012341D01*
X010382Y012428D01*
X010426Y012471D01*
X010426Y012176D02*
X010513Y012176D01*
X010556Y012133D01*
X010556Y012003D01*
X010643Y012003D02*
X010382Y012003D01*
X010382Y012133D01*
X010426Y012176D01*
X010556Y012090D02*
X010643Y012176D01*
X010599Y011766D02*
X010426Y011766D01*
X010382Y011722D01*
X010382Y011592D01*
X010643Y011592D01*
X010643Y011722D01*
X010599Y011766D01*
X010382Y011471D02*
X010382Y011298D01*
X010643Y011298D01*
X010513Y011298D02*
X010513Y011384D01*
X010513Y011176D02*
X010556Y011133D01*
X010556Y011003D01*
X010643Y011003D02*
X010382Y011003D01*
X010382Y011133D01*
X010426Y011176D01*
X010513Y011176D01*
X010556Y008976D02*
X010599Y008976D01*
X010643Y008933D01*
X010643Y008803D01*
X010382Y008803D01*
X010382Y008933D01*
X010426Y008976D01*
X010469Y008976D01*
X010513Y008933D01*
X010513Y008803D01*
X010513Y008933D02*
X010556Y008976D01*
X009959Y007843D02*
X009532Y007843D01*
X009746Y007843D02*
X009746Y007202D01*
X009315Y007202D02*
X008888Y007202D01*
X008888Y007843D01*
X009315Y007843D01*
X009101Y007522D02*
X008888Y007522D01*
X008670Y007416D02*
X008670Y007309D01*
X008563Y007202D01*
X008350Y007202D01*
X008243Y007309D01*
X008350Y007522D02*
X008563Y007522D01*
X008670Y007416D01*
X008670Y007736D02*
X008563Y007843D01*
X008350Y007843D01*
X008243Y007736D01*
X008243Y007629D01*
X008350Y007522D01*
X008025Y007843D02*
X007598Y007843D01*
X007598Y007202D01*
X008025Y007202D01*
X007381Y007202D02*
X007167Y007416D01*
X007274Y007416D02*
X006954Y007416D01*
X006954Y007202D02*
X006954Y007843D01*
X007274Y007843D01*
X007381Y007736D01*
X007381Y007522D01*
X007274Y007416D01*
X007598Y007522D02*
X007812Y007522D01*
X010382Y006890D02*
X010469Y006976D01*
X010643Y006976D01*
X010513Y006976D02*
X010513Y006803D01*
X010469Y006803D02*
X010382Y006890D01*
X010469Y006803D02*
X010643Y006803D01*
X017682Y006722D02*
X017682Y006592D01*
X017943Y006592D01*
X017943Y006722D01*
X017899Y006766D01*
X017726Y006766D01*
X017682Y006722D01*
X017682Y006471D02*
X017943Y006471D01*
X017682Y006298D01*
X017943Y006298D01*
X017899Y006176D02*
X017813Y006176D01*
X017813Y006090D01*
X017899Y006176D02*
X017943Y006133D01*
X017943Y006046D01*
X017899Y006003D01*
X017726Y006003D01*
X017682Y006046D01*
X017682Y006133D01*
X017726Y006176D01*
X017813Y006953D02*
X017813Y007126D01*
X017813Y007248D02*
X017769Y007334D01*
X017769Y007378D01*
X017813Y007421D01*
X017899Y007421D01*
X017943Y007378D01*
X017943Y007291D01*
X017899Y007248D01*
X017813Y007248D02*
X017682Y007248D01*
X017682Y007421D01*
X017682Y007542D02*
X017856Y007542D01*
X017943Y007629D01*
X017856Y007716D01*
X017682Y007716D01*
X017726Y007040D02*
X017899Y007040D01*
X019300Y007231D02*
X019302Y007281D01*
X019308Y007331D01*
X019318Y007381D01*
X019331Y007429D01*
X019348Y007477D01*
X019369Y007523D01*
X019393Y007567D01*
X019421Y007609D01*
X019452Y007649D01*
X019486Y007686D01*
X019523Y007721D01*
X019562Y007752D01*
X019603Y007781D01*
X019647Y007806D01*
X019693Y007828D01*
X019740Y007846D01*
X019788Y007860D01*
X019837Y007871D01*
X019887Y007878D01*
X019937Y007881D01*
X019988Y007880D01*
X020038Y007875D01*
X020088Y007866D01*
X020136Y007854D01*
X020184Y007837D01*
X020230Y007817D01*
X020275Y007794D01*
X020318Y007767D01*
X020358Y007737D01*
X020396Y007704D01*
X020431Y007668D01*
X020464Y007629D01*
X020493Y007588D01*
X020519Y007545D01*
X020542Y007500D01*
X020561Y007453D01*
X020576Y007405D01*
X020588Y007356D01*
X020596Y007306D01*
X020600Y007256D01*
X020600Y007206D01*
X020596Y007156D01*
X020588Y007106D01*
X020576Y007057D01*
X020561Y007009D01*
X020542Y006962D01*
X020519Y006917D01*
X020493Y006874D01*
X020464Y006833D01*
X020431Y006794D01*
X020396Y006758D01*
X020358Y006725D01*
X020318Y006695D01*
X020275Y006668D01*
X020230Y006645D01*
X020184Y006625D01*
X020136Y006608D01*
X020088Y006596D01*
X020038Y006587D01*
X019988Y006582D01*
X019937Y006581D01*
X019887Y006584D01*
X019837Y006591D01*
X019788Y006602D01*
X019740Y006616D01*
X019693Y006634D01*
X019647Y006656D01*
X019603Y006681D01*
X019562Y006710D01*
X019523Y006741D01*
X019486Y006776D01*
X019452Y006813D01*
X019421Y006853D01*
X019393Y006895D01*
X019369Y006939D01*
X019348Y006985D01*
X019331Y007033D01*
X019318Y007081D01*
X019308Y007131D01*
X019302Y007181D01*
X019300Y007231D01*
X021590Y008151D02*
X021900Y006071D01*
X021897Y006078D02*
X021910Y006036D01*
X021926Y005995D01*
X021945Y005956D01*
X021968Y005919D01*
X021993Y005884D01*
X022021Y005851D01*
X022052Y005820D01*
X022086Y005792D01*
X022121Y005767D01*
X022159Y005744D01*
X022198Y005725D01*
X022239Y005709D01*
X022281Y005697D01*
X022323Y005688D01*
X022366Y005683D01*
X022410Y005681D01*
X030610Y005681D01*
X030654Y005683D01*
X030698Y005688D01*
X030741Y005698D01*
X030784Y005710D01*
X030825Y005727D01*
X030864Y005746D01*
X030902Y005769D01*
X030938Y005795D01*
X030972Y005824D01*
X031003Y005855D01*
X031031Y005889D01*
X031056Y005925D01*
X031079Y005963D01*
X031098Y006003D01*
X031113Y006045D01*
X031125Y006087D01*
X031120Y006081D02*
X031430Y008141D01*
X031428Y008138D02*
X031436Y008182D01*
X031439Y008227D01*
X031440Y008272D01*
X031436Y008317D01*
X031428Y008362D01*
X031417Y008405D01*
X031402Y008448D01*
X031384Y008489D01*
X031362Y008528D01*
X031337Y008566D01*
X031308Y008601D01*
X031277Y008633D01*
X031243Y008663D01*
X031207Y008690D01*
X031169Y008714D01*
X031129Y008734D01*
X031087Y008751D01*
X031044Y008764D01*
X031000Y008773D01*
X030955Y008779D01*
X030910Y008781D01*
X022110Y008781D01*
X022065Y008779D01*
X022021Y008774D01*
X021978Y008764D01*
X021935Y008751D01*
X021893Y008735D01*
X021853Y008715D01*
X021815Y008692D01*
X021779Y008665D01*
X021746Y008636D01*
X021715Y008604D01*
X021686Y008569D01*
X021661Y008533D01*
X021639Y008494D01*
X021620Y008453D01*
X021605Y008412D01*
X021593Y008369D01*
X021585Y008325D01*
X021581Y008280D01*
X021580Y008236D01*
X021583Y008191D01*
X021590Y008147D01*
X020860Y009631D02*
X019860Y009631D01*
X019860Y009681D01*
X020860Y009681D01*
X020860Y009631D01*
X020860Y009681D02*
X032160Y009681D01*
X033160Y009681D01*
X033160Y009631D01*
X032160Y009631D01*
X032160Y009681D01*
X033160Y009681D02*
X034010Y009681D01*
X034040Y009679D01*
X034070Y009674D01*
X034099Y009665D01*
X034126Y009652D01*
X034152Y009637D01*
X034176Y009618D01*
X034197Y009597D01*
X034216Y009573D01*
X034231Y009547D01*
X034244Y009520D01*
X034253Y009491D01*
X034258Y009461D01*
X034260Y009431D01*
X034260Y005031D01*
X034258Y005001D01*
X034253Y004971D01*
X034244Y004942D01*
X034231Y004915D01*
X034216Y004889D01*
X034197Y004865D01*
X034176Y004844D01*
X034152Y004825D01*
X034126Y004810D01*
X034099Y004797D01*
X034070Y004788D01*
X034040Y004783D01*
X034010Y004781D01*
X033160Y004781D01*
X033160Y004831D01*
X032160Y004831D01*
X032160Y004781D01*
X033160Y004781D01*
X032160Y004781D02*
X020860Y004781D01*
X020860Y004831D01*
X019860Y004831D01*
X019860Y004781D01*
X019010Y004781D01*
X018980Y004783D01*
X018950Y004788D01*
X018921Y004797D01*
X018894Y004810D01*
X018868Y004825D01*
X018844Y004844D01*
X018823Y004865D01*
X018804Y004889D01*
X018789Y004915D01*
X018776Y004942D01*
X018767Y004971D01*
X018762Y005001D01*
X018760Y005031D01*
X018760Y009431D01*
X018762Y009461D01*
X018767Y009491D01*
X018776Y009520D01*
X018789Y009547D01*
X018804Y009573D01*
X018823Y009597D01*
X018844Y009618D01*
X018868Y009637D01*
X018894Y009652D01*
X018921Y009665D01*
X018950Y009674D01*
X018980Y009679D01*
X019010Y009681D01*
X019860Y009681D01*
X017943Y011046D02*
X017899Y011003D01*
X017943Y011046D02*
X017943Y011133D01*
X017899Y011176D01*
X017856Y011176D01*
X017813Y011133D01*
X017813Y011046D01*
X017769Y011003D01*
X017726Y011003D01*
X017682Y011046D01*
X017682Y011133D01*
X017726Y011176D01*
X017682Y011298D02*
X017943Y011298D01*
X017943Y011471D01*
X017943Y011592D02*
X017682Y011592D01*
X017682Y011722D01*
X017726Y011766D01*
X017813Y011766D01*
X017856Y011722D01*
X017856Y011592D01*
X017943Y012003D02*
X017682Y012003D01*
X017769Y012090D01*
X017682Y012176D01*
X017943Y012176D01*
X017899Y012298D02*
X017943Y012341D01*
X017943Y012428D01*
X017899Y012471D01*
X017856Y012471D01*
X017813Y012428D01*
X017813Y012341D01*
X017769Y012298D01*
X017726Y012298D01*
X017682Y012341D01*
X017682Y012428D01*
X017726Y012471D01*
X017769Y012592D02*
X017682Y012679D01*
X017943Y012679D01*
X017943Y012592D02*
X017943Y012766D01*
X019583Y014571D02*
X019583Y015321D01*
X019622Y015323D01*
X019661Y015329D01*
X019699Y015338D01*
X019736Y015351D01*
X019772Y015368D01*
X019805Y015388D01*
X019837Y015412D01*
X019866Y015438D01*
X019892Y015467D01*
X019916Y015499D01*
X019936Y015532D01*
X019953Y015568D01*
X019966Y015605D01*
X019975Y015643D01*
X019981Y015682D01*
X019983Y015721D01*
X019981Y015760D01*
X019975Y015799D01*
X019966Y015837D01*
X019953Y015874D01*
X019936Y015910D01*
X019916Y015943D01*
X019892Y015975D01*
X019866Y016004D01*
X019837Y016030D01*
X019805Y016054D01*
X019772Y016074D01*
X019736Y016091D01*
X019699Y016104D01*
X019661Y016113D01*
X019622Y016119D01*
X019583Y016121D01*
X019583Y016871D01*
X023583Y016871D01*
X023583Y014571D01*
X019583Y014571D01*
X024525Y014366D02*
X024525Y015116D01*
X024564Y015118D01*
X024603Y015124D01*
X024641Y015133D01*
X024678Y015146D01*
X024714Y015163D01*
X024747Y015183D01*
X024779Y015207D01*
X024808Y015233D01*
X024834Y015262D01*
X024858Y015294D01*
X024878Y015327D01*
X024895Y015363D01*
X024908Y015400D01*
X024917Y015438D01*
X024923Y015477D01*
X024925Y015516D01*
X024923Y015555D01*
X024917Y015594D01*
X024908Y015632D01*
X024895Y015669D01*
X024878Y015705D01*
X024858Y015738D01*
X024834Y015770D01*
X024808Y015799D01*
X024779Y015825D01*
X024747Y015849D01*
X024714Y015869D01*
X024678Y015886D01*
X024641Y015899D01*
X024603Y015908D01*
X024564Y015914D01*
X024525Y015916D01*
X024525Y016666D01*
X028525Y016666D01*
X028525Y014366D01*
X024525Y014366D01*
X029479Y014882D02*
X029819Y014882D01*
X029819Y014995D02*
X029819Y014768D01*
X029593Y014768D02*
X029479Y014882D01*
X029536Y015137D02*
X029479Y015193D01*
X029479Y015307D01*
X029536Y015364D01*
X029763Y015137D01*
X029819Y015193D01*
X029819Y015307D01*
X029763Y015364D01*
X029536Y015364D01*
X029479Y015505D02*
X029819Y015505D01*
X029706Y015505D02*
X029593Y015675D01*
X029706Y015505D02*
X029819Y015675D01*
X029763Y015137D02*
X029536Y015137D01*
X034507Y015304D02*
X034507Y014804D01*
X034757Y014554D01*
X036257Y014554D01*
X036507Y014304D01*
X036507Y013804D01*
X036257Y013554D01*
X034757Y013554D01*
X034507Y013804D01*
X034507Y014304D01*
X034757Y014554D01*
X034507Y015304D02*
X034757Y015554D01*
X036257Y015554D01*
X036507Y015804D01*
X036507Y016304D01*
X036257Y016554D01*
X034757Y016554D01*
X034507Y016804D01*
X034507Y017304D01*
X034757Y017554D01*
X036257Y017554D01*
X036507Y017804D01*
X036507Y018304D01*
X036257Y018554D01*
X034757Y018554D01*
X034507Y018804D01*
X034507Y019304D01*
X034757Y019554D01*
X036257Y019554D01*
X036507Y019804D01*
X036507Y020304D01*
X036257Y020554D01*
X034757Y020554D01*
X034507Y020804D01*
X034507Y021304D01*
X034757Y021554D01*
X036257Y021554D01*
X036507Y021304D01*
X036507Y020804D01*
X036257Y020554D01*
X036257Y019554D02*
X036507Y019304D01*
X036507Y018804D01*
X036257Y018554D01*
X036257Y017554D02*
X036507Y017304D01*
X036507Y016804D01*
X036257Y016554D01*
X036257Y015554D02*
X036507Y015304D01*
X036507Y014804D01*
X036257Y014554D01*
X036257Y013554D02*
X036507Y013304D01*
X036507Y012804D01*
X036257Y012554D01*
X034757Y012554D01*
X034507Y012804D01*
X034507Y013304D01*
X034757Y013554D01*
X034757Y012554D02*
X034507Y012304D01*
X034507Y011804D01*
X034757Y011554D01*
X036257Y011554D01*
X036507Y011804D01*
X036507Y012304D01*
X036257Y012554D01*
X036257Y011554D02*
X036507Y011304D01*
X036507Y010804D01*
X036257Y010554D01*
X034757Y010554D01*
X034507Y010804D01*
X034507Y011304D01*
X034757Y011554D01*
X034757Y010554D02*
X034507Y010304D01*
X034507Y009804D01*
X034757Y009554D01*
X036257Y009554D01*
X036507Y009804D01*
X036507Y010304D01*
X036257Y010554D01*
X036257Y009554D02*
X036507Y009304D01*
X036507Y008804D01*
X036257Y008554D01*
X034757Y008554D01*
X034507Y008804D01*
X034507Y009304D01*
X034757Y009554D01*
X034757Y008554D02*
X034507Y008304D01*
X034507Y007804D01*
X034757Y007554D01*
X036257Y007554D01*
X036507Y007804D01*
X036507Y008304D01*
X036257Y008554D01*
X036257Y007554D02*
X036507Y007304D01*
X036507Y006804D01*
X036257Y006554D01*
X034757Y006554D02*
X034507Y006804D01*
X034507Y007304D01*
X034757Y007554D01*
X032420Y007231D02*
X032422Y007281D01*
X032428Y007331D01*
X032438Y007381D01*
X032451Y007429D01*
X032468Y007477D01*
X032489Y007523D01*
X032513Y007567D01*
X032541Y007609D01*
X032572Y007649D01*
X032606Y007686D01*
X032643Y007721D01*
X032682Y007752D01*
X032723Y007781D01*
X032767Y007806D01*
X032813Y007828D01*
X032860Y007846D01*
X032908Y007860D01*
X032957Y007871D01*
X033007Y007878D01*
X033057Y007881D01*
X033108Y007880D01*
X033158Y007875D01*
X033208Y007866D01*
X033256Y007854D01*
X033304Y007837D01*
X033350Y007817D01*
X033395Y007794D01*
X033438Y007767D01*
X033478Y007737D01*
X033516Y007704D01*
X033551Y007668D01*
X033584Y007629D01*
X033613Y007588D01*
X033639Y007545D01*
X033662Y007500D01*
X033681Y007453D01*
X033696Y007405D01*
X033708Y007356D01*
X033716Y007306D01*
X033720Y007256D01*
X033720Y007206D01*
X033716Y007156D01*
X033708Y007106D01*
X033696Y007057D01*
X033681Y007009D01*
X033662Y006962D01*
X033639Y006917D01*
X033613Y006874D01*
X033584Y006833D01*
X033551Y006794D01*
X033516Y006758D01*
X033478Y006725D01*
X033438Y006695D01*
X033395Y006668D01*
X033350Y006645D01*
X033304Y006625D01*
X033256Y006608D01*
X033208Y006596D01*
X033158Y006587D01*
X033108Y006582D01*
X033057Y006581D01*
X033007Y006584D01*
X032957Y006591D01*
X032908Y006602D01*
X032860Y006616D01*
X032813Y006634D01*
X032767Y006656D01*
X032723Y006681D01*
X032682Y006710D01*
X032643Y006741D01*
X032606Y006776D01*
X032572Y006813D01*
X032541Y006853D01*
X032513Y006895D01*
X032489Y006939D01*
X032468Y006985D01*
X032451Y007033D01*
X032438Y007081D01*
X032428Y007131D01*
X032422Y007181D01*
X032420Y007231D01*
X028636Y010729D02*
X028579Y010673D01*
X028466Y010673D01*
X028409Y010729D01*
X028636Y010956D01*
X028636Y010729D01*
X028409Y010729D02*
X028409Y010956D01*
X028466Y011013D01*
X028579Y011013D01*
X028636Y010956D01*
X028268Y011013D02*
X028041Y011013D01*
X028041Y010843D01*
X028154Y010900D01*
X028211Y010900D01*
X028268Y010843D01*
X028268Y010729D01*
X028211Y010673D01*
X028098Y010673D01*
X028041Y010729D01*
X023462Y010849D02*
X023405Y010792D01*
X023292Y010792D01*
X023235Y010849D01*
X023462Y011076D01*
X023462Y010849D01*
X023462Y011076D02*
X023405Y011133D01*
X023292Y011133D01*
X023235Y011076D01*
X023235Y010849D01*
X023093Y010849D02*
X023037Y010792D01*
X022923Y010792D01*
X022866Y010849D01*
X022866Y010962D02*
X022980Y011019D01*
X023037Y011019D01*
X023093Y010962D01*
X023093Y010849D01*
X022866Y010962D02*
X022866Y011133D01*
X023093Y011133D01*
X020860Y004781D02*
X019860Y004781D01*
X034507Y015804D02*
X034757Y015554D01*
X034507Y015804D02*
X034507Y016304D01*
X034757Y016554D01*
X034757Y017554D02*
X034507Y017804D01*
X034507Y018304D01*
X034757Y018554D01*
X034757Y019554D02*
X034507Y019804D01*
X034507Y020304D01*
X034757Y020554D01*
X034757Y021554D02*
X034507Y021804D01*
X034507Y022304D01*
X034757Y022554D01*
X036257Y022554D02*
X036507Y022304D01*
X036507Y021804D01*
X036257Y021554D01*
X017943Y021544D02*
X017682Y021544D01*
X017682Y021674D01*
X017726Y021718D01*
X017813Y021718D01*
X017856Y021674D01*
X017856Y021544D01*
X017856Y021631D02*
X017943Y021718D01*
X017943Y021434D02*
X017943Y021348D01*
X017943Y021391D02*
X017682Y021391D01*
X017682Y021348D02*
X017682Y021434D01*
X017726Y021226D02*
X017682Y021183D01*
X017682Y021053D01*
X017943Y021053D01*
X017943Y021183D01*
X017899Y021226D01*
X017726Y021226D01*
X016643Y020787D02*
X016382Y020787D01*
X016382Y020917D01*
X016426Y020960D01*
X016513Y020960D01*
X016556Y020917D01*
X016556Y020787D01*
X016643Y020666D02*
X016643Y020492D01*
X016382Y020492D01*
X016382Y020666D01*
X016513Y020579D02*
X016513Y020492D01*
X016382Y020371D02*
X016382Y020198D01*
X016382Y020284D02*
X016643Y020284D01*
X016599Y020076D02*
X016643Y020033D01*
X016643Y019946D01*
X016599Y019903D01*
X016513Y019946D02*
X016513Y020033D01*
X016556Y020076D01*
X016599Y020076D01*
X016513Y019946D02*
X016469Y019903D01*
X016426Y019903D01*
X016382Y019946D01*
X016382Y020033D01*
X016426Y020076D01*
X017682Y019722D02*
X017682Y019592D01*
X017943Y019592D01*
X017943Y019722D01*
X017899Y019766D01*
X017726Y019766D01*
X017682Y019722D01*
X017682Y019471D02*
X017943Y019471D01*
X017682Y019298D01*
X017943Y019298D01*
X017899Y019176D02*
X017813Y019176D01*
X017813Y019090D01*
X017899Y019176D02*
X017943Y019133D01*
X017943Y019046D01*
X017899Y019003D01*
X017726Y019003D01*
X017682Y019046D01*
X017682Y019133D01*
X017726Y019176D01*
X010643Y017766D02*
X010643Y017592D01*
X010469Y017766D01*
X010426Y017766D01*
X010382Y017722D01*
D13*
X020925Y019077D02*
X020962Y019040D01*
X021035Y019040D01*
X021072Y019077D01*
X021072Y019151D01*
X020998Y019151D01*
X020925Y019224D02*
X020925Y019077D01*
X020925Y019224D02*
X020962Y019261D01*
X021035Y019261D01*
X021072Y019224D01*
X021146Y019261D02*
X021293Y019040D01*
X021293Y019261D01*
X021367Y019261D02*
X021477Y019261D01*
X021514Y019224D01*
X021514Y019077D01*
X021477Y019040D01*
X021367Y019040D01*
X021367Y019261D01*
X021146Y019261D02*
X021146Y019040D01*
X021219Y020222D02*
X021293Y020295D01*
X021293Y020442D01*
X021146Y020442D02*
X021146Y020295D01*
X021219Y020222D01*
X021072Y020258D02*
X021035Y020222D01*
X020962Y020222D01*
X020925Y020258D01*
X020925Y020332D02*
X020998Y020368D01*
X021035Y020368D01*
X021072Y020332D01*
X021072Y020258D01*
X020925Y020332D02*
X020925Y020442D01*
X021072Y020442D01*
X021035Y021206D02*
X020962Y021206D01*
X020925Y021243D01*
X020962Y021316D02*
X021035Y021316D01*
X021072Y021279D01*
X021072Y021243D01*
X021035Y021206D01*
X021146Y021206D02*
X021219Y021206D01*
X021183Y021206D02*
X021183Y021426D01*
X021219Y021426D02*
X021146Y021426D01*
X021072Y021389D02*
X021035Y021426D01*
X020962Y021426D01*
X020925Y021389D01*
X020925Y021353D01*
X020962Y021316D01*
X021293Y021389D02*
X021293Y021243D01*
X021330Y021206D01*
X021403Y021206D01*
X021440Y021243D01*
X021440Y021316D01*
X021367Y021316D01*
X021440Y021389D02*
X021403Y021426D01*
X021330Y021426D01*
X021293Y021389D01*
X023878Y021389D02*
X023878Y021353D01*
X023914Y021316D01*
X023988Y021316D01*
X024025Y021279D01*
X024025Y021243D01*
X023988Y021206D01*
X023914Y021206D01*
X023878Y021243D01*
X023878Y021389D02*
X023914Y021426D01*
X023988Y021426D01*
X024025Y021389D01*
X024099Y021426D02*
X024172Y021426D01*
X024135Y021426D02*
X024135Y021206D01*
X024099Y021206D02*
X024172Y021206D01*
X024246Y021243D02*
X024246Y021389D01*
X024283Y021426D01*
X024356Y021426D01*
X024393Y021389D01*
X024393Y021316D02*
X024319Y021316D01*
X024393Y021316D02*
X024393Y021243D01*
X024356Y021206D01*
X024283Y021206D01*
X024246Y021243D01*
X024246Y020442D02*
X024246Y020295D01*
X024172Y020222D01*
X024099Y020295D01*
X024099Y020442D01*
X024025Y020442D02*
X023878Y020442D01*
X023878Y020332D01*
X023951Y020368D01*
X023988Y020368D01*
X024025Y020332D01*
X024025Y020258D01*
X023988Y020222D01*
X023914Y020222D01*
X023878Y020258D01*
X023988Y019261D02*
X023952Y019224D01*
X023952Y019077D01*
X023988Y019040D01*
X024062Y019040D01*
X024098Y019077D01*
X024098Y019151D01*
X024025Y019151D01*
X024098Y019224D02*
X024062Y019261D01*
X023988Y019261D01*
X024173Y019261D02*
X024319Y019040D01*
X024319Y019261D01*
X024394Y019261D02*
X024504Y019261D01*
X024540Y019224D01*
X024540Y019077D01*
X024504Y019040D01*
X024394Y019040D01*
X024394Y019261D01*
X024173Y019261D02*
X024173Y019040D01*
X026831Y020295D02*
X026904Y020222D01*
X026977Y020295D01*
X026977Y020442D01*
X027052Y020368D02*
X027125Y020442D01*
X027198Y020368D01*
X027198Y020222D01*
X027273Y020222D02*
X027273Y020442D01*
X027383Y020442D01*
X027419Y020405D01*
X027419Y020332D01*
X027383Y020295D01*
X027273Y020295D01*
X027346Y020295D02*
X027419Y020222D01*
X027198Y020332D02*
X027052Y020332D01*
X027052Y020368D02*
X027052Y020222D01*
X026831Y020295D02*
X026831Y020442D01*
X026831Y021206D02*
X026831Y021426D01*
X026977Y021206D01*
X026977Y021426D01*
X027052Y021389D02*
X027052Y021353D01*
X027088Y021316D01*
X027162Y021316D01*
X027198Y021279D01*
X027198Y021243D01*
X027162Y021206D01*
X027088Y021206D01*
X027052Y021243D01*
X027052Y021389D02*
X027088Y021426D01*
X027162Y021426D01*
X027198Y021389D01*
X029980Y021426D02*
X029980Y021316D01*
X030054Y021353D01*
X030090Y021353D01*
X030127Y021316D01*
X030127Y021243D01*
X030090Y021206D01*
X030017Y021206D01*
X029980Y021243D01*
X029980Y021426D02*
X030127Y021426D01*
X030201Y021426D02*
X030201Y021279D01*
X030275Y021206D01*
X030348Y021279D01*
X030348Y021426D01*
X030275Y020442D02*
X030348Y020368D01*
X030348Y020222D01*
X030422Y020222D02*
X030422Y020442D01*
X030532Y020442D01*
X030569Y020405D01*
X030569Y020332D01*
X030532Y020295D01*
X030422Y020295D01*
X030496Y020295D02*
X030569Y020222D01*
X030348Y020332D02*
X030201Y020332D01*
X030201Y020368D02*
X030275Y020442D01*
X030201Y020368D02*
X030201Y020222D01*
X030127Y020295D02*
X030127Y020442D01*
X029980Y020442D02*
X029980Y020295D01*
X030054Y020222D01*
X030127Y020295D01*
X030090Y019457D02*
X030017Y019457D01*
X029980Y019421D01*
X029980Y019274D01*
X030017Y019237D01*
X030090Y019237D01*
X030127Y019274D01*
X030127Y019347D01*
X030054Y019347D01*
X030127Y019421D02*
X030090Y019457D01*
X030201Y019457D02*
X030348Y019237D01*
X030348Y019457D01*
X030422Y019457D02*
X030532Y019457D01*
X030569Y019421D01*
X030569Y019274D01*
X030532Y019237D01*
X030422Y019237D01*
X030422Y019457D01*
X030201Y019457D02*
X030201Y019237D01*
X027506Y019237D02*
X027506Y019090D01*
X027469Y019053D01*
X027359Y019053D01*
X027359Y019273D01*
X027469Y019273D01*
X027506Y019237D01*
X027285Y019273D02*
X027285Y019053D01*
X027138Y019273D01*
X027138Y019053D01*
X027064Y019090D02*
X027064Y019163D01*
X026991Y019163D01*
X027064Y019090D02*
X027027Y019053D01*
X026954Y019053D01*
X026917Y019090D01*
X026917Y019237D01*
X026954Y019273D01*
X027027Y019273D01*
X027064Y019237D01*
X022678Y015867D02*
X022531Y015867D01*
X022604Y015867D02*
X022604Y015647D01*
X022457Y015683D02*
X022457Y015830D01*
X022420Y015867D01*
X022347Y015867D01*
X022310Y015830D01*
X022310Y015683D01*
X022347Y015647D01*
X022420Y015647D01*
X022457Y015683D01*
X022236Y015757D02*
X022236Y015830D01*
X022199Y015867D01*
X022089Y015867D01*
X022089Y015647D01*
X022089Y015720D02*
X022199Y015720D01*
X022236Y015757D01*
X021794Y015794D02*
X021721Y015794D01*
X021757Y015830D02*
X021757Y015683D01*
X021794Y015647D01*
X021646Y015647D02*
X021646Y015757D01*
X021610Y015794D01*
X021536Y015794D01*
X021500Y015757D01*
X021425Y015794D02*
X021315Y015794D01*
X021279Y015757D01*
X021279Y015683D01*
X021315Y015647D01*
X021425Y015647D01*
X021425Y015610D02*
X021425Y015794D01*
X021500Y015867D02*
X021500Y015647D01*
X021425Y015610D02*
X021389Y015573D01*
X021352Y015573D01*
X021205Y015647D02*
X021131Y015647D01*
X021168Y015647D02*
X021168Y015794D01*
X021131Y015794D01*
X021168Y015867D02*
X021168Y015904D01*
X020910Y015867D02*
X020910Y015647D01*
X021057Y015647D01*
X025832Y015670D02*
X025832Y015450D01*
X025832Y015523D02*
X025942Y015523D01*
X025978Y015560D01*
X025978Y015633D01*
X025942Y015670D01*
X025832Y015670D01*
X026053Y015597D02*
X026053Y015487D01*
X026089Y015450D01*
X026199Y015450D01*
X026199Y015597D01*
X026273Y015597D02*
X026310Y015597D01*
X026347Y015560D01*
X026384Y015597D01*
X026420Y015560D01*
X026420Y015450D01*
X026347Y015450D02*
X026347Y015560D01*
X026273Y015597D02*
X026273Y015450D01*
X026494Y015450D02*
X026605Y015450D01*
X026641Y015487D01*
X026641Y015560D01*
X026605Y015597D01*
X026494Y015597D01*
X026494Y015377D01*
X026936Y015450D02*
X026936Y015670D01*
X027047Y015670D01*
X027083Y015633D01*
X027083Y015560D01*
X027047Y015523D01*
X026936Y015523D01*
X027157Y015487D02*
X027194Y015450D01*
X027268Y015450D01*
X027304Y015487D01*
X027304Y015633D01*
X027268Y015670D01*
X027194Y015670D01*
X027157Y015633D01*
X027157Y015487D01*
X027378Y015670D02*
X027525Y015670D01*
X027452Y015670D02*
X027452Y015450D01*
X032933Y015410D02*
X033006Y015447D01*
X033043Y015447D01*
X033080Y015410D01*
X033080Y015337D01*
X033043Y015300D01*
X032970Y015300D01*
X032933Y015337D01*
X032933Y015410D02*
X032933Y015520D01*
X033080Y015520D01*
X033154Y015520D02*
X033154Y015374D01*
X033227Y015300D01*
X033301Y015374D01*
X033301Y015520D01*
X033338Y016285D02*
X033411Y016285D01*
X033448Y016321D01*
X033448Y016395D01*
X033375Y016395D01*
X033448Y016468D02*
X033411Y016505D01*
X033338Y016505D01*
X033301Y016468D01*
X033301Y016321D01*
X033338Y016285D01*
X033227Y016285D02*
X033154Y016285D01*
X033191Y016285D02*
X033191Y016505D01*
X033227Y016505D02*
X033154Y016505D01*
X033080Y016468D02*
X033043Y016505D01*
X032970Y016505D01*
X032933Y016468D01*
X032933Y016431D01*
X032970Y016395D01*
X033043Y016395D01*
X033080Y016358D01*
X033080Y016321D01*
X033043Y016285D01*
X032970Y016285D01*
X032933Y016321D01*
X032970Y014536D02*
X032933Y014500D01*
X032933Y014353D01*
X032970Y014316D01*
X033043Y014316D01*
X033080Y014353D01*
X033080Y014426D01*
X033006Y014426D01*
X033080Y014500D02*
X033043Y014536D01*
X032970Y014536D01*
X033154Y014536D02*
X033301Y014316D01*
X033301Y014536D01*
X033375Y014536D02*
X033485Y014536D01*
X033522Y014500D01*
X033522Y014353D01*
X033485Y014316D01*
X033375Y014316D01*
X033375Y014536D01*
X033154Y014536D02*
X033154Y014316D01*
D14*
X018173Y022373D02*
X010173Y022373D01*
X010173Y003373D01*
X018173Y003373D01*
X018173Y022373D01*
X011873Y009373D02*
X011673Y009373D01*
X011873Y009373D02*
X011873Y006373D01*
X011673Y006373D01*
D15*
X010723Y006373D02*
X010473Y006373D01*
X010473Y006623D01*
X010473Y007123D02*
X010473Y007373D01*
X010723Y007373D01*
X010723Y008373D02*
X010473Y008373D01*
X010473Y008623D01*
X010473Y009123D02*
X010473Y009373D01*
X010723Y009373D01*
X008702Y006423D02*
X007909Y006423D01*
X007102Y006073D02*
X007102Y004373D01*
X007897Y004023D02*
X008702Y004023D01*
X009502Y004373D02*
X009502Y006073D01*
X007602Y005223D02*
X007604Y005275D01*
X007610Y005327D01*
X007620Y005379D01*
X007633Y005429D01*
X007650Y005479D01*
X007671Y005527D01*
X007696Y005573D01*
X007724Y005617D01*
X007755Y005659D01*
X007789Y005699D01*
X007826Y005736D01*
X007866Y005770D01*
X007908Y005801D01*
X007952Y005829D01*
X007998Y005854D01*
X008046Y005875D01*
X008096Y005892D01*
X008146Y005905D01*
X008198Y005915D01*
X008250Y005921D01*
X008302Y005923D01*
X008354Y005921D01*
X008406Y005915D01*
X008458Y005905D01*
X008508Y005892D01*
X008558Y005875D01*
X008606Y005854D01*
X008652Y005829D01*
X008696Y005801D01*
X008738Y005770D01*
X008778Y005736D01*
X008815Y005699D01*
X008849Y005659D01*
X008880Y005617D01*
X008908Y005573D01*
X008933Y005527D01*
X008954Y005479D01*
X008971Y005429D01*
X008984Y005379D01*
X008994Y005327D01*
X009000Y005275D01*
X009002Y005223D01*
X009000Y005171D01*
X008994Y005119D01*
X008984Y005067D01*
X008971Y005017D01*
X008954Y004967D01*
X008933Y004919D01*
X008908Y004873D01*
X008880Y004829D01*
X008849Y004787D01*
X008815Y004747D01*
X008778Y004710D01*
X008738Y004676D01*
X008696Y004645D01*
X008652Y004617D01*
X008606Y004592D01*
X008558Y004571D01*
X008508Y004554D01*
X008458Y004541D01*
X008406Y004531D01*
X008354Y004525D01*
X008302Y004523D01*
X008250Y004525D01*
X008198Y004531D01*
X008146Y004541D01*
X008096Y004554D01*
X008046Y004571D01*
X007998Y004592D01*
X007952Y004617D01*
X007908Y004645D01*
X007866Y004676D01*
X007826Y004710D01*
X007789Y004747D01*
X007755Y004787D01*
X007724Y004829D01*
X007696Y004873D01*
X007671Y004919D01*
X007650Y004967D01*
X007633Y005017D01*
X007620Y005067D01*
X007610Y005119D01*
X007604Y005171D01*
X007602Y005223D01*
X010507Y004304D02*
X010507Y003804D01*
X010757Y003554D01*
X011257Y003554D01*
X011507Y003804D01*
X011757Y003554D01*
X012257Y003554D01*
X012507Y003804D01*
X012757Y003554D01*
X013257Y003554D01*
X013507Y003804D01*
X013757Y003554D01*
X014257Y003554D01*
X014507Y003804D01*
X014757Y003554D01*
X015257Y003554D01*
X015507Y003804D01*
X015757Y003554D01*
X016257Y003554D01*
X016507Y003804D01*
X016507Y004304D01*
X016257Y004554D01*
X015757Y004554D01*
X015507Y004304D01*
X015257Y004554D01*
X014757Y004554D01*
X014507Y004304D01*
X014257Y004554D01*
X013757Y004554D01*
X013507Y004304D01*
X013257Y004554D01*
X012757Y004554D01*
X012507Y004304D01*
X012257Y004554D01*
X011757Y004554D01*
X011507Y004304D01*
X011257Y004554D01*
X010757Y004554D01*
X010507Y004304D01*
X017507Y004304D02*
X017507Y003804D01*
X017757Y003554D01*
X018257Y003554D01*
X018507Y003804D01*
X018757Y003554D01*
X019257Y003554D01*
X019507Y003804D01*
X019757Y003554D01*
X020257Y003554D01*
X020507Y003804D01*
X020757Y003554D01*
X021257Y003554D01*
X021507Y003804D01*
X021757Y003554D01*
X022257Y003554D01*
X022507Y003804D01*
X022757Y003554D01*
X023257Y003554D01*
X023507Y003804D01*
X023757Y003554D01*
X024257Y003554D01*
X024507Y003804D01*
X024757Y003554D01*
X025257Y003554D01*
X025507Y003804D01*
X025507Y004304D01*
X025257Y004554D01*
X024757Y004554D01*
X024507Y004304D01*
X024257Y004554D01*
X023757Y004554D01*
X023507Y004304D01*
X023257Y004554D01*
X022757Y004554D01*
X022507Y004304D01*
X022257Y004554D01*
X021757Y004554D01*
X021507Y004304D01*
X021257Y004554D01*
X020757Y004554D01*
X020507Y004304D01*
X020257Y004554D01*
X019757Y004554D01*
X019507Y004304D01*
X019257Y004554D01*
X018757Y004554D01*
X018507Y004304D01*
X018257Y004554D01*
X017757Y004554D01*
X017507Y004304D01*
X026507Y004304D02*
X026507Y003804D01*
X026757Y003554D01*
X027257Y003554D01*
X027507Y003804D01*
X027757Y003554D01*
X028257Y003554D01*
X028507Y003804D01*
X028757Y003554D01*
X029257Y003554D01*
X029507Y003804D01*
X029757Y003554D01*
X030257Y003554D01*
X030507Y003804D01*
X030757Y003554D01*
X031257Y003554D01*
X031507Y003804D01*
X031757Y003554D01*
X032257Y003554D01*
X032507Y003804D01*
X032757Y003554D01*
X033257Y003554D01*
X033507Y003804D01*
X033757Y003554D01*
X034257Y003554D01*
X034507Y003804D01*
X034507Y004304D01*
X034257Y004554D01*
X033757Y004554D01*
X033507Y004304D01*
X033257Y004554D01*
X032757Y004554D01*
X032507Y004304D01*
X032257Y004554D01*
X031757Y004554D01*
X031507Y004304D01*
X031257Y004554D01*
X030757Y004554D01*
X030507Y004304D01*
X030257Y004554D01*
X029757Y004554D01*
X029507Y004304D01*
X029257Y004554D01*
X028757Y004554D01*
X028507Y004304D01*
X028257Y004554D01*
X027757Y004554D01*
X027507Y004304D01*
X027257Y004554D01*
X026757Y004554D01*
X026507Y004304D01*
X034507Y005804D02*
X034757Y005554D01*
X036257Y005554D01*
X036507Y005804D01*
X036507Y006304D01*
X036257Y006554D01*
X034757Y006554D01*
X034507Y006304D01*
X034507Y005804D01*
X028948Y010593D02*
X026948Y010593D01*
X026948Y010893D01*
X026848Y010893D01*
X026948Y010893D02*
X026948Y011193D01*
X028948Y011193D01*
X028948Y010893D01*
X029048Y010893D01*
X028948Y010893D02*
X028948Y010593D01*
X024736Y010912D02*
X024636Y010912D01*
X024636Y010612D01*
X022636Y010612D01*
X022636Y010912D01*
X022536Y010912D01*
X022636Y010912D02*
X022636Y011212D01*
X024636Y011212D01*
X024636Y010912D01*
X029399Y014538D02*
X029699Y014538D01*
X029699Y014438D01*
X029699Y014538D02*
X029999Y014538D01*
X029999Y016538D01*
X029699Y016538D01*
X029699Y016638D01*
X029699Y016538D02*
X029399Y016538D01*
X029399Y014538D01*
X029257Y022554D02*
X028757Y022554D01*
X028507Y022804D01*
X028257Y022554D01*
X027757Y022554D01*
X027507Y022804D01*
X027257Y022554D01*
X026757Y022554D01*
X026507Y022804D01*
X026257Y022554D01*
X025757Y022554D01*
X025507Y022804D01*
X025257Y022554D01*
X024757Y022554D01*
X024507Y022804D01*
X024507Y023304D01*
X024757Y023554D01*
X025257Y023554D01*
X025507Y023304D01*
X025757Y023554D01*
X026257Y023554D01*
X026507Y023304D01*
X026757Y023554D01*
X027257Y023554D01*
X027507Y023304D01*
X027757Y023554D01*
X028257Y023554D01*
X028507Y023304D01*
X028757Y023554D01*
X029257Y023554D01*
X029507Y023304D01*
X029757Y023554D01*
X030257Y023554D01*
X030507Y023304D01*
X030757Y023554D01*
X031257Y023554D01*
X031507Y023304D01*
X031757Y023554D01*
X032257Y023554D01*
X032507Y023304D01*
X032507Y022804D01*
X032257Y022554D01*
X031757Y022554D01*
X031507Y022804D01*
X031257Y022554D01*
X030757Y022554D01*
X030507Y022804D01*
X030257Y022554D01*
X029757Y022554D01*
X029507Y022804D01*
X029257Y022554D01*
X034507Y022804D02*
X034757Y022554D01*
X036257Y022554D01*
X036507Y022804D01*
X036507Y023304D01*
X036257Y023554D01*
X034757Y023554D01*
X034507Y023304D01*
X034507Y022804D01*
X023507Y022804D02*
X023257Y022554D01*
X022757Y022554D01*
X022507Y022804D01*
X022257Y022554D01*
X021757Y022554D01*
X021507Y022804D01*
X021257Y022554D01*
X020757Y022554D01*
X020507Y022804D01*
X020257Y022554D01*
X019757Y022554D01*
X019507Y022804D01*
X019257Y022554D01*
X018757Y022554D01*
X018507Y022804D01*
X018257Y022554D01*
X017757Y022554D01*
X017507Y022804D01*
X017257Y022554D01*
X016757Y022554D01*
X016507Y022804D01*
X016257Y022554D01*
X015757Y022554D01*
X015507Y022804D01*
X015507Y023304D01*
X015757Y023554D01*
X016257Y023554D01*
X016507Y023304D01*
X016757Y023554D01*
X017257Y023554D01*
X017507Y023304D01*
X017757Y023554D01*
X018257Y023554D01*
X018507Y023304D01*
X018757Y023554D01*
X019257Y023554D01*
X019507Y023304D01*
X019757Y023554D01*
X020257Y023554D01*
X020507Y023304D01*
X020757Y023554D01*
X021257Y023554D01*
X021507Y023304D01*
X021757Y023554D01*
X022257Y023554D01*
X022507Y023304D01*
X022757Y023554D01*
X023257Y023554D01*
X023507Y023304D01*
X023507Y022804D01*
X014907Y022804D02*
X014657Y022554D01*
X014157Y022554D01*
X013907Y022804D01*
X013657Y022554D01*
X013157Y022554D01*
X012907Y022804D01*
X012657Y022554D01*
X012157Y022554D01*
X011907Y022804D01*
X011657Y022554D01*
X011157Y022554D01*
X010907Y022804D01*
X010657Y022554D01*
X010157Y022554D01*
X009907Y022804D01*
X009657Y022554D01*
X009157Y022554D01*
X008907Y022804D01*
X008657Y022554D01*
X008157Y022554D01*
X007907Y022804D01*
X007657Y022554D01*
X007157Y022554D01*
X006907Y022804D01*
X006907Y023304D01*
X007157Y023554D01*
X007657Y023554D01*
X007907Y023304D01*
X008157Y023554D01*
X008657Y023554D01*
X008907Y023304D01*
X009157Y023554D01*
X009657Y023554D01*
X009907Y023304D01*
X010157Y023554D01*
X010657Y023554D01*
X010907Y023304D01*
X011157Y023554D01*
X011657Y023554D01*
X011907Y023304D01*
X012157Y023554D01*
X012657Y023554D01*
X012907Y023304D01*
X013157Y023554D01*
X013657Y023554D01*
X013907Y023304D01*
X014157Y023554D01*
X014657Y023554D01*
X014907Y023304D01*
X014907Y022804D01*
X013440Y021422D02*
X013440Y021322D01*
X013740Y021322D01*
X013740Y019322D01*
X013440Y019322D01*
X013440Y019222D01*
X013440Y019322D02*
X013140Y019322D01*
X013140Y021322D01*
X013440Y021322D01*
X011873Y021373D02*
X011873Y020373D01*
X011623Y020373D01*
X011623Y021373D02*
X011873Y021373D01*
X009125Y021018D02*
X007432Y021018D01*
X006704Y021018D02*
X004164Y021018D01*
X004164Y017671D01*
X009519Y017671D01*
X009519Y019443D01*
D16*
X018845Y010647D02*
X019266Y010016D01*
X019490Y010016D02*
X019910Y010437D01*
X019910Y010542D01*
X019805Y010647D01*
X019595Y010647D01*
X019490Y010542D01*
X019266Y010647D02*
X018845Y010016D01*
X019490Y010016D02*
X019910Y010016D01*
X012388Y008701D02*
X012278Y008591D01*
X012278Y008646D02*
X012278Y008481D01*
X012388Y008481D02*
X012057Y008481D01*
X012057Y008646D01*
X012112Y008701D01*
X012223Y008701D01*
X012278Y008646D01*
X012333Y008333D02*
X012112Y008333D01*
X012057Y008278D01*
X012057Y008168D01*
X012112Y008113D01*
X012333Y008113D01*
X012388Y008168D01*
X012388Y008278D01*
X012333Y008333D01*
X012057Y007965D02*
X012057Y007745D01*
X012057Y007855D02*
X012388Y007855D01*
X012333Y007596D02*
X012112Y007596D01*
X012057Y007541D01*
X012057Y007431D01*
X012112Y007376D01*
X012333Y007376D01*
X012388Y007431D01*
X012388Y007541D01*
X012333Y007596D01*
X012388Y007228D02*
X012057Y007228D01*
X012168Y007118D01*
X012057Y007008D01*
X012388Y007008D01*
D17*
X006402Y004248D02*
X006326Y004323D01*
X006326Y004474D01*
X006402Y004549D01*
X006552Y004474D02*
X006552Y004323D01*
X006477Y004248D01*
X006402Y004248D01*
X006552Y004474D02*
X006627Y004549D01*
X006702Y004549D01*
X006777Y004474D01*
X006777Y004323D01*
X006702Y004248D01*
X006777Y004709D02*
X006777Y005009D01*
X006777Y004859D02*
X006326Y004859D01*
X006477Y004709D01*
X019008Y014596D02*
X019383Y014596D01*
X019458Y014671D01*
X019458Y014822D01*
X019383Y014897D01*
X019008Y014897D01*
X019158Y015057D02*
X019008Y015207D01*
X019458Y015207D01*
X019458Y015057D02*
X019458Y015357D01*
X023950Y015076D02*
X023950Y014926D01*
X024025Y014851D01*
X023950Y014691D02*
X024325Y014691D01*
X024400Y014616D01*
X024400Y014466D01*
X024325Y014391D01*
X023950Y014391D01*
X024400Y014851D02*
X024100Y015151D01*
X024025Y015151D01*
X023950Y015076D01*
X024400Y015151D02*
X024400Y014851D01*
X024637Y018810D02*
X024637Y021810D01*
X026837Y021810D01*
X026837Y021310D01*
X026337Y021310D01*
X026337Y019310D01*
X026837Y019310D01*
X026837Y018810D01*
X024637Y018810D01*
X023888Y018818D02*
X023888Y019318D01*
X023388Y019318D01*
X023388Y021318D01*
X023888Y021318D01*
X023888Y019318D01*
X023888Y018818D02*
X021688Y018818D01*
X021688Y021818D01*
X023888Y021818D01*
X023888Y021318D01*
X026837Y021310D02*
X026837Y019310D01*
X027678Y018865D02*
X027678Y021865D01*
X029878Y021865D01*
X029878Y021365D01*
X029378Y021365D01*
X029378Y019365D01*
X029878Y019365D01*
X029878Y018865D01*
X027678Y018865D01*
X029878Y019365D02*
X029878Y021365D01*
X030724Y021877D02*
X030724Y018877D01*
X032924Y018877D01*
X032924Y019377D01*
X032424Y019377D01*
X032424Y021377D01*
X032924Y021377D01*
X032924Y019377D01*
X032924Y021377D02*
X032924Y021877D01*
X030724Y021877D01*
X034032Y023629D02*
X034082Y023579D01*
X034182Y023579D01*
X034232Y023629D01*
X034232Y023729D01*
X034182Y023779D01*
X034132Y023779D01*
X034032Y023729D01*
X034032Y023879D01*
X034232Y023879D01*
X034354Y023879D02*
X034354Y023679D01*
X034454Y023579D01*
X034554Y023679D01*
X034554Y023879D01*
X032904Y016897D02*
X030704Y016897D01*
X030704Y013897D01*
X032904Y013897D01*
X032904Y014397D01*
X032404Y014397D01*
X032404Y016397D01*
X032904Y016397D01*
X032904Y014397D01*
X032904Y016397D02*
X032904Y016897D01*
X020877Y018818D02*
X020877Y019318D01*
X020377Y019318D01*
X020377Y021318D01*
X020877Y021318D01*
X020877Y019318D01*
X020877Y018818D02*
X018677Y018818D01*
X018677Y021818D01*
X020877Y021818D01*
X020877Y021318D01*
X022582Y008597D02*
X022696Y008597D01*
X022752Y008540D01*
X022752Y008483D01*
X022696Y008426D01*
X022582Y008426D01*
X022525Y008483D01*
X022525Y008540D01*
X022582Y008597D01*
X022582Y008426D02*
X022525Y008370D01*
X022525Y008313D01*
X022582Y008256D01*
X022696Y008256D01*
X022752Y008313D01*
X022752Y008370D01*
X022696Y008426D01*
X023625Y008313D02*
X023625Y008256D01*
X023625Y008313D02*
X023852Y008540D01*
X023852Y008597D01*
X023625Y008597D01*
X024725Y008426D02*
X024896Y008426D01*
X024952Y008370D01*
X024952Y008313D01*
X024896Y008256D01*
X024782Y008256D01*
X024725Y008313D01*
X024725Y008426D01*
X024839Y008540D01*
X024952Y008597D01*
X025825Y008597D02*
X025825Y008426D01*
X025939Y008483D01*
X025996Y008483D01*
X026052Y008426D01*
X026052Y008313D01*
X025996Y008256D01*
X025882Y008256D01*
X025825Y008313D01*
X025825Y008597D02*
X026052Y008597D01*
X026925Y008426D02*
X027152Y008426D01*
X027096Y008256D02*
X027096Y008597D01*
X026925Y008426D01*
X027975Y008313D02*
X028032Y008256D01*
X028146Y008256D01*
X028202Y008313D01*
X028202Y008370D01*
X028146Y008426D01*
X028089Y008426D01*
X028146Y008426D02*
X028202Y008483D01*
X028202Y008540D01*
X028146Y008597D01*
X028032Y008597D01*
X027975Y008540D01*
X029075Y008540D02*
X029132Y008597D01*
X029246Y008597D01*
X029302Y008540D01*
X029302Y008483D01*
X029075Y008256D01*
X029302Y008256D01*
X030175Y008256D02*
X030402Y008256D01*
X030289Y008256D02*
X030289Y008597D01*
X030175Y008483D01*
X029796Y006197D02*
X029682Y006197D01*
X029625Y006140D01*
X029625Y006083D01*
X029682Y006026D01*
X029852Y006026D01*
X029852Y005913D02*
X029852Y006140D01*
X029796Y006197D01*
X029852Y005913D02*
X029796Y005856D01*
X029682Y005856D01*
X029625Y005913D01*
X028971Y005913D02*
X028915Y005856D01*
X028801Y005856D01*
X028745Y005913D01*
X028971Y006140D01*
X028971Y005913D01*
X028745Y005913D02*
X028745Y006140D01*
X028801Y006197D01*
X028915Y006197D01*
X028971Y006140D01*
X028612Y005856D02*
X028385Y005856D01*
X028499Y005856D02*
X028499Y006197D01*
X028385Y006083D01*
X027921Y005856D02*
X027695Y005856D01*
X027808Y005856D02*
X027808Y006197D01*
X027695Y006083D01*
X027562Y005856D02*
X027335Y005856D01*
X027449Y005856D02*
X027449Y006197D01*
X027335Y006083D01*
X026821Y006083D02*
X026595Y005856D01*
X026821Y005856D01*
X026821Y006083D02*
X026821Y006140D01*
X026765Y006197D01*
X026651Y006197D01*
X026595Y006140D01*
X026349Y006197D02*
X026349Y005856D01*
X026462Y005856D02*
X026235Y005856D01*
X026235Y006083D02*
X026349Y006197D01*
X025721Y006140D02*
X025721Y006083D01*
X025665Y006026D01*
X025721Y005970D01*
X025721Y005913D01*
X025665Y005856D01*
X025551Y005856D01*
X025495Y005913D01*
X025362Y005856D02*
X025135Y005856D01*
X025249Y005856D02*
X025249Y006197D01*
X025135Y006083D01*
X025495Y006140D02*
X025551Y006197D01*
X025665Y006197D01*
X025721Y006140D01*
X025665Y006026D02*
X025608Y006026D01*
X024621Y006026D02*
X024395Y006026D01*
X024565Y006197D01*
X024565Y005856D01*
X024262Y005856D02*
X024035Y005856D01*
X024149Y005856D02*
X024149Y006197D01*
X024035Y006083D01*
X023571Y006026D02*
X023571Y005913D01*
X023515Y005856D01*
X023401Y005856D01*
X023345Y005913D01*
X023345Y006026D02*
X023458Y006083D01*
X023515Y006083D01*
X023571Y006026D01*
X023571Y006197D02*
X023345Y006197D01*
X023345Y006026D01*
X023212Y005856D02*
X022985Y005856D01*
X023099Y005856D02*
X023099Y006197D01*
X022985Y006083D01*
D18*
X035007Y005524D02*
X035007Y005234D01*
X036007Y005234D01*
X036007Y005534D01*
X036507Y005554D02*
X037687Y005554D01*
X036007Y023574D02*
X036007Y023834D01*
X035007Y023834D01*
X034707Y023834D01*
X035007Y023834D02*
X035007Y023584D01*
M02*
