G75*
%MOIN*%
%OFA0B0*%
%FSLAX24Y24*%
%IPPOS*%
%LPD*%
%AMOC8*
5,1,8,0,0,1.08239X$1,22.5*
%
%ADD10C,0.0740*%
%ADD11C,0.0787*%
%ADD12R,0.0740X0.0740*%
%ADD13OC8,0.0740*%
%ADD14C,0.0480*%
%ADD15OC8,0.0600*%
%ADD16C,0.0240*%
%ADD17C,0.0120*%
%ADD18C,0.0160*%
%ADD19C,0.0060*%
%ADD20R,0.0376X0.0376*%
D10*
X007412Y003943D03*
X009192Y003943D03*
X011007Y004054D03*
X012007Y004054D03*
X013007Y004054D03*
X014007Y004054D03*
X015007Y004054D03*
X016007Y004054D03*
X018007Y004054D03*
X019007Y004054D03*
X020007Y004054D03*
X021007Y004054D03*
X022007Y004054D03*
X023007Y004054D03*
X024007Y004054D03*
X025007Y004054D03*
X027007Y004054D03*
X028007Y004054D03*
X029007Y004054D03*
X030007Y004054D03*
X031007Y004054D03*
X032007Y004054D03*
X033007Y004054D03*
X034007Y004054D03*
X035007Y006054D03*
X036007Y006054D03*
X029448Y010893D03*
X026448Y010893D03*
X025136Y010912D03*
X022136Y010912D03*
X017173Y011373D03*
X017173Y012373D03*
X011173Y012373D03*
X011173Y011373D03*
X011173Y009373D03*
X011173Y008373D03*
X011173Y007373D03*
X011173Y006373D03*
X009192Y006503D03*
X007412Y006503D03*
X017173Y006373D03*
X017173Y007373D03*
X008282Y014412D03*
X008282Y015412D03*
X011173Y016373D03*
X011173Y017373D03*
X013440Y018822D03*
X011173Y020373D03*
X011173Y021373D03*
X013440Y021822D03*
X013407Y023054D03*
X012407Y023054D03*
X011407Y023054D03*
X010407Y023054D03*
X009407Y023054D03*
X008407Y023054D03*
X007407Y023054D03*
X014407Y023054D03*
X016007Y023054D03*
X017007Y023054D03*
X018007Y023054D03*
X019007Y023054D03*
X020007Y023054D03*
X021007Y023054D03*
X022007Y023054D03*
X023007Y023054D03*
X025007Y023054D03*
X026007Y023054D03*
X027007Y023054D03*
X028007Y023054D03*
X029007Y023054D03*
X030007Y023054D03*
X031007Y023054D03*
X032007Y023054D03*
X031924Y021377D03*
X031924Y020377D03*
X028878Y020365D03*
X028878Y021365D03*
X025837Y021310D03*
X025837Y020310D03*
X022888Y020318D03*
X022888Y021318D03*
X019877Y021318D03*
X019877Y020318D03*
X017173Y020373D03*
X017173Y019373D03*
X017173Y021373D03*
X031924Y017440D03*
X031924Y016440D03*
X031924Y013700D03*
X031924Y012700D03*
X035007Y023054D03*
X036007Y023054D03*
D11*
X009558Y020723D02*
X009558Y019935D01*
X007078Y019935D02*
X007078Y020723D01*
X007983Y018360D02*
X008771Y018360D01*
D12*
X008282Y013412D03*
X019877Y019318D03*
X022888Y019318D03*
X025837Y019310D03*
X028878Y019365D03*
X031924Y019377D03*
X031924Y015440D03*
X031924Y011700D03*
D13*
X035007Y012054D03*
X036007Y012054D03*
X036007Y011054D03*
X035007Y011054D03*
X035007Y010054D03*
X036007Y010054D03*
X036007Y009054D03*
X035007Y009054D03*
X035007Y008054D03*
X036007Y008054D03*
X036007Y007054D03*
X035007Y007054D03*
X035007Y013054D03*
X036007Y013054D03*
X036007Y014054D03*
X035007Y014054D03*
X035007Y015054D03*
X036007Y015054D03*
X036007Y016054D03*
X035007Y016054D03*
X035007Y017054D03*
X036007Y017054D03*
X036007Y018054D03*
X035007Y018054D03*
X035007Y019054D03*
X036007Y019054D03*
X036007Y020054D03*
X035007Y020054D03*
X035007Y021054D03*
X036007Y021054D03*
X036007Y022054D03*
X035007Y022054D03*
D14*
X028025Y017256D02*
X028025Y016776D01*
X027025Y016776D02*
X027025Y017256D01*
X026025Y017256D02*
X026025Y016776D01*
X025025Y016776D02*
X025025Y017256D01*
X023083Y017461D02*
X023083Y016981D01*
X022083Y016981D02*
X022083Y017461D01*
X021083Y017461D02*
X021083Y016981D01*
X020083Y016981D02*
X020083Y017461D01*
X020083Y014461D02*
X020083Y013981D01*
X021083Y013981D02*
X021083Y014461D01*
X022083Y014461D02*
X022083Y013981D01*
X023083Y013981D02*
X023083Y014461D01*
X025025Y014256D02*
X025025Y013776D01*
X026025Y013776D02*
X026025Y014256D01*
X027025Y014256D02*
X027025Y013776D01*
X028025Y013776D02*
X028025Y014256D01*
D15*
X028005Y007853D03*
X026925Y007853D03*
X025845Y007853D03*
X024765Y007853D03*
X023685Y007853D03*
X022605Y007853D03*
X023145Y006733D03*
X024225Y006733D03*
X025305Y006733D03*
X026385Y006733D03*
X027465Y006733D03*
X028545Y006733D03*
X029625Y006733D03*
X029085Y007853D03*
X030165Y007853D03*
D16*
X026385Y006733D02*
X024462Y004810D01*
X012633Y004810D01*
X011173Y006270D01*
X011173Y006373D01*
X011173Y007254D02*
X013223Y005204D01*
X023776Y005204D01*
X025305Y006733D01*
X024225Y006733D02*
X023090Y005597D01*
X013814Y005597D01*
X011173Y008238D01*
X011173Y008373D01*
X011173Y009373D02*
X011451Y009338D01*
X020310Y009338D01*
X022914Y006733D01*
X023145Y006733D01*
X011173Y007254D02*
X011173Y007373D01*
X010664Y018983D02*
X008423Y018983D01*
X007078Y020329D01*
X009558Y020329D02*
X010602Y021373D01*
X011173Y021373D01*
X011173Y020373D02*
X011173Y019492D01*
X010664Y018983D01*
D17*
X006543Y019779D02*
X006543Y003248D01*
X010113Y003248D01*
X010097Y003259D01*
X010084Y003279D01*
X010067Y003296D01*
X010058Y003318D01*
X009718Y003828D01*
X009641Y003643D01*
X009492Y003494D01*
X009297Y003413D01*
X009086Y003413D01*
X008892Y003494D01*
X008743Y003643D01*
X008662Y003838D01*
X008662Y004049D01*
X008743Y004244D01*
X008892Y004393D01*
X009086Y004473D01*
X009297Y004473D01*
X009492Y004393D01*
X009637Y004248D01*
X009637Y006199D01*
X009492Y006054D01*
X009297Y005973D01*
X009086Y005973D01*
X008892Y006054D01*
X008743Y006203D01*
X008662Y006398D01*
X008662Y006609D01*
X008743Y006804D01*
X008892Y006953D01*
X009086Y007033D01*
X009297Y007033D01*
X009492Y006953D01*
X009637Y006808D01*
X009637Y014728D01*
X009038Y015172D01*
X008756Y015172D01*
X008731Y015112D01*
X008582Y014963D01*
X008460Y014912D01*
X008582Y014862D01*
X008731Y014713D01*
X008812Y014518D01*
X008812Y014307D01*
X008731Y014112D01*
X008582Y013963D01*
X008532Y013942D01*
X008718Y013942D01*
X008812Y013849D01*
X008812Y012976D01*
X008718Y012882D01*
X007846Y012882D01*
X007752Y012976D01*
X007752Y013849D01*
X007846Y013942D01*
X008032Y013942D01*
X007982Y013963D01*
X007833Y014112D01*
X007752Y014307D01*
X007752Y014518D01*
X007833Y014713D01*
X007982Y014862D01*
X008104Y014912D01*
X007982Y014963D01*
X007833Y015112D01*
X007752Y015307D01*
X007752Y015518D01*
X007833Y015713D01*
X007982Y015862D01*
X008177Y015942D01*
X008388Y015942D01*
X008582Y015862D01*
X008731Y015713D01*
X008756Y015652D01*
X009099Y015652D01*
X009129Y015657D01*
X009146Y015652D01*
X009165Y015652D01*
X009192Y015641D01*
X009221Y015634D01*
X009236Y015623D01*
X009253Y015616D01*
X009274Y015595D01*
X009657Y015311D01*
X009657Y017132D01*
X009649Y017141D01*
X009657Y017222D01*
X009657Y017303D01*
X009665Y017311D01*
X009666Y017322D01*
X009728Y017374D01*
X009786Y017432D01*
X009797Y017432D01*
X010909Y018358D01*
X010967Y018416D01*
X010978Y018416D01*
X010987Y018423D01*
X011068Y018416D01*
X013096Y018416D01*
X012990Y018522D01*
X012910Y018716D01*
X012910Y018927D01*
X012990Y019122D01*
X013139Y019271D01*
X013334Y019352D01*
X013545Y019352D01*
X013740Y019271D01*
X013889Y019122D01*
X013970Y018927D01*
X013970Y018716D01*
X013889Y018522D01*
X013783Y018416D01*
X017633Y018416D01*
X017924Y018853D01*
X017924Y022524D01*
X017901Y022524D01*
X017706Y022605D01*
X017557Y022754D01*
X017507Y022876D01*
X017456Y022754D01*
X017393Y022691D01*
X017393Y021856D01*
X017473Y021822D01*
X017622Y021673D01*
X017703Y021478D01*
X017703Y021268D01*
X017622Y021073D01*
X017473Y020924D01*
X017351Y020873D01*
X017473Y020822D01*
X017622Y020673D01*
X017703Y020478D01*
X017703Y020268D01*
X017622Y020073D01*
X017473Y019924D01*
X017351Y019873D01*
X017473Y019822D01*
X017622Y019673D01*
X017703Y019478D01*
X017703Y019268D01*
X017622Y019073D01*
X017473Y018924D01*
X017278Y018843D01*
X017067Y018843D01*
X016872Y018924D01*
X016723Y019073D01*
X016643Y019268D01*
X016643Y019478D01*
X016723Y019673D01*
X016872Y019822D01*
X016995Y019873D01*
X016872Y019924D01*
X016723Y020073D01*
X016690Y020153D01*
X016270Y020153D01*
X015888Y020535D01*
X015759Y020664D01*
X015759Y022583D01*
X015706Y022605D01*
X015557Y022754D01*
X015477Y022949D01*
X015477Y023091D01*
X015412Y023026D01*
X015412Y022042D01*
X015215Y021845D01*
X015086Y021716D01*
X013969Y021716D01*
X013889Y021522D01*
X013740Y021372D01*
X013545Y021292D01*
X013334Y021292D01*
X013139Y021372D01*
X012990Y021522D01*
X012910Y021716D01*
X012910Y021927D01*
X012983Y022104D01*
X012548Y022539D01*
X012512Y022524D01*
X012301Y022524D01*
X012106Y022605D01*
X011957Y022754D01*
X011907Y022876D01*
X011856Y022754D01*
X011707Y022605D01*
X011512Y022524D01*
X011301Y022524D01*
X011106Y022605D01*
X010957Y022754D01*
X010907Y022876D01*
X010856Y022754D01*
X010707Y022605D01*
X010512Y022524D01*
X010301Y022524D01*
X010106Y022605D01*
X009957Y022754D01*
X009907Y022876D01*
X009856Y022754D01*
X009707Y022605D01*
X009512Y022524D01*
X009301Y022524D01*
X009106Y022605D01*
X008957Y022754D01*
X008907Y022876D01*
X008856Y022754D01*
X008707Y022605D01*
X008512Y022524D01*
X008301Y022524D01*
X008106Y022605D01*
X007957Y022754D01*
X007907Y022876D01*
X007856Y022754D01*
X007707Y022605D01*
X007512Y022524D01*
X007301Y022524D01*
X007106Y022605D01*
X006957Y022754D01*
X006877Y022949D01*
X006877Y023160D01*
X006957Y023354D01*
X007106Y023503D01*
X007301Y023584D01*
X007512Y023584D01*
X007707Y023503D01*
X007856Y023354D01*
X007907Y023232D01*
X007957Y023354D01*
X008106Y023503D01*
X008301Y023584D01*
X008512Y023584D01*
X008707Y023503D01*
X008856Y023354D01*
X008907Y023232D01*
X008957Y023354D01*
X009106Y023503D01*
X009301Y023584D01*
X009512Y023584D01*
X009707Y023503D01*
X009856Y023354D01*
X009907Y023232D01*
X009957Y023354D01*
X010106Y023503D01*
X010301Y023584D01*
X010512Y023584D01*
X010707Y023503D01*
X010856Y023354D01*
X010907Y023232D01*
X010957Y023354D01*
X011106Y023503D01*
X011301Y023584D01*
X011512Y023584D01*
X011707Y023503D01*
X011856Y023354D01*
X011907Y023232D01*
X011957Y023354D01*
X012106Y023503D01*
X012301Y023584D01*
X012512Y023584D01*
X012707Y023503D01*
X012856Y023354D01*
X012907Y023232D01*
X012957Y023354D01*
X013106Y023503D01*
X013301Y023584D01*
X013512Y023584D01*
X013707Y023503D01*
X013856Y023354D01*
X013907Y023232D01*
X013957Y023354D01*
X014106Y023503D01*
X014301Y023584D01*
X014512Y023584D01*
X014707Y023503D01*
X014856Y023354D01*
X014937Y023160D01*
X014937Y022949D01*
X014856Y022754D01*
X014707Y022605D01*
X014512Y022524D01*
X014301Y022524D01*
X014106Y022605D01*
X013957Y022754D01*
X013907Y022876D01*
X013856Y022754D01*
X013707Y022605D01*
X013512Y022524D01*
X013301Y022524D01*
X013106Y022605D01*
X012957Y022754D01*
X012907Y022876D01*
X012860Y022764D01*
X013291Y022334D01*
X013334Y022352D01*
X013545Y022352D01*
X013740Y022271D01*
X013855Y022156D01*
X014904Y022156D01*
X014972Y022224D01*
X014972Y023208D01*
X015100Y023337D01*
X015592Y023828D01*
X006543Y023828D01*
X006543Y020879D01*
X006608Y021036D01*
X006764Y021192D01*
X006968Y021276D01*
X007188Y021276D01*
X007391Y021192D01*
X007547Y021036D01*
X007632Y020833D01*
X007632Y020171D01*
X008539Y019263D01*
X010548Y019263D01*
X010893Y019608D01*
X010893Y019915D01*
X010872Y019924D01*
X010723Y020073D01*
X010643Y020268D01*
X010643Y020478D01*
X010723Y020673D01*
X010872Y020822D01*
X010995Y020873D01*
X010872Y020924D01*
X010723Y021073D01*
X010716Y021091D01*
X010112Y020487D01*
X010112Y019825D01*
X010028Y019622D01*
X009872Y019466D01*
X009668Y019381D01*
X009448Y019381D01*
X009244Y019466D01*
X009089Y019622D01*
X009004Y019825D01*
X009004Y020833D01*
X009089Y021036D01*
X009244Y021192D01*
X009448Y021276D01*
X009668Y021276D01*
X009872Y021192D01*
X009949Y021115D01*
X010444Y021610D01*
X010547Y021653D01*
X010715Y021653D01*
X010723Y021673D01*
X010872Y021822D01*
X011067Y021903D01*
X011278Y021903D01*
X011473Y021822D01*
X011622Y021673D01*
X011703Y021478D01*
X011703Y021268D01*
X011622Y021073D01*
X011473Y020924D01*
X011351Y020873D01*
X011473Y020822D01*
X011622Y020673D01*
X011703Y020478D01*
X011703Y020268D01*
X011622Y020073D01*
X011473Y019924D01*
X011453Y019915D01*
X011453Y019436D01*
X011410Y019333D01*
X010823Y018746D01*
X010720Y018703D01*
X009211Y018703D01*
X009240Y018674D01*
X009324Y018471D01*
X009324Y018250D01*
X009240Y018047D01*
X009084Y017891D01*
X008881Y017807D01*
X007873Y017807D01*
X007670Y017891D01*
X007514Y018047D01*
X007430Y018250D01*
X007430Y018471D01*
X007514Y018674D01*
X007670Y018830D01*
X007873Y018914D01*
X008097Y018914D01*
X007468Y019543D01*
X007391Y019466D01*
X007188Y019381D01*
X006968Y019381D01*
X006764Y019466D01*
X006608Y019622D01*
X006543Y019779D01*
X006543Y019747D02*
X006557Y019747D01*
X006543Y019628D02*
X006606Y019628D01*
X006543Y019510D02*
X006720Y019510D01*
X006543Y019391D02*
X006944Y019391D01*
X007212Y019391D02*
X007619Y019391D01*
X007738Y019273D02*
X006543Y019273D01*
X006543Y019154D02*
X007856Y019154D01*
X007975Y019036D02*
X006543Y019036D01*
X006543Y018917D02*
X008093Y018917D01*
X007639Y018799D02*
X006543Y018799D01*
X006543Y018680D02*
X007520Y018680D01*
X007467Y018562D02*
X006543Y018562D01*
X006543Y018443D02*
X007430Y018443D01*
X007430Y018325D02*
X006543Y018325D01*
X006543Y018206D02*
X007448Y018206D01*
X007497Y018088D02*
X006543Y018088D01*
X006543Y017969D02*
X007591Y017969D01*
X007767Y017851D02*
X006543Y017851D01*
X006543Y017732D02*
X010158Y017732D01*
X010016Y017614D02*
X006543Y017614D01*
X006543Y017495D02*
X009874Y017495D01*
X009731Y017377D02*
X006543Y017377D01*
X006543Y017258D02*
X009657Y017258D01*
X009650Y017140D02*
X006543Y017140D01*
X006543Y017021D02*
X009657Y017021D01*
X009657Y016903D02*
X006543Y016903D01*
X006543Y016784D02*
X009657Y016784D01*
X009657Y016666D02*
X006543Y016666D01*
X006543Y016547D02*
X009657Y016547D01*
X009657Y016429D02*
X006543Y016429D01*
X006543Y016310D02*
X009657Y016310D01*
X009657Y016192D02*
X006543Y016192D01*
X006543Y016073D02*
X009657Y016073D01*
X009657Y015955D02*
X006543Y015955D01*
X006543Y015836D02*
X007957Y015836D01*
X007838Y015718D02*
X006543Y015718D01*
X006543Y015599D02*
X007786Y015599D01*
X007752Y015481D02*
X006543Y015481D01*
X006543Y015362D02*
X007752Y015362D01*
X007778Y015244D02*
X006543Y015244D01*
X006543Y015125D02*
X007827Y015125D01*
X007938Y015007D02*
X006543Y015007D01*
X006543Y014888D02*
X008046Y014888D01*
X007890Y014770D02*
X006543Y014770D01*
X006543Y014651D02*
X007807Y014651D01*
X007758Y014533D02*
X006543Y014533D01*
X006543Y014414D02*
X007752Y014414D01*
X007757Y014296D02*
X006543Y014296D01*
X006543Y014177D02*
X007806Y014177D01*
X007886Y014059D02*
X006543Y014059D01*
X006543Y013940D02*
X007844Y013940D01*
X007752Y013822D02*
X006543Y013822D01*
X006543Y013703D02*
X007752Y013703D01*
X007752Y013585D02*
X006543Y013585D01*
X006543Y013466D02*
X007752Y013466D01*
X007752Y013348D02*
X006543Y013348D01*
X006543Y013229D02*
X007752Y013229D01*
X007752Y013111D02*
X006543Y013111D01*
X006543Y012992D02*
X007752Y012992D01*
X008812Y012992D02*
X009637Y012992D01*
X009637Y012874D02*
X006543Y012874D01*
X006543Y012755D02*
X009637Y012755D01*
X009637Y012637D02*
X006543Y012637D01*
X006543Y012518D02*
X009637Y012518D01*
X009637Y012400D02*
X006543Y012400D01*
X006543Y012281D02*
X009637Y012281D01*
X009637Y012163D02*
X006543Y012163D01*
X006543Y012044D02*
X009637Y012044D01*
X009637Y011926D02*
X006543Y011926D01*
X006543Y011807D02*
X009637Y011807D01*
X009637Y011689D02*
X006543Y011689D01*
X006543Y011570D02*
X009637Y011570D01*
X009637Y011452D02*
X006543Y011452D01*
X006543Y011333D02*
X009637Y011333D01*
X009637Y011215D02*
X006543Y011215D01*
X006543Y011096D02*
X009637Y011096D01*
X009637Y010978D02*
X006543Y010978D01*
X006543Y010859D02*
X009637Y010859D01*
X009637Y010741D02*
X006543Y010741D01*
X006543Y010622D02*
X009637Y010622D01*
X009637Y010504D02*
X006543Y010504D01*
X006543Y010385D02*
X009637Y010385D01*
X009637Y010267D02*
X006543Y010267D01*
X006543Y010148D02*
X009637Y010148D01*
X009637Y010030D02*
X006543Y010030D01*
X006543Y009911D02*
X009637Y009911D01*
X009637Y009793D02*
X006543Y009793D01*
X006543Y009674D02*
X009637Y009674D01*
X009637Y009556D02*
X006543Y009556D01*
X006543Y009437D02*
X009637Y009437D01*
X009637Y009319D02*
X006543Y009319D01*
X006543Y009200D02*
X009637Y009200D01*
X009637Y009082D02*
X006543Y009082D01*
X006543Y008963D02*
X009637Y008963D01*
X009637Y008845D02*
X006543Y008845D01*
X006543Y008726D02*
X009637Y008726D01*
X009637Y008608D02*
X006543Y008608D01*
X006543Y008489D02*
X009637Y008489D01*
X009637Y008371D02*
X006543Y008371D01*
X006543Y008252D02*
X009637Y008252D01*
X009637Y008134D02*
X006543Y008134D01*
X006543Y008015D02*
X009637Y008015D01*
X009637Y007897D02*
X006543Y007897D01*
X006543Y007778D02*
X009637Y007778D01*
X009637Y007660D02*
X006543Y007660D01*
X006543Y007541D02*
X009637Y007541D01*
X009637Y007423D02*
X006543Y007423D01*
X006543Y007304D02*
X009637Y007304D01*
X009637Y007186D02*
X006543Y007186D01*
X006543Y007067D02*
X009637Y007067D01*
X009637Y006949D02*
X009496Y006949D01*
X009614Y006830D02*
X009637Y006830D01*
X010117Y006830D02*
X010892Y006830D01*
X010872Y006822D02*
X010723Y006673D01*
X010643Y006478D01*
X010643Y006268D01*
X010723Y006073D01*
X010872Y005924D01*
X011067Y005843D01*
X011204Y005843D01*
X012395Y004651D01*
X012474Y004573D01*
X012577Y004530D01*
X012771Y004530D01*
X012706Y004503D01*
X012557Y004354D01*
X012507Y004232D01*
X012456Y004354D01*
X012307Y004503D01*
X012112Y004584D01*
X011901Y004584D01*
X011706Y004503D01*
X011557Y004354D01*
X011507Y004232D01*
X011456Y004354D01*
X011307Y004503D01*
X011112Y004584D01*
X010901Y004584D01*
X010706Y004503D01*
X010557Y004354D01*
X010477Y004160D01*
X010477Y003949D01*
X010557Y003754D01*
X010639Y003672D01*
X010399Y003672D01*
X010117Y004095D01*
X010117Y014692D01*
X012656Y012153D01*
X016690Y012153D01*
X016723Y012073D01*
X016872Y011924D01*
X016995Y011873D01*
X016872Y011822D01*
X016723Y011673D01*
X016643Y011478D01*
X016643Y011268D01*
X016723Y011073D01*
X016872Y010924D01*
X017067Y010843D01*
X017278Y010843D01*
X017473Y010924D01*
X017622Y011073D01*
X017703Y011268D01*
X017703Y011478D01*
X017622Y011673D01*
X017473Y011822D01*
X017351Y011873D01*
X017473Y011924D01*
X017622Y012073D01*
X017703Y012268D01*
X017703Y012478D01*
X017622Y012673D01*
X017473Y012822D01*
X017278Y012903D01*
X017067Y012903D01*
X016872Y012822D01*
X016723Y012673D01*
X016690Y012593D01*
X012838Y012593D01*
X010097Y015334D01*
X010097Y017109D01*
X010697Y017608D01*
X010643Y017478D01*
X010643Y017268D01*
X010723Y017073D01*
X010872Y016924D01*
X010995Y016873D01*
X010872Y016822D01*
X010723Y016673D01*
X010643Y016478D01*
X010643Y016268D01*
X010723Y016073D01*
X010097Y016073D01*
X010097Y015955D02*
X010841Y015955D01*
X010872Y015924D02*
X011067Y015843D01*
X011278Y015843D01*
X011473Y015924D01*
X011622Y016073D01*
X011703Y016268D01*
X011703Y016478D01*
X011622Y016673D01*
X011473Y016822D01*
X011351Y016873D01*
X011473Y016924D01*
X011622Y017073D01*
X011655Y017153D01*
X017806Y017153D01*
X018629Y017976D01*
X018758Y018105D01*
X018758Y022494D01*
X018821Y022557D01*
X018901Y022524D01*
X019112Y022524D01*
X019307Y022605D01*
X019456Y022754D01*
X019507Y022876D01*
X019557Y022754D01*
X019706Y022605D01*
X019901Y022524D01*
X020112Y022524D01*
X020203Y022562D01*
X019937Y022295D01*
X019882Y022262D01*
X019874Y022233D01*
X019853Y022212D01*
X019853Y022148D01*
X019780Y021848D01*
X019771Y021848D01*
X019576Y021767D01*
X019427Y021618D01*
X019347Y021423D01*
X019347Y021212D01*
X019427Y021018D01*
X019576Y020869D01*
X019699Y020818D01*
X019576Y020767D01*
X019427Y020618D01*
X019347Y020423D01*
X019347Y020212D01*
X019427Y020018D01*
X019576Y019869D01*
X019626Y019848D01*
X019440Y019848D01*
X019347Y019754D01*
X019347Y018882D01*
X019440Y018788D01*
X020313Y018788D01*
X020407Y018882D01*
X020407Y019098D01*
X022358Y019098D01*
X022358Y018882D01*
X022452Y018788D01*
X023325Y018788D01*
X023418Y018882D01*
X023418Y019090D01*
X025307Y019090D01*
X025307Y018874D01*
X025401Y018780D01*
X026274Y018780D01*
X026367Y018874D01*
X026367Y019746D01*
X026274Y019840D01*
X026088Y019840D01*
X026137Y019861D01*
X026287Y020010D01*
X026367Y020205D01*
X026367Y020415D01*
X026287Y020610D01*
X026137Y020759D01*
X026015Y020810D01*
X026137Y020861D01*
X026287Y021010D01*
X026367Y021205D01*
X026367Y021415D01*
X026287Y021610D01*
X026137Y021759D01*
X025943Y021840D01*
X025732Y021840D01*
X025537Y021759D01*
X025388Y021610D01*
X025307Y021415D01*
X025307Y021205D01*
X025388Y021010D01*
X025537Y020861D01*
X025659Y020810D01*
X025537Y020759D01*
X025388Y020610D01*
X025307Y020415D01*
X025307Y020205D01*
X025388Y020010D01*
X025537Y019861D01*
X025587Y019840D01*
X025401Y019840D01*
X025307Y019746D01*
X025307Y019530D01*
X023418Y019530D01*
X023418Y019754D01*
X023325Y019848D01*
X023139Y019848D01*
X023189Y019869D01*
X023338Y020018D01*
X023418Y020212D01*
X023418Y020423D01*
X023338Y020618D01*
X023189Y020767D01*
X023066Y020818D01*
X023189Y020869D01*
X023338Y021018D01*
X023418Y021212D01*
X023418Y021423D01*
X023385Y021504D01*
X023876Y021994D01*
X023876Y023405D01*
X023747Y023534D01*
X023482Y023799D01*
X023453Y023828D01*
X033181Y023828D01*
X033031Y023766D01*
X032795Y023530D01*
X032667Y023221D01*
X032667Y022887D01*
X032795Y022578D01*
X033031Y022342D01*
X033147Y022294D01*
X032553Y022294D01*
X032465Y022258D01*
X032398Y022190D01*
X032090Y021882D01*
X032029Y021907D01*
X031818Y021907D01*
X031624Y021826D01*
X031475Y021677D01*
X031394Y021482D01*
X031394Y021271D01*
X031475Y021077D01*
X031624Y020928D01*
X031746Y020877D01*
X031624Y020826D01*
X031595Y020798D01*
X031247Y020798D01*
X031247Y022580D01*
X031307Y022605D01*
X031456Y022754D01*
X031507Y022876D01*
X031557Y022754D01*
X031706Y022605D01*
X031901Y022524D01*
X032112Y022524D01*
X032307Y022605D01*
X032456Y022754D01*
X032537Y022949D01*
X032537Y023160D01*
X032456Y023354D01*
X032307Y023503D01*
X032112Y023584D01*
X031901Y023584D01*
X031706Y023503D01*
X031557Y023354D01*
X031507Y023232D01*
X031456Y023354D01*
X031307Y023503D01*
X031112Y023584D01*
X030901Y023584D01*
X030706Y023503D01*
X030557Y023354D01*
X030507Y023232D01*
X030456Y023354D01*
X030307Y023503D01*
X030112Y023584D01*
X029901Y023584D01*
X029706Y023503D01*
X029557Y023354D01*
X029507Y023232D01*
X029456Y023354D01*
X029307Y023503D01*
X029112Y023584D01*
X028901Y023584D01*
X028706Y023503D01*
X028557Y023354D01*
X028507Y023232D01*
X028456Y023354D01*
X028307Y023503D01*
X028112Y023584D01*
X027901Y023584D01*
X027706Y023503D01*
X027557Y023354D01*
X027507Y023232D01*
X027456Y023354D01*
X027307Y023503D01*
X027112Y023584D01*
X026901Y023584D01*
X026706Y023503D01*
X026557Y023354D01*
X026507Y023232D01*
X026456Y023354D01*
X026307Y023503D01*
X026112Y023584D01*
X025901Y023584D01*
X025706Y023503D01*
X025557Y023354D01*
X025507Y023232D01*
X025456Y023354D01*
X025307Y023503D01*
X025112Y023584D01*
X024901Y023584D01*
X024706Y023503D01*
X024557Y023354D01*
X024477Y023160D01*
X024477Y022949D01*
X024557Y022754D01*
X024706Y022605D01*
X024791Y022570D01*
X024595Y022570D01*
X024595Y022584D01*
X024501Y022678D01*
X023992Y022678D01*
X023899Y022584D01*
X023899Y022075D01*
X023992Y021982D01*
X024501Y021982D01*
X024595Y022075D01*
X024595Y022090D01*
X030306Y022090D01*
X030306Y018770D01*
X030342Y018682D01*
X030410Y018614D01*
X031419Y017606D01*
X031394Y017545D01*
X031394Y017334D01*
X031475Y017140D01*
X031474Y017140D02*
X028425Y017140D01*
X028425Y017258D02*
X031425Y017258D01*
X031394Y017377D02*
X028408Y017377D01*
X028425Y017335D02*
X028364Y017482D01*
X028252Y017595D01*
X028207Y017613D01*
X028207Y020664D01*
X028518Y020975D01*
X028577Y020916D01*
X028700Y020865D01*
X028577Y020814D01*
X028428Y020665D01*
X028348Y020471D01*
X028348Y020260D01*
X028428Y020065D01*
X028577Y019916D01*
X028627Y019895D01*
X028441Y019895D01*
X028348Y019801D01*
X028348Y018929D01*
X028441Y018835D01*
X029314Y018835D01*
X029408Y018929D01*
X029408Y019595D01*
X029621Y019404D01*
X029803Y019414D01*
X029924Y019550D01*
X029914Y019732D01*
X029385Y020206D01*
X029408Y020260D01*
X029408Y020471D01*
X029327Y020665D01*
X029178Y020814D01*
X029055Y020865D01*
X029178Y020916D01*
X029327Y021065D01*
X029408Y021260D01*
X029408Y021471D01*
X029327Y021665D01*
X029178Y021814D01*
X028983Y021895D01*
X028772Y021895D01*
X028577Y021814D01*
X028428Y021665D01*
X028348Y021471D01*
X028348Y021427D01*
X027896Y020975D01*
X027767Y020846D01*
X027767Y017563D01*
X027686Y017482D01*
X027625Y017335D01*
X027625Y016696D01*
X027686Y016549D01*
X027799Y016437D01*
X027946Y016376D01*
X028105Y016376D01*
X028252Y016437D01*
X028364Y016549D01*
X028425Y016696D01*
X028425Y017335D01*
X028351Y017495D02*
X031394Y017495D01*
X031411Y017614D02*
X028207Y017614D01*
X028207Y017732D02*
X031292Y017732D01*
X031174Y017851D02*
X028207Y017851D01*
X028207Y017969D02*
X031055Y017969D01*
X030937Y018088D02*
X028207Y018088D01*
X028207Y018206D02*
X030818Y018206D01*
X030700Y018325D02*
X028207Y018325D01*
X028207Y018443D02*
X030581Y018443D01*
X030463Y018562D02*
X028207Y018562D01*
X028207Y018680D02*
X030344Y018680D01*
X030306Y018799D02*
X028207Y018799D01*
X028207Y018917D02*
X028359Y018917D01*
X028348Y019036D02*
X028207Y019036D01*
X028207Y019154D02*
X028348Y019154D01*
X028348Y019273D02*
X028207Y019273D01*
X028207Y019391D02*
X028348Y019391D01*
X028348Y019510D02*
X028207Y019510D01*
X028207Y019628D02*
X028348Y019628D01*
X028348Y019747D02*
X028207Y019747D01*
X028207Y019865D02*
X028412Y019865D01*
X028509Y019984D02*
X028207Y019984D01*
X028207Y020102D02*
X028413Y020102D01*
X028364Y020221D02*
X028207Y020221D01*
X028207Y020339D02*
X028348Y020339D01*
X028348Y020458D02*
X028207Y020458D01*
X028207Y020576D02*
X028391Y020576D01*
X028458Y020695D02*
X028238Y020695D01*
X028357Y020813D02*
X028576Y020813D01*
X028561Y020932D02*
X028475Y020932D01*
X028208Y021287D02*
X026367Y021287D01*
X026367Y021406D02*
X028327Y021406D01*
X028370Y021524D02*
X026322Y021524D01*
X026254Y021643D02*
X028419Y021643D01*
X028524Y021761D02*
X026132Y021761D01*
X025542Y021761D02*
X023643Y021761D01*
X023525Y021643D02*
X025421Y021643D01*
X025352Y021524D02*
X023406Y021524D01*
X023418Y021406D02*
X025307Y021406D01*
X025307Y021287D02*
X023418Y021287D01*
X023400Y021169D02*
X025322Y021169D01*
X025371Y021050D02*
X023351Y021050D01*
X023252Y020932D02*
X025466Y020932D01*
X025651Y020813D02*
X023077Y020813D01*
X023261Y020695D02*
X025473Y020695D01*
X025374Y020576D02*
X023355Y020576D01*
X023404Y020458D02*
X025325Y020458D01*
X025307Y020339D02*
X023418Y020339D01*
X023418Y020221D02*
X025307Y020221D01*
X025350Y020102D02*
X023373Y020102D01*
X023304Y019984D02*
X025414Y019984D01*
X025532Y019865D02*
X023181Y019865D01*
X023418Y019747D02*
X025308Y019747D01*
X025307Y019628D02*
X023418Y019628D01*
X023418Y019036D02*
X025307Y019036D01*
X025307Y018917D02*
X023418Y018917D01*
X023336Y018799D02*
X025382Y018799D01*
X025837Y019310D02*
X022896Y019310D01*
X022888Y019318D01*
X019877Y019318D01*
X019347Y019273D02*
X018758Y019273D01*
X018758Y019391D02*
X019347Y019391D01*
X019347Y019510D02*
X018758Y019510D01*
X018758Y019628D02*
X019347Y019628D01*
X019347Y019747D02*
X018758Y019747D01*
X018758Y019865D02*
X019584Y019865D01*
X019461Y019984D02*
X018758Y019984D01*
X018758Y020102D02*
X019392Y020102D01*
X019347Y020221D02*
X018758Y020221D01*
X018758Y020339D02*
X019347Y020339D01*
X019361Y020458D02*
X018758Y020458D01*
X018758Y020576D02*
X019410Y020576D01*
X019504Y020695D02*
X018758Y020695D01*
X018758Y020813D02*
X019688Y020813D01*
X019513Y020932D02*
X018758Y020932D01*
X018758Y021050D02*
X019414Y021050D01*
X019365Y021169D02*
X018758Y021169D01*
X018758Y021287D02*
X019347Y021287D01*
X019347Y021406D02*
X018758Y021406D01*
X018758Y021524D02*
X019389Y021524D01*
X019452Y021643D02*
X018758Y021643D01*
X018758Y021761D02*
X019571Y021761D01*
X019788Y021880D02*
X018758Y021880D01*
X018758Y021998D02*
X019817Y021998D01*
X019846Y022117D02*
X018758Y022117D01*
X018758Y022235D02*
X019875Y022235D01*
X019995Y022354D02*
X018758Y022354D01*
X018758Y022472D02*
X020114Y022472D01*
X020073Y022121D02*
X021007Y023054D01*
X021390Y023420D02*
X021623Y023420D01*
X021557Y023354D02*
X021691Y023488D01*
X021323Y023488D01*
X021456Y023354D01*
X021507Y023232D01*
X021557Y023354D01*
X021536Y023302D02*
X021478Y023302D01*
X021507Y022876D02*
X021557Y022754D01*
X021706Y022605D01*
X021901Y022524D01*
X022112Y022524D01*
X022307Y022605D01*
X022456Y022754D01*
X022507Y022876D01*
X022557Y022754D01*
X022706Y022605D01*
X022901Y022524D01*
X023112Y022524D01*
X023307Y022605D01*
X023436Y022734D01*
X023436Y022177D01*
X023074Y021815D01*
X022994Y021848D01*
X022783Y021848D01*
X022588Y021767D01*
X022439Y021618D01*
X022358Y021423D01*
X022358Y021212D01*
X022439Y021018D01*
X022588Y020869D01*
X022711Y020818D01*
X022588Y020767D01*
X022439Y020618D01*
X022406Y020538D01*
X020359Y020538D01*
X020326Y020618D01*
X020177Y020767D01*
X020054Y020818D01*
X020177Y020869D01*
X020326Y021018D01*
X020407Y021212D01*
X020407Y021423D01*
X020326Y021618D01*
X020206Y021738D01*
X020273Y022009D01*
X020821Y022557D01*
X020901Y022524D01*
X021112Y022524D01*
X021307Y022605D01*
X021456Y022754D01*
X021507Y022876D01*
X021487Y022828D02*
X021527Y022828D01*
X021602Y022709D02*
X021411Y022709D01*
X021273Y022591D02*
X021740Y022591D01*
X022273Y022591D02*
X022740Y022591D01*
X022602Y022709D02*
X022411Y022709D01*
X022487Y022828D02*
X022527Y022828D01*
X022507Y023232D02*
X022456Y023354D01*
X022323Y023488D01*
X022691Y023488D01*
X022557Y023354D01*
X022507Y023232D01*
X022478Y023302D02*
X022536Y023302D01*
X022623Y023420D02*
X022390Y023420D01*
X023262Y023708D02*
X015782Y023708D01*
X015192Y023117D01*
X015192Y022133D01*
X014995Y021936D01*
X013554Y021936D01*
X013440Y021822D01*
X013939Y021643D02*
X015759Y021643D01*
X015759Y021761D02*
X015131Y021761D01*
X015250Y021880D02*
X015759Y021880D01*
X015759Y021998D02*
X015368Y021998D01*
X015412Y022117D02*
X015759Y022117D01*
X015759Y022235D02*
X015412Y022235D01*
X015412Y022354D02*
X015759Y022354D01*
X015759Y022472D02*
X015412Y022472D01*
X015412Y022591D02*
X015740Y022591D01*
X015602Y022709D02*
X015412Y022709D01*
X015412Y022828D02*
X015527Y022828D01*
X015478Y022946D02*
X015412Y022946D01*
X015451Y023065D02*
X015477Y023065D01*
X015782Y023117D02*
X015979Y022920D01*
X015979Y020755D01*
X016361Y020373D01*
X017173Y020373D01*
X017533Y019984D02*
X017924Y019984D01*
X017924Y020102D02*
X017634Y020102D01*
X017683Y020221D02*
X017924Y020221D01*
X017924Y020339D02*
X017703Y020339D01*
X017703Y020458D02*
X017924Y020458D01*
X017924Y020576D02*
X017662Y020576D01*
X017600Y020695D02*
X017924Y020695D01*
X017924Y020813D02*
X017482Y020813D01*
X017481Y020932D02*
X017924Y020932D01*
X017924Y021050D02*
X017600Y021050D01*
X017662Y021169D02*
X017924Y021169D01*
X017924Y021287D02*
X017703Y021287D01*
X017703Y021406D02*
X017924Y021406D01*
X017924Y021524D02*
X017684Y021524D01*
X017635Y021643D02*
X017924Y021643D01*
X017924Y021761D02*
X017534Y021761D01*
X017393Y021880D02*
X017924Y021880D01*
X017924Y021998D02*
X017393Y021998D01*
X017393Y022117D02*
X017924Y022117D01*
X017924Y022235D02*
X017393Y022235D01*
X017393Y022354D02*
X017924Y022354D01*
X017924Y022472D02*
X017393Y022472D01*
X017393Y022591D02*
X017740Y022591D01*
X017602Y022709D02*
X017411Y022709D01*
X017487Y022828D02*
X017527Y022828D01*
X017173Y022888D02*
X017007Y023054D01*
X017173Y022888D02*
X017173Y021373D01*
X016684Y021169D02*
X016199Y021169D01*
X016199Y021287D02*
X016643Y021287D01*
X016643Y021268D02*
X016723Y021073D01*
X016872Y020924D01*
X016995Y020873D01*
X016872Y020822D01*
X016723Y020673D01*
X016690Y020593D01*
X016452Y020593D01*
X016199Y020846D01*
X016199Y022560D01*
X016307Y022605D01*
X016456Y022754D01*
X016507Y022876D01*
X016557Y022754D01*
X016706Y022605D01*
X016901Y022524D01*
X016953Y022524D01*
X016953Y021856D01*
X016872Y021822D01*
X016723Y021673D01*
X016643Y021478D01*
X016643Y021268D01*
X016643Y021406D02*
X016199Y021406D01*
X016199Y021524D02*
X016662Y021524D01*
X016711Y021643D02*
X016199Y021643D01*
X016199Y021761D02*
X016812Y021761D01*
X016953Y021880D02*
X016199Y021880D01*
X016199Y021998D02*
X016953Y021998D01*
X016953Y022117D02*
X016199Y022117D01*
X016199Y022235D02*
X016953Y022235D01*
X016953Y022354D02*
X016199Y022354D01*
X016199Y022472D02*
X016953Y022472D01*
X016740Y022591D02*
X016273Y022591D01*
X016411Y022709D02*
X016602Y022709D01*
X016527Y022828D02*
X016487Y022828D01*
X016507Y023232D02*
X016456Y023354D01*
X016323Y023488D01*
X016691Y023488D01*
X016557Y023354D01*
X016507Y023232D01*
X016478Y023302D02*
X016536Y023302D01*
X016623Y023420D02*
X016390Y023420D01*
X016007Y023054D02*
X015944Y023117D01*
X015782Y023117D01*
X015302Y023539D02*
X014621Y023539D01*
X014790Y023420D02*
X015184Y023420D01*
X015065Y023302D02*
X014878Y023302D01*
X014927Y023183D02*
X014972Y023183D01*
X014972Y023065D02*
X014937Y023065D01*
X014936Y022946D02*
X014972Y022946D01*
X014972Y022828D02*
X014887Y022828D01*
X014811Y022709D02*
X014972Y022709D01*
X014972Y022591D02*
X014673Y022591D01*
X014972Y022472D02*
X013152Y022472D01*
X013140Y022591D02*
X013034Y022591D01*
X013002Y022709D02*
X012915Y022709D01*
X012927Y022828D02*
X012887Y022828D01*
X012615Y022472D02*
X006543Y022472D01*
X006543Y022354D02*
X012733Y022354D01*
X012852Y022235D02*
X006543Y022235D01*
X006543Y022117D02*
X012970Y022117D01*
X012939Y021998D02*
X006543Y021998D01*
X006543Y021880D02*
X011011Y021880D01*
X010812Y021761D02*
X006543Y021761D01*
X006543Y021643D02*
X010522Y021643D01*
X010358Y021524D02*
X006543Y021524D01*
X006543Y021406D02*
X010239Y021406D01*
X010121Y021287D02*
X006543Y021287D01*
X006543Y021169D02*
X006741Y021169D01*
X006623Y021050D02*
X006543Y021050D01*
X006543Y020932D02*
X006565Y020932D01*
X007415Y021169D02*
X009221Y021169D01*
X009103Y021050D02*
X007533Y021050D01*
X007590Y020932D02*
X009046Y020932D01*
X009004Y020813D02*
X007632Y020813D01*
X007632Y020695D02*
X009004Y020695D01*
X009004Y020576D02*
X007632Y020576D01*
X007632Y020458D02*
X009004Y020458D01*
X009004Y020339D02*
X007632Y020339D01*
X007632Y020221D02*
X009004Y020221D01*
X009004Y020102D02*
X007700Y020102D01*
X007819Y019984D02*
X009004Y019984D01*
X009004Y019865D02*
X007937Y019865D01*
X008056Y019747D02*
X009037Y019747D01*
X009086Y019628D02*
X008174Y019628D01*
X008293Y019510D02*
X009200Y019510D01*
X009424Y019391D02*
X008411Y019391D01*
X008530Y019273D02*
X010558Y019273D01*
X010676Y019391D02*
X009692Y019391D01*
X009916Y019510D02*
X010795Y019510D01*
X010893Y019628D02*
X010030Y019628D01*
X010079Y019747D02*
X010893Y019747D01*
X010893Y019865D02*
X010112Y019865D01*
X010112Y019984D02*
X010812Y019984D01*
X010711Y020102D02*
X010112Y020102D01*
X010112Y020221D02*
X010662Y020221D01*
X010643Y020339D02*
X010112Y020339D01*
X010112Y020458D02*
X010643Y020458D01*
X010683Y020576D02*
X010202Y020576D01*
X010320Y020695D02*
X010745Y020695D01*
X010864Y020813D02*
X010439Y020813D01*
X010557Y020932D02*
X010864Y020932D01*
X010746Y021050D02*
X010676Y021050D01*
X010002Y021169D02*
X009895Y021169D01*
X011481Y020932D02*
X015759Y020932D01*
X015759Y021050D02*
X011600Y021050D01*
X011662Y021169D02*
X015759Y021169D01*
X015759Y021287D02*
X011703Y021287D01*
X011703Y021406D02*
X013106Y021406D01*
X012989Y021524D02*
X011684Y021524D01*
X011635Y021643D02*
X012940Y021643D01*
X012910Y021761D02*
X011534Y021761D01*
X011334Y021880D02*
X012910Y021880D01*
X013271Y022354D02*
X014972Y022354D01*
X014972Y022235D02*
X013776Y022235D01*
X013673Y022591D02*
X014140Y022591D01*
X014002Y022709D02*
X013811Y022709D01*
X013887Y022828D02*
X013927Y022828D01*
X013936Y023302D02*
X013878Y023302D01*
X013790Y023420D02*
X014023Y023420D01*
X014192Y023539D02*
X013621Y023539D01*
X013192Y023539D02*
X012621Y023539D01*
X012790Y023420D02*
X013023Y023420D01*
X012936Y023302D02*
X012878Y023302D01*
X012192Y023539D02*
X011621Y023539D01*
X011790Y023420D02*
X012023Y023420D01*
X011936Y023302D02*
X011878Y023302D01*
X011192Y023539D02*
X010621Y023539D01*
X010790Y023420D02*
X011023Y023420D01*
X010936Y023302D02*
X010878Y023302D01*
X010887Y022828D02*
X010927Y022828D01*
X011002Y022709D02*
X010811Y022709D01*
X010673Y022591D02*
X011140Y022591D01*
X011673Y022591D02*
X012140Y022591D01*
X012002Y022709D02*
X011811Y022709D01*
X011887Y022828D02*
X011927Y022828D01*
X010140Y022591D02*
X009673Y022591D01*
X009811Y022709D02*
X010002Y022709D01*
X009927Y022828D02*
X009887Y022828D01*
X009878Y023302D02*
X009936Y023302D01*
X010023Y023420D02*
X009790Y023420D01*
X009621Y023539D02*
X010192Y023539D01*
X009192Y023539D02*
X008621Y023539D01*
X008790Y023420D02*
X009023Y023420D01*
X008936Y023302D02*
X008878Y023302D01*
X008887Y022828D02*
X008927Y022828D01*
X009002Y022709D02*
X008811Y022709D01*
X008673Y022591D02*
X009140Y022591D01*
X008140Y022591D02*
X007673Y022591D01*
X007811Y022709D02*
X008002Y022709D01*
X007927Y022828D02*
X007887Y022828D01*
X007878Y023302D02*
X007936Y023302D01*
X008023Y023420D02*
X007790Y023420D01*
X007621Y023539D02*
X008192Y023539D01*
X007192Y023539D02*
X006543Y023539D01*
X006543Y023657D02*
X015421Y023657D01*
X015539Y023776D02*
X006543Y023776D01*
X006543Y023420D02*
X007023Y023420D01*
X006936Y023302D02*
X006543Y023302D01*
X006543Y023183D02*
X006886Y023183D01*
X006877Y023065D02*
X006543Y023065D01*
X006543Y022946D02*
X006878Y022946D01*
X006927Y022828D02*
X006543Y022828D01*
X006543Y022709D02*
X007002Y022709D01*
X007140Y022591D02*
X006543Y022591D01*
X011482Y020813D02*
X015759Y020813D01*
X015759Y020695D02*
X011600Y020695D01*
X011662Y020576D02*
X015846Y020576D01*
X015965Y020458D02*
X011703Y020458D01*
X011703Y020339D02*
X016083Y020339D01*
X016202Y020221D02*
X011683Y020221D01*
X011634Y020102D02*
X016711Y020102D01*
X016812Y019984D02*
X011533Y019984D01*
X011453Y019865D02*
X016976Y019865D01*
X016797Y019747D02*
X011453Y019747D01*
X011453Y019628D02*
X016705Y019628D01*
X016656Y019510D02*
X011453Y019510D01*
X011434Y019391D02*
X016643Y019391D01*
X016643Y019273D02*
X013736Y019273D01*
X013857Y019154D02*
X016690Y019154D01*
X016760Y019036D02*
X013925Y019036D01*
X013970Y018917D02*
X016888Y018917D01*
X017458Y018917D02*
X017924Y018917D01*
X017924Y019036D02*
X017585Y019036D01*
X017656Y019154D02*
X017924Y019154D01*
X017924Y019273D02*
X017703Y019273D01*
X017703Y019391D02*
X017924Y019391D01*
X017924Y019510D02*
X017690Y019510D01*
X017641Y019628D02*
X017924Y019628D01*
X017924Y019747D02*
X017548Y019747D01*
X017369Y019865D02*
X017924Y019865D01*
X018758Y019154D02*
X019347Y019154D01*
X019347Y019036D02*
X018758Y019036D01*
X018758Y018917D02*
X019347Y018917D01*
X019429Y018799D02*
X018758Y018799D01*
X018758Y018680D02*
X027767Y018680D01*
X027767Y018562D02*
X018758Y018562D01*
X018758Y018443D02*
X027767Y018443D01*
X027767Y018325D02*
X018758Y018325D01*
X018758Y018206D02*
X027767Y018206D01*
X027767Y018088D02*
X018741Y018088D01*
X018623Y017969D02*
X027767Y017969D01*
X027767Y017851D02*
X023188Y017851D01*
X023163Y017861D02*
X023004Y017861D01*
X022857Y017801D01*
X022744Y017688D01*
X022683Y017541D01*
X022683Y016902D01*
X022729Y016792D01*
X022384Y016447D01*
X020727Y016447D01*
X020727Y016797D01*
X020744Y016755D01*
X020857Y016642D01*
X021004Y016581D01*
X021163Y016581D01*
X021310Y016642D01*
X021422Y016755D01*
X021483Y016902D01*
X021483Y017541D01*
X021422Y017688D01*
X021310Y017801D01*
X021163Y017861D01*
X021004Y017861D01*
X020857Y017801D01*
X020744Y017688D01*
X020683Y017541D01*
X020683Y016933D01*
X020483Y017133D01*
X020483Y017541D01*
X020422Y017688D01*
X020310Y017801D01*
X020163Y017861D01*
X020004Y017861D01*
X019857Y017801D01*
X019744Y017688D01*
X019683Y017541D01*
X019683Y016902D01*
X019744Y016755D01*
X019857Y016642D01*
X020004Y016581D01*
X020163Y016581D01*
X020287Y016633D01*
X020287Y014810D01*
X020163Y014861D01*
X020004Y014861D01*
X019857Y014801D01*
X019744Y014688D01*
X019683Y014541D01*
X019683Y013902D01*
X019744Y013755D01*
X019857Y013642D01*
X020004Y013581D01*
X020163Y013581D01*
X020287Y013633D01*
X020287Y013577D01*
X020415Y013448D01*
X021916Y011947D01*
X021916Y011395D01*
X021836Y011362D01*
X021687Y011213D01*
X021606Y011018D01*
X021606Y010807D01*
X021687Y010612D01*
X021836Y010463D01*
X022031Y010382D01*
X022242Y010382D01*
X022437Y010463D01*
X022586Y010612D01*
X022666Y010807D01*
X022666Y011018D01*
X022586Y011213D01*
X022437Y011362D01*
X022356Y011395D01*
X022356Y012129D01*
X020727Y013759D01*
X020727Y013797D01*
X020744Y013755D01*
X020857Y013642D01*
X021004Y013581D01*
X021070Y013581D01*
X021400Y013251D01*
X022369Y013251D01*
X022566Y013448D01*
X022566Y013448D01*
X022695Y013577D01*
X022695Y013582D01*
X022806Y013693D01*
X022846Y013653D01*
X022846Y008264D01*
X022796Y008313D01*
X022415Y008313D01*
X022145Y008044D01*
X022145Y007898D01*
X020547Y009496D01*
X020547Y009496D01*
X020468Y009575D01*
X020365Y009618D01*
X011645Y009618D01*
X011622Y009673D01*
X011473Y009822D01*
X011278Y009903D01*
X011067Y009903D01*
X010872Y009822D01*
X010723Y009673D01*
X010643Y009478D01*
X010643Y009268D01*
X010723Y009073D01*
X010872Y008924D01*
X010995Y008873D01*
X010872Y008822D01*
X010723Y008673D01*
X010643Y008478D01*
X010643Y008268D01*
X010723Y008073D01*
X010872Y007924D01*
X010995Y007873D01*
X010872Y007822D01*
X010723Y007673D01*
X010643Y007478D01*
X010643Y007268D01*
X010723Y007073D01*
X010872Y006924D01*
X010995Y006873D01*
X010872Y006822D01*
X010847Y006949D02*
X010117Y006949D01*
X010117Y007067D02*
X010729Y007067D01*
X010677Y007186D02*
X010117Y007186D01*
X010117Y007304D02*
X010643Y007304D01*
X010643Y007423D02*
X010117Y007423D01*
X010117Y007541D02*
X010669Y007541D01*
X010718Y007660D02*
X010117Y007660D01*
X010117Y007778D02*
X010829Y007778D01*
X010937Y007897D02*
X010117Y007897D01*
X010117Y008015D02*
X010781Y008015D01*
X010698Y008134D02*
X010117Y008134D01*
X010117Y008252D02*
X010649Y008252D01*
X010643Y008371D02*
X010117Y008371D01*
X010117Y008489D02*
X010647Y008489D01*
X010696Y008608D02*
X010117Y008608D01*
X010117Y008726D02*
X010777Y008726D01*
X010927Y008845D02*
X010117Y008845D01*
X010117Y008963D02*
X010833Y008963D01*
X010720Y009082D02*
X010117Y009082D01*
X010117Y009200D02*
X010671Y009200D01*
X010643Y009319D02*
X010117Y009319D01*
X010117Y009437D02*
X010643Y009437D01*
X010675Y009556D02*
X010117Y009556D01*
X010117Y009674D02*
X010725Y009674D01*
X010843Y009793D02*
X010117Y009793D01*
X010117Y009911D02*
X022846Y009911D01*
X022846Y009793D02*
X011502Y009793D01*
X011621Y009674D02*
X022846Y009674D01*
X022846Y009556D02*
X020487Y009556D01*
X020606Y009437D02*
X022846Y009437D01*
X022846Y009319D02*
X020724Y009319D01*
X020843Y009200D02*
X022846Y009200D01*
X022846Y009082D02*
X020961Y009082D01*
X021080Y008963D02*
X022846Y008963D01*
X022846Y008845D02*
X021198Y008845D01*
X021317Y008726D02*
X022846Y008726D01*
X022846Y008608D02*
X021435Y008608D01*
X021554Y008489D02*
X022846Y008489D01*
X022846Y008371D02*
X021672Y008371D01*
X021791Y008252D02*
X022354Y008252D01*
X022236Y008134D02*
X021909Y008134D01*
X022028Y008015D02*
X022145Y008015D01*
X022605Y007853D02*
X023066Y008126D01*
X023685Y007853D01*
X024765Y007853D01*
X025845Y007853D01*
X025507Y007541D02*
X025104Y007541D01*
X025196Y007633D02*
X025415Y007633D01*
X025655Y007393D01*
X026036Y007393D01*
X026305Y007663D01*
X026305Y008044D01*
X026036Y008313D01*
X025655Y008313D01*
X025415Y008073D01*
X025196Y008073D01*
X024956Y008313D01*
X024575Y008313D01*
X024335Y008073D01*
X024116Y008073D01*
X023876Y008313D01*
X023495Y008313D01*
X023401Y008219D01*
X023286Y008270D01*
X023286Y013632D01*
X023310Y013642D01*
X023422Y013755D01*
X023483Y013902D01*
X023483Y014541D01*
X023447Y014629D01*
X024882Y014629D01*
X024799Y014595D01*
X024686Y014482D01*
X024625Y014335D01*
X024625Y013696D01*
X024686Y013549D01*
X024799Y013437D01*
X024946Y013376D01*
X025105Y013376D01*
X025252Y013437D01*
X025364Y013549D01*
X025425Y013696D01*
X025425Y014335D01*
X025364Y014482D01*
X025252Y014595D01*
X025168Y014629D01*
X025534Y014629D01*
X025685Y014478D01*
X025625Y014335D01*
X025625Y013696D01*
X025686Y013549D01*
X025799Y013437D01*
X025946Y013376D01*
X026105Y013376D01*
X026252Y013437D01*
X026364Y013549D01*
X026425Y013696D01*
X026425Y014305D01*
X026625Y014105D01*
X026625Y013696D01*
X026686Y013549D01*
X026799Y013437D01*
X026946Y013376D01*
X027105Y013376D01*
X027252Y013437D01*
X027364Y013549D01*
X027425Y013696D01*
X027425Y014335D01*
X027364Y014482D01*
X027252Y014595D01*
X027217Y014609D01*
X027834Y014609D01*
X027799Y014595D01*
X027686Y014482D01*
X027625Y014335D01*
X027625Y013696D01*
X027686Y013549D01*
X027799Y013437D01*
X027946Y013376D01*
X028105Y013376D01*
X028252Y013437D01*
X028364Y013549D01*
X028425Y013696D01*
X028425Y014335D01*
X028364Y014482D01*
X028252Y014595D01*
X028217Y014609D01*
X029265Y014609D01*
X029912Y013963D01*
X029912Y012390D01*
X029312Y011789D01*
X029244Y011722D01*
X029208Y011633D01*
X029208Y011367D01*
X029147Y011342D01*
X028998Y011193D01*
X028918Y010998D01*
X028918Y010787D01*
X028951Y010707D01*
X028865Y010622D01*
X028865Y008284D01*
X028625Y008044D01*
X028625Y007663D01*
X028820Y007468D01*
X028804Y007468D01*
X028529Y007193D01*
X028355Y007193D01*
X028085Y006924D01*
X028085Y006543D01*
X028355Y006273D01*
X028736Y006273D01*
X029005Y006543D01*
X029005Y006924D01*
X028944Y006985D01*
X028986Y007028D01*
X029270Y007028D01*
X029165Y006924D01*
X029165Y006543D01*
X029435Y006273D01*
X029816Y006273D01*
X029994Y006451D01*
X030727Y006451D01*
X030856Y006580D01*
X031738Y007463D01*
X031735Y007453D01*
X031735Y007134D01*
X031818Y006826D01*
X031977Y006550D01*
X032203Y006325D01*
X032478Y006166D01*
X032786Y006083D01*
X033105Y006083D01*
X033413Y006166D01*
X033688Y006325D01*
X033914Y006550D01*
X034073Y006826D01*
X034155Y007134D01*
X034155Y007453D01*
X034073Y007760D01*
X033914Y008036D01*
X033688Y008261D01*
X033413Y008421D01*
X033105Y008503D01*
X032786Y008503D01*
X032776Y008500D01*
X033393Y009118D01*
X033522Y009246D01*
X033522Y011258D01*
X034477Y012213D01*
X034477Y011835D01*
X034757Y011554D01*
X034477Y011274D01*
X034477Y010835D01*
X034757Y010554D01*
X034477Y010274D01*
X034477Y009835D01*
X034757Y009554D01*
X034477Y009274D01*
X034477Y008835D01*
X034757Y008554D01*
X034477Y008274D01*
X034477Y007835D01*
X034757Y007554D01*
X034477Y007274D01*
X034477Y006835D01*
X034778Y006533D01*
X034706Y006503D01*
X034557Y006354D01*
X034477Y006160D01*
X034477Y005949D01*
X034557Y005754D01*
X034706Y005605D01*
X034901Y005524D01*
X035112Y005524D01*
X035307Y005605D01*
X035456Y005754D01*
X035507Y005876D01*
X035557Y005754D01*
X035706Y005605D01*
X035901Y005524D01*
X036112Y005524D01*
X036307Y005605D01*
X036456Y005754D01*
X036537Y005949D01*
X036537Y006160D01*
X036456Y006354D01*
X036307Y006503D01*
X036235Y006533D01*
X036537Y006835D01*
X036537Y007274D01*
X036256Y007554D01*
X036537Y007835D01*
X036537Y008274D01*
X036256Y008554D01*
X036537Y008835D01*
X036537Y009274D01*
X036256Y009554D01*
X036537Y009835D01*
X036537Y010274D01*
X036256Y010554D01*
X036537Y010835D01*
X036537Y011274D01*
X036256Y011554D01*
X036537Y011835D01*
X036537Y012274D01*
X036256Y012554D01*
X036537Y012835D01*
X036537Y013274D01*
X036256Y013554D01*
X036537Y013835D01*
X036537Y014274D01*
X036256Y014554D01*
X036537Y014835D01*
X036537Y015274D01*
X036256Y015554D01*
X036537Y015835D01*
X036537Y016274D01*
X036256Y016554D01*
X036537Y016835D01*
X036537Y017274D01*
X036256Y017554D01*
X036537Y017835D01*
X036537Y018274D01*
X036256Y018554D01*
X036537Y018835D01*
X036537Y019274D01*
X036256Y019554D01*
X036537Y019835D01*
X036537Y020274D01*
X036256Y020554D01*
X036537Y020835D01*
X036537Y021274D01*
X036256Y021554D01*
X036537Y021835D01*
X036537Y022274D01*
X036235Y022575D01*
X036307Y022605D01*
X036456Y022754D01*
X036537Y022949D01*
X036537Y023160D01*
X036456Y023354D01*
X036307Y023503D01*
X036112Y023584D01*
X035901Y023584D01*
X035706Y023503D01*
X035557Y023354D01*
X035507Y023232D01*
X035456Y023354D01*
X035307Y023503D01*
X035112Y023584D01*
X034901Y023584D01*
X034706Y023503D01*
X034557Y023354D01*
X034477Y023160D01*
X034477Y022949D01*
X034557Y022754D01*
X034706Y022605D01*
X034778Y022575D01*
X034497Y022294D01*
X033867Y022294D01*
X033982Y022342D01*
X034219Y022578D01*
X034346Y022887D01*
X034346Y023221D01*
X034219Y023530D01*
X033982Y023766D01*
X033832Y023828D01*
X037993Y023828D01*
X037993Y003248D01*
X036256Y003248D01*
X036482Y003342D01*
X036719Y003578D01*
X036846Y003887D01*
X036846Y004221D01*
X036719Y004530D01*
X036482Y004766D01*
X036174Y004894D01*
X035839Y004894D01*
X035531Y004766D01*
X035295Y004530D01*
X035167Y004221D01*
X035167Y003887D01*
X035295Y003578D01*
X035531Y003342D01*
X035757Y003248D01*
X026540Y003248D01*
X026588Y003296D01*
X026841Y003549D01*
X026901Y003524D01*
X027112Y003524D01*
X027307Y003605D01*
X027456Y003754D01*
X027507Y003876D01*
X027557Y003754D01*
X027706Y003605D01*
X027901Y003524D01*
X028112Y003524D01*
X028307Y003605D01*
X028456Y003754D01*
X028507Y003876D01*
X028557Y003754D01*
X028706Y003605D01*
X028901Y003524D01*
X029112Y003524D01*
X029307Y003605D01*
X029456Y003754D01*
X029507Y003876D01*
X029557Y003754D01*
X029706Y003605D01*
X029901Y003524D01*
X030112Y003524D01*
X030307Y003605D01*
X030456Y003754D01*
X030507Y003876D01*
X030557Y003754D01*
X030706Y003605D01*
X030901Y003524D01*
X031112Y003524D01*
X031307Y003605D01*
X031456Y003754D01*
X031507Y003876D01*
X031557Y003754D01*
X031706Y003605D01*
X031901Y003524D01*
X032112Y003524D01*
X032307Y003605D01*
X032456Y003754D01*
X032507Y003876D01*
X032557Y003754D01*
X032706Y003605D01*
X032901Y003524D01*
X033112Y003524D01*
X033307Y003605D01*
X033456Y003754D01*
X033507Y003876D01*
X033557Y003754D01*
X033706Y003605D01*
X033901Y003524D01*
X034112Y003524D01*
X034307Y003605D01*
X034456Y003754D01*
X034537Y003949D01*
X034537Y004160D01*
X034456Y004354D01*
X034307Y004503D01*
X034112Y004584D01*
X033901Y004584D01*
X033706Y004503D01*
X033557Y004354D01*
X033507Y004232D01*
X033456Y004354D01*
X033307Y004503D01*
X033112Y004584D01*
X032901Y004584D01*
X032706Y004503D01*
X032557Y004354D01*
X032507Y004232D01*
X032456Y004354D01*
X032307Y004503D01*
X032112Y004584D01*
X031901Y004584D01*
X031706Y004503D01*
X031557Y004354D01*
X031507Y004232D01*
X031456Y004354D01*
X031307Y004503D01*
X031112Y004584D01*
X030901Y004584D01*
X030706Y004503D01*
X030557Y004354D01*
X030507Y004232D01*
X030456Y004354D01*
X030307Y004503D01*
X030112Y004584D01*
X029901Y004584D01*
X029706Y004503D01*
X029557Y004354D01*
X029507Y004232D01*
X029456Y004354D01*
X029307Y004503D01*
X029112Y004584D01*
X028901Y004584D01*
X028706Y004503D01*
X028557Y004354D01*
X028507Y004232D01*
X028456Y004354D01*
X028307Y004503D01*
X028112Y004584D01*
X027901Y004584D01*
X027706Y004503D01*
X027557Y004354D01*
X027507Y004232D01*
X027456Y004354D01*
X027307Y004503D01*
X027112Y004584D01*
X026901Y004584D01*
X026706Y004503D01*
X026557Y004354D01*
X026477Y004160D01*
X026477Y003949D01*
X026502Y003888D01*
X026285Y003672D01*
X025374Y003672D01*
X025456Y003754D01*
X025537Y003949D01*
X025537Y004160D01*
X025456Y004354D01*
X025307Y004503D01*
X025112Y004584D01*
X024901Y004584D01*
X024706Y004503D01*
X024557Y004354D01*
X024507Y004232D01*
X024456Y004354D01*
X024307Y004503D01*
X024243Y004530D01*
X024518Y004530D01*
X024621Y004573D01*
X026321Y006273D01*
X026576Y006273D01*
X026845Y006543D01*
X026845Y006924D01*
X026576Y007193D01*
X026195Y007193D01*
X025925Y006924D01*
X025925Y006669D01*
X024346Y005090D01*
X024058Y005090D01*
X025241Y006273D01*
X025496Y006273D01*
X025765Y006543D01*
X025765Y006924D01*
X025496Y007193D01*
X025115Y007193D01*
X024845Y006924D01*
X024845Y006669D01*
X023660Y005484D01*
X023372Y005484D01*
X024161Y006273D01*
X024416Y006273D01*
X024685Y006543D01*
X024685Y006924D01*
X024416Y007193D01*
X024035Y007193D01*
X023765Y006924D01*
X023765Y006669D01*
X022974Y005877D01*
X017361Y005877D01*
X017473Y005924D01*
X017622Y006073D01*
X017703Y006268D01*
X017703Y006478D01*
X017622Y006673D01*
X017473Y006822D01*
X017351Y006873D01*
X017473Y006924D01*
X017622Y007073D01*
X017703Y007268D01*
X017703Y007478D01*
X017622Y007673D01*
X017473Y007822D01*
X017278Y007903D01*
X017067Y007903D01*
X016872Y007822D01*
X016723Y007673D01*
X016643Y007478D01*
X016643Y007268D01*
X016723Y007073D01*
X016872Y006924D01*
X016995Y006873D01*
X016872Y006822D01*
X016723Y006673D01*
X016643Y006478D01*
X016643Y006268D01*
X016723Y006073D01*
X016872Y005924D01*
X016984Y005877D01*
X013930Y005877D01*
X011655Y008152D01*
X011703Y008268D01*
X011703Y008478D01*
X011622Y008673D01*
X011473Y008822D01*
X011351Y008873D01*
X011473Y008924D01*
X011607Y009058D01*
X020194Y009058D01*
X022685Y006566D01*
X022685Y006543D01*
X022955Y006273D01*
X023336Y006273D01*
X023605Y006543D01*
X023605Y006924D01*
X023336Y007193D01*
X022955Y007193D01*
X022902Y007141D01*
X022650Y007393D01*
X022796Y007393D01*
X023065Y007663D01*
X023065Y007870D01*
X023081Y007879D01*
X023225Y007816D01*
X023225Y007663D01*
X023495Y007393D01*
X023876Y007393D01*
X024116Y007633D01*
X024335Y007633D01*
X024575Y007393D01*
X024956Y007393D01*
X025196Y007633D01*
X024986Y007423D02*
X025625Y007423D01*
X025503Y007186D02*
X026188Y007186D01*
X026069Y007067D02*
X025622Y007067D01*
X025740Y006949D02*
X025951Y006949D01*
X025925Y006830D02*
X025765Y006830D01*
X025765Y006712D02*
X025925Y006712D01*
X025850Y006593D02*
X025765Y006593D01*
X025731Y006475D02*
X025698Y006475D01*
X025613Y006356D02*
X025579Y006356D01*
X025494Y006238D02*
X025206Y006238D01*
X025088Y006119D02*
X025376Y006119D01*
X025257Y006001D02*
X024969Y006001D01*
X024851Y005882D02*
X025139Y005882D01*
X025020Y005764D02*
X024732Y005764D01*
X024614Y005645D02*
X024902Y005645D01*
X024783Y005527D02*
X024495Y005527D01*
X024377Y005408D02*
X024665Y005408D01*
X024546Y005290D02*
X024258Y005290D01*
X024140Y005171D02*
X024428Y005171D01*
X024864Y004816D02*
X035651Y004816D01*
X035462Y004697D02*
X024746Y004697D01*
X024627Y004579D02*
X024888Y004579D01*
X025125Y004579D02*
X026888Y004579D01*
X027125Y004579D02*
X027888Y004579D01*
X028125Y004579D02*
X028888Y004579D01*
X029125Y004579D02*
X029888Y004579D01*
X030125Y004579D02*
X030888Y004579D01*
X031125Y004579D02*
X031888Y004579D01*
X032125Y004579D02*
X032888Y004579D01*
X033125Y004579D02*
X033888Y004579D01*
X034125Y004579D02*
X035343Y004579D01*
X035266Y004460D02*
X034350Y004460D01*
X034461Y004342D02*
X035217Y004342D01*
X035168Y004223D02*
X034510Y004223D01*
X034537Y004105D02*
X035167Y004105D01*
X035167Y003986D02*
X034537Y003986D01*
X034503Y003868D02*
X035175Y003868D01*
X035224Y003749D02*
X034451Y003749D01*
X034333Y003631D02*
X035273Y003631D01*
X035360Y003512D02*
X026804Y003512D01*
X026686Y003394D02*
X035479Y003394D01*
X035692Y003275D02*
X026567Y003275D01*
X026362Y003749D02*
X025451Y003749D01*
X025503Y003868D02*
X026481Y003868D01*
X026477Y003986D02*
X025537Y003986D01*
X025537Y004105D02*
X026477Y004105D01*
X026503Y004223D02*
X025510Y004223D01*
X025461Y004342D02*
X026552Y004342D01*
X026663Y004460D02*
X025350Y004460D01*
X024983Y004934D02*
X037993Y004934D01*
X037993Y004816D02*
X036362Y004816D01*
X036551Y004697D02*
X037993Y004697D01*
X037993Y004579D02*
X036670Y004579D01*
X036747Y004460D02*
X037993Y004460D01*
X037993Y004342D02*
X036796Y004342D01*
X036846Y004223D02*
X037993Y004223D01*
X037993Y004105D02*
X036846Y004105D01*
X036846Y003986D02*
X037993Y003986D01*
X037993Y003868D02*
X036839Y003868D01*
X036789Y003749D02*
X037993Y003749D01*
X037993Y003631D02*
X036740Y003631D01*
X036653Y003512D02*
X037993Y003512D01*
X037993Y003394D02*
X036534Y003394D01*
X036321Y003275D02*
X037993Y003275D01*
X037993Y005053D02*
X025101Y005053D01*
X025220Y005171D02*
X037993Y005171D01*
X037993Y005290D02*
X025338Y005290D01*
X025457Y005408D02*
X037993Y005408D01*
X037993Y005527D02*
X036119Y005527D01*
X035894Y005527D02*
X035119Y005527D01*
X034894Y005527D02*
X025575Y005527D01*
X025694Y005645D02*
X034666Y005645D01*
X034553Y005764D02*
X025812Y005764D01*
X025931Y005882D02*
X034504Y005882D01*
X034477Y006001D02*
X026049Y006001D01*
X026168Y006119D02*
X032652Y006119D01*
X032354Y006238D02*
X026286Y006238D01*
X026659Y006356D02*
X027192Y006356D01*
X027275Y006273D02*
X027005Y006543D01*
X027005Y006924D01*
X027275Y007193D01*
X027656Y007193D01*
X027925Y006924D01*
X027925Y006543D01*
X027656Y006273D01*
X027275Y006273D01*
X027073Y006475D02*
X026778Y006475D01*
X026845Y006593D02*
X027005Y006593D01*
X027005Y006712D02*
X026845Y006712D01*
X026845Y006830D02*
X027005Y006830D01*
X027031Y006949D02*
X026820Y006949D01*
X026702Y007067D02*
X027149Y007067D01*
X027268Y007186D02*
X026583Y007186D01*
X026735Y007393D02*
X027116Y007393D01*
X027385Y007663D01*
X027385Y008044D01*
X027145Y008284D01*
X027145Y010506D01*
X027017Y010635D01*
X026944Y010707D01*
X026978Y010787D01*
X026978Y010998D01*
X026897Y011193D01*
X026748Y011342D01*
X026553Y011423D01*
X026342Y011423D01*
X026147Y011342D01*
X025998Y011193D01*
X025918Y010998D01*
X025918Y010787D01*
X025998Y010592D01*
X026147Y010443D01*
X026342Y010363D01*
X026553Y010363D01*
X026633Y010396D01*
X026705Y010324D01*
X026705Y008284D01*
X026465Y008044D01*
X026465Y007663D01*
X026735Y007393D01*
X026705Y007423D02*
X026066Y007423D01*
X026184Y007541D02*
X026587Y007541D01*
X026468Y007660D02*
X026303Y007660D01*
X026305Y007778D02*
X026465Y007778D01*
X026465Y007897D02*
X026305Y007897D01*
X026305Y008015D02*
X026465Y008015D01*
X026556Y008134D02*
X026215Y008134D01*
X026097Y008252D02*
X026674Y008252D01*
X026705Y008371D02*
X023286Y008371D01*
X023286Y008489D02*
X026705Y008489D01*
X026705Y008608D02*
X023286Y008608D01*
X023286Y008726D02*
X026705Y008726D01*
X026705Y008845D02*
X023286Y008845D01*
X023286Y008963D02*
X026705Y008963D01*
X026705Y009082D02*
X023286Y009082D01*
X023286Y009200D02*
X026705Y009200D01*
X026705Y009319D02*
X023286Y009319D01*
X023286Y009437D02*
X026705Y009437D01*
X026705Y009556D02*
X023286Y009556D01*
X023286Y009674D02*
X026705Y009674D01*
X026705Y009793D02*
X023286Y009793D01*
X023286Y009911D02*
X026705Y009911D01*
X026705Y010030D02*
X023286Y010030D01*
X023286Y010148D02*
X026705Y010148D01*
X026705Y010267D02*
X023286Y010267D01*
X023286Y010385D02*
X025024Y010385D01*
X025031Y010382D02*
X025242Y010382D01*
X025437Y010463D01*
X025586Y010612D01*
X025666Y010807D01*
X025666Y011018D01*
X025586Y011213D01*
X025437Y011362D01*
X025242Y011442D01*
X025031Y011442D01*
X024836Y011362D01*
X024687Y011213D01*
X024606Y011018D01*
X024606Y010807D01*
X024687Y010612D01*
X024836Y010463D01*
X025031Y010382D01*
X025249Y010385D02*
X026287Y010385D01*
X026087Y010504D02*
X025478Y010504D01*
X025590Y010622D02*
X025986Y010622D01*
X025937Y010741D02*
X025639Y010741D01*
X025666Y010859D02*
X025918Y010859D01*
X025918Y010978D02*
X025666Y010978D01*
X025634Y011096D02*
X025958Y011096D01*
X026020Y011215D02*
X025584Y011215D01*
X025465Y011333D02*
X026139Y011333D01*
X026756Y011333D02*
X029139Y011333D01*
X029208Y011452D02*
X023286Y011452D01*
X023286Y011570D02*
X029208Y011570D01*
X029231Y011689D02*
X023286Y011689D01*
X023286Y011807D02*
X029330Y011807D01*
X029448Y011926D02*
X023286Y011926D01*
X023286Y012044D02*
X029567Y012044D01*
X029685Y012163D02*
X023286Y012163D01*
X023286Y012281D02*
X029804Y012281D01*
X029912Y012400D02*
X023286Y012400D01*
X023286Y012518D02*
X029912Y012518D01*
X029912Y012637D02*
X023286Y012637D01*
X023286Y012755D02*
X029912Y012755D01*
X029912Y012874D02*
X023286Y012874D01*
X023286Y012992D02*
X029912Y012992D01*
X029912Y013111D02*
X023286Y013111D01*
X023286Y013229D02*
X029912Y013229D01*
X029912Y013348D02*
X023286Y013348D01*
X023286Y013466D02*
X024769Y013466D01*
X024671Y013585D02*
X023286Y013585D01*
X023371Y013703D02*
X024625Y013703D01*
X024625Y013822D02*
X023450Y013822D01*
X023483Y013940D02*
X024625Y013940D01*
X024625Y014059D02*
X023483Y014059D01*
X023483Y014177D02*
X024625Y014177D01*
X024625Y014296D02*
X023483Y014296D01*
X023483Y014414D02*
X024658Y014414D01*
X024737Y014533D02*
X023483Y014533D01*
X023083Y014221D02*
X023066Y014204D01*
X023066Y008126D01*
X023325Y008252D02*
X023434Y008252D01*
X023937Y008252D02*
X024514Y008252D01*
X024396Y008134D02*
X024055Y008134D01*
X024024Y007541D02*
X024427Y007541D01*
X024545Y007423D02*
X023906Y007423D01*
X024028Y007186D02*
X023343Y007186D01*
X023462Y007067D02*
X023909Y007067D01*
X023791Y006949D02*
X023580Y006949D01*
X023605Y006830D02*
X023765Y006830D01*
X023765Y006712D02*
X023605Y006712D01*
X023605Y006593D02*
X023690Y006593D01*
X023571Y006475D02*
X023538Y006475D01*
X023453Y006356D02*
X023419Y006356D01*
X023334Y006238D02*
X020417Y006238D01*
X020293Y006166D02*
X020568Y006325D01*
X020794Y006550D01*
X020953Y006826D01*
X021035Y007134D01*
X021035Y007453D01*
X020953Y007760D01*
X020794Y008036D01*
X020568Y008261D01*
X020293Y008421D01*
X019985Y008503D01*
X019666Y008503D01*
X019358Y008421D01*
X019083Y008261D01*
X018857Y008036D01*
X018698Y007760D01*
X018615Y007453D01*
X018615Y007134D01*
X018698Y006826D01*
X018857Y006550D01*
X019083Y006325D01*
X019358Y006166D01*
X019666Y006083D01*
X019985Y006083D01*
X020293Y006166D01*
X020119Y006119D02*
X023216Y006119D01*
X023097Y006001D02*
X017550Y006001D01*
X017641Y006119D02*
X019532Y006119D01*
X019234Y006238D02*
X017690Y006238D01*
X017703Y006356D02*
X019051Y006356D01*
X018933Y006475D02*
X017703Y006475D01*
X017655Y006593D02*
X018832Y006593D01*
X018764Y006712D02*
X017583Y006712D01*
X017453Y006830D02*
X018697Y006830D01*
X018665Y006949D02*
X017498Y006949D01*
X017617Y007067D02*
X018633Y007067D01*
X018615Y007186D02*
X017669Y007186D01*
X017703Y007304D02*
X018615Y007304D01*
X018615Y007423D02*
X017703Y007423D01*
X017677Y007541D02*
X018639Y007541D01*
X018671Y007660D02*
X017628Y007660D01*
X017517Y007778D02*
X018708Y007778D01*
X018777Y007897D02*
X017293Y007897D01*
X017052Y007897D02*
X011910Y007897D01*
X011792Y008015D02*
X018845Y008015D01*
X018955Y008134D02*
X011673Y008134D01*
X011696Y008252D02*
X019073Y008252D01*
X019272Y008371D02*
X011703Y008371D01*
X011698Y008489D02*
X019614Y008489D01*
X020037Y008489D02*
X020762Y008489D01*
X020880Y008371D02*
X020379Y008371D01*
X020578Y008252D02*
X020999Y008252D01*
X021117Y008134D02*
X020696Y008134D01*
X020806Y008015D02*
X021236Y008015D01*
X021354Y007897D02*
X020874Y007897D01*
X020943Y007778D02*
X021473Y007778D01*
X021591Y007660D02*
X020980Y007660D01*
X021012Y007541D02*
X021710Y007541D01*
X021828Y007423D02*
X021035Y007423D01*
X021035Y007304D02*
X021947Y007304D01*
X022065Y007186D02*
X021035Y007186D01*
X021018Y007067D02*
X022184Y007067D01*
X022302Y006949D02*
X020986Y006949D01*
X020954Y006830D02*
X022421Y006830D01*
X022539Y006712D02*
X020887Y006712D01*
X020819Y006593D02*
X022658Y006593D01*
X022753Y006475D02*
X020718Y006475D01*
X020600Y006356D02*
X022872Y006356D01*
X022979Y005882D02*
X017373Y005882D01*
X016972Y005882D02*
X013925Y005882D01*
X013806Y006001D02*
X016795Y006001D01*
X016704Y006119D02*
X013688Y006119D01*
X013569Y006238D02*
X016655Y006238D01*
X016643Y006356D02*
X013451Y006356D01*
X013332Y006475D02*
X016643Y006475D01*
X016690Y006593D02*
X013214Y006593D01*
X013095Y006712D02*
X016762Y006712D01*
X016892Y006830D02*
X012977Y006830D01*
X012858Y006949D02*
X016847Y006949D01*
X016729Y007067D02*
X012740Y007067D01*
X012621Y007186D02*
X016677Y007186D01*
X016643Y007304D02*
X012503Y007304D01*
X012384Y007423D02*
X016643Y007423D01*
X016669Y007541D02*
X012266Y007541D01*
X012147Y007660D02*
X016718Y007660D01*
X016829Y007778D02*
X012029Y007778D01*
X011703Y007312D02*
X013531Y005484D01*
X013339Y005484D01*
X011660Y007163D01*
X011703Y007268D01*
X011703Y007312D01*
X011703Y007304D02*
X011711Y007304D01*
X011669Y007186D02*
X011829Y007186D01*
X011755Y007067D02*
X011948Y007067D01*
X011874Y006949D02*
X012066Y006949D01*
X011992Y006830D02*
X012185Y006830D01*
X012111Y006712D02*
X012303Y006712D01*
X012229Y006593D02*
X012422Y006593D01*
X012348Y006475D02*
X012540Y006475D01*
X012466Y006356D02*
X012659Y006356D01*
X012585Y006238D02*
X012777Y006238D01*
X012703Y006119D02*
X012896Y006119D01*
X012822Y006001D02*
X013014Y006001D01*
X012940Y005882D02*
X013133Y005882D01*
X013059Y005764D02*
X013251Y005764D01*
X013177Y005645D02*
X013370Y005645D01*
X013296Y005527D02*
X013488Y005527D01*
X012941Y005090D02*
X012749Y005090D01*
X011664Y006174D01*
X011703Y006268D01*
X011703Y006328D01*
X012941Y005090D01*
X012859Y005171D02*
X012667Y005171D01*
X012741Y005290D02*
X012549Y005290D01*
X012622Y005408D02*
X012430Y005408D01*
X012504Y005527D02*
X012312Y005527D01*
X012385Y005645D02*
X012193Y005645D01*
X012267Y005764D02*
X012075Y005764D01*
X012148Y005882D02*
X011956Y005882D01*
X012030Y006001D02*
X011838Y006001D01*
X011911Y006119D02*
X011719Y006119D01*
X011690Y006238D02*
X011793Y006238D01*
X011283Y005764D02*
X010117Y005764D01*
X010117Y005882D02*
X010972Y005882D01*
X010795Y006001D02*
X010117Y006001D01*
X010117Y006119D02*
X010704Y006119D01*
X010655Y006238D02*
X010117Y006238D01*
X010117Y006356D02*
X010643Y006356D01*
X010643Y006475D02*
X010117Y006475D01*
X010117Y006593D02*
X010690Y006593D01*
X010762Y006712D02*
X010117Y006712D01*
X009637Y006119D02*
X009557Y006119D01*
X009637Y006001D02*
X009364Y006001D01*
X009637Y005882D02*
X006543Y005882D01*
X006543Y005764D02*
X009637Y005764D01*
X009637Y005645D02*
X006543Y005645D01*
X006543Y005527D02*
X009637Y005527D01*
X009637Y005408D02*
X006543Y005408D01*
X006543Y005290D02*
X009637Y005290D01*
X009637Y005171D02*
X006543Y005171D01*
X006543Y005053D02*
X009637Y005053D01*
X009637Y004934D02*
X006543Y004934D01*
X006543Y004816D02*
X009637Y004816D01*
X009637Y004697D02*
X006543Y004697D01*
X006543Y004579D02*
X009637Y004579D01*
X009637Y004460D02*
X009329Y004460D01*
X009543Y004342D02*
X009637Y004342D01*
X010117Y004342D02*
X010552Y004342D01*
X010503Y004223D02*
X010117Y004223D01*
X010117Y004105D02*
X010477Y004105D01*
X010477Y003986D02*
X010189Y003986D01*
X010268Y003868D02*
X010510Y003868D01*
X010562Y003749D02*
X010347Y003749D01*
X009928Y003512D02*
X009510Y003512D01*
X009629Y003631D02*
X009849Y003631D01*
X009770Y003749D02*
X009685Y003749D01*
X010007Y003394D02*
X006543Y003394D01*
X006543Y003512D02*
X007093Y003512D01*
X007112Y003494D02*
X007306Y003413D01*
X007517Y003413D01*
X007712Y003494D01*
X007861Y003643D01*
X007942Y003838D01*
X007942Y004049D01*
X007861Y004244D01*
X007712Y004393D01*
X007517Y004473D01*
X007306Y004473D01*
X007112Y004393D01*
X006963Y004244D01*
X006882Y004049D01*
X006882Y003838D01*
X006963Y003643D01*
X007112Y003494D01*
X006975Y003631D02*
X006543Y003631D01*
X006543Y003749D02*
X006919Y003749D01*
X006882Y003868D02*
X006543Y003868D01*
X006543Y003986D02*
X006882Y003986D01*
X006905Y004105D02*
X006543Y004105D01*
X006543Y004223D02*
X006954Y004223D01*
X007061Y004342D02*
X006543Y004342D01*
X006543Y004460D02*
X007275Y004460D01*
X007549Y004460D02*
X009055Y004460D01*
X008841Y004342D02*
X007763Y004342D01*
X007870Y004223D02*
X008734Y004223D01*
X008685Y004105D02*
X007919Y004105D01*
X007942Y003986D02*
X008662Y003986D01*
X008662Y003868D02*
X007942Y003868D01*
X007905Y003749D02*
X008699Y003749D01*
X008755Y003631D02*
X007849Y003631D01*
X007730Y003512D02*
X008873Y003512D01*
X010086Y003275D02*
X006543Y003275D01*
X010117Y004460D02*
X010663Y004460D01*
X010888Y004579D02*
X010117Y004579D01*
X010117Y004697D02*
X012349Y004697D01*
X012468Y004579D02*
X012125Y004579D01*
X011888Y004579D02*
X011125Y004579D01*
X011350Y004460D02*
X011663Y004460D01*
X011552Y004342D02*
X011461Y004342D01*
X011507Y003876D02*
X011557Y003754D01*
X011639Y003672D01*
X011374Y003672D01*
X011456Y003754D01*
X011507Y003876D01*
X011503Y003868D02*
X011510Y003868D01*
X011562Y003749D02*
X011451Y003749D01*
X012374Y003672D02*
X012456Y003754D01*
X012507Y003876D01*
X012557Y003754D01*
X012639Y003672D01*
X012374Y003672D01*
X012451Y003749D02*
X012562Y003749D01*
X012510Y003868D02*
X012503Y003868D01*
X012461Y004342D02*
X012552Y004342D01*
X012663Y004460D02*
X012350Y004460D01*
X012231Y004816D02*
X010117Y004816D01*
X010117Y004934D02*
X012112Y004934D01*
X011994Y005053D02*
X010117Y005053D01*
X010117Y005171D02*
X011875Y005171D01*
X011757Y005290D02*
X010117Y005290D01*
X010117Y005408D02*
X011638Y005408D01*
X011520Y005527D02*
X010117Y005527D01*
X010117Y005645D02*
X011401Y005645D01*
X013243Y004530D02*
X013771Y004530D01*
X013706Y004503D01*
X013557Y004354D01*
X013507Y004232D01*
X013456Y004354D01*
X013307Y004503D01*
X013243Y004530D01*
X013350Y004460D02*
X013663Y004460D01*
X013552Y004342D02*
X013461Y004342D01*
X013507Y003876D02*
X013557Y003754D01*
X013639Y003672D01*
X013374Y003672D01*
X013456Y003754D01*
X013507Y003876D01*
X013503Y003868D02*
X013510Y003868D01*
X013562Y003749D02*
X013451Y003749D01*
X014374Y003672D02*
X014456Y003754D01*
X014507Y003876D01*
X014557Y003754D01*
X014639Y003672D01*
X014374Y003672D01*
X014451Y003749D02*
X014562Y003749D01*
X014510Y003868D02*
X014503Y003868D01*
X014507Y004232D02*
X014456Y004354D01*
X014307Y004503D01*
X014243Y004530D01*
X014771Y004530D01*
X014706Y004503D01*
X014557Y004354D01*
X014507Y004232D01*
X014552Y004342D02*
X014461Y004342D01*
X014350Y004460D02*
X014663Y004460D01*
X015243Y004530D02*
X015771Y004530D01*
X015706Y004503D01*
X015557Y004354D01*
X015507Y004232D01*
X015456Y004354D01*
X015307Y004503D01*
X015243Y004530D01*
X015350Y004460D02*
X015663Y004460D01*
X015552Y004342D02*
X015461Y004342D01*
X015507Y003876D02*
X015557Y003754D01*
X015639Y003672D01*
X015374Y003672D01*
X015456Y003754D01*
X015507Y003876D01*
X015503Y003868D02*
X015510Y003868D01*
X015562Y003749D02*
X015451Y003749D01*
X016374Y003672D02*
X016456Y003754D01*
X016537Y003949D01*
X016537Y004160D01*
X016456Y004354D01*
X016307Y004503D01*
X016243Y004530D01*
X017771Y004530D01*
X017706Y004503D01*
X017557Y004354D01*
X017477Y004160D01*
X017477Y003949D01*
X017557Y003754D01*
X017639Y003672D01*
X016374Y003672D01*
X016451Y003749D02*
X017562Y003749D01*
X017510Y003868D02*
X016503Y003868D01*
X016537Y003986D02*
X017477Y003986D01*
X017477Y004105D02*
X016537Y004105D01*
X016510Y004223D02*
X017503Y004223D01*
X017552Y004342D02*
X016461Y004342D01*
X016350Y004460D02*
X017663Y004460D01*
X018243Y004530D02*
X018771Y004530D01*
X018706Y004503D01*
X018557Y004354D01*
X018507Y004232D01*
X018456Y004354D01*
X018307Y004503D01*
X018243Y004530D01*
X018350Y004460D02*
X018663Y004460D01*
X018552Y004342D02*
X018461Y004342D01*
X018507Y003876D02*
X018557Y003754D01*
X018639Y003672D01*
X018374Y003672D01*
X018456Y003754D01*
X018507Y003876D01*
X018503Y003868D02*
X018510Y003868D01*
X018562Y003749D02*
X018451Y003749D01*
X019374Y003672D02*
X019456Y003754D01*
X019507Y003876D01*
X019557Y003754D01*
X019639Y003672D01*
X019374Y003672D01*
X019451Y003749D02*
X019562Y003749D01*
X019510Y003868D02*
X019503Y003868D01*
X019507Y004232D02*
X019456Y004354D01*
X019307Y004503D01*
X019243Y004530D01*
X019771Y004530D01*
X019706Y004503D01*
X019557Y004354D01*
X019507Y004232D01*
X019552Y004342D02*
X019461Y004342D01*
X019350Y004460D02*
X019663Y004460D01*
X020243Y004530D02*
X020771Y004530D01*
X020706Y004503D01*
X020557Y004354D01*
X020507Y004232D01*
X020456Y004354D01*
X020307Y004503D01*
X020243Y004530D01*
X020350Y004460D02*
X020663Y004460D01*
X020552Y004342D02*
X020461Y004342D01*
X020507Y003876D02*
X020557Y003754D01*
X020639Y003672D01*
X020374Y003672D01*
X020456Y003754D01*
X020507Y003876D01*
X020503Y003868D02*
X020510Y003868D01*
X020562Y003749D02*
X020451Y003749D01*
X021374Y003672D02*
X021456Y003754D01*
X021507Y003876D01*
X021557Y003754D01*
X021639Y003672D01*
X021374Y003672D01*
X021451Y003749D02*
X021562Y003749D01*
X021510Y003868D02*
X021503Y003868D01*
X021507Y004232D02*
X021456Y004354D01*
X021307Y004503D01*
X021243Y004530D01*
X021771Y004530D01*
X021706Y004503D01*
X021557Y004354D01*
X021507Y004232D01*
X021552Y004342D02*
X021461Y004342D01*
X021350Y004460D02*
X021663Y004460D01*
X022243Y004530D02*
X022771Y004530D01*
X022706Y004503D01*
X022557Y004354D01*
X022507Y004232D01*
X022456Y004354D01*
X022307Y004503D01*
X022243Y004530D01*
X022350Y004460D02*
X022663Y004460D01*
X022552Y004342D02*
X022461Y004342D01*
X022507Y003876D02*
X022557Y003754D01*
X022639Y003672D01*
X022374Y003672D01*
X022456Y003754D01*
X022507Y003876D01*
X022503Y003868D02*
X022510Y003868D01*
X022562Y003749D02*
X022451Y003749D01*
X023374Y003672D02*
X023456Y003754D01*
X023507Y003876D01*
X023557Y003754D01*
X023639Y003672D01*
X023374Y003672D01*
X023451Y003749D02*
X023562Y003749D01*
X023510Y003868D02*
X023503Y003868D01*
X023507Y004232D02*
X023456Y004354D01*
X023307Y004503D01*
X023243Y004530D01*
X023771Y004530D01*
X023706Y004503D01*
X023557Y004354D01*
X023507Y004232D01*
X023552Y004342D02*
X023461Y004342D01*
X023350Y004460D02*
X023663Y004460D01*
X024350Y004460D02*
X024663Y004460D01*
X024552Y004342D02*
X024461Y004342D01*
X024507Y003876D02*
X024557Y003754D01*
X024639Y003672D01*
X024374Y003672D01*
X024456Y003754D01*
X024507Y003876D01*
X024503Y003868D02*
X024510Y003868D01*
X024562Y003749D02*
X024451Y003749D01*
X023703Y005527D02*
X023415Y005527D01*
X023534Y005645D02*
X023822Y005645D01*
X023940Y005764D02*
X023652Y005764D01*
X023771Y005882D02*
X024059Y005882D01*
X024177Y006001D02*
X023889Y006001D01*
X024008Y006119D02*
X024296Y006119D01*
X024414Y006238D02*
X024126Y006238D01*
X024499Y006356D02*
X024533Y006356D01*
X024618Y006475D02*
X024651Y006475D01*
X024685Y006593D02*
X024770Y006593D01*
X024845Y006712D02*
X024685Y006712D01*
X024685Y006830D02*
X024845Y006830D01*
X024871Y006949D02*
X024660Y006949D01*
X024542Y007067D02*
X024989Y007067D01*
X025108Y007186D02*
X024423Y007186D01*
X023465Y007423D02*
X022826Y007423D01*
X022739Y007304D02*
X028641Y007304D01*
X028759Y007423D02*
X028226Y007423D01*
X028196Y007393D02*
X028465Y007663D01*
X028465Y008044D01*
X028196Y008313D01*
X027815Y008313D01*
X027545Y008044D01*
X027545Y007663D01*
X027815Y007393D01*
X028196Y007393D01*
X028344Y007541D02*
X028747Y007541D01*
X028628Y007660D02*
X028463Y007660D01*
X028465Y007778D02*
X028625Y007778D01*
X028625Y007897D02*
X028465Y007897D01*
X028465Y008015D02*
X028625Y008015D01*
X028716Y008134D02*
X028375Y008134D01*
X028257Y008252D02*
X028834Y008252D01*
X028865Y008371D02*
X027145Y008371D01*
X027145Y008489D02*
X028865Y008489D01*
X028865Y008608D02*
X027145Y008608D01*
X027145Y008726D02*
X028865Y008726D01*
X028865Y008845D02*
X027145Y008845D01*
X027145Y008963D02*
X028865Y008963D01*
X028865Y009082D02*
X027145Y009082D01*
X027145Y009200D02*
X028865Y009200D01*
X028865Y009319D02*
X027145Y009319D01*
X027145Y009437D02*
X028865Y009437D01*
X028865Y009556D02*
X027145Y009556D01*
X027145Y009674D02*
X028865Y009674D01*
X028865Y009793D02*
X027145Y009793D01*
X027145Y009911D02*
X028865Y009911D01*
X028865Y010030D02*
X027145Y010030D01*
X027145Y010148D02*
X028865Y010148D01*
X028865Y010267D02*
X027145Y010267D01*
X027145Y010385D02*
X028865Y010385D01*
X028865Y010504D02*
X027145Y010504D01*
X027029Y010622D02*
X028866Y010622D01*
X028937Y010741D02*
X026958Y010741D01*
X026978Y010859D02*
X028918Y010859D01*
X028918Y010978D02*
X026978Y010978D01*
X026937Y011096D02*
X028958Y011096D01*
X029020Y011215D02*
X026875Y011215D01*
X026448Y010893D02*
X026925Y010415D01*
X026925Y007853D01*
X027264Y007541D02*
X027667Y007541D01*
X027785Y007423D02*
X027146Y007423D01*
X027383Y007660D02*
X027548Y007660D01*
X027545Y007778D02*
X027385Y007778D01*
X027385Y007897D02*
X027545Y007897D01*
X027545Y008015D02*
X027385Y008015D01*
X027295Y008134D02*
X027636Y008134D01*
X027754Y008252D02*
X027177Y008252D01*
X025594Y008252D02*
X025017Y008252D01*
X025135Y008134D02*
X025476Y008134D01*
X023347Y007541D02*
X022944Y007541D01*
X023063Y007660D02*
X023228Y007660D01*
X023225Y007778D02*
X023065Y007778D01*
X022948Y007186D02*
X022857Y007186D01*
X020643Y008608D02*
X011649Y008608D01*
X011569Y008726D02*
X020525Y008726D01*
X020406Y008845D02*
X011418Y008845D01*
X011513Y008963D02*
X020288Y008963D01*
X022024Y010385D02*
X010117Y010385D01*
X010117Y010267D02*
X022846Y010267D01*
X022846Y010385D02*
X022249Y010385D01*
X022478Y010504D02*
X022846Y010504D01*
X022846Y010622D02*
X022590Y010622D01*
X022639Y010741D02*
X022846Y010741D01*
X022846Y010859D02*
X022666Y010859D01*
X022666Y010978D02*
X022846Y010978D01*
X022846Y011096D02*
X022634Y011096D01*
X022584Y011215D02*
X022846Y011215D01*
X022846Y011333D02*
X022465Y011333D01*
X022356Y011452D02*
X022846Y011452D01*
X022846Y011570D02*
X022356Y011570D01*
X022356Y011689D02*
X022846Y011689D01*
X022846Y011807D02*
X022356Y011807D01*
X022356Y011926D02*
X022846Y011926D01*
X022846Y012044D02*
X022356Y012044D01*
X022323Y012163D02*
X022846Y012163D01*
X022846Y012281D02*
X022205Y012281D01*
X022086Y012400D02*
X022846Y012400D01*
X022846Y012518D02*
X021968Y012518D01*
X021849Y012637D02*
X022846Y012637D01*
X022846Y012755D02*
X021731Y012755D01*
X021612Y012874D02*
X022846Y012874D01*
X022846Y012992D02*
X021494Y012992D01*
X021375Y013111D02*
X022846Y013111D01*
X022846Y013229D02*
X021257Y013229D01*
X021303Y013348D02*
X021138Y013348D01*
X021185Y013466D02*
X021020Y013466D01*
X020995Y013585D02*
X020901Y013585D01*
X020796Y013703D02*
X020783Y013703D01*
X020507Y013668D02*
X020507Y016227D01*
X022475Y016227D01*
X023083Y016836D01*
X023083Y017221D01*
X024820Y017221D01*
X025025Y017016D01*
X026644Y015397D01*
X026732Y015620D02*
X025976Y016376D01*
X026105Y016376D01*
X026252Y016437D01*
X026364Y016549D01*
X026425Y016696D01*
X026425Y017335D01*
X026364Y017482D01*
X026252Y017595D01*
X026105Y017656D01*
X025946Y017656D01*
X025799Y017595D01*
X025686Y017482D01*
X025625Y017335D01*
X025625Y016727D01*
X025425Y016927D01*
X025425Y017335D01*
X025364Y017482D01*
X025252Y017595D01*
X025105Y017656D01*
X024946Y017656D01*
X024799Y017595D01*
X024686Y017482D01*
X024669Y017441D01*
X023483Y017441D01*
X023483Y017541D01*
X023422Y017688D01*
X023310Y017801D01*
X023163Y017861D01*
X022978Y017851D02*
X022188Y017851D01*
X022163Y017861D02*
X022004Y017861D01*
X021857Y017801D01*
X021744Y017688D01*
X021683Y017541D01*
X021683Y016902D01*
X021744Y016755D01*
X021857Y016642D01*
X022004Y016581D01*
X022163Y016581D01*
X022310Y016642D01*
X022422Y016755D01*
X022483Y016902D01*
X022483Y017541D01*
X022422Y017688D01*
X022310Y017801D01*
X022163Y017861D01*
X021978Y017851D02*
X021188Y017851D01*
X020978Y017851D02*
X020188Y017851D01*
X019978Y017851D02*
X018504Y017851D01*
X018386Y017732D02*
X019789Y017732D01*
X019714Y017614D02*
X018267Y017614D01*
X018149Y017495D02*
X019683Y017495D01*
X019683Y017377D02*
X018030Y017377D01*
X017912Y017258D02*
X019683Y017258D01*
X019683Y017140D02*
X011650Y017140D01*
X011571Y017021D02*
X019683Y017021D01*
X019683Y016903D02*
X011423Y016903D01*
X011511Y016784D02*
X019732Y016784D01*
X019833Y016666D02*
X011625Y016666D01*
X011674Y016547D02*
X020287Y016547D01*
X020287Y016429D02*
X011703Y016429D01*
X011703Y016310D02*
X020287Y016310D01*
X020287Y016192D02*
X011671Y016192D01*
X011622Y016073D02*
X020287Y016073D01*
X020287Y015955D02*
X011504Y015955D01*
X010872Y015924D02*
X010723Y016073D01*
X010674Y016192D02*
X010097Y016192D01*
X010097Y016310D02*
X010643Y016310D01*
X010643Y016429D02*
X010097Y016429D01*
X010097Y016547D02*
X010671Y016547D01*
X010720Y016666D02*
X010097Y016666D01*
X010097Y016784D02*
X010835Y016784D01*
X010923Y016903D02*
X010097Y016903D01*
X010097Y017021D02*
X010775Y017021D01*
X010696Y017140D02*
X010134Y017140D01*
X010276Y017258D02*
X010647Y017258D01*
X010643Y017377D02*
X010419Y017377D01*
X010561Y017495D02*
X010650Y017495D01*
X010300Y017851D02*
X008988Y017851D01*
X009163Y017969D02*
X010442Y017969D01*
X010585Y018088D02*
X009257Y018088D01*
X009306Y018206D02*
X010727Y018206D01*
X010869Y018325D02*
X009324Y018325D01*
X009324Y018443D02*
X013069Y018443D01*
X012974Y018562D02*
X009287Y018562D01*
X009234Y018680D02*
X012925Y018680D01*
X012910Y018799D02*
X010876Y018799D01*
X010994Y018917D02*
X012910Y018917D01*
X012955Y019036D02*
X011113Y019036D01*
X011231Y019154D02*
X013023Y019154D01*
X013144Y019273D02*
X011350Y019273D01*
X011058Y018196D02*
X017751Y018196D01*
X018144Y018786D01*
X018144Y022916D01*
X018007Y023054D01*
X018390Y023420D02*
X018623Y023420D01*
X018557Y023354D02*
X018691Y023488D01*
X018323Y023488D01*
X018456Y023354D01*
X018507Y023232D01*
X018557Y023354D01*
X018536Y023302D02*
X018478Y023302D01*
X019007Y023054D02*
X018538Y022586D01*
X018538Y018196D01*
X017715Y017373D01*
X011173Y017373D01*
X011655Y017593D02*
X011622Y017673D01*
X011473Y017822D01*
X011278Y017903D01*
X011067Y017903D01*
X011033Y017889D01*
X011137Y017976D01*
X017684Y017976D01*
X017704Y017962D01*
X017772Y017976D01*
X017842Y017976D01*
X017859Y017993D01*
X017883Y017998D01*
X017922Y018056D01*
X017971Y018105D01*
X017971Y018129D01*
X018315Y018646D01*
X018318Y018649D01*
X018318Y018287D01*
X017624Y017593D01*
X011655Y017593D01*
X011647Y017614D02*
X017645Y017614D01*
X017763Y017732D02*
X011563Y017732D01*
X011404Y017851D02*
X017882Y017851D01*
X018000Y017969D02*
X017740Y017969D01*
X017694Y017969D02*
X011130Y017969D01*
X011058Y018196D02*
X009877Y017212D01*
X009877Y015243D01*
X012747Y012373D01*
X017173Y012373D01*
X017594Y012044D02*
X021819Y012044D01*
X021916Y011926D02*
X017475Y011926D01*
X017488Y011807D02*
X021916Y011807D01*
X021916Y011689D02*
X017606Y011689D01*
X017665Y011570D02*
X021916Y011570D01*
X021916Y011452D02*
X017703Y011452D01*
X017703Y011333D02*
X021808Y011333D01*
X021689Y011215D02*
X017681Y011215D01*
X017632Y011096D02*
X021639Y011096D01*
X021606Y010978D02*
X017527Y010978D01*
X017318Y010859D02*
X021606Y010859D01*
X021634Y010741D02*
X010117Y010741D01*
X010117Y010859D02*
X011028Y010859D01*
X011067Y010843D02*
X011278Y010843D01*
X011473Y010924D01*
X011622Y011073D01*
X011703Y011268D01*
X011703Y011478D01*
X011622Y011673D01*
X011473Y011822D01*
X011351Y011873D01*
X011473Y011924D01*
X011622Y012073D01*
X011703Y012268D01*
X011703Y012478D01*
X011622Y012673D01*
X011473Y012822D01*
X011278Y012903D01*
X011067Y012903D01*
X010872Y012822D01*
X010723Y012673D01*
X010643Y012478D01*
X010643Y012268D01*
X010723Y012073D01*
X010872Y011924D01*
X010995Y011873D01*
X010872Y011822D01*
X010723Y011673D01*
X010643Y011478D01*
X010643Y011268D01*
X010723Y011073D01*
X010872Y010924D01*
X011067Y010843D01*
X011318Y010859D02*
X017028Y010859D01*
X016818Y010978D02*
X011527Y010978D01*
X011632Y011096D02*
X016714Y011096D01*
X016665Y011215D02*
X011681Y011215D01*
X011703Y011333D02*
X016643Y011333D01*
X016643Y011452D02*
X011703Y011452D01*
X011665Y011570D02*
X016681Y011570D01*
X016739Y011689D02*
X011606Y011689D01*
X011488Y011807D02*
X016858Y011807D01*
X016870Y011926D02*
X011475Y011926D01*
X011594Y012044D02*
X016752Y012044D01*
X016708Y012637D02*
X012794Y012637D01*
X012675Y012755D02*
X016806Y012755D01*
X016997Y012874D02*
X012557Y012874D01*
X012438Y012992D02*
X020871Y012992D01*
X020990Y012874D02*
X017348Y012874D01*
X017540Y012755D02*
X021108Y012755D01*
X021227Y012637D02*
X017637Y012637D01*
X017686Y012518D02*
X021345Y012518D01*
X021464Y012400D02*
X017703Y012400D01*
X017703Y012281D02*
X021582Y012281D01*
X021701Y012163D02*
X017659Y012163D01*
X019796Y013703D02*
X011727Y013703D01*
X011609Y013822D02*
X019716Y013822D01*
X019683Y013940D02*
X011490Y013940D01*
X011372Y014059D02*
X019683Y014059D01*
X019683Y014177D02*
X011253Y014177D01*
X011135Y014296D02*
X019683Y014296D01*
X019683Y014414D02*
X011016Y014414D01*
X010898Y014533D02*
X019683Y014533D01*
X019729Y014651D02*
X010779Y014651D01*
X010661Y014770D02*
X019826Y014770D01*
X020287Y014888D02*
X010542Y014888D01*
X010424Y015007D02*
X020287Y015007D01*
X020287Y015125D02*
X010305Y015125D01*
X010187Y015244D02*
X020287Y015244D01*
X020287Y015362D02*
X010097Y015362D01*
X010097Y015481D02*
X020287Y015481D01*
X020287Y015599D02*
X010097Y015599D01*
X010097Y015718D02*
X020287Y015718D01*
X020287Y015836D02*
X010097Y015836D01*
X009657Y015836D02*
X008608Y015836D01*
X008726Y015718D02*
X009657Y015718D01*
X009657Y015599D02*
X009269Y015599D01*
X009427Y015481D02*
X009657Y015481D01*
X009657Y015362D02*
X009587Y015362D01*
X009101Y015125D02*
X008737Y015125D01*
X008626Y015007D02*
X009261Y015007D01*
X009421Y014888D02*
X008518Y014888D01*
X008674Y014770D02*
X009581Y014770D01*
X009637Y014651D02*
X008757Y014651D01*
X008806Y014533D02*
X009637Y014533D01*
X009637Y014414D02*
X008812Y014414D01*
X008808Y014296D02*
X009637Y014296D01*
X009637Y014177D02*
X008758Y014177D01*
X008678Y014059D02*
X009637Y014059D01*
X009637Y013940D02*
X008720Y013940D01*
X008812Y013822D02*
X009637Y013822D01*
X009637Y013703D02*
X008812Y013703D01*
X008812Y013585D02*
X009637Y013585D01*
X009637Y013466D02*
X008812Y013466D01*
X008812Y013348D02*
X009637Y013348D01*
X009637Y013229D02*
X008812Y013229D01*
X008812Y013111D02*
X009637Y013111D01*
X010117Y013111D02*
X011698Y013111D01*
X011816Y012992D02*
X010117Y012992D01*
X010117Y012874D02*
X010997Y012874D01*
X010806Y012755D02*
X010117Y012755D01*
X010117Y012637D02*
X010708Y012637D01*
X010659Y012518D02*
X010117Y012518D01*
X010117Y012400D02*
X010643Y012400D01*
X010643Y012281D02*
X010117Y012281D01*
X010117Y012163D02*
X010686Y012163D01*
X010752Y012044D02*
X010117Y012044D01*
X010117Y011926D02*
X010870Y011926D01*
X010858Y011807D02*
X010117Y011807D01*
X010117Y011689D02*
X010739Y011689D01*
X010681Y011570D02*
X010117Y011570D01*
X010117Y011452D02*
X010643Y011452D01*
X010643Y011333D02*
X010117Y011333D01*
X010117Y011215D02*
X010665Y011215D01*
X010714Y011096D02*
X010117Y011096D01*
X010117Y010978D02*
X010818Y010978D01*
X010117Y010622D02*
X021683Y010622D01*
X021795Y010504D02*
X010117Y010504D01*
X010117Y010148D02*
X022846Y010148D01*
X022846Y010030D02*
X010117Y010030D01*
X011659Y012163D02*
X012646Y012163D01*
X012527Y012281D02*
X011703Y012281D01*
X011703Y012400D02*
X012409Y012400D01*
X012290Y012518D02*
X011686Y012518D01*
X011637Y012637D02*
X012172Y012637D01*
X012053Y012755D02*
X011540Y012755D01*
X011348Y012874D02*
X011935Y012874D01*
X012201Y013229D02*
X020634Y013229D01*
X020753Y013111D02*
X012320Y013111D01*
X012083Y013348D02*
X020516Y013348D01*
X020397Y013466D02*
X011964Y013466D01*
X011846Y013585D02*
X019995Y013585D01*
X020171Y013585D02*
X020287Y013585D01*
X020507Y013668D02*
X022136Y012038D01*
X022136Y010912D01*
X023286Y010859D02*
X024606Y010859D01*
X024606Y010978D02*
X023286Y010978D01*
X023286Y011096D02*
X024639Y011096D01*
X024689Y011215D02*
X023286Y011215D01*
X023286Y011333D02*
X024808Y011333D01*
X024634Y010741D02*
X023286Y010741D01*
X023286Y010622D02*
X024683Y010622D01*
X024795Y010504D02*
X023286Y010504D01*
X026608Y010385D02*
X026644Y010385D01*
X027017Y010635D02*
X027017Y010635D01*
X029085Y010531D02*
X029085Y007853D01*
X030165Y007853D01*
X029827Y007541D02*
X029424Y007541D01*
X029351Y007468D02*
X029516Y007633D01*
X029735Y007633D01*
X029894Y007475D01*
X029887Y007468D01*
X029351Y007468D01*
X028895Y007248D02*
X028545Y006898D01*
X028545Y006733D01*
X028085Y006712D02*
X027925Y006712D01*
X027925Y006830D02*
X028085Y006830D01*
X028111Y006949D02*
X027900Y006949D01*
X027782Y007067D02*
X028229Y007067D01*
X028348Y007186D02*
X027663Y007186D01*
X027925Y006593D02*
X028085Y006593D01*
X028153Y006475D02*
X027858Y006475D01*
X027739Y006356D02*
X028272Y006356D01*
X028819Y006356D02*
X029352Y006356D01*
X029233Y006475D02*
X028938Y006475D01*
X029005Y006593D02*
X029165Y006593D01*
X029165Y006712D02*
X029005Y006712D01*
X029005Y006830D02*
X029165Y006830D01*
X029191Y006949D02*
X028980Y006949D01*
X028895Y007248D02*
X029978Y007248D01*
X029990Y007260D01*
X030634Y007260D01*
X032514Y009141D01*
X032514Y011700D01*
X034869Y014054D01*
X035007Y014054D01*
X035405Y013703D02*
X035608Y013703D01*
X035507Y013805D02*
X035757Y013554D01*
X035507Y013304D01*
X035256Y013554D01*
X035507Y013805D01*
X035726Y013585D02*
X035287Y013585D01*
X035344Y013466D02*
X035669Y013466D01*
X035551Y013348D02*
X035462Y013348D01*
X035007Y013054D02*
X033302Y011349D01*
X033302Y009338D01*
X030636Y006671D01*
X029688Y006671D01*
X029625Y006733D01*
X029981Y007028D02*
X030069Y007028D01*
X030081Y007040D01*
X030693Y007040D01*
X030544Y006891D01*
X030085Y006891D01*
X030085Y006924D01*
X029981Y007028D01*
X030060Y006949D02*
X030602Y006949D01*
X030869Y006593D02*
X031952Y006593D01*
X031884Y006712D02*
X030987Y006712D01*
X031106Y006830D02*
X031817Y006830D01*
X031785Y006949D02*
X031224Y006949D01*
X031343Y007067D02*
X031753Y007067D01*
X031735Y007186D02*
X031461Y007186D01*
X031580Y007304D02*
X031735Y007304D01*
X031735Y007423D02*
X031698Y007423D01*
X030959Y007897D02*
X030625Y007897D01*
X030625Y008015D02*
X031078Y008015D01*
X031196Y008134D02*
X030535Y008134D01*
X030625Y008044D02*
X030356Y008313D01*
X029975Y008313D01*
X029735Y008073D01*
X029516Y008073D01*
X029305Y008284D01*
X029305Y010378D01*
X029342Y010363D01*
X029553Y010363D01*
X029748Y010443D01*
X029897Y010592D01*
X029978Y010787D01*
X029978Y010998D01*
X029897Y011193D01*
X029748Y011342D01*
X029688Y011367D01*
X029688Y011486D01*
X030252Y012050D01*
X031394Y012050D01*
X031394Y011263D01*
X031488Y011170D01*
X032294Y011170D01*
X032294Y009232D01*
X030542Y007480D01*
X030443Y007480D01*
X030625Y007663D01*
X030625Y008044D01*
X030625Y007778D02*
X030841Y007778D01*
X030722Y007660D02*
X030623Y007660D01*
X030604Y007541D02*
X030504Y007541D01*
X029796Y008134D02*
X029455Y008134D01*
X029337Y008252D02*
X029914Y008252D01*
X029305Y008371D02*
X031433Y008371D01*
X031315Y008252D02*
X030417Y008252D01*
X029305Y008489D02*
X031552Y008489D01*
X031670Y008608D02*
X029305Y008608D01*
X029305Y008726D02*
X031789Y008726D01*
X031907Y008845D02*
X029305Y008845D01*
X029305Y008963D02*
X032026Y008963D01*
X032144Y009082D02*
X029305Y009082D01*
X029305Y009200D02*
X032263Y009200D01*
X032294Y009319D02*
X029305Y009319D01*
X029305Y009437D02*
X032294Y009437D01*
X032294Y009556D02*
X029305Y009556D01*
X029305Y009674D02*
X032294Y009674D01*
X032294Y009793D02*
X029305Y009793D01*
X029305Y009911D02*
X032294Y009911D01*
X032294Y010030D02*
X029305Y010030D01*
X029305Y010148D02*
X032294Y010148D01*
X032294Y010267D02*
X029305Y010267D01*
X029608Y010385D02*
X032294Y010385D01*
X032294Y010504D02*
X029808Y010504D01*
X029909Y010622D02*
X032294Y010622D01*
X032294Y010741D02*
X029958Y010741D01*
X029978Y010859D02*
X032294Y010859D01*
X032294Y010978D02*
X029978Y010978D01*
X029937Y011096D02*
X032294Y011096D01*
X032734Y011096D02*
X033082Y011096D01*
X033082Y010978D02*
X032734Y010978D01*
X032734Y010859D02*
X033082Y010859D01*
X033082Y010741D02*
X032734Y010741D01*
X032734Y010622D02*
X033082Y010622D01*
X033082Y010504D02*
X032734Y010504D01*
X032734Y010385D02*
X033082Y010385D01*
X033082Y010267D02*
X032734Y010267D01*
X032734Y010148D02*
X033082Y010148D01*
X033082Y010030D02*
X032734Y010030D01*
X032734Y009911D02*
X033082Y009911D01*
X033082Y009793D02*
X032734Y009793D01*
X032734Y009674D02*
X033082Y009674D01*
X033082Y009556D02*
X032734Y009556D01*
X032734Y009437D02*
X033082Y009437D01*
X033082Y009429D02*
X033082Y011258D01*
X033082Y011440D01*
X034477Y012835D01*
X034477Y013274D01*
X034757Y013554D01*
X034718Y013593D01*
X032734Y011609D01*
X032734Y009081D01*
X033082Y009429D01*
X032972Y009319D02*
X032734Y009319D01*
X032734Y009200D02*
X032854Y009200D01*
X032735Y009082D02*
X032734Y009082D01*
X033120Y008845D02*
X034477Y008845D01*
X034477Y008963D02*
X033239Y008963D01*
X033357Y009082D02*
X034477Y009082D01*
X034477Y009200D02*
X033476Y009200D01*
X033522Y009319D02*
X034522Y009319D01*
X034640Y009437D02*
X033522Y009437D01*
X033522Y009556D02*
X034755Y009556D01*
X034637Y009674D02*
X033522Y009674D01*
X033522Y009793D02*
X034518Y009793D01*
X034477Y009911D02*
X033522Y009911D01*
X033522Y010030D02*
X034477Y010030D01*
X034477Y010148D02*
X033522Y010148D01*
X033522Y010267D02*
X034477Y010267D01*
X034588Y010385D02*
X033522Y010385D01*
X033522Y010504D02*
X034707Y010504D01*
X034689Y010622D02*
X033522Y010622D01*
X033522Y010741D02*
X034570Y010741D01*
X034477Y010859D02*
X033522Y010859D01*
X033522Y010978D02*
X034477Y010978D01*
X034477Y011096D02*
X033522Y011096D01*
X033522Y011215D02*
X034477Y011215D01*
X034536Y011333D02*
X033597Y011333D01*
X033715Y011452D02*
X034655Y011452D01*
X034741Y011570D02*
X033834Y011570D01*
X033952Y011689D02*
X034622Y011689D01*
X034504Y011807D02*
X034071Y011807D01*
X034189Y011926D02*
X034477Y011926D01*
X034477Y012044D02*
X034308Y012044D01*
X034426Y012163D02*
X034477Y012163D01*
X034160Y012518D02*
X033644Y012518D01*
X033526Y012400D02*
X034041Y012400D01*
X033923Y012281D02*
X033407Y012281D01*
X033289Y012163D02*
X033804Y012163D01*
X033686Y012044D02*
X033170Y012044D01*
X033052Y011926D02*
X033567Y011926D01*
X033449Y011807D02*
X032933Y011807D01*
X032815Y011689D02*
X033330Y011689D01*
X033212Y011570D02*
X032734Y011570D01*
X032734Y011452D02*
X033093Y011452D01*
X033082Y011333D02*
X032734Y011333D01*
X032734Y011215D02*
X033082Y011215D01*
X032454Y011950D02*
X032454Y012136D01*
X032360Y012230D01*
X032174Y012230D01*
X032224Y012250D01*
X032373Y012400D01*
X032903Y012400D01*
X032785Y012281D02*
X032255Y012281D01*
X032373Y012400D02*
X032454Y012594D01*
X032454Y012805D01*
X032373Y013000D01*
X032224Y013149D01*
X032102Y013200D01*
X032224Y013250D01*
X032373Y013400D01*
X032454Y013594D01*
X032454Y013805D01*
X032429Y013865D01*
X033378Y014814D01*
X034497Y014814D01*
X034757Y014554D01*
X034477Y014274D01*
X034477Y013973D01*
X032454Y011950D01*
X032454Y012044D02*
X032548Y012044D01*
X032666Y012163D02*
X032427Y012163D01*
X032422Y012518D02*
X033022Y012518D01*
X033140Y012637D02*
X032454Y012637D01*
X032454Y012755D02*
X033259Y012755D01*
X033377Y012874D02*
X032425Y012874D01*
X032376Y012992D02*
X033496Y012992D01*
X033614Y013111D02*
X032262Y013111D01*
X032173Y013229D02*
X033733Y013229D01*
X033851Y013348D02*
X032322Y013348D01*
X032401Y013466D02*
X033970Y013466D01*
X034088Y013585D02*
X032450Y013585D01*
X032454Y013703D02*
X034207Y013703D01*
X034325Y013822D02*
X032447Y013822D01*
X032504Y013940D02*
X034444Y013940D01*
X034477Y014059D02*
X032622Y014059D01*
X032741Y014177D02*
X034477Y014177D01*
X034499Y014296D02*
X032859Y014296D01*
X032978Y014414D02*
X034617Y014414D01*
X034736Y014533D02*
X033096Y014533D01*
X033215Y014651D02*
X034660Y014651D01*
X034541Y014770D02*
X033333Y014770D01*
X032892Y015007D02*
X032454Y015007D01*
X032454Y015004D02*
X032454Y015630D01*
X033635Y016811D01*
X033702Y016879D01*
X033739Y016967D01*
X033739Y019278D01*
X034275Y019814D01*
X034497Y019814D01*
X034757Y019554D01*
X034477Y019274D01*
X034477Y018835D01*
X034757Y018554D01*
X034477Y018274D01*
X034477Y017835D01*
X034757Y017554D01*
X034477Y017274D01*
X034477Y016835D01*
X034757Y016554D01*
X034477Y016274D01*
X034477Y015835D01*
X034757Y015554D01*
X034497Y015294D01*
X033230Y015294D01*
X033142Y015258D01*
X033075Y015190D01*
X032090Y014205D01*
X032029Y014230D01*
X031818Y014230D01*
X031624Y014149D01*
X031475Y014000D01*
X031394Y013805D01*
X031394Y013594D01*
X031475Y013400D01*
X031624Y013250D01*
X031746Y013200D01*
X031624Y013149D01*
X031475Y013000D01*
X031394Y012805D01*
X031394Y012594D01*
X031419Y012534D01*
X031415Y012530D01*
X030392Y012530D01*
X030392Y014110D01*
X030356Y014198D01*
X030288Y014265D01*
X029501Y015053D01*
X029413Y015089D01*
X027291Y015089D01*
X026780Y015600D01*
X026732Y015620D01*
X026781Y015599D02*
X031394Y015599D01*
X031394Y015481D02*
X026900Y015481D01*
X027018Y015362D02*
X031394Y015362D01*
X031394Y015244D02*
X027137Y015244D01*
X027255Y015125D02*
X031394Y015125D01*
X031394Y015007D02*
X029547Y015007D01*
X029665Y014888D02*
X032773Y014888D01*
X032655Y014770D02*
X029784Y014770D01*
X029902Y014651D02*
X032536Y014651D01*
X032418Y014533D02*
X030021Y014533D01*
X030139Y014414D02*
X032299Y014414D01*
X032181Y014296D02*
X030258Y014296D01*
X030364Y014177D02*
X031692Y014177D01*
X031533Y014059D02*
X030392Y014059D01*
X030392Y013940D02*
X031450Y013940D01*
X031401Y013822D02*
X030392Y013822D01*
X030392Y013703D02*
X031394Y013703D01*
X031398Y013585D02*
X030392Y013585D01*
X030392Y013466D02*
X031447Y013466D01*
X031526Y013348D02*
X030392Y013348D01*
X030392Y013229D02*
X031675Y013229D01*
X031585Y013111D02*
X030392Y013111D01*
X030392Y012992D02*
X031471Y012992D01*
X031422Y012874D02*
X030392Y012874D01*
X030392Y012755D02*
X031394Y012755D01*
X031394Y012637D02*
X030392Y012637D01*
X030246Y012044D02*
X031394Y012044D01*
X031394Y011926D02*
X030127Y011926D01*
X030009Y011807D02*
X031394Y011807D01*
X031394Y011689D02*
X029890Y011689D01*
X029772Y011570D02*
X031394Y011570D01*
X031394Y011452D02*
X029688Y011452D01*
X029756Y011333D02*
X031394Y011333D01*
X031443Y011215D02*
X029875Y011215D01*
X029448Y010893D02*
X029085Y010531D01*
X032883Y008608D02*
X034703Y008608D01*
X034692Y008489D02*
X033157Y008489D01*
X033002Y008726D02*
X034585Y008726D01*
X034574Y008371D02*
X033499Y008371D01*
X033698Y008252D02*
X034477Y008252D01*
X034477Y008134D02*
X033816Y008134D01*
X033926Y008015D02*
X034477Y008015D01*
X034477Y007897D02*
X033994Y007897D01*
X034063Y007778D02*
X034533Y007778D01*
X034651Y007660D02*
X034100Y007660D01*
X034132Y007541D02*
X034744Y007541D01*
X034626Y007423D02*
X034155Y007423D01*
X034155Y007304D02*
X034507Y007304D01*
X034477Y007186D02*
X034155Y007186D01*
X034138Y007067D02*
X034477Y007067D01*
X034477Y006949D02*
X034106Y006949D01*
X034074Y006830D02*
X034481Y006830D01*
X034599Y006712D02*
X034007Y006712D01*
X033939Y006593D02*
X034718Y006593D01*
X034678Y006475D02*
X033838Y006475D01*
X033720Y006356D02*
X034559Y006356D01*
X034509Y006238D02*
X033537Y006238D01*
X033239Y006119D02*
X034477Y006119D01*
X035235Y006533D02*
X035507Y006805D01*
X035778Y006533D01*
X035706Y006503D01*
X035557Y006354D01*
X035507Y006232D01*
X035456Y006354D01*
X035307Y006503D01*
X035235Y006533D01*
X035295Y006593D02*
X035718Y006593D01*
X035678Y006475D02*
X035335Y006475D01*
X035454Y006356D02*
X035559Y006356D01*
X035509Y006238D02*
X035504Y006238D01*
X035460Y005764D02*
X035553Y005764D01*
X035666Y005645D02*
X035347Y005645D01*
X036347Y005645D02*
X037993Y005645D01*
X037993Y005764D02*
X036460Y005764D01*
X036509Y005882D02*
X037993Y005882D01*
X037993Y006001D02*
X036537Y006001D01*
X036537Y006119D02*
X037993Y006119D01*
X037993Y006238D02*
X036504Y006238D01*
X036454Y006356D02*
X037993Y006356D01*
X037993Y006475D02*
X036335Y006475D01*
X036295Y006593D02*
X037993Y006593D01*
X037993Y006712D02*
X036414Y006712D01*
X036532Y006830D02*
X037993Y006830D01*
X037993Y006949D02*
X036537Y006949D01*
X036537Y007067D02*
X037993Y007067D01*
X037993Y007186D02*
X036537Y007186D01*
X036506Y007304D02*
X037993Y007304D01*
X037993Y007423D02*
X036387Y007423D01*
X036269Y007541D02*
X037993Y007541D01*
X037993Y007660D02*
X036362Y007660D01*
X036480Y007778D02*
X037993Y007778D01*
X037993Y007897D02*
X036537Y007897D01*
X036537Y008015D02*
X037993Y008015D01*
X037993Y008134D02*
X036537Y008134D01*
X036537Y008252D02*
X037993Y008252D01*
X037993Y008371D02*
X036439Y008371D01*
X036321Y008489D02*
X037993Y008489D01*
X037993Y008608D02*
X036310Y008608D01*
X036428Y008726D02*
X037993Y008726D01*
X037993Y008845D02*
X036537Y008845D01*
X036537Y008963D02*
X037993Y008963D01*
X037993Y009082D02*
X036537Y009082D01*
X036537Y009200D02*
X037993Y009200D01*
X037993Y009319D02*
X036491Y009319D01*
X036373Y009437D02*
X037993Y009437D01*
X037993Y009556D02*
X036258Y009556D01*
X036376Y009674D02*
X037993Y009674D01*
X037993Y009793D02*
X036495Y009793D01*
X036537Y009911D02*
X037993Y009911D01*
X037993Y010030D02*
X036537Y010030D01*
X036537Y010148D02*
X037993Y010148D01*
X037993Y010267D02*
X036537Y010267D01*
X036425Y010385D02*
X037993Y010385D01*
X037993Y010504D02*
X036306Y010504D01*
X036324Y010622D02*
X037993Y010622D01*
X037993Y010741D02*
X036443Y010741D01*
X036537Y010859D02*
X037993Y010859D01*
X037993Y010978D02*
X036537Y010978D01*
X036537Y011096D02*
X037993Y011096D01*
X037993Y011215D02*
X036537Y011215D01*
X036477Y011333D02*
X037993Y011333D01*
X037993Y011452D02*
X036358Y011452D01*
X036272Y011570D02*
X037993Y011570D01*
X037993Y011689D02*
X036391Y011689D01*
X036509Y011807D02*
X037993Y011807D01*
X037993Y011926D02*
X036537Y011926D01*
X036537Y012044D02*
X037993Y012044D01*
X037993Y012163D02*
X036537Y012163D01*
X036529Y012281D02*
X037993Y012281D01*
X037993Y012400D02*
X036410Y012400D01*
X036292Y012518D02*
X037993Y012518D01*
X037993Y012637D02*
X036339Y012637D01*
X036457Y012755D02*
X037993Y012755D01*
X037993Y012874D02*
X036537Y012874D01*
X036537Y012992D02*
X037993Y012992D01*
X037993Y013111D02*
X036537Y013111D01*
X036537Y013229D02*
X037993Y013229D01*
X037993Y013348D02*
X036462Y013348D01*
X036344Y013466D02*
X037993Y013466D01*
X037993Y013585D02*
X036287Y013585D01*
X036405Y013703D02*
X037993Y013703D01*
X037993Y013822D02*
X036524Y013822D01*
X036537Y013940D02*
X037993Y013940D01*
X037993Y014059D02*
X036537Y014059D01*
X036537Y014177D02*
X037993Y014177D01*
X037993Y014296D02*
X036514Y014296D01*
X036396Y014414D02*
X037993Y014414D01*
X037993Y014533D02*
X036277Y014533D01*
X036353Y014651D02*
X037993Y014651D01*
X037993Y014770D02*
X036472Y014770D01*
X036537Y014888D02*
X037993Y014888D01*
X037993Y015007D02*
X036537Y015007D01*
X036537Y015125D02*
X037993Y015125D01*
X037993Y015244D02*
X036537Y015244D01*
X036448Y015362D02*
X037993Y015362D01*
X037993Y015481D02*
X036329Y015481D01*
X036301Y015599D02*
X037993Y015599D01*
X037993Y015718D02*
X036420Y015718D01*
X036537Y015836D02*
X037993Y015836D01*
X037993Y015955D02*
X036537Y015955D01*
X036537Y016073D02*
X037993Y016073D01*
X037993Y016192D02*
X036537Y016192D01*
X036500Y016310D02*
X037993Y016310D01*
X037993Y016429D02*
X036381Y016429D01*
X036263Y016547D02*
X037993Y016547D01*
X037993Y016666D02*
X036368Y016666D01*
X036486Y016784D02*
X037993Y016784D01*
X037993Y016903D02*
X036537Y016903D01*
X036537Y017021D02*
X037993Y017021D01*
X037993Y017140D02*
X036537Y017140D01*
X036537Y017258D02*
X037993Y017258D01*
X037993Y017377D02*
X036433Y017377D01*
X036315Y017495D02*
X037993Y017495D01*
X037993Y017614D02*
X036316Y017614D01*
X036434Y017732D02*
X037993Y017732D01*
X037993Y017851D02*
X036537Y017851D01*
X036537Y017969D02*
X037993Y017969D01*
X037993Y018088D02*
X036537Y018088D01*
X036537Y018206D02*
X037993Y018206D01*
X037993Y018325D02*
X036485Y018325D01*
X036367Y018443D02*
X037993Y018443D01*
X037993Y018562D02*
X036264Y018562D01*
X036382Y018680D02*
X037993Y018680D01*
X037993Y018799D02*
X036501Y018799D01*
X036537Y018917D02*
X037993Y018917D01*
X037993Y019036D02*
X036537Y019036D01*
X036537Y019154D02*
X037993Y019154D01*
X037993Y019273D02*
X036537Y019273D01*
X036419Y019391D02*
X037993Y019391D01*
X037993Y019510D02*
X036300Y019510D01*
X036330Y019628D02*
X037993Y019628D01*
X037993Y019747D02*
X036449Y019747D01*
X036537Y019865D02*
X037993Y019865D01*
X037993Y019984D02*
X036537Y019984D01*
X036537Y020102D02*
X037993Y020102D01*
X037993Y020221D02*
X036537Y020221D01*
X036471Y020339D02*
X037993Y020339D01*
X037993Y020458D02*
X036352Y020458D01*
X036278Y020576D02*
X037993Y020576D01*
X037993Y020695D02*
X036397Y020695D01*
X036515Y020813D02*
X037993Y020813D01*
X037993Y020932D02*
X036537Y020932D01*
X036537Y021050D02*
X037993Y021050D01*
X037993Y021169D02*
X036537Y021169D01*
X036523Y021287D02*
X037993Y021287D01*
X037993Y021406D02*
X036404Y021406D01*
X036286Y021524D02*
X037993Y021524D01*
X037993Y021643D02*
X036345Y021643D01*
X036463Y021761D02*
X037993Y021761D01*
X037993Y021880D02*
X036537Y021880D01*
X036537Y021998D02*
X037993Y021998D01*
X037993Y022117D02*
X036537Y022117D01*
X036537Y022235D02*
X037993Y022235D01*
X037993Y022354D02*
X036456Y022354D01*
X036338Y022472D02*
X037993Y022472D01*
X037993Y022591D02*
X036273Y022591D01*
X036411Y022709D02*
X037993Y022709D01*
X037993Y022828D02*
X036487Y022828D01*
X036536Y022946D02*
X037993Y022946D01*
X037993Y023065D02*
X036537Y023065D01*
X036527Y023183D02*
X037993Y023183D01*
X037993Y023302D02*
X036478Y023302D01*
X036390Y023420D02*
X037993Y023420D01*
X037993Y023539D02*
X036221Y023539D01*
X035792Y023539D02*
X035221Y023539D01*
X035390Y023420D02*
X035623Y023420D01*
X035536Y023302D02*
X035478Y023302D01*
X035507Y022876D02*
X035557Y022754D01*
X035706Y022605D01*
X035778Y022575D01*
X035507Y022304D01*
X035235Y022575D01*
X035307Y022605D01*
X035456Y022754D01*
X035507Y022876D01*
X035487Y022828D02*
X035527Y022828D01*
X035602Y022709D02*
X035411Y022709D01*
X035273Y022591D02*
X035740Y022591D01*
X035675Y022472D02*
X035338Y022472D01*
X035456Y022354D02*
X035557Y022354D01*
X034740Y022591D02*
X034224Y022591D01*
X034273Y022709D02*
X034602Y022709D01*
X034527Y022828D02*
X034322Y022828D01*
X034346Y022946D02*
X034478Y022946D01*
X034477Y023065D02*
X034346Y023065D01*
X034346Y023183D02*
X034486Y023183D01*
X034536Y023302D02*
X034313Y023302D01*
X034264Y023420D02*
X034623Y023420D01*
X034792Y023539D02*
X034210Y023539D01*
X034091Y023657D02*
X037993Y023657D01*
X037993Y023776D02*
X033959Y023776D01*
X033054Y023776D02*
X023505Y023776D01*
X023624Y023657D02*
X032922Y023657D01*
X032804Y023539D02*
X032221Y023539D01*
X032390Y023420D02*
X032749Y023420D01*
X032700Y023302D02*
X032478Y023302D01*
X032527Y023183D02*
X032667Y023183D01*
X032667Y023065D02*
X032537Y023065D01*
X032536Y022946D02*
X032667Y022946D01*
X032691Y022828D02*
X032487Y022828D01*
X032411Y022709D02*
X032740Y022709D01*
X032789Y022591D02*
X032273Y022591D01*
X032900Y022472D02*
X031247Y022472D01*
X031247Y022354D02*
X033019Y022354D01*
X032443Y022235D02*
X031247Y022235D01*
X031247Y022117D02*
X032324Y022117D01*
X032206Y021998D02*
X031247Y021998D01*
X031247Y021880D02*
X031753Y021880D01*
X031559Y021761D02*
X031247Y021761D01*
X031247Y021643D02*
X031460Y021643D01*
X031411Y021524D02*
X031247Y021524D01*
X031247Y021406D02*
X031394Y021406D01*
X031394Y021287D02*
X031247Y021287D01*
X031247Y021169D02*
X031436Y021169D01*
X031501Y021050D02*
X031247Y021050D01*
X031247Y020932D02*
X031619Y020932D01*
X031611Y020813D02*
X031247Y020813D01*
X030897Y020458D02*
X030786Y020458D01*
X030871Y020484D02*
X031001Y020355D01*
X031089Y020318D01*
X031394Y020318D01*
X031394Y020271D01*
X031475Y020077D01*
X031624Y019928D01*
X031674Y019907D01*
X031488Y019907D01*
X031394Y019813D01*
X031394Y018941D01*
X031488Y018847D01*
X032360Y018847D01*
X032454Y018941D01*
X032454Y019813D01*
X032360Y019907D01*
X032174Y019907D01*
X032224Y019928D01*
X032373Y020077D01*
X032454Y020271D01*
X032454Y020482D01*
X032373Y020677D01*
X032224Y020826D01*
X032102Y020877D01*
X032224Y020928D01*
X032373Y021077D01*
X032454Y021271D01*
X032454Y021482D01*
X032429Y021543D01*
X032700Y021814D01*
X034497Y021814D01*
X034757Y021554D01*
X034477Y021274D01*
X034477Y020835D01*
X034757Y020554D01*
X034497Y020294D01*
X034128Y020294D01*
X034040Y020258D01*
X033972Y020190D01*
X033295Y019513D01*
X033259Y019425D01*
X033259Y017114D01*
X032436Y016292D01*
X032454Y016334D01*
X032454Y016545D01*
X032373Y016740D01*
X032224Y016889D01*
X032102Y016940D01*
X032224Y016991D01*
X032373Y017140D01*
X033259Y017140D01*
X033259Y017258D02*
X032422Y017258D01*
X032454Y017334D02*
X032454Y017545D01*
X032373Y017740D01*
X032224Y017889D01*
X032029Y017970D01*
X031818Y017970D01*
X031758Y017945D01*
X030786Y018917D01*
X030786Y020593D01*
X030803Y020552D01*
X030871Y020484D01*
X030793Y020576D02*
X030786Y020576D01*
X030786Y020339D02*
X031037Y020339D01*
X030786Y020221D02*
X031415Y020221D01*
X031464Y020102D02*
X030786Y020102D01*
X030786Y019984D02*
X031567Y019984D01*
X031446Y019865D02*
X030786Y019865D01*
X030786Y019747D02*
X031394Y019747D01*
X031394Y019628D02*
X030786Y019628D01*
X030786Y019510D02*
X031394Y019510D01*
X031394Y019391D02*
X030786Y019391D01*
X030786Y019273D02*
X031394Y019273D01*
X031394Y019154D02*
X030786Y019154D01*
X030786Y019036D02*
X031394Y019036D01*
X031417Y018917D02*
X030786Y018917D01*
X030904Y018799D02*
X033259Y018799D01*
X033259Y018917D02*
X032431Y018917D01*
X032454Y019036D02*
X033259Y019036D01*
X033259Y019154D02*
X032454Y019154D01*
X032454Y019273D02*
X033259Y019273D01*
X033259Y019391D02*
X032454Y019391D01*
X032454Y019510D02*
X033294Y019510D01*
X033411Y019628D02*
X032454Y019628D01*
X032454Y019747D02*
X033529Y019747D01*
X033648Y019865D02*
X032402Y019865D01*
X032280Y019984D02*
X033766Y019984D01*
X033885Y020102D02*
X032384Y020102D01*
X032433Y020221D02*
X034003Y020221D01*
X034542Y020339D02*
X032454Y020339D01*
X032454Y020458D02*
X034661Y020458D01*
X034735Y020576D02*
X032415Y020576D01*
X032355Y020695D02*
X034616Y020695D01*
X034498Y020813D02*
X032237Y020813D01*
X032228Y020932D02*
X034477Y020932D01*
X034477Y021050D02*
X032347Y021050D01*
X032411Y021169D02*
X034477Y021169D01*
X034490Y021287D02*
X032454Y021287D01*
X032454Y021406D02*
X034609Y021406D01*
X034727Y021524D02*
X032436Y021524D01*
X032529Y021643D02*
X034668Y021643D01*
X034550Y021761D02*
X032648Y021761D01*
X033994Y022354D02*
X034557Y022354D01*
X034675Y022472D02*
X034113Y022472D01*
X035256Y021554D02*
X035507Y021805D01*
X035757Y021554D01*
X035507Y021304D01*
X035256Y021554D01*
X035286Y021524D02*
X035727Y021524D01*
X035668Y021643D02*
X035345Y021643D01*
X035463Y021761D02*
X035550Y021761D01*
X035609Y021406D02*
X035404Y021406D01*
X035507Y020805D02*
X035757Y020554D01*
X035507Y020304D01*
X035256Y020554D01*
X035507Y020805D01*
X035616Y020695D02*
X035397Y020695D01*
X035278Y020576D02*
X035735Y020576D01*
X035661Y020458D02*
X035352Y020458D01*
X035471Y020339D02*
X035542Y020339D01*
X035507Y019805D02*
X035757Y019554D01*
X035507Y019304D01*
X035256Y019554D01*
X035507Y019805D01*
X035564Y019747D02*
X035449Y019747D01*
X035330Y019628D02*
X035683Y019628D01*
X035713Y019510D02*
X035300Y019510D01*
X035419Y019391D02*
X035594Y019391D01*
X035507Y018805D02*
X035757Y018554D01*
X035507Y018304D01*
X035256Y018554D01*
X035507Y018805D01*
X035512Y018799D02*
X035501Y018799D01*
X035382Y018680D02*
X035631Y018680D01*
X035749Y018562D02*
X035264Y018562D01*
X035367Y018443D02*
X035646Y018443D01*
X035528Y018325D02*
X035485Y018325D01*
X035507Y017805D02*
X035757Y017554D01*
X035507Y017304D01*
X035256Y017554D01*
X035507Y017805D01*
X035579Y017732D02*
X035434Y017732D01*
X035316Y017614D02*
X035697Y017614D01*
X035698Y017495D02*
X035315Y017495D01*
X035433Y017377D02*
X035580Y017377D01*
X035507Y016805D02*
X035757Y016554D01*
X035507Y016304D01*
X035256Y016554D01*
X035507Y016805D01*
X035486Y016784D02*
X035527Y016784D01*
X035645Y016666D02*
X035368Y016666D01*
X035263Y016547D02*
X035750Y016547D01*
X035632Y016429D02*
X035381Y016429D01*
X035500Y016310D02*
X035513Y016310D01*
X035507Y015805D02*
X035757Y015554D01*
X035507Y015304D01*
X035256Y015554D01*
X035507Y015805D01*
X035593Y015718D02*
X035420Y015718D01*
X035301Y015599D02*
X035712Y015599D01*
X035684Y015481D02*
X035329Y015481D01*
X035448Y015362D02*
X035565Y015362D01*
X035507Y014805D02*
X035256Y014554D01*
X035507Y014304D01*
X035757Y014554D01*
X035507Y014805D01*
X035541Y014770D02*
X035472Y014770D01*
X035353Y014651D02*
X035660Y014651D01*
X035736Y014533D02*
X035277Y014533D01*
X035396Y014414D02*
X035617Y014414D01*
X034726Y013585D02*
X034711Y013585D01*
X034669Y013466D02*
X034592Y013466D01*
X034551Y013348D02*
X034474Y013348D01*
X034477Y013229D02*
X034355Y013229D01*
X034237Y013111D02*
X034477Y013111D01*
X034477Y012992D02*
X034118Y012992D01*
X034000Y012874D02*
X034477Y012874D01*
X034397Y012755D02*
X033881Y012755D01*
X033763Y012637D02*
X034278Y012637D01*
X035256Y012554D02*
X035507Y012805D01*
X035757Y012554D01*
X035507Y012304D01*
X035256Y012554D01*
X035292Y012518D02*
X035721Y012518D01*
X035674Y012637D02*
X035339Y012637D01*
X035457Y012755D02*
X035556Y012755D01*
X035603Y012400D02*
X035410Y012400D01*
X035507Y011805D02*
X035757Y011554D01*
X035507Y011304D01*
X035256Y011554D01*
X035507Y011805D01*
X035622Y011689D02*
X035391Y011689D01*
X035272Y011570D02*
X035741Y011570D01*
X035655Y011452D02*
X035358Y011452D01*
X035477Y011333D02*
X035536Y011333D01*
X035507Y010805D02*
X035757Y010554D01*
X035507Y010304D01*
X035256Y010554D01*
X035507Y010805D01*
X035570Y010741D02*
X035443Y010741D01*
X035324Y010622D02*
X035689Y010622D01*
X035707Y010504D02*
X035306Y010504D01*
X035425Y010385D02*
X035588Y010385D01*
X035507Y009805D02*
X035757Y009554D01*
X035507Y009304D01*
X035256Y009554D01*
X035507Y009805D01*
X035495Y009793D02*
X035518Y009793D01*
X035637Y009674D02*
X035376Y009674D01*
X035258Y009556D02*
X035755Y009556D01*
X035640Y009437D02*
X035373Y009437D01*
X035491Y009319D02*
X035522Y009319D01*
X035507Y008805D02*
X035757Y008554D01*
X035507Y008304D01*
X035256Y008554D01*
X035507Y008805D01*
X035428Y008726D02*
X035585Y008726D01*
X035703Y008608D02*
X035310Y008608D01*
X035321Y008489D02*
X035692Y008489D01*
X035574Y008371D02*
X035439Y008371D01*
X035507Y007805D02*
X035757Y007554D01*
X035507Y007304D01*
X035506Y007304D01*
X035507Y007304D02*
X035256Y007554D01*
X035507Y007805D01*
X035533Y007778D02*
X035480Y007778D01*
X035362Y007660D02*
X035651Y007660D01*
X035744Y007541D02*
X035269Y007541D01*
X035387Y007423D02*
X035626Y007423D01*
X035599Y006712D02*
X035414Y006712D01*
X033663Y004460D02*
X033350Y004460D01*
X033461Y004342D02*
X033552Y004342D01*
X033510Y003868D02*
X033503Y003868D01*
X033451Y003749D02*
X033562Y003749D01*
X033680Y003631D02*
X033333Y003631D01*
X032680Y003631D02*
X032333Y003631D01*
X032451Y003749D02*
X032562Y003749D01*
X032510Y003868D02*
X032503Y003868D01*
X032461Y004342D02*
X032552Y004342D01*
X032663Y004460D02*
X032350Y004460D01*
X031663Y004460D02*
X031350Y004460D01*
X031461Y004342D02*
X031552Y004342D01*
X031510Y003868D02*
X031503Y003868D01*
X031451Y003749D02*
X031562Y003749D01*
X031680Y003631D02*
X031333Y003631D01*
X030680Y003631D02*
X030333Y003631D01*
X030451Y003749D02*
X030562Y003749D01*
X030510Y003868D02*
X030503Y003868D01*
X030461Y004342D02*
X030552Y004342D01*
X030663Y004460D02*
X030350Y004460D01*
X029663Y004460D02*
X029350Y004460D01*
X029461Y004342D02*
X029552Y004342D01*
X029510Y003868D02*
X029503Y003868D01*
X029451Y003749D02*
X029562Y003749D01*
X029680Y003631D02*
X029333Y003631D01*
X028680Y003631D02*
X028333Y003631D01*
X028451Y003749D02*
X028562Y003749D01*
X028510Y003868D02*
X028503Y003868D01*
X028461Y004342D02*
X028552Y004342D01*
X028663Y004460D02*
X028350Y004460D01*
X027663Y004460D02*
X027350Y004460D01*
X027461Y004342D02*
X027552Y004342D01*
X027510Y003868D02*
X027503Y003868D01*
X027451Y003749D02*
X027562Y003749D01*
X027680Y003631D02*
X027333Y003631D01*
X029899Y006356D02*
X032171Y006356D01*
X032053Y006475D02*
X030750Y006475D01*
X029912Y013466D02*
X028282Y013466D01*
X028379Y013585D02*
X029912Y013585D01*
X029912Y013703D02*
X028425Y013703D01*
X028425Y013822D02*
X029912Y013822D01*
X029912Y013940D02*
X028425Y013940D01*
X028425Y014059D02*
X029816Y014059D01*
X029697Y014177D02*
X028425Y014177D01*
X028425Y014296D02*
X029579Y014296D01*
X029460Y014414D02*
X028392Y014414D01*
X028314Y014533D02*
X029342Y014533D01*
X027737Y014533D02*
X027314Y014533D01*
X027392Y014414D02*
X027658Y014414D01*
X027625Y014296D02*
X027425Y014296D01*
X027425Y014177D02*
X027625Y014177D01*
X027625Y014059D02*
X027425Y014059D01*
X027425Y013940D02*
X027625Y013940D01*
X027625Y013822D02*
X027425Y013822D01*
X027425Y013703D02*
X027625Y013703D01*
X027671Y013585D02*
X027379Y013585D01*
X027282Y013466D02*
X027769Y013466D01*
X027025Y014016D02*
X025995Y015046D01*
X022278Y015046D01*
X022083Y014851D01*
X022083Y014221D01*
X021683Y014177D02*
X021483Y014177D01*
X021483Y014059D02*
X021683Y014059D01*
X021683Y013940D02*
X021483Y013940D01*
X021483Y013902D02*
X021483Y014541D01*
X021422Y014688D01*
X021310Y014801D01*
X021163Y014861D01*
X021004Y014861D01*
X020857Y014801D01*
X020744Y014688D01*
X020727Y014645D01*
X020727Y016007D01*
X022566Y016007D01*
X022695Y016136D01*
X023140Y016581D01*
X023163Y016581D01*
X023310Y016642D01*
X023422Y016755D01*
X023483Y016902D01*
X023483Y017001D01*
X024625Y017001D01*
X024625Y016696D01*
X024686Y016549D01*
X024799Y016437D01*
X024946Y016376D01*
X025105Y016376D01*
X025252Y016437D01*
X025273Y016457D01*
X026421Y015309D01*
X026441Y015261D01*
X026988Y014713D01*
X027046Y014656D01*
X026946Y014656D01*
X026799Y014595D01*
X026778Y014574D01*
X026086Y015266D01*
X025904Y015266D01*
X022187Y015266D01*
X022058Y015137D01*
X021863Y014942D01*
X021863Y014803D01*
X021857Y014801D01*
X021744Y014688D01*
X021683Y014541D01*
X021683Y013902D01*
X021744Y013755D01*
X021808Y013691D01*
X021582Y013691D01*
X021451Y013823D01*
X021483Y013902D01*
X021451Y013822D02*
X021716Y013822D01*
X021796Y013703D02*
X021570Y013703D01*
X021491Y013471D02*
X022278Y013471D01*
X022475Y013668D01*
X022475Y013673D01*
X022591Y013789D01*
X022591Y014769D01*
X022672Y014849D01*
X025625Y014849D01*
X026025Y014449D01*
X026025Y014016D01*
X025625Y014059D02*
X025425Y014059D01*
X025425Y014177D02*
X025625Y014177D01*
X025625Y014296D02*
X025425Y014296D01*
X025392Y014414D02*
X025658Y014414D01*
X025630Y014533D02*
X025314Y014533D01*
X025425Y013940D02*
X025625Y013940D01*
X025625Y013822D02*
X025425Y013822D01*
X025425Y013703D02*
X025625Y013703D01*
X025671Y013585D02*
X025379Y013585D01*
X025282Y013466D02*
X025769Y013466D01*
X026282Y013466D02*
X026769Y013466D01*
X026671Y013585D02*
X026379Y013585D01*
X026425Y013703D02*
X026625Y013703D01*
X026625Y013822D02*
X026425Y013822D01*
X026425Y013940D02*
X026625Y013940D01*
X026625Y014059D02*
X026425Y014059D01*
X026425Y014177D02*
X026552Y014177D01*
X026434Y014296D02*
X026425Y014296D01*
X026701Y014651D02*
X026935Y014651D01*
X026932Y014770D02*
X026582Y014770D01*
X026464Y014888D02*
X026813Y014888D01*
X026695Y015007D02*
X026345Y015007D01*
X026227Y015125D02*
X026576Y015125D01*
X026458Y015244D02*
X026108Y015244D01*
X026249Y015481D02*
X020727Y015481D01*
X020727Y015599D02*
X026130Y015599D01*
X026012Y015718D02*
X020727Y015718D01*
X020727Y015836D02*
X025893Y015836D01*
X025775Y015955D02*
X020727Y015955D01*
X020507Y016227D02*
X020507Y016798D01*
X020083Y017221D01*
X020483Y017258D02*
X020683Y017258D01*
X020683Y017140D02*
X020483Y017140D01*
X020594Y017021D02*
X020683Y017021D01*
X020727Y016784D02*
X020732Y016784D01*
X020727Y016666D02*
X020833Y016666D01*
X020727Y016547D02*
X022484Y016547D01*
X022602Y016666D02*
X022333Y016666D01*
X022435Y016784D02*
X022721Y016784D01*
X022683Y016903D02*
X022483Y016903D01*
X022483Y017021D02*
X022683Y017021D01*
X022683Y017140D02*
X022483Y017140D01*
X022483Y017258D02*
X022683Y017258D01*
X022683Y017377D02*
X022483Y017377D01*
X022483Y017495D02*
X022683Y017495D01*
X022714Y017614D02*
X022453Y017614D01*
X022378Y017732D02*
X022789Y017732D01*
X023378Y017732D02*
X027767Y017732D01*
X027767Y017614D02*
X027206Y017614D01*
X027252Y017595D02*
X027105Y017656D01*
X026946Y017656D01*
X026799Y017595D01*
X026686Y017482D01*
X026625Y017335D01*
X026625Y016696D01*
X026686Y016549D01*
X026799Y016437D01*
X026946Y016376D01*
X027105Y016376D01*
X027252Y016437D01*
X027364Y016549D01*
X027425Y016696D01*
X027425Y017335D01*
X027364Y017482D01*
X027252Y017595D01*
X027351Y017495D02*
X027699Y017495D01*
X027642Y017377D02*
X027408Y017377D01*
X027425Y017258D02*
X027625Y017258D01*
X027625Y017140D02*
X027425Y017140D01*
X027425Y017021D02*
X027625Y017021D01*
X027625Y016903D02*
X027425Y016903D01*
X027425Y016784D02*
X027625Y016784D01*
X027638Y016666D02*
X027413Y016666D01*
X027363Y016547D02*
X027688Y016547D01*
X027817Y016429D02*
X027233Y016429D01*
X026817Y016429D02*
X026233Y016429D01*
X026363Y016547D02*
X026688Y016547D01*
X026638Y016666D02*
X026413Y016666D01*
X026425Y016784D02*
X026625Y016784D01*
X026625Y016903D02*
X026425Y016903D01*
X026425Y017021D02*
X026625Y017021D01*
X026625Y017140D02*
X026425Y017140D01*
X026425Y017258D02*
X026625Y017258D01*
X026642Y017377D02*
X026408Y017377D01*
X026351Y017495D02*
X026699Y017495D01*
X026845Y017614D02*
X026206Y017614D01*
X025845Y017614D02*
X025206Y017614D01*
X025351Y017495D02*
X025699Y017495D01*
X025642Y017377D02*
X025408Y017377D01*
X025425Y017258D02*
X025625Y017258D01*
X025625Y017140D02*
X025425Y017140D01*
X025425Y017021D02*
X025625Y017021D01*
X025625Y016903D02*
X025449Y016903D01*
X025568Y016784D02*
X025625Y016784D01*
X025301Y016429D02*
X025233Y016429D01*
X025419Y016310D02*
X022869Y016310D01*
X022751Y016192D02*
X025538Y016192D01*
X025656Y016073D02*
X022632Y016073D01*
X022988Y016429D02*
X024817Y016429D01*
X024688Y016547D02*
X023106Y016547D01*
X023333Y016666D02*
X024638Y016666D01*
X024625Y016784D02*
X023435Y016784D01*
X023483Y016903D02*
X024625Y016903D01*
X024699Y017495D02*
X023483Y017495D01*
X023453Y017614D02*
X024845Y017614D01*
X026042Y016310D02*
X031404Y016310D01*
X031394Y016334D02*
X031475Y016140D01*
X031624Y015991D01*
X031674Y015970D01*
X031488Y015970D01*
X031394Y015876D01*
X031394Y015004D01*
X031488Y014910D01*
X032360Y014910D01*
X032454Y015004D01*
X032454Y015125D02*
X033010Y015125D01*
X033129Y015244D02*
X032454Y015244D01*
X032454Y015362D02*
X034565Y015362D01*
X034684Y015481D02*
X032454Y015481D01*
X032454Y015599D02*
X034712Y015599D01*
X034593Y015718D02*
X032541Y015718D01*
X032660Y015836D02*
X034477Y015836D01*
X034477Y015955D02*
X032778Y015955D01*
X032897Y016073D02*
X034477Y016073D01*
X034477Y016192D02*
X033015Y016192D01*
X033134Y016310D02*
X034513Y016310D01*
X034632Y016429D02*
X033252Y016429D01*
X033371Y016547D02*
X034750Y016547D01*
X034645Y016666D02*
X033489Y016666D01*
X033608Y016784D02*
X034527Y016784D01*
X034477Y016903D02*
X033712Y016903D01*
X033739Y017021D02*
X034477Y017021D01*
X034477Y017140D02*
X033739Y017140D01*
X033739Y017258D02*
X034477Y017258D01*
X034580Y017377D02*
X033739Y017377D01*
X033739Y017495D02*
X034698Y017495D01*
X034697Y017614D02*
X033739Y017614D01*
X033739Y017732D02*
X034579Y017732D01*
X034477Y017851D02*
X033739Y017851D01*
X033739Y017969D02*
X034477Y017969D01*
X034477Y018088D02*
X033739Y018088D01*
X033739Y018206D02*
X034477Y018206D01*
X034528Y018325D02*
X033739Y018325D01*
X033739Y018443D02*
X034646Y018443D01*
X034749Y018562D02*
X033739Y018562D01*
X033739Y018680D02*
X034631Y018680D01*
X034512Y018799D02*
X033739Y018799D01*
X033739Y018917D02*
X034477Y018917D01*
X034477Y019036D02*
X033739Y019036D01*
X033739Y019154D02*
X034477Y019154D01*
X034477Y019273D02*
X033739Y019273D01*
X033853Y019391D02*
X034594Y019391D01*
X034713Y019510D02*
X033971Y019510D01*
X034090Y019628D02*
X034683Y019628D01*
X034564Y019747D02*
X034208Y019747D01*
X033259Y018680D02*
X031023Y018680D01*
X031141Y018562D02*
X033259Y018562D01*
X033259Y018443D02*
X031260Y018443D01*
X031378Y018325D02*
X033259Y018325D01*
X033259Y018206D02*
X031497Y018206D01*
X031615Y018088D02*
X033259Y018088D01*
X033259Y017969D02*
X032031Y017969D01*
X031817Y017969D02*
X031734Y017969D01*
X032262Y017851D02*
X033259Y017851D01*
X033259Y017732D02*
X032376Y017732D01*
X032425Y017614D02*
X033259Y017614D01*
X033259Y017495D02*
X032454Y017495D01*
X032454Y017377D02*
X033259Y017377D01*
X033166Y017021D02*
X032255Y017021D01*
X032191Y016903D02*
X033047Y016903D01*
X032929Y016784D02*
X032329Y016784D01*
X032404Y016666D02*
X032810Y016666D01*
X032692Y016547D02*
X032453Y016547D01*
X032454Y016429D02*
X032573Y016429D01*
X032455Y016310D02*
X032444Y016310D01*
X031541Y016073D02*
X026279Y016073D01*
X026397Y015955D02*
X031473Y015955D01*
X031394Y015836D02*
X026516Y015836D01*
X026634Y015718D02*
X031394Y015718D01*
X031453Y016192D02*
X026160Y016192D01*
X026367Y015362D02*
X020727Y015362D01*
X020727Y015244D02*
X022165Y015244D01*
X022046Y015125D02*
X020727Y015125D01*
X020727Y015007D02*
X021928Y015007D01*
X021863Y014888D02*
X020727Y014888D01*
X020727Y014770D02*
X020826Y014770D01*
X020729Y014651D02*
X020727Y014651D01*
X021341Y014770D02*
X021826Y014770D01*
X021729Y014651D02*
X021438Y014651D01*
X021483Y014533D02*
X021683Y014533D01*
X021683Y014414D02*
X021483Y014414D01*
X021483Y014296D02*
X021683Y014296D01*
X021083Y014221D02*
X021083Y013879D01*
X021491Y013471D01*
X022466Y013348D02*
X022846Y013348D01*
X022846Y013466D02*
X022584Y013466D01*
X022698Y013585D02*
X022846Y013585D01*
X022371Y014739D02*
X022371Y014826D01*
X022369Y014826D01*
X022327Y014784D01*
X022371Y014739D01*
X022371Y014770D02*
X022341Y014770D01*
X021833Y016666D02*
X021333Y016666D01*
X021435Y016784D02*
X021732Y016784D01*
X021683Y016903D02*
X021483Y016903D01*
X021483Y017021D02*
X021683Y017021D01*
X021683Y017140D02*
X021483Y017140D01*
X021483Y017258D02*
X021683Y017258D01*
X021683Y017377D02*
X021483Y017377D01*
X021483Y017495D02*
X021683Y017495D01*
X021714Y017614D02*
X021453Y017614D01*
X021378Y017732D02*
X021789Y017732D01*
X020789Y017732D02*
X020378Y017732D01*
X020453Y017614D02*
X020714Y017614D01*
X020683Y017495D02*
X020483Y017495D01*
X020483Y017377D02*
X020683Y017377D01*
X020324Y018799D02*
X022441Y018799D01*
X022358Y018917D02*
X020407Y018917D01*
X020407Y019036D02*
X022358Y019036D01*
X022358Y019538D02*
X020407Y019538D01*
X020407Y019754D01*
X020313Y019848D01*
X020127Y019848D01*
X020177Y019869D01*
X020326Y020018D01*
X020359Y020098D01*
X022406Y020098D01*
X022439Y020018D01*
X022588Y019869D01*
X022638Y019848D01*
X022452Y019848D01*
X022358Y019754D01*
X022358Y019538D01*
X022358Y019628D02*
X020407Y019628D01*
X020407Y019747D02*
X022358Y019747D01*
X022473Y019984D02*
X020292Y019984D01*
X020169Y019865D02*
X022596Y019865D01*
X022888Y020318D02*
X019877Y020318D01*
X020249Y020695D02*
X022516Y020695D01*
X022422Y020576D02*
X020343Y020576D01*
X020065Y020813D02*
X022700Y020813D01*
X022525Y020932D02*
X020240Y020932D01*
X020340Y021050D02*
X022426Y021050D01*
X022376Y021169D02*
X020389Y021169D01*
X020407Y021287D02*
X022358Y021287D01*
X022358Y021406D02*
X020407Y021406D01*
X020365Y021524D02*
X022400Y021524D01*
X022464Y021643D02*
X020301Y021643D01*
X020212Y021761D02*
X022582Y021761D01*
X022888Y021318D02*
X023656Y022086D01*
X023656Y023314D01*
X023262Y023708D01*
X023742Y023539D02*
X024792Y023539D01*
X024623Y023420D02*
X023861Y023420D01*
X023876Y023302D02*
X024536Y023302D01*
X024486Y023183D02*
X023876Y023183D01*
X023876Y023065D02*
X024477Y023065D01*
X024478Y022946D02*
X023876Y022946D01*
X023876Y022828D02*
X024527Y022828D01*
X024602Y022709D02*
X023876Y022709D01*
X023876Y022591D02*
X023905Y022591D01*
X023899Y022472D02*
X023876Y022472D01*
X023876Y022354D02*
X023899Y022354D01*
X023899Y022235D02*
X023876Y022235D01*
X023876Y022117D02*
X023899Y022117D01*
X023876Y021998D02*
X023976Y021998D01*
X023762Y021880D02*
X028735Y021880D01*
X029020Y021880D02*
X030306Y021880D01*
X030306Y021998D02*
X024518Y021998D01*
X023436Y022235D02*
X020499Y022235D01*
X020380Y022117D02*
X023376Y022117D01*
X023258Y021998D02*
X020270Y021998D01*
X020241Y021880D02*
X023139Y021880D01*
X023436Y022354D02*
X020617Y022354D01*
X020736Y022472D02*
X023436Y022472D01*
X023436Y022591D02*
X023273Y022591D01*
X023411Y022709D02*
X023436Y022709D01*
X024588Y022591D02*
X024740Y022591D01*
X025222Y022570D02*
X025307Y022605D01*
X025456Y022754D01*
X025507Y022876D01*
X025557Y022754D01*
X025706Y022605D01*
X025791Y022570D01*
X025222Y022570D01*
X025273Y022591D02*
X025740Y022591D01*
X025602Y022709D02*
X025411Y022709D01*
X025487Y022828D02*
X025527Y022828D01*
X025536Y023302D02*
X025478Y023302D01*
X025390Y023420D02*
X025623Y023420D01*
X025792Y023539D02*
X025221Y023539D01*
X026221Y023539D02*
X026792Y023539D01*
X026623Y023420D02*
X026390Y023420D01*
X026478Y023302D02*
X026536Y023302D01*
X027221Y023539D02*
X027792Y023539D01*
X027623Y023420D02*
X027390Y023420D01*
X027478Y023302D02*
X027536Y023302D01*
X027507Y022876D02*
X027557Y022754D01*
X027706Y022605D01*
X027791Y022570D01*
X027222Y022570D01*
X027307Y022605D01*
X027456Y022754D01*
X027507Y022876D01*
X027487Y022828D02*
X027527Y022828D01*
X027602Y022709D02*
X027411Y022709D01*
X027273Y022591D02*
X027740Y022591D01*
X028222Y022570D02*
X028307Y022605D01*
X028456Y022754D01*
X028507Y022876D01*
X028557Y022754D01*
X028706Y022605D01*
X028791Y022570D01*
X028222Y022570D01*
X028273Y022591D02*
X028740Y022591D01*
X028602Y022709D02*
X028411Y022709D01*
X028487Y022828D02*
X028527Y022828D01*
X028536Y023302D02*
X028478Y023302D01*
X028390Y023420D02*
X028623Y023420D01*
X028792Y023539D02*
X028221Y023539D01*
X029221Y023539D02*
X029792Y023539D01*
X029623Y023420D02*
X029390Y023420D01*
X029478Y023302D02*
X029536Y023302D01*
X029507Y022876D02*
X029557Y022754D01*
X029706Y022605D01*
X029791Y022570D01*
X029222Y022570D01*
X029307Y022605D01*
X029456Y022754D01*
X029507Y022876D01*
X029487Y022828D02*
X029527Y022828D01*
X029602Y022709D02*
X029411Y022709D01*
X029273Y022591D02*
X029740Y022591D01*
X030222Y022570D02*
X030307Y022605D01*
X030456Y022754D01*
X030507Y022876D01*
X030557Y022754D01*
X030706Y022605D01*
X030767Y022580D01*
X030767Y022424D01*
X030749Y022466D01*
X030682Y022533D01*
X030594Y022570D01*
X030222Y022570D01*
X030273Y022591D02*
X030740Y022591D01*
X030743Y022472D02*
X030767Y022472D01*
X030602Y022709D02*
X030411Y022709D01*
X030487Y022828D02*
X030527Y022828D01*
X030536Y023302D02*
X030478Y023302D01*
X030390Y023420D02*
X030623Y023420D01*
X030792Y023539D02*
X030221Y023539D01*
X031221Y023539D02*
X031792Y023539D01*
X031623Y023420D02*
X031390Y023420D01*
X031478Y023302D02*
X031536Y023302D01*
X031527Y022828D02*
X031487Y022828D01*
X031411Y022709D02*
X031602Y022709D01*
X031740Y022591D02*
X031273Y022591D01*
X030306Y021761D02*
X029231Y021761D01*
X029336Y021643D02*
X030306Y021643D01*
X030306Y021524D02*
X029385Y021524D01*
X029408Y021406D02*
X030306Y021406D01*
X030306Y021287D02*
X029408Y021287D01*
X029370Y021169D02*
X030306Y021169D01*
X030306Y021050D02*
X029312Y021050D01*
X029194Y020932D02*
X030306Y020932D01*
X030306Y020813D02*
X029179Y020813D01*
X029297Y020695D02*
X030306Y020695D01*
X030306Y020576D02*
X029364Y020576D01*
X029408Y020458D02*
X030306Y020458D01*
X030306Y020339D02*
X029408Y020339D01*
X029392Y020221D02*
X030306Y020221D01*
X030306Y020102D02*
X029501Y020102D01*
X029633Y019984D02*
X030306Y019984D01*
X030306Y019865D02*
X029765Y019865D01*
X029897Y019747D02*
X030306Y019747D01*
X030306Y019628D02*
X029920Y019628D01*
X029888Y019510D02*
X030306Y019510D01*
X030306Y019391D02*
X029408Y019391D01*
X029408Y019273D02*
X030306Y019273D01*
X030306Y019154D02*
X029408Y019154D01*
X029408Y019036D02*
X030306Y019036D01*
X030306Y018917D02*
X029396Y018917D01*
X029408Y019510D02*
X029503Y019510D01*
X029699Y019629D02*
X028878Y020365D01*
X027987Y020755D02*
X027987Y017054D01*
X028025Y017016D01*
X028425Y017021D02*
X031593Y017021D01*
X031624Y016991D02*
X031746Y016940D01*
X031624Y016889D01*
X031475Y016740D01*
X031394Y016545D01*
X031394Y016334D01*
X031394Y016429D02*
X028233Y016429D01*
X028363Y016547D02*
X031395Y016547D01*
X031444Y016666D02*
X028413Y016666D01*
X028425Y016784D02*
X031519Y016784D01*
X031657Y016903D02*
X028425Y016903D01*
X027767Y018799D02*
X026292Y018799D01*
X026367Y018917D02*
X027767Y018917D01*
X027767Y019036D02*
X026367Y019036D01*
X026367Y019154D02*
X027767Y019154D01*
X027767Y019273D02*
X026367Y019273D01*
X026367Y019391D02*
X027767Y019391D01*
X027767Y019510D02*
X026367Y019510D01*
X026367Y019628D02*
X027767Y019628D01*
X027767Y019747D02*
X026367Y019747D01*
X026142Y019865D02*
X027767Y019865D01*
X027767Y019984D02*
X026261Y019984D01*
X026325Y020102D02*
X027767Y020102D01*
X027767Y020221D02*
X026367Y020221D01*
X026367Y020339D02*
X027767Y020339D01*
X027767Y020458D02*
X026350Y020458D01*
X026301Y020576D02*
X027767Y020576D01*
X027767Y020695D02*
X026202Y020695D01*
X026023Y020813D02*
X027767Y020813D01*
X027853Y020932D02*
X026209Y020932D01*
X026303Y021050D02*
X027971Y021050D01*
X028090Y021169D02*
X026352Y021169D01*
X027987Y020755D02*
X028609Y021377D01*
X028878Y021365D01*
X026791Y022570D02*
X026222Y022570D01*
X026307Y022605D01*
X026456Y022754D01*
X026507Y022876D01*
X026557Y022754D01*
X026706Y022605D01*
X026791Y022570D01*
X026740Y022591D02*
X026273Y022591D01*
X026411Y022709D02*
X026602Y022709D01*
X026527Y022828D02*
X026487Y022828D01*
X023747Y023534D02*
X023747Y023534D01*
X020691Y023488D02*
X020557Y023354D01*
X020507Y023232D01*
X020456Y023354D01*
X020323Y023488D01*
X020691Y023488D01*
X020623Y023420D02*
X020390Y023420D01*
X020478Y023302D02*
X020536Y023302D01*
X020507Y022876D02*
X020499Y022857D01*
X020510Y022868D01*
X020507Y022876D01*
X019740Y022591D02*
X019273Y022591D01*
X019411Y022709D02*
X019602Y022709D01*
X019527Y022828D02*
X019487Y022828D01*
X019507Y023232D02*
X019456Y023354D01*
X019323Y023488D01*
X019691Y023488D01*
X019557Y023354D01*
X019507Y023232D01*
X019478Y023302D02*
X019536Y023302D01*
X019623Y023420D02*
X019390Y023420D01*
X018507Y022876D02*
X018499Y022857D01*
X018510Y022868D01*
X018507Y022876D01*
X017691Y023488D02*
X017557Y023354D01*
X017507Y023232D01*
X017456Y023354D01*
X017323Y023488D01*
X017691Y023488D01*
X017623Y023420D02*
X017390Y023420D01*
X017478Y023302D02*
X017536Y023302D01*
X020073Y022121D02*
X019877Y021318D01*
X016864Y020932D02*
X016199Y020932D01*
X016199Y021050D02*
X016746Y021050D01*
X016864Y020813D02*
X016232Y020813D01*
X016350Y020695D02*
X016745Y020695D01*
X015759Y021406D02*
X013773Y021406D01*
X013890Y021524D02*
X015759Y021524D01*
X013970Y018799D02*
X017888Y018799D01*
X017809Y018680D02*
X013955Y018680D01*
X013906Y018562D02*
X017730Y018562D01*
X017651Y018443D02*
X013811Y018443D01*
X017954Y018088D02*
X018119Y018088D01*
X018022Y018206D02*
X018237Y018206D01*
X018318Y018325D02*
X018101Y018325D01*
X018180Y018443D02*
X018318Y018443D01*
X018318Y018562D02*
X018259Y018562D01*
X010868Y013940D02*
X010117Y013940D01*
X010117Y013822D02*
X010987Y013822D01*
X011105Y013703D02*
X010117Y013703D01*
X010117Y013585D02*
X011224Y013585D01*
X011342Y013466D02*
X010117Y013466D01*
X010117Y013348D02*
X011461Y013348D01*
X011579Y013229D02*
X010117Y013229D01*
X010117Y014059D02*
X010750Y014059D01*
X010631Y014177D02*
X010117Y014177D01*
X010117Y014296D02*
X010513Y014296D01*
X010394Y014414D02*
X010117Y014414D01*
X010117Y014533D02*
X010276Y014533D01*
X010157Y014651D02*
X010117Y014651D01*
X007501Y019510D02*
X007436Y019510D01*
X007517Y007033D02*
X007306Y007033D01*
X007112Y006953D01*
X006963Y006804D01*
X006882Y006609D01*
X006882Y006398D01*
X006963Y006203D01*
X007112Y006054D01*
X007306Y005973D01*
X007517Y005973D01*
X007712Y006054D01*
X007861Y006203D01*
X007942Y006398D01*
X007942Y006609D01*
X007861Y006804D01*
X007712Y006953D01*
X007517Y007033D01*
X007716Y006949D02*
X008888Y006949D01*
X008769Y006830D02*
X007834Y006830D01*
X007899Y006712D02*
X008705Y006712D01*
X008662Y006593D02*
X007942Y006593D01*
X007942Y006475D02*
X008662Y006475D01*
X008679Y006356D02*
X007925Y006356D01*
X007876Y006238D02*
X008728Y006238D01*
X008826Y006119D02*
X007777Y006119D01*
X007584Y006001D02*
X009020Y006001D01*
X007240Y006001D02*
X006543Y006001D01*
X006543Y006119D02*
X007046Y006119D01*
X006948Y006238D02*
X006543Y006238D01*
X006543Y006356D02*
X006899Y006356D01*
X006882Y006475D02*
X006543Y006475D01*
X006543Y006593D02*
X006882Y006593D01*
X006925Y006712D02*
X006543Y006712D01*
X006543Y006830D02*
X006989Y006830D01*
X007108Y006949D02*
X006543Y006949D01*
X031475Y017140D02*
X031624Y016991D01*
X032373Y017140D02*
X032454Y017334D01*
D18*
X031924Y017440D02*
X030546Y018818D01*
X030546Y022330D01*
X024247Y022330D01*
X031007Y023054D02*
X031007Y020688D01*
X031136Y020558D01*
X031743Y020558D01*
X031924Y020377D01*
X033499Y019377D02*
X034176Y020054D01*
X035007Y020054D01*
X033499Y019377D02*
X033499Y017015D01*
X031924Y015440D01*
X033278Y015054D02*
X035007Y015054D01*
X033278Y015054D02*
X031924Y013700D01*
X031924Y012700D02*
X031514Y012290D01*
X030152Y012290D01*
X030152Y014062D01*
X029365Y014849D01*
X027192Y014849D01*
X026644Y015397D01*
X030152Y012290D02*
X029448Y011586D01*
X029448Y010893D01*
X027007Y004054D02*
X026385Y003432D01*
X010270Y003432D01*
X009877Y004023D01*
X009877Y014849D01*
X009117Y015412D01*
X008282Y015412D01*
X031924Y021377D02*
X032601Y022054D01*
X035007Y022054D01*
D19*
X013440Y021822D02*
X013420Y021936D01*
X012239Y023117D01*
X012407Y023054D01*
D20*
X024247Y022330D03*
M02*
