%
M48
M72
T01C0.0320
T02C0.0354
T03C0.0394
T04C0.0400
T05C0.1260
T06C0.1300
%
T01
X20083Y14221
X21083Y14221
X22083Y14221
X23083Y14221
X25025Y14016
X26025Y14016
X27025Y14016
X28025Y14016
X28025Y17016
X27025Y17016
X26025Y17016
X25025Y17016
X23083Y17221
X22083Y17221
X21083Y17221
X20083Y17221
T02
X13440Y18822
X13440Y21822
X29699Y17038
X29699Y14038
X29448Y10893
X26448Y10893
X25136Y10912
X22136Y10912
T03
X8377Y18360
X9558Y20329
X7078Y20329
T04
X7412Y3943
X9192Y3943
X11007Y4054
X12007Y4054
X13007Y4054
X14007Y4054
X15007Y4054
X16007Y4054
X18007Y4054
X19007Y4054
X20007Y4054
X21007Y4054
X22007Y4054
X23007Y4054
X24007Y4054
X25007Y4054
X27007Y4054
X28007Y4054
X29007Y4054
X30007Y4054
X31007Y4054
X32007Y4054
X33007Y4054
X34007Y4054
X35007Y6054
X36007Y6054
X36007Y7054
X35007Y7054
X35007Y8054
X36007Y8054
X36007Y9054
X35007Y9054
X35007Y10054
X36007Y10054
X36007Y11054
X35007Y11054
X35007Y12054
X36007Y12054
X36007Y13054
X35007Y13054
X35007Y14054
X36007Y14054
X36007Y15054
X35007Y15054
X35007Y16054
X36007Y16054
X36007Y17054
X35007Y17054
X35007Y18054
X36007Y18054
X36007Y19054
X35007Y19054
X35007Y20054
X36007Y20054
X36007Y21054
X35007Y21054
X35007Y22054
X36007Y22054
X36007Y23054
X35007Y23054
X32007Y23054
X31007Y23054
X30007Y23054
X29007Y23054
X28007Y23054
X27007Y23054
X26007Y23054
X25007Y23054
X23007Y23054
X22007Y23054
X21007Y23054
X20007Y23054
X19007Y23054
X18007Y23054
X17007Y23054
X16007Y23054
X14407Y23054
X13407Y23054
X12407Y23054
X11407Y23054
X10407Y23054
X9407Y23054
X8407Y23054
X7407Y23054
X11173Y21373
X11173Y20373
X11173Y17373
X11173Y16373
X17173Y19373
X17173Y20373
X17173Y21373
X19877Y21318
X19877Y20318
X19877Y19318
X22888Y19318
X22888Y20318
X22888Y21318
X25837Y21310
X25837Y20310
X25837Y19310
X28878Y19365
X28878Y20365
X28878Y21365
X31924Y21377
X31924Y20377
X31924Y19377
X31904Y16397
X31904Y15397
X31904Y14397
X30290Y7791
X29210Y7791
X28130Y7791
X27050Y7791
X25970Y7791
X24890Y7791
X23810Y7791
X22730Y7791
X23270Y6671
X24350Y6671
X25430Y6671
X26510Y6671
X27590Y6671
X28670Y6671
X29750Y6671
X17173Y6373
X17173Y7373
X11173Y7373
X11173Y8373
X11173Y9373
X11173Y11373
X11173Y12373
X17173Y12373
X17173Y11373
X11173Y6373
X9192Y6503
X7412Y6503
T05
X33507Y23054
X36007Y4054
T06
X33070Y7231
X19950Y7231
M30
