G75*
%MOIN*%
%OFA0B0*%
%FSLAX24Y24*%
%IPPOS*%
%LPD*%
%AMOC8*
5,1,8,0,0,1.08239X$1,22.5*
%
%ADD10C,0.0030*%
%ADD11C,0.0060*%
%ADD12C,0.0020*%
%ADD13C,0.0100*%
%ADD14C,0.0080*%
%ADD15C,0.0070*%
%ADD16C,0.0050*%
%ADD17C,0.0120*%
%ADD18C,0.0010*%
D10*
X007884Y012044D02*
X007884Y012414D01*
X008069Y012414D01*
X008131Y012353D01*
X008131Y012229D01*
X008069Y012168D01*
X007884Y012168D01*
X008252Y012168D02*
X008252Y012538D01*
X008252Y012353D02*
X008499Y012353D01*
X008499Y012538D02*
X008499Y012168D01*
X019340Y018073D02*
X019340Y018443D01*
X019587Y018443D01*
X019709Y018443D02*
X019770Y018443D01*
X019770Y018073D01*
X019709Y018073D02*
X019832Y018073D01*
X019954Y018135D02*
X020016Y018073D01*
X020139Y018073D01*
X020201Y018135D01*
X020201Y018258D01*
X020139Y018320D01*
X020016Y018320D01*
X019954Y018258D01*
X019954Y018135D01*
X020323Y018135D02*
X020323Y018320D01*
X020323Y018135D02*
X020384Y018073D01*
X020446Y018135D01*
X020508Y018073D01*
X020570Y018135D01*
X020570Y018320D01*
X019464Y018258D02*
X019340Y018258D01*
X022308Y018432D02*
X022555Y018432D01*
X022431Y018432D02*
X022431Y018061D01*
X022676Y018123D02*
X022676Y018246D01*
X022738Y018308D01*
X022861Y018308D01*
X022923Y018246D01*
X022923Y018185D01*
X022676Y018185D01*
X022676Y018123D02*
X022738Y018061D01*
X022861Y018061D01*
X023045Y018061D02*
X023045Y018308D01*
X023106Y018308D01*
X023168Y018246D01*
X023230Y018308D01*
X023291Y018246D01*
X023291Y018061D01*
X023413Y018061D02*
X023598Y018061D01*
X023660Y018123D01*
X023660Y018246D01*
X023598Y018308D01*
X023413Y018308D01*
X023413Y017938D01*
X023168Y018061D02*
X023168Y018246D01*
X025257Y018406D02*
X025257Y018036D01*
X025504Y018036D01*
X025625Y018036D02*
X025749Y018036D01*
X025687Y018036D02*
X025687Y018282D01*
X025625Y018282D01*
X025687Y018406D02*
X025687Y018468D01*
X025932Y018282D02*
X025871Y018221D01*
X025871Y018097D01*
X025932Y018036D01*
X026118Y018036D01*
X026118Y017974D02*
X026118Y018282D01*
X025932Y018282D01*
X026239Y018221D02*
X026301Y018282D01*
X026424Y018282D01*
X026486Y018221D01*
X026486Y018036D01*
X026669Y018097D02*
X026731Y018036D01*
X026669Y018097D02*
X026669Y018344D01*
X026607Y018282D02*
X026731Y018282D01*
X026239Y018406D02*
X026239Y018036D01*
X026118Y017974D02*
X026056Y017912D01*
X025994Y017912D01*
X028179Y018073D02*
X028179Y018443D01*
X028364Y018443D01*
X028426Y018382D01*
X028426Y018258D01*
X028364Y018196D01*
X028179Y018196D01*
X028547Y018135D02*
X028609Y018073D01*
X028794Y018073D01*
X028794Y018320D01*
X028916Y018320D02*
X028977Y018320D01*
X029039Y018258D01*
X029101Y018320D01*
X029163Y018258D01*
X029163Y018073D01*
X029284Y018073D02*
X029469Y018073D01*
X029531Y018135D01*
X029531Y018258D01*
X029469Y018320D01*
X029284Y018320D01*
X029284Y017950D01*
X029039Y018073D02*
X029039Y018258D01*
X028916Y018320D02*
X028916Y018073D01*
X028547Y018135D02*
X028547Y018320D01*
X031329Y018443D02*
X031329Y018073D01*
X031576Y018073D02*
X031576Y018443D01*
X031452Y018320D01*
X031329Y018443D01*
X031697Y018382D02*
X031697Y018135D01*
X031759Y018073D01*
X031882Y018073D01*
X031944Y018135D01*
X032065Y018073D02*
X032312Y018320D01*
X032312Y018382D01*
X032250Y018443D01*
X032127Y018443D01*
X032065Y018382D01*
X031944Y018382D02*
X031882Y018443D01*
X031759Y018443D01*
X031697Y018382D01*
X032065Y018073D02*
X032312Y018073D01*
X032250Y014703D02*
X032127Y014703D01*
X032065Y014641D01*
X031944Y014641D02*
X031882Y014703D01*
X031759Y014703D01*
X031697Y014641D01*
X031697Y014395D01*
X031759Y014333D01*
X031882Y014333D01*
X031944Y014395D01*
X032065Y014333D02*
X032312Y014580D01*
X032312Y014641D01*
X032250Y014703D01*
X032312Y014333D02*
X032065Y014333D01*
X031576Y014333D02*
X031576Y014703D01*
X031452Y014580D01*
X031329Y014703D01*
X031329Y014333D01*
X031329Y010963D02*
X031329Y010593D01*
X031329Y010778D02*
X031576Y010778D01*
X031697Y010778D02*
X031759Y010840D01*
X031882Y010840D01*
X031944Y010778D01*
X031944Y010716D01*
X031697Y010716D01*
X031697Y010654D02*
X031697Y010778D01*
X031697Y010654D02*
X031759Y010593D01*
X031882Y010593D01*
X032065Y010654D02*
X032127Y010716D01*
X032312Y010716D01*
X032312Y010778D02*
X032312Y010593D01*
X032127Y010593D01*
X032065Y010654D01*
X032127Y010840D02*
X032250Y010840D01*
X032312Y010778D01*
X032434Y010840D02*
X032557Y010840D01*
X032495Y010901D02*
X032495Y010654D01*
X032557Y010593D01*
X032679Y010654D02*
X032679Y010778D01*
X032741Y010840D01*
X032864Y010840D01*
X032926Y010778D01*
X032926Y010716D01*
X032679Y010716D01*
X032679Y010654D02*
X032741Y010593D01*
X032864Y010593D01*
X033047Y010593D02*
X033047Y010840D01*
X033047Y010716D02*
X033171Y010840D01*
X033233Y010840D01*
X031576Y010963D02*
X031576Y010593D01*
D11*
X032035Y009743D02*
X033035Y009743D01*
X033035Y009693D01*
X032035Y009693D01*
X032035Y009743D01*
X020735Y009743D01*
X019735Y009743D01*
X018885Y009743D01*
X018855Y009741D01*
X018825Y009736D01*
X018796Y009727D01*
X018769Y009714D01*
X018743Y009699D01*
X018719Y009680D01*
X018698Y009659D01*
X018679Y009635D01*
X018664Y009609D01*
X018651Y009582D01*
X018642Y009553D01*
X018637Y009523D01*
X018635Y009493D01*
X018635Y005093D01*
X018637Y005063D01*
X018642Y005033D01*
X018651Y005004D01*
X018664Y004977D01*
X018679Y004951D01*
X018698Y004927D01*
X018719Y004906D01*
X018743Y004887D01*
X018769Y004872D01*
X018796Y004859D01*
X018825Y004850D01*
X018855Y004845D01*
X018885Y004843D01*
X019735Y004843D01*
X020735Y004843D01*
X032035Y004843D01*
X033035Y004843D01*
X033885Y004843D01*
X033915Y004845D01*
X033945Y004850D01*
X033974Y004859D01*
X034001Y004872D01*
X034027Y004887D01*
X034051Y004906D01*
X034072Y004927D01*
X034091Y004951D01*
X034106Y004977D01*
X034119Y005004D01*
X034128Y005033D01*
X034133Y005063D01*
X034135Y005093D01*
X034135Y009493D01*
X034133Y009523D01*
X034128Y009553D01*
X034119Y009582D01*
X034106Y009609D01*
X034091Y009635D01*
X034072Y009659D01*
X034051Y009680D01*
X034027Y009699D01*
X034001Y009714D01*
X033974Y009727D01*
X033945Y009736D01*
X033915Y009741D01*
X033885Y009743D01*
X033035Y009743D01*
X034507Y009804D02*
X034507Y010304D01*
X034757Y010554D01*
X036257Y010554D01*
X036507Y010804D01*
X036507Y011304D01*
X036257Y011554D01*
X034757Y011554D01*
X034507Y011804D01*
X034507Y012304D01*
X034757Y012554D01*
X036257Y012554D01*
X036507Y012804D01*
X036507Y013304D01*
X036257Y013554D01*
X034757Y013554D01*
X034507Y013804D01*
X034507Y014304D01*
X034757Y014554D01*
X036257Y014554D01*
X036507Y014304D01*
X036507Y013804D01*
X036257Y013554D01*
X036257Y012554D02*
X036507Y012304D01*
X036507Y011804D01*
X036257Y011554D01*
X036257Y010554D02*
X036507Y010304D01*
X036507Y009804D01*
X036257Y009554D01*
X034757Y009554D01*
X034507Y009804D01*
X034757Y009554D02*
X034507Y009304D01*
X034507Y008804D01*
X034757Y008554D01*
X036257Y008554D01*
X036507Y008804D01*
X036507Y009304D01*
X036257Y009554D01*
X036257Y008554D02*
X036507Y008304D01*
X036507Y007804D01*
X036257Y007554D01*
X034757Y007554D01*
X034507Y007804D01*
X034507Y008304D01*
X034757Y008554D01*
X034757Y007554D02*
X034507Y007304D01*
X034507Y006804D01*
X034757Y006554D01*
X036257Y006554D02*
X036507Y006804D01*
X036507Y007304D01*
X036257Y007554D01*
X032315Y007293D02*
X032317Y007343D01*
X032323Y007393D01*
X032333Y007443D01*
X032346Y007491D01*
X032363Y007539D01*
X032384Y007585D01*
X032408Y007629D01*
X032436Y007671D01*
X032467Y007711D01*
X032501Y007748D01*
X032538Y007783D01*
X032577Y007814D01*
X032618Y007843D01*
X032662Y007868D01*
X032708Y007890D01*
X032755Y007908D01*
X032803Y007922D01*
X032852Y007933D01*
X032902Y007940D01*
X032952Y007943D01*
X033003Y007942D01*
X033053Y007937D01*
X033103Y007928D01*
X033151Y007916D01*
X033199Y007899D01*
X033245Y007879D01*
X033290Y007856D01*
X033333Y007829D01*
X033373Y007799D01*
X033411Y007766D01*
X033446Y007730D01*
X033479Y007691D01*
X033508Y007650D01*
X033534Y007607D01*
X033557Y007562D01*
X033576Y007515D01*
X033591Y007467D01*
X033603Y007418D01*
X033611Y007368D01*
X033615Y007318D01*
X033615Y007268D01*
X033611Y007218D01*
X033603Y007168D01*
X033591Y007119D01*
X033576Y007071D01*
X033557Y007024D01*
X033534Y006979D01*
X033508Y006936D01*
X033479Y006895D01*
X033446Y006856D01*
X033411Y006820D01*
X033373Y006787D01*
X033333Y006757D01*
X033290Y006730D01*
X033245Y006707D01*
X033199Y006687D01*
X033151Y006670D01*
X033103Y006658D01*
X033053Y006649D01*
X033003Y006644D01*
X032952Y006643D01*
X032902Y006646D01*
X032852Y006653D01*
X032803Y006664D01*
X032755Y006678D01*
X032708Y006696D01*
X032662Y006718D01*
X032618Y006743D01*
X032577Y006772D01*
X032538Y006803D01*
X032501Y006838D01*
X032467Y006875D01*
X032436Y006915D01*
X032408Y006957D01*
X032384Y007001D01*
X032363Y007047D01*
X032346Y007095D01*
X032333Y007143D01*
X032323Y007193D01*
X032317Y007243D01*
X032315Y007293D01*
X031455Y008203D02*
X031155Y006163D01*
X030995Y006143D02*
X031305Y008203D01*
X031452Y008180D02*
X031460Y008229D01*
X031464Y008279D01*
X031465Y008329D01*
X031462Y008379D01*
X031455Y008429D01*
X031445Y008478D01*
X031431Y008526D01*
X031413Y008573D01*
X031393Y008618D01*
X031368Y008662D01*
X031341Y008704D01*
X031311Y008744D01*
X031278Y008782D01*
X031242Y008817D01*
X031204Y008849D01*
X031163Y008878D01*
X031120Y008905D01*
X031076Y008928D01*
X031030Y008947D01*
X030982Y008964D01*
X030934Y008976D01*
X030885Y008986D01*
X030835Y008991D01*
X030785Y008993D01*
X021985Y008993D01*
X021985Y008843D02*
X030785Y008843D01*
X030830Y008841D01*
X030875Y008835D01*
X030919Y008826D01*
X030962Y008813D01*
X031004Y008796D01*
X031044Y008776D01*
X031082Y008752D01*
X031118Y008725D01*
X031152Y008695D01*
X031183Y008663D01*
X031212Y008628D01*
X031237Y008590D01*
X031259Y008551D01*
X031277Y008510D01*
X031292Y008467D01*
X031303Y008424D01*
X031311Y008379D01*
X031315Y008334D01*
X031314Y008289D01*
X031311Y008244D01*
X031303Y008200D01*
X031000Y006149D02*
X030988Y006107D01*
X030973Y006065D01*
X030954Y006025D01*
X030931Y005987D01*
X030906Y005951D01*
X030878Y005917D01*
X030847Y005886D01*
X030813Y005857D01*
X030777Y005831D01*
X030739Y005808D01*
X030700Y005789D01*
X030659Y005772D01*
X030616Y005760D01*
X030573Y005750D01*
X030529Y005745D01*
X030485Y005743D01*
X022285Y005743D01*
X022285Y005593D02*
X030485Y005593D01*
X030537Y005595D01*
X030588Y005601D01*
X030638Y005611D01*
X030688Y005624D01*
X030737Y005641D01*
X030784Y005662D01*
X030829Y005687D01*
X030873Y005714D01*
X030914Y005745D01*
X030953Y005779D01*
X030989Y005816D01*
X031022Y005856D01*
X031052Y005897D01*
X031079Y005941D01*
X031102Y005987D01*
X031122Y006035D01*
X031138Y006084D01*
X031151Y006134D01*
X031159Y006185D01*
X031164Y006236D01*
X032035Y004893D02*
X033035Y004893D01*
X033035Y004843D01*
X032035Y004843D02*
X032035Y004893D01*
X034757Y010554D02*
X034507Y010804D01*
X034507Y011304D01*
X034757Y011554D01*
X034757Y012554D02*
X034507Y012804D01*
X034507Y013304D01*
X034757Y013554D01*
X034757Y014554D02*
X034507Y014804D01*
X034507Y015304D01*
X034757Y015554D01*
X036257Y015554D01*
X036507Y015804D01*
X036507Y016304D01*
X036257Y016554D01*
X034757Y016554D01*
X034507Y016804D01*
X034507Y017304D01*
X034757Y017554D01*
X036257Y017554D01*
X036507Y017804D01*
X036507Y018304D01*
X036257Y018554D01*
X034757Y018554D01*
X034507Y018804D01*
X034507Y019304D01*
X034757Y019554D01*
X036257Y019554D01*
X036507Y019804D01*
X036507Y020304D01*
X036257Y020554D01*
X034757Y020554D01*
X034507Y020804D01*
X034507Y021304D01*
X034757Y021554D01*
X036257Y021554D01*
X036507Y021304D01*
X036507Y020804D01*
X036257Y020554D01*
X036257Y019554D02*
X036507Y019304D01*
X036507Y018804D01*
X036257Y018554D01*
X036257Y017554D02*
X036507Y017304D01*
X036507Y016804D01*
X036257Y016554D01*
X036257Y015554D02*
X036507Y015304D01*
X036507Y014804D01*
X036257Y014554D01*
X034757Y015554D02*
X034507Y015804D01*
X034507Y016304D01*
X034757Y016554D01*
X034757Y017554D02*
X034507Y017804D01*
X034507Y018304D01*
X034757Y018554D01*
X034757Y019554D02*
X034507Y019804D01*
X034507Y020304D01*
X034757Y020554D01*
X034757Y021554D02*
X034507Y021804D01*
X034507Y022304D01*
X034757Y022554D01*
X036257Y022554D02*
X036507Y022304D01*
X036507Y021804D01*
X036257Y021554D01*
X028525Y016666D02*
X028525Y014366D01*
X024525Y014366D01*
X024525Y015116D01*
X024564Y015118D01*
X024603Y015124D01*
X024641Y015133D01*
X024678Y015146D01*
X024714Y015163D01*
X024747Y015183D01*
X024779Y015207D01*
X024808Y015233D01*
X024834Y015262D01*
X024858Y015294D01*
X024878Y015327D01*
X024895Y015363D01*
X024908Y015400D01*
X024917Y015438D01*
X024923Y015477D01*
X024925Y015516D01*
X024923Y015555D01*
X024917Y015594D01*
X024908Y015632D01*
X024895Y015669D01*
X024878Y015705D01*
X024858Y015738D01*
X024834Y015770D01*
X024808Y015799D01*
X024779Y015825D01*
X024747Y015849D01*
X024714Y015869D01*
X024678Y015886D01*
X024641Y015899D01*
X024603Y015908D01*
X024564Y015914D01*
X024525Y015916D01*
X024525Y016666D01*
X028525Y016666D01*
X023583Y016871D02*
X023583Y014571D01*
X019583Y014571D01*
X019583Y015321D01*
X019622Y015323D01*
X019661Y015329D01*
X019699Y015338D01*
X019736Y015351D01*
X019772Y015368D01*
X019805Y015388D01*
X019837Y015412D01*
X019866Y015438D01*
X019892Y015467D01*
X019916Y015499D01*
X019936Y015532D01*
X019953Y015568D01*
X019966Y015605D01*
X019975Y015643D01*
X019981Y015682D01*
X019983Y015721D01*
X019981Y015760D01*
X019975Y015799D01*
X019966Y015837D01*
X019953Y015874D01*
X019936Y015910D01*
X019916Y015943D01*
X019892Y015975D01*
X019866Y016004D01*
X019837Y016030D01*
X019805Y016054D01*
X019772Y016074D01*
X019736Y016091D01*
X019699Y016104D01*
X019661Y016113D01*
X019622Y016119D01*
X019583Y016121D01*
X019583Y016871D01*
X023583Y016871D01*
X017943Y019046D02*
X017943Y019133D01*
X017899Y019176D01*
X017813Y019176D01*
X017813Y019090D01*
X017899Y019003D02*
X017943Y019046D01*
X017899Y019003D02*
X017726Y019003D01*
X017682Y019046D01*
X017682Y019133D01*
X017726Y019176D01*
X017682Y019298D02*
X017943Y019471D01*
X017682Y019471D01*
X017682Y019592D02*
X017682Y019722D01*
X017726Y019766D01*
X017899Y019766D01*
X017943Y019722D01*
X017943Y019592D01*
X017682Y019592D01*
X017682Y019298D02*
X017943Y019298D01*
X016643Y019946D02*
X016599Y019903D01*
X016643Y019946D02*
X016643Y020033D01*
X016599Y020076D01*
X016556Y020076D01*
X016513Y020033D01*
X016513Y019946D01*
X016469Y019903D01*
X016426Y019903D01*
X016382Y019946D01*
X016382Y020033D01*
X016426Y020076D01*
X016382Y020198D02*
X016382Y020371D01*
X016382Y020284D02*
X016643Y020284D01*
X016643Y020492D02*
X016382Y020492D01*
X016382Y020666D01*
X016382Y020787D02*
X016382Y020917D01*
X016426Y020960D01*
X016513Y020960D01*
X016556Y020917D01*
X016556Y020787D01*
X016643Y020787D02*
X016382Y020787D01*
X016513Y020579D02*
X016513Y020492D01*
X016643Y020492D02*
X016643Y020666D01*
X017682Y021053D02*
X017682Y021183D01*
X017726Y021226D01*
X017899Y021226D01*
X017943Y021183D01*
X017943Y021053D01*
X017682Y021053D01*
X017682Y021348D02*
X017682Y021434D01*
X017682Y021391D02*
X017943Y021391D01*
X017943Y021348D02*
X017943Y021434D01*
X017943Y021544D02*
X017682Y021544D01*
X017682Y021674D01*
X017726Y021718D01*
X017813Y021718D01*
X017856Y021674D01*
X017856Y021544D01*
X017856Y021631D02*
X017943Y021718D01*
X013660Y021010D02*
X013489Y020840D01*
X013546Y020783D02*
X013319Y021010D01*
X013319Y020783D02*
X013660Y020783D01*
X013376Y020642D02*
X013603Y020415D01*
X013660Y020415D01*
X013660Y020288D02*
X013660Y020231D01*
X013603Y020231D01*
X013603Y020288D01*
X013660Y020288D01*
X013660Y020033D02*
X013319Y020033D01*
X013489Y019863D01*
X013489Y020090D01*
X013319Y020415D02*
X013319Y020642D01*
X013376Y020642D01*
X012293Y020692D02*
X012032Y020692D01*
X012032Y020822D01*
X012076Y020866D01*
X012163Y020866D01*
X012206Y020822D01*
X012206Y020692D01*
X012206Y020779D02*
X012293Y020866D01*
X012293Y021282D02*
X012293Y021368D01*
X012293Y021325D02*
X012032Y021325D01*
X012032Y021282D02*
X012032Y021368D01*
X012032Y021478D02*
X012293Y021652D01*
X012032Y021652D01*
X012032Y021478D02*
X012293Y021478D01*
X012293Y020571D02*
X012032Y020571D01*
X012032Y020398D02*
X012293Y020398D01*
X012206Y020484D01*
X012293Y020571D01*
X012163Y020276D02*
X012206Y020233D01*
X012206Y020103D01*
X012293Y020103D02*
X012032Y020103D01*
X012032Y020233D01*
X012076Y020276D01*
X012163Y020276D01*
X010643Y020298D02*
X010382Y020298D01*
X010643Y020471D01*
X010382Y020471D01*
X010382Y020592D02*
X010382Y020722D01*
X010426Y020766D01*
X010599Y020766D01*
X010643Y020722D01*
X010643Y020592D01*
X010382Y020592D01*
X010426Y020176D02*
X010382Y020133D01*
X010382Y020046D01*
X010426Y020003D01*
X010599Y020003D01*
X010643Y020046D01*
X010643Y020133D01*
X010599Y020176D01*
X010513Y020176D01*
X010513Y020090D01*
X010643Y021203D02*
X010382Y021203D01*
X010469Y021290D01*
X010382Y021376D01*
X010643Y021376D01*
X010513Y021498D02*
X010513Y021671D01*
X010599Y021584D02*
X010426Y021584D01*
X005227Y021375D02*
X004800Y021375D01*
X005013Y021375D02*
X005013Y022015D01*
X004800Y021802D01*
X004582Y022015D02*
X004155Y021375D01*
X004582Y021375D02*
X004155Y022015D01*
X010382Y017722D02*
X010382Y017636D01*
X010426Y017592D01*
X010426Y017471D02*
X010382Y017428D01*
X010382Y017341D01*
X010426Y017298D01*
X010469Y017298D01*
X010513Y017341D01*
X010513Y017428D01*
X010556Y017471D01*
X010599Y017471D01*
X010643Y017428D01*
X010643Y017341D01*
X010599Y017298D01*
X010643Y017176D02*
X010382Y017176D01*
X010469Y017090D01*
X010382Y017003D01*
X010643Y017003D01*
X010643Y016750D02*
X010643Y016576D01*
X010382Y016576D01*
X010382Y016750D01*
X010513Y016663D02*
X010513Y016576D01*
X010643Y016455D02*
X010643Y016282D01*
X010382Y016282D01*
X010426Y016160D02*
X010469Y016160D01*
X010513Y016117D01*
X010513Y015987D01*
X010513Y015866D02*
X010513Y015692D01*
X010469Y015692D02*
X010382Y015779D01*
X010469Y015866D01*
X010643Y015866D01*
X010643Y015987D02*
X010643Y016117D01*
X010599Y016160D01*
X010556Y016160D01*
X010513Y016117D01*
X010426Y016160D02*
X010382Y016117D01*
X010382Y015987D01*
X010643Y015987D01*
X010643Y015692D02*
X010469Y015692D01*
X010382Y015571D02*
X010643Y015571D01*
X010382Y015398D01*
X010643Y015398D01*
X010643Y015276D02*
X010643Y015103D01*
X010382Y015103D01*
X010382Y015276D01*
X010513Y015190D02*
X010513Y015103D01*
X010382Y012766D02*
X010382Y012592D01*
X010382Y012679D02*
X010643Y012679D01*
X010599Y012471D02*
X010643Y012428D01*
X010643Y012341D01*
X010599Y012298D01*
X010513Y012341D02*
X010513Y012428D01*
X010556Y012471D01*
X010599Y012471D01*
X010513Y012341D02*
X010469Y012298D01*
X010426Y012298D01*
X010382Y012341D01*
X010382Y012428D01*
X010426Y012471D01*
X010426Y012176D02*
X010513Y012176D01*
X010556Y012133D01*
X010556Y012003D01*
X010643Y012003D02*
X010382Y012003D01*
X010382Y012133D01*
X010426Y012176D01*
X010556Y012090D02*
X010643Y012176D01*
X010599Y011766D02*
X010426Y011766D01*
X010382Y011722D01*
X010382Y011592D01*
X010643Y011592D01*
X010643Y011722D01*
X010599Y011766D01*
X010382Y011471D02*
X010382Y011298D01*
X010643Y011298D01*
X010513Y011298D02*
X010513Y011384D01*
X010513Y011176D02*
X010556Y011133D01*
X010556Y011003D01*
X010643Y011003D02*
X010382Y011003D01*
X010382Y011133D01*
X010426Y011176D01*
X010513Y011176D01*
X010556Y008976D02*
X010599Y008976D01*
X010643Y008933D01*
X010643Y008803D01*
X010382Y008803D01*
X010382Y008933D01*
X010426Y008976D01*
X010469Y008976D01*
X010513Y008933D01*
X010513Y008803D01*
X010513Y008933D02*
X010556Y008976D01*
X009959Y007843D02*
X009532Y007843D01*
X009746Y007843D02*
X009746Y007202D01*
X009315Y007202D02*
X008888Y007202D01*
X008888Y007843D01*
X009315Y007843D01*
X009101Y007522D02*
X008888Y007522D01*
X008670Y007416D02*
X008670Y007309D01*
X008563Y007202D01*
X008350Y007202D01*
X008243Y007309D01*
X008350Y007522D02*
X008563Y007522D01*
X008670Y007416D01*
X008670Y007736D02*
X008563Y007843D01*
X008350Y007843D01*
X008243Y007736D01*
X008243Y007629D01*
X008350Y007522D01*
X008025Y007843D02*
X007598Y007843D01*
X007598Y007202D01*
X008025Y007202D01*
X007381Y007202D02*
X007167Y007416D01*
X007274Y007416D02*
X006954Y007416D01*
X006954Y007202D02*
X006954Y007843D01*
X007274Y007843D01*
X007381Y007736D01*
X007381Y007522D01*
X007274Y007416D01*
X007598Y007522D02*
X007812Y007522D01*
X010382Y006890D02*
X010469Y006976D01*
X010643Y006976D01*
X010513Y006976D02*
X010513Y006803D01*
X010469Y006803D02*
X010382Y006890D01*
X010469Y006803D02*
X010643Y006803D01*
X017682Y006722D02*
X017682Y006592D01*
X017943Y006592D01*
X017943Y006722D01*
X017899Y006766D01*
X017726Y006766D01*
X017682Y006722D01*
X017682Y006471D02*
X017943Y006471D01*
X017682Y006298D01*
X017943Y006298D01*
X017899Y006176D02*
X017813Y006176D01*
X017813Y006090D01*
X017899Y006176D02*
X017943Y006133D01*
X017943Y006046D01*
X017899Y006003D01*
X017726Y006003D01*
X017682Y006046D01*
X017682Y006133D01*
X017726Y006176D01*
X017813Y006953D02*
X017813Y007126D01*
X017813Y007248D02*
X017769Y007334D01*
X017769Y007378D01*
X017813Y007421D01*
X017899Y007421D01*
X017943Y007378D01*
X017943Y007291D01*
X017899Y007248D01*
X017813Y007248D02*
X017682Y007248D01*
X017682Y007421D01*
X017682Y007542D02*
X017856Y007542D01*
X017943Y007629D01*
X017856Y007716D01*
X017682Y007716D01*
X017726Y007040D02*
X017899Y007040D01*
X019155Y007293D02*
X019157Y007343D01*
X019163Y007393D01*
X019173Y007443D01*
X019186Y007491D01*
X019203Y007539D01*
X019224Y007585D01*
X019248Y007629D01*
X019276Y007671D01*
X019307Y007711D01*
X019341Y007748D01*
X019378Y007783D01*
X019417Y007814D01*
X019458Y007843D01*
X019502Y007868D01*
X019548Y007890D01*
X019595Y007908D01*
X019643Y007922D01*
X019692Y007933D01*
X019742Y007940D01*
X019792Y007943D01*
X019843Y007942D01*
X019893Y007937D01*
X019943Y007928D01*
X019991Y007916D01*
X020039Y007899D01*
X020085Y007879D01*
X020130Y007856D01*
X020173Y007829D01*
X020213Y007799D01*
X020251Y007766D01*
X020286Y007730D01*
X020319Y007691D01*
X020348Y007650D01*
X020374Y007607D01*
X020397Y007562D01*
X020416Y007515D01*
X020431Y007467D01*
X020443Y007418D01*
X020451Y007368D01*
X020455Y007318D01*
X020455Y007268D01*
X020451Y007218D01*
X020443Y007168D01*
X020431Y007119D01*
X020416Y007071D01*
X020397Y007024D01*
X020374Y006979D01*
X020348Y006936D01*
X020319Y006895D01*
X020286Y006856D01*
X020251Y006820D01*
X020213Y006787D01*
X020173Y006757D01*
X020130Y006730D01*
X020085Y006707D01*
X020039Y006687D01*
X019991Y006670D01*
X019943Y006658D01*
X019893Y006649D01*
X019843Y006644D01*
X019792Y006643D01*
X019742Y006646D01*
X019692Y006653D01*
X019643Y006664D01*
X019595Y006678D01*
X019548Y006696D01*
X019502Y006718D01*
X019458Y006743D01*
X019417Y006772D01*
X019378Y006803D01*
X019341Y006838D01*
X019307Y006875D01*
X019276Y006915D01*
X019248Y006957D01*
X019224Y007001D01*
X019203Y007047D01*
X019186Y007095D01*
X019173Y007143D01*
X019163Y007193D01*
X019157Y007243D01*
X019155Y007293D01*
X021315Y008213D02*
X021625Y006133D01*
X021775Y006133D02*
X021465Y008213D01*
X021465Y008209D02*
X021458Y008253D01*
X021455Y008298D01*
X021456Y008342D01*
X021460Y008387D01*
X021468Y008431D01*
X021480Y008474D01*
X021495Y008515D01*
X021514Y008556D01*
X021536Y008595D01*
X021561Y008631D01*
X021590Y008666D01*
X021621Y008698D01*
X021654Y008727D01*
X021690Y008754D01*
X021728Y008777D01*
X021768Y008797D01*
X021810Y008813D01*
X021853Y008826D01*
X021896Y008836D01*
X021940Y008841D01*
X021985Y008843D01*
X021985Y008993D02*
X021935Y008991D01*
X021885Y008986D01*
X021836Y008976D01*
X021787Y008964D01*
X021740Y008947D01*
X021694Y008928D01*
X021650Y008905D01*
X021607Y008878D01*
X021566Y008849D01*
X021528Y008817D01*
X021492Y008782D01*
X021459Y008744D01*
X021429Y008704D01*
X021402Y008662D01*
X021377Y008618D01*
X021357Y008573D01*
X021339Y008526D01*
X021325Y008478D01*
X021315Y008429D01*
X021308Y008379D01*
X021305Y008329D01*
X021306Y008279D01*
X021310Y008229D01*
X021318Y008180D01*
X020735Y009693D02*
X019735Y009693D01*
X019735Y009743D01*
X020735Y009743D02*
X020735Y009693D01*
X022866Y010849D02*
X022923Y010792D01*
X023037Y010792D01*
X023093Y010849D01*
X023093Y010962D01*
X023037Y011019D01*
X022980Y011019D01*
X022866Y010962D01*
X022866Y011133D01*
X023093Y011133D01*
X023235Y011076D02*
X023292Y011133D01*
X023405Y011133D01*
X023462Y011076D01*
X023235Y010849D01*
X023292Y010792D01*
X023405Y010792D01*
X023462Y010849D01*
X023462Y011076D01*
X023235Y011076D02*
X023235Y010849D01*
X028041Y010843D02*
X028154Y010900D01*
X028211Y010900D01*
X028268Y010843D01*
X028268Y010729D01*
X028211Y010673D01*
X028098Y010673D01*
X028041Y010729D01*
X028041Y010843D02*
X028041Y011013D01*
X028268Y011013D01*
X028409Y010956D02*
X028409Y010729D01*
X028636Y010956D01*
X028636Y010729D01*
X028579Y010673D01*
X028466Y010673D01*
X028409Y010729D01*
X028409Y010956D02*
X028466Y011013D01*
X028579Y011013D01*
X028636Y010956D01*
X022286Y005593D02*
X022235Y005595D01*
X022183Y005601D01*
X022133Y005610D01*
X022083Y005624D01*
X022035Y005641D01*
X021988Y005662D01*
X021942Y005686D01*
X021899Y005714D01*
X021858Y005745D01*
X021819Y005779D01*
X021783Y005815D01*
X021750Y005855D01*
X021720Y005897D01*
X021693Y005940D01*
X021669Y005986D01*
X021650Y006034D01*
X021633Y006082D01*
X021621Y006132D01*
X021612Y006183D01*
X021772Y006140D02*
X021785Y006098D01*
X021801Y006057D01*
X021820Y006018D01*
X021843Y005981D01*
X021868Y005946D01*
X021896Y005913D01*
X021927Y005882D01*
X021961Y005854D01*
X021996Y005829D01*
X022034Y005806D01*
X022073Y005787D01*
X022114Y005771D01*
X022156Y005759D01*
X022198Y005750D01*
X022241Y005745D01*
X022285Y005743D01*
X020735Y004893D02*
X020735Y004843D01*
X020735Y004893D02*
X019735Y004893D01*
X019735Y004843D01*
X017899Y011003D02*
X017943Y011046D01*
X017943Y011133D01*
X017899Y011176D01*
X017856Y011176D01*
X017813Y011133D01*
X017813Y011046D01*
X017769Y011003D01*
X017726Y011003D01*
X017682Y011046D01*
X017682Y011133D01*
X017726Y011176D01*
X017682Y011298D02*
X017943Y011298D01*
X017943Y011471D01*
X017943Y011592D02*
X017682Y011592D01*
X017682Y011722D01*
X017726Y011766D01*
X017813Y011766D01*
X017856Y011722D01*
X017856Y011592D01*
X017943Y012003D02*
X017682Y012003D01*
X017769Y012090D01*
X017682Y012176D01*
X017943Y012176D01*
X017899Y012298D02*
X017943Y012341D01*
X017943Y012428D01*
X017899Y012471D01*
X017856Y012471D01*
X017813Y012428D01*
X017813Y012341D01*
X017769Y012298D01*
X017726Y012298D01*
X017682Y012341D01*
X017682Y012428D01*
X017726Y012471D01*
X017769Y012592D02*
X017682Y012679D01*
X017943Y012679D01*
X017943Y012592D02*
X017943Y012766D01*
X010643Y017592D02*
X010469Y017766D01*
X010426Y017766D01*
X010382Y017722D01*
X010643Y017766D02*
X010643Y017592D01*
D12*
X009789Y015717D02*
X009716Y015717D01*
X009679Y015681D01*
X009679Y015534D01*
X009716Y015497D01*
X009789Y015497D01*
X009826Y015534D01*
X009826Y015607D01*
X009753Y015607D01*
X009826Y015681D02*
X009789Y015717D01*
X009605Y015717D02*
X009532Y015717D01*
X009569Y015717D02*
X009569Y015497D01*
X009605Y015497D02*
X009532Y015497D01*
X009458Y015534D02*
X009421Y015497D01*
X009348Y015497D01*
X009311Y015534D01*
X009348Y015607D02*
X009421Y015607D01*
X009458Y015571D01*
X009458Y015534D01*
X009348Y015607D02*
X009311Y015644D01*
X009311Y015681D01*
X009348Y015717D01*
X009421Y015717D01*
X009458Y015681D01*
X009458Y014536D02*
X009311Y014536D01*
X009311Y014426D01*
X009384Y014463D01*
X009421Y014463D01*
X009458Y014426D01*
X009458Y014353D01*
X009421Y014316D01*
X009348Y014316D01*
X009311Y014353D01*
X009532Y014389D02*
X009605Y014316D01*
X009679Y014389D01*
X009679Y014536D01*
X009532Y014536D02*
X009532Y014389D01*
X009532Y013355D02*
X009679Y013135D01*
X009679Y013355D01*
X009753Y013355D02*
X009863Y013355D01*
X009900Y013318D01*
X009900Y013172D01*
X009863Y013135D01*
X009753Y013135D01*
X009753Y013355D01*
X009532Y013355D02*
X009532Y013135D01*
X009458Y013172D02*
X009458Y013245D01*
X009384Y013245D01*
X009311Y013172D02*
X009348Y013135D01*
X009421Y013135D01*
X009458Y013172D01*
X009458Y013318D02*
X009421Y013355D01*
X009348Y013355D01*
X009311Y013318D01*
X009311Y013172D01*
X020910Y015647D02*
X021057Y015647D01*
X021131Y015647D02*
X021205Y015647D01*
X021168Y015647D02*
X021168Y015794D01*
X021131Y015794D01*
X021168Y015867D02*
X021168Y015904D01*
X021315Y015794D02*
X021279Y015757D01*
X021279Y015683D01*
X021315Y015647D01*
X021425Y015647D01*
X021425Y015610D02*
X021425Y015794D01*
X021315Y015794D01*
X021500Y015757D02*
X021536Y015794D01*
X021610Y015794D01*
X021646Y015757D01*
X021646Y015647D01*
X021757Y015683D02*
X021794Y015647D01*
X021757Y015683D02*
X021757Y015830D01*
X021721Y015794D02*
X021794Y015794D01*
X021500Y015867D02*
X021500Y015647D01*
X021425Y015610D02*
X021389Y015573D01*
X021352Y015573D01*
X020910Y015647D02*
X020910Y015867D01*
X022089Y015867D02*
X022089Y015647D01*
X022089Y015720D02*
X022199Y015720D01*
X022236Y015757D01*
X022236Y015830D01*
X022199Y015867D01*
X022089Y015867D01*
X022310Y015830D02*
X022310Y015683D01*
X022347Y015647D01*
X022420Y015647D01*
X022457Y015683D01*
X022457Y015830D01*
X022420Y015867D01*
X022347Y015867D01*
X022310Y015830D01*
X022531Y015867D02*
X022678Y015867D01*
X022604Y015867D02*
X022604Y015647D01*
X025832Y015670D02*
X025832Y015450D01*
X025832Y015523D02*
X025942Y015523D01*
X025978Y015560D01*
X025978Y015633D01*
X025942Y015670D01*
X025832Y015670D01*
X026053Y015597D02*
X026053Y015487D01*
X026089Y015450D01*
X026199Y015450D01*
X026199Y015597D01*
X026273Y015597D02*
X026310Y015597D01*
X026347Y015560D01*
X026384Y015597D01*
X026420Y015560D01*
X026420Y015450D01*
X026347Y015450D02*
X026347Y015560D01*
X026273Y015597D02*
X026273Y015450D01*
X026494Y015450D02*
X026605Y015450D01*
X026641Y015487D01*
X026641Y015560D01*
X026605Y015597D01*
X026494Y015597D01*
X026494Y015377D01*
X026936Y015450D02*
X026936Y015670D01*
X027047Y015670D01*
X027083Y015633D01*
X027083Y015560D01*
X027047Y015523D01*
X026936Y015523D01*
X027157Y015487D02*
X027194Y015450D01*
X027268Y015450D01*
X027304Y015487D01*
X027304Y015633D01*
X027268Y015670D01*
X027194Y015670D01*
X027157Y015633D01*
X027157Y015487D01*
X027378Y015670D02*
X027525Y015670D01*
X027452Y015670D02*
X027452Y015450D01*
X027469Y019053D02*
X027506Y019090D01*
X027506Y019237D01*
X027469Y019273D01*
X027359Y019273D01*
X027359Y019053D01*
X027469Y019053D01*
X027285Y019053D02*
X027285Y019273D01*
X027138Y019273D02*
X027138Y019053D01*
X027064Y019090D02*
X027064Y019163D01*
X026991Y019163D01*
X027064Y019090D02*
X027027Y019053D01*
X026954Y019053D01*
X026917Y019090D01*
X026917Y019237D01*
X026954Y019273D01*
X027027Y019273D01*
X027064Y019237D01*
X027138Y019273D02*
X027285Y019053D01*
X027273Y020222D02*
X027273Y020442D01*
X027383Y020442D01*
X027419Y020405D01*
X027419Y020332D01*
X027383Y020295D01*
X027273Y020295D01*
X027346Y020295D02*
X027419Y020222D01*
X027198Y020222D02*
X027198Y020368D01*
X027125Y020442D01*
X027052Y020368D01*
X027052Y020222D01*
X026977Y020295D02*
X026977Y020442D01*
X027052Y020332D02*
X027198Y020332D01*
X026977Y020295D02*
X026904Y020222D01*
X026831Y020295D01*
X026831Y020442D01*
X026831Y021206D02*
X026831Y021426D01*
X026977Y021206D01*
X026977Y021426D01*
X027052Y021389D02*
X027052Y021353D01*
X027088Y021316D01*
X027162Y021316D01*
X027198Y021279D01*
X027198Y021243D01*
X027162Y021206D01*
X027088Y021206D01*
X027052Y021243D01*
X027052Y021389D02*
X027088Y021426D01*
X027162Y021426D01*
X027198Y021389D01*
X024393Y021389D02*
X024356Y021426D01*
X024283Y021426D01*
X024246Y021389D01*
X024246Y021243D01*
X024283Y021206D01*
X024356Y021206D01*
X024393Y021243D01*
X024393Y021316D01*
X024319Y021316D01*
X024172Y021426D02*
X024099Y021426D01*
X024135Y021426D02*
X024135Y021206D01*
X024099Y021206D02*
X024172Y021206D01*
X024025Y021243D02*
X023988Y021206D01*
X023914Y021206D01*
X023878Y021243D01*
X023914Y021316D02*
X023988Y021316D01*
X024025Y021279D01*
X024025Y021243D01*
X023914Y021316D02*
X023878Y021353D01*
X023878Y021389D01*
X023914Y021426D01*
X023988Y021426D01*
X024025Y021389D01*
X024025Y020442D02*
X023878Y020442D01*
X023878Y020332D01*
X023951Y020368D01*
X023988Y020368D01*
X024025Y020332D01*
X024025Y020258D01*
X023988Y020222D01*
X023914Y020222D01*
X023878Y020258D01*
X024099Y020295D02*
X024172Y020222D01*
X024246Y020295D01*
X024246Y020442D01*
X024099Y020442D02*
X024099Y020295D01*
X024062Y019261D02*
X023988Y019261D01*
X023952Y019224D01*
X023952Y019077D01*
X023988Y019040D01*
X024062Y019040D01*
X024098Y019077D01*
X024098Y019151D01*
X024025Y019151D01*
X024098Y019224D02*
X024062Y019261D01*
X024173Y019261D02*
X024319Y019040D01*
X024319Y019261D01*
X024394Y019261D02*
X024504Y019261D01*
X024540Y019224D01*
X024540Y019077D01*
X024504Y019040D01*
X024394Y019040D01*
X024394Y019261D01*
X024173Y019261D02*
X024173Y019040D01*
X021514Y019077D02*
X021514Y019224D01*
X021477Y019261D01*
X021367Y019261D01*
X021367Y019040D01*
X021477Y019040D01*
X021514Y019077D01*
X021293Y019040D02*
X021293Y019261D01*
X021146Y019261D02*
X021293Y019040D01*
X021146Y019040D02*
X021146Y019261D01*
X021072Y019224D02*
X021035Y019261D01*
X020962Y019261D01*
X020925Y019224D01*
X020925Y019077D01*
X020962Y019040D01*
X021035Y019040D01*
X021072Y019077D01*
X021072Y019151D01*
X020998Y019151D01*
X020962Y020222D02*
X020925Y020258D01*
X020962Y020222D02*
X021035Y020222D01*
X021072Y020258D01*
X021072Y020332D01*
X021035Y020368D01*
X020998Y020368D01*
X020925Y020332D01*
X020925Y020442D01*
X021072Y020442D01*
X021146Y020442D02*
X021146Y020295D01*
X021219Y020222D01*
X021293Y020295D01*
X021293Y020442D01*
X021330Y021206D02*
X021403Y021206D01*
X021440Y021243D01*
X021440Y021316D01*
X021367Y021316D01*
X021440Y021316D01*
X021440Y021243D01*
X021403Y021206D01*
X021330Y021206D01*
X021293Y021243D01*
X021293Y021389D01*
X021330Y021426D01*
X021403Y021426D01*
X021440Y021389D01*
X021403Y021426D01*
X021330Y021426D01*
X021293Y021389D01*
X021293Y021243D01*
X021330Y021206D01*
X021219Y021206D02*
X021146Y021206D01*
X021219Y021206D01*
X021183Y021206D02*
X021183Y021426D01*
X021183Y021206D01*
X021072Y021243D02*
X021035Y021206D01*
X020962Y021206D01*
X020925Y021243D01*
X020962Y021206D01*
X021035Y021206D01*
X021072Y021243D01*
X021072Y021279D01*
X021035Y021316D01*
X020962Y021316D01*
X020925Y021353D01*
X020925Y021389D01*
X020962Y021426D01*
X021035Y021426D01*
X021072Y021389D01*
X021035Y021426D01*
X020962Y021426D01*
X020925Y021389D01*
X020925Y021353D01*
X020962Y021316D01*
X021035Y021316D01*
X021072Y021279D01*
X021072Y021243D01*
X021146Y021426D02*
X021219Y021426D01*
X021146Y021426D01*
X029980Y021426D02*
X029980Y021316D01*
X030054Y021353D01*
X030090Y021353D01*
X030127Y021316D01*
X030127Y021243D01*
X030090Y021206D01*
X030017Y021206D01*
X029980Y021243D01*
X029980Y021426D02*
X030127Y021426D01*
X030201Y021426D02*
X030201Y021279D01*
X030275Y021206D01*
X030348Y021279D01*
X030348Y021426D01*
X030275Y020442D02*
X030348Y020368D01*
X030348Y020222D01*
X030422Y020222D02*
X030422Y020442D01*
X030532Y020442D01*
X030569Y020405D01*
X030569Y020332D01*
X030532Y020295D01*
X030422Y020295D01*
X030496Y020295D02*
X030569Y020222D01*
X030348Y020332D02*
X030201Y020332D01*
X030201Y020368D02*
X030275Y020442D01*
X030201Y020368D02*
X030201Y020222D01*
X030127Y020295D02*
X030127Y020442D01*
X029980Y020442D02*
X029980Y020295D01*
X030054Y020222D01*
X030127Y020295D01*
X030090Y019457D02*
X030017Y019457D01*
X029980Y019421D01*
X029980Y019274D01*
X030017Y019237D01*
X030090Y019237D01*
X030127Y019274D01*
X030127Y019347D01*
X030054Y019347D01*
X030127Y019421D02*
X030090Y019457D01*
X030201Y019457D02*
X030348Y019237D01*
X030348Y019457D01*
X030422Y019457D02*
X030532Y019457D01*
X030569Y019421D01*
X030569Y019274D01*
X030532Y019237D01*
X030422Y019237D01*
X030422Y019457D01*
X030201Y019457D02*
X030201Y019237D01*
X033327Y019237D02*
X033327Y019457D01*
X033437Y019457D01*
X033473Y019421D01*
X033473Y019347D01*
X033437Y019311D01*
X033327Y019311D01*
X033548Y019237D02*
X033548Y019457D01*
X033694Y019457D02*
X033694Y019237D01*
X033621Y019311D01*
X033548Y019237D01*
X033769Y019237D02*
X033769Y019457D01*
X033842Y019384D01*
X033915Y019457D01*
X033915Y019237D01*
X033805Y020222D02*
X033732Y020222D01*
X033695Y020258D01*
X033695Y020405D01*
X033732Y020442D01*
X033805Y020442D01*
X033842Y020405D01*
X033842Y020332D02*
X033768Y020332D01*
X033842Y020332D02*
X033842Y020258D01*
X033805Y020222D01*
X033621Y020222D02*
X033548Y020222D01*
X033584Y020222D02*
X033584Y020442D01*
X033548Y020442D02*
X033621Y020442D01*
X033473Y020405D02*
X033437Y020442D01*
X033363Y020442D01*
X033327Y020405D01*
X033327Y020368D01*
X033363Y020332D01*
X033437Y020332D01*
X033473Y020295D01*
X033473Y020258D01*
X033437Y020222D01*
X033363Y020222D01*
X033327Y020258D01*
X033363Y021403D02*
X033327Y021439D01*
X033363Y021403D02*
X033437Y021403D01*
X033473Y021439D01*
X033473Y021476D01*
X033437Y021513D01*
X033363Y021513D01*
X033327Y021549D01*
X033327Y021586D01*
X033363Y021623D01*
X033437Y021623D01*
X033473Y021586D01*
X033548Y021623D02*
X033621Y021623D01*
X033584Y021623D02*
X033584Y021403D01*
X033548Y021403D02*
X033621Y021403D01*
X033695Y021439D02*
X033732Y021403D01*
X033805Y021403D01*
X033842Y021439D01*
X033842Y021513D01*
X033768Y021513D01*
X033695Y021586D02*
X033695Y021439D01*
X033695Y021586D02*
X033732Y021623D01*
X033805Y021623D01*
X033842Y021586D01*
X033915Y017686D02*
X033915Y017466D01*
X033769Y017466D02*
X033769Y017686D01*
X033842Y017612D01*
X033915Y017686D01*
X033694Y017686D02*
X033694Y017466D01*
X033621Y017539D01*
X033548Y017466D01*
X033548Y017686D01*
X033473Y017649D02*
X033473Y017576D01*
X033437Y017539D01*
X033327Y017539D01*
X033327Y017466D02*
X033327Y017686D01*
X033437Y017686D01*
X033473Y017649D01*
X033437Y016505D02*
X033363Y016505D01*
X033327Y016468D01*
X033327Y016431D01*
X033363Y016395D01*
X033437Y016395D01*
X033473Y016358D01*
X033473Y016321D01*
X033437Y016285D01*
X033363Y016285D01*
X033327Y016321D01*
X033473Y016468D02*
X033437Y016505D01*
X033548Y016505D02*
X033621Y016505D01*
X033584Y016505D02*
X033584Y016285D01*
X033548Y016285D02*
X033621Y016285D01*
X033695Y016321D02*
X033732Y016285D01*
X033805Y016285D01*
X033842Y016321D01*
X033842Y016395D01*
X033768Y016395D01*
X033695Y016468D02*
X033695Y016321D01*
X033695Y016468D02*
X033732Y016505D01*
X033805Y016505D01*
X033842Y016468D01*
X033805Y015520D02*
X033732Y015520D01*
X033695Y015484D01*
X033695Y015337D01*
X033732Y015300D01*
X033805Y015300D01*
X033842Y015337D01*
X033842Y015410D01*
X033768Y015410D01*
X033842Y015484D02*
X033805Y015520D01*
X033621Y015520D02*
X033548Y015520D01*
X033584Y015520D02*
X033584Y015300D01*
X033548Y015300D02*
X033621Y015300D01*
X033473Y015337D02*
X033437Y015300D01*
X033363Y015300D01*
X033327Y015337D01*
X033363Y015410D02*
X033437Y015410D01*
X033473Y015374D01*
X033473Y015337D01*
X033363Y015410D02*
X033327Y015447D01*
X033327Y015484D01*
X033363Y015520D01*
X033437Y015520D01*
X033473Y015484D01*
X033437Y013749D02*
X033363Y013749D01*
X033327Y013712D01*
X033327Y013675D01*
X033363Y013639D01*
X033437Y013639D01*
X033473Y013602D01*
X033473Y013565D01*
X033437Y013529D01*
X033363Y013529D01*
X033327Y013565D01*
X033473Y013712D02*
X033437Y013749D01*
X033548Y013749D02*
X033621Y013749D01*
X033584Y013749D02*
X033584Y013529D01*
X033548Y013529D02*
X033621Y013529D01*
X033695Y013565D02*
X033732Y013529D01*
X033805Y013529D01*
X033842Y013565D01*
X033842Y013639D01*
X033768Y013639D01*
X033695Y013712D02*
X033695Y013565D01*
X033695Y013712D02*
X033732Y013749D01*
X033805Y013749D01*
X033842Y013712D01*
X033694Y012765D02*
X033694Y012618D01*
X033621Y012544D01*
X033548Y012618D01*
X033548Y012765D01*
X033473Y012765D02*
X033327Y012765D01*
X033327Y012654D01*
X033400Y012691D01*
X033437Y012691D01*
X033473Y012654D01*
X033473Y012581D01*
X033437Y012544D01*
X033363Y012544D01*
X033327Y012581D01*
X033363Y011583D02*
X033327Y011547D01*
X033327Y011400D01*
X033363Y011363D01*
X033437Y011363D01*
X033473Y011400D01*
X033473Y011473D01*
X033400Y011473D01*
X033473Y011547D02*
X033437Y011583D01*
X033363Y011583D01*
X033548Y011583D02*
X033694Y011363D01*
X033694Y011583D01*
X033769Y011583D02*
X033879Y011583D01*
X033915Y011547D01*
X033915Y011400D01*
X033879Y011363D01*
X033769Y011363D01*
X033769Y011583D01*
X033548Y011583D02*
X033548Y011363D01*
D13*
X018173Y003373D02*
X010173Y003373D01*
X010173Y022373D01*
X018173Y022373D01*
X018173Y003373D01*
X011873Y006373D02*
X011873Y009373D01*
X011673Y009373D01*
X011673Y006373D02*
X011873Y006373D01*
D14*
X010723Y006373D02*
X010473Y006373D01*
X010473Y006623D01*
X010473Y007123D02*
X010473Y007373D01*
X010723Y007373D01*
X010723Y008373D02*
X010473Y008373D01*
X010473Y008623D01*
X010473Y009123D02*
X010473Y009373D01*
X010723Y009373D01*
X008702Y006423D02*
X007909Y006423D01*
X007102Y006073D02*
X007102Y004373D01*
X007897Y004023D02*
X008702Y004023D01*
X009502Y004373D02*
X009502Y006073D01*
X007602Y005223D02*
X007604Y005275D01*
X007610Y005327D01*
X007620Y005379D01*
X007633Y005429D01*
X007650Y005479D01*
X007671Y005527D01*
X007696Y005573D01*
X007724Y005617D01*
X007755Y005659D01*
X007789Y005699D01*
X007826Y005736D01*
X007866Y005770D01*
X007908Y005801D01*
X007952Y005829D01*
X007998Y005854D01*
X008046Y005875D01*
X008096Y005892D01*
X008146Y005905D01*
X008198Y005915D01*
X008250Y005921D01*
X008302Y005923D01*
X008354Y005921D01*
X008406Y005915D01*
X008458Y005905D01*
X008508Y005892D01*
X008558Y005875D01*
X008606Y005854D01*
X008652Y005829D01*
X008696Y005801D01*
X008738Y005770D01*
X008778Y005736D01*
X008815Y005699D01*
X008849Y005659D01*
X008880Y005617D01*
X008908Y005573D01*
X008933Y005527D01*
X008954Y005479D01*
X008971Y005429D01*
X008984Y005379D01*
X008994Y005327D01*
X009000Y005275D01*
X009002Y005223D01*
X009000Y005171D01*
X008994Y005119D01*
X008984Y005067D01*
X008971Y005017D01*
X008954Y004967D01*
X008933Y004919D01*
X008908Y004873D01*
X008880Y004829D01*
X008849Y004787D01*
X008815Y004747D01*
X008778Y004710D01*
X008738Y004676D01*
X008696Y004645D01*
X008652Y004617D01*
X008606Y004592D01*
X008558Y004571D01*
X008508Y004554D01*
X008458Y004541D01*
X008406Y004531D01*
X008354Y004525D01*
X008302Y004523D01*
X008250Y004525D01*
X008198Y004531D01*
X008146Y004541D01*
X008096Y004554D01*
X008046Y004571D01*
X007998Y004592D01*
X007952Y004617D01*
X007908Y004645D01*
X007866Y004676D01*
X007826Y004710D01*
X007789Y004747D01*
X007755Y004787D01*
X007724Y004829D01*
X007696Y004873D01*
X007671Y004919D01*
X007650Y004967D01*
X007633Y005017D01*
X007620Y005067D01*
X007610Y005119D01*
X007604Y005171D01*
X007602Y005223D01*
X010507Y004304D02*
X010507Y003804D01*
X010757Y003554D01*
X011257Y003554D01*
X011507Y003804D01*
X011757Y003554D01*
X012257Y003554D01*
X012507Y003804D01*
X012757Y003554D01*
X013257Y003554D01*
X013507Y003804D01*
X013757Y003554D01*
X014257Y003554D01*
X014507Y003804D01*
X014757Y003554D01*
X015257Y003554D01*
X015507Y003804D01*
X015757Y003554D01*
X016257Y003554D01*
X016507Y003804D01*
X016507Y004304D01*
X016257Y004554D01*
X015757Y004554D01*
X015507Y004304D01*
X015257Y004554D01*
X014757Y004554D01*
X014507Y004304D01*
X014257Y004554D01*
X013757Y004554D01*
X013507Y004304D01*
X013257Y004554D01*
X012757Y004554D01*
X012507Y004304D01*
X012257Y004554D01*
X011757Y004554D01*
X011507Y004304D01*
X011257Y004554D01*
X010757Y004554D01*
X010507Y004304D01*
X017507Y004304D02*
X017507Y003804D01*
X017757Y003554D01*
X018257Y003554D01*
X018507Y003804D01*
X018757Y003554D01*
X019257Y003554D01*
X019507Y003804D01*
X019757Y003554D01*
X020257Y003554D01*
X020507Y003804D01*
X020757Y003554D01*
X021257Y003554D01*
X021507Y003804D01*
X021757Y003554D01*
X022257Y003554D01*
X022507Y003804D01*
X022757Y003554D01*
X023257Y003554D01*
X023507Y003804D01*
X023757Y003554D01*
X024257Y003554D01*
X024507Y003804D01*
X024757Y003554D01*
X025257Y003554D01*
X025507Y003804D01*
X025507Y004304D01*
X025257Y004554D01*
X024757Y004554D01*
X024507Y004304D01*
X024257Y004554D01*
X023757Y004554D01*
X023507Y004304D01*
X023257Y004554D01*
X022757Y004554D01*
X022507Y004304D01*
X022257Y004554D01*
X021757Y004554D01*
X021507Y004304D01*
X021257Y004554D01*
X020757Y004554D01*
X020507Y004304D01*
X020257Y004554D01*
X019757Y004554D01*
X019507Y004304D01*
X019257Y004554D01*
X018757Y004554D01*
X018507Y004304D01*
X018257Y004554D01*
X017757Y004554D01*
X017507Y004304D01*
X026507Y004304D02*
X026507Y003804D01*
X026757Y003554D01*
X027257Y003554D01*
X027507Y003804D01*
X027757Y003554D01*
X028257Y003554D01*
X028507Y003804D01*
X028757Y003554D01*
X029257Y003554D01*
X029507Y003804D01*
X029757Y003554D01*
X030257Y003554D01*
X030507Y003804D01*
X030757Y003554D01*
X031257Y003554D01*
X031507Y003804D01*
X031757Y003554D01*
X032257Y003554D01*
X032507Y003804D01*
X032757Y003554D01*
X033257Y003554D01*
X033507Y003804D01*
X033757Y003554D01*
X034257Y003554D01*
X034507Y003804D01*
X034507Y004304D01*
X034257Y004554D01*
X033757Y004554D01*
X033507Y004304D01*
X033257Y004554D01*
X032757Y004554D01*
X032507Y004304D01*
X032257Y004554D01*
X031757Y004554D01*
X031507Y004304D01*
X031257Y004554D01*
X030757Y004554D01*
X030507Y004304D01*
X030257Y004554D01*
X029757Y004554D01*
X029507Y004304D01*
X029257Y004554D01*
X028757Y004554D01*
X028507Y004304D01*
X028257Y004554D01*
X027757Y004554D01*
X027507Y004304D01*
X027257Y004554D01*
X026757Y004554D01*
X026507Y004304D01*
X034507Y005804D02*
X034757Y005554D01*
X036257Y005554D01*
X036507Y005804D01*
X036507Y006304D01*
X036257Y006554D01*
X034757Y006554D01*
X034507Y006304D01*
X034507Y005804D01*
X028948Y010593D02*
X026948Y010593D01*
X026948Y010893D01*
X026848Y010893D01*
X026948Y010893D02*
X026948Y011193D01*
X028948Y011193D01*
X028948Y010893D01*
X029048Y010893D01*
X028948Y010893D02*
X028948Y010593D01*
X024736Y010912D02*
X024636Y010912D01*
X024636Y010612D01*
X022636Y010612D01*
X022636Y010912D01*
X022536Y010912D01*
X022636Y010912D02*
X022636Y011212D01*
X024636Y011212D01*
X024636Y010912D01*
X013740Y019322D02*
X013440Y019322D01*
X013440Y019222D01*
X013440Y019322D02*
X013140Y019322D01*
X013140Y021322D01*
X013440Y021322D01*
X013440Y021422D01*
X013440Y021322D02*
X013740Y021322D01*
X013740Y019322D01*
X011873Y020373D02*
X011873Y021373D01*
X011623Y021373D01*
X011657Y022554D02*
X011157Y022554D01*
X010907Y022804D01*
X010657Y022554D01*
X010157Y022554D01*
X009907Y022804D01*
X009657Y022554D01*
X009157Y022554D01*
X008907Y022804D01*
X008657Y022554D01*
X008157Y022554D01*
X007907Y022804D01*
X007657Y022554D01*
X007157Y022554D01*
X006907Y022804D01*
X006907Y023304D01*
X007157Y023554D01*
X007657Y023554D01*
X007907Y023304D01*
X008157Y023554D01*
X008657Y023554D01*
X008907Y023304D01*
X009157Y023554D01*
X009657Y023554D01*
X009907Y023304D01*
X010157Y023554D01*
X010657Y023554D01*
X010907Y023304D01*
X011157Y023554D01*
X011657Y023554D01*
X011907Y023304D01*
X012157Y023554D01*
X012657Y023554D01*
X012907Y023304D01*
X013157Y023554D01*
X013657Y023554D01*
X013907Y023304D01*
X014157Y023554D01*
X014657Y023554D01*
X014907Y023304D01*
X014907Y022804D01*
X014657Y022554D01*
X014157Y022554D01*
X013907Y022804D01*
X013657Y022554D01*
X013157Y022554D01*
X012907Y022804D01*
X012657Y022554D01*
X012157Y022554D01*
X011907Y022804D01*
X011657Y022554D01*
X009125Y021018D02*
X007432Y021018D01*
X006704Y021018D02*
X004164Y021018D01*
X004164Y017671D01*
X009519Y017671D01*
X009519Y019443D01*
X011623Y020373D02*
X011873Y020373D01*
X015507Y022804D02*
X015757Y022554D01*
X016257Y022554D01*
X016507Y022804D01*
X016757Y022554D01*
X017257Y022554D01*
X017507Y022804D01*
X017757Y022554D01*
X018257Y022554D01*
X018507Y022804D01*
X018757Y022554D01*
X019257Y022554D01*
X019507Y022804D01*
X019757Y022554D01*
X020257Y022554D01*
X020507Y022804D01*
X020757Y022554D01*
X021257Y022554D01*
X021507Y022804D01*
X021757Y022554D01*
X022257Y022554D01*
X022507Y022804D01*
X022757Y022554D01*
X023257Y022554D01*
X023507Y022804D01*
X023507Y023304D01*
X023257Y023554D01*
X022757Y023554D01*
X022507Y023304D01*
X022257Y023554D01*
X021757Y023554D01*
X021507Y023304D01*
X021257Y023554D01*
X020757Y023554D01*
X020507Y023304D01*
X020257Y023554D01*
X019757Y023554D01*
X019507Y023304D01*
X019257Y023554D01*
X018757Y023554D01*
X018507Y023304D01*
X018257Y023554D01*
X017757Y023554D01*
X017507Y023304D01*
X017257Y023554D01*
X016757Y023554D01*
X016507Y023304D01*
X016257Y023554D01*
X015757Y023554D01*
X015507Y023304D01*
X015507Y022804D01*
X024507Y022804D02*
X024757Y022554D01*
X025257Y022554D01*
X025507Y022804D01*
X025757Y022554D01*
X026257Y022554D01*
X026507Y022804D01*
X026757Y022554D01*
X027257Y022554D01*
X027507Y022804D01*
X027757Y022554D01*
X028257Y022554D01*
X028507Y022804D01*
X028757Y022554D01*
X029257Y022554D01*
X029507Y022804D01*
X029757Y022554D01*
X030257Y022554D01*
X030507Y022804D01*
X030757Y022554D01*
X031257Y022554D01*
X031507Y022804D01*
X031757Y022554D01*
X032257Y022554D01*
X032507Y022804D01*
X032507Y023304D01*
X032257Y023554D01*
X031757Y023554D01*
X031507Y023304D01*
X031257Y023554D01*
X030757Y023554D01*
X030507Y023304D01*
X030257Y023554D01*
X029757Y023554D01*
X029507Y023304D01*
X029257Y023554D01*
X028757Y023554D01*
X028507Y023304D01*
X028257Y023554D01*
X027757Y023554D01*
X027507Y023304D01*
X027257Y023554D01*
X026757Y023554D01*
X026507Y023304D01*
X026257Y023554D01*
X025757Y023554D01*
X025507Y023304D01*
X025257Y023554D01*
X024757Y023554D01*
X024507Y023304D01*
X024507Y022804D01*
X034507Y022804D02*
X034757Y022554D01*
X036257Y022554D01*
X036507Y022804D01*
X036507Y023304D01*
X036257Y023554D01*
X034757Y023554D01*
X034507Y023304D01*
X034507Y022804D01*
D15*
X019835Y010604D02*
X019730Y010709D01*
X019520Y010709D01*
X019415Y010604D01*
X019191Y010709D02*
X018770Y010078D01*
X019191Y010078D02*
X018770Y010709D01*
X019415Y010183D02*
X019520Y010078D01*
X019730Y010078D01*
X019835Y010183D01*
X019835Y010288D01*
X019730Y010394D01*
X019625Y010394D01*
X019730Y010394D02*
X019835Y010499D01*
X019835Y010604D01*
X012388Y008701D02*
X012278Y008591D01*
X012278Y008646D02*
X012278Y008481D01*
X012388Y008481D02*
X012057Y008481D01*
X012057Y008646D01*
X012112Y008701D01*
X012223Y008701D01*
X012278Y008646D01*
X012333Y008333D02*
X012112Y008333D01*
X012057Y008278D01*
X012057Y008168D01*
X012112Y008113D01*
X012333Y008113D01*
X012388Y008168D01*
X012388Y008278D01*
X012333Y008333D01*
X012057Y007965D02*
X012057Y007745D01*
X012057Y007855D02*
X012388Y007855D01*
X012333Y007596D02*
X012112Y007596D01*
X012057Y007541D01*
X012057Y007431D01*
X012112Y007376D01*
X012333Y007376D01*
X012388Y007431D01*
X012388Y007541D01*
X012333Y007596D01*
X012388Y007228D02*
X012057Y007228D01*
X012168Y007118D01*
X012057Y007008D01*
X012388Y007008D01*
D16*
X006402Y004248D02*
X006326Y004323D01*
X006326Y004474D01*
X006402Y004549D01*
X006552Y004474D02*
X006552Y004323D01*
X006477Y004248D01*
X006402Y004248D01*
X006552Y004474D02*
X006627Y004549D01*
X006702Y004549D01*
X006777Y004474D01*
X006777Y004323D01*
X006702Y004248D01*
X006777Y004709D02*
X006777Y005009D01*
X006777Y004859D02*
X006326Y004859D01*
X006477Y004709D01*
X007082Y012912D02*
X007082Y015912D01*
X009282Y015912D01*
X009282Y015412D01*
X008782Y015412D01*
X008782Y013412D01*
X009282Y013412D01*
X009282Y012912D01*
X007082Y012912D01*
X009282Y013412D02*
X009282Y015412D01*
X018677Y018818D02*
X018677Y021818D01*
X020877Y021818D01*
X020877Y021318D01*
X020377Y021318D01*
X020377Y019318D01*
X020877Y019318D01*
X020877Y018818D01*
X018677Y018818D01*
X020877Y019318D02*
X020877Y021318D01*
X021688Y021818D02*
X021688Y018818D01*
X023888Y018818D01*
X023888Y019318D01*
X023388Y019318D01*
X023388Y021318D01*
X023888Y021318D01*
X023888Y019318D01*
X024637Y018810D02*
X024637Y021810D01*
X026837Y021810D01*
X026837Y021310D01*
X026337Y021310D01*
X026337Y019310D01*
X026837Y019310D01*
X026837Y018810D01*
X024637Y018810D01*
X026837Y019310D02*
X026837Y021310D01*
X027678Y021865D02*
X027678Y018865D01*
X029878Y018865D01*
X029878Y019365D01*
X029378Y019365D01*
X029378Y021365D01*
X029878Y021365D01*
X029878Y019365D01*
X030724Y018877D02*
X030724Y021877D01*
X032924Y021877D01*
X032924Y021377D01*
X032424Y021377D01*
X032424Y019377D01*
X032924Y019377D01*
X032924Y018877D01*
X030724Y018877D01*
X030724Y017940D02*
X030724Y014940D01*
X032924Y014940D01*
X032924Y015440D01*
X032424Y015440D01*
X032424Y017440D01*
X032924Y017440D01*
X032924Y015440D01*
X032924Y014200D02*
X030724Y014200D01*
X030724Y011200D01*
X032924Y011200D01*
X032924Y011700D01*
X032424Y011700D01*
X032424Y013700D01*
X032924Y013700D01*
X032924Y011700D01*
X032924Y013700D02*
X032924Y014200D01*
X032924Y017440D02*
X032924Y017940D01*
X030724Y017940D01*
X032924Y019377D02*
X032924Y021377D01*
X029878Y021365D02*
X029878Y021865D01*
X027678Y021865D01*
X023888Y021818D02*
X023888Y021318D01*
X023888Y021818D02*
X021688Y021818D01*
X019458Y015357D02*
X019458Y015057D01*
X019458Y015207D02*
X019008Y015207D01*
X019158Y015057D01*
X019008Y014897D02*
X019383Y014897D01*
X019458Y014822D01*
X019458Y014671D01*
X019383Y014596D01*
X019008Y014596D01*
X023950Y014691D02*
X024325Y014691D01*
X024400Y014616D01*
X024400Y014466D01*
X024325Y014391D01*
X023950Y014391D01*
X024025Y014851D02*
X023950Y014926D01*
X023950Y015076D01*
X024025Y015151D01*
X024100Y015151D01*
X024400Y014851D01*
X024400Y015151D01*
X024667Y008609D02*
X024781Y008609D01*
X024837Y008552D01*
X024837Y008495D01*
X024781Y008438D01*
X024837Y008382D01*
X024837Y008325D01*
X024781Y008268D01*
X024667Y008268D01*
X024610Y008325D01*
X024724Y008438D02*
X024781Y008438D01*
X024610Y008552D02*
X024667Y008609D01*
X025710Y008438D02*
X025937Y008438D01*
X025881Y008268D02*
X025881Y008609D01*
X025710Y008438D01*
X026760Y008438D02*
X026874Y008495D01*
X026931Y008495D01*
X026987Y008438D01*
X026987Y008325D01*
X026931Y008268D01*
X026817Y008268D01*
X026760Y008325D01*
X026760Y008438D02*
X026760Y008609D01*
X026987Y008609D01*
X027860Y008438D02*
X028031Y008438D01*
X028087Y008382D01*
X028087Y008325D01*
X028031Y008268D01*
X027917Y008268D01*
X027860Y008325D01*
X027860Y008438D01*
X027974Y008552D01*
X028087Y008609D01*
X028960Y008609D02*
X029187Y008609D01*
X029187Y008552D01*
X028960Y008325D01*
X028960Y008268D01*
X030010Y008325D02*
X030010Y008382D01*
X030067Y008438D01*
X030181Y008438D01*
X030237Y008382D01*
X030237Y008325D01*
X030181Y008268D01*
X030067Y008268D01*
X030010Y008325D01*
X030067Y008438D02*
X030010Y008495D01*
X030010Y008552D01*
X030067Y008609D01*
X030181Y008609D01*
X030237Y008552D01*
X030237Y008495D01*
X030181Y008438D01*
X029896Y006309D02*
X029670Y006309D01*
X029670Y006138D01*
X029783Y006195D01*
X029840Y006195D01*
X029896Y006138D01*
X029896Y006025D01*
X029840Y005968D01*
X029726Y005968D01*
X029670Y006025D01*
X029537Y005968D02*
X029310Y005968D01*
X029424Y005968D02*
X029424Y006309D01*
X029310Y006195D01*
X028846Y006138D02*
X028620Y006138D01*
X028790Y006309D01*
X028790Y005968D01*
X028487Y005968D02*
X028260Y005968D01*
X028374Y005968D02*
X028374Y006309D01*
X028260Y006195D01*
X027746Y006195D02*
X027690Y006138D01*
X027746Y006082D01*
X027746Y006025D01*
X027690Y005968D01*
X027576Y005968D01*
X027520Y006025D01*
X027387Y005968D02*
X027160Y005968D01*
X027274Y005968D02*
X027274Y006309D01*
X027160Y006195D01*
X027520Y006252D02*
X027576Y006309D01*
X027690Y006309D01*
X027746Y006252D01*
X027746Y006195D01*
X027690Y006138D02*
X027633Y006138D01*
X026696Y006195D02*
X026696Y006252D01*
X026640Y006309D01*
X026526Y006309D01*
X026470Y006252D01*
X026696Y006195D02*
X026470Y005968D01*
X026696Y005968D01*
X026337Y005968D02*
X026110Y005968D01*
X026224Y005968D02*
X026224Y006309D01*
X026110Y006195D01*
X025596Y005968D02*
X025370Y005968D01*
X025483Y005968D02*
X025483Y006309D01*
X025370Y006195D01*
X025237Y005968D02*
X025010Y005968D01*
X025124Y005968D02*
X025124Y006309D01*
X025010Y006195D01*
X024546Y006252D02*
X024320Y006025D01*
X024376Y005968D01*
X024490Y005968D01*
X024546Y006025D01*
X024546Y006252D01*
X024490Y006309D01*
X024376Y006309D01*
X024320Y006252D01*
X024320Y006025D01*
X024187Y005968D02*
X023960Y005968D01*
X024074Y005968D02*
X024074Y006309D01*
X023960Y006195D01*
X023237Y006138D02*
X023067Y006138D01*
X023010Y006195D01*
X023010Y006252D01*
X023067Y006309D01*
X023181Y006309D01*
X023237Y006252D01*
X023237Y006025D01*
X023181Y005968D01*
X023067Y005968D01*
X023010Y006025D01*
X022737Y008268D02*
X022510Y008268D01*
X022624Y008268D02*
X022624Y008609D01*
X022510Y008495D01*
X023560Y008552D02*
X023617Y008609D01*
X023731Y008609D01*
X023787Y008552D01*
X023787Y008495D01*
X023560Y008268D01*
X023787Y008268D01*
X034082Y023579D02*
X034032Y023629D01*
X034082Y023579D02*
X034182Y023579D01*
X034232Y023629D01*
X034232Y023729D01*
X034182Y023779D01*
X034132Y023779D01*
X034032Y023729D01*
X034032Y023879D01*
X034232Y023879D01*
X034354Y023879D02*
X034354Y023679D01*
X034454Y023579D01*
X034554Y023679D01*
X034554Y023879D01*
D17*
X034707Y023834D02*
X035007Y023834D01*
X036007Y023834D01*
X036007Y023574D01*
X035007Y023584D02*
X035007Y023834D01*
X035007Y005524D02*
X035007Y005234D01*
X036007Y005234D01*
X036007Y005534D01*
X036507Y005554D02*
X037687Y005554D01*
D18*
X028905Y010238D02*
X028805Y010238D01*
X028758Y010238D02*
X028708Y010288D01*
X028733Y010288D02*
X028658Y010288D01*
X028658Y010238D02*
X028658Y010388D01*
X028733Y010388D01*
X028758Y010363D01*
X028758Y010313D01*
X028733Y010288D01*
X028805Y010338D02*
X028855Y010388D01*
X028855Y010238D01*
X022889Y011492D02*
X022789Y011492D01*
X022864Y011567D01*
X022864Y011417D01*
X022742Y011417D02*
X022692Y011467D01*
X022717Y011467D02*
X022641Y011467D01*
X022641Y011417D02*
X022641Y011567D01*
X022717Y011567D01*
X022742Y011542D01*
X022742Y011492D01*
X022717Y011467D01*
X014095Y021032D02*
X013945Y021032D01*
X013945Y021107D01*
X013970Y021132D01*
X014020Y021132D01*
X014045Y021107D01*
X014045Y021032D01*
X014045Y021082D02*
X014095Y021132D01*
X014070Y021179D02*
X014095Y021204D01*
X014095Y021255D01*
X014070Y021280D01*
X014045Y021280D01*
X014020Y021255D01*
X014020Y021230D01*
X014020Y021255D02*
X013995Y021280D01*
X013970Y021280D01*
X013945Y021255D01*
X013945Y021204D01*
X013970Y021179D01*
M02*
