G75*
%MOIN*%
%OFA0B0*%
%FSLAX24Y24*%
%IPPOS*%
%LPD*%
%AMOC8*
5,1,8,0,0,1.08239X$1,22.5*
%
%ADD10C,0.0740*%
%ADD11C,0.0787*%
%ADD12R,0.0740X0.0740*%
%ADD13C,0.0480*%
%ADD14OC8,0.0740*%
%ADD15C,0.0472*%
%ADD16C,0.0800*%
%ADD17C,0.0160*%
%ADD18R,0.0376X0.0376*%
%ADD19C,0.0120*%
%ADD20C,0.0100*%
%ADD21C,0.0337*%
%ADD22C,0.0320*%
D10*
X007195Y005341D03*
X008975Y005341D03*
X010897Y005948D03*
X010897Y006948D03*
X010897Y007948D03*
X008975Y007901D03*
X007195Y007901D03*
X014873Y004097D03*
X015873Y004097D03*
X016873Y004097D03*
X017873Y004097D03*
X018873Y004097D03*
X019873Y004097D03*
X021873Y004097D03*
X022873Y004097D03*
X023873Y004097D03*
X024873Y004097D03*
X025873Y004097D03*
X026873Y004097D03*
X027873Y004097D03*
X028873Y004097D03*
X030873Y004097D03*
X031873Y004097D03*
X032873Y004097D03*
X033873Y004097D03*
X034873Y004097D03*
X035873Y004097D03*
X036873Y004097D03*
X037873Y004097D03*
X038873Y006097D03*
X039873Y006097D03*
X035408Y007424D03*
X035408Y008424D03*
X035408Y009424D03*
X032342Y008412D03*
X032342Y007412D03*
X029306Y007404D03*
X029306Y008404D03*
X026235Y008404D03*
X026235Y007404D03*
X023223Y007404D03*
X023223Y008404D03*
X020192Y008385D03*
X020192Y007385D03*
X016897Y006948D03*
X016897Y005948D03*
X016897Y009948D03*
X016897Y010948D03*
X021491Y012582D03*
X016897Y014948D03*
X016897Y015948D03*
X016897Y017948D03*
X016897Y018948D03*
X016897Y019948D03*
X016897Y020948D03*
X013440Y021822D03*
X013273Y023097D03*
X014273Y023097D03*
X015273Y023097D03*
X016273Y023097D03*
X017273Y023097D03*
X018273Y023097D03*
X019873Y023097D03*
X020873Y023097D03*
X021873Y023097D03*
X022873Y023097D03*
X023873Y023097D03*
X024873Y023097D03*
X025873Y023097D03*
X026873Y023097D03*
X028873Y023097D03*
X029873Y023097D03*
X030873Y023097D03*
X031873Y023097D03*
X032873Y023097D03*
X033873Y023097D03*
X034873Y023097D03*
X035873Y023097D03*
X038873Y023097D03*
X039873Y023097D03*
X036014Y020582D03*
X036014Y019582D03*
X027755Y017074D03*
X024755Y017074D03*
X023306Y017074D03*
X021491Y015582D03*
X020306Y017074D03*
X013440Y018822D03*
X010897Y019948D03*
X010897Y020948D03*
X011273Y023097D03*
X012273Y023097D03*
X010897Y015948D03*
X010897Y014948D03*
D11*
X008771Y018360D02*
X007983Y018360D01*
X007078Y019935D02*
X007078Y020723D01*
X009558Y020723D02*
X009558Y019935D01*
D12*
X020192Y006385D03*
X023223Y006404D03*
X026235Y006404D03*
X029306Y006404D03*
X032342Y006412D03*
X035408Y006424D03*
X036014Y018582D03*
D13*
X033422Y018954D02*
X032942Y018954D01*
X032942Y017954D02*
X033422Y017954D01*
X033422Y016954D02*
X032942Y016954D01*
X032942Y015954D02*
X033422Y015954D01*
X030422Y015954D02*
X029942Y015954D01*
X029942Y016954D02*
X030422Y016954D01*
X030422Y017954D02*
X029942Y017954D01*
X029942Y018954D02*
X030422Y018954D01*
X030486Y014185D02*
X030006Y014185D01*
X030006Y013185D02*
X030486Y013185D01*
X030486Y012185D02*
X030006Y012185D01*
X030006Y011185D02*
X030486Y011185D01*
X033006Y011185D02*
X033486Y011185D01*
X033486Y012185D02*
X033006Y012185D01*
X033006Y013185D02*
X033486Y013185D01*
X033486Y014185D02*
X033006Y014185D01*
D14*
X038873Y014097D03*
X039873Y014097D03*
X039873Y013097D03*
X038873Y013097D03*
X038873Y012097D03*
X039873Y012097D03*
X039873Y011097D03*
X038873Y011097D03*
X038873Y010097D03*
X039873Y010097D03*
X039873Y009097D03*
X038873Y009097D03*
X038873Y008097D03*
X039873Y008097D03*
X039873Y007097D03*
X038873Y007097D03*
X038873Y015097D03*
X039873Y015097D03*
X039873Y016097D03*
X038873Y016097D03*
X038873Y017097D03*
X039873Y017097D03*
X039873Y018097D03*
X038873Y018097D03*
X038873Y019097D03*
X039873Y019097D03*
X039873Y020097D03*
X038873Y020097D03*
X038873Y021097D03*
X039873Y021097D03*
X039873Y022097D03*
X038873Y022097D03*
X027546Y020672D03*
X026546Y020672D03*
X025546Y020672D03*
X024546Y020672D03*
X023546Y020672D03*
X022546Y020672D03*
X021546Y020672D03*
X020546Y020672D03*
X020546Y019672D03*
X021546Y019672D03*
X022546Y019672D03*
X023546Y019672D03*
X024546Y019672D03*
X025546Y019672D03*
X026546Y019672D03*
X027546Y019672D03*
D15*
X027873Y015097D03*
X026873Y015097D03*
X026873Y014097D03*
X027873Y014097D03*
X027873Y013097D03*
X026873Y013097D03*
X020211Y013580D03*
X020211Y014328D03*
X020211Y015056D03*
D16*
X018794Y014910D03*
X018794Y016010D03*
X018814Y013687D03*
X018814Y012587D03*
D17*
X017298Y012979D02*
X017298Y013767D01*
X015133Y015932D01*
X015133Y018747D01*
X015152Y018767D01*
X016007Y021275D02*
X016007Y022298D01*
X016176Y022467D01*
X019243Y022467D01*
X019873Y023097D01*
X023546Y021471D02*
X023597Y021523D01*
X028144Y021523D01*
X028420Y021247D01*
X028420Y020546D01*
X027546Y019672D01*
X026546Y019672D02*
X026550Y019164D01*
X026471Y016523D01*
X025623Y016049D01*
X028794Y015578D02*
X028794Y014219D01*
X028656Y014082D01*
X027888Y014082D01*
X027873Y014097D01*
X028361Y013511D02*
X026873Y013511D01*
X026873Y014097D01*
X028361Y013511D02*
X028361Y013185D01*
X030246Y013185D01*
X033182Y014249D02*
X033246Y014185D01*
X033182Y014249D02*
X033182Y015954D01*
X033164Y015971D01*
X032613Y015971D01*
X032239Y016345D01*
X032239Y018629D01*
X032564Y018954D01*
X033182Y018954D01*
X033459Y019790D02*
X034070Y019180D01*
X034070Y018841D01*
X033182Y017954D01*
X033182Y016954D02*
X034383Y016954D01*
X034896Y017467D01*
X034896Y018464D01*
X036014Y019582D01*
X033459Y019790D02*
X032967Y019790D01*
X031373Y018196D01*
X031373Y015932D01*
X030182Y015932D01*
X030182Y015954D01*
X031373Y015932D02*
X031373Y011185D01*
X031789Y011185D01*
X033459Y009515D01*
X035400Y009515D01*
X035408Y009424D01*
X031373Y011185D02*
X030246Y011185D01*
X030246Y007344D01*
X029306Y006404D01*
X026077Y005007D02*
X025428Y005656D01*
X025428Y011916D01*
X025664Y012153D01*
X028794Y015578D02*
X030170Y016954D01*
X030182Y016954D01*
X023546Y020672D02*
X023546Y021471D01*
X020306Y017074D02*
X020247Y017015D01*
X039873Y008097D02*
X040369Y008097D01*
X040999Y007467D01*
X040999Y005893D01*
X040113Y005007D01*
X026077Y005007D01*
D18*
X025664Y012153D03*
X023774Y013137D03*
X023951Y014180D03*
X026471Y016523D03*
X017751Y015873D03*
X016510Y017074D03*
X015625Y017074D03*
D19*
X015684Y017015D01*
X015684Y017192D01*
X015959Y017428D01*
X019912Y017428D01*
X020306Y017074D01*
X020306Y016802D01*
X020703Y016404D01*
X025310Y016404D01*
X025959Y017054D01*
X025959Y019298D01*
X026038Y019377D01*
X026038Y020164D01*
X026546Y020672D01*
X025546Y020672D02*
X025054Y020160D01*
X025054Y019357D01*
X024755Y019078D01*
X024755Y017074D01*
X024503Y016030D02*
X025605Y016030D01*
X025623Y016049D01*
X024503Y016030D02*
X024444Y015971D01*
X024444Y014790D01*
X023951Y014298D01*
X023951Y014180D01*
X024306Y013826D01*
X024306Y011759D01*
X019955Y011759D01*
X019127Y012587D01*
X018814Y012587D01*
X018164Y013000D01*
X018164Y015794D01*
X018458Y016010D01*
X018794Y016010D01*
X017751Y015873D02*
X016550Y017074D01*
X016510Y017074D01*
X018794Y014910D02*
X020065Y014910D01*
X020211Y015056D01*
X020965Y015056D01*
X021491Y015582D01*
X021491Y015420D01*
X023774Y013137D01*
X021491Y012582D02*
X020493Y013580D01*
X020211Y013580D01*
X020085Y013706D01*
X018814Y013687D01*
X017849Y012428D02*
X017298Y012979D01*
X023306Y017074D02*
X023306Y018495D01*
X024050Y019219D01*
X024050Y020156D01*
X024546Y020672D01*
X020873Y023097D02*
X019940Y022164D01*
X016825Y022164D01*
X016786Y021818D01*
X014798Y019613D01*
X014798Y007074D01*
X013672Y005948D01*
X010897Y005948D01*
X009916Y005322D02*
X009916Y006967D01*
X010897Y007948D01*
X010897Y006948D02*
X010909Y006936D01*
X013617Y006936D01*
X014325Y007645D01*
X014325Y019574D01*
X015113Y020361D01*
X015113Y020381D01*
X016007Y021275D01*
X020192Y008385D02*
X021125Y008385D01*
X021865Y007645D01*
X021865Y004105D01*
X021873Y004097D01*
X018873Y004097D02*
X018837Y004097D01*
X017987Y004948D01*
X010290Y004948D01*
X009916Y005322D01*
D20*
X006533Y003238D02*
X006533Y019777D01*
X006600Y019616D01*
X006759Y019457D01*
X006966Y019371D01*
X007190Y019371D01*
X007397Y019457D01*
X007556Y019616D01*
X007642Y019823D01*
X007642Y020835D01*
X007556Y021042D01*
X007397Y021200D01*
X007190Y021286D01*
X006966Y021286D01*
X006759Y021200D01*
X006600Y021042D01*
X006533Y020881D01*
X006533Y023839D01*
X007496Y023840D01*
X007403Y023801D01*
X007169Y023568D01*
X007043Y023262D01*
X007043Y022932D01*
X007169Y022627D01*
X007403Y022394D01*
X007708Y022267D01*
X008038Y022267D01*
X008343Y022394D01*
X008576Y022627D01*
X008703Y022932D01*
X008703Y023262D01*
X008576Y023568D01*
X008343Y023801D01*
X008248Y023840D01*
X014764Y023848D01*
X014735Y023818D01*
X014558Y023641D01*
X014558Y023564D01*
X014380Y023637D01*
X014165Y023637D01*
X013967Y023555D01*
X013815Y023403D01*
X013773Y023301D01*
X013730Y023403D01*
X013579Y023555D01*
X013380Y023637D01*
X013165Y023637D01*
X012967Y023555D01*
X012815Y023403D01*
X012773Y023301D01*
X012730Y023403D01*
X012579Y023555D01*
X012380Y023637D01*
X012165Y023637D01*
X011967Y023555D01*
X011815Y023403D01*
X011773Y023301D01*
X011730Y023403D01*
X011579Y023555D01*
X011380Y023637D01*
X011165Y023637D01*
X010967Y023555D01*
X010815Y023403D01*
X010733Y023205D01*
X010733Y022990D01*
X010815Y022792D01*
X010967Y022640D01*
X011165Y022557D01*
X011380Y022557D01*
X011579Y022640D01*
X011967Y022640D01*
X012165Y022557D01*
X012380Y022557D01*
X012579Y022640D01*
X012967Y022640D01*
X013165Y022557D01*
X013380Y022557D01*
X013579Y022640D01*
X013967Y022640D01*
X014165Y022557D01*
X014380Y022557D01*
X013913Y022090D01*
X013897Y022128D01*
X013746Y022280D01*
X013547Y022362D01*
X013332Y022362D01*
X013134Y022280D01*
X012982Y022128D01*
X012900Y021929D01*
X012900Y021714D01*
X012982Y021516D01*
X013134Y021364D01*
X013332Y021282D01*
X013547Y021282D01*
X013746Y021364D01*
X013897Y021516D01*
X013909Y021543D01*
X013909Y019101D01*
X013897Y019128D01*
X013746Y019280D01*
X013547Y019362D01*
X013332Y019362D01*
X013134Y019280D01*
X012982Y019128D01*
X012900Y018929D01*
X012900Y018714D01*
X012982Y018516D01*
X013134Y018364D01*
X013332Y018282D01*
X013547Y018282D01*
X013746Y018364D01*
X013897Y018516D01*
X013909Y018543D01*
X013909Y016752D01*
X012325Y015168D01*
X011390Y015168D01*
X011355Y015254D01*
X011203Y015406D01*
X011101Y015448D01*
X011203Y015490D01*
X011355Y015642D01*
X011437Y015840D01*
X011437Y016055D01*
X011355Y016254D01*
X011203Y016406D01*
X011005Y016488D01*
X010790Y016488D01*
X010591Y016406D01*
X010439Y016254D01*
X010357Y016055D01*
X010357Y015840D01*
X010439Y015642D01*
X010591Y015490D01*
X010693Y015448D01*
X010591Y015406D01*
X010439Y015254D01*
X010357Y015055D01*
X010357Y014840D01*
X010439Y014642D01*
X010591Y014490D01*
X010790Y014408D01*
X011005Y014408D01*
X011203Y014490D01*
X011355Y014642D01*
X011390Y014728D01*
X012507Y014728D01*
X012636Y014857D01*
X014095Y016316D01*
X014095Y007740D01*
X013522Y007166D01*
X011391Y007166D01*
X011355Y007254D01*
X011203Y007406D01*
X011101Y007448D01*
X011203Y007490D01*
X011355Y007642D01*
X011437Y007840D01*
X011437Y008055D01*
X011355Y008254D01*
X011203Y008406D01*
X011005Y008488D01*
X010790Y008488D01*
X010591Y008406D01*
X010439Y008254D01*
X010357Y008055D01*
X010357Y007840D01*
X010389Y007764D01*
X009686Y007062D01*
X009686Y005227D01*
X009821Y005092D01*
X010195Y004718D01*
X017892Y004718D01*
X017972Y004637D01*
X017765Y004637D01*
X017567Y004555D01*
X017415Y004403D01*
X017373Y004301D01*
X017330Y004403D01*
X017179Y004555D01*
X016980Y004637D01*
X016765Y004637D01*
X016567Y004555D01*
X016415Y004403D01*
X016373Y004301D01*
X016330Y004403D01*
X016179Y004555D01*
X015980Y004637D01*
X015765Y004637D01*
X015567Y004555D01*
X015415Y004403D01*
X015373Y004301D01*
X015330Y004403D01*
X015179Y004555D01*
X014980Y004637D01*
X014765Y004637D01*
X014567Y004555D01*
X014415Y004403D01*
X014333Y004205D01*
X014333Y003990D01*
X014415Y003792D01*
X014567Y003640D01*
X014765Y003557D01*
X014980Y003557D01*
X015179Y003640D01*
X015330Y003792D01*
X015373Y003893D01*
X015415Y003792D01*
X015567Y003640D01*
X015765Y003557D01*
X015980Y003557D01*
X016179Y003640D01*
X016330Y003792D01*
X016373Y003893D01*
X016415Y003792D01*
X016567Y003640D01*
X016765Y003557D01*
X016980Y003557D01*
X017179Y003640D01*
X017330Y003792D01*
X017373Y003893D01*
X017415Y003792D01*
X017567Y003640D01*
X017765Y003557D01*
X017980Y003557D01*
X018179Y003640D01*
X018330Y003792D01*
X018373Y003893D01*
X018415Y003792D01*
X018567Y003640D01*
X018765Y003557D01*
X018980Y003557D01*
X019179Y003640D01*
X019330Y003792D01*
X019373Y003893D01*
X019415Y003792D01*
X019567Y003640D01*
X019765Y003557D01*
X019980Y003557D01*
X020179Y003640D01*
X020330Y003792D01*
X020413Y003990D01*
X020413Y004205D01*
X020330Y004403D01*
X020179Y004555D01*
X019980Y004637D01*
X019765Y004637D01*
X019567Y004555D01*
X019415Y004403D01*
X019373Y004301D01*
X019330Y004403D01*
X019179Y004555D01*
X018980Y004637D01*
X018765Y004637D01*
X018664Y004596D01*
X018217Y005043D01*
X018082Y005178D01*
X010385Y005178D01*
X010146Y005417D01*
X010146Y006871D01*
X010376Y007102D01*
X010357Y007055D01*
X010357Y006840D01*
X010439Y006642D01*
X010591Y006490D01*
X010693Y006448D01*
X010591Y006406D01*
X010439Y006254D01*
X010357Y006055D01*
X010357Y005840D01*
X010439Y005642D01*
X010591Y005490D01*
X010790Y005408D01*
X011005Y005408D01*
X011203Y005490D01*
X011355Y005642D01*
X011386Y005718D01*
X013767Y005718D01*
X014893Y006844D01*
X015028Y006978D01*
X016357Y006978D01*
X016357Y007055D02*
X016357Y006840D01*
X016439Y006642D01*
X016591Y006490D01*
X016693Y006448D01*
X016591Y006406D01*
X016439Y006254D01*
X016357Y006055D01*
X016357Y005840D01*
X016439Y005642D01*
X016591Y005490D01*
X016790Y005408D01*
X017005Y005408D01*
X017203Y005490D01*
X017355Y005642D01*
X017437Y005840D01*
X017437Y006055D01*
X017355Y006254D01*
X017203Y006406D01*
X017101Y006448D01*
X017203Y006490D01*
X017355Y006642D01*
X017437Y006840D01*
X017437Y007055D01*
X017355Y007254D01*
X017203Y007406D01*
X017005Y007488D01*
X016790Y007488D01*
X016591Y007406D01*
X016439Y007254D01*
X016357Y007055D01*
X016366Y007077D02*
X015028Y007077D01*
X015028Y007175D02*
X016407Y007175D01*
X016459Y007274D02*
X015028Y007274D01*
X015028Y007372D02*
X016558Y007372D01*
X016749Y007471D02*
X015028Y007471D01*
X015028Y007569D02*
X019684Y007569D01*
X019652Y007492D02*
X019652Y007277D01*
X019734Y007079D01*
X019886Y006927D01*
X019891Y006925D01*
X019751Y006925D01*
X019652Y006825D01*
X019652Y005944D01*
X019751Y005845D01*
X020632Y005845D01*
X020732Y005944D01*
X020732Y006825D01*
X020632Y006925D01*
X020492Y006925D01*
X020497Y006927D01*
X020649Y007079D01*
X020732Y007277D01*
X020732Y007492D01*
X020649Y007691D01*
X020497Y007843D01*
X020396Y007885D01*
X020497Y007927D01*
X020649Y008079D01*
X020681Y008155D01*
X021029Y008155D01*
X021635Y007549D01*
X021635Y004583D01*
X021567Y004555D01*
X021415Y004403D01*
X021333Y004205D01*
X021333Y003990D01*
X021415Y003792D01*
X021567Y003640D01*
X021765Y003557D01*
X021980Y003557D01*
X022179Y003640D01*
X022330Y003792D01*
X022373Y003893D01*
X022415Y003792D01*
X022567Y003640D01*
X022765Y003557D01*
X022980Y003557D01*
X023179Y003640D01*
X023330Y003792D01*
X023373Y003893D01*
X023415Y003792D01*
X023567Y003640D01*
X023765Y003557D01*
X023980Y003557D01*
X024179Y003640D01*
X024330Y003792D01*
X024373Y003893D01*
X024415Y003792D01*
X024567Y003640D01*
X024765Y003557D01*
X024980Y003557D01*
X025179Y003640D01*
X025330Y003792D01*
X025373Y003893D01*
X025415Y003792D01*
X025567Y003640D01*
X025765Y003557D01*
X025980Y003557D01*
X026179Y003640D01*
X026330Y003792D01*
X026373Y003893D01*
X026415Y003792D01*
X026567Y003640D01*
X026765Y003557D01*
X026980Y003557D01*
X027179Y003640D01*
X027330Y003792D01*
X027373Y003893D01*
X027415Y003792D01*
X027567Y003640D01*
X027765Y003557D01*
X027980Y003557D01*
X028179Y003640D01*
X028330Y003792D01*
X028373Y003893D01*
X028415Y003792D01*
X028567Y003640D01*
X028765Y003557D01*
X028980Y003557D01*
X029179Y003640D01*
X029330Y003792D01*
X029413Y003990D01*
X029413Y004205D01*
X029330Y004403D01*
X029179Y004555D01*
X028980Y004637D01*
X028765Y004637D01*
X028567Y004555D01*
X028415Y004403D01*
X028373Y004301D01*
X028330Y004403D01*
X028179Y004555D01*
X027980Y004637D01*
X027765Y004637D01*
X027567Y004555D01*
X027415Y004403D01*
X027373Y004301D01*
X027330Y004403D01*
X027179Y004555D01*
X026980Y004637D01*
X026765Y004637D01*
X026567Y004555D01*
X026415Y004403D01*
X026373Y004301D01*
X026330Y004403D01*
X026179Y004555D01*
X025980Y004637D01*
X025765Y004637D01*
X025567Y004555D01*
X025415Y004403D01*
X025373Y004301D01*
X025330Y004403D01*
X025179Y004555D01*
X024980Y004637D01*
X024765Y004637D01*
X024567Y004555D01*
X024415Y004403D01*
X024373Y004301D01*
X024330Y004403D01*
X024179Y004555D01*
X023980Y004637D01*
X023765Y004637D01*
X023567Y004555D01*
X023415Y004403D01*
X023373Y004301D01*
X023330Y004403D01*
X023179Y004555D01*
X022980Y004637D01*
X022765Y004637D01*
X022567Y004555D01*
X022415Y004403D01*
X022373Y004301D01*
X022330Y004403D01*
X022179Y004555D01*
X022095Y004590D01*
X022095Y007740D01*
X021960Y007875D01*
X021220Y008615D01*
X020681Y008615D01*
X020649Y008691D01*
X020497Y008843D01*
X020299Y008925D01*
X020084Y008925D01*
X019886Y008843D01*
X019734Y008691D01*
X019652Y008492D01*
X019652Y008277D01*
X019734Y008079D01*
X019886Y007927D01*
X019988Y007885D01*
X019886Y007843D01*
X019734Y007691D01*
X019652Y007492D01*
X019652Y007471D02*
X017045Y007471D01*
X017236Y007372D02*
X019652Y007372D01*
X019653Y007274D02*
X017335Y007274D01*
X017387Y007175D02*
X019694Y007175D01*
X019736Y007077D02*
X017428Y007077D01*
X017437Y006978D02*
X019834Y006978D01*
X019706Y006880D02*
X017437Y006880D01*
X017413Y006781D02*
X019652Y006781D01*
X019652Y006683D02*
X017372Y006683D01*
X017297Y006584D02*
X019652Y006584D01*
X019652Y006486D02*
X017193Y006486D01*
X017221Y006387D02*
X019652Y006387D01*
X019652Y006289D02*
X017320Y006289D01*
X017381Y006190D02*
X019652Y006190D01*
X019652Y006092D02*
X017422Y006092D01*
X017437Y005993D02*
X019652Y005993D01*
X019701Y005895D02*
X017437Y005895D01*
X017419Y005796D02*
X021635Y005796D01*
X021635Y005698D02*
X017378Y005698D01*
X017312Y005599D02*
X021635Y005599D01*
X021635Y005501D02*
X017214Y005501D01*
X016580Y005501D02*
X011214Y005501D01*
X011312Y005599D02*
X016482Y005599D01*
X016416Y005698D02*
X011378Y005698D01*
X011386Y006178D02*
X011355Y006254D01*
X011203Y006406D01*
X011101Y006448D01*
X011203Y006490D01*
X011355Y006642D01*
X011381Y006706D01*
X013712Y006706D01*
X013847Y006841D01*
X014555Y007549D01*
X014555Y019478D01*
X014568Y019491D01*
X014568Y007169D01*
X013577Y006178D01*
X011386Y006178D01*
X011381Y006190D02*
X013589Y006190D01*
X013688Y006289D02*
X011320Y006289D01*
X011221Y006387D02*
X013786Y006387D01*
X013885Y006486D02*
X011193Y006486D01*
X011297Y006584D02*
X013983Y006584D01*
X014082Y006683D02*
X011372Y006683D01*
X011387Y007175D02*
X013531Y007175D01*
X013629Y007274D02*
X011335Y007274D01*
X011236Y007372D02*
X013728Y007372D01*
X013826Y007471D02*
X011157Y007471D01*
X011282Y007569D02*
X013925Y007569D01*
X014023Y007668D02*
X011366Y007668D01*
X011406Y007766D02*
X014095Y007766D01*
X014095Y007865D02*
X011437Y007865D01*
X011437Y007963D02*
X014095Y007963D01*
X014095Y008062D02*
X011434Y008062D01*
X011394Y008160D02*
X014095Y008160D01*
X014095Y008259D02*
X011350Y008259D01*
X011251Y008357D02*
X014095Y008357D01*
X014095Y008456D02*
X011082Y008456D01*
X010713Y008456D02*
X006533Y008456D01*
X006533Y008554D02*
X014095Y008554D01*
X014095Y008653D02*
X006533Y008653D01*
X006533Y008751D02*
X014095Y008751D01*
X014095Y008850D02*
X006533Y008850D01*
X006533Y008948D02*
X014095Y008948D01*
X014095Y009047D02*
X006533Y009047D01*
X006533Y009145D02*
X014095Y009145D01*
X014095Y009244D02*
X006533Y009244D01*
X006533Y009342D02*
X014095Y009342D01*
X014095Y009441D02*
X006533Y009441D01*
X006533Y009539D02*
X014095Y009539D01*
X014095Y009638D02*
X006533Y009638D01*
X006533Y009736D02*
X014095Y009736D01*
X014095Y009835D02*
X006533Y009835D01*
X006533Y009933D02*
X014095Y009933D01*
X014095Y010032D02*
X006533Y010032D01*
X006533Y010130D02*
X014095Y010130D01*
X014095Y010229D02*
X006533Y010229D01*
X006533Y010327D02*
X014095Y010327D01*
X014095Y010426D02*
X006533Y010426D01*
X006533Y010524D02*
X014095Y010524D01*
X014095Y010623D02*
X006533Y010623D01*
X006533Y010721D02*
X014095Y010721D01*
X014095Y010820D02*
X006533Y010820D01*
X006533Y010918D02*
X014095Y010918D01*
X014095Y011017D02*
X006533Y011017D01*
X006533Y011115D02*
X014095Y011115D01*
X014095Y011214D02*
X006533Y011214D01*
X006533Y011312D02*
X014095Y011312D01*
X014095Y011411D02*
X006533Y011411D01*
X006533Y011509D02*
X014095Y011509D01*
X014095Y011608D02*
X006533Y011608D01*
X006533Y011706D02*
X014095Y011706D01*
X014095Y011805D02*
X006533Y011805D01*
X006533Y011903D02*
X014095Y011903D01*
X014095Y012002D02*
X006533Y012002D01*
X006533Y012100D02*
X014095Y012100D01*
X014095Y012199D02*
X006533Y012199D01*
X006533Y012297D02*
X014095Y012297D01*
X014095Y012396D02*
X006533Y012396D01*
X006533Y012494D02*
X014095Y012494D01*
X014095Y012593D02*
X006533Y012593D01*
X006533Y012691D02*
X014095Y012691D01*
X014095Y012790D02*
X006533Y012790D01*
X006533Y012888D02*
X014095Y012888D01*
X014095Y012987D02*
X006533Y012987D01*
X006533Y013085D02*
X014095Y013085D01*
X014095Y013184D02*
X006533Y013184D01*
X006533Y013282D02*
X014095Y013282D01*
X014095Y013381D02*
X006533Y013381D01*
X006533Y013479D02*
X014095Y013479D01*
X014095Y013578D02*
X006533Y013578D01*
X006533Y013676D02*
X014095Y013676D01*
X014095Y013775D02*
X006533Y013775D01*
X006533Y013873D02*
X014095Y013873D01*
X014095Y013972D02*
X006533Y013972D01*
X006533Y014070D02*
X014095Y014070D01*
X014095Y014169D02*
X006533Y014169D01*
X006533Y014267D02*
X014095Y014267D01*
X014095Y014366D02*
X006533Y014366D01*
X006533Y014464D02*
X010653Y014464D01*
X010518Y014563D02*
X006533Y014563D01*
X006533Y014661D02*
X010431Y014661D01*
X010390Y014760D02*
X006533Y014760D01*
X006533Y014858D02*
X010357Y014858D01*
X010357Y014957D02*
X006533Y014957D01*
X006533Y015055D02*
X010357Y015055D01*
X010398Y015154D02*
X006533Y015154D01*
X006533Y015252D02*
X010439Y015252D01*
X010537Y015351D02*
X006533Y015351D01*
X006533Y015449D02*
X010689Y015449D01*
X010533Y015548D02*
X006533Y015548D01*
X006533Y015646D02*
X010437Y015646D01*
X010397Y015745D02*
X006533Y015745D01*
X006533Y015843D02*
X010357Y015843D01*
X010357Y015942D02*
X006533Y015942D01*
X006533Y016040D02*
X010357Y016040D01*
X010392Y016139D02*
X006533Y016139D01*
X006533Y016237D02*
X010433Y016237D01*
X010522Y016336D02*
X006533Y016336D01*
X006533Y016434D02*
X010661Y016434D01*
X011133Y016434D02*
X013591Y016434D01*
X013493Y016336D02*
X011273Y016336D01*
X011362Y016237D02*
X013394Y016237D01*
X013296Y016139D02*
X011402Y016139D01*
X011437Y016040D02*
X013197Y016040D01*
X013099Y015942D02*
X011437Y015942D01*
X011437Y015843D02*
X013000Y015843D01*
X012902Y015745D02*
X011398Y015745D01*
X011357Y015646D02*
X012803Y015646D01*
X012705Y015548D02*
X011261Y015548D01*
X011105Y015449D02*
X012606Y015449D01*
X012508Y015351D02*
X011258Y015351D01*
X011355Y015252D02*
X012409Y015252D01*
X012416Y014948D02*
X014129Y016660D01*
X014129Y021995D01*
X014778Y022645D01*
X014778Y023550D01*
X014955Y023727D01*
X021243Y023727D01*
X021873Y023097D01*
X022373Y022893D02*
X022415Y022792D01*
X022567Y022640D01*
X022765Y022557D01*
X022980Y022557D01*
X023179Y022640D01*
X023567Y022640D01*
X023765Y022557D01*
X023980Y022557D01*
X024179Y022640D01*
X024567Y022640D01*
X024765Y022557D01*
X024980Y022557D01*
X025179Y022640D01*
X025567Y022640D01*
X025765Y022557D01*
X025980Y022557D01*
X026179Y022640D01*
X026567Y022640D01*
X026765Y022557D01*
X026980Y022557D01*
X027179Y022640D01*
X028567Y022640D01*
X028765Y022557D01*
X028980Y022557D01*
X029179Y022640D01*
X029567Y022640D01*
X029765Y022557D01*
X029980Y022557D01*
X030179Y022640D01*
X030567Y022640D01*
X030765Y022557D01*
X030980Y022557D01*
X031179Y022640D01*
X031567Y022640D01*
X031765Y022557D01*
X031980Y022557D01*
X032179Y022640D01*
X032567Y022640D01*
X032765Y022557D01*
X032980Y022557D01*
X033179Y022640D01*
X033567Y022640D01*
X033765Y022557D01*
X033980Y022557D01*
X034179Y022640D01*
X034567Y022640D01*
X034765Y022557D01*
X034980Y022557D01*
X035179Y022640D01*
X035567Y022640D01*
X035765Y022557D01*
X035980Y022557D01*
X036179Y022640D01*
X036664Y022640D01*
X036669Y022627D02*
X036903Y022394D01*
X037208Y022267D01*
X037538Y022267D01*
X037843Y022394D01*
X038076Y022627D01*
X038203Y022932D01*
X038203Y023262D01*
X038076Y023568D01*
X037843Y023801D01*
X037670Y023873D01*
X041747Y023877D01*
X041747Y003238D01*
X006533Y003238D01*
X006533Y003334D02*
X007047Y003334D01*
X006903Y003394D02*
X007208Y003267D01*
X007538Y003267D01*
X007843Y003394D01*
X008076Y003627D01*
X008203Y003932D01*
X008203Y004262D01*
X008076Y004568D01*
X007843Y004801D01*
X007543Y004925D01*
X007653Y005035D01*
X007735Y005234D01*
X007735Y005448D01*
X007653Y005647D01*
X007501Y005799D01*
X007303Y005881D01*
X007088Y005881D01*
X006889Y005799D01*
X006738Y005647D01*
X006655Y005448D01*
X006655Y005234D01*
X006738Y005035D01*
X006889Y004883D01*
X006995Y004839D01*
X006903Y004801D01*
X006669Y004568D01*
X006543Y004262D01*
X006543Y003932D01*
X006669Y003627D01*
X006903Y003394D01*
X006864Y003432D02*
X006533Y003432D01*
X006533Y003531D02*
X006766Y003531D01*
X006668Y003629D02*
X006533Y003629D01*
X006533Y003728D02*
X006627Y003728D01*
X006587Y003826D02*
X006533Y003826D01*
X006533Y003925D02*
X006546Y003925D01*
X006533Y004023D02*
X006543Y004023D01*
X006533Y004122D02*
X006543Y004122D01*
X006533Y004220D02*
X006543Y004220D01*
X006533Y004319D02*
X006566Y004319D01*
X006533Y004417D02*
X006607Y004417D01*
X006648Y004516D02*
X006533Y004516D01*
X006533Y004614D02*
X006716Y004614D01*
X006814Y004713D02*
X006533Y004713D01*
X006533Y004811D02*
X006928Y004811D01*
X006863Y004910D02*
X006533Y004910D01*
X006533Y005008D02*
X006764Y005008D01*
X006708Y005107D02*
X006533Y005107D01*
X006533Y005205D02*
X006667Y005205D01*
X006655Y005304D02*
X006533Y005304D01*
X006533Y005402D02*
X006655Y005402D01*
X006677Y005501D02*
X006533Y005501D01*
X006533Y005599D02*
X006718Y005599D01*
X006788Y005698D02*
X006533Y005698D01*
X006533Y005796D02*
X006887Y005796D01*
X006533Y005895D02*
X009686Y005895D01*
X009686Y005993D02*
X006533Y005993D01*
X006533Y006092D02*
X009686Y006092D01*
X009686Y006190D02*
X006533Y006190D01*
X006533Y006289D02*
X009686Y006289D01*
X009686Y006387D02*
X006533Y006387D01*
X006533Y006486D02*
X009686Y006486D01*
X009686Y006584D02*
X006533Y006584D01*
X006533Y006683D02*
X009686Y006683D01*
X009686Y006781D02*
X006533Y006781D01*
X006533Y006880D02*
X009686Y006880D01*
X009686Y006978D02*
X006533Y006978D01*
X006533Y007077D02*
X009701Y007077D01*
X009799Y007175D02*
X006533Y007175D01*
X006533Y007274D02*
X009898Y007274D01*
X009996Y007372D02*
X009110Y007372D01*
X009083Y007361D02*
X009281Y007443D01*
X009433Y007595D01*
X009515Y007794D01*
X009515Y008008D01*
X009433Y008207D01*
X009281Y008359D01*
X009083Y008441D01*
X008868Y008441D01*
X008669Y008359D01*
X008518Y008207D01*
X008435Y008008D01*
X008435Y007794D01*
X008518Y007595D01*
X008669Y007443D01*
X008868Y007361D01*
X009083Y007361D01*
X008841Y007372D02*
X007330Y007372D01*
X007303Y007361D02*
X007501Y007443D01*
X007653Y007595D01*
X007735Y007794D01*
X007735Y008008D01*
X007653Y008207D01*
X007501Y008359D01*
X007303Y008441D01*
X007088Y008441D01*
X006889Y008359D01*
X006738Y008207D01*
X006655Y008008D01*
X006655Y007794D01*
X006738Y007595D01*
X006889Y007443D01*
X007088Y007361D01*
X007303Y007361D01*
X007061Y007372D02*
X006533Y007372D01*
X006533Y007471D02*
X006862Y007471D01*
X006763Y007569D02*
X006533Y007569D01*
X006533Y007668D02*
X006707Y007668D01*
X006667Y007766D02*
X006533Y007766D01*
X006533Y007865D02*
X006655Y007865D01*
X006655Y007963D02*
X006533Y007963D01*
X006533Y008062D02*
X006677Y008062D01*
X006718Y008160D02*
X006533Y008160D01*
X006533Y008259D02*
X006789Y008259D01*
X006888Y008357D02*
X006533Y008357D01*
X007503Y008357D02*
X008668Y008357D01*
X008569Y008259D02*
X007601Y008259D01*
X007672Y008160D02*
X008498Y008160D01*
X008457Y008062D02*
X007713Y008062D01*
X007735Y007963D02*
X008435Y007963D01*
X008435Y007865D02*
X007735Y007865D01*
X007724Y007766D02*
X008447Y007766D01*
X008487Y007668D02*
X007683Y007668D01*
X007627Y007569D02*
X008543Y007569D01*
X008642Y007471D02*
X007529Y007471D01*
X009309Y007471D02*
X010095Y007471D01*
X010193Y007569D02*
X009407Y007569D01*
X009463Y007668D02*
X010292Y007668D01*
X010388Y007766D02*
X009504Y007766D01*
X009515Y007865D02*
X010357Y007865D01*
X010357Y007963D02*
X009515Y007963D01*
X009493Y008062D02*
X010360Y008062D01*
X010401Y008160D02*
X009452Y008160D01*
X009381Y008259D02*
X010445Y008259D01*
X010543Y008357D02*
X009283Y008357D01*
X010351Y007077D02*
X010366Y007077D01*
X010357Y006978D02*
X010253Y006978D01*
X010154Y006880D02*
X010357Y006880D01*
X010382Y006781D02*
X010146Y006781D01*
X010146Y006683D02*
X010422Y006683D01*
X010497Y006584D02*
X010146Y006584D01*
X010146Y006486D02*
X010601Y006486D01*
X010573Y006387D02*
X010146Y006387D01*
X010146Y006289D02*
X010474Y006289D01*
X010413Y006190D02*
X010146Y006190D01*
X010146Y006092D02*
X010372Y006092D01*
X010357Y005993D02*
X010146Y005993D01*
X010146Y005895D02*
X010357Y005895D01*
X010375Y005796D02*
X010146Y005796D01*
X010146Y005698D02*
X010416Y005698D01*
X010482Y005599D02*
X010146Y005599D01*
X010146Y005501D02*
X010580Y005501D01*
X010358Y005205D02*
X021635Y005205D01*
X021635Y005107D02*
X018153Y005107D01*
X018252Y005008D02*
X021635Y005008D01*
X021635Y004910D02*
X018350Y004910D01*
X018449Y004811D02*
X021635Y004811D01*
X021635Y004713D02*
X018547Y004713D01*
X018646Y004614D02*
X018710Y004614D01*
X019036Y004614D02*
X019710Y004614D01*
X019527Y004516D02*
X019218Y004516D01*
X019316Y004417D02*
X019429Y004417D01*
X019380Y004319D02*
X019365Y004319D01*
X019345Y003826D02*
X019400Y003826D01*
X019479Y003728D02*
X019267Y003728D01*
X019154Y003629D02*
X019592Y003629D01*
X020154Y003629D02*
X021592Y003629D01*
X021479Y003728D02*
X020267Y003728D01*
X020345Y003826D02*
X021400Y003826D01*
X021360Y003925D02*
X020386Y003925D01*
X020413Y004023D02*
X021333Y004023D01*
X021333Y004122D02*
X020413Y004122D01*
X020406Y004220D02*
X021339Y004220D01*
X021380Y004319D02*
X020365Y004319D01*
X020316Y004417D02*
X021429Y004417D01*
X021527Y004516D02*
X020218Y004516D01*
X020036Y004614D02*
X021635Y004614D01*
X022095Y004614D02*
X022710Y004614D01*
X022527Y004516D02*
X022218Y004516D01*
X022316Y004417D02*
X022429Y004417D01*
X022380Y004319D02*
X022365Y004319D01*
X022095Y004713D02*
X039314Y004713D01*
X039358Y004757D02*
X039169Y004568D01*
X039043Y004262D01*
X039043Y003932D01*
X039169Y003627D01*
X039403Y003394D01*
X039708Y003267D01*
X040038Y003267D01*
X040343Y003394D01*
X040576Y003627D01*
X040703Y003932D01*
X040703Y004262D01*
X040576Y004568D01*
X040343Y004801D01*
X040285Y004825D01*
X040325Y004865D01*
X041211Y005751D01*
X041249Y005843D01*
X041249Y007517D01*
X041211Y007609D01*
X041140Y007679D01*
X040510Y008309D01*
X040418Y008347D01*
X040386Y008347D01*
X040364Y008370D01*
X040460Y008370D01*
X040657Y008566D01*
X040786Y008695D01*
X040786Y011496D01*
X040410Y011871D01*
X040413Y011874D01*
X040413Y012321D01*
X040136Y012597D01*
X040413Y012874D01*
X040413Y013321D01*
X040136Y013597D01*
X040413Y013874D01*
X040413Y014321D01*
X040136Y014597D01*
X040413Y014874D01*
X040413Y015321D01*
X040136Y015597D01*
X040413Y015874D01*
X040413Y016321D01*
X040136Y016597D01*
X040413Y016874D01*
X040413Y017321D01*
X040136Y017597D01*
X040413Y017874D01*
X040413Y018321D01*
X040136Y018597D01*
X040413Y018874D01*
X040413Y019321D01*
X040136Y019597D01*
X040413Y019874D01*
X040413Y020321D01*
X040136Y020597D01*
X040413Y020874D01*
X040413Y021321D01*
X040136Y021597D01*
X040413Y021874D01*
X040413Y022321D01*
X040119Y022615D01*
X040179Y022640D01*
X041747Y022640D01*
X041747Y022738D02*
X040277Y022738D01*
X040330Y022792D02*
X040179Y022640D01*
X040192Y022541D02*
X041747Y022541D01*
X041747Y022443D02*
X040291Y022443D01*
X040389Y022344D02*
X041747Y022344D01*
X041747Y022246D02*
X040413Y022246D01*
X040413Y022147D02*
X041747Y022147D01*
X041747Y022049D02*
X040413Y022049D01*
X040413Y021950D02*
X041747Y021950D01*
X041747Y021852D02*
X040391Y021852D01*
X040292Y021753D02*
X041747Y021753D01*
X041747Y021655D02*
X040194Y021655D01*
X040177Y021556D02*
X041747Y021556D01*
X041747Y021458D02*
X040276Y021458D01*
X040374Y021359D02*
X041747Y021359D01*
X041747Y021261D02*
X040413Y021261D01*
X040413Y021162D02*
X041747Y021162D01*
X041747Y021064D02*
X040413Y021064D01*
X040413Y020965D02*
X041747Y020965D01*
X041747Y020867D02*
X040406Y020867D01*
X040307Y020768D02*
X041747Y020768D01*
X041747Y020670D02*
X040209Y020670D01*
X040162Y020571D02*
X041747Y020571D01*
X041747Y020473D02*
X040261Y020473D01*
X040359Y020374D02*
X041747Y020374D01*
X041747Y020276D02*
X040413Y020276D01*
X040413Y020177D02*
X041747Y020177D01*
X041747Y020079D02*
X040413Y020079D01*
X040413Y019980D02*
X041747Y019980D01*
X041747Y019882D02*
X040413Y019882D01*
X040322Y019783D02*
X041747Y019783D01*
X041747Y019685D02*
X040224Y019685D01*
X040147Y019586D02*
X041747Y019586D01*
X041747Y019488D02*
X040246Y019488D01*
X040344Y019389D02*
X041747Y019389D01*
X041747Y019291D02*
X040413Y019291D01*
X040413Y019192D02*
X041747Y019192D01*
X041747Y019094D02*
X040413Y019094D01*
X040413Y018995D02*
X041747Y018995D01*
X041747Y018897D02*
X040413Y018897D01*
X040337Y018798D02*
X041747Y018798D01*
X041747Y018700D02*
X040239Y018700D01*
X040140Y018601D02*
X041747Y018601D01*
X041747Y018503D02*
X040231Y018503D01*
X040329Y018404D02*
X041747Y018404D01*
X041747Y018306D02*
X040413Y018306D01*
X040413Y018207D02*
X041747Y018207D01*
X041747Y018109D02*
X040413Y018109D01*
X040413Y018010D02*
X041747Y018010D01*
X041747Y017912D02*
X040413Y017912D01*
X040352Y017813D02*
X041747Y017813D01*
X041747Y017715D02*
X040254Y017715D01*
X040155Y017616D02*
X041747Y017616D01*
X041747Y017518D02*
X040216Y017518D01*
X040314Y017419D02*
X041747Y017419D01*
X041747Y017321D02*
X040413Y017321D01*
X040413Y017222D02*
X041747Y017222D01*
X041747Y017124D02*
X040413Y017124D01*
X040413Y017025D02*
X041747Y017025D01*
X041747Y016927D02*
X040413Y016927D01*
X040367Y016828D02*
X041747Y016828D01*
X041747Y016730D02*
X040269Y016730D01*
X040170Y016631D02*
X041747Y016631D01*
X041747Y016533D02*
X040201Y016533D01*
X040299Y016434D02*
X041747Y016434D01*
X041747Y016336D02*
X040398Y016336D01*
X040413Y016237D02*
X041747Y016237D01*
X041747Y016139D02*
X040413Y016139D01*
X040413Y016040D02*
X041747Y016040D01*
X041747Y015942D02*
X040413Y015942D01*
X040382Y015843D02*
X041747Y015843D01*
X041747Y015745D02*
X040284Y015745D01*
X040185Y015646D02*
X041747Y015646D01*
X041747Y015548D02*
X040186Y015548D01*
X040284Y015449D02*
X041747Y015449D01*
X041747Y015351D02*
X040383Y015351D01*
X040413Y015252D02*
X041747Y015252D01*
X041747Y015154D02*
X040413Y015154D01*
X040413Y015055D02*
X041747Y015055D01*
X041747Y014957D02*
X040413Y014957D01*
X040397Y014858D02*
X041747Y014858D01*
X041747Y014760D02*
X040299Y014760D01*
X040200Y014661D02*
X041747Y014661D01*
X041747Y014563D02*
X040171Y014563D01*
X040269Y014464D02*
X041747Y014464D01*
X041747Y014366D02*
X040368Y014366D01*
X040413Y014267D02*
X041747Y014267D01*
X041747Y014169D02*
X040413Y014169D01*
X040413Y014070D02*
X041747Y014070D01*
X041747Y013972D02*
X040413Y013972D01*
X040412Y013873D02*
X041747Y013873D01*
X041747Y013775D02*
X040314Y013775D01*
X040215Y013676D02*
X041747Y013676D01*
X041747Y013578D02*
X040156Y013578D01*
X040254Y013479D02*
X041747Y013479D01*
X041747Y013381D02*
X040353Y013381D01*
X040413Y013282D02*
X041747Y013282D01*
X041747Y013184D02*
X040413Y013184D01*
X040413Y013085D02*
X041747Y013085D01*
X041747Y012987D02*
X040413Y012987D01*
X040413Y012888D02*
X041747Y012888D01*
X041747Y012790D02*
X040329Y012790D01*
X040230Y012691D02*
X041747Y012691D01*
X041747Y012593D02*
X040141Y012593D01*
X040239Y012494D02*
X041747Y012494D01*
X041747Y012396D02*
X040338Y012396D01*
X040413Y012297D02*
X041747Y012297D01*
X041747Y012199D02*
X040413Y012199D01*
X040413Y012100D02*
X041747Y012100D01*
X041747Y012002D02*
X040413Y012002D01*
X040413Y011903D02*
X041747Y011903D01*
X041747Y011805D02*
X040476Y011805D01*
X040575Y011706D02*
X041747Y011706D01*
X041747Y011608D02*
X040673Y011608D01*
X040772Y011509D02*
X041747Y011509D01*
X041747Y011411D02*
X040786Y011411D01*
X040786Y011312D02*
X041747Y011312D01*
X041747Y011214D02*
X040786Y011214D01*
X040786Y011115D02*
X041747Y011115D01*
X041747Y011017D02*
X040786Y011017D01*
X040786Y010918D02*
X041747Y010918D01*
X041747Y010820D02*
X040786Y010820D01*
X040786Y010721D02*
X041747Y010721D01*
X041747Y010623D02*
X040786Y010623D01*
X040786Y010524D02*
X041747Y010524D01*
X041747Y010426D02*
X040786Y010426D01*
X040786Y010327D02*
X041747Y010327D01*
X041747Y010229D02*
X040786Y010229D01*
X040786Y010130D02*
X041747Y010130D01*
X041747Y010032D02*
X040786Y010032D01*
X040786Y009933D02*
X041747Y009933D01*
X041747Y009835D02*
X040786Y009835D01*
X040786Y009736D02*
X041747Y009736D01*
X041747Y009638D02*
X040786Y009638D01*
X040786Y009539D02*
X041747Y009539D01*
X041747Y009441D02*
X040786Y009441D01*
X040786Y009342D02*
X041747Y009342D01*
X041747Y009244D02*
X040786Y009244D01*
X040786Y009145D02*
X041747Y009145D01*
X041747Y009047D02*
X040786Y009047D01*
X040786Y008948D02*
X041747Y008948D01*
X041747Y008850D02*
X040786Y008850D01*
X040786Y008751D02*
X041747Y008751D01*
X041747Y008653D02*
X040743Y008653D01*
X040645Y008554D02*
X041747Y008554D01*
X041747Y008456D02*
X040546Y008456D01*
X040376Y008357D02*
X041747Y008357D01*
X041747Y008259D02*
X040561Y008259D01*
X040659Y008160D02*
X041747Y008160D01*
X041747Y008062D02*
X040758Y008062D01*
X040856Y007963D02*
X041747Y007963D01*
X041747Y007865D02*
X040955Y007865D01*
X041053Y007766D02*
X041747Y007766D01*
X041747Y007668D02*
X041152Y007668D01*
X041227Y007569D02*
X041747Y007569D01*
X041747Y007471D02*
X041249Y007471D01*
X041249Y007372D02*
X041747Y007372D01*
X041747Y007274D02*
X041249Y007274D01*
X041249Y007175D02*
X041747Y007175D01*
X041747Y007077D02*
X041249Y007077D01*
X041249Y006978D02*
X041747Y006978D01*
X041747Y006880D02*
X041249Y006880D01*
X041249Y006781D02*
X041747Y006781D01*
X041747Y006683D02*
X041249Y006683D01*
X041249Y006584D02*
X041747Y006584D01*
X041747Y006486D02*
X041249Y006486D01*
X041249Y006387D02*
X041747Y006387D01*
X041747Y006289D02*
X041249Y006289D01*
X041249Y006190D02*
X041747Y006190D01*
X041747Y006092D02*
X041249Y006092D01*
X041249Y005993D02*
X041747Y005993D01*
X041747Y005895D02*
X041249Y005895D01*
X041229Y005796D02*
X041747Y005796D01*
X041747Y005698D02*
X041157Y005698D01*
X041059Y005599D02*
X041747Y005599D01*
X041747Y005501D02*
X040960Y005501D01*
X040862Y005402D02*
X041747Y005402D01*
X041747Y005304D02*
X040763Y005304D01*
X040665Y005205D02*
X041747Y005205D01*
X041747Y005107D02*
X040566Y005107D01*
X040468Y005008D02*
X041747Y005008D01*
X041747Y004910D02*
X040369Y004910D01*
X040318Y004811D02*
X041747Y004811D01*
X041747Y004713D02*
X040431Y004713D01*
X040529Y004614D02*
X041747Y004614D01*
X041747Y004516D02*
X040598Y004516D01*
X040638Y004417D02*
X041747Y004417D01*
X041747Y004319D02*
X040679Y004319D01*
X040703Y004220D02*
X041747Y004220D01*
X041747Y004122D02*
X040703Y004122D01*
X040703Y004023D02*
X041747Y004023D01*
X041747Y003925D02*
X040700Y003925D01*
X040659Y003826D02*
X041747Y003826D01*
X041747Y003728D02*
X040618Y003728D01*
X040577Y003629D02*
X041747Y003629D01*
X041747Y003531D02*
X040480Y003531D01*
X040381Y003432D02*
X041747Y003432D01*
X041747Y003334D02*
X040198Y003334D01*
X039547Y003334D02*
X007698Y003334D01*
X007881Y003432D02*
X039364Y003432D01*
X039266Y003531D02*
X007980Y003531D01*
X008077Y003629D02*
X014592Y003629D01*
X014479Y003728D02*
X008118Y003728D01*
X008159Y003826D02*
X014400Y003826D01*
X014360Y003925D02*
X008200Y003925D01*
X008203Y004023D02*
X014333Y004023D01*
X014333Y004122D02*
X008203Y004122D01*
X008203Y004220D02*
X014339Y004220D01*
X014380Y004319D02*
X008179Y004319D01*
X008138Y004417D02*
X014429Y004417D01*
X014527Y004516D02*
X008098Y004516D01*
X008029Y004614D02*
X014710Y004614D01*
X015036Y004614D02*
X015710Y004614D01*
X015527Y004516D02*
X015218Y004516D01*
X015316Y004417D02*
X015429Y004417D01*
X015380Y004319D02*
X015365Y004319D01*
X016036Y004614D02*
X016710Y004614D01*
X016527Y004516D02*
X016218Y004516D01*
X016316Y004417D02*
X016429Y004417D01*
X016380Y004319D02*
X016365Y004319D01*
X016345Y003826D02*
X016400Y003826D01*
X016479Y003728D02*
X016267Y003728D01*
X016154Y003629D02*
X016592Y003629D01*
X017154Y003629D02*
X017592Y003629D01*
X017479Y003728D02*
X017267Y003728D01*
X017345Y003826D02*
X017400Y003826D01*
X017380Y004319D02*
X017365Y004319D01*
X017316Y004417D02*
X017429Y004417D01*
X017527Y004516D02*
X017218Y004516D01*
X017036Y004614D02*
X017710Y004614D01*
X017897Y004713D02*
X007931Y004713D01*
X007818Y004811D02*
X008843Y004811D01*
X008868Y004801D02*
X009083Y004801D01*
X009281Y004883D01*
X009433Y005035D01*
X009515Y005234D01*
X009515Y005448D01*
X009433Y005647D01*
X009281Y005799D01*
X009083Y005881D01*
X008868Y005881D01*
X008669Y005799D01*
X008518Y005647D01*
X008435Y005448D01*
X008435Y005234D01*
X008518Y005035D01*
X008669Y004883D01*
X008868Y004801D01*
X009108Y004811D02*
X010101Y004811D01*
X010003Y004910D02*
X009308Y004910D01*
X009406Y005008D02*
X009904Y005008D01*
X009806Y005107D02*
X009463Y005107D01*
X009504Y005205D02*
X009707Y005205D01*
X009686Y005304D02*
X009515Y005304D01*
X009515Y005402D02*
X009686Y005402D01*
X009686Y005501D02*
X009494Y005501D01*
X009453Y005599D02*
X009686Y005599D01*
X009686Y005698D02*
X009382Y005698D01*
X009284Y005796D02*
X009686Y005796D01*
X010161Y005402D02*
X021635Y005402D01*
X021635Y005304D02*
X010259Y005304D01*
X008643Y004910D02*
X007580Y004910D01*
X007626Y005008D02*
X008544Y005008D01*
X008488Y005107D02*
X007683Y005107D01*
X007724Y005205D02*
X008447Y005205D01*
X008435Y005304D02*
X007735Y005304D01*
X007735Y005402D02*
X008435Y005402D01*
X008457Y005501D02*
X007714Y005501D01*
X007673Y005599D02*
X008498Y005599D01*
X008568Y005698D02*
X007602Y005698D01*
X007504Y005796D02*
X008667Y005796D01*
X013846Y005796D02*
X016375Y005796D01*
X016357Y005895D02*
X013944Y005895D01*
X014043Y005993D02*
X016357Y005993D01*
X016372Y006092D02*
X014141Y006092D01*
X014240Y006190D02*
X016413Y006190D01*
X016474Y006289D02*
X014338Y006289D01*
X014437Y006387D02*
X016573Y006387D01*
X016601Y006486D02*
X014535Y006486D01*
X014634Y006584D02*
X016497Y006584D01*
X016422Y006683D02*
X014732Y006683D01*
X014831Y006781D02*
X016382Y006781D01*
X016357Y006880D02*
X014929Y006880D01*
X015028Y006978D02*
X015028Y015683D01*
X017048Y013663D01*
X017048Y012930D01*
X017086Y012838D01*
X017156Y012767D01*
X017205Y012747D01*
X017511Y012441D01*
X017511Y012361D01*
X017562Y012236D01*
X017657Y012141D01*
X017782Y012090D01*
X017916Y012090D01*
X018041Y012141D01*
X018136Y012236D01*
X018188Y012361D01*
X018188Y012495D01*
X018136Y012620D01*
X018041Y012715D01*
X017916Y012767D01*
X017836Y012767D01*
X017548Y013055D01*
X017548Y013816D01*
X017510Y013908D01*
X017009Y014409D01*
X017203Y014490D01*
X017355Y014642D01*
X017437Y014840D01*
X017437Y015055D01*
X017355Y015254D01*
X017203Y015406D01*
X017101Y015448D01*
X017203Y015490D01*
X017355Y015642D01*
X017393Y015733D01*
X017393Y015614D01*
X017492Y015515D01*
X017934Y015515D01*
X017934Y013067D01*
X017919Y013043D01*
X017934Y012975D01*
X017934Y012905D01*
X017954Y012885D01*
X017960Y012857D01*
X018019Y012820D01*
X018069Y012770D01*
X018097Y012770D01*
X018244Y012677D01*
X018244Y012473D01*
X018330Y012264D01*
X018491Y012104D01*
X018700Y012017D01*
X018927Y012017D01*
X019137Y012104D01*
X019211Y012178D01*
X019725Y011664D01*
X019860Y011529D01*
X024401Y011529D01*
X024536Y011664D01*
X024536Y013921D01*
X024401Y014056D01*
X024310Y014147D01*
X024310Y014331D01*
X024674Y014695D01*
X024674Y015800D01*
X025584Y015800D01*
X025603Y015795D01*
X025651Y015800D01*
X025700Y015800D01*
X025712Y015812D01*
X026343Y016164D01*
X026730Y016164D01*
X026829Y016264D01*
X026829Y016781D01*
X026732Y016879D01*
X026798Y019112D01*
X026800Y019117D01*
X026800Y019162D01*
X026800Y019163D01*
X027046Y019409D01*
X027322Y019132D01*
X027770Y019132D01*
X028086Y019449D01*
X028086Y019859D01*
X028632Y020405D01*
X028670Y020496D01*
X028670Y021297D01*
X028632Y021389D01*
X028562Y021459D01*
X028286Y021735D01*
X028194Y021773D01*
X023547Y021773D01*
X023455Y021735D01*
X023385Y021664D01*
X023334Y021613D01*
X023296Y021521D01*
X023296Y021186D01*
X023046Y020936D01*
X022770Y021212D01*
X022322Y021212D01*
X022046Y020936D01*
X021770Y021212D01*
X021322Y021212D01*
X021046Y020936D01*
X020770Y021212D01*
X020322Y021212D01*
X020006Y020896D01*
X020006Y020449D01*
X020282Y020172D01*
X020112Y020002D01*
X018714Y020002D01*
X017489Y021228D01*
X017367Y021278D01*
X017331Y021278D01*
X017203Y021406D01*
X017005Y021488D01*
X016798Y021488D01*
X016944Y021650D01*
X017004Y021697D01*
X017006Y021719D01*
X017021Y021735D01*
X017017Y021811D01*
X017031Y021934D01*
X020035Y021934D01*
X020689Y022589D01*
X020765Y022557D01*
X020980Y022557D01*
X021179Y022640D01*
X021567Y022640D01*
X021765Y022557D01*
X021980Y022557D01*
X022179Y022640D01*
X022567Y022640D01*
X022468Y022738D02*
X022277Y022738D01*
X022330Y022792D02*
X022179Y022640D01*
X022330Y022792D02*
X022373Y022893D01*
X022349Y022837D02*
X022396Y022837D01*
X022373Y023301D02*
X022330Y023403D01*
X022179Y023555D01*
X021980Y023637D01*
X021765Y023637D01*
X021679Y023602D01*
X021426Y023855D01*
X037074Y023872D01*
X036903Y023801D01*
X036669Y023568D01*
X036543Y023262D01*
X036543Y022932D01*
X036669Y022627D01*
X036623Y022738D02*
X036277Y022738D01*
X036330Y022792D02*
X036179Y022640D01*
X036330Y022792D02*
X036413Y022990D01*
X036413Y023205D01*
X036330Y023403D01*
X036179Y023555D01*
X035980Y023637D01*
X035765Y023637D01*
X035567Y023555D01*
X035415Y023403D01*
X035373Y023301D01*
X035330Y023403D01*
X035179Y023555D01*
X034980Y023637D01*
X034765Y023637D01*
X034567Y023555D01*
X034415Y023403D01*
X034373Y023301D01*
X034330Y023403D01*
X034179Y023555D01*
X033980Y023637D01*
X033765Y023637D01*
X033567Y023555D01*
X033415Y023403D01*
X033373Y023301D01*
X033330Y023403D01*
X033179Y023555D01*
X032980Y023637D01*
X032765Y023637D01*
X032567Y023555D01*
X032415Y023403D01*
X032373Y023301D01*
X032330Y023403D01*
X032179Y023555D01*
X031980Y023637D01*
X031765Y023637D01*
X031567Y023555D01*
X031415Y023403D01*
X031373Y023301D01*
X031330Y023403D01*
X031179Y023555D01*
X030980Y023637D01*
X030765Y023637D01*
X030567Y023555D01*
X030415Y023403D01*
X030373Y023301D01*
X030330Y023403D01*
X030179Y023555D01*
X029980Y023637D01*
X029765Y023637D01*
X029567Y023555D01*
X029415Y023403D01*
X029373Y023301D01*
X029330Y023403D01*
X029179Y023555D01*
X028980Y023637D01*
X028765Y023637D01*
X028567Y023555D01*
X028415Y023403D01*
X028333Y023205D01*
X028333Y022990D01*
X028415Y022792D01*
X028567Y022640D01*
X028468Y022738D02*
X027277Y022738D01*
X027330Y022792D02*
X027179Y022640D01*
X027330Y022792D02*
X027413Y022990D01*
X027413Y023205D01*
X027330Y023403D01*
X027179Y023555D01*
X026980Y023637D01*
X026765Y023637D01*
X026567Y023555D01*
X026415Y023403D01*
X026373Y023301D01*
X026330Y023403D01*
X026179Y023555D01*
X025980Y023637D01*
X025765Y023637D01*
X025567Y023555D01*
X025415Y023403D01*
X025373Y023301D01*
X025330Y023403D01*
X025179Y023555D01*
X024980Y023637D01*
X024765Y023637D01*
X024567Y023555D01*
X024415Y023403D01*
X024373Y023301D01*
X024330Y023403D01*
X024179Y023555D01*
X023980Y023637D01*
X023765Y023637D01*
X023567Y023555D01*
X023415Y023403D01*
X023373Y023301D01*
X023330Y023403D01*
X023179Y023555D01*
X022980Y023637D01*
X022765Y023637D01*
X022567Y023555D01*
X022415Y023403D01*
X022373Y023301D01*
X022361Y023329D02*
X022384Y023329D01*
X022440Y023428D02*
X022306Y023428D01*
X022207Y023526D02*
X022538Y023526D01*
X022735Y023625D02*
X022010Y023625D01*
X021735Y023625D02*
X021656Y023625D01*
X021558Y023723D02*
X036825Y023723D01*
X036727Y023625D02*
X036010Y023625D01*
X036207Y023526D02*
X036652Y023526D01*
X036611Y023428D02*
X036306Y023428D01*
X036361Y023329D02*
X036570Y023329D01*
X036543Y023231D02*
X036402Y023231D01*
X036413Y023132D02*
X036543Y023132D01*
X036543Y023034D02*
X036413Y023034D01*
X036390Y022935D02*
X036543Y022935D01*
X036582Y022837D02*
X036349Y022837D01*
X036755Y022541D02*
X020642Y022541D01*
X020543Y022443D02*
X036854Y022443D01*
X037022Y022344D02*
X020445Y022344D01*
X020346Y022246D02*
X038333Y022246D01*
X038333Y022321D02*
X038333Y021874D01*
X038609Y021597D01*
X038333Y021321D01*
X038333Y020874D01*
X038609Y020597D01*
X038333Y020321D01*
X038333Y019874D01*
X038609Y019597D01*
X038333Y019321D01*
X038333Y018874D01*
X038609Y018597D01*
X038333Y018321D01*
X038333Y017874D01*
X038609Y017597D01*
X038333Y017321D01*
X038333Y016874D01*
X038609Y016597D01*
X038333Y016321D01*
X038333Y015874D01*
X038609Y015597D01*
X038333Y015321D01*
X038333Y014874D01*
X038609Y014597D01*
X038333Y014321D01*
X038333Y013874D01*
X038609Y013597D01*
X038333Y013321D01*
X038333Y012874D01*
X038609Y012597D01*
X038333Y012321D01*
X038333Y011874D01*
X038609Y011597D01*
X038333Y011321D01*
X038333Y010874D01*
X038609Y010597D01*
X038333Y010321D01*
X038333Y009874D01*
X038609Y009597D01*
X038333Y009321D01*
X038333Y008874D01*
X038412Y008794D01*
X038357Y008740D01*
X035895Y008660D01*
X035866Y008730D01*
X035714Y008882D01*
X035612Y008924D01*
X035714Y008966D01*
X035866Y009118D01*
X035948Y009317D01*
X035948Y009532D01*
X035866Y009730D01*
X035714Y009882D01*
X035516Y009964D01*
X035301Y009964D01*
X035102Y009882D01*
X034985Y009765D01*
X033563Y009765D01*
X031931Y011397D01*
X031839Y011435D01*
X031623Y011435D01*
X031623Y018092D01*
X031989Y018458D01*
X031989Y016296D01*
X032027Y016204D01*
X032401Y015830D01*
X032471Y015759D01*
X032563Y015721D01*
X032594Y015721D01*
X032710Y015606D01*
X032860Y015544D01*
X032932Y015544D01*
X032932Y014595D01*
X032924Y014595D01*
X032773Y014533D01*
X032658Y014417D01*
X032596Y014267D01*
X031623Y014267D01*
X031623Y014169D02*
X032596Y014169D01*
X032596Y014103D02*
X032658Y013953D01*
X032773Y013837D01*
X032924Y013775D01*
X033567Y013775D01*
X033718Y013837D01*
X033833Y013953D01*
X033896Y014103D01*
X033896Y014267D01*
X033833Y014417D01*
X033718Y014533D01*
X033567Y014595D01*
X033432Y014595D01*
X033432Y015544D01*
X033503Y015544D01*
X033654Y015606D01*
X033769Y015721D01*
X033832Y015872D01*
X033832Y016035D01*
X033769Y016186D01*
X033654Y016301D01*
X033503Y016364D01*
X032860Y016364D01*
X032710Y016301D01*
X032673Y016265D01*
X032489Y016449D01*
X032489Y018525D01*
X032640Y018676D01*
X032710Y018606D01*
X032860Y018544D01*
X033418Y018544D01*
X033238Y018364D01*
X032860Y018364D01*
X032710Y018301D01*
X032594Y018186D01*
X032532Y018035D01*
X032532Y017872D01*
X032594Y017721D01*
X032710Y017606D01*
X032860Y017544D01*
X033503Y017544D01*
X033654Y017606D01*
X033769Y017721D01*
X033832Y017872D01*
X033832Y018035D01*
X033769Y018186D01*
X033768Y018187D01*
X034281Y018700D01*
X034779Y018700D01*
X034684Y018605D02*
X034646Y018513D01*
X034646Y017571D01*
X034279Y017204D01*
X033752Y017204D01*
X033654Y017301D01*
X033503Y017364D01*
X032860Y017364D01*
X032710Y017301D01*
X032594Y017186D01*
X032532Y017035D01*
X032532Y016872D01*
X032594Y016721D01*
X032710Y016606D01*
X032860Y016544D01*
X033503Y016544D01*
X033654Y016606D01*
X033752Y016704D01*
X034432Y016704D01*
X034524Y016742D01*
X035038Y017256D01*
X035108Y017326D01*
X035146Y017418D01*
X035146Y018360D01*
X035474Y018688D01*
X035474Y018141D01*
X035574Y018042D01*
X036455Y018042D01*
X036554Y018141D01*
X036554Y019022D01*
X036455Y019122D01*
X036315Y019122D01*
X036320Y019124D01*
X036472Y019276D01*
X036554Y019474D01*
X036554Y019689D01*
X036472Y019888D01*
X036320Y020039D01*
X036218Y020082D01*
X036320Y020124D01*
X036472Y020276D01*
X038333Y020276D01*
X038333Y020177D02*
X036374Y020177D01*
X036472Y020276D02*
X036554Y020474D01*
X036554Y020689D01*
X036472Y020888D01*
X036320Y021039D01*
X036122Y021122D01*
X035907Y021122D01*
X035709Y021039D01*
X035557Y020888D01*
X035474Y020689D01*
X035474Y020474D01*
X035557Y020276D01*
X028503Y020276D01*
X028405Y020177D02*
X035655Y020177D01*
X035709Y020124D02*
X035557Y020276D01*
X035516Y020374D02*
X028602Y020374D01*
X028660Y020473D02*
X035475Y020473D01*
X035474Y020571D02*
X028670Y020571D01*
X028670Y020670D02*
X035474Y020670D01*
X035507Y020768D02*
X028670Y020768D01*
X028670Y020867D02*
X035548Y020867D01*
X035634Y020965D02*
X028670Y020965D01*
X028670Y021064D02*
X035768Y021064D01*
X036261Y021064D02*
X038333Y021064D01*
X038333Y021162D02*
X028670Y021162D01*
X028670Y021261D02*
X038333Y021261D01*
X038371Y021359D02*
X028644Y021359D01*
X028563Y021458D02*
X038470Y021458D01*
X038568Y021556D02*
X028464Y021556D01*
X028366Y021655D02*
X038552Y021655D01*
X038453Y021753D02*
X028240Y021753D01*
X028041Y021273D02*
X028170Y021143D01*
X028170Y020650D01*
X028086Y020566D01*
X028086Y020896D01*
X027770Y021212D01*
X027322Y021212D01*
X027046Y020936D01*
X026770Y021212D01*
X026322Y021212D01*
X026046Y020936D01*
X025770Y021212D01*
X025322Y021212D01*
X025046Y020936D01*
X024770Y021212D01*
X024322Y021212D01*
X024046Y020936D01*
X023796Y021186D01*
X023796Y021273D01*
X028041Y021273D01*
X028053Y021261D02*
X023796Y021261D01*
X023819Y021162D02*
X024272Y021162D01*
X024174Y021064D02*
X023918Y021064D01*
X024016Y020965D02*
X024075Y020965D01*
X024819Y021162D02*
X025272Y021162D01*
X025174Y021064D02*
X024918Y021064D01*
X025016Y020965D02*
X025075Y020965D01*
X025819Y021162D02*
X026272Y021162D01*
X026174Y021064D02*
X025918Y021064D01*
X026016Y020965D02*
X026075Y020965D01*
X026819Y021162D02*
X027272Y021162D01*
X027174Y021064D02*
X026918Y021064D01*
X027016Y020965D02*
X027075Y020965D01*
X027046Y020409D02*
X027282Y020172D01*
X027046Y019936D01*
X026810Y020172D01*
X027046Y020409D01*
X027012Y020374D02*
X027080Y020374D01*
X027179Y020276D02*
X026913Y020276D01*
X026815Y020177D02*
X027277Y020177D01*
X027189Y020079D02*
X026903Y020079D01*
X027001Y019980D02*
X027090Y019980D01*
X027065Y019389D02*
X027027Y019389D01*
X026928Y019291D02*
X027164Y019291D01*
X027262Y019192D02*
X026830Y019192D01*
X026798Y019094D02*
X029556Y019094D01*
X029532Y019035D02*
X029594Y019186D01*
X029710Y019301D01*
X029860Y019364D01*
X030503Y019364D01*
X030654Y019301D01*
X030769Y019186D01*
X030832Y019035D01*
X030832Y018872D01*
X030769Y018721D01*
X030654Y018606D01*
X030503Y018544D01*
X029860Y018544D01*
X029710Y018606D01*
X029594Y018721D01*
X029532Y018872D01*
X029532Y019035D01*
X029532Y018995D02*
X026795Y018995D01*
X026792Y018897D02*
X029532Y018897D01*
X029562Y018798D02*
X026789Y018798D01*
X026786Y018700D02*
X029616Y018700D01*
X029721Y018601D02*
X026783Y018601D01*
X026780Y018503D02*
X031326Y018503D01*
X031231Y018408D02*
X031231Y018408D01*
X031161Y018337D01*
X031123Y018246D01*
X031123Y016182D01*
X030771Y016182D01*
X030769Y016186D01*
X030654Y016301D01*
X030503Y016364D01*
X029933Y016364D01*
X030113Y016544D01*
X030503Y016544D01*
X030654Y016606D01*
X030769Y016721D01*
X030832Y016872D01*
X030832Y017035D01*
X030769Y017186D01*
X030654Y017301D01*
X030503Y017364D01*
X029860Y017364D01*
X029710Y017301D01*
X029594Y017186D01*
X029532Y017035D01*
X029532Y016872D01*
X029591Y016729D01*
X028652Y015790D01*
X028582Y015719D01*
X028544Y015627D01*
X028544Y014332D01*
X028213Y014332D01*
X028103Y014442D01*
X027954Y014504D01*
X027792Y014504D01*
X027643Y014442D01*
X027528Y014327D01*
X027466Y014178D01*
X027466Y014017D01*
X027528Y013867D01*
X027635Y013761D01*
X027123Y013761D01*
X027123Y013773D01*
X027217Y013867D01*
X027279Y014017D01*
X027279Y014178D01*
X027217Y014327D01*
X027103Y014442D01*
X026954Y014504D01*
X026792Y014504D01*
X026643Y014442D01*
X026528Y014327D01*
X026466Y014178D01*
X026466Y014017D01*
X026528Y013867D01*
X026623Y013773D01*
X026623Y013461D01*
X026634Y013433D01*
X026528Y013327D01*
X026466Y013178D01*
X026466Y013017D01*
X026528Y012867D01*
X026643Y012753D01*
X026792Y012691D01*
X026954Y012691D01*
X027791Y012691D01*
X027792Y012691D02*
X027954Y012691D01*
X031123Y012691D01*
X031123Y012593D02*
X030572Y012593D01*
X030567Y012595D02*
X030718Y012533D01*
X030833Y012417D01*
X030896Y012267D01*
X030896Y012103D01*
X030833Y011953D01*
X030718Y011837D01*
X030567Y011775D01*
X029924Y011775D01*
X029773Y011837D01*
X029658Y011953D01*
X029596Y012103D01*
X029596Y012267D01*
X029658Y012417D01*
X029773Y012533D01*
X029924Y012595D01*
X030567Y012595D01*
X030567Y012775D02*
X030718Y012837D01*
X030833Y012953D01*
X030896Y013103D01*
X030896Y013267D01*
X030833Y013417D01*
X030718Y013533D01*
X030567Y013595D01*
X029924Y013595D01*
X029773Y013533D01*
X029676Y013435D01*
X028611Y013435D01*
X028611Y013561D01*
X028573Y013652D01*
X028503Y013723D01*
X028411Y013761D01*
X028111Y013761D01*
X028181Y013832D01*
X028706Y013832D01*
X028798Y013870D01*
X028868Y013940D01*
X029006Y014078D01*
X029044Y014170D01*
X029044Y015474D01*
X029532Y015962D01*
X029532Y015872D01*
X029594Y015721D01*
X029710Y015606D01*
X029860Y015544D01*
X030503Y015544D01*
X030654Y015606D01*
X030730Y015682D01*
X031123Y015682D01*
X031123Y011435D01*
X030816Y011435D01*
X030718Y011533D01*
X030567Y011595D01*
X029924Y011595D01*
X029773Y011533D01*
X029658Y011417D01*
X029596Y011267D01*
X029596Y011103D01*
X029658Y010953D01*
X029773Y010837D01*
X029924Y010775D01*
X029996Y010775D01*
X029996Y007448D01*
X029846Y007298D01*
X029846Y007512D01*
X029764Y007710D01*
X029612Y007862D01*
X029510Y007904D01*
X029612Y007947D01*
X029764Y008099D01*
X029846Y008297D01*
X029846Y008512D01*
X029764Y008710D01*
X029612Y008862D01*
X029413Y008944D01*
X029198Y008944D01*
X029000Y008862D01*
X028848Y008710D01*
X028766Y008512D01*
X028766Y008297D01*
X028848Y008099D01*
X029000Y007947D01*
X029102Y007904D01*
X029000Y007862D01*
X028848Y007710D01*
X028766Y007512D01*
X028766Y007297D01*
X028848Y007099D01*
X029000Y006947D01*
X029005Y006944D01*
X028865Y006944D01*
X028766Y006845D01*
X028766Y005964D01*
X028865Y005864D01*
X029746Y005864D01*
X029846Y005964D01*
X029846Y006591D01*
X030458Y007203D01*
X030496Y007295D01*
X030496Y010775D01*
X030567Y010775D01*
X030718Y010837D01*
X030816Y010935D01*
X031685Y010935D01*
X033247Y009373D01*
X033318Y009303D01*
X033410Y009265D01*
X034890Y009265D01*
X034950Y009118D01*
X035102Y008966D01*
X035204Y008924D01*
X035102Y008882D01*
X034950Y008730D01*
X034868Y008532D01*
X034868Y008317D01*
X034950Y008118D01*
X035102Y007966D01*
X035204Y007924D01*
X035102Y007882D01*
X034950Y007730D01*
X034868Y007532D01*
X034868Y007317D01*
X034950Y007118D01*
X035102Y006966D01*
X035108Y006964D01*
X034968Y006964D01*
X034868Y006865D01*
X034868Y005984D01*
X034968Y005884D01*
X035849Y005884D01*
X035948Y005984D01*
X035948Y006865D01*
X035849Y006964D01*
X035709Y006964D01*
X035714Y006966D01*
X035866Y007118D01*
X035948Y007317D01*
X035948Y007532D01*
X035866Y007730D01*
X035714Y007882D01*
X035612Y007924D01*
X035714Y007966D01*
X035866Y008118D01*
X035908Y008220D01*
X038333Y008299D01*
X038333Y007874D01*
X038609Y007597D01*
X038333Y007321D01*
X038333Y006874D01*
X038627Y006580D01*
X038567Y006555D01*
X038415Y006403D01*
X038333Y006205D01*
X038333Y005990D01*
X038415Y005792D01*
X038567Y005640D01*
X038765Y005557D01*
X038980Y005557D01*
X039179Y005640D01*
X039330Y005792D01*
X039373Y005893D01*
X039415Y005792D01*
X039567Y005640D01*
X039765Y005557D01*
X039980Y005557D01*
X040179Y005640D01*
X040330Y005792D01*
X040413Y005990D01*
X040413Y006205D01*
X040330Y006403D01*
X040179Y006555D01*
X040119Y006580D01*
X040413Y006874D01*
X040413Y007321D01*
X040136Y007597D01*
X040326Y007787D01*
X040749Y007364D01*
X040749Y005996D01*
X040009Y005257D01*
X026181Y005257D01*
X025678Y005760D01*
X025678Y011794D01*
X025923Y011794D01*
X026022Y011894D01*
X026022Y012411D01*
X025923Y012511D01*
X025406Y012511D01*
X025306Y012411D01*
X025306Y012148D01*
X025216Y012058D01*
X025178Y011966D01*
X025178Y005607D01*
X025216Y005515D01*
X025286Y005445D01*
X025936Y004795D01*
X026028Y004757D01*
X039358Y004757D01*
X039216Y004614D02*
X038036Y004614D01*
X037980Y004637D02*
X037765Y004637D01*
X037567Y004555D01*
X037415Y004403D01*
X037373Y004301D01*
X037330Y004403D01*
X037179Y004555D01*
X036980Y004637D01*
X036765Y004637D01*
X036567Y004555D01*
X036415Y004403D01*
X036373Y004301D01*
X036330Y004403D01*
X036179Y004555D01*
X035980Y004637D01*
X035765Y004637D01*
X035567Y004555D01*
X035415Y004403D01*
X035373Y004301D01*
X035330Y004403D01*
X035179Y004555D01*
X034980Y004637D01*
X034765Y004637D01*
X034567Y004555D01*
X034415Y004403D01*
X034373Y004301D01*
X034330Y004403D01*
X034179Y004555D01*
X033980Y004637D01*
X033765Y004637D01*
X033567Y004555D01*
X033415Y004403D01*
X033373Y004301D01*
X033330Y004403D01*
X033179Y004555D01*
X032980Y004637D01*
X032765Y004637D01*
X032567Y004555D01*
X032415Y004403D01*
X032373Y004301D01*
X032330Y004403D01*
X032179Y004555D01*
X031980Y004637D01*
X031765Y004637D01*
X031567Y004555D01*
X031415Y004403D01*
X031373Y004301D01*
X031330Y004403D01*
X031179Y004555D01*
X030980Y004637D01*
X030765Y004637D01*
X030567Y004555D01*
X030415Y004403D01*
X030333Y004205D01*
X030333Y003990D01*
X030415Y003792D01*
X030567Y003640D01*
X030765Y003557D01*
X030980Y003557D01*
X031179Y003640D01*
X031330Y003792D01*
X031373Y003893D01*
X031415Y003792D01*
X031567Y003640D01*
X031765Y003557D01*
X031980Y003557D01*
X032179Y003640D01*
X032330Y003792D01*
X032373Y003893D01*
X032415Y003792D01*
X032567Y003640D01*
X032765Y003557D01*
X032980Y003557D01*
X033179Y003640D01*
X033330Y003792D01*
X033373Y003893D01*
X033415Y003792D01*
X033567Y003640D01*
X033765Y003557D01*
X033980Y003557D01*
X034179Y003640D01*
X034330Y003792D01*
X034373Y003893D01*
X034415Y003792D01*
X034567Y003640D01*
X034765Y003557D01*
X034980Y003557D01*
X035179Y003640D01*
X035330Y003792D01*
X035373Y003893D01*
X035415Y003792D01*
X035567Y003640D01*
X035765Y003557D01*
X035980Y003557D01*
X036179Y003640D01*
X036330Y003792D01*
X036373Y003893D01*
X036415Y003792D01*
X036567Y003640D01*
X036765Y003557D01*
X036980Y003557D01*
X037179Y003640D01*
X037330Y003792D01*
X037373Y003893D01*
X037415Y003792D01*
X037567Y003640D01*
X037765Y003557D01*
X037980Y003557D01*
X038179Y003640D01*
X038330Y003792D01*
X038413Y003990D01*
X038413Y004205D01*
X038330Y004403D01*
X038179Y004555D01*
X037980Y004637D01*
X038218Y004516D02*
X039148Y004516D01*
X039107Y004417D02*
X038316Y004417D01*
X038365Y004319D02*
X039066Y004319D01*
X039043Y004220D02*
X038406Y004220D01*
X038413Y004122D02*
X039043Y004122D01*
X039043Y004023D02*
X038413Y004023D01*
X038386Y003925D02*
X039046Y003925D01*
X039087Y003826D02*
X038345Y003826D01*
X038267Y003728D02*
X039127Y003728D01*
X039168Y003629D02*
X038154Y003629D01*
X037592Y003629D02*
X037154Y003629D01*
X037267Y003728D02*
X037479Y003728D01*
X037400Y003826D02*
X037345Y003826D01*
X036592Y003629D02*
X036154Y003629D01*
X036267Y003728D02*
X036479Y003728D01*
X036400Y003826D02*
X036345Y003826D01*
X036365Y004319D02*
X036380Y004319D01*
X036429Y004417D02*
X036316Y004417D01*
X036218Y004516D02*
X036527Y004516D01*
X036710Y004614D02*
X036036Y004614D01*
X035710Y004614D02*
X035036Y004614D01*
X035218Y004516D02*
X035527Y004516D01*
X035429Y004417D02*
X035316Y004417D01*
X035365Y004319D02*
X035380Y004319D01*
X035400Y003826D02*
X035345Y003826D01*
X035267Y003728D02*
X035479Y003728D01*
X035592Y003629D02*
X035154Y003629D01*
X034592Y003629D02*
X034154Y003629D01*
X034267Y003728D02*
X034479Y003728D01*
X034400Y003826D02*
X034345Y003826D01*
X033592Y003629D02*
X033154Y003629D01*
X033267Y003728D02*
X033479Y003728D01*
X033400Y003826D02*
X033345Y003826D01*
X033365Y004319D02*
X033380Y004319D01*
X033429Y004417D02*
X033316Y004417D01*
X033218Y004516D02*
X033527Y004516D01*
X033710Y004614D02*
X033036Y004614D01*
X032710Y004614D02*
X032036Y004614D01*
X032218Y004516D02*
X032527Y004516D01*
X032429Y004417D02*
X032316Y004417D01*
X032365Y004319D02*
X032380Y004319D01*
X032400Y003826D02*
X032345Y003826D01*
X032267Y003728D02*
X032479Y003728D01*
X032592Y003629D02*
X032154Y003629D01*
X031592Y003629D02*
X031154Y003629D01*
X031267Y003728D02*
X031479Y003728D01*
X031400Y003826D02*
X031345Y003826D01*
X030592Y003629D02*
X029154Y003629D01*
X029267Y003728D02*
X030479Y003728D01*
X030400Y003826D02*
X029345Y003826D01*
X029386Y003925D02*
X030360Y003925D01*
X030333Y004023D02*
X029413Y004023D01*
X029413Y004122D02*
X030333Y004122D01*
X030339Y004220D02*
X029406Y004220D01*
X029365Y004319D02*
X030380Y004319D01*
X030429Y004417D02*
X029316Y004417D01*
X029218Y004516D02*
X030527Y004516D01*
X030710Y004614D02*
X029036Y004614D01*
X028710Y004614D02*
X028036Y004614D01*
X028218Y004516D02*
X028527Y004516D01*
X028429Y004417D02*
X028316Y004417D01*
X028365Y004319D02*
X028380Y004319D01*
X027710Y004614D02*
X027036Y004614D01*
X027218Y004516D02*
X027527Y004516D01*
X027429Y004417D02*
X027316Y004417D01*
X027365Y004319D02*
X027380Y004319D01*
X027400Y003826D02*
X027345Y003826D01*
X027267Y003728D02*
X027479Y003728D01*
X027592Y003629D02*
X027154Y003629D01*
X026592Y003629D02*
X026154Y003629D01*
X026267Y003728D02*
X026479Y003728D01*
X026400Y003826D02*
X026345Y003826D01*
X026365Y004319D02*
X026380Y004319D01*
X026429Y004417D02*
X026316Y004417D01*
X026218Y004516D02*
X026527Y004516D01*
X026710Y004614D02*
X026036Y004614D01*
X025919Y004811D02*
X022095Y004811D01*
X022095Y004910D02*
X025821Y004910D01*
X025722Y005008D02*
X022095Y005008D01*
X022095Y005107D02*
X025624Y005107D01*
X025525Y005205D02*
X022095Y005205D01*
X022095Y005304D02*
X025427Y005304D01*
X025328Y005402D02*
X022095Y005402D01*
X022095Y005501D02*
X025230Y005501D01*
X025181Y005599D02*
X022095Y005599D01*
X022095Y005698D02*
X025178Y005698D01*
X025178Y005796D02*
X022095Y005796D01*
X022095Y005895D02*
X022752Y005895D01*
X022783Y005864D02*
X022683Y005964D01*
X022683Y006845D01*
X022783Y006944D01*
X022923Y006944D01*
X022917Y006947D01*
X022765Y007099D01*
X022683Y007297D01*
X022683Y007512D01*
X022765Y007710D01*
X022917Y007862D01*
X023019Y007904D01*
X022917Y007947D01*
X022765Y008099D01*
X022683Y008297D01*
X022683Y008512D01*
X022765Y008710D01*
X022917Y008862D01*
X023116Y008944D01*
X023331Y008944D01*
X023529Y008862D01*
X023681Y008710D01*
X023763Y008512D01*
X023763Y008297D01*
X023681Y008099D01*
X023529Y007947D01*
X023427Y007904D01*
X023529Y007862D01*
X023681Y007710D01*
X023763Y007512D01*
X023763Y007297D01*
X023681Y007099D01*
X023529Y006947D01*
X023524Y006944D01*
X023664Y006944D01*
X023763Y006845D01*
X023763Y005964D01*
X023664Y005864D01*
X022783Y005864D01*
X022683Y005993D02*
X022095Y005993D01*
X022095Y006092D02*
X022683Y006092D01*
X022683Y006190D02*
X022095Y006190D01*
X022095Y006289D02*
X022683Y006289D01*
X022683Y006387D02*
X022095Y006387D01*
X022095Y006486D02*
X022683Y006486D01*
X022683Y006584D02*
X022095Y006584D01*
X022095Y006683D02*
X022683Y006683D01*
X022683Y006781D02*
X022095Y006781D01*
X022095Y006880D02*
X022718Y006880D01*
X022886Y006978D02*
X022095Y006978D01*
X022095Y007077D02*
X022787Y007077D01*
X022734Y007175D02*
X022095Y007175D01*
X022095Y007274D02*
X022693Y007274D01*
X022683Y007372D02*
X022095Y007372D01*
X022095Y007471D02*
X022683Y007471D01*
X022707Y007569D02*
X022095Y007569D01*
X022095Y007668D02*
X022748Y007668D01*
X022821Y007766D02*
X022068Y007766D01*
X021970Y007865D02*
X022923Y007865D01*
X022901Y007963D02*
X021871Y007963D01*
X021773Y008062D02*
X022802Y008062D01*
X022740Y008160D02*
X021674Y008160D01*
X021576Y008259D02*
X022699Y008259D01*
X022683Y008357D02*
X021477Y008357D01*
X021379Y008456D02*
X022683Y008456D01*
X022701Y008554D02*
X021280Y008554D01*
X021122Y008062D02*
X020632Y008062D01*
X020534Y007963D02*
X021221Y007963D01*
X021319Y007865D02*
X020444Y007865D01*
X020574Y007766D02*
X021418Y007766D01*
X021516Y007668D02*
X020659Y007668D01*
X020700Y007569D02*
X021615Y007569D01*
X021635Y007471D02*
X020732Y007471D01*
X020732Y007372D02*
X021635Y007372D01*
X021635Y007274D02*
X020730Y007274D01*
X020689Y007175D02*
X021635Y007175D01*
X021635Y007077D02*
X020647Y007077D01*
X020549Y006978D02*
X021635Y006978D01*
X021635Y006880D02*
X020677Y006880D01*
X020732Y006781D02*
X021635Y006781D01*
X021635Y006683D02*
X020732Y006683D01*
X020732Y006584D02*
X021635Y006584D01*
X021635Y006486D02*
X020732Y006486D01*
X020732Y006387D02*
X021635Y006387D01*
X021635Y006289D02*
X020732Y006289D01*
X020732Y006190D02*
X021635Y006190D01*
X021635Y006092D02*
X020732Y006092D01*
X020732Y005993D02*
X021635Y005993D01*
X021635Y005895D02*
X020682Y005895D01*
X023036Y004614D02*
X023710Y004614D01*
X023527Y004516D02*
X023218Y004516D01*
X023316Y004417D02*
X023429Y004417D01*
X023380Y004319D02*
X023365Y004319D01*
X024036Y004614D02*
X024710Y004614D01*
X024527Y004516D02*
X024218Y004516D01*
X024316Y004417D02*
X024429Y004417D01*
X024380Y004319D02*
X024365Y004319D01*
X025036Y004614D02*
X025710Y004614D01*
X025527Y004516D02*
X025218Y004516D01*
X025316Y004417D02*
X025429Y004417D01*
X025380Y004319D02*
X025365Y004319D01*
X025345Y003826D02*
X025400Y003826D01*
X025479Y003728D02*
X025267Y003728D01*
X025154Y003629D02*
X025592Y003629D01*
X024592Y003629D02*
X024154Y003629D01*
X024267Y003728D02*
X024479Y003728D01*
X024400Y003826D02*
X024345Y003826D01*
X023592Y003629D02*
X023154Y003629D01*
X023267Y003728D02*
X023479Y003728D01*
X023400Y003826D02*
X023345Y003826D01*
X022592Y003629D02*
X022154Y003629D01*
X022267Y003728D02*
X022479Y003728D01*
X022400Y003826D02*
X022345Y003826D01*
X025678Y005796D02*
X038413Y005796D01*
X038372Y005895D02*
X035859Y005895D01*
X035948Y005993D02*
X038333Y005993D01*
X038333Y006092D02*
X035948Y006092D01*
X035948Y006190D02*
X038333Y006190D01*
X038368Y006289D02*
X035948Y006289D01*
X035948Y006387D02*
X038408Y006387D01*
X038497Y006486D02*
X035948Y006486D01*
X035948Y006584D02*
X038622Y006584D01*
X038524Y006683D02*
X035948Y006683D01*
X035948Y006781D02*
X038425Y006781D01*
X038333Y006880D02*
X035933Y006880D01*
X035824Y007077D02*
X038333Y007077D01*
X038333Y007175D02*
X035890Y007175D01*
X035930Y007274D02*
X038333Y007274D01*
X038384Y007372D02*
X035948Y007372D01*
X035948Y007471D02*
X038482Y007471D01*
X038581Y007569D02*
X035932Y007569D01*
X035892Y007668D02*
X038539Y007668D01*
X038440Y007766D02*
X035830Y007766D01*
X035731Y007865D02*
X038342Y007865D01*
X038333Y007963D02*
X035707Y007963D01*
X035809Y008062D02*
X038333Y008062D01*
X038333Y008160D02*
X035883Y008160D01*
X035408Y008424D02*
X038451Y008523D01*
X038518Y008590D01*
X040369Y008590D01*
X040566Y008786D01*
X040566Y011404D01*
X039873Y012097D01*
X039407Y012396D02*
X039338Y012396D01*
X039373Y012361D02*
X039136Y012597D01*
X039373Y012834D01*
X039609Y012597D01*
X039373Y012361D01*
X039239Y012494D02*
X039506Y012494D01*
X039604Y012593D02*
X039141Y012593D01*
X039230Y012691D02*
X039515Y012691D01*
X039417Y012790D02*
X039329Y012790D01*
X039373Y013361D02*
X039136Y013597D01*
X039373Y013834D01*
X039609Y013597D01*
X039373Y013361D01*
X039353Y013381D02*
X039393Y013381D01*
X039491Y013479D02*
X039254Y013479D01*
X039156Y013578D02*
X039590Y013578D01*
X039530Y013676D02*
X039215Y013676D01*
X039314Y013775D02*
X039432Y013775D01*
X039373Y014361D02*
X039136Y014597D01*
X039373Y014834D01*
X039609Y014597D01*
X039373Y014361D01*
X039368Y014366D02*
X039378Y014366D01*
X039476Y014464D02*
X039269Y014464D01*
X039171Y014563D02*
X039575Y014563D01*
X039545Y014661D02*
X039200Y014661D01*
X039299Y014760D02*
X039447Y014760D01*
X039373Y015361D02*
X039136Y015597D01*
X039373Y015834D01*
X039609Y015597D01*
X039373Y015361D01*
X039461Y015449D02*
X039284Y015449D01*
X039186Y015548D02*
X039560Y015548D01*
X039560Y015646D02*
X039185Y015646D01*
X039284Y015745D02*
X039462Y015745D01*
X039373Y016361D02*
X039136Y016597D01*
X039373Y016834D01*
X039609Y016597D01*
X039373Y016361D01*
X039299Y016434D02*
X039446Y016434D01*
X039545Y016533D02*
X039201Y016533D01*
X039170Y016631D02*
X039575Y016631D01*
X039477Y016730D02*
X039269Y016730D01*
X039367Y016828D02*
X039378Y016828D01*
X039373Y017361D02*
X039136Y017597D01*
X039373Y017834D01*
X039609Y017597D01*
X039373Y017361D01*
X039314Y017419D02*
X039431Y017419D01*
X039530Y017518D02*
X039216Y017518D01*
X039155Y017616D02*
X039590Y017616D01*
X039492Y017715D02*
X039254Y017715D01*
X039352Y017813D02*
X039393Y017813D01*
X038590Y017616D02*
X035146Y017616D01*
X035146Y017518D02*
X038530Y017518D01*
X038431Y017419D02*
X035146Y017419D01*
X035103Y017321D02*
X038333Y017321D01*
X038333Y017222D02*
X035005Y017222D01*
X034906Y017124D02*
X038333Y017124D01*
X038333Y017025D02*
X034808Y017025D01*
X034709Y016927D02*
X038333Y016927D01*
X038378Y016828D02*
X034611Y016828D01*
X034495Y016730D02*
X038477Y016730D01*
X038575Y016631D02*
X033679Y016631D01*
X033570Y016336D02*
X038348Y016336D01*
X038333Y016237D02*
X033718Y016237D01*
X033789Y016139D02*
X038333Y016139D01*
X038333Y016040D02*
X033830Y016040D01*
X033832Y015942D02*
X038333Y015942D01*
X038363Y015843D02*
X033820Y015843D01*
X033779Y015745D02*
X038462Y015745D01*
X038560Y015646D02*
X033694Y015646D01*
X033513Y015548D02*
X038560Y015548D01*
X038461Y015449D02*
X033432Y015449D01*
X033432Y015351D02*
X038363Y015351D01*
X038333Y015252D02*
X033432Y015252D01*
X033432Y015154D02*
X038333Y015154D01*
X038333Y015055D02*
X033432Y015055D01*
X033432Y014957D02*
X038333Y014957D01*
X038348Y014858D02*
X033432Y014858D01*
X033432Y014760D02*
X038447Y014760D01*
X038545Y014661D02*
X033432Y014661D01*
X033645Y014563D02*
X038575Y014563D01*
X038476Y014464D02*
X033786Y014464D01*
X033855Y014366D02*
X038378Y014366D01*
X038333Y014267D02*
X033895Y014267D01*
X033896Y014169D02*
X038333Y014169D01*
X038333Y014070D02*
X033882Y014070D01*
X033841Y013972D02*
X038333Y013972D01*
X038333Y013873D02*
X033754Y013873D01*
X033609Y013578D02*
X038590Y013578D01*
X038530Y013676D02*
X031623Y013676D01*
X031623Y013578D02*
X032883Y013578D01*
X032924Y013595D02*
X032773Y013533D01*
X032658Y013417D01*
X032596Y013267D01*
X032596Y013103D01*
X032658Y012953D01*
X032773Y012837D01*
X032924Y012775D01*
X033567Y012775D01*
X033718Y012837D01*
X033833Y012953D01*
X033896Y013103D01*
X033896Y013267D01*
X033833Y013417D01*
X033718Y013533D01*
X033567Y013595D01*
X032924Y013595D01*
X032720Y013479D02*
X031623Y013479D01*
X031623Y013381D02*
X032643Y013381D01*
X032602Y013282D02*
X031623Y013282D01*
X031623Y013184D02*
X032596Y013184D01*
X032603Y013085D02*
X031623Y013085D01*
X031623Y012987D02*
X032644Y012987D01*
X032723Y012888D02*
X031623Y012888D01*
X031623Y012790D02*
X032888Y012790D01*
X032924Y012595D02*
X032773Y012533D01*
X032658Y012417D01*
X032596Y012267D01*
X032596Y012103D01*
X032658Y011953D01*
X032773Y011837D01*
X032924Y011775D01*
X033567Y011775D01*
X033718Y011837D01*
X033833Y011953D01*
X033896Y012103D01*
X033896Y012267D01*
X033833Y012417D01*
X033718Y012533D01*
X033567Y012595D01*
X032924Y012595D01*
X032919Y012593D02*
X031623Y012593D01*
X031623Y012691D02*
X038515Y012691D01*
X038604Y012593D02*
X033572Y012593D01*
X033603Y012790D02*
X038417Y012790D01*
X038333Y012888D02*
X033769Y012888D01*
X033847Y012987D02*
X038333Y012987D01*
X038333Y013085D02*
X033888Y013085D01*
X033896Y013184D02*
X038333Y013184D01*
X038333Y013282D02*
X033889Y013282D01*
X033848Y013381D02*
X038393Y013381D01*
X038491Y013479D02*
X033771Y013479D01*
X032738Y013873D02*
X031623Y013873D01*
X031623Y013775D02*
X038432Y013775D01*
X038506Y012494D02*
X033756Y012494D01*
X033842Y012396D02*
X038407Y012396D01*
X038333Y012297D02*
X033883Y012297D01*
X033896Y012199D02*
X038333Y012199D01*
X038333Y012100D02*
X033894Y012100D01*
X033854Y012002D02*
X038333Y012002D01*
X038333Y011903D02*
X033784Y011903D01*
X033639Y011805D02*
X038402Y011805D01*
X038500Y011706D02*
X031623Y011706D01*
X031623Y011608D02*
X038599Y011608D01*
X038521Y011509D02*
X033741Y011509D01*
X033718Y011533D02*
X033567Y011595D01*
X032924Y011595D01*
X032773Y011533D01*
X032658Y011417D01*
X032596Y011267D01*
X032596Y011103D01*
X032658Y010953D01*
X032773Y010837D01*
X032924Y010775D01*
X033567Y010775D01*
X033718Y010837D01*
X033833Y010953D01*
X033896Y011103D01*
X033896Y011267D01*
X033833Y011417D01*
X033718Y011533D01*
X033836Y011411D02*
X038422Y011411D01*
X038333Y011312D02*
X033877Y011312D01*
X033896Y011214D02*
X038333Y011214D01*
X038333Y011115D02*
X033896Y011115D01*
X033860Y011017D02*
X038333Y011017D01*
X038333Y010918D02*
X033799Y010918D01*
X033676Y010820D02*
X038387Y010820D01*
X038485Y010721D02*
X032606Y010721D01*
X032705Y010623D02*
X038584Y010623D01*
X038536Y010524D02*
X032803Y010524D01*
X032902Y010426D02*
X038437Y010426D01*
X038339Y010327D02*
X033000Y010327D01*
X033099Y010229D02*
X038333Y010229D01*
X038333Y010130D02*
X033197Y010130D01*
X033296Y010032D02*
X038333Y010032D01*
X038333Y009933D02*
X035590Y009933D01*
X035761Y009835D02*
X038372Y009835D01*
X038470Y009736D02*
X035860Y009736D01*
X035904Y009638D02*
X038569Y009638D01*
X038551Y009539D02*
X035945Y009539D01*
X035948Y009441D02*
X038452Y009441D01*
X038354Y009342D02*
X035948Y009342D01*
X035918Y009244D02*
X038333Y009244D01*
X038333Y009145D02*
X035877Y009145D01*
X035794Y009047D02*
X038333Y009047D01*
X038333Y008948D02*
X035671Y008948D01*
X035746Y008850D02*
X038357Y008850D01*
X038369Y008751D02*
X035845Y008751D01*
X035146Y008948D02*
X032459Y008948D01*
X032450Y008952D02*
X032235Y008952D01*
X032036Y008870D01*
X031884Y008718D01*
X031802Y008520D01*
X031802Y008305D01*
X031884Y008106D01*
X032036Y007955D01*
X032138Y007912D01*
X032036Y007870D01*
X031884Y007718D01*
X031802Y007520D01*
X031802Y007305D01*
X031884Y007106D01*
X032036Y006955D01*
X032042Y006952D01*
X031902Y006952D01*
X031802Y006853D01*
X031802Y005972D01*
X031902Y005872D01*
X032783Y005872D01*
X032882Y005972D01*
X032882Y006853D01*
X032783Y006952D01*
X032643Y006952D01*
X032648Y006955D01*
X032800Y007106D01*
X032882Y007305D01*
X032882Y007520D01*
X032800Y007718D01*
X032648Y007870D01*
X032546Y007912D01*
X032648Y007955D01*
X032800Y008106D01*
X032882Y008305D01*
X032882Y008520D01*
X032800Y008718D01*
X032648Y008870D01*
X032450Y008952D01*
X032225Y008948D02*
X030496Y008948D01*
X030496Y008850D02*
X032016Y008850D01*
X031918Y008751D02*
X030496Y008751D01*
X030496Y008653D02*
X031857Y008653D01*
X031817Y008554D02*
X030496Y008554D01*
X030496Y008456D02*
X031802Y008456D01*
X031802Y008357D02*
X030496Y008357D01*
X030496Y008259D02*
X031821Y008259D01*
X031862Y008160D02*
X030496Y008160D01*
X030496Y008062D02*
X031929Y008062D01*
X032028Y007963D02*
X030496Y007963D01*
X030496Y007865D02*
X032031Y007865D01*
X031933Y007766D02*
X030496Y007766D01*
X030496Y007668D02*
X031864Y007668D01*
X031823Y007569D02*
X030496Y007569D01*
X030496Y007471D02*
X031802Y007471D01*
X031802Y007372D02*
X030496Y007372D01*
X030487Y007274D02*
X031815Y007274D01*
X031856Y007175D02*
X030430Y007175D01*
X030332Y007077D02*
X031914Y007077D01*
X032013Y006978D02*
X030233Y006978D01*
X030135Y006880D02*
X031829Y006880D01*
X031802Y006781D02*
X030036Y006781D01*
X029938Y006683D02*
X031802Y006683D01*
X031802Y006584D02*
X029846Y006584D01*
X029846Y006486D02*
X031802Y006486D01*
X031802Y006387D02*
X029846Y006387D01*
X029846Y006289D02*
X031802Y006289D01*
X031802Y006190D02*
X029846Y006190D01*
X029846Y006092D02*
X031802Y006092D01*
X031802Y005993D02*
X029846Y005993D01*
X029777Y005895D02*
X031879Y005895D01*
X032805Y005895D02*
X034957Y005895D01*
X034868Y005993D02*
X032882Y005993D01*
X032882Y006092D02*
X034868Y006092D01*
X034868Y006190D02*
X032882Y006190D01*
X032882Y006289D02*
X034868Y006289D01*
X034868Y006387D02*
X032882Y006387D01*
X032882Y006486D02*
X034868Y006486D01*
X034868Y006584D02*
X032882Y006584D01*
X032882Y006683D02*
X034868Y006683D01*
X034868Y006781D02*
X032882Y006781D01*
X032855Y006880D02*
X034883Y006880D01*
X034992Y007077D02*
X032770Y007077D01*
X032829Y007175D02*
X034927Y007175D01*
X034886Y007274D02*
X032869Y007274D01*
X032882Y007372D02*
X034868Y007372D01*
X034868Y007471D02*
X032882Y007471D01*
X032862Y007569D02*
X034884Y007569D01*
X034925Y007668D02*
X032821Y007668D01*
X032752Y007766D02*
X034987Y007766D01*
X035085Y007865D02*
X032653Y007865D01*
X032657Y007963D02*
X035110Y007963D01*
X035007Y008062D02*
X032755Y008062D01*
X032822Y008160D02*
X034933Y008160D01*
X034892Y008259D02*
X032863Y008259D01*
X032882Y008357D02*
X034868Y008357D01*
X034868Y008456D02*
X032882Y008456D01*
X032868Y008554D02*
X034878Y008554D01*
X034918Y008653D02*
X032827Y008653D01*
X032767Y008751D02*
X034972Y008751D01*
X035070Y008850D02*
X032668Y008850D01*
X033180Y009441D02*
X030496Y009441D01*
X030496Y009539D02*
X033081Y009539D01*
X032983Y009638D02*
X030496Y009638D01*
X030496Y009736D02*
X032884Y009736D01*
X032786Y009835D02*
X030496Y009835D01*
X030496Y009933D02*
X032687Y009933D01*
X032589Y010032D02*
X030496Y010032D01*
X030496Y010130D02*
X032490Y010130D01*
X032392Y010229D02*
X030496Y010229D01*
X030496Y010327D02*
X032293Y010327D01*
X032195Y010426D02*
X030496Y010426D01*
X030496Y010524D02*
X032096Y010524D01*
X031998Y010623D02*
X030496Y010623D01*
X030496Y010721D02*
X031899Y010721D01*
X031801Y010820D02*
X030676Y010820D01*
X030799Y010918D02*
X031702Y010918D01*
X032114Y011214D02*
X032596Y011214D01*
X032596Y011115D02*
X032212Y011115D01*
X032311Y011017D02*
X032632Y011017D01*
X032693Y010918D02*
X032409Y010918D01*
X032508Y010820D02*
X032816Y010820D01*
X032615Y011312D02*
X032015Y011312D01*
X031897Y011411D02*
X032656Y011411D01*
X032750Y011509D02*
X031623Y011509D01*
X031623Y011805D02*
X032852Y011805D01*
X032708Y011903D02*
X031623Y011903D01*
X031623Y012002D02*
X032638Y012002D01*
X032597Y012100D02*
X031623Y012100D01*
X031623Y012199D02*
X032596Y012199D01*
X032608Y012297D02*
X031623Y012297D01*
X031623Y012396D02*
X032649Y012396D01*
X032735Y012494D02*
X031623Y012494D01*
X031123Y012494D02*
X030756Y012494D01*
X030842Y012396D02*
X031123Y012396D01*
X031123Y012297D02*
X030883Y012297D01*
X030896Y012199D02*
X031123Y012199D01*
X031123Y012100D02*
X030894Y012100D01*
X030854Y012002D02*
X031123Y012002D01*
X031123Y011903D02*
X030784Y011903D01*
X030639Y011805D02*
X031123Y011805D01*
X031123Y011706D02*
X025678Y011706D01*
X025678Y011608D02*
X031123Y011608D01*
X031123Y011509D02*
X030741Y011509D01*
X029852Y011805D02*
X025933Y011805D01*
X026022Y011903D02*
X029708Y011903D01*
X029638Y012002D02*
X026022Y012002D01*
X026022Y012100D02*
X029597Y012100D01*
X029596Y012199D02*
X026022Y012199D01*
X026022Y012297D02*
X029608Y012297D01*
X029649Y012396D02*
X026022Y012396D01*
X025939Y012494D02*
X029735Y012494D01*
X029919Y012593D02*
X024536Y012593D01*
X024536Y012691D02*
X026791Y012691D01*
X026954Y012691D02*
X027103Y012753D01*
X027217Y012867D01*
X027279Y013017D01*
X027279Y013178D01*
X027245Y013261D01*
X027501Y013261D01*
X027466Y013178D01*
X027466Y013017D01*
X027528Y012867D01*
X027643Y012753D01*
X027792Y012691D01*
X027954Y012691D02*
X028103Y012753D01*
X028217Y012867D01*
X028255Y012958D01*
X028311Y012935D01*
X029676Y012935D01*
X029773Y012837D01*
X029924Y012775D01*
X030567Y012775D01*
X030603Y012790D02*
X031123Y012790D01*
X031123Y012888D02*
X030769Y012888D01*
X030847Y012987D02*
X031123Y012987D01*
X031123Y013085D02*
X030888Y013085D01*
X030896Y013184D02*
X031123Y013184D01*
X031123Y013282D02*
X030889Y013282D01*
X030848Y013381D02*
X031123Y013381D01*
X031123Y013479D02*
X030771Y013479D01*
X030609Y013578D02*
X031123Y013578D01*
X031123Y013676D02*
X028549Y013676D01*
X028604Y013578D02*
X029883Y013578D01*
X029720Y013479D02*
X028611Y013479D01*
X028801Y013873D02*
X029738Y013873D01*
X029773Y013837D02*
X029924Y013775D01*
X030567Y013775D01*
X030718Y013837D01*
X030833Y013953D01*
X030896Y014103D01*
X030896Y014267D01*
X030833Y014417D01*
X030718Y014533D01*
X030567Y014595D01*
X029924Y014595D01*
X029773Y014533D01*
X029658Y014417D01*
X029596Y014267D01*
X029044Y014267D01*
X029044Y014169D02*
X029596Y014169D01*
X029596Y014103D02*
X029658Y013953D01*
X029773Y013837D01*
X029650Y013972D02*
X028900Y013972D01*
X028998Y014070D02*
X029609Y014070D01*
X029596Y014103D02*
X029596Y014267D01*
X029637Y014366D02*
X029044Y014366D01*
X029044Y014464D02*
X029705Y014464D01*
X029847Y014563D02*
X029044Y014563D01*
X029044Y014661D02*
X031123Y014661D01*
X031123Y014563D02*
X030645Y014563D01*
X030786Y014464D02*
X031123Y014464D01*
X031123Y014366D02*
X030855Y014366D01*
X030895Y014267D02*
X031123Y014267D01*
X031123Y014169D02*
X030896Y014169D01*
X030882Y014070D02*
X031123Y014070D01*
X031123Y013972D02*
X030841Y013972D01*
X030754Y013873D02*
X031123Y013873D01*
X031123Y013775D02*
X028125Y013775D01*
X027621Y013775D02*
X027125Y013775D01*
X027220Y013873D02*
X027526Y013873D01*
X027485Y013972D02*
X027260Y013972D01*
X027279Y014070D02*
X027466Y014070D01*
X027466Y014169D02*
X027279Y014169D01*
X027242Y014267D02*
X027503Y014267D01*
X027567Y014366D02*
X027179Y014366D01*
X027048Y014464D02*
X027697Y014464D01*
X027792Y014691D02*
X027954Y014691D01*
X028103Y014753D01*
X028217Y014867D01*
X028279Y015017D01*
X028279Y015178D01*
X028217Y015327D01*
X028103Y015442D01*
X027954Y015504D01*
X027792Y015504D01*
X027643Y015442D01*
X027528Y015327D01*
X027466Y015178D01*
X027466Y015017D01*
X027528Y014867D01*
X027643Y014753D01*
X027792Y014691D01*
X027636Y014760D02*
X027110Y014760D01*
X027103Y014753D02*
X027217Y014867D01*
X027279Y015017D01*
X027279Y015178D01*
X027217Y015327D01*
X027103Y015442D01*
X026954Y015504D01*
X026792Y015504D01*
X026643Y015442D01*
X026528Y015327D01*
X026466Y015178D01*
X026466Y015017D01*
X026528Y014867D01*
X026643Y014753D01*
X026792Y014691D01*
X026954Y014691D01*
X027103Y014753D01*
X027208Y014858D02*
X027537Y014858D01*
X027491Y014957D02*
X027254Y014957D01*
X027279Y015055D02*
X027466Y015055D01*
X027466Y015154D02*
X027279Y015154D01*
X027248Y015252D02*
X027497Y015252D01*
X027552Y015351D02*
X027194Y015351D01*
X027084Y015449D02*
X027661Y015449D01*
X028084Y015449D02*
X028544Y015449D01*
X028544Y015351D02*
X028194Y015351D01*
X028248Y015252D02*
X028544Y015252D01*
X028544Y015154D02*
X028279Y015154D01*
X028279Y015055D02*
X028544Y015055D01*
X028544Y014957D02*
X028254Y014957D01*
X028208Y014858D02*
X028544Y014858D01*
X028544Y014760D02*
X028110Y014760D01*
X028048Y014464D02*
X028544Y014464D01*
X028544Y014366D02*
X028179Y014366D01*
X028544Y014563D02*
X024541Y014563D01*
X024443Y014464D02*
X026697Y014464D01*
X026567Y014366D02*
X024344Y014366D01*
X024310Y014267D02*
X026503Y014267D01*
X026466Y014169D02*
X024310Y014169D01*
X024386Y014070D02*
X026466Y014070D01*
X026485Y013972D02*
X024485Y013972D01*
X024536Y013873D02*
X026526Y013873D01*
X026621Y013775D02*
X024536Y013775D01*
X024536Y013676D02*
X026623Y013676D01*
X026623Y013578D02*
X024536Y013578D01*
X024536Y013479D02*
X026623Y013479D01*
X026582Y013381D02*
X024536Y013381D01*
X024536Y013282D02*
X026510Y013282D01*
X026469Y013184D02*
X024536Y013184D01*
X024536Y013085D02*
X026466Y013085D01*
X026479Y012987D02*
X024536Y012987D01*
X024536Y012888D02*
X026520Y012888D01*
X026606Y012790D02*
X024536Y012790D01*
X024536Y012494D02*
X025389Y012494D01*
X025306Y012396D02*
X024536Y012396D01*
X024536Y012297D02*
X025306Y012297D01*
X025306Y012199D02*
X024536Y012199D01*
X024536Y012100D02*
X025258Y012100D01*
X025193Y012002D02*
X024536Y012002D01*
X024536Y011903D02*
X025178Y011903D01*
X025178Y011805D02*
X024536Y011805D01*
X024536Y011706D02*
X025178Y011706D01*
X025178Y011608D02*
X024480Y011608D01*
X024076Y011989D02*
X020051Y011989D01*
X019384Y012656D01*
X019384Y012700D01*
X019297Y012910D01*
X019137Y013070D01*
X018975Y013137D01*
X019137Y013204D01*
X019297Y013364D01*
X019339Y013465D01*
X019816Y013472D01*
X019867Y013350D01*
X019981Y013235D01*
X020130Y013173D01*
X020292Y013173D01*
X020441Y013235D01*
X020477Y013271D01*
X020982Y012765D01*
X020951Y012689D01*
X020951Y012474D01*
X021033Y012276D01*
X021185Y012124D01*
X021383Y012042D01*
X021598Y012042D01*
X021797Y012124D01*
X021949Y012276D01*
X022031Y012474D01*
X022031Y012689D01*
X021949Y012888D01*
X021797Y013039D01*
X021598Y013122D01*
X021383Y013122D01*
X021308Y013090D01*
X020588Y013810D01*
X020556Y013810D01*
X020441Y013924D01*
X020369Y013954D01*
X020441Y013984D01*
X020556Y014098D01*
X020618Y014248D01*
X020618Y014409D01*
X020556Y014559D01*
X020441Y014673D01*
X020395Y014692D01*
X020441Y014712D01*
X020556Y014826D01*
X021060Y014826D01*
X021308Y015073D01*
X021383Y015042D01*
X021544Y015042D01*
X023416Y013170D01*
X023416Y012878D01*
X023516Y012779D01*
X024033Y012779D01*
X024076Y012822D01*
X024076Y011989D01*
X024076Y012002D02*
X020038Y012002D01*
X019939Y012100D02*
X021242Y012100D01*
X021110Y012199D02*
X019841Y012199D01*
X019742Y012297D02*
X021024Y012297D01*
X020983Y012396D02*
X019644Y012396D01*
X019545Y012494D02*
X020951Y012494D01*
X020951Y012593D02*
X019447Y012593D01*
X019384Y012691D02*
X020952Y012691D01*
X020957Y012790D02*
X019346Y012790D01*
X019306Y012888D02*
X020859Y012888D01*
X020760Y012987D02*
X019220Y012987D01*
X019099Y013085D02*
X020662Y013085D01*
X020563Y013184D02*
X020317Y013184D01*
X020105Y013184D02*
X019089Y013184D01*
X019215Y013282D02*
X019934Y013282D01*
X019854Y013381D02*
X019304Y013381D01*
X019332Y013925D02*
X019297Y014010D01*
X019137Y014170D01*
X018927Y014257D01*
X018700Y014257D01*
X018491Y014170D01*
X018394Y014073D01*
X018394Y014503D01*
X018471Y014426D01*
X018681Y014340D01*
X018907Y014340D01*
X019117Y014426D01*
X019277Y014587D01*
X019316Y014680D01*
X019997Y014680D01*
X019981Y014673D01*
X019867Y014559D01*
X019805Y014409D01*
X019805Y014248D01*
X019867Y014098D01*
X019981Y013984D01*
X020054Y013954D01*
X020011Y013936D01*
X019989Y013936D01*
X019988Y013935D01*
X019332Y013925D01*
X019313Y013972D02*
X020011Y013972D01*
X019895Y014070D02*
X019236Y014070D01*
X019138Y014169D02*
X019838Y014169D01*
X019805Y014267D02*
X018394Y014267D01*
X018394Y014169D02*
X018490Y014169D01*
X018394Y014366D02*
X018617Y014366D01*
X018433Y014464D02*
X018394Y014464D01*
X017934Y014464D02*
X017141Y014464D01*
X017052Y014366D02*
X017934Y014366D01*
X017934Y014267D02*
X017151Y014267D01*
X017249Y014169D02*
X017934Y014169D01*
X017934Y014070D02*
X017348Y014070D01*
X017446Y013972D02*
X017934Y013972D01*
X017934Y013873D02*
X017524Y013873D01*
X017548Y013775D02*
X017934Y013775D01*
X017934Y013676D02*
X017548Y013676D01*
X017548Y013578D02*
X017934Y013578D01*
X017934Y013479D02*
X017548Y013479D01*
X017548Y013381D02*
X017934Y013381D01*
X017934Y013282D02*
X017548Y013282D01*
X017548Y013184D02*
X017934Y013184D01*
X017934Y013085D02*
X017548Y013085D01*
X017616Y012987D02*
X017931Y012987D01*
X017951Y012888D02*
X017714Y012888D01*
X017813Y012790D02*
X018049Y012790D01*
X018064Y012691D02*
X018221Y012691D01*
X018244Y012593D02*
X018147Y012593D01*
X018188Y012494D02*
X018244Y012494D01*
X018276Y012396D02*
X018188Y012396D01*
X018161Y012297D02*
X018317Y012297D01*
X018395Y012199D02*
X018098Y012199D01*
X017942Y012100D02*
X018498Y012100D01*
X019129Y012100D02*
X019289Y012100D01*
X019387Y012002D02*
X015028Y012002D01*
X015028Y012100D02*
X017756Y012100D01*
X017600Y012199D02*
X015028Y012199D01*
X015028Y012297D02*
X017537Y012297D01*
X017511Y012396D02*
X015028Y012396D01*
X015028Y012494D02*
X017458Y012494D01*
X017359Y012593D02*
X015028Y012593D01*
X015028Y012691D02*
X017261Y012691D01*
X017134Y012790D02*
X015028Y012790D01*
X015028Y012888D02*
X017065Y012888D01*
X017048Y012987D02*
X015028Y012987D01*
X015028Y013085D02*
X017048Y013085D01*
X017048Y013184D02*
X015028Y013184D01*
X015028Y013282D02*
X017048Y013282D01*
X017048Y013381D02*
X015028Y013381D01*
X015028Y013479D02*
X017048Y013479D01*
X017048Y013578D02*
X015028Y013578D01*
X015028Y013676D02*
X017035Y013676D01*
X016936Y013775D02*
X015028Y013775D01*
X015028Y013873D02*
X016838Y013873D01*
X016739Y013972D02*
X015028Y013972D01*
X015028Y014070D02*
X016641Y014070D01*
X016542Y014169D02*
X015028Y014169D01*
X015028Y014267D02*
X016444Y014267D01*
X016345Y014366D02*
X015028Y014366D01*
X015028Y014464D02*
X016247Y014464D01*
X016148Y014563D02*
X015028Y014563D01*
X015028Y014661D02*
X016050Y014661D01*
X015951Y014760D02*
X015028Y014760D01*
X015028Y014858D02*
X015853Y014858D01*
X015754Y014957D02*
X015028Y014957D01*
X015028Y015055D02*
X015656Y015055D01*
X015557Y015154D02*
X015028Y015154D01*
X015028Y015252D02*
X015459Y015252D01*
X015360Y015351D02*
X015028Y015351D01*
X015028Y015449D02*
X015262Y015449D01*
X015163Y015548D02*
X015028Y015548D01*
X015028Y015646D02*
X015065Y015646D01*
X014568Y015646D02*
X014555Y015646D01*
X014555Y015548D02*
X014568Y015548D01*
X014555Y015449D02*
X014568Y015449D01*
X014555Y015351D02*
X014568Y015351D01*
X014555Y015252D02*
X014568Y015252D01*
X014555Y015154D02*
X014568Y015154D01*
X014555Y015055D02*
X014568Y015055D01*
X014555Y014957D02*
X014568Y014957D01*
X014555Y014858D02*
X014568Y014858D01*
X014555Y014760D02*
X014568Y014760D01*
X014555Y014661D02*
X014568Y014661D01*
X014555Y014563D02*
X014568Y014563D01*
X014555Y014464D02*
X014568Y014464D01*
X014555Y014366D02*
X014568Y014366D01*
X014555Y014267D02*
X014568Y014267D01*
X014555Y014169D02*
X014568Y014169D01*
X014555Y014070D02*
X014568Y014070D01*
X014555Y013972D02*
X014568Y013972D01*
X014555Y013873D02*
X014568Y013873D01*
X014555Y013775D02*
X014568Y013775D01*
X014555Y013676D02*
X014568Y013676D01*
X014555Y013578D02*
X014568Y013578D01*
X014555Y013479D02*
X014568Y013479D01*
X014555Y013381D02*
X014568Y013381D01*
X014555Y013282D02*
X014568Y013282D01*
X014555Y013184D02*
X014568Y013184D01*
X014555Y013085D02*
X014568Y013085D01*
X014555Y012987D02*
X014568Y012987D01*
X014555Y012888D02*
X014568Y012888D01*
X014555Y012790D02*
X014568Y012790D01*
X014555Y012691D02*
X014568Y012691D01*
X014555Y012593D02*
X014568Y012593D01*
X014555Y012494D02*
X014568Y012494D01*
X014555Y012396D02*
X014568Y012396D01*
X014555Y012297D02*
X014568Y012297D01*
X014555Y012199D02*
X014568Y012199D01*
X014555Y012100D02*
X014568Y012100D01*
X014555Y012002D02*
X014568Y012002D01*
X014555Y011903D02*
X014568Y011903D01*
X014555Y011805D02*
X014568Y011805D01*
X014555Y011706D02*
X014568Y011706D01*
X014555Y011608D02*
X014568Y011608D01*
X014555Y011509D02*
X014568Y011509D01*
X014555Y011411D02*
X014568Y011411D01*
X014555Y011312D02*
X014568Y011312D01*
X014555Y011214D02*
X014568Y011214D01*
X014555Y011115D02*
X014568Y011115D01*
X014555Y011017D02*
X014568Y011017D01*
X014555Y010918D02*
X014568Y010918D01*
X014555Y010820D02*
X014568Y010820D01*
X014555Y010721D02*
X014568Y010721D01*
X014555Y010623D02*
X014568Y010623D01*
X014555Y010524D02*
X014568Y010524D01*
X014555Y010426D02*
X014568Y010426D01*
X014555Y010327D02*
X014568Y010327D01*
X014555Y010229D02*
X014568Y010229D01*
X014555Y010130D02*
X014568Y010130D01*
X014555Y010032D02*
X014568Y010032D01*
X014555Y009933D02*
X014568Y009933D01*
X014555Y009835D02*
X014568Y009835D01*
X014555Y009736D02*
X014568Y009736D01*
X014555Y009638D02*
X014568Y009638D01*
X014555Y009539D02*
X014568Y009539D01*
X014555Y009441D02*
X014568Y009441D01*
X014555Y009342D02*
X014568Y009342D01*
X014555Y009244D02*
X014568Y009244D01*
X014555Y009145D02*
X014568Y009145D01*
X014555Y009047D02*
X014568Y009047D01*
X014555Y008948D02*
X014568Y008948D01*
X014555Y008850D02*
X014568Y008850D01*
X014555Y008751D02*
X014568Y008751D01*
X014555Y008653D02*
X014568Y008653D01*
X014555Y008554D02*
X014568Y008554D01*
X014555Y008456D02*
X014568Y008456D01*
X014555Y008357D02*
X014568Y008357D01*
X014555Y008259D02*
X014568Y008259D01*
X014555Y008160D02*
X014568Y008160D01*
X014555Y008062D02*
X014568Y008062D01*
X014555Y007963D02*
X014568Y007963D01*
X014555Y007865D02*
X014568Y007865D01*
X014555Y007766D02*
X014568Y007766D01*
X014555Y007668D02*
X014568Y007668D01*
X014555Y007569D02*
X014568Y007569D01*
X014568Y007471D02*
X014477Y007471D01*
X014568Y007372D02*
X014378Y007372D01*
X014280Y007274D02*
X014568Y007274D01*
X014568Y007175D02*
X014181Y007175D01*
X014083Y007077D02*
X014476Y007077D01*
X014377Y006978D02*
X013984Y006978D01*
X013886Y006880D02*
X014279Y006880D01*
X014180Y006781D02*
X013787Y006781D01*
X015028Y007668D02*
X019724Y007668D01*
X019809Y007766D02*
X015028Y007766D01*
X015028Y007865D02*
X019939Y007865D01*
X019849Y007963D02*
X015028Y007963D01*
X015028Y008062D02*
X019751Y008062D01*
X019700Y008160D02*
X015028Y008160D01*
X015028Y008259D02*
X019659Y008259D01*
X019652Y008357D02*
X015028Y008357D01*
X015028Y008456D02*
X019652Y008456D01*
X019677Y008554D02*
X015028Y008554D01*
X015028Y008653D02*
X019718Y008653D01*
X019794Y008751D02*
X015028Y008751D01*
X015028Y008850D02*
X019903Y008850D01*
X020480Y008850D02*
X022905Y008850D01*
X022806Y008751D02*
X020589Y008751D01*
X020665Y008653D02*
X022741Y008653D01*
X023541Y008850D02*
X025178Y008850D01*
X025178Y008948D02*
X015028Y008948D01*
X015028Y009047D02*
X025178Y009047D01*
X025178Y009145D02*
X015028Y009145D01*
X015028Y009244D02*
X025178Y009244D01*
X025178Y009342D02*
X015028Y009342D01*
X015028Y009441D02*
X016710Y009441D01*
X016790Y009408D02*
X017005Y009408D01*
X017203Y009490D01*
X017355Y009642D01*
X017437Y009840D01*
X017437Y010055D01*
X017355Y010254D01*
X017203Y010406D01*
X017101Y010448D01*
X017203Y010490D01*
X017355Y010642D01*
X017437Y010840D01*
X017437Y011055D01*
X017355Y011254D01*
X017203Y011406D01*
X017005Y011488D01*
X016790Y011488D01*
X016591Y011406D01*
X016439Y011254D01*
X016357Y011055D01*
X016357Y010840D01*
X016439Y010642D01*
X016591Y010490D01*
X016693Y010448D01*
X016591Y010406D01*
X016439Y010254D01*
X016357Y010055D01*
X016357Y009840D01*
X016439Y009642D01*
X016591Y009490D01*
X016790Y009408D01*
X016542Y009539D02*
X015028Y009539D01*
X015028Y009638D02*
X016443Y009638D01*
X016400Y009736D02*
X015028Y009736D01*
X015028Y009835D02*
X016359Y009835D01*
X016357Y009933D02*
X015028Y009933D01*
X015028Y010032D02*
X016357Y010032D01*
X016388Y010130D02*
X015028Y010130D01*
X015028Y010229D02*
X016429Y010229D01*
X016513Y010327D02*
X015028Y010327D01*
X015028Y010426D02*
X016640Y010426D01*
X016557Y010524D02*
X015028Y010524D01*
X015028Y010623D02*
X016458Y010623D01*
X016406Y010721D02*
X015028Y010721D01*
X015028Y010820D02*
X016366Y010820D01*
X016357Y010918D02*
X015028Y010918D01*
X015028Y011017D02*
X016357Y011017D01*
X016382Y011115D02*
X015028Y011115D01*
X015028Y011214D02*
X016423Y011214D01*
X016498Y011312D02*
X015028Y011312D01*
X015028Y011411D02*
X016604Y011411D01*
X017190Y011411D02*
X025178Y011411D01*
X025178Y011509D02*
X015028Y011509D01*
X015028Y011608D02*
X019781Y011608D01*
X019683Y011706D02*
X015028Y011706D01*
X015028Y011805D02*
X019584Y011805D01*
X019486Y011903D02*
X015028Y011903D01*
X017296Y011312D02*
X025178Y011312D01*
X025178Y011214D02*
X017371Y011214D01*
X017412Y011115D02*
X025178Y011115D01*
X025178Y011017D02*
X017437Y011017D01*
X017437Y010918D02*
X025178Y010918D01*
X025178Y010820D02*
X017429Y010820D01*
X017388Y010721D02*
X025178Y010721D01*
X025178Y010623D02*
X017336Y010623D01*
X017237Y010524D02*
X025178Y010524D01*
X025178Y010426D02*
X017154Y010426D01*
X017281Y010327D02*
X025178Y010327D01*
X025178Y010229D02*
X017365Y010229D01*
X017406Y010130D02*
X025178Y010130D01*
X025178Y010032D02*
X017437Y010032D01*
X017437Y009933D02*
X025178Y009933D01*
X025178Y009835D02*
X017435Y009835D01*
X017394Y009736D02*
X025178Y009736D01*
X025178Y009638D02*
X017351Y009638D01*
X017252Y009539D02*
X025178Y009539D01*
X025178Y009441D02*
X017084Y009441D01*
X021740Y012100D02*
X024076Y012100D01*
X024076Y012199D02*
X021872Y012199D01*
X021958Y012297D02*
X024076Y012297D01*
X024076Y012396D02*
X021998Y012396D01*
X022031Y012494D02*
X024076Y012494D01*
X024076Y012593D02*
X022031Y012593D01*
X022030Y012691D02*
X024076Y012691D01*
X024076Y012790D02*
X024044Y012790D01*
X023505Y012790D02*
X021989Y012790D01*
X021948Y012888D02*
X023416Y012888D01*
X023416Y012987D02*
X021849Y012987D01*
X021686Y013085D02*
X023416Y013085D01*
X023402Y013184D02*
X021214Y013184D01*
X021115Y013282D02*
X023303Y013282D01*
X023205Y013381D02*
X021017Y013381D01*
X020918Y013479D02*
X023106Y013479D01*
X023008Y013578D02*
X020820Y013578D01*
X020721Y013676D02*
X022909Y013676D01*
X022811Y013775D02*
X020623Y013775D01*
X020556Y013810D02*
X020556Y013810D01*
X020492Y013873D02*
X022712Y013873D01*
X022614Y013972D02*
X020412Y013972D01*
X020528Y014070D02*
X022515Y014070D01*
X022417Y014169D02*
X020585Y014169D01*
X020618Y014267D02*
X022318Y014267D01*
X022220Y014366D02*
X020618Y014366D01*
X020595Y014464D02*
X022121Y014464D01*
X022023Y014563D02*
X020551Y014563D01*
X020453Y014661D02*
X021924Y014661D01*
X021826Y014760D02*
X020490Y014760D01*
X020556Y014826D02*
X020556Y014826D01*
X021093Y014858D02*
X021727Y014858D01*
X021629Y014957D02*
X021191Y014957D01*
X021290Y015055D02*
X021350Y015055D01*
X020982Y015398D02*
X020870Y015286D01*
X020556Y015286D01*
X020556Y015286D01*
X020441Y015400D01*
X020292Y015462D01*
X020130Y015462D01*
X019981Y015400D01*
X019867Y015286D01*
X019806Y015140D01*
X019316Y015140D01*
X019277Y015232D01*
X019117Y015393D01*
X018956Y015460D01*
X019117Y015526D01*
X019277Y015687D01*
X019364Y015896D01*
X019364Y016123D01*
X019277Y016332D01*
X019117Y016493D01*
X018907Y016580D01*
X018681Y016580D01*
X018471Y016493D01*
X018311Y016332D01*
X018224Y016123D01*
X018109Y016039D01*
X018109Y016132D01*
X018009Y016231D01*
X017718Y016231D01*
X016869Y017080D01*
X016869Y017198D01*
X019773Y017198D01*
X019766Y017181D01*
X019766Y016966D01*
X019848Y016768D01*
X020000Y016616D01*
X020198Y016534D01*
X020249Y016534D01*
X020473Y016309D01*
X020608Y016174D01*
X024321Y016174D01*
X024273Y016126D01*
X024214Y016067D01*
X024214Y014886D01*
X023866Y014538D01*
X023693Y014538D01*
X023593Y014439D01*
X023593Y013922D01*
X023693Y013822D01*
X023984Y013822D01*
X024076Y013730D01*
X024076Y013452D01*
X024033Y013495D01*
X023741Y013495D01*
X021952Y015284D01*
X022031Y015474D01*
X022031Y015689D01*
X021949Y015888D01*
X021797Y016039D01*
X021598Y016122D01*
X021383Y016122D01*
X021185Y016039D01*
X021033Y015888D01*
X020951Y015689D01*
X020951Y015474D01*
X020982Y015398D01*
X020961Y015449D02*
X020323Y015449D01*
X020491Y015351D02*
X020935Y015351D01*
X020951Y015548D02*
X019138Y015548D01*
X019237Y015646D02*
X020951Y015646D01*
X020974Y015745D02*
X019301Y015745D01*
X019342Y015843D02*
X021015Y015843D01*
X021087Y015942D02*
X019364Y015942D01*
X019364Y016040D02*
X021187Y016040D01*
X020545Y016237D02*
X019317Y016237D01*
X019357Y016139D02*
X024286Y016139D01*
X024214Y016040D02*
X021794Y016040D01*
X021894Y015942D02*
X024214Y015942D01*
X024214Y015843D02*
X021967Y015843D01*
X022008Y015745D02*
X024214Y015745D01*
X024214Y015646D02*
X022031Y015646D01*
X022031Y015548D02*
X024214Y015548D01*
X024214Y015449D02*
X022021Y015449D01*
X021980Y015351D02*
X024214Y015351D01*
X024214Y015252D02*
X021984Y015252D01*
X022082Y015154D02*
X024214Y015154D01*
X024214Y015055D02*
X022181Y015055D01*
X022279Y014957D02*
X024214Y014957D01*
X024186Y014858D02*
X022378Y014858D01*
X022476Y014760D02*
X024088Y014760D01*
X023989Y014661D02*
X022575Y014661D01*
X022673Y014563D02*
X023891Y014563D01*
X023619Y014464D02*
X022772Y014464D01*
X022870Y014366D02*
X023593Y014366D01*
X023593Y014267D02*
X022969Y014267D01*
X023067Y014169D02*
X023593Y014169D01*
X023593Y014070D02*
X023166Y014070D01*
X023264Y013972D02*
X023593Y013972D01*
X023642Y013873D02*
X023363Y013873D01*
X023461Y013775D02*
X024031Y013775D01*
X024076Y013676D02*
X023560Y013676D01*
X023658Y013578D02*
X024076Y013578D01*
X024076Y013479D02*
X024048Y013479D01*
X024401Y014056D02*
X024401Y014056D01*
X024640Y014661D02*
X028544Y014661D01*
X029044Y014760D02*
X031123Y014760D01*
X031123Y014858D02*
X029044Y014858D01*
X029044Y014957D02*
X031123Y014957D01*
X031123Y015055D02*
X029044Y015055D01*
X029044Y015154D02*
X031123Y015154D01*
X031123Y015252D02*
X029044Y015252D01*
X029044Y015351D02*
X031123Y015351D01*
X031123Y015449D02*
X029044Y015449D01*
X029118Y015548D02*
X029850Y015548D01*
X029669Y015646D02*
X029216Y015646D01*
X029315Y015745D02*
X029584Y015745D01*
X029544Y015843D02*
X029413Y015843D01*
X029512Y015942D02*
X029532Y015942D01*
X029199Y016336D02*
X026829Y016336D01*
X026829Y016434D02*
X029297Y016434D01*
X029396Y016533D02*
X026829Y016533D01*
X026829Y016631D02*
X027433Y016631D01*
X027449Y016616D02*
X027647Y016534D01*
X027862Y016534D01*
X028060Y016616D01*
X028212Y016768D01*
X028295Y016966D01*
X028295Y017181D01*
X028212Y017380D01*
X028060Y017532D01*
X027862Y017614D01*
X027647Y017614D01*
X027449Y017532D01*
X027297Y017380D01*
X027215Y017181D01*
X027215Y016966D01*
X027297Y016768D01*
X027449Y016616D01*
X027335Y016730D02*
X026829Y016730D01*
X026782Y016828D02*
X027272Y016828D01*
X027231Y016927D02*
X026733Y016927D01*
X026736Y017025D02*
X027215Y017025D01*
X027215Y017124D02*
X026739Y017124D01*
X026742Y017222D02*
X027232Y017222D01*
X027272Y017321D02*
X026745Y017321D01*
X026748Y017419D02*
X027337Y017419D01*
X027435Y017518D02*
X026751Y017518D01*
X026754Y017616D02*
X029699Y017616D01*
X029710Y017606D02*
X029860Y017544D01*
X030503Y017544D01*
X030654Y017606D01*
X030769Y017721D01*
X030832Y017872D01*
X030832Y018035D01*
X030769Y018186D01*
X030654Y018301D01*
X030503Y018364D01*
X029860Y018364D01*
X029710Y018301D01*
X029594Y018186D01*
X029532Y018035D01*
X029532Y017872D01*
X029594Y017721D01*
X029710Y017606D01*
X029601Y017715D02*
X026757Y017715D01*
X026760Y017813D02*
X029556Y017813D01*
X029532Y017912D02*
X026763Y017912D01*
X026766Y018010D02*
X029532Y018010D01*
X029562Y018109D02*
X026769Y018109D01*
X026771Y018207D02*
X029616Y018207D01*
X029721Y018306D02*
X026774Y018306D01*
X026777Y018404D02*
X031228Y018404D01*
X031231Y018408D02*
X032755Y019932D01*
X032755Y019932D01*
X032826Y020002D01*
X032917Y020040D01*
X033509Y020040D01*
X033601Y020002D01*
X034211Y019392D01*
X034211Y019392D01*
X034281Y019322D01*
X034320Y019230D01*
X034320Y018792D01*
X034281Y018700D01*
X034320Y018798D02*
X034878Y018798D01*
X034976Y018897D02*
X034320Y018897D01*
X034320Y018995D02*
X035075Y018995D01*
X035173Y019094D02*
X034320Y019094D01*
X034320Y019192D02*
X035272Y019192D01*
X035370Y019291D02*
X034294Y019291D01*
X034214Y019389D02*
X035469Y019389D01*
X035498Y019418D02*
X034684Y018605D01*
X034683Y018601D02*
X034183Y018601D01*
X034084Y018503D02*
X034646Y018503D01*
X034646Y018404D02*
X033986Y018404D01*
X033887Y018306D02*
X034646Y018306D01*
X034646Y018207D02*
X033789Y018207D01*
X033801Y018109D02*
X034646Y018109D01*
X034646Y018010D02*
X033832Y018010D01*
X033832Y017912D02*
X034646Y017912D01*
X034646Y017813D02*
X033807Y017813D01*
X033763Y017715D02*
X034646Y017715D01*
X034646Y017616D02*
X033664Y017616D01*
X033607Y017321D02*
X034396Y017321D01*
X034298Y017222D02*
X033733Y017222D01*
X034495Y017419D02*
X032489Y017419D01*
X032489Y017321D02*
X032757Y017321D01*
X032631Y017222D02*
X032489Y017222D01*
X032489Y017124D02*
X032568Y017124D01*
X032532Y017025D02*
X032489Y017025D01*
X032489Y016927D02*
X032532Y016927D01*
X032550Y016828D02*
X032489Y016828D01*
X032489Y016730D02*
X032591Y016730D01*
X032684Y016631D02*
X032489Y016631D01*
X032489Y016533D02*
X038545Y016533D01*
X038446Y016434D02*
X032503Y016434D01*
X032602Y016336D02*
X032793Y016336D01*
X032289Y015942D02*
X031623Y015942D01*
X031623Y016040D02*
X032190Y016040D01*
X032092Y016139D02*
X031623Y016139D01*
X031623Y016237D02*
X032013Y016237D01*
X031989Y016336D02*
X031623Y016336D01*
X031623Y016434D02*
X031989Y016434D01*
X031989Y016533D02*
X031623Y016533D01*
X031623Y016631D02*
X031989Y016631D01*
X031989Y016730D02*
X031623Y016730D01*
X031623Y016828D02*
X031989Y016828D01*
X031989Y016927D02*
X031623Y016927D01*
X031623Y017025D02*
X031989Y017025D01*
X031989Y017124D02*
X031623Y017124D01*
X031623Y017222D02*
X031989Y017222D01*
X031989Y017321D02*
X031623Y017321D01*
X031623Y017419D02*
X031989Y017419D01*
X031989Y017518D02*
X031623Y017518D01*
X031623Y017616D02*
X031989Y017616D01*
X031989Y017715D02*
X031623Y017715D01*
X031623Y017813D02*
X031989Y017813D01*
X031989Y017912D02*
X031623Y017912D01*
X031623Y018010D02*
X031989Y018010D01*
X031989Y018109D02*
X031639Y018109D01*
X031738Y018207D02*
X031989Y018207D01*
X031989Y018306D02*
X031836Y018306D01*
X031935Y018404D02*
X031989Y018404D01*
X032489Y018404D02*
X033279Y018404D01*
X033377Y018503D02*
X032489Y018503D01*
X032565Y018601D02*
X032721Y018601D01*
X032721Y018306D02*
X032489Y018306D01*
X032489Y018207D02*
X032616Y018207D01*
X032562Y018109D02*
X032489Y018109D01*
X032489Y018010D02*
X032532Y018010D01*
X032532Y017912D02*
X032489Y017912D01*
X032489Y017813D02*
X032556Y017813D01*
X032601Y017715D02*
X032489Y017715D01*
X032489Y017616D02*
X032699Y017616D01*
X032489Y017518D02*
X034593Y017518D01*
X035146Y017715D02*
X038492Y017715D01*
X038393Y017813D02*
X035146Y017813D01*
X035146Y017912D02*
X038333Y017912D01*
X038333Y018010D02*
X035146Y018010D01*
X035146Y018109D02*
X035507Y018109D01*
X035474Y018207D02*
X035146Y018207D01*
X035146Y018306D02*
X035474Y018306D01*
X035474Y018404D02*
X035191Y018404D01*
X035289Y018503D02*
X035474Y018503D01*
X035474Y018601D02*
X035388Y018601D01*
X036389Y019192D02*
X038333Y019192D01*
X038333Y019094D02*
X036483Y019094D01*
X036554Y018995D02*
X038333Y018995D01*
X038333Y018897D02*
X036554Y018897D01*
X036554Y018798D02*
X038408Y018798D01*
X038507Y018700D02*
X036554Y018700D01*
X036554Y018601D02*
X038605Y018601D01*
X038515Y018503D02*
X036554Y018503D01*
X036554Y018404D02*
X038416Y018404D01*
X038333Y018306D02*
X036554Y018306D01*
X036554Y018207D02*
X038333Y018207D01*
X038333Y018109D02*
X036522Y018109D01*
X036478Y019291D02*
X038333Y019291D01*
X038401Y019389D02*
X036519Y019389D01*
X036554Y019488D02*
X038500Y019488D01*
X038598Y019586D02*
X036554Y019586D01*
X036554Y019685D02*
X038522Y019685D01*
X038423Y019783D02*
X036515Y019783D01*
X036475Y019882D02*
X038333Y019882D01*
X038333Y019980D02*
X036379Y019980D01*
X036225Y020079D02*
X038333Y020079D01*
X038386Y020374D02*
X036513Y020374D01*
X036554Y020473D02*
X038485Y020473D01*
X038583Y020571D02*
X036554Y020571D01*
X036554Y020670D02*
X038537Y020670D01*
X038438Y020768D02*
X036522Y020768D01*
X036481Y020867D02*
X038340Y020867D01*
X038333Y020965D02*
X036394Y020965D01*
X035810Y020082D02*
X035709Y020039D01*
X035557Y019888D01*
X035474Y019689D01*
X035474Y019474D01*
X035498Y019418D01*
X035474Y019488D02*
X034115Y019488D01*
X034017Y019586D02*
X035474Y019586D01*
X035474Y019685D02*
X033918Y019685D01*
X033820Y019783D02*
X035514Y019783D01*
X035554Y019882D02*
X033721Y019882D01*
X033623Y019980D02*
X035649Y019980D01*
X035709Y020124D02*
X035810Y020082D01*
X035804Y020079D02*
X028306Y020079D01*
X028208Y019980D02*
X032804Y019980D01*
X032705Y019882D02*
X028109Y019882D01*
X028086Y019783D02*
X032607Y019783D01*
X032508Y019685D02*
X028086Y019685D01*
X028086Y019586D02*
X032410Y019586D01*
X032311Y019488D02*
X028086Y019488D01*
X028027Y019389D02*
X032213Y019389D01*
X032114Y019291D02*
X030664Y019291D01*
X030763Y019192D02*
X032016Y019192D01*
X031917Y019094D02*
X030807Y019094D01*
X030832Y018995D02*
X031819Y018995D01*
X031720Y018897D02*
X030832Y018897D01*
X030801Y018798D02*
X031622Y018798D01*
X031523Y018700D02*
X030748Y018700D01*
X030643Y018601D02*
X031425Y018601D01*
X031148Y018306D02*
X030643Y018306D01*
X030748Y018207D02*
X031123Y018207D01*
X031123Y018109D02*
X030801Y018109D01*
X030832Y018010D02*
X031123Y018010D01*
X031123Y017912D02*
X030832Y017912D01*
X030807Y017813D02*
X031123Y017813D01*
X031123Y017715D02*
X030763Y017715D01*
X030664Y017616D02*
X031123Y017616D01*
X031123Y017518D02*
X028074Y017518D01*
X028173Y017419D02*
X031123Y017419D01*
X031123Y017321D02*
X030607Y017321D01*
X030733Y017222D02*
X031123Y017222D01*
X031123Y017124D02*
X030795Y017124D01*
X030832Y017025D02*
X031123Y017025D01*
X031123Y016927D02*
X030832Y016927D01*
X030814Y016828D02*
X031123Y016828D01*
X031123Y016730D02*
X030773Y016730D01*
X030679Y016631D02*
X031123Y016631D01*
X031123Y016533D02*
X030103Y016533D01*
X030004Y016434D02*
X031123Y016434D01*
X031123Y016336D02*
X030570Y016336D01*
X030718Y016237D02*
X031123Y016237D01*
X031623Y015843D02*
X032387Y015843D01*
X032506Y015745D02*
X031623Y015745D01*
X031623Y015646D02*
X032669Y015646D01*
X032850Y015548D02*
X031623Y015548D01*
X031623Y015449D02*
X032932Y015449D01*
X032932Y015351D02*
X031623Y015351D01*
X031623Y015252D02*
X032932Y015252D01*
X032932Y015154D02*
X031623Y015154D01*
X031623Y015055D02*
X032932Y015055D01*
X032932Y014957D02*
X031623Y014957D01*
X031623Y014858D02*
X032932Y014858D01*
X032932Y014760D02*
X031623Y014760D01*
X031623Y014661D02*
X032932Y014661D01*
X032847Y014563D02*
X031623Y014563D01*
X031623Y014464D02*
X032705Y014464D01*
X032637Y014366D02*
X031623Y014366D01*
X031623Y014070D02*
X032609Y014070D01*
X032596Y014103D02*
X032596Y014267D01*
X032650Y013972D02*
X031623Y013972D01*
X029888Y012790D02*
X028140Y012790D01*
X028226Y012888D02*
X029723Y012888D01*
X029750Y011509D02*
X025678Y011509D01*
X025678Y011411D02*
X029656Y011411D01*
X029615Y011312D02*
X025678Y011312D01*
X025678Y011214D02*
X029596Y011214D01*
X029596Y011115D02*
X025678Y011115D01*
X025678Y011017D02*
X029632Y011017D01*
X029693Y010918D02*
X025678Y010918D01*
X025678Y010820D02*
X029816Y010820D01*
X029996Y010721D02*
X025678Y010721D01*
X025678Y010623D02*
X029996Y010623D01*
X029996Y010524D02*
X025678Y010524D01*
X025678Y010426D02*
X029996Y010426D01*
X029996Y010327D02*
X025678Y010327D01*
X025678Y010229D02*
X029996Y010229D01*
X029996Y010130D02*
X025678Y010130D01*
X025678Y010032D02*
X029996Y010032D01*
X029996Y009933D02*
X025678Y009933D01*
X025678Y009835D02*
X029996Y009835D01*
X029996Y009736D02*
X025678Y009736D01*
X025678Y009638D02*
X029996Y009638D01*
X029996Y009539D02*
X025678Y009539D01*
X025678Y009441D02*
X029996Y009441D01*
X029996Y009342D02*
X025678Y009342D01*
X025678Y009244D02*
X029996Y009244D01*
X029996Y009145D02*
X025678Y009145D01*
X025678Y009047D02*
X029996Y009047D01*
X029996Y008948D02*
X025678Y008948D01*
X025678Y008850D02*
X025917Y008850D01*
X025929Y008862D02*
X025777Y008710D01*
X025695Y008512D01*
X025695Y008297D01*
X025777Y008099D01*
X025929Y007947D01*
X026031Y007904D01*
X025929Y007862D01*
X025777Y007710D01*
X025695Y007512D01*
X025695Y007297D01*
X025777Y007099D01*
X025929Y006947D01*
X025934Y006944D01*
X025794Y006944D01*
X025695Y006845D01*
X025695Y005964D01*
X025794Y005864D01*
X026675Y005864D01*
X026775Y005964D01*
X026775Y006845D01*
X026675Y006944D01*
X026535Y006944D01*
X026541Y006947D01*
X026693Y007099D01*
X026775Y007297D01*
X026775Y007512D01*
X026693Y007710D01*
X026541Y007862D01*
X026439Y007904D01*
X026541Y007947D01*
X026693Y008099D01*
X026775Y008297D01*
X026775Y008512D01*
X026693Y008710D01*
X026541Y008862D01*
X026342Y008944D01*
X026127Y008944D01*
X025929Y008862D01*
X025818Y008751D02*
X025678Y008751D01*
X025678Y008653D02*
X025753Y008653D01*
X025712Y008554D02*
X025678Y008554D01*
X025678Y008456D02*
X025695Y008456D01*
X025695Y008357D02*
X025678Y008357D01*
X025678Y008259D02*
X025711Y008259D01*
X025678Y008160D02*
X025752Y008160D01*
X025814Y008062D02*
X025678Y008062D01*
X025678Y007963D02*
X025912Y007963D01*
X025935Y007865D02*
X025678Y007865D01*
X025678Y007766D02*
X025833Y007766D01*
X025760Y007668D02*
X025678Y007668D01*
X025678Y007569D02*
X025719Y007569D01*
X025695Y007471D02*
X025678Y007471D01*
X025678Y007372D02*
X025695Y007372D01*
X025705Y007274D02*
X025678Y007274D01*
X025678Y007175D02*
X025745Y007175D01*
X025799Y007077D02*
X025678Y007077D01*
X025678Y006978D02*
X025897Y006978D01*
X025730Y006880D02*
X025678Y006880D01*
X025678Y006781D02*
X025695Y006781D01*
X025695Y006683D02*
X025678Y006683D01*
X025678Y006584D02*
X025695Y006584D01*
X025695Y006486D02*
X025678Y006486D01*
X025678Y006387D02*
X025695Y006387D01*
X025695Y006289D02*
X025678Y006289D01*
X025678Y006190D02*
X025695Y006190D01*
X025695Y006092D02*
X025678Y006092D01*
X025678Y005993D02*
X025695Y005993D01*
X025678Y005895D02*
X025764Y005895D01*
X025740Y005698D02*
X038509Y005698D01*
X038664Y005599D02*
X025838Y005599D01*
X025937Y005501D02*
X040253Y005501D01*
X040155Y005402D02*
X026035Y005402D01*
X026134Y005304D02*
X040056Y005304D01*
X040081Y005599D02*
X040352Y005599D01*
X040450Y005698D02*
X040237Y005698D01*
X040332Y005796D02*
X040549Y005796D01*
X040647Y005895D02*
X040373Y005895D01*
X040413Y005993D02*
X040746Y005993D01*
X040749Y006092D02*
X040413Y006092D01*
X040413Y006190D02*
X040749Y006190D01*
X040749Y006289D02*
X040378Y006289D01*
X040337Y006387D02*
X040749Y006387D01*
X040749Y006486D02*
X040248Y006486D01*
X040123Y006584D02*
X040749Y006584D01*
X040749Y006683D02*
X040222Y006683D01*
X040320Y006781D02*
X040749Y006781D01*
X040749Y006880D02*
X040413Y006880D01*
X040413Y006978D02*
X040749Y006978D01*
X040749Y007077D02*
X040413Y007077D01*
X040413Y007175D02*
X040749Y007175D01*
X040749Y007274D02*
X040413Y007274D01*
X040361Y007372D02*
X040740Y007372D01*
X040642Y007471D02*
X040263Y007471D01*
X040164Y007569D02*
X040543Y007569D01*
X040445Y007668D02*
X040207Y007668D01*
X040305Y007766D02*
X040346Y007766D01*
X039609Y007597D02*
X039373Y007834D01*
X039136Y007597D01*
X039373Y007361D01*
X039609Y007597D01*
X039581Y007569D02*
X039164Y007569D01*
X039207Y007668D02*
X039539Y007668D01*
X039440Y007766D02*
X039305Y007766D01*
X039263Y007471D02*
X039482Y007471D01*
X039384Y007372D02*
X039361Y007372D01*
X038333Y006978D02*
X035726Y006978D01*
X035090Y006978D02*
X032672Y006978D01*
X029996Y007471D02*
X029846Y007471D01*
X029846Y007372D02*
X029920Y007372D01*
X029996Y007569D02*
X029822Y007569D01*
X029781Y007668D02*
X029996Y007668D01*
X029996Y007766D02*
X029708Y007766D01*
X029605Y007865D02*
X029996Y007865D01*
X029996Y007963D02*
X029628Y007963D01*
X029727Y008062D02*
X029996Y008062D01*
X029996Y008160D02*
X029789Y008160D01*
X029830Y008259D02*
X029996Y008259D01*
X029996Y008357D02*
X029846Y008357D01*
X029846Y008456D02*
X029996Y008456D01*
X029996Y008554D02*
X029828Y008554D01*
X029787Y008653D02*
X029996Y008653D01*
X029996Y008751D02*
X029723Y008751D01*
X029624Y008850D02*
X029996Y008850D01*
X030496Y009047D02*
X035022Y009047D01*
X034939Y009145D02*
X030496Y009145D01*
X030496Y009244D02*
X034898Y009244D01*
X035055Y009835D02*
X033493Y009835D01*
X033394Y009933D02*
X035226Y009933D01*
X033278Y009342D02*
X030496Y009342D01*
X028987Y008850D02*
X026553Y008850D01*
X026652Y008751D02*
X028889Y008751D01*
X028824Y008653D02*
X026717Y008653D01*
X026757Y008554D02*
X028783Y008554D01*
X028766Y008456D02*
X026775Y008456D01*
X026775Y008357D02*
X028766Y008357D01*
X028782Y008259D02*
X026759Y008259D01*
X026718Y008160D02*
X028822Y008160D01*
X028885Y008062D02*
X026656Y008062D01*
X026557Y007963D02*
X028983Y007963D01*
X029006Y007865D02*
X026535Y007865D01*
X026637Y007766D02*
X028904Y007766D01*
X028830Y007668D02*
X026710Y007668D01*
X026751Y007569D02*
X028790Y007569D01*
X028766Y007471D02*
X026775Y007471D01*
X026775Y007372D02*
X028766Y007372D01*
X028775Y007274D02*
X026765Y007274D01*
X026724Y007175D02*
X028816Y007175D01*
X028870Y007077D02*
X026671Y007077D01*
X026572Y006978D02*
X028968Y006978D01*
X028801Y006880D02*
X026740Y006880D01*
X026775Y006781D02*
X028766Y006781D01*
X028766Y006683D02*
X026775Y006683D01*
X026775Y006584D02*
X028766Y006584D01*
X028766Y006486D02*
X026775Y006486D01*
X026775Y006387D02*
X028766Y006387D01*
X028766Y006289D02*
X026775Y006289D01*
X026775Y006190D02*
X028766Y006190D01*
X028766Y006092D02*
X026775Y006092D01*
X026775Y005993D02*
X028766Y005993D01*
X028835Y005895D02*
X026706Y005895D01*
X025178Y005895D02*
X023694Y005895D01*
X023763Y005993D02*
X025178Y005993D01*
X025178Y006092D02*
X023763Y006092D01*
X023763Y006190D02*
X025178Y006190D01*
X025178Y006289D02*
X023763Y006289D01*
X023763Y006387D02*
X025178Y006387D01*
X025178Y006486D02*
X023763Y006486D01*
X023763Y006584D02*
X025178Y006584D01*
X025178Y006683D02*
X023763Y006683D01*
X023763Y006781D02*
X025178Y006781D01*
X025178Y006880D02*
X023728Y006880D01*
X023561Y006978D02*
X025178Y006978D01*
X025178Y007077D02*
X023659Y007077D01*
X023713Y007175D02*
X025178Y007175D01*
X025178Y007274D02*
X023753Y007274D01*
X023763Y007372D02*
X025178Y007372D01*
X025178Y007471D02*
X023763Y007471D01*
X023739Y007569D02*
X025178Y007569D01*
X025178Y007668D02*
X023698Y007668D01*
X023625Y007766D02*
X025178Y007766D01*
X025178Y007865D02*
X023523Y007865D01*
X023546Y007963D02*
X025178Y007963D01*
X025178Y008062D02*
X023644Y008062D01*
X023706Y008160D02*
X025178Y008160D01*
X025178Y008259D02*
X023747Y008259D01*
X023763Y008357D02*
X025178Y008357D01*
X025178Y008456D02*
X023763Y008456D01*
X023746Y008554D02*
X025178Y008554D01*
X025178Y008653D02*
X023705Y008653D01*
X023640Y008751D02*
X025178Y008751D01*
X027140Y012790D02*
X027606Y012790D01*
X027520Y012888D02*
X027226Y012888D01*
X027267Y012987D02*
X027479Y012987D01*
X027466Y013085D02*
X027279Y013085D01*
X027277Y013184D02*
X027469Y013184D01*
X026636Y014760D02*
X024674Y014760D01*
X024674Y014858D02*
X026537Y014858D01*
X026491Y014957D02*
X024674Y014957D01*
X024674Y015055D02*
X026466Y015055D01*
X026466Y015154D02*
X024674Y015154D01*
X024674Y015252D02*
X026497Y015252D01*
X026552Y015351D02*
X024674Y015351D01*
X024674Y015449D02*
X026661Y015449D01*
X026297Y016139D02*
X029002Y016139D01*
X029100Y016237D02*
X026803Y016237D01*
X026121Y016040D02*
X028903Y016040D01*
X028805Y015942D02*
X025944Y015942D01*
X025768Y015843D02*
X028706Y015843D01*
X028608Y015745D02*
X024674Y015745D01*
X024674Y015646D02*
X028552Y015646D01*
X028544Y015548D02*
X024674Y015548D01*
X025493Y016262D02*
X026113Y016609D01*
X026113Y016781D01*
X026213Y016881D01*
X026232Y016881D01*
X026299Y019155D01*
X026220Y019234D01*
X026189Y019203D01*
X026189Y016959D01*
X026055Y016824D01*
X025493Y016262D01*
X025566Y016336D02*
X025624Y016336D01*
X025665Y016434D02*
X025801Y016434D01*
X025763Y016533D02*
X025977Y016533D01*
X025862Y016631D02*
X026113Y016631D01*
X026113Y016730D02*
X025960Y016730D01*
X026059Y016828D02*
X026160Y016828D01*
X026157Y016927D02*
X026233Y016927D01*
X026236Y017025D02*
X026189Y017025D01*
X026189Y017124D02*
X026239Y017124D01*
X026242Y017222D02*
X026189Y017222D01*
X026189Y017321D02*
X026245Y017321D01*
X026248Y017419D02*
X026189Y017419D01*
X026189Y017518D02*
X026251Y017518D01*
X026254Y017616D02*
X026189Y017616D01*
X026189Y017715D02*
X026257Y017715D01*
X026259Y017813D02*
X026189Y017813D01*
X026189Y017912D02*
X026262Y017912D01*
X026265Y018010D02*
X026189Y018010D01*
X026189Y018109D02*
X026268Y018109D01*
X026271Y018207D02*
X026189Y018207D01*
X026189Y018306D02*
X026274Y018306D01*
X026277Y018404D02*
X026189Y018404D01*
X026189Y018503D02*
X026280Y018503D01*
X026283Y018601D02*
X026189Y018601D01*
X026189Y018700D02*
X026286Y018700D01*
X026289Y018798D02*
X026189Y018798D01*
X026189Y018897D02*
X026292Y018897D01*
X026295Y018995D02*
X026189Y018995D01*
X026189Y019094D02*
X026298Y019094D01*
X026262Y019192D02*
X026189Y019192D01*
X025729Y019132D02*
X025729Y017149D01*
X025214Y016634D01*
X025079Y016634D01*
X025212Y016768D01*
X025295Y016966D01*
X025295Y017181D01*
X025212Y017380D01*
X025060Y017532D01*
X024985Y017563D01*
X024985Y018978D01*
X025145Y019127D01*
X025149Y019127D01*
X025214Y019192D01*
X025239Y019215D01*
X025322Y019132D01*
X025729Y019132D01*
X025729Y019094D02*
X025109Y019094D01*
X025214Y019192D02*
X025262Y019192D01*
X025003Y018995D02*
X025729Y018995D01*
X025729Y018897D02*
X024985Y018897D01*
X024985Y018798D02*
X025729Y018798D01*
X025729Y018700D02*
X024985Y018700D01*
X024985Y018601D02*
X025729Y018601D01*
X025729Y018503D02*
X024985Y018503D01*
X024985Y018404D02*
X025729Y018404D01*
X025729Y018306D02*
X024985Y018306D01*
X024985Y018207D02*
X025729Y018207D01*
X025729Y018109D02*
X024985Y018109D01*
X024985Y018010D02*
X025729Y018010D01*
X025729Y017912D02*
X024985Y017912D01*
X024985Y017813D02*
X025729Y017813D01*
X025729Y017715D02*
X024985Y017715D01*
X024985Y017616D02*
X025729Y017616D01*
X025729Y017518D02*
X025074Y017518D01*
X025173Y017419D02*
X025729Y017419D01*
X025729Y017321D02*
X025237Y017321D01*
X025278Y017222D02*
X025729Y017222D01*
X025704Y017124D02*
X025295Y017124D01*
X025295Y017025D02*
X025605Y017025D01*
X025507Y016927D02*
X025278Y016927D01*
X025237Y016828D02*
X025408Y016828D01*
X025310Y016730D02*
X025174Y016730D01*
X024430Y016634D02*
X023630Y016634D01*
X023764Y016768D01*
X023846Y016966D01*
X023846Y017181D01*
X023764Y017380D01*
X023612Y017532D01*
X023536Y017563D01*
X023536Y018398D01*
X024143Y018989D01*
X024145Y018989D01*
X024211Y019056D01*
X024279Y019121D01*
X024279Y019123D01*
X024280Y019124D01*
X024280Y019175D01*
X024322Y019132D01*
X024525Y019132D01*
X024525Y019082D01*
X024521Y018990D01*
X024525Y018987D01*
X024525Y017563D01*
X024449Y017532D01*
X024297Y017380D01*
X024215Y017181D01*
X024215Y016966D01*
X024297Y016768D01*
X024430Y016634D01*
X024335Y016730D02*
X023726Y016730D01*
X023789Y016828D02*
X024272Y016828D01*
X024231Y016927D02*
X023829Y016927D01*
X023846Y017025D02*
X024215Y017025D01*
X024215Y017124D02*
X023846Y017124D01*
X023829Y017222D02*
X024232Y017222D01*
X024272Y017321D02*
X023788Y017321D01*
X023724Y017419D02*
X024337Y017419D01*
X024435Y017518D02*
X023625Y017518D01*
X023536Y017616D02*
X024525Y017616D01*
X024525Y017715D02*
X023536Y017715D01*
X023536Y017813D02*
X024525Y017813D01*
X024525Y017912D02*
X023536Y017912D01*
X023536Y018010D02*
X024525Y018010D01*
X024525Y018109D02*
X023536Y018109D01*
X023536Y018207D02*
X024525Y018207D01*
X024525Y018306D02*
X023536Y018306D01*
X023542Y018404D02*
X024525Y018404D01*
X024525Y018503D02*
X023644Y018503D01*
X023745Y018601D02*
X024525Y018601D01*
X024525Y018700D02*
X023846Y018700D01*
X023947Y018798D02*
X024525Y018798D01*
X024525Y018897D02*
X024048Y018897D01*
X024151Y018995D02*
X024522Y018995D01*
X024525Y019094D02*
X024251Y019094D01*
X023631Y019132D02*
X023473Y019132D01*
X022008Y017668D01*
X021887Y017618D01*
X020048Y017618D01*
X020070Y017595D01*
X020096Y017572D01*
X020198Y017614D01*
X020413Y017614D01*
X020612Y017532D01*
X020764Y017380D01*
X020846Y017181D01*
X020846Y016966D01*
X020764Y016768D01*
X020714Y016719D01*
X020799Y016634D01*
X022981Y016634D01*
X022848Y016768D01*
X022766Y016966D01*
X022766Y017181D01*
X022848Y017380D01*
X023000Y017532D01*
X023076Y017563D01*
X023076Y018402D01*
X023075Y018403D01*
X023076Y018497D01*
X023076Y018590D01*
X023077Y018592D01*
X023077Y018593D01*
X023144Y018659D01*
X023211Y018725D01*
X023212Y018725D01*
X023631Y019132D01*
X023591Y019094D02*
X023434Y019094D01*
X023490Y018995D02*
X023336Y018995D01*
X023389Y018897D02*
X023237Y018897D01*
X023288Y018798D02*
X023139Y018798D01*
X023185Y018700D02*
X023040Y018700D01*
X023085Y018601D02*
X022942Y018601D01*
X022843Y018503D02*
X023076Y018503D01*
X023075Y018404D02*
X022745Y018404D01*
X022646Y018306D02*
X023076Y018306D01*
X023076Y018207D02*
X022548Y018207D01*
X022449Y018109D02*
X023076Y018109D01*
X023076Y018010D02*
X022351Y018010D01*
X022252Y017912D02*
X023076Y017912D01*
X023076Y017813D02*
X022154Y017813D01*
X022055Y017715D02*
X023076Y017715D01*
X023076Y017616D02*
X020049Y017616D01*
X020625Y017518D02*
X022986Y017518D01*
X022888Y017419D02*
X020724Y017419D01*
X020788Y017321D02*
X022824Y017321D01*
X022783Y017222D02*
X020829Y017222D01*
X020846Y017124D02*
X022766Y017124D01*
X022766Y017025D02*
X020846Y017025D01*
X020829Y016927D02*
X022782Y016927D01*
X022823Y016828D02*
X020789Y016828D01*
X020726Y016730D02*
X022886Y016730D01*
X020447Y016336D02*
X019274Y016336D01*
X019175Y016434D02*
X020348Y016434D01*
X020250Y016533D02*
X019020Y016533D01*
X018568Y016533D02*
X017416Y016533D01*
X017318Y016631D02*
X019984Y016631D01*
X019886Y016730D02*
X017219Y016730D01*
X017121Y016828D02*
X019823Y016828D01*
X019782Y016927D02*
X017022Y016927D01*
X016924Y017025D02*
X019766Y017025D01*
X019766Y017124D02*
X016869Y017124D01*
X016583Y016716D02*
X016252Y016716D01*
X016152Y016815D01*
X016152Y017198D01*
X016044Y017198D01*
X015983Y017145D01*
X015983Y016815D01*
X015883Y016716D01*
X015383Y016716D01*
X015383Y016036D01*
X016359Y015059D01*
X016439Y015254D01*
X016591Y015406D01*
X016693Y015448D01*
X016591Y015490D01*
X016439Y015642D01*
X016357Y015840D01*
X016357Y016055D01*
X016439Y016254D01*
X016591Y016406D01*
X016790Y016488D01*
X016811Y016488D01*
X016583Y016716D01*
X016667Y016631D02*
X015383Y016631D01*
X015383Y016533D02*
X016765Y016533D01*
X016661Y016434D02*
X015383Y016434D01*
X015383Y016336D02*
X016522Y016336D01*
X016433Y016237D02*
X015383Y016237D01*
X015383Y016139D02*
X016392Y016139D01*
X016357Y016040D02*
X015383Y016040D01*
X015476Y015942D02*
X016357Y015942D01*
X016357Y015843D02*
X015575Y015843D01*
X015673Y015745D02*
X016397Y015745D01*
X016437Y015646D02*
X015772Y015646D01*
X015870Y015548D02*
X016533Y015548D01*
X016689Y015449D02*
X015969Y015449D01*
X016067Y015351D02*
X016537Y015351D01*
X016439Y015252D02*
X016166Y015252D01*
X016264Y015154D02*
X016398Y015154D01*
X017105Y015449D02*
X017934Y015449D01*
X017934Y015351D02*
X017258Y015351D01*
X017355Y015252D02*
X017934Y015252D01*
X017934Y015154D02*
X017396Y015154D01*
X017437Y015055D02*
X017934Y015055D01*
X017934Y014957D02*
X017437Y014957D01*
X017437Y014858D02*
X017934Y014858D01*
X017934Y014760D02*
X017404Y014760D01*
X017363Y014661D02*
X017934Y014661D01*
X017934Y014563D02*
X017276Y014563D01*
X018394Y015316D02*
X018394Y015603D01*
X018471Y015526D01*
X018632Y015460D01*
X018471Y015393D01*
X018394Y015316D01*
X018394Y015351D02*
X018429Y015351D01*
X018394Y015449D02*
X018608Y015449D01*
X018450Y015548D02*
X018394Y015548D01*
X018980Y015449D02*
X020099Y015449D01*
X019932Y015351D02*
X019159Y015351D01*
X019257Y015252D02*
X019853Y015252D01*
X019812Y015154D02*
X019310Y015154D01*
X019308Y014661D02*
X019970Y014661D01*
X019871Y014563D02*
X019253Y014563D01*
X019155Y014464D02*
X019828Y014464D01*
X019805Y014366D02*
X018971Y014366D01*
X018394Y013300D02*
X018491Y013204D01*
X018652Y013137D01*
X018491Y013070D01*
X018488Y013067D01*
X018394Y013126D01*
X018394Y013300D01*
X018394Y013282D02*
X018412Y013282D01*
X018394Y013184D02*
X018538Y013184D01*
X018528Y013085D02*
X018459Y013085D01*
X017459Y015548D02*
X017261Y015548D01*
X017357Y015646D02*
X017393Y015646D01*
X018109Y016040D02*
X018111Y016040D01*
X018101Y016139D02*
X018231Y016139D01*
X018271Y016237D02*
X017712Y016237D01*
X017613Y016336D02*
X018314Y016336D01*
X018413Y016434D02*
X017515Y016434D01*
X016238Y016730D02*
X015897Y016730D01*
X015983Y016828D02*
X016152Y016828D01*
X016152Y016927D02*
X015983Y016927D01*
X015983Y017025D02*
X016152Y017025D01*
X016152Y017124D02*
X015983Y017124D01*
X015711Y017518D02*
X015383Y017518D01*
X015383Y017432D02*
X015383Y018518D01*
X015439Y018575D01*
X015491Y018699D01*
X015491Y018834D01*
X015439Y018958D01*
X015344Y019054D01*
X015220Y019105D01*
X015085Y019105D01*
X015028Y019081D01*
X015028Y019525D01*
X016357Y020999D01*
X016357Y020840D01*
X016439Y020642D01*
X016591Y020490D01*
X016693Y020448D01*
X016591Y020406D01*
X016439Y020254D01*
X016357Y020055D01*
X016357Y019840D01*
X016439Y019642D01*
X016591Y019490D01*
X016693Y019448D01*
X016591Y019406D01*
X016439Y019254D01*
X016357Y019055D01*
X016357Y018840D01*
X016439Y018642D01*
X016591Y018490D01*
X016693Y018448D01*
X016591Y018406D01*
X016439Y018254D01*
X016357Y018055D01*
X016357Y017840D01*
X016433Y017658D01*
X015968Y017658D01*
X015882Y017665D01*
X015874Y017658D01*
X015864Y017658D01*
X015803Y017597D01*
X015610Y017432D01*
X015383Y017432D01*
X015383Y017616D02*
X015822Y017616D01*
X015383Y017715D02*
X016409Y017715D01*
X016368Y017813D02*
X015383Y017813D01*
X015383Y017912D02*
X016357Y017912D01*
X016357Y018010D02*
X015383Y018010D01*
X015383Y018109D02*
X016379Y018109D01*
X016420Y018207D02*
X015383Y018207D01*
X015383Y018306D02*
X016492Y018306D01*
X016590Y018404D02*
X015383Y018404D01*
X015383Y018503D02*
X016578Y018503D01*
X016480Y018601D02*
X015450Y018601D01*
X015491Y018700D02*
X016415Y018700D01*
X016375Y018798D02*
X015491Y018798D01*
X015465Y018897D02*
X016357Y018897D01*
X016357Y018995D02*
X015402Y018995D01*
X015247Y019094D02*
X016373Y019094D01*
X016414Y019192D02*
X015028Y019192D01*
X015028Y019094D02*
X015058Y019094D01*
X015028Y019291D02*
X016477Y019291D01*
X016575Y019389D02*
X015028Y019389D01*
X015028Y019488D02*
X016596Y019488D01*
X016495Y019586D02*
X015083Y019586D01*
X015172Y019685D02*
X016422Y019685D01*
X016381Y019783D02*
X015261Y019783D01*
X015350Y019882D02*
X016357Y019882D01*
X016357Y019980D02*
X015439Y019980D01*
X015528Y020079D02*
X016367Y020079D01*
X016408Y020177D02*
X015616Y020177D01*
X015705Y020276D02*
X016462Y020276D01*
X016560Y020374D02*
X015794Y020374D01*
X015883Y020473D02*
X016633Y020473D01*
X016510Y020571D02*
X015972Y020571D01*
X016061Y020670D02*
X016428Y020670D01*
X016387Y020768D02*
X016149Y020768D01*
X016238Y020867D02*
X016357Y020867D01*
X016357Y020965D02*
X016327Y020965D01*
X015757Y021350D02*
X015018Y020611D01*
X014883Y020476D01*
X014883Y020456D01*
X014349Y019922D01*
X014349Y021904D01*
X014869Y022425D01*
X014998Y022554D01*
X014998Y022627D01*
X015165Y022557D01*
X015380Y022557D01*
X015579Y022640D01*
X015967Y022640D01*
X015986Y022632D01*
X015964Y022609D01*
X015795Y022440D01*
X015757Y022348D01*
X015757Y021350D01*
X015757Y021359D02*
X014349Y021359D01*
X014349Y021261D02*
X015668Y021261D01*
X015569Y021162D02*
X014349Y021162D01*
X014349Y021064D02*
X015471Y021064D01*
X015372Y020965D02*
X014349Y020965D01*
X014349Y020867D02*
X015274Y020867D01*
X015175Y020768D02*
X014349Y020768D01*
X014349Y020670D02*
X015077Y020670D01*
X014978Y020571D02*
X014349Y020571D01*
X014349Y020473D02*
X014883Y020473D01*
X014801Y020374D02*
X014349Y020374D01*
X014349Y020276D02*
X014702Y020276D01*
X014604Y020177D02*
X014349Y020177D01*
X014349Y020079D02*
X014505Y020079D01*
X014407Y019980D02*
X014349Y019980D01*
X013909Y019980D02*
X011437Y019980D01*
X011437Y020055D02*
X011355Y020254D01*
X011203Y020406D01*
X011101Y020448D01*
X011203Y020490D01*
X011355Y020642D01*
X011437Y020840D01*
X011437Y021055D01*
X011355Y021254D01*
X011203Y021406D01*
X011005Y021488D01*
X010790Y021488D01*
X010591Y021406D01*
X010439Y021254D01*
X010357Y021055D01*
X010357Y020840D01*
X010439Y020642D01*
X010591Y020490D01*
X010693Y020448D01*
X010591Y020406D01*
X010439Y020254D01*
X010357Y020055D01*
X010357Y019840D01*
X010439Y019642D01*
X010591Y019490D01*
X010790Y019408D01*
X011005Y019408D01*
X011203Y019490D01*
X011355Y019642D01*
X011437Y019840D01*
X011437Y020055D01*
X011427Y020079D02*
X013909Y020079D01*
X013909Y020177D02*
X011387Y020177D01*
X011333Y020276D02*
X013909Y020276D01*
X013909Y020374D02*
X011234Y020374D01*
X011162Y020473D02*
X013909Y020473D01*
X013909Y020571D02*
X011284Y020571D01*
X011366Y020670D02*
X013909Y020670D01*
X013909Y020768D02*
X011407Y020768D01*
X011437Y020867D02*
X013909Y020867D01*
X013909Y020965D02*
X011437Y020965D01*
X011434Y021064D02*
X013909Y021064D01*
X013909Y021162D02*
X011393Y021162D01*
X011348Y021261D02*
X013909Y021261D01*
X013909Y021359D02*
X013734Y021359D01*
X013839Y021458D02*
X013909Y021458D01*
X014349Y021458D02*
X015757Y021458D01*
X015757Y021556D02*
X014349Y021556D01*
X014349Y021655D02*
X015757Y021655D01*
X015757Y021753D02*
X014349Y021753D01*
X014349Y021852D02*
X015757Y021852D01*
X015757Y021950D02*
X014395Y021950D01*
X014494Y022049D02*
X015757Y022049D01*
X015757Y022147D02*
X014592Y022147D01*
X014691Y022246D02*
X015757Y022246D01*
X015757Y022344D02*
X014789Y022344D01*
X014888Y022443D02*
X015798Y022443D01*
X015896Y022541D02*
X014986Y022541D01*
X015579Y022640D02*
X015730Y022792D01*
X015773Y022893D01*
X015815Y022792D01*
X015967Y022640D01*
X015868Y022738D02*
X015677Y022738D01*
X015749Y022837D02*
X015796Y022837D01*
X015773Y023301D02*
X015730Y023403D01*
X015626Y023507D01*
X015919Y023507D01*
X015815Y023403D01*
X015773Y023301D01*
X015761Y023329D02*
X015784Y023329D01*
X015840Y023428D02*
X015706Y023428D01*
X016626Y023507D02*
X016730Y023403D01*
X016773Y023301D01*
X016815Y023403D01*
X016919Y023507D01*
X016626Y023507D01*
X016706Y023428D02*
X016840Y023428D01*
X016784Y023329D02*
X016761Y023329D01*
X016773Y022893D02*
X016815Y022792D01*
X016889Y022717D01*
X016656Y022717D01*
X016730Y022792D01*
X016773Y022893D01*
X016749Y022837D02*
X016796Y022837D01*
X016868Y022738D02*
X016677Y022738D01*
X016595Y022217D02*
X016279Y022217D01*
X016257Y022195D01*
X016257Y021574D01*
X016566Y021917D01*
X016595Y022177D01*
X016595Y022217D01*
X016592Y022147D02*
X016257Y022147D01*
X016257Y022049D02*
X016581Y022049D01*
X016570Y021950D02*
X016257Y021950D01*
X016257Y021852D02*
X016507Y021852D01*
X016418Y021753D02*
X016257Y021753D01*
X016257Y021655D02*
X016329Y021655D01*
X016860Y021556D02*
X023311Y021556D01*
X023296Y021458D02*
X017077Y021458D01*
X017249Y021359D02*
X023296Y021359D01*
X023296Y021261D02*
X017408Y021261D01*
X017554Y021162D02*
X020272Y021162D01*
X020174Y021064D02*
X017652Y021064D01*
X017751Y020965D02*
X020075Y020965D01*
X020006Y020867D02*
X017849Y020867D01*
X017948Y020768D02*
X020006Y020768D01*
X020006Y020670D02*
X018046Y020670D01*
X018145Y020571D02*
X020006Y020571D01*
X020006Y020473D02*
X018243Y020473D01*
X018342Y020374D02*
X020080Y020374D01*
X020179Y020276D02*
X018440Y020276D01*
X018539Y020177D02*
X020277Y020177D01*
X020189Y020079D02*
X018637Y020079D01*
X017901Y019882D02*
X017791Y019882D01*
X017803Y019980D02*
X017693Y019980D01*
X017704Y020079D02*
X017594Y020079D01*
X017606Y020177D02*
X017496Y020177D01*
X017445Y020228D02*
X018439Y019234D01*
X020220Y019234D01*
X020112Y019342D01*
X018512Y019342D01*
X018390Y019392D01*
X018298Y019485D01*
X017248Y020535D01*
X017203Y020490D01*
X017101Y020448D01*
X017203Y020406D01*
X017335Y020273D01*
X017445Y020228D01*
X017507Y020276D02*
X017333Y020276D01*
X017409Y020374D02*
X017234Y020374D01*
X017162Y020473D02*
X017310Y020473D01*
X017890Y019783D02*
X018000Y019783D01*
X017988Y019685D02*
X018098Y019685D01*
X018087Y019586D02*
X018197Y019586D01*
X018185Y019488D02*
X018295Y019488D01*
X018284Y019389D02*
X018398Y019389D01*
X018382Y019291D02*
X020164Y019291D01*
X021142Y018801D02*
X021208Y018801D01*
X021539Y019132D01*
X021473Y019132D01*
X021142Y018801D01*
X021237Y018897D02*
X021304Y018897D01*
X021336Y018995D02*
X021402Y018995D01*
X021434Y019094D02*
X021501Y019094D01*
X021942Y018601D02*
X022008Y018601D01*
X022040Y018700D02*
X022107Y018700D01*
X022139Y018798D02*
X022205Y018798D01*
X022237Y018897D02*
X022304Y018897D01*
X022336Y018995D02*
X022402Y018995D01*
X022434Y019094D02*
X022501Y019094D01*
X022473Y019132D02*
X022539Y019132D01*
X021685Y018278D01*
X021618Y018278D01*
X022473Y019132D01*
X021910Y018503D02*
X021843Y018503D01*
X021811Y018404D02*
X021745Y018404D01*
X021713Y018306D02*
X021646Y018306D01*
X022046Y019936D02*
X022282Y020172D01*
X022046Y020409D01*
X021810Y020172D01*
X022046Y019936D01*
X022001Y019980D02*
X022090Y019980D01*
X022189Y020079D02*
X021903Y020079D01*
X021815Y020177D02*
X022277Y020177D01*
X022179Y020276D02*
X021913Y020276D01*
X022012Y020374D02*
X022080Y020374D01*
X022810Y020172D02*
X023046Y020409D01*
X023282Y020172D01*
X023046Y019936D01*
X022810Y020172D01*
X022815Y020177D02*
X023277Y020177D01*
X023189Y020079D02*
X022903Y020079D01*
X023001Y019980D02*
X023090Y019980D01*
X023179Y020276D02*
X022913Y020276D01*
X023012Y020374D02*
X023080Y020374D01*
X023075Y020965D02*
X023016Y020965D01*
X022918Y021064D02*
X023174Y021064D01*
X023272Y021162D02*
X022819Y021162D01*
X022272Y021162D02*
X021819Y021162D01*
X021918Y021064D02*
X022174Y021064D01*
X022075Y020965D02*
X022016Y020965D01*
X021272Y021162D02*
X020819Y021162D01*
X020918Y021064D02*
X021174Y021064D01*
X021075Y020965D02*
X021016Y020965D01*
X021046Y020409D02*
X021282Y020172D01*
X021046Y019936D01*
X020810Y020172D01*
X021046Y020409D01*
X021012Y020374D02*
X021080Y020374D01*
X021179Y020276D02*
X020913Y020276D01*
X020815Y020177D02*
X021277Y020177D01*
X021189Y020079D02*
X020903Y020079D01*
X021001Y019980D02*
X021090Y019980D01*
X023810Y020172D02*
X023820Y020162D01*
X023819Y020182D01*
X023810Y020172D01*
X023815Y020177D02*
X023819Y020177D01*
X024810Y020172D02*
X024824Y020158D01*
X024824Y020158D01*
X024823Y020186D01*
X024810Y020172D01*
X024815Y020177D02*
X024823Y020177D01*
X023501Y021753D02*
X017020Y021753D01*
X017021Y021852D02*
X038355Y021852D01*
X038333Y021950D02*
X020051Y021950D01*
X020149Y022049D02*
X038333Y022049D01*
X038333Y022147D02*
X020248Y022147D01*
X019893Y022443D02*
X019572Y022443D01*
X019523Y022394D02*
X019844Y022394D01*
X020027Y022577D01*
X019980Y022557D01*
X019765Y022557D01*
X019709Y022581D01*
X019523Y022394D01*
X019670Y022541D02*
X019991Y022541D01*
X019356Y022934D02*
X019139Y022717D01*
X018656Y022717D01*
X018730Y022792D01*
X018813Y022990D01*
X018813Y023205D01*
X018730Y023403D01*
X018626Y023507D01*
X019519Y023507D01*
X019415Y023403D01*
X019333Y023205D01*
X019333Y022990D01*
X019356Y022934D01*
X019355Y022935D02*
X018790Y022935D01*
X018813Y023034D02*
X019333Y023034D01*
X019333Y023132D02*
X018813Y023132D01*
X018802Y023231D02*
X019344Y023231D01*
X019384Y023329D02*
X018761Y023329D01*
X018706Y023428D02*
X019440Y023428D01*
X019259Y022837D02*
X018749Y022837D01*
X018677Y022738D02*
X019160Y022738D01*
X017889Y022717D02*
X017656Y022717D01*
X017730Y022792D01*
X017773Y022893D01*
X017815Y022792D01*
X017889Y022717D01*
X017868Y022738D02*
X017677Y022738D01*
X017749Y022837D02*
X017796Y022837D01*
X017773Y023301D02*
X017730Y023403D01*
X017626Y023507D01*
X017919Y023507D01*
X017815Y023403D01*
X017773Y023301D01*
X017761Y023329D02*
X017784Y023329D01*
X017840Y023428D02*
X017706Y023428D01*
X020226Y023507D02*
X020330Y023403D01*
X020373Y023301D01*
X020415Y023403D01*
X020519Y023507D01*
X020226Y023507D01*
X020306Y023428D02*
X020440Y023428D01*
X020384Y023329D02*
X020361Y023329D01*
X021179Y022640D02*
X021330Y022792D01*
X021373Y022893D01*
X021415Y022792D01*
X021567Y022640D01*
X021468Y022738D02*
X021277Y022738D01*
X021349Y022837D02*
X021396Y022837D01*
X021459Y023822D02*
X036953Y023822D01*
X037792Y023822D02*
X041747Y023822D01*
X041747Y023723D02*
X037920Y023723D01*
X038019Y023625D02*
X038735Y023625D01*
X038765Y023637D02*
X038567Y023555D01*
X038415Y023403D01*
X038333Y023205D01*
X038333Y022990D01*
X038415Y022792D01*
X038567Y022640D01*
X038627Y022615D01*
X038333Y022321D01*
X038356Y022344D02*
X037723Y022344D01*
X037892Y022443D02*
X038455Y022443D01*
X038553Y022541D02*
X037990Y022541D01*
X038081Y022640D02*
X038567Y022640D01*
X038468Y022738D02*
X038122Y022738D01*
X038163Y022837D02*
X038396Y022837D01*
X038355Y022935D02*
X038203Y022935D01*
X038203Y023034D02*
X038333Y023034D01*
X038333Y023132D02*
X038203Y023132D01*
X038203Y023231D02*
X038344Y023231D01*
X038384Y023329D02*
X038175Y023329D01*
X038134Y023428D02*
X038440Y023428D01*
X038538Y023526D02*
X038093Y023526D01*
X038765Y023637D02*
X038980Y023637D01*
X039179Y023555D01*
X039330Y023403D01*
X039373Y023301D01*
X039415Y023403D01*
X039567Y023555D01*
X039765Y023637D01*
X039980Y023637D01*
X040179Y023555D01*
X040330Y023403D01*
X040413Y023205D01*
X040413Y022990D01*
X040330Y022792D01*
X040349Y022837D02*
X041747Y022837D01*
X041747Y022935D02*
X040390Y022935D01*
X040413Y023034D02*
X041747Y023034D01*
X041747Y023132D02*
X040413Y023132D01*
X040402Y023231D02*
X041747Y023231D01*
X041747Y023329D02*
X040361Y023329D01*
X040306Y023428D02*
X041747Y023428D01*
X041747Y023526D02*
X040207Y023526D01*
X040010Y023625D02*
X041747Y023625D01*
X039735Y023625D02*
X039010Y023625D01*
X039207Y023526D02*
X039538Y023526D01*
X039440Y023428D02*
X039306Y023428D01*
X039361Y023329D02*
X039384Y023329D01*
X039373Y022893D02*
X039415Y022792D01*
X039567Y022640D01*
X039627Y022615D01*
X039373Y022361D01*
X039119Y022615D01*
X039179Y022640D01*
X039567Y022640D01*
X039553Y022541D02*
X039192Y022541D01*
X039179Y022640D02*
X039330Y022792D01*
X039373Y022893D01*
X039349Y022837D02*
X039396Y022837D01*
X039468Y022738D02*
X039277Y022738D01*
X039291Y022443D02*
X039455Y022443D01*
X039373Y021834D02*
X039609Y021597D01*
X039373Y021361D01*
X039136Y021597D01*
X039373Y021834D01*
X039453Y021753D02*
X039292Y021753D01*
X039194Y021655D02*
X039552Y021655D01*
X039568Y021556D02*
X039177Y021556D01*
X039276Y021458D02*
X039470Y021458D01*
X039373Y020834D02*
X039609Y020597D01*
X039373Y020361D01*
X039136Y020597D01*
X039373Y020834D01*
X039438Y020768D02*
X039307Y020768D01*
X039209Y020670D02*
X039537Y020670D01*
X039583Y020571D02*
X039162Y020571D01*
X039261Y020473D02*
X039485Y020473D01*
X039386Y020374D02*
X039359Y020374D01*
X039373Y019834D02*
X039609Y019597D01*
X039373Y019361D01*
X039136Y019597D01*
X039373Y019834D01*
X039423Y019783D02*
X039322Y019783D01*
X039224Y019685D02*
X039522Y019685D01*
X039598Y019586D02*
X039147Y019586D01*
X039246Y019488D02*
X039500Y019488D01*
X039401Y019389D02*
X039344Y019389D01*
X039373Y018834D02*
X039609Y018597D01*
X039373Y018361D01*
X039136Y018597D01*
X039373Y018834D01*
X039337Y018798D02*
X039408Y018798D01*
X039507Y018700D02*
X039239Y018700D01*
X039140Y018601D02*
X039605Y018601D01*
X039515Y018503D02*
X039231Y018503D01*
X039329Y018404D02*
X039416Y018404D01*
X033820Y019065D02*
X033811Y019085D01*
X033820Y019077D01*
X033820Y019065D01*
X033553Y019343D02*
X033503Y019364D01*
X032894Y019364D01*
X033071Y019540D01*
X033356Y019540D01*
X033553Y019343D01*
X033507Y019389D02*
X032920Y019389D01*
X033018Y019488D02*
X033408Y019488D01*
X029699Y019291D02*
X027928Y019291D01*
X027830Y019192D02*
X029601Y019192D01*
X028092Y020571D02*
X028086Y020571D01*
X028086Y020670D02*
X028170Y020670D01*
X028170Y020768D02*
X028086Y020768D01*
X028086Y020867D02*
X028170Y020867D01*
X028170Y020965D02*
X028016Y020965D01*
X027918Y021064D02*
X028170Y021064D01*
X028151Y021162D02*
X027819Y021162D01*
X026567Y022640D02*
X026415Y022792D01*
X026373Y022893D01*
X026330Y022792D01*
X026179Y022640D01*
X026277Y022738D02*
X026468Y022738D01*
X026396Y022837D02*
X026349Y022837D01*
X026361Y023329D02*
X026384Y023329D01*
X026440Y023428D02*
X026306Y023428D01*
X026207Y023526D02*
X026538Y023526D01*
X026735Y023625D02*
X026010Y023625D01*
X025735Y023625D02*
X025010Y023625D01*
X025207Y023526D02*
X025538Y023526D01*
X025440Y023428D02*
X025306Y023428D01*
X025361Y023329D02*
X025384Y023329D01*
X024735Y023625D02*
X024010Y023625D01*
X024207Y023526D02*
X024538Y023526D01*
X024440Y023428D02*
X024306Y023428D01*
X024361Y023329D02*
X024384Y023329D01*
X024373Y022893D02*
X024415Y022792D01*
X024567Y022640D01*
X024468Y022738D02*
X024277Y022738D01*
X024330Y022792D02*
X024373Y022893D01*
X024349Y022837D02*
X024396Y022837D01*
X024330Y022792D02*
X024179Y022640D01*
X023567Y022640D02*
X023415Y022792D01*
X023373Y022893D01*
X023330Y022792D01*
X023179Y022640D01*
X023277Y022738D02*
X023468Y022738D01*
X023396Y022837D02*
X023349Y022837D01*
X023361Y023329D02*
X023384Y023329D01*
X023440Y023428D02*
X023306Y023428D01*
X023207Y023526D02*
X023538Y023526D01*
X023735Y023625D02*
X023010Y023625D01*
X025179Y022640D02*
X025330Y022792D01*
X025373Y022893D01*
X025415Y022792D01*
X025567Y022640D01*
X025468Y022738D02*
X025277Y022738D01*
X025349Y022837D02*
X025396Y022837D01*
X027010Y023625D02*
X028735Y023625D01*
X028538Y023526D02*
X027207Y023526D01*
X027306Y023428D02*
X028440Y023428D01*
X028384Y023329D02*
X027361Y023329D01*
X027402Y023231D02*
X028344Y023231D01*
X028333Y023132D02*
X027413Y023132D01*
X027413Y023034D02*
X028333Y023034D01*
X028355Y022935D02*
X027390Y022935D01*
X027349Y022837D02*
X028396Y022837D01*
X029179Y022640D02*
X029330Y022792D01*
X029373Y022893D01*
X029415Y022792D01*
X029567Y022640D01*
X029468Y022738D02*
X029277Y022738D01*
X029349Y022837D02*
X029396Y022837D01*
X029384Y023329D02*
X029361Y023329D01*
X029306Y023428D02*
X029440Y023428D01*
X029538Y023526D02*
X029207Y023526D01*
X029010Y023625D02*
X029735Y023625D01*
X030010Y023625D02*
X030735Y023625D01*
X030538Y023526D02*
X030207Y023526D01*
X030306Y023428D02*
X030440Y023428D01*
X030384Y023329D02*
X030361Y023329D01*
X030373Y022893D02*
X030415Y022792D01*
X030567Y022640D01*
X030468Y022738D02*
X030277Y022738D01*
X030330Y022792D02*
X030179Y022640D01*
X030330Y022792D02*
X030373Y022893D01*
X030349Y022837D02*
X030396Y022837D01*
X031179Y022640D02*
X031330Y022792D01*
X031373Y022893D01*
X031415Y022792D01*
X031567Y022640D01*
X031468Y022738D02*
X031277Y022738D01*
X031349Y022837D02*
X031396Y022837D01*
X031384Y023329D02*
X031361Y023329D01*
X031306Y023428D02*
X031440Y023428D01*
X031538Y023526D02*
X031207Y023526D01*
X031010Y023625D02*
X031735Y023625D01*
X032010Y023625D02*
X032735Y023625D01*
X032538Y023526D02*
X032207Y023526D01*
X032306Y023428D02*
X032440Y023428D01*
X032384Y023329D02*
X032361Y023329D01*
X033010Y023625D02*
X033735Y023625D01*
X033538Y023526D02*
X033207Y023526D01*
X033306Y023428D02*
X033440Y023428D01*
X033384Y023329D02*
X033361Y023329D01*
X033373Y022893D02*
X033415Y022792D01*
X033567Y022640D01*
X033468Y022738D02*
X033277Y022738D01*
X033330Y022792D02*
X033179Y022640D01*
X033330Y022792D02*
X033373Y022893D01*
X033349Y022837D02*
X033396Y022837D01*
X034179Y022640D02*
X034330Y022792D01*
X034373Y022893D01*
X034415Y022792D01*
X034567Y022640D01*
X034468Y022738D02*
X034277Y022738D01*
X034349Y022837D02*
X034396Y022837D01*
X035179Y022640D02*
X035330Y022792D01*
X035373Y022893D01*
X035415Y022792D01*
X035567Y022640D01*
X035468Y022738D02*
X035277Y022738D01*
X035349Y022837D02*
X035396Y022837D01*
X035384Y023329D02*
X035361Y023329D01*
X035306Y023428D02*
X035440Y023428D01*
X035538Y023526D02*
X035207Y023526D01*
X035010Y023625D02*
X035735Y023625D01*
X034735Y023625D02*
X034010Y023625D01*
X034207Y023526D02*
X034538Y023526D01*
X034440Y023428D02*
X034306Y023428D01*
X034361Y023329D02*
X034384Y023329D01*
X032567Y022640D02*
X032415Y022792D01*
X032373Y022893D01*
X032330Y022792D01*
X032179Y022640D01*
X032277Y022738D02*
X032468Y022738D01*
X032396Y022837D02*
X032349Y022837D01*
X023376Y021655D02*
X016951Y021655D01*
X014364Y022541D02*
X008490Y022541D01*
X008581Y022640D02*
X010967Y022640D01*
X010868Y022738D02*
X008622Y022738D01*
X008663Y022837D02*
X010796Y022837D01*
X010755Y022935D02*
X008703Y022935D01*
X008703Y023034D02*
X010733Y023034D01*
X010733Y023132D02*
X008703Y023132D01*
X008703Y023231D02*
X010744Y023231D01*
X010784Y023329D02*
X008675Y023329D01*
X008634Y023428D02*
X010840Y023428D01*
X010938Y023526D02*
X008593Y023526D01*
X008519Y023625D02*
X011135Y023625D01*
X011410Y023625D02*
X012135Y023625D01*
X011938Y023526D02*
X011607Y023526D01*
X011706Y023428D02*
X011840Y023428D01*
X011784Y023329D02*
X011761Y023329D01*
X011773Y022893D02*
X011815Y022792D01*
X011967Y022640D01*
X011868Y022738D02*
X011677Y022738D01*
X011730Y022792D02*
X011579Y022640D01*
X011730Y022792D02*
X011773Y022893D01*
X011749Y022837D02*
X011796Y022837D01*
X012579Y022640D02*
X012730Y022792D01*
X012773Y022893D01*
X012815Y022792D01*
X012967Y022640D01*
X012868Y022738D02*
X012677Y022738D01*
X012749Y022837D02*
X012796Y022837D01*
X013579Y022640D02*
X013730Y022792D01*
X013773Y022893D01*
X013815Y022792D01*
X013967Y022640D01*
X013868Y022738D02*
X013677Y022738D01*
X013749Y022837D02*
X013796Y022837D01*
X013784Y023329D02*
X013761Y023329D01*
X013706Y023428D02*
X013840Y023428D01*
X013938Y023526D02*
X013607Y023526D01*
X013410Y023625D02*
X014135Y023625D01*
X014410Y023625D02*
X014558Y023625D01*
X014640Y023723D02*
X008420Y023723D01*
X008292Y023822D02*
X014739Y023822D01*
X013135Y023625D02*
X012410Y023625D01*
X012607Y023526D02*
X012938Y023526D01*
X012840Y023428D02*
X012706Y023428D01*
X012761Y023329D02*
X012784Y023329D01*
X013290Y022344D02*
X008223Y022344D01*
X008392Y022443D02*
X014265Y022443D01*
X014167Y022344D02*
X013589Y022344D01*
X013779Y022246D02*
X014068Y022246D01*
X013970Y022147D02*
X013878Y022147D01*
X013100Y022246D02*
X006533Y022246D01*
X006533Y022344D02*
X007522Y022344D01*
X007354Y022443D02*
X006533Y022443D01*
X006533Y022541D02*
X007255Y022541D01*
X007164Y022640D02*
X006533Y022640D01*
X006533Y022738D02*
X007123Y022738D01*
X007082Y022837D02*
X006533Y022837D01*
X006533Y022935D02*
X007043Y022935D01*
X007043Y023034D02*
X006533Y023034D01*
X006533Y023132D02*
X007043Y023132D01*
X007043Y023231D02*
X006533Y023231D01*
X006533Y023329D02*
X007070Y023329D01*
X007111Y023428D02*
X006533Y023428D01*
X006533Y023526D02*
X007152Y023526D01*
X007227Y023625D02*
X006533Y023625D01*
X006533Y023723D02*
X007325Y023723D01*
X007453Y023822D02*
X006533Y023822D01*
X006533Y022147D02*
X013002Y022147D01*
X012949Y022049D02*
X006533Y022049D01*
X006533Y021950D02*
X012908Y021950D01*
X012900Y021852D02*
X006533Y021852D01*
X006533Y021753D02*
X012900Y021753D01*
X012924Y021655D02*
X006533Y021655D01*
X006533Y021556D02*
X012965Y021556D01*
X013040Y021458D02*
X011077Y021458D01*
X011249Y021359D02*
X013145Y021359D01*
X010718Y021458D02*
X006533Y021458D01*
X006533Y021359D02*
X010545Y021359D01*
X010447Y021261D02*
X009732Y021261D01*
X009670Y021286D02*
X009446Y021286D01*
X009239Y021200D01*
X009080Y021042D01*
X008994Y020835D01*
X008994Y019823D01*
X009080Y019616D01*
X009239Y019457D01*
X009446Y019371D01*
X009670Y019371D01*
X009877Y019457D01*
X010036Y019616D01*
X010122Y019823D01*
X010122Y020835D01*
X010036Y021042D01*
X009877Y021200D01*
X009670Y021286D01*
X009916Y021162D02*
X010402Y021162D01*
X010361Y021064D02*
X010014Y021064D01*
X010068Y020965D02*
X010357Y020965D01*
X010357Y020867D02*
X010109Y020867D01*
X010122Y020768D02*
X010387Y020768D01*
X010428Y020670D02*
X010122Y020670D01*
X010122Y020571D02*
X010510Y020571D01*
X010633Y020473D02*
X010122Y020473D01*
X010122Y020374D02*
X010560Y020374D01*
X010462Y020276D02*
X010122Y020276D01*
X010122Y020177D02*
X010408Y020177D01*
X010367Y020079D02*
X010122Y020079D01*
X010122Y019980D02*
X010357Y019980D01*
X010357Y019882D02*
X010122Y019882D01*
X010105Y019783D02*
X010381Y019783D01*
X010422Y019685D02*
X010065Y019685D01*
X010007Y019586D02*
X010495Y019586D01*
X010596Y019488D02*
X009908Y019488D01*
X009713Y019389D02*
X013909Y019389D01*
X013909Y019291D02*
X013718Y019291D01*
X013833Y019192D02*
X013909Y019192D01*
X013909Y019488D02*
X011198Y019488D01*
X011299Y019586D02*
X013909Y019586D01*
X013909Y019685D02*
X011373Y019685D01*
X011414Y019783D02*
X013909Y019783D01*
X013909Y019882D02*
X011437Y019882D01*
X012968Y019094D02*
X006533Y019094D01*
X006533Y019192D02*
X013047Y019192D01*
X013161Y019291D02*
X006533Y019291D01*
X006533Y019389D02*
X006922Y019389D01*
X006728Y019488D02*
X006533Y019488D01*
X006533Y019586D02*
X006629Y019586D01*
X006571Y019685D02*
X006533Y019685D01*
X007233Y019389D02*
X009403Y019389D01*
X009208Y019488D02*
X007428Y019488D01*
X007526Y019586D02*
X009110Y019586D01*
X009052Y019685D02*
X007584Y019685D01*
X007625Y019783D02*
X009011Y019783D01*
X008994Y019882D02*
X007642Y019882D01*
X007642Y019980D02*
X008994Y019980D01*
X008994Y020079D02*
X007642Y020079D01*
X007642Y020177D02*
X008994Y020177D01*
X008994Y020276D02*
X007642Y020276D01*
X007642Y020374D02*
X008994Y020374D01*
X008994Y020473D02*
X007642Y020473D01*
X007642Y020571D02*
X008994Y020571D01*
X008994Y020670D02*
X007642Y020670D01*
X007642Y020768D02*
X008994Y020768D01*
X009008Y020867D02*
X007628Y020867D01*
X007587Y020965D02*
X009049Y020965D01*
X009102Y021064D02*
X007534Y021064D01*
X007435Y021162D02*
X009201Y021162D01*
X009385Y021261D02*
X007251Y021261D01*
X006904Y021261D02*
X006533Y021261D01*
X006533Y021162D02*
X006720Y021162D01*
X006622Y021064D02*
X006533Y021064D01*
X006533Y020965D02*
X006568Y020965D01*
X006533Y018995D02*
X012927Y018995D01*
X012900Y018897D02*
X008949Y018897D01*
X008883Y018924D02*
X009090Y018838D01*
X009249Y018680D01*
X009334Y018473D01*
X009334Y018248D01*
X009249Y018041D01*
X009090Y017882D01*
X008883Y017797D01*
X007871Y017797D01*
X007664Y017882D01*
X007505Y018041D01*
X007420Y018248D01*
X007420Y018473D01*
X007505Y018680D01*
X007664Y018838D01*
X007871Y018924D01*
X008883Y018924D01*
X009130Y018798D02*
X012900Y018798D01*
X012906Y018700D02*
X009228Y018700D01*
X009281Y018601D02*
X012946Y018601D01*
X012995Y018503D02*
X009322Y018503D01*
X009334Y018404D02*
X013093Y018404D01*
X013274Y018306D02*
X009334Y018306D01*
X009318Y018207D02*
X013909Y018207D01*
X013909Y018109D02*
X009277Y018109D01*
X009218Y018010D02*
X013909Y018010D01*
X013909Y017912D02*
X009119Y017912D01*
X008923Y017813D02*
X013909Y017813D01*
X013909Y017715D02*
X006533Y017715D01*
X006533Y017813D02*
X007831Y017813D01*
X007635Y017912D02*
X006533Y017912D01*
X006533Y018010D02*
X007536Y018010D01*
X007477Y018109D02*
X006533Y018109D01*
X006533Y018207D02*
X007437Y018207D01*
X007420Y018306D02*
X006533Y018306D01*
X006533Y018404D02*
X007420Y018404D01*
X007432Y018503D02*
X006533Y018503D01*
X006533Y018601D02*
X007473Y018601D01*
X007526Y018700D02*
X006533Y018700D01*
X006533Y018798D02*
X007624Y018798D01*
X007806Y018897D02*
X006533Y018897D01*
X006533Y017616D02*
X013909Y017616D01*
X013909Y017518D02*
X006533Y017518D01*
X006533Y017419D02*
X013909Y017419D01*
X013909Y017321D02*
X006533Y017321D01*
X006533Y017222D02*
X013909Y017222D01*
X013909Y017124D02*
X006533Y017124D01*
X006533Y017025D02*
X013909Y017025D01*
X013909Y016927D02*
X006533Y016927D01*
X006533Y016828D02*
X013909Y016828D01*
X013887Y016730D02*
X006533Y016730D01*
X006533Y016631D02*
X013788Y016631D01*
X013690Y016533D02*
X006533Y016533D01*
X010897Y014948D02*
X012416Y014948D01*
X012539Y014760D02*
X014095Y014760D01*
X014095Y014858D02*
X012638Y014858D01*
X012636Y014857D02*
X012636Y014857D01*
X012736Y014957D02*
X014095Y014957D01*
X014095Y015055D02*
X012835Y015055D01*
X012933Y015154D02*
X014095Y015154D01*
X014095Y015252D02*
X013032Y015252D01*
X013130Y015351D02*
X014095Y015351D01*
X014095Y015449D02*
X013229Y015449D01*
X013327Y015548D02*
X014095Y015548D01*
X014095Y015646D02*
X013426Y015646D01*
X013524Y015745D02*
X014095Y015745D01*
X014095Y015843D02*
X013623Y015843D01*
X013721Y015942D02*
X014095Y015942D01*
X014095Y016040D02*
X013820Y016040D01*
X013918Y016139D02*
X014095Y016139D01*
X014095Y016237D02*
X014017Y016237D01*
X014555Y016237D02*
X014568Y016237D01*
X014555Y016139D02*
X014568Y016139D01*
X014555Y016040D02*
X014568Y016040D01*
X014555Y015942D02*
X014568Y015942D01*
X014555Y015843D02*
X014568Y015843D01*
X014555Y015745D02*
X014568Y015745D01*
X014555Y016336D02*
X014568Y016336D01*
X014555Y016434D02*
X014568Y016434D01*
X014555Y016533D02*
X014568Y016533D01*
X014555Y016631D02*
X014568Y016631D01*
X014555Y016730D02*
X014568Y016730D01*
X014555Y016828D02*
X014568Y016828D01*
X014555Y016927D02*
X014568Y016927D01*
X014555Y017025D02*
X014568Y017025D01*
X014555Y017124D02*
X014568Y017124D01*
X014555Y017222D02*
X014568Y017222D01*
X014555Y017321D02*
X014568Y017321D01*
X014555Y017419D02*
X014568Y017419D01*
X014555Y017518D02*
X014568Y017518D01*
X014555Y017616D02*
X014568Y017616D01*
X014555Y017715D02*
X014568Y017715D01*
X014555Y017813D02*
X014568Y017813D01*
X014555Y017912D02*
X014568Y017912D01*
X014555Y018010D02*
X014568Y018010D01*
X014555Y018109D02*
X014568Y018109D01*
X014555Y018207D02*
X014568Y018207D01*
X014555Y018306D02*
X014568Y018306D01*
X014555Y018404D02*
X014568Y018404D01*
X014555Y018503D02*
X014568Y018503D01*
X014555Y018601D02*
X014568Y018601D01*
X014555Y018700D02*
X014568Y018700D01*
X014555Y018798D02*
X014568Y018798D01*
X014555Y018897D02*
X014568Y018897D01*
X014555Y018995D02*
X014568Y018995D01*
X014555Y019094D02*
X014568Y019094D01*
X014555Y019192D02*
X014568Y019192D01*
X014555Y019291D02*
X014568Y019291D01*
X014555Y019389D02*
X014568Y019389D01*
X014565Y019488D02*
X014568Y019488D01*
X013909Y018503D02*
X013884Y018503D01*
X013909Y018404D02*
X013786Y018404D01*
X013909Y018306D02*
X013605Y018306D01*
X017101Y018448D02*
X017203Y018490D01*
X017331Y018618D01*
X017374Y018618D01*
X017707Y018284D01*
X017714Y018278D01*
X017331Y018278D01*
X017203Y018406D01*
X017101Y018448D01*
X017204Y018404D02*
X017587Y018404D01*
X017686Y018306D02*
X017303Y018306D01*
X017216Y018503D02*
X017489Y018503D01*
X017390Y018601D02*
X017314Y018601D01*
X017331Y019278D02*
X017203Y019406D01*
X017101Y019448D01*
X017203Y019490D01*
X017226Y019513D01*
X017462Y019278D01*
X017331Y019278D01*
X017318Y019291D02*
X017449Y019291D01*
X017350Y019389D02*
X017219Y019389D01*
X017198Y019488D02*
X017252Y019488D01*
X014095Y014661D02*
X011363Y014661D01*
X011276Y014563D02*
X014095Y014563D01*
X014095Y014464D02*
X011141Y014464D01*
X028076Y016631D02*
X029494Y016631D01*
X029591Y016730D02*
X028174Y016730D01*
X028237Y016828D02*
X029550Y016828D01*
X029532Y016927D02*
X028278Y016927D01*
X028295Y017025D02*
X029532Y017025D01*
X029568Y017124D02*
X028295Y017124D01*
X028278Y017222D02*
X029631Y017222D01*
X029757Y017321D02*
X028237Y017321D01*
X030513Y015548D02*
X031123Y015548D01*
X031123Y015646D02*
X030694Y015646D01*
X039136Y011597D02*
X039373Y011361D01*
X039609Y011597D01*
X039373Y011834D01*
X039136Y011597D01*
X039147Y011608D02*
X039599Y011608D01*
X039521Y011509D02*
X039224Y011509D01*
X039323Y011411D02*
X039422Y011411D01*
X039500Y011706D02*
X039245Y011706D01*
X039344Y011805D02*
X039402Y011805D01*
X039373Y010834D02*
X039609Y010597D01*
X039373Y010361D01*
X039136Y010597D01*
X039373Y010834D01*
X039359Y010820D02*
X039387Y010820D01*
X039485Y010721D02*
X039260Y010721D01*
X039162Y010623D02*
X039584Y010623D01*
X039536Y010524D02*
X039209Y010524D01*
X039308Y010426D02*
X039437Y010426D01*
X039373Y009834D02*
X039609Y009597D01*
X039373Y009361D01*
X039136Y009597D01*
X039373Y009834D01*
X039470Y009736D02*
X039275Y009736D01*
X039177Y009638D02*
X039569Y009638D01*
X039551Y009539D02*
X039194Y009539D01*
X039293Y009441D02*
X039452Y009441D01*
X039373Y008834D02*
X039349Y008810D01*
X039397Y008810D01*
X039373Y008834D01*
X039381Y008370D02*
X039373Y008361D01*
X039364Y008370D01*
X039381Y008370D01*
X038333Y008259D02*
X037103Y008259D01*
X039119Y006580D02*
X039373Y006834D01*
X039627Y006580D01*
X039567Y006555D01*
X039415Y006403D01*
X039373Y006301D01*
X039330Y006403D01*
X039179Y006555D01*
X039119Y006580D01*
X039123Y006584D02*
X039622Y006584D01*
X039524Y006683D02*
X039222Y006683D01*
X039320Y006781D02*
X039425Y006781D01*
X039497Y006486D02*
X039248Y006486D01*
X039337Y006387D02*
X039408Y006387D01*
X039413Y005796D02*
X039332Y005796D01*
X039237Y005698D02*
X039509Y005698D01*
X039664Y005599D02*
X039081Y005599D01*
X037710Y004614D02*
X037036Y004614D01*
X037218Y004516D02*
X037527Y004516D01*
X037429Y004417D02*
X037316Y004417D01*
X037365Y004319D02*
X037380Y004319D01*
X034710Y004614D02*
X034036Y004614D01*
X034218Y004516D02*
X034527Y004516D01*
X034429Y004417D02*
X034316Y004417D01*
X034365Y004319D02*
X034380Y004319D01*
X031710Y004614D02*
X031036Y004614D01*
X031218Y004516D02*
X031527Y004516D01*
X031429Y004417D02*
X031316Y004417D01*
X031365Y004319D02*
X031380Y004319D01*
X028592Y003629D02*
X028154Y003629D01*
X028267Y003728D02*
X028479Y003728D01*
X028400Y003826D02*
X028345Y003826D01*
X018592Y003629D02*
X018154Y003629D01*
X018267Y003728D02*
X018479Y003728D01*
X018400Y003826D02*
X018345Y003826D01*
X015592Y003629D02*
X015154Y003629D01*
X015267Y003728D02*
X015479Y003728D01*
X015400Y003826D02*
X015345Y003826D01*
X040136Y009597D02*
X040346Y009388D01*
X040346Y009807D01*
X040136Y009597D01*
X040177Y009638D02*
X040346Y009638D01*
X040346Y009736D02*
X040275Y009736D01*
X040346Y009539D02*
X040194Y009539D01*
X040293Y009441D02*
X040346Y009441D01*
X040346Y010388D02*
X040136Y010597D01*
X040346Y010807D01*
X040346Y010388D01*
X040346Y010426D02*
X040308Y010426D01*
X040346Y010524D02*
X040209Y010524D01*
X040162Y010623D02*
X040346Y010623D01*
X040346Y010721D02*
X040260Y010721D01*
D21*
X017849Y012428D03*
X015152Y018767D03*
D22*
X016897Y018948D02*
X017510Y018948D01*
X017987Y018471D01*
X021345Y018471D01*
X022546Y019672D01*
X023546Y019672D02*
X021822Y017948D01*
X016897Y017948D01*
X018302Y018904D02*
X020778Y018904D01*
X021546Y019672D01*
X020546Y019672D02*
X018577Y019672D01*
X017302Y020948D01*
X016897Y020948D01*
X016897Y019948D02*
X017259Y019948D01*
X018302Y018904D01*
M02*
