G75*
%MOIN*%
%OFA0B0*%
%FSLAX24Y24*%
%IPPOS*%
%LPD*%
%AMOC8*
5,1,8,0,0,1.08239X$1,22.5*
%
%ADD10C,0.0800*%
%ADD11C,0.0847*%
%ADD12R,0.0800X0.0800*%
%ADD13C,0.0050*%
%ADD14OC8,0.0800*%
%ADD15C,0.1320*%
%ADD16C,0.0540*%
%ADD17OC8,0.0660*%
%ADD18C,0.1360*%
%ADD19R,0.0436X0.0436*%
D10*
X011007Y004054D03*
X012007Y004054D03*
X013007Y004054D03*
X014007Y004054D03*
X015007Y004054D03*
X016007Y004054D03*
X018007Y004054D03*
X019007Y004054D03*
X020007Y004054D03*
X021007Y004054D03*
X022007Y004054D03*
X023007Y004054D03*
X024007Y004054D03*
X025007Y004054D03*
X027007Y004054D03*
X028007Y004054D03*
X029007Y004054D03*
X030007Y004054D03*
X031007Y004054D03*
X032007Y004054D03*
X033007Y004054D03*
X034007Y004054D03*
X035007Y006054D03*
X036007Y006054D03*
X029448Y010893D03*
X026448Y010893D03*
X025136Y010912D03*
X022136Y010912D03*
X017173Y011373D03*
X017173Y012373D03*
X011173Y012373D03*
X011173Y011373D03*
X011173Y009373D03*
X011173Y008373D03*
X011173Y007373D03*
X011173Y006373D03*
X017173Y006373D03*
X017173Y007373D03*
X008282Y014412D03*
X008282Y015412D03*
X011173Y016373D03*
X011173Y017373D03*
X013440Y018822D03*
X011173Y020373D03*
X011173Y021373D03*
X013440Y021822D03*
X013407Y023054D03*
X012407Y023054D03*
X011407Y023054D03*
X010407Y023054D03*
X009407Y023054D03*
X008407Y023054D03*
X007407Y023054D03*
X014407Y023054D03*
X016007Y023054D03*
X017007Y023054D03*
X018007Y023054D03*
X019007Y023054D03*
X020007Y023054D03*
X021007Y023054D03*
X022007Y023054D03*
X023007Y023054D03*
X025007Y023054D03*
X026007Y023054D03*
X027007Y023054D03*
X028007Y023054D03*
X029007Y023054D03*
X030007Y023054D03*
X031007Y023054D03*
X032007Y023054D03*
X031924Y021377D03*
X031924Y020377D03*
X028878Y020365D03*
X028878Y021365D03*
X025837Y021310D03*
X025837Y020310D03*
X022888Y020318D03*
X022888Y021318D03*
X019877Y021318D03*
X019877Y020318D03*
X017173Y020373D03*
X017173Y019373D03*
X017173Y021373D03*
X031924Y017440D03*
X031924Y016440D03*
X031924Y013700D03*
X031924Y012700D03*
X035007Y023054D03*
X036007Y023054D03*
D11*
X009558Y020723D02*
X009558Y019935D01*
X007078Y019935D02*
X007078Y020723D01*
X007983Y018360D02*
X008771Y018360D01*
D12*
X008282Y013412D03*
X019877Y019318D03*
X022888Y019318D03*
X025837Y019310D03*
X028878Y019365D03*
X031924Y019377D03*
X031924Y015440D03*
X031924Y011700D03*
D13*
X007274Y003835D02*
X007254Y003867D01*
X007241Y003903D01*
X007237Y003940D01*
X007238Y003945D01*
X007242Y003984D01*
X007255Y004020D01*
X007276Y004053D01*
X007304Y004080D01*
X007337Y004101D01*
X007373Y004113D01*
X007412Y004117D01*
X007410Y004117D01*
X007448Y004114D01*
X007484Y004103D01*
X007517Y004084D01*
X007545Y004058D01*
X007566Y004027D01*
X007580Y003991D01*
X007586Y003953D01*
X007585Y003941D01*
X007580Y003903D01*
X007567Y003867D01*
X007546Y003835D01*
X007518Y003808D01*
X007486Y003788D01*
X007449Y003775D01*
X007411Y003771D01*
X007407Y003771D01*
X007369Y003775D01*
X007333Y003788D01*
X007301Y003808D01*
X007274Y003835D01*
X007295Y003814D02*
X007525Y003814D01*
X007564Y003863D02*
X007256Y003863D01*
X007240Y003911D02*
X007581Y003911D01*
X007585Y003960D02*
X007240Y003960D01*
X007251Y004008D02*
X007574Y004008D01*
X007546Y004057D02*
X007280Y004057D01*
X007350Y004105D02*
X007477Y004105D01*
X009020Y003942D02*
X009024Y003905D01*
X009037Y003869D01*
X009057Y003837D01*
X009084Y003810D01*
X009116Y003790D01*
X009152Y003778D01*
X009190Y003773D01*
X009194Y003773D01*
X009232Y003777D01*
X009269Y003790D01*
X009301Y003810D01*
X009329Y003837D01*
X009350Y003869D01*
X009363Y003905D01*
X009368Y003943D01*
X009369Y003955D01*
X009363Y003993D01*
X009349Y004029D01*
X009328Y004060D01*
X009300Y004086D01*
X009267Y004105D01*
X009231Y004116D01*
X009193Y004119D01*
X009195Y004119D01*
X009156Y004115D01*
X009120Y004103D01*
X009087Y004082D01*
X009059Y004055D01*
X009038Y004022D01*
X009025Y003986D01*
X009021Y003947D01*
X009020Y003942D01*
X009022Y003960D02*
X009368Y003960D01*
X009364Y003911D02*
X009023Y003911D01*
X009041Y003863D02*
X009346Y003863D01*
X009306Y003814D02*
X009080Y003814D01*
X009033Y004008D02*
X009357Y004008D01*
X009330Y004057D02*
X009061Y004057D01*
X009127Y004105D02*
X009267Y004105D01*
X009193Y006333D02*
X009231Y006337D01*
X009268Y006350D01*
X009300Y006370D01*
X009328Y006397D01*
X009349Y006429D01*
X009362Y006465D01*
X009367Y006503D01*
X009368Y006515D01*
X009362Y006553D01*
X009348Y006589D01*
X009327Y006620D01*
X009299Y006646D01*
X009266Y006665D01*
X009230Y006676D01*
X009192Y006679D01*
X009194Y006679D01*
X009155Y006675D01*
X009119Y006663D01*
X009086Y006642D01*
X009058Y006615D01*
X009037Y006582D01*
X009024Y006546D01*
X009020Y006507D01*
X009019Y006502D01*
X009023Y006465D01*
X009036Y006429D01*
X009056Y006397D01*
X009083Y006370D01*
X009115Y006350D01*
X009151Y006338D01*
X009189Y006333D01*
X009193Y006333D01*
X009222Y006336D02*
X009162Y006336D01*
X009068Y006385D02*
X009316Y006385D01*
X009350Y006433D02*
X009034Y006433D01*
X009021Y006482D02*
X009364Y006482D01*
X009366Y006530D02*
X009023Y006530D01*
X009036Y006579D02*
X009352Y006579D01*
X009319Y006627D02*
X009071Y006627D01*
X009161Y006676D02*
X009232Y006676D01*
X007587Y006515D02*
X007581Y006553D01*
X007567Y006589D01*
X007546Y006620D01*
X007518Y006646D01*
X007485Y006665D01*
X007449Y006676D01*
X007411Y006679D01*
X007413Y006679D01*
X007374Y006675D01*
X007338Y006663D01*
X007305Y006642D01*
X007277Y006615D01*
X007256Y006582D01*
X007243Y006546D01*
X007239Y006507D01*
X007238Y006502D01*
X007242Y006465D01*
X007255Y006429D01*
X007275Y006397D01*
X007302Y006370D01*
X007334Y006350D01*
X007370Y006338D01*
X007408Y006333D01*
X007412Y006333D01*
X007450Y006337D01*
X007487Y006350D01*
X007519Y006370D01*
X007547Y006397D01*
X007568Y006429D01*
X007581Y006465D01*
X007586Y006503D01*
X007587Y006515D01*
X007585Y006530D02*
X007242Y006530D01*
X007240Y006482D02*
X007583Y006482D01*
X007569Y006433D02*
X007253Y006433D01*
X007287Y006385D02*
X007535Y006385D01*
X007441Y006336D02*
X007381Y006336D01*
X007255Y006579D02*
X007571Y006579D01*
X007538Y006627D02*
X007290Y006627D01*
X007380Y006676D02*
X007451Y006676D01*
D14*
X035007Y007054D03*
X036007Y007054D03*
X036007Y008054D03*
X035007Y008054D03*
X035007Y009054D03*
X036007Y009054D03*
X036007Y010054D03*
X035007Y010054D03*
X035007Y011054D03*
X036007Y011054D03*
X036007Y012054D03*
X035007Y012054D03*
X035007Y013054D03*
X036007Y013054D03*
X036007Y014054D03*
X035007Y014054D03*
X035007Y015054D03*
X036007Y015054D03*
X036007Y016054D03*
X035007Y016054D03*
X035007Y017054D03*
X036007Y017054D03*
X036007Y018054D03*
X035007Y018054D03*
X035007Y019054D03*
X036007Y019054D03*
X036007Y020054D03*
X035007Y020054D03*
X035007Y021054D03*
X036007Y021054D03*
X036007Y022054D03*
X035007Y022054D03*
D15*
X033507Y023054D03*
X036007Y004054D03*
D16*
X028025Y013776D02*
X028025Y014256D01*
X027025Y014256D02*
X027025Y013776D01*
X026025Y013776D02*
X026025Y014256D01*
X025025Y014256D02*
X025025Y013776D01*
X023083Y013981D02*
X023083Y014461D01*
X022083Y014461D02*
X022083Y013981D01*
X021083Y013981D02*
X021083Y014461D01*
X020083Y014461D02*
X020083Y013981D01*
X020083Y016981D02*
X020083Y017461D01*
X021083Y017461D02*
X021083Y016981D01*
X022083Y016981D02*
X022083Y017461D01*
X023083Y017461D02*
X023083Y016981D01*
X025025Y016776D02*
X025025Y017256D01*
X026025Y017256D02*
X026025Y016776D01*
X027025Y016776D02*
X027025Y017256D01*
X028025Y017256D02*
X028025Y016776D01*
D17*
X028005Y007853D03*
X026925Y007853D03*
X025845Y007853D03*
X024765Y007853D03*
X023685Y007853D03*
X022605Y007853D03*
X023145Y006733D03*
X024225Y006733D03*
X025305Y006733D03*
X026385Y006733D03*
X027465Y006733D03*
X028545Y006733D03*
X029625Y006733D03*
X029085Y007853D03*
X030165Y007853D03*
D18*
X032945Y007293D03*
X019825Y007293D03*
D19*
X024247Y022330D03*
M02*
