G75*
%MOIN*%
%OFA0B0*%
%FSLAX24Y24*%
%IPPOS*%
%LPD*%
%AMOC8*
5,1,8,0,0,1.08239X$1,22.5*
%
%ADD10C,0.0740*%
%ADD11C,0.0787*%
%ADD12R,0.0740X0.0740*%
%ADD13OC8,0.0740*%
%ADD14C,0.0480*%
%ADD15OC8,0.0600*%
%ADD16C,0.2000*%
%ADD17C,0.0120*%
D10*
X007412Y003943D03*
X009192Y003943D03*
X011007Y004054D03*
X012007Y004054D03*
X013007Y004054D03*
X014007Y004054D03*
X015007Y004054D03*
X016007Y004054D03*
X018007Y004054D03*
X019007Y004054D03*
X020007Y004054D03*
X021007Y004054D03*
X022007Y004054D03*
X023007Y004054D03*
X024007Y004054D03*
X025007Y004054D03*
X027007Y004054D03*
X028007Y004054D03*
X029007Y004054D03*
X030007Y004054D03*
X031007Y004054D03*
X032007Y004054D03*
X033007Y004054D03*
X034007Y004054D03*
X035007Y006054D03*
X036007Y006054D03*
X029448Y010893D03*
X026448Y010893D03*
X025136Y010912D03*
X022136Y010912D03*
X017173Y011373D03*
X017173Y012373D03*
X011173Y012373D03*
X011173Y011373D03*
X011173Y009373D03*
X011173Y008373D03*
X011173Y007373D03*
X011173Y006373D03*
X009192Y006503D03*
X007412Y006503D03*
X017173Y006373D03*
X017173Y007373D03*
X029699Y014038D03*
X031904Y015397D03*
X031904Y016397D03*
X029699Y017038D03*
X028878Y020365D03*
X028878Y021365D03*
X029007Y023054D03*
X030007Y023054D03*
X031007Y023054D03*
X032007Y023054D03*
X031924Y021377D03*
X031924Y020377D03*
X035007Y023054D03*
X036007Y023054D03*
X028007Y023054D03*
X027007Y023054D03*
X026007Y023054D03*
X025007Y023054D03*
X023007Y023054D03*
X022007Y023054D03*
X021007Y023054D03*
X020007Y023054D03*
X019007Y023054D03*
X018007Y023054D03*
X017007Y023054D03*
X016007Y023054D03*
X014407Y023054D03*
X013407Y023054D03*
X012407Y023054D03*
X011407Y023054D03*
X010407Y023054D03*
X009407Y023054D03*
X008407Y023054D03*
X007407Y023054D03*
X011173Y021373D03*
X011173Y020373D03*
X013440Y021822D03*
X017173Y021373D03*
X017173Y020373D03*
X017173Y019373D03*
X019877Y020318D03*
X019877Y021318D03*
X022888Y021318D03*
X022888Y020318D03*
X025837Y020310D03*
X025837Y021310D03*
X013440Y018822D03*
X011173Y017373D03*
X011173Y016373D03*
D11*
X008771Y018360D02*
X007983Y018360D01*
X007078Y019935D02*
X007078Y020723D01*
X009558Y020723D02*
X009558Y019935D01*
D12*
X019877Y019318D03*
X022888Y019318D03*
X025837Y019310D03*
X028878Y019365D03*
X031924Y019377D03*
X031904Y014397D03*
D13*
X035007Y014054D03*
X036007Y014054D03*
X036007Y013054D03*
X035007Y013054D03*
X035007Y012054D03*
X036007Y012054D03*
X036007Y011054D03*
X035007Y011054D03*
X035007Y010054D03*
X036007Y010054D03*
X036007Y009054D03*
X035007Y009054D03*
X035007Y008054D03*
X036007Y008054D03*
X036007Y007054D03*
X035007Y007054D03*
X035007Y015054D03*
X036007Y015054D03*
X036007Y016054D03*
X035007Y016054D03*
X035007Y017054D03*
X036007Y017054D03*
X036007Y018054D03*
X035007Y018054D03*
X035007Y019054D03*
X036007Y019054D03*
X036007Y020054D03*
X035007Y020054D03*
X035007Y021054D03*
X036007Y021054D03*
X036007Y022054D03*
X035007Y022054D03*
D14*
X028025Y017256D02*
X028025Y016776D01*
X027025Y016776D02*
X027025Y017256D01*
X026025Y017256D02*
X026025Y016776D01*
X025025Y016776D02*
X025025Y017256D01*
X023083Y017461D02*
X023083Y016981D01*
X022083Y016981D02*
X022083Y017461D01*
X021083Y017461D02*
X021083Y016981D01*
X020083Y016981D02*
X020083Y017461D01*
X020083Y014461D02*
X020083Y013981D01*
X021083Y013981D02*
X021083Y014461D01*
X022083Y014461D02*
X022083Y013981D01*
X023083Y013981D02*
X023083Y014461D01*
X025025Y014256D02*
X025025Y013776D01*
X026025Y013776D02*
X026025Y014256D01*
X027025Y014256D02*
X027025Y013776D01*
X028025Y013776D02*
X028025Y014256D01*
D15*
X028130Y007791D03*
X027050Y007791D03*
X025970Y007791D03*
X024890Y007791D03*
X023810Y007791D03*
X022730Y007791D03*
X023270Y006671D03*
X024350Y006671D03*
X025430Y006671D03*
X026510Y006671D03*
X027590Y006671D03*
X028670Y006671D03*
X029750Y006671D03*
X029210Y007791D03*
X030290Y007791D03*
D16*
X033070Y007231D03*
X019950Y007231D03*
D17*
X006543Y003248D02*
X006543Y019779D01*
X006608Y019622D01*
X006764Y019466D01*
X006968Y019381D01*
X007188Y019381D01*
X007391Y019466D01*
X007547Y019622D01*
X007632Y019825D01*
X007632Y020833D01*
X007547Y021036D01*
X007391Y021192D01*
X007188Y021276D01*
X006968Y021276D01*
X006764Y021192D01*
X006608Y021036D01*
X006543Y020879D01*
X006543Y023828D01*
X033181Y023828D01*
X033031Y023766D01*
X032795Y023530D01*
X032667Y023221D01*
X032667Y022887D01*
X032795Y022578D01*
X033031Y022342D01*
X033339Y022214D01*
X033674Y022214D01*
X033982Y022342D01*
X034219Y022578D01*
X034346Y022887D01*
X034346Y023221D01*
X034219Y023530D01*
X033982Y023766D01*
X033832Y023828D01*
X037993Y023828D01*
X037993Y003248D01*
X036256Y003248D01*
X036482Y003342D01*
X036719Y003578D01*
X036846Y003887D01*
X036846Y004221D01*
X036719Y004530D01*
X036482Y004766D01*
X036174Y004894D01*
X035839Y004894D01*
X035531Y004766D01*
X035295Y004530D01*
X035167Y004221D01*
X035167Y003887D01*
X035295Y003578D01*
X035531Y003342D01*
X035757Y003248D01*
X014491Y003248D01*
X014813Y003560D01*
X014901Y003524D01*
X015112Y003524D01*
X015307Y003605D01*
X015456Y003754D01*
X015507Y003876D01*
X015557Y003754D01*
X015706Y003605D01*
X015901Y003524D01*
X016112Y003524D01*
X016307Y003605D01*
X016456Y003754D01*
X016537Y003949D01*
X016537Y004160D01*
X016456Y004354D01*
X016307Y004503D01*
X016112Y004584D01*
X015901Y004584D01*
X015706Y004503D01*
X015557Y004354D01*
X015507Y004232D01*
X015456Y004354D01*
X015307Y004503D01*
X015227Y004537D01*
X015227Y007880D01*
X015873Y008527D01*
X021684Y008527D01*
X022270Y007940D01*
X022270Y007601D01*
X022540Y007331D01*
X022921Y007331D01*
X023161Y007571D01*
X023380Y007571D01*
X023620Y007331D01*
X024001Y007331D01*
X024241Y007571D01*
X024460Y007571D01*
X024700Y007331D01*
X025081Y007331D01*
X025321Y007571D01*
X025540Y007571D01*
X025780Y007331D01*
X026161Y007331D01*
X026430Y007601D01*
X026430Y007982D01*
X026161Y008251D01*
X025780Y008251D01*
X025540Y008011D01*
X025321Y008011D01*
X025081Y008251D01*
X024700Y008251D01*
X024460Y008011D01*
X024241Y008011D01*
X024001Y008251D01*
X023620Y008251D01*
X023380Y008011D01*
X023161Y008011D01*
X022921Y008251D01*
X022582Y008251D01*
X021866Y008967D01*
X015691Y008967D01*
X015562Y008838D01*
X014787Y008063D01*
X014787Y004537D01*
X014706Y004503D01*
X014557Y004354D01*
X014507Y004232D01*
X014456Y004354D01*
X014307Y004503D01*
X014112Y004584D01*
X013901Y004584D01*
X013706Y004503D01*
X013557Y004354D01*
X013507Y004232D01*
X013456Y004354D01*
X013307Y004503D01*
X013227Y004537D01*
X013227Y009227D01*
X014102Y010102D01*
X021637Y010102D01*
X021951Y010416D01*
X022031Y010382D01*
X022242Y010382D01*
X022437Y010463D01*
X022586Y010612D01*
X022666Y010807D01*
X022666Y011018D01*
X022586Y011213D01*
X022437Y011362D01*
X022242Y011442D01*
X022031Y011442D01*
X021836Y011362D01*
X021687Y011213D01*
X021606Y011018D01*
X021606Y010807D01*
X021640Y010727D01*
X021455Y010542D01*
X013919Y010542D01*
X013790Y010413D01*
X012787Y009409D01*
X012787Y004537D01*
X012706Y004503D01*
X012557Y004354D01*
X012507Y004232D01*
X012456Y004354D01*
X012307Y004503D01*
X012112Y004584D01*
X011901Y004584D01*
X011706Y004503D01*
X011557Y004354D01*
X011507Y004232D01*
X011456Y004354D01*
X011307Y004503D01*
X011112Y004584D01*
X010901Y004584D01*
X010706Y004503D01*
X010557Y004354D01*
X010499Y004213D01*
X010095Y004163D01*
X009674Y004163D01*
X009641Y004244D01*
X009492Y004393D01*
X009297Y004473D01*
X009086Y004473D01*
X008892Y004393D01*
X008743Y004244D01*
X008662Y004049D01*
X008662Y003838D01*
X008743Y003643D01*
X008881Y003504D01*
X007722Y003504D01*
X007861Y003643D01*
X007942Y003838D01*
X007942Y004049D01*
X007861Y004244D01*
X007712Y004393D01*
X007517Y004473D01*
X007306Y004473D01*
X007112Y004393D01*
X006963Y004244D01*
X006882Y004049D01*
X006882Y003838D01*
X006963Y003643D01*
X007112Y003494D01*
X007192Y003461D01*
X007192Y003382D01*
X007174Y003339D01*
X007192Y003295D01*
X007192Y003248D01*
X006543Y003248D01*
X006543Y003275D02*
X007192Y003275D01*
X007192Y003394D02*
X006543Y003394D01*
X006543Y003512D02*
X007093Y003512D01*
X006975Y003631D02*
X006543Y003631D01*
X006543Y003749D02*
X006919Y003749D01*
X006882Y003868D02*
X006543Y003868D01*
X006543Y003986D02*
X006882Y003986D01*
X006905Y004105D02*
X006543Y004105D01*
X006543Y004223D02*
X006954Y004223D01*
X007061Y004342D02*
X006543Y004342D01*
X006543Y004460D02*
X007275Y004460D01*
X007549Y004460D02*
X009055Y004460D01*
X008841Y004342D02*
X007763Y004342D01*
X007870Y004223D02*
X008734Y004223D01*
X008685Y004105D02*
X007919Y004105D01*
X007942Y003986D02*
X008662Y003986D01*
X008662Y003868D02*
X007942Y003868D01*
X007905Y003749D02*
X008699Y003749D01*
X008755Y003631D02*
X007849Y003631D01*
X007730Y003512D02*
X008873Y003512D01*
X009502Y003504D02*
X009641Y003643D01*
X009674Y003723D01*
X010033Y003723D01*
X010045Y003714D01*
X010122Y003723D01*
X010200Y003723D01*
X010210Y003734D01*
X010548Y003776D01*
X010557Y003754D01*
X010706Y003605D01*
X010901Y003524D01*
X011112Y003524D01*
X011307Y003605D01*
X011456Y003754D01*
X011507Y003876D01*
X011557Y003754D01*
X011706Y003605D01*
X011901Y003524D01*
X012112Y003524D01*
X012307Y003605D01*
X012456Y003754D01*
X012507Y003876D01*
X012557Y003754D01*
X012706Y003605D01*
X012901Y003524D01*
X013112Y003524D01*
X013307Y003605D01*
X013456Y003754D01*
X013507Y003876D01*
X013557Y003754D01*
X013706Y003605D01*
X013901Y003524D01*
X014112Y003524D01*
X014167Y003547D01*
X014123Y003504D01*
X009502Y003504D01*
X009510Y003512D02*
X014131Y003512D01*
X014212Y003284D02*
X015007Y004054D01*
X015007Y007971D01*
X015782Y008747D01*
X021775Y008747D01*
X022730Y007791D01*
X023810Y007791D01*
X024890Y007791D01*
X025970Y007791D01*
X025663Y008134D02*
X025198Y008134D01*
X025317Y008015D02*
X025544Y008015D01*
X025570Y007541D02*
X025291Y007541D01*
X025173Y007423D02*
X025688Y007423D01*
X025621Y007131D02*
X025240Y007131D01*
X024970Y006862D01*
X024970Y006481D01*
X025240Y006211D01*
X025621Y006211D01*
X025890Y006481D01*
X025890Y006862D01*
X025621Y007131D01*
X025685Y007067D02*
X026256Y007067D01*
X026320Y007131D02*
X026050Y006862D01*
X026050Y006481D01*
X026320Y006211D01*
X026701Y006211D01*
X026970Y006481D01*
X026970Y006862D01*
X026701Y007131D01*
X026320Y007131D01*
X026138Y006949D02*
X025803Y006949D01*
X025890Y006830D02*
X026050Y006830D01*
X026050Y006712D02*
X025890Y006712D01*
X025890Y006593D02*
X026050Y006593D01*
X026056Y006475D02*
X025885Y006475D01*
X025766Y006356D02*
X026175Y006356D01*
X026293Y006238D02*
X025648Y006238D01*
X025213Y006238D02*
X024568Y006238D01*
X024541Y006211D02*
X024810Y006481D01*
X024810Y006862D01*
X024541Y007131D01*
X024160Y007131D01*
X023890Y006862D01*
X023890Y006481D01*
X024160Y006211D01*
X024541Y006211D01*
X024686Y006356D02*
X025095Y006356D01*
X024976Y006475D02*
X024805Y006475D01*
X024810Y006593D02*
X024970Y006593D01*
X024970Y006712D02*
X024810Y006712D01*
X024810Y006830D02*
X024970Y006830D01*
X025058Y006949D02*
X024723Y006949D01*
X024605Y007067D02*
X025176Y007067D01*
X024608Y007423D02*
X024093Y007423D01*
X024211Y007541D02*
X024490Y007541D01*
X024464Y008015D02*
X024237Y008015D01*
X024118Y008134D02*
X024583Y008134D01*
X023503Y008134D02*
X023038Y008134D01*
X023157Y008015D02*
X023384Y008015D01*
X023410Y007541D02*
X023131Y007541D01*
X023013Y007423D02*
X023528Y007423D01*
X023461Y007131D02*
X023080Y007131D01*
X022810Y006862D01*
X022810Y006481D01*
X023080Y006211D01*
X023461Y006211D01*
X023730Y006481D01*
X023730Y006862D01*
X023461Y007131D01*
X023525Y007067D02*
X024096Y007067D01*
X023978Y006949D02*
X023643Y006949D01*
X023730Y006830D02*
X023890Y006830D01*
X023890Y006712D02*
X023730Y006712D01*
X023730Y006593D02*
X023890Y006593D01*
X023896Y006475D02*
X023725Y006475D01*
X023606Y006356D02*
X024015Y006356D01*
X024133Y006238D02*
X023488Y006238D01*
X023053Y006238D02*
X020550Y006238D01*
X020663Y006303D02*
X020879Y006519D01*
X021031Y006784D01*
X021110Y007079D01*
X021110Y007384D01*
X021031Y007679D01*
X020879Y007944D01*
X020663Y008159D01*
X020398Y008312D01*
X020103Y008391D01*
X019798Y008391D01*
X019503Y008312D01*
X019238Y008159D01*
X019022Y007944D01*
X018870Y007679D01*
X018790Y007384D01*
X018790Y007079D01*
X018870Y006784D01*
X019022Y006519D01*
X019238Y006303D01*
X019503Y006150D01*
X019798Y006071D01*
X020103Y006071D01*
X020398Y006150D01*
X020663Y006303D01*
X020716Y006356D02*
X022935Y006356D01*
X022816Y006475D02*
X020835Y006475D01*
X020922Y006593D02*
X022810Y006593D01*
X022810Y006712D02*
X020990Y006712D01*
X021044Y006830D02*
X022810Y006830D01*
X022898Y006949D02*
X021076Y006949D01*
X021107Y007067D02*
X023016Y007067D01*
X022448Y007423D02*
X021100Y007423D01*
X021110Y007304D02*
X031910Y007304D01*
X031910Y007384D02*
X031910Y007079D01*
X031990Y006784D01*
X032142Y006519D01*
X032358Y006303D01*
X032623Y006150D01*
X032918Y006071D01*
X033223Y006071D01*
X033518Y006150D01*
X033783Y006303D01*
X033999Y006519D01*
X034151Y006784D01*
X034230Y007079D01*
X034230Y007384D01*
X034185Y007552D01*
X034477Y007261D01*
X034477Y006835D01*
X034778Y006533D01*
X034706Y006503D01*
X034557Y006354D01*
X034477Y006160D01*
X034477Y005949D01*
X034557Y005754D01*
X034706Y005605D01*
X034901Y005524D01*
X035112Y005524D01*
X035307Y005605D01*
X035456Y005754D01*
X035507Y005876D01*
X035557Y005754D01*
X035706Y005605D01*
X035901Y005524D01*
X036112Y005524D01*
X036307Y005605D01*
X036456Y005754D01*
X036537Y005949D01*
X036537Y006160D01*
X036456Y006354D01*
X036307Y006503D01*
X036235Y006533D01*
X036537Y006835D01*
X036537Y007274D01*
X036256Y007554D01*
X036537Y007835D01*
X036537Y008274D01*
X036256Y008554D01*
X036537Y008835D01*
X036537Y009274D01*
X036256Y009554D01*
X036537Y009835D01*
X036537Y010274D01*
X036256Y010554D01*
X036537Y010835D01*
X036537Y011274D01*
X036256Y011554D01*
X036537Y011835D01*
X036537Y012274D01*
X036256Y012554D01*
X036537Y012835D01*
X036537Y013274D01*
X036256Y013554D01*
X036537Y013835D01*
X036537Y014274D01*
X036256Y014554D01*
X036537Y014835D01*
X036537Y015274D01*
X036256Y015554D01*
X036537Y015835D01*
X036537Y016274D01*
X036256Y016554D01*
X036537Y016835D01*
X036537Y017274D01*
X036256Y017554D01*
X036537Y017835D01*
X036537Y018274D01*
X036256Y018554D01*
X036537Y018835D01*
X036537Y019274D01*
X036256Y019554D01*
X036537Y019835D01*
X036537Y020274D01*
X036256Y020554D01*
X036537Y020835D01*
X036537Y021274D01*
X036256Y021554D01*
X036537Y021835D01*
X036537Y022274D01*
X036235Y022575D01*
X036307Y022605D01*
X036456Y022754D01*
X036537Y022949D01*
X036537Y023160D01*
X036456Y023354D01*
X036307Y023503D01*
X036112Y023584D01*
X035901Y023584D01*
X035706Y023503D01*
X035557Y023354D01*
X035507Y023232D01*
X035456Y023354D01*
X035307Y023503D01*
X035112Y023584D01*
X034901Y023584D01*
X034706Y023503D01*
X034557Y023354D01*
X034477Y023160D01*
X034477Y022949D01*
X034557Y022754D01*
X034706Y022605D01*
X034778Y022575D01*
X034477Y022274D01*
X034477Y021835D01*
X034757Y021554D01*
X034477Y021274D01*
X034477Y020835D01*
X034757Y020554D01*
X034477Y020274D01*
X034477Y019835D01*
X034757Y019554D01*
X034477Y019274D01*
X034477Y018835D01*
X034757Y018554D01*
X034477Y018274D01*
X034477Y017835D01*
X034757Y017554D01*
X034477Y017274D01*
X034477Y016835D01*
X034757Y016554D01*
X034477Y016274D01*
X034477Y015835D01*
X034757Y015554D01*
X034477Y015274D01*
X034477Y014835D01*
X034757Y014554D01*
X034477Y014274D01*
X034477Y013835D01*
X034757Y013554D01*
X034477Y013274D01*
X034477Y012835D01*
X034757Y012554D01*
X034477Y012274D01*
X034477Y011835D01*
X034757Y011554D01*
X034477Y011274D01*
X034477Y010835D01*
X034757Y010554D01*
X034477Y010274D01*
X034477Y009835D01*
X034757Y009554D01*
X034477Y009274D01*
X034477Y008835D01*
X034541Y008770D01*
X033393Y008770D01*
X028912Y013251D01*
X031070Y013251D01*
X031685Y013867D01*
X032340Y013867D01*
X032434Y013960D01*
X032434Y014833D01*
X032340Y014927D01*
X032154Y014927D01*
X032204Y014947D01*
X032354Y015096D01*
X032434Y015291D01*
X032434Y015502D01*
X032354Y015697D01*
X032204Y015846D01*
X032082Y015897D01*
X032204Y015947D01*
X032354Y016096D01*
X032434Y016291D01*
X032434Y016502D01*
X032354Y016697D01*
X032204Y016846D01*
X032010Y016927D01*
X031799Y016927D01*
X031604Y016846D01*
X031455Y016697D01*
X031374Y016502D01*
X031374Y016291D01*
X031455Y016096D01*
X031604Y015947D01*
X031726Y015897D01*
X031604Y015846D01*
X031455Y015697D01*
X031374Y015502D01*
X031374Y015291D01*
X031455Y015096D01*
X031604Y014947D01*
X031654Y014927D01*
X031468Y014927D01*
X031374Y014833D01*
X031374Y014178D01*
X030888Y013691D01*
X030102Y013691D01*
X030149Y013738D01*
X030229Y013933D01*
X030229Y014144D01*
X030149Y014339D01*
X030000Y014488D01*
X029805Y014568D01*
X029594Y014568D01*
X029514Y014535D01*
X027404Y016645D01*
X027425Y016696D01*
X027425Y017335D01*
X027364Y017482D01*
X027265Y017582D01*
X027288Y017582D01*
X027290Y017580D01*
X027379Y017582D01*
X027468Y017582D01*
X027470Y017584D01*
X027472Y017584D01*
X027534Y017648D01*
X027597Y017711D01*
X027597Y017714D01*
X028674Y018835D01*
X029314Y018835D01*
X029408Y018929D01*
X029408Y019801D01*
X029314Y019895D01*
X029128Y019895D01*
X029178Y019916D01*
X029327Y020065D01*
X029408Y020260D01*
X029408Y020471D01*
X029327Y020665D01*
X029178Y020814D01*
X029055Y020865D01*
X029178Y020916D01*
X029327Y021065D01*
X029408Y021260D01*
X029408Y021471D01*
X029327Y021665D01*
X029178Y021814D01*
X028983Y021895D01*
X028772Y021895D01*
X028577Y021814D01*
X028428Y021665D01*
X028348Y021471D01*
X028348Y021260D01*
X028428Y021065D01*
X028577Y020916D01*
X028700Y020865D01*
X028577Y020814D01*
X028428Y020665D01*
X028348Y020471D01*
X028348Y020260D01*
X028428Y020065D01*
X028577Y019916D01*
X028627Y019895D01*
X028441Y019895D01*
X028348Y019801D01*
X028348Y019131D01*
X027283Y018022D01*
X026124Y018022D01*
X025995Y017893D01*
X025805Y017703D01*
X025805Y017598D01*
X025799Y017595D01*
X025686Y017482D01*
X025625Y017335D01*
X025625Y016696D01*
X025686Y016549D01*
X025799Y016437D01*
X025946Y016376D01*
X026105Y016376D01*
X026252Y016437D01*
X026364Y016549D01*
X026425Y016696D01*
X026425Y017335D01*
X026364Y017482D01*
X026285Y017561D01*
X026306Y017582D01*
X026786Y017582D01*
X026686Y017482D01*
X026625Y017335D01*
X026625Y016696D01*
X026686Y016549D01*
X026799Y016437D01*
X026946Y016376D01*
X027051Y016376D01*
X029203Y014224D01*
X029169Y014144D01*
X029169Y013933D01*
X029250Y013738D01*
X029297Y013691D01*
X028865Y013691D01*
X028425Y014132D01*
X028425Y014335D01*
X028364Y014482D01*
X028252Y014595D01*
X028105Y014656D01*
X028098Y014656D01*
X027419Y015334D01*
X027291Y015463D01*
X023153Y015463D01*
X022034Y016581D01*
X022163Y016581D01*
X022310Y016642D01*
X022422Y016755D01*
X022483Y016902D01*
X022483Y017541D01*
X022422Y017688D01*
X022310Y017801D01*
X022301Y017804D01*
X022301Y020467D01*
X022430Y020595D01*
X022358Y020423D01*
X022358Y020212D01*
X022439Y020018D01*
X022588Y019869D01*
X022638Y019848D01*
X022452Y019848D01*
X022358Y019754D01*
X022358Y018882D01*
X022452Y018788D01*
X023325Y018788D01*
X023418Y018882D01*
X023418Y019477D01*
X023436Y019459D01*
X023436Y018090D01*
X023194Y017848D01*
X023163Y017861D01*
X023004Y017861D01*
X022857Y017801D01*
X022744Y017688D01*
X022683Y017541D01*
X022683Y016902D01*
X022744Y016755D01*
X022857Y016642D01*
X023004Y016581D01*
X023163Y016581D01*
X023310Y016642D01*
X023422Y016755D01*
X023483Y016902D01*
X023483Y017515D01*
X023747Y017779D01*
X023876Y017908D01*
X023876Y019641D01*
X023385Y020132D01*
X023418Y020212D01*
X023418Y020288D01*
X023616Y020090D01*
X025355Y020090D01*
X025388Y020010D01*
X025537Y019861D01*
X025587Y019840D01*
X025401Y019840D01*
X025307Y019746D01*
X025307Y018874D01*
X025401Y018780D01*
X026274Y018780D01*
X026367Y018874D01*
X026367Y019746D01*
X026274Y019840D01*
X026088Y019840D01*
X026137Y019861D01*
X026287Y020010D01*
X026367Y020205D01*
X026367Y020415D01*
X026287Y020610D01*
X026137Y020759D01*
X026015Y020810D01*
X026137Y020861D01*
X026287Y021010D01*
X026367Y021205D01*
X026367Y021415D01*
X026287Y021610D01*
X026137Y021759D01*
X025943Y021840D01*
X025732Y021840D01*
X025537Y021759D01*
X025388Y021610D01*
X025307Y021415D01*
X025307Y021205D01*
X025388Y021010D01*
X025537Y020861D01*
X025659Y020810D01*
X025537Y020759D01*
X025388Y020610D01*
X025355Y020530D01*
X023798Y020530D01*
X023354Y020975D01*
X023329Y020975D01*
X023312Y020992D01*
X023338Y021018D01*
X023418Y021212D01*
X023418Y021423D01*
X023338Y021618D01*
X023189Y021767D01*
X022994Y021848D01*
X022783Y021848D01*
X022588Y021767D01*
X022439Y021618D01*
X022358Y021423D01*
X022358Y021212D01*
X022431Y021037D01*
X022249Y021037D01*
X021990Y020778D01*
X021861Y020649D01*
X021861Y017802D01*
X021857Y017801D01*
X021744Y017688D01*
X021683Y017541D01*
X021683Y016933D01*
X021483Y017133D01*
X021483Y017541D01*
X021422Y017688D01*
X021317Y017793D01*
X021317Y018287D01*
X021188Y018416D01*
X020407Y019197D01*
X020407Y019754D01*
X020313Y019848D01*
X020127Y019848D01*
X020177Y019869D01*
X020326Y020018D01*
X020407Y020212D01*
X020407Y020423D01*
X020326Y020618D01*
X020177Y020767D01*
X020054Y020818D01*
X020177Y020869D01*
X020326Y021018D01*
X020407Y021212D01*
X020407Y021423D01*
X020326Y021618D01*
X020177Y021767D01*
X019982Y021848D01*
X019771Y021848D01*
X019576Y021767D01*
X019427Y021618D01*
X019347Y021423D01*
X019347Y021212D01*
X019427Y021018D01*
X019576Y020869D01*
X019699Y020818D01*
X019576Y020767D01*
X019427Y020618D01*
X019394Y020538D01*
X018010Y020538D01*
X017677Y020205D01*
X017703Y020268D01*
X017703Y020478D01*
X017622Y020673D01*
X017473Y020822D01*
X017351Y020873D01*
X017473Y020924D01*
X017622Y021073D01*
X017703Y021268D01*
X017703Y021478D01*
X017622Y021673D01*
X017473Y021822D01*
X017278Y021903D01*
X017067Y021903D01*
X016872Y021822D01*
X016723Y021673D01*
X016643Y021478D01*
X016643Y021268D01*
X016723Y021073D01*
X016872Y020924D01*
X016995Y020873D01*
X016872Y020822D01*
X016723Y020673D01*
X016643Y020478D01*
X016643Y020268D01*
X016715Y020092D01*
X014446Y020092D01*
X014627Y020272D01*
X014627Y022572D01*
X014707Y022605D01*
X014856Y022754D01*
X014937Y022949D01*
X014937Y023160D01*
X014856Y023354D01*
X014707Y023503D01*
X014512Y023584D01*
X014301Y023584D01*
X014106Y023503D01*
X013957Y023354D01*
X013907Y023232D01*
X013856Y023354D01*
X013707Y023503D01*
X013512Y023584D01*
X013301Y023584D01*
X013106Y023503D01*
X012957Y023354D01*
X012907Y023232D01*
X012856Y023354D01*
X012707Y023503D01*
X012512Y023584D01*
X012301Y023584D01*
X012106Y023503D01*
X011957Y023354D01*
X011907Y023232D01*
X011856Y023354D01*
X011707Y023503D01*
X011512Y023584D01*
X011301Y023584D01*
X011106Y023503D01*
X010957Y023354D01*
X010907Y023232D01*
X010856Y023354D01*
X010707Y023503D01*
X010512Y023584D01*
X010301Y023584D01*
X010106Y023503D01*
X009957Y023354D01*
X009907Y023232D01*
X009856Y023354D01*
X009707Y023503D01*
X009512Y023584D01*
X009301Y023584D01*
X009106Y023503D01*
X008957Y023354D01*
X008907Y023232D01*
X008856Y023354D01*
X008707Y023503D01*
X008512Y023584D01*
X008301Y023584D01*
X008106Y023503D01*
X007957Y023354D01*
X007907Y023232D01*
X007856Y023354D01*
X007707Y023503D01*
X007512Y023584D01*
X007301Y023584D01*
X007106Y023503D01*
X006957Y023354D01*
X006877Y023160D01*
X006877Y022949D01*
X006957Y022754D01*
X007106Y022605D01*
X007301Y022524D01*
X007512Y022524D01*
X007707Y022605D01*
X007856Y022754D01*
X007907Y022876D01*
X007957Y022754D01*
X008106Y022605D01*
X008301Y022524D01*
X008512Y022524D01*
X008707Y022605D01*
X008856Y022754D01*
X008907Y022876D01*
X008957Y022754D01*
X009106Y022605D01*
X009301Y022524D01*
X009512Y022524D01*
X009707Y022605D01*
X009856Y022754D01*
X009907Y022876D01*
X009957Y022754D01*
X010106Y022605D01*
X010301Y022524D01*
X010512Y022524D01*
X010707Y022605D01*
X010856Y022754D01*
X010907Y022876D01*
X010957Y022754D01*
X011106Y022605D01*
X011301Y022524D01*
X011512Y022524D01*
X011707Y022605D01*
X011856Y022754D01*
X011907Y022876D01*
X011957Y022754D01*
X012106Y022605D01*
X012301Y022524D01*
X012512Y022524D01*
X012707Y022605D01*
X012856Y022754D01*
X012907Y022876D01*
X012953Y022764D01*
X012345Y022156D01*
X012345Y022156D01*
X012216Y022027D01*
X012216Y017514D01*
X016546Y013183D01*
X016675Y013055D01*
X024375Y013055D01*
X024778Y013457D01*
X024799Y013437D01*
X024946Y013376D01*
X025105Y013376D01*
X025252Y013437D01*
X025364Y013549D01*
X025425Y013696D01*
X025425Y014335D01*
X025364Y014482D01*
X025252Y014595D01*
X025105Y014656D01*
X024946Y014656D01*
X024799Y014595D01*
X024686Y014482D01*
X024625Y014335D01*
X024625Y013927D01*
X024193Y013495D01*
X016858Y013495D01*
X012656Y017696D01*
X012656Y017862D01*
X012738Y017779D01*
X016215Y017779D01*
X019683Y014310D01*
X019683Y013902D01*
X019744Y013755D01*
X019857Y013642D01*
X020004Y013581D01*
X020163Y013581D01*
X020310Y013642D01*
X020422Y013755D01*
X020483Y013902D01*
X020483Y014541D01*
X020422Y014688D01*
X020310Y014801D01*
X020163Y014861D01*
X020004Y014861D01*
X019857Y014801D01*
X019836Y014780D01*
X016397Y018219D01*
X012921Y018219D01*
X012853Y018287D01*
X012853Y019679D01*
X012921Y019747D01*
X014054Y019747D01*
X012920Y019747D01*
X012853Y019628D02*
X013935Y019628D01*
X013817Y019510D02*
X012853Y019510D01*
X012853Y019391D02*
X013698Y019391D01*
X013625Y019319D02*
X013545Y019352D01*
X013334Y019352D01*
X013139Y019271D01*
X012990Y019122D01*
X012910Y018927D01*
X012910Y018716D01*
X012990Y018522D01*
X013139Y018372D01*
X013334Y018292D01*
X013545Y018292D01*
X013740Y018372D01*
X013889Y018522D01*
X013970Y018716D01*
X013970Y018927D01*
X013936Y019007D01*
X014581Y019652D01*
X016715Y019652D01*
X016643Y019478D01*
X016643Y019268D01*
X016723Y019073D01*
X016872Y018924D01*
X017067Y018843D01*
X017278Y018843D01*
X017473Y018924D01*
X017622Y019073D01*
X017632Y019098D01*
X019347Y019098D01*
X019347Y018882D01*
X019440Y018788D01*
X020194Y018788D01*
X020877Y018105D01*
X020877Y017809D01*
X020857Y017801D01*
X020744Y017688D01*
X020683Y017541D01*
X020683Y016902D01*
X020744Y016755D01*
X020857Y016642D01*
X021004Y016581D01*
X021163Y016581D01*
X021310Y016642D01*
X021331Y016663D01*
X022842Y015152D01*
X022863Y015130D01*
X022863Y014803D01*
X022857Y014801D01*
X022744Y014688D01*
X022683Y014541D01*
X022683Y013902D01*
X022744Y013755D01*
X022857Y013642D01*
X023004Y013581D01*
X023163Y013581D01*
X023310Y013642D01*
X023422Y013755D01*
X023483Y013902D01*
X023483Y014541D01*
X023422Y014688D01*
X023310Y014801D01*
X023303Y014803D01*
X023303Y015023D01*
X027108Y015023D01*
X027675Y014456D01*
X027625Y014335D01*
X027625Y013727D01*
X027425Y013927D01*
X027425Y014335D01*
X027364Y014482D01*
X027252Y014595D01*
X027105Y014656D01*
X026946Y014656D01*
X026799Y014595D01*
X026686Y014482D01*
X026625Y014335D01*
X026625Y013727D01*
X026425Y013927D01*
X026425Y014335D01*
X026364Y014482D01*
X026252Y014595D01*
X026105Y014656D01*
X025946Y014656D01*
X025799Y014595D01*
X025686Y014482D01*
X025625Y014335D01*
X025625Y013696D01*
X025686Y013549D01*
X025799Y013437D01*
X025946Y013376D01*
X026105Y013376D01*
X026252Y013437D01*
X026273Y013457D01*
X027069Y012661D01*
X028486Y012661D01*
X032790Y008357D01*
X032623Y008312D01*
X032358Y008159D01*
X032142Y007944D01*
X031990Y007679D01*
X031910Y007384D01*
X031921Y007423D02*
X030573Y007423D01*
X030481Y007331D02*
X030750Y007601D01*
X030750Y007982D01*
X030481Y008251D01*
X030100Y008251D01*
X029830Y007982D01*
X029830Y007601D01*
X030100Y007331D01*
X030481Y007331D01*
X030691Y007541D02*
X031953Y007541D01*
X031984Y007660D02*
X030750Y007660D01*
X030750Y007778D02*
X032047Y007778D01*
X032115Y007897D02*
X030750Y007897D01*
X030717Y008015D02*
X032214Y008015D01*
X032333Y008134D02*
X030598Y008134D01*
X029983Y008134D02*
X029668Y008134D01*
X029668Y008252D02*
X032519Y008252D01*
X032658Y008489D02*
X029668Y008489D01*
X029668Y008371D02*
X032776Y008371D01*
X033105Y008353D02*
X028577Y012881D01*
X027160Y012881D01*
X026025Y014016D01*
X025625Y014059D02*
X025425Y014059D01*
X025425Y014177D02*
X025625Y014177D01*
X025625Y014296D02*
X025425Y014296D01*
X025392Y014414D02*
X025658Y014414D01*
X025737Y014533D02*
X025314Y014533D01*
X025115Y014651D02*
X025935Y014651D01*
X026115Y014651D02*
X026935Y014651D01*
X027115Y014651D02*
X027480Y014651D01*
X027599Y014533D02*
X027314Y014533D01*
X027392Y014414D02*
X027658Y014414D01*
X027625Y014296D02*
X027425Y014296D01*
X027425Y014177D02*
X027625Y014177D01*
X027625Y014059D02*
X027425Y014059D01*
X027425Y013940D02*
X027625Y013940D01*
X027625Y013822D02*
X027530Y013822D01*
X027273Y013457D02*
X027252Y013437D01*
X027105Y013376D01*
X026976Y013376D01*
X027251Y013101D01*
X027629Y013101D01*
X027273Y013457D01*
X027382Y013348D02*
X027004Y013348D01*
X027123Y013229D02*
X027500Y013229D01*
X027619Y013111D02*
X027241Y013111D01*
X026856Y012874D02*
X017348Y012874D01*
X017278Y012903D02*
X017067Y012903D01*
X016872Y012822D01*
X016723Y012673D01*
X016643Y012478D01*
X016643Y012268D01*
X016723Y012073D01*
X016872Y011924D01*
X016995Y011873D01*
X016872Y011822D01*
X016723Y011673D01*
X016643Y011478D01*
X016643Y011268D01*
X016723Y011073D01*
X016872Y010924D01*
X017067Y010843D01*
X017278Y010843D01*
X017473Y010924D01*
X017622Y011073D01*
X017703Y011268D01*
X017703Y011478D01*
X017622Y011673D01*
X017473Y011822D01*
X017351Y011873D01*
X017473Y011924D01*
X017622Y012073D01*
X017703Y012268D01*
X017703Y012478D01*
X017622Y012673D01*
X017473Y012822D01*
X017278Y012903D01*
X016997Y012874D02*
X011348Y012874D01*
X011278Y012903D02*
X011067Y012903D01*
X010872Y012822D01*
X010723Y012673D01*
X010643Y012478D01*
X010643Y012268D01*
X010723Y012073D01*
X010872Y011924D01*
X010995Y011873D01*
X010872Y011822D01*
X010723Y011673D01*
X010643Y011478D01*
X010643Y011268D01*
X010723Y011073D01*
X010872Y010924D01*
X011067Y010843D01*
X011278Y010843D01*
X011473Y010924D01*
X011622Y011073D01*
X011703Y011268D01*
X011703Y011478D01*
X011622Y011673D01*
X011473Y011822D01*
X011351Y011873D01*
X011473Y011924D01*
X011622Y012073D01*
X011703Y012268D01*
X011703Y012478D01*
X011622Y012673D01*
X011473Y012822D01*
X011278Y012903D01*
X010997Y012874D02*
X006543Y012874D01*
X006543Y012992D02*
X026737Y012992D01*
X026619Y013111D02*
X024432Y013111D01*
X024550Y013229D02*
X026500Y013229D01*
X026382Y013348D02*
X024669Y013348D01*
X024284Y013275D02*
X025025Y014016D01*
X024625Y014059D02*
X023483Y014059D01*
X023483Y014177D02*
X024625Y014177D01*
X024625Y014296D02*
X023483Y014296D01*
X023483Y014414D02*
X024658Y014414D01*
X024737Y014533D02*
X023483Y014533D01*
X023438Y014651D02*
X024935Y014651D01*
X024625Y013940D02*
X023483Y013940D01*
X023450Y013822D02*
X024520Y013822D01*
X024402Y013703D02*
X023371Y013703D01*
X023171Y013585D02*
X024283Y013585D01*
X024284Y013275D02*
X016766Y013275D01*
X012436Y017605D01*
X012436Y021936D01*
X013407Y022907D01*
X013407Y023054D01*
X013790Y023420D02*
X014023Y023420D01*
X013936Y023302D02*
X013878Y023302D01*
X013621Y023539D02*
X014192Y023539D01*
X014621Y023539D02*
X015792Y023539D01*
X015706Y023503D02*
X015901Y023584D01*
X016112Y023584D01*
X016307Y023503D01*
X016456Y023354D01*
X016507Y023232D01*
X016557Y023354D01*
X016706Y023503D01*
X016901Y023584D01*
X017112Y023584D01*
X017307Y023503D01*
X017456Y023354D01*
X017507Y023232D01*
X017557Y023354D01*
X017706Y023503D01*
X017901Y023584D01*
X018112Y023584D01*
X018307Y023503D01*
X018456Y023354D01*
X018507Y023232D01*
X018557Y023354D01*
X018706Y023503D01*
X018901Y023584D01*
X019112Y023584D01*
X019307Y023503D01*
X019456Y023354D01*
X019507Y023232D01*
X019557Y023354D01*
X019706Y023503D01*
X019901Y023584D01*
X020112Y023584D01*
X020307Y023503D01*
X020456Y023354D01*
X020507Y023232D01*
X020557Y023354D01*
X020706Y023503D01*
X020901Y023584D01*
X021112Y023584D01*
X021307Y023503D01*
X021456Y023354D01*
X021507Y023232D01*
X021557Y023354D01*
X021706Y023503D01*
X021901Y023584D01*
X022112Y023584D01*
X022307Y023503D01*
X022456Y023354D01*
X022507Y023232D01*
X022557Y023354D01*
X022706Y023503D01*
X022901Y023584D01*
X023112Y023584D01*
X023307Y023503D01*
X023456Y023354D01*
X023537Y023160D01*
X023537Y022949D01*
X023456Y022754D01*
X023307Y022605D01*
X023112Y022524D01*
X022901Y022524D01*
X022706Y022605D01*
X022557Y022754D01*
X022507Y022876D01*
X022456Y022754D01*
X022307Y022605D01*
X022112Y022524D01*
X021901Y022524D01*
X021706Y022605D01*
X021557Y022754D01*
X021507Y022876D01*
X021456Y022754D01*
X021307Y022605D01*
X021112Y022524D01*
X020901Y022524D01*
X020706Y022605D01*
X020557Y022754D01*
X020507Y022876D01*
X020456Y022754D01*
X020307Y022605D01*
X020112Y022524D01*
X019901Y022524D01*
X019706Y022605D01*
X019557Y022754D01*
X019507Y022876D01*
X019456Y022754D01*
X019307Y022605D01*
X019112Y022524D01*
X018901Y022524D01*
X018706Y022605D01*
X018557Y022754D01*
X018507Y022876D01*
X018456Y022754D01*
X018307Y022605D01*
X018112Y022524D01*
X017901Y022524D01*
X017706Y022605D01*
X017557Y022754D01*
X017507Y022876D01*
X017456Y022754D01*
X017307Y022605D01*
X017112Y022524D01*
X016901Y022524D01*
X016706Y022605D01*
X016557Y022754D01*
X016507Y022876D01*
X016456Y022754D01*
X016307Y022605D01*
X016112Y022524D01*
X015901Y022524D01*
X015706Y022605D01*
X015557Y022754D01*
X015477Y022949D01*
X015477Y023160D01*
X015557Y023354D01*
X015706Y023503D01*
X015623Y023420D02*
X014790Y023420D01*
X014878Y023302D02*
X015536Y023302D01*
X015486Y023183D02*
X014927Y023183D01*
X014937Y023065D02*
X015477Y023065D01*
X015478Y022946D02*
X014936Y022946D01*
X014887Y022828D02*
X015527Y022828D01*
X015602Y022709D02*
X014811Y022709D01*
X014673Y022591D02*
X015740Y022591D01*
X016273Y022591D02*
X016740Y022591D01*
X016602Y022709D02*
X016411Y022709D01*
X016487Y022828D02*
X016527Y022828D01*
X016536Y023302D02*
X016478Y023302D01*
X016390Y023420D02*
X016623Y023420D01*
X016792Y023539D02*
X016221Y023539D01*
X017221Y023539D02*
X017792Y023539D01*
X017623Y023420D02*
X017390Y023420D01*
X017478Y023302D02*
X017536Y023302D01*
X017527Y022828D02*
X017487Y022828D01*
X017411Y022709D02*
X017602Y022709D01*
X017740Y022591D02*
X017273Y022591D01*
X018273Y022591D02*
X018740Y022591D01*
X018602Y022709D02*
X018411Y022709D01*
X018487Y022828D02*
X018527Y022828D01*
X018536Y023302D02*
X018478Y023302D01*
X018390Y023420D02*
X018623Y023420D01*
X018792Y023539D02*
X018221Y023539D01*
X019221Y023539D02*
X019792Y023539D01*
X019623Y023420D02*
X019390Y023420D01*
X019478Y023302D02*
X019536Y023302D01*
X019527Y022828D02*
X019487Y022828D01*
X019411Y022709D02*
X019602Y022709D01*
X019740Y022591D02*
X019273Y022591D01*
X020273Y022591D02*
X020740Y022591D01*
X020602Y022709D02*
X020411Y022709D01*
X020487Y022828D02*
X020527Y022828D01*
X020536Y023302D02*
X020478Y023302D01*
X020390Y023420D02*
X020623Y023420D01*
X020792Y023539D02*
X020221Y023539D01*
X021221Y023539D02*
X021792Y023539D01*
X021623Y023420D02*
X021390Y023420D01*
X021478Y023302D02*
X021536Y023302D01*
X022221Y023539D02*
X022792Y023539D01*
X022623Y023420D02*
X022390Y023420D01*
X022478Y023302D02*
X022536Y023302D01*
X022527Y022828D02*
X022487Y022828D01*
X022411Y022709D02*
X022602Y022709D01*
X022740Y022591D02*
X022273Y022591D01*
X021740Y022591D02*
X021273Y022591D01*
X021411Y022709D02*
X021602Y022709D01*
X021527Y022828D02*
X021487Y022828D01*
X022582Y021761D02*
X020183Y021761D01*
X020301Y021643D02*
X022464Y021643D01*
X022400Y021524D02*
X020365Y021524D01*
X020407Y021406D02*
X022358Y021406D01*
X022358Y021287D02*
X020407Y021287D01*
X020389Y021169D02*
X022376Y021169D01*
X022426Y021050D02*
X020340Y021050D01*
X020240Y020932D02*
X022144Y020932D01*
X022026Y020813D02*
X020065Y020813D01*
X020249Y020695D02*
X021907Y020695D01*
X021861Y020576D02*
X020343Y020576D01*
X020392Y020458D02*
X021861Y020458D01*
X021861Y020339D02*
X020407Y020339D01*
X020407Y020221D02*
X021861Y020221D01*
X021861Y020102D02*
X020361Y020102D01*
X020292Y019984D02*
X021861Y019984D01*
X021861Y019865D02*
X020169Y019865D01*
X020407Y019747D02*
X021861Y019747D01*
X021861Y019628D02*
X020407Y019628D01*
X020407Y019510D02*
X021861Y019510D01*
X021861Y019391D02*
X020407Y019391D01*
X020407Y019273D02*
X021861Y019273D01*
X021861Y019154D02*
X020450Y019154D01*
X020568Y019036D02*
X021861Y019036D01*
X021861Y018917D02*
X020687Y018917D01*
X020805Y018799D02*
X021861Y018799D01*
X021861Y018680D02*
X020924Y018680D01*
X021042Y018562D02*
X021861Y018562D01*
X021861Y018443D02*
X021161Y018443D01*
X021279Y018325D02*
X021861Y018325D01*
X021861Y018206D02*
X021317Y018206D01*
X021317Y018088D02*
X021861Y018088D01*
X021861Y017969D02*
X021317Y017969D01*
X021317Y017851D02*
X021861Y017851D01*
X021789Y017732D02*
X021378Y017732D01*
X021453Y017614D02*
X021714Y017614D01*
X021683Y017495D02*
X021483Y017495D01*
X021483Y017377D02*
X021683Y017377D01*
X021683Y017258D02*
X021483Y017258D01*
X021483Y017140D02*
X021683Y017140D01*
X021683Y017021D02*
X021595Y017021D01*
X022081Y017223D02*
X022083Y017221D01*
X022081Y017223D02*
X022081Y020558D01*
X022340Y020817D01*
X023176Y020817D01*
X023238Y020755D01*
X023262Y020755D01*
X023707Y020310D01*
X025837Y020310D01*
X026325Y020102D02*
X028413Y020102D01*
X028364Y020221D02*
X026367Y020221D01*
X026367Y020339D02*
X028348Y020339D01*
X028348Y020458D02*
X026350Y020458D01*
X026301Y020576D02*
X028391Y020576D01*
X028458Y020695D02*
X026202Y020695D01*
X026023Y020813D02*
X028576Y020813D01*
X028561Y020932D02*
X026209Y020932D01*
X026303Y021050D02*
X028443Y021050D01*
X028385Y021169D02*
X026352Y021169D01*
X026367Y021287D02*
X028348Y021287D01*
X028348Y021406D02*
X026367Y021406D01*
X026322Y021524D02*
X028370Y021524D01*
X028419Y021643D02*
X026254Y021643D01*
X026132Y021761D02*
X028524Y021761D01*
X028735Y021880D02*
X017334Y021880D01*
X017534Y021761D02*
X019571Y021761D01*
X019452Y021643D02*
X017635Y021643D01*
X017684Y021524D02*
X019389Y021524D01*
X019347Y021406D02*
X017703Y021406D01*
X017703Y021287D02*
X019347Y021287D01*
X019365Y021169D02*
X017662Y021169D01*
X017600Y021050D02*
X019414Y021050D01*
X019513Y020932D02*
X017481Y020932D01*
X017482Y020813D02*
X019688Y020813D01*
X019504Y020695D02*
X017600Y020695D01*
X017662Y020576D02*
X019410Y020576D01*
X019877Y020318D02*
X018101Y020318D01*
X017751Y019967D01*
X017702Y019967D01*
X017607Y019872D01*
X014490Y019872D01*
X013440Y018822D01*
X013811Y018443D02*
X020538Y018443D01*
X020420Y018562D02*
X013906Y018562D01*
X013955Y018680D02*
X020301Y018680D01*
X020657Y018325D02*
X013625Y018325D01*
X013254Y018325D02*
X012853Y018325D01*
X012853Y018443D02*
X013069Y018443D01*
X012974Y018562D02*
X012853Y018562D01*
X012853Y018680D02*
X012925Y018680D01*
X012910Y018799D02*
X012853Y018799D01*
X012853Y018917D02*
X012910Y018917D01*
X012955Y019036D02*
X012853Y019036D01*
X012853Y019154D02*
X013023Y019154D01*
X013144Y019273D02*
X012853Y019273D01*
X012633Y019771D02*
X012633Y018196D01*
X012829Y017999D01*
X016306Y017999D01*
X020083Y014221D01*
X019683Y014177D02*
X016175Y014177D01*
X016293Y014059D02*
X019683Y014059D01*
X019683Y013940D02*
X016412Y013940D01*
X016530Y013822D02*
X019716Y013822D01*
X019796Y013703D02*
X016649Y013703D01*
X016767Y013585D02*
X019995Y013585D01*
X020171Y013585D02*
X020995Y013585D01*
X021004Y013581D02*
X021163Y013581D01*
X021310Y013642D01*
X021422Y013755D01*
X021483Y013902D01*
X021483Y014541D01*
X021422Y014688D01*
X021310Y014801D01*
X021163Y014861D01*
X021004Y014861D01*
X020857Y014801D01*
X020744Y014688D01*
X020683Y014541D01*
X020683Y013902D01*
X020744Y013755D01*
X020857Y013642D01*
X021004Y013581D01*
X021171Y013585D02*
X021995Y013585D01*
X022004Y013581D02*
X022163Y013581D01*
X022310Y013642D01*
X022422Y013755D01*
X022483Y013902D01*
X022483Y014541D01*
X022422Y014688D01*
X022310Y014801D01*
X022163Y014861D01*
X022004Y014861D01*
X021857Y014801D01*
X021744Y014688D01*
X021683Y014541D01*
X021683Y013902D01*
X021744Y013755D01*
X021857Y013642D01*
X022004Y013581D01*
X022171Y013585D02*
X022995Y013585D01*
X022796Y013703D02*
X022371Y013703D01*
X022450Y013822D02*
X022716Y013822D01*
X022683Y013940D02*
X022483Y013940D01*
X022483Y014059D02*
X022683Y014059D01*
X022683Y014177D02*
X022483Y014177D01*
X022483Y014296D02*
X022683Y014296D01*
X022683Y014414D02*
X022483Y014414D01*
X022483Y014533D02*
X022683Y014533D01*
X022729Y014651D02*
X022438Y014651D01*
X022341Y014770D02*
X022826Y014770D01*
X022863Y014888D02*
X019728Y014888D01*
X019609Y015007D02*
X022863Y015007D01*
X022863Y015125D02*
X019491Y015125D01*
X019372Y015244D02*
X022750Y015244D01*
X022631Y015362D02*
X019254Y015362D01*
X019135Y015481D02*
X022513Y015481D01*
X022394Y015599D02*
X019017Y015599D01*
X018898Y015718D02*
X022276Y015718D01*
X022157Y015836D02*
X018780Y015836D01*
X018661Y015955D02*
X022039Y015955D01*
X021920Y016073D02*
X018543Y016073D01*
X018424Y016192D02*
X021802Y016192D01*
X021683Y016310D02*
X018306Y016310D01*
X018187Y016429D02*
X021565Y016429D01*
X021446Y016547D02*
X018069Y016547D01*
X017950Y016666D02*
X019833Y016666D01*
X019857Y016642D02*
X020004Y016581D01*
X020163Y016581D01*
X020310Y016642D01*
X020422Y016755D01*
X020483Y016902D01*
X020483Y017541D01*
X020422Y017688D01*
X020310Y017801D01*
X020163Y017861D01*
X020004Y017861D01*
X019857Y017801D01*
X019744Y017688D01*
X019683Y017541D01*
X019683Y016902D01*
X019744Y016755D01*
X019857Y016642D01*
X019732Y016784D02*
X017832Y016784D01*
X017713Y016903D02*
X019683Y016903D01*
X019683Y017021D02*
X017595Y017021D01*
X017476Y017140D02*
X019683Y017140D01*
X019683Y017258D02*
X017358Y017258D01*
X017239Y017377D02*
X019683Y017377D01*
X019683Y017495D02*
X017120Y017495D01*
X017002Y017614D02*
X019714Y017614D01*
X019789Y017732D02*
X016883Y017732D01*
X016765Y017851D02*
X019978Y017851D01*
X020188Y017851D02*
X020877Y017851D01*
X020877Y017969D02*
X016646Y017969D01*
X016528Y018088D02*
X020877Y018088D01*
X020775Y018206D02*
X016409Y018206D01*
X016261Y017732D02*
X012656Y017732D01*
X012656Y017851D02*
X012666Y017851D01*
X012738Y017614D02*
X016380Y017614D01*
X016498Y017495D02*
X012857Y017495D01*
X012975Y017377D02*
X016617Y017377D01*
X016735Y017258D02*
X013094Y017258D01*
X013212Y017140D02*
X016854Y017140D01*
X016972Y017021D02*
X013331Y017021D01*
X013449Y016903D02*
X017091Y016903D01*
X017209Y016784D02*
X013568Y016784D01*
X013686Y016666D02*
X017328Y016666D01*
X017446Y016547D02*
X013805Y016547D01*
X013923Y016429D02*
X017565Y016429D01*
X017683Y016310D02*
X014042Y016310D01*
X014160Y016192D02*
X017802Y016192D01*
X017920Y016073D02*
X014279Y016073D01*
X014397Y015955D02*
X018039Y015955D01*
X018157Y015836D02*
X014516Y015836D01*
X014634Y015718D02*
X018276Y015718D01*
X018394Y015599D02*
X014753Y015599D01*
X014871Y015481D02*
X018513Y015481D01*
X018631Y015362D02*
X014990Y015362D01*
X015108Y015244D02*
X018750Y015244D01*
X018868Y015125D02*
X015227Y015125D01*
X015345Y015007D02*
X018987Y015007D01*
X019105Y014888D02*
X015464Y014888D01*
X015582Y014770D02*
X019224Y014770D01*
X019342Y014651D02*
X015701Y014651D01*
X015819Y014533D02*
X019461Y014533D01*
X019579Y014414D02*
X015938Y014414D01*
X016056Y014296D02*
X019683Y014296D01*
X020483Y014296D02*
X020683Y014296D01*
X020683Y014414D02*
X020483Y014414D01*
X020483Y014533D02*
X020683Y014533D01*
X020729Y014651D02*
X020438Y014651D01*
X020341Y014770D02*
X020826Y014770D01*
X021341Y014770D02*
X021826Y014770D01*
X021729Y014651D02*
X021438Y014651D01*
X021483Y014533D02*
X021683Y014533D01*
X021683Y014414D02*
X021483Y014414D01*
X021483Y014296D02*
X021683Y014296D01*
X021683Y014177D02*
X021483Y014177D01*
X021483Y014059D02*
X021683Y014059D01*
X021683Y013940D02*
X021483Y013940D01*
X021450Y013822D02*
X021716Y013822D01*
X021796Y013703D02*
X021371Y013703D01*
X020796Y013703D02*
X020371Y013703D01*
X020450Y013822D02*
X020716Y013822D01*
X020683Y013940D02*
X020483Y013940D01*
X020483Y014059D02*
X020683Y014059D01*
X020683Y014177D02*
X020483Y014177D01*
X022898Y015718D02*
X027709Y015718D01*
X027827Y015599D02*
X023017Y015599D01*
X023135Y015481D02*
X027946Y015481D01*
X028064Y015362D02*
X027391Y015362D01*
X027510Y015244D02*
X028183Y015244D01*
X028301Y015125D02*
X027628Y015125D01*
X027747Y015007D02*
X028420Y015007D01*
X028538Y014888D02*
X027865Y014888D01*
X027984Y014770D02*
X028657Y014770D01*
X028775Y014651D02*
X028115Y014651D01*
X028314Y014533D02*
X028894Y014533D01*
X029012Y014414D02*
X028392Y014414D01*
X028425Y014296D02*
X029131Y014296D01*
X029183Y014177D02*
X028425Y014177D01*
X028498Y014059D02*
X029169Y014059D01*
X029169Y013940D02*
X028616Y013940D01*
X028735Y013822D02*
X029215Y013822D01*
X029285Y013703D02*
X028853Y013703D01*
X028774Y013471D02*
X030979Y013471D01*
X031904Y014397D01*
X032434Y014414D02*
X034617Y014414D01*
X034499Y014296D02*
X032434Y014296D01*
X032434Y014177D02*
X034477Y014177D01*
X034477Y014059D02*
X032434Y014059D01*
X032414Y013940D02*
X034477Y013940D01*
X034489Y013822D02*
X031641Y013822D01*
X031522Y013703D02*
X034608Y013703D01*
X034726Y013585D02*
X031404Y013585D01*
X031285Y013466D02*
X034669Y013466D01*
X034551Y013348D02*
X031167Y013348D01*
X030900Y013703D02*
X030114Y013703D01*
X030183Y013822D02*
X031018Y013822D01*
X031137Y013940D02*
X030229Y013940D01*
X030229Y014059D02*
X031255Y014059D01*
X031374Y014177D02*
X030216Y014177D01*
X030166Y014296D02*
X031374Y014296D01*
X031374Y014414D02*
X030073Y014414D01*
X029891Y014533D02*
X031374Y014533D01*
X031374Y014651D02*
X029398Y014651D01*
X029279Y014770D02*
X031374Y014770D01*
X031430Y014888D02*
X029161Y014888D01*
X029042Y015007D02*
X031544Y015007D01*
X031443Y015125D02*
X028924Y015125D01*
X028805Y015244D02*
X031394Y015244D01*
X031374Y015362D02*
X028687Y015362D01*
X028568Y015481D02*
X031374Y015481D01*
X031415Y015599D02*
X028450Y015599D01*
X028331Y015718D02*
X031476Y015718D01*
X031594Y015836D02*
X028213Y015836D01*
X028094Y015955D02*
X031596Y015955D01*
X031478Y016073D02*
X027976Y016073D01*
X027857Y016192D02*
X031415Y016192D01*
X031374Y016310D02*
X027739Y016310D01*
X027799Y016437D02*
X027946Y016376D01*
X028105Y016376D01*
X028252Y016437D01*
X028364Y016549D01*
X028425Y016696D01*
X028425Y017335D01*
X028364Y017482D01*
X028252Y017595D01*
X028105Y017656D01*
X027946Y017656D01*
X027799Y017595D01*
X027686Y017482D01*
X027625Y017335D01*
X027625Y016696D01*
X027686Y016549D01*
X027799Y016437D01*
X027817Y016429D02*
X027620Y016429D01*
X027688Y016547D02*
X027502Y016547D01*
X027413Y016666D02*
X027638Y016666D01*
X027625Y016784D02*
X027425Y016784D01*
X027425Y016903D02*
X027625Y016903D01*
X027625Y017021D02*
X027425Y017021D01*
X027425Y017140D02*
X027625Y017140D01*
X027625Y017258D02*
X027425Y017258D01*
X027408Y017377D02*
X027642Y017377D01*
X027699Y017495D02*
X027351Y017495D01*
X027501Y017614D02*
X027845Y017614D01*
X027615Y017732D02*
X034579Y017732D01*
X034477Y017851D02*
X027728Y017851D01*
X027842Y017969D02*
X034477Y017969D01*
X034477Y018088D02*
X027956Y018088D01*
X028070Y018206D02*
X034477Y018206D01*
X034528Y018325D02*
X028184Y018325D01*
X028297Y018443D02*
X034646Y018443D01*
X034749Y018562D02*
X028411Y018562D01*
X028525Y018680D02*
X034631Y018680D01*
X034512Y018799D02*
X028639Y018799D01*
X028256Y019036D02*
X026367Y019036D01*
X026367Y019154D02*
X028348Y019154D01*
X028348Y019273D02*
X026367Y019273D01*
X026367Y019391D02*
X028348Y019391D01*
X028348Y019510D02*
X026367Y019510D01*
X026367Y019628D02*
X028348Y019628D01*
X028348Y019747D02*
X026367Y019747D01*
X026142Y019865D02*
X028412Y019865D01*
X028509Y019984D02*
X026261Y019984D01*
X025532Y019865D02*
X023652Y019865D01*
X023771Y019747D02*
X025308Y019747D01*
X025307Y019628D02*
X023876Y019628D01*
X023876Y019510D02*
X025307Y019510D01*
X025307Y019391D02*
X023876Y019391D01*
X023876Y019273D02*
X025307Y019273D01*
X025307Y019154D02*
X023876Y019154D01*
X023876Y019036D02*
X025307Y019036D01*
X025307Y018917D02*
X023876Y018917D01*
X023876Y018799D02*
X025382Y018799D01*
X026292Y018799D02*
X028029Y018799D01*
X028143Y018917D02*
X026367Y018917D01*
X026071Y017969D02*
X023876Y017969D01*
X023876Y018088D02*
X027346Y018088D01*
X027460Y018206D02*
X023876Y018206D01*
X023876Y018325D02*
X027574Y018325D01*
X027687Y018443D02*
X023876Y018443D01*
X023876Y018562D02*
X027801Y018562D01*
X027915Y018680D02*
X023876Y018680D01*
X023436Y018680D02*
X022301Y018680D01*
X022301Y018562D02*
X023436Y018562D01*
X023436Y018443D02*
X022301Y018443D01*
X022301Y018325D02*
X023436Y018325D01*
X023436Y018206D02*
X022301Y018206D01*
X022301Y018088D02*
X023434Y018088D01*
X023315Y017969D02*
X022301Y017969D01*
X022301Y017851D02*
X022978Y017851D01*
X023188Y017851D02*
X023197Y017851D01*
X022789Y017732D02*
X022378Y017732D01*
X022453Y017614D02*
X022714Y017614D01*
X022683Y017495D02*
X022483Y017495D01*
X022483Y017377D02*
X022683Y017377D01*
X022683Y017258D02*
X022483Y017258D01*
X022483Y017140D02*
X022683Y017140D01*
X022683Y017021D02*
X022483Y017021D01*
X022483Y016903D02*
X022683Y016903D01*
X022732Y016784D02*
X022435Y016784D01*
X022333Y016666D02*
X022833Y016666D01*
X023333Y016666D02*
X024638Y016666D01*
X024625Y016696D02*
X024686Y016549D01*
X024799Y016437D01*
X024946Y016376D01*
X025105Y016376D01*
X025252Y016437D01*
X025364Y016549D01*
X025425Y016696D01*
X025425Y017335D01*
X025364Y017482D01*
X025252Y017595D01*
X025105Y017656D01*
X024946Y017656D01*
X024799Y017595D01*
X024686Y017482D01*
X024625Y017335D01*
X024625Y016696D01*
X024625Y016784D02*
X023435Y016784D01*
X023483Y016903D02*
X024625Y016903D01*
X024625Y017021D02*
X023483Y017021D01*
X023483Y017140D02*
X024625Y017140D01*
X024625Y017258D02*
X023483Y017258D01*
X023483Y017377D02*
X024642Y017377D01*
X024699Y017495D02*
X023483Y017495D01*
X023582Y017614D02*
X024845Y017614D01*
X025206Y017614D02*
X025805Y017614D01*
X025834Y017732D02*
X023701Y017732D01*
X023819Y017851D02*
X025953Y017851D01*
X026025Y017612D02*
X026215Y017802D01*
X027377Y017802D01*
X028878Y019365D01*
X029408Y019391D02*
X031394Y019391D01*
X031394Y019273D02*
X029408Y019273D01*
X029408Y019154D02*
X031394Y019154D01*
X031394Y019036D02*
X029408Y019036D01*
X029396Y018917D02*
X031417Y018917D01*
X031394Y018941D02*
X031488Y018847D01*
X032360Y018847D01*
X032454Y018941D01*
X032454Y019813D01*
X032360Y019907D01*
X032174Y019907D01*
X032224Y019928D01*
X032373Y020077D01*
X032454Y020271D01*
X032454Y020482D01*
X032373Y020677D01*
X032224Y020826D01*
X032102Y020877D01*
X032224Y020928D01*
X032373Y021077D01*
X032454Y021271D01*
X032454Y021482D01*
X032373Y021677D01*
X032224Y021826D01*
X032029Y021907D01*
X031818Y021907D01*
X031624Y021826D01*
X031475Y021677D01*
X031394Y021482D01*
X031394Y021271D01*
X031475Y021077D01*
X031624Y020928D01*
X031746Y020877D01*
X031624Y020826D01*
X031475Y020677D01*
X031394Y020482D01*
X031394Y020271D01*
X031475Y020077D01*
X031624Y019928D01*
X031674Y019907D01*
X031488Y019907D01*
X031394Y019813D01*
X031394Y018941D01*
X031394Y019510D02*
X029408Y019510D01*
X029408Y019628D02*
X031394Y019628D01*
X031394Y019747D02*
X029408Y019747D01*
X029344Y019865D02*
X031446Y019865D01*
X031567Y019984D02*
X029246Y019984D01*
X029342Y020102D02*
X031464Y020102D01*
X031415Y020221D02*
X029392Y020221D01*
X029408Y020339D02*
X031394Y020339D01*
X031394Y020458D02*
X029408Y020458D01*
X029364Y020576D02*
X031433Y020576D01*
X031492Y020695D02*
X029297Y020695D01*
X029179Y020813D02*
X031611Y020813D01*
X031619Y020932D02*
X029194Y020932D01*
X029312Y021050D02*
X031501Y021050D01*
X031436Y021169D02*
X029370Y021169D01*
X029408Y021287D02*
X031394Y021287D01*
X031394Y021406D02*
X029408Y021406D01*
X029385Y021524D02*
X031411Y021524D01*
X031460Y021643D02*
X029336Y021643D01*
X029231Y021761D02*
X031559Y021761D01*
X031753Y021880D02*
X029020Y021880D01*
X029112Y022524D02*
X029307Y022605D01*
X029456Y022754D01*
X029507Y022876D01*
X029557Y022754D01*
X029706Y022605D01*
X029901Y022524D01*
X030112Y022524D01*
X030307Y022605D01*
X030456Y022754D01*
X030507Y022876D01*
X030557Y022754D01*
X030706Y022605D01*
X030901Y022524D01*
X031112Y022524D01*
X031307Y022605D01*
X031456Y022754D01*
X031507Y022876D01*
X031557Y022754D01*
X031706Y022605D01*
X031901Y022524D01*
X032112Y022524D01*
X032307Y022605D01*
X032456Y022754D01*
X032537Y022949D01*
X032537Y023160D01*
X032456Y023354D01*
X032307Y023503D01*
X032112Y023584D01*
X031901Y023584D01*
X031706Y023503D01*
X031557Y023354D01*
X031507Y023232D01*
X031456Y023354D01*
X031307Y023503D01*
X031112Y023584D01*
X030901Y023584D01*
X030706Y023503D01*
X030557Y023354D01*
X030507Y023232D01*
X030456Y023354D01*
X030307Y023503D01*
X030112Y023584D01*
X029901Y023584D01*
X029706Y023503D01*
X029557Y023354D01*
X029507Y023232D01*
X029456Y023354D01*
X029307Y023503D01*
X029112Y023584D01*
X028901Y023584D01*
X028706Y023503D01*
X028557Y023354D01*
X028507Y023232D01*
X028456Y023354D01*
X028307Y023503D01*
X028112Y023584D01*
X027901Y023584D01*
X027706Y023503D01*
X027557Y023354D01*
X027507Y023232D01*
X027456Y023354D01*
X027307Y023503D01*
X027112Y023584D01*
X026901Y023584D01*
X026706Y023503D01*
X026557Y023354D01*
X026507Y023232D01*
X026456Y023354D01*
X026307Y023503D01*
X026112Y023584D01*
X025901Y023584D01*
X025706Y023503D01*
X025557Y023354D01*
X025507Y023232D01*
X025456Y023354D01*
X025307Y023503D01*
X025112Y023584D01*
X024901Y023584D01*
X024706Y023503D01*
X024557Y023354D01*
X024477Y023160D01*
X024477Y022949D01*
X024557Y022754D01*
X024706Y022605D01*
X024901Y022524D01*
X025112Y022524D01*
X025307Y022605D01*
X025456Y022754D01*
X025507Y022876D01*
X025557Y022754D01*
X025706Y022605D01*
X025901Y022524D01*
X026112Y022524D01*
X026307Y022605D01*
X026456Y022754D01*
X026507Y022876D01*
X026557Y022754D01*
X026706Y022605D01*
X026901Y022524D01*
X027112Y022524D01*
X027307Y022605D01*
X027456Y022754D01*
X027507Y022876D01*
X027557Y022754D01*
X027706Y022605D01*
X027901Y022524D01*
X028112Y022524D01*
X028307Y022605D01*
X028456Y022754D01*
X028507Y022876D01*
X028557Y022754D01*
X028706Y022605D01*
X028901Y022524D01*
X029112Y022524D01*
X029273Y022591D02*
X029740Y022591D01*
X029602Y022709D02*
X029411Y022709D01*
X029487Y022828D02*
X029527Y022828D01*
X029536Y023302D02*
X029478Y023302D01*
X029390Y023420D02*
X029623Y023420D01*
X029792Y023539D02*
X029221Y023539D01*
X028792Y023539D02*
X028221Y023539D01*
X028390Y023420D02*
X028623Y023420D01*
X028536Y023302D02*
X028478Y023302D01*
X028487Y022828D02*
X028527Y022828D01*
X028602Y022709D02*
X028411Y022709D01*
X028273Y022591D02*
X028740Y022591D01*
X027740Y022591D02*
X027273Y022591D01*
X027411Y022709D02*
X027602Y022709D01*
X027527Y022828D02*
X027487Y022828D01*
X027478Y023302D02*
X027536Y023302D01*
X027623Y023420D02*
X027390Y023420D01*
X027221Y023539D02*
X027792Y023539D01*
X026792Y023539D02*
X026221Y023539D01*
X026390Y023420D02*
X026623Y023420D01*
X026536Y023302D02*
X026478Y023302D01*
X025792Y023539D02*
X025221Y023539D01*
X025390Y023420D02*
X025623Y023420D01*
X025536Y023302D02*
X025478Y023302D01*
X025487Y022828D02*
X025527Y022828D01*
X025602Y022709D02*
X025411Y022709D01*
X025273Y022591D02*
X025740Y022591D01*
X026273Y022591D02*
X026740Y022591D01*
X026602Y022709D02*
X026411Y022709D01*
X026487Y022828D02*
X026527Y022828D01*
X025542Y021761D02*
X023194Y021761D01*
X023313Y021643D02*
X025421Y021643D01*
X025352Y021524D02*
X023377Y021524D01*
X023418Y021406D02*
X025307Y021406D01*
X025307Y021287D02*
X023418Y021287D01*
X023400Y021169D02*
X025322Y021169D01*
X025371Y021050D02*
X023351Y021050D01*
X023397Y020932D02*
X025466Y020932D01*
X025651Y020813D02*
X023515Y020813D01*
X023634Y020695D02*
X025473Y020695D01*
X025374Y020576D02*
X023752Y020576D01*
X023485Y020221D02*
X023418Y020221D01*
X023415Y020102D02*
X023604Y020102D01*
X023534Y019984D02*
X025414Y019984D01*
X023656Y019550D02*
X022888Y020318D01*
X022404Y020102D02*
X022301Y020102D01*
X022301Y019984D02*
X022473Y019984D01*
X022596Y019865D02*
X022301Y019865D01*
X022301Y019747D02*
X022358Y019747D01*
X022358Y019628D02*
X022301Y019628D01*
X022301Y019510D02*
X022358Y019510D01*
X022358Y019391D02*
X022301Y019391D01*
X022301Y019273D02*
X022358Y019273D01*
X022358Y019154D02*
X022301Y019154D01*
X022301Y019036D02*
X022358Y019036D01*
X022358Y018917D02*
X022301Y018917D01*
X022301Y018799D02*
X022441Y018799D01*
X023336Y018799D02*
X023436Y018799D01*
X023436Y018917D02*
X023418Y018917D01*
X023418Y019036D02*
X023436Y019036D01*
X023436Y019154D02*
X023418Y019154D01*
X023418Y019273D02*
X023436Y019273D01*
X023436Y019391D02*
X023418Y019391D01*
X023656Y019550D02*
X023656Y017999D01*
X023083Y017426D01*
X023083Y017221D01*
X022187Y016429D02*
X024817Y016429D01*
X024688Y016547D02*
X022069Y016547D01*
X022306Y016310D02*
X027116Y016310D01*
X027235Y016192D02*
X022424Y016192D01*
X022543Y016073D02*
X027353Y016073D01*
X027472Y015955D02*
X022661Y015955D01*
X022780Y015836D02*
X027590Y015836D01*
X028233Y016429D02*
X031374Y016429D01*
X031393Y016547D02*
X029899Y016547D01*
X029805Y016508D02*
X030000Y016589D01*
X030149Y016738D01*
X030229Y016933D01*
X030229Y017144D01*
X030149Y017339D01*
X030000Y017488D01*
X029805Y017568D01*
X029594Y017568D01*
X029399Y017488D01*
X029250Y017339D01*
X029169Y017144D01*
X029169Y016933D01*
X029250Y016738D01*
X029399Y016589D01*
X029594Y016508D01*
X029805Y016508D01*
X029500Y016547D02*
X028363Y016547D01*
X028413Y016666D02*
X029322Y016666D01*
X029231Y016784D02*
X028425Y016784D01*
X028425Y016903D02*
X029182Y016903D01*
X029169Y017021D02*
X028425Y017021D01*
X028425Y017140D02*
X029169Y017140D01*
X029217Y017258D02*
X028425Y017258D01*
X028408Y017377D02*
X029288Y017377D01*
X029418Y017495D02*
X028351Y017495D01*
X028206Y017614D02*
X034697Y017614D01*
X034698Y017495D02*
X029981Y017495D01*
X030110Y017377D02*
X034580Y017377D01*
X034477Y017258D02*
X030182Y017258D01*
X030229Y017140D02*
X034477Y017140D01*
X034477Y017021D02*
X030229Y017021D01*
X030217Y016903D02*
X031741Y016903D01*
X031542Y016784D02*
X030168Y016784D01*
X030077Y016666D02*
X031442Y016666D01*
X032067Y016903D02*
X034477Y016903D01*
X034527Y016784D02*
X032266Y016784D01*
X032366Y016666D02*
X034645Y016666D01*
X034750Y016547D02*
X032415Y016547D01*
X032434Y016429D02*
X034632Y016429D01*
X034513Y016310D02*
X032434Y016310D01*
X032393Y016192D02*
X034477Y016192D01*
X034477Y016073D02*
X032330Y016073D01*
X032212Y015955D02*
X034477Y015955D01*
X034477Y015836D02*
X032214Y015836D01*
X032332Y015718D02*
X034593Y015718D01*
X034712Y015599D02*
X032394Y015599D01*
X032434Y015481D02*
X034684Y015481D01*
X034565Y015362D02*
X032434Y015362D01*
X032415Y015244D02*
X034477Y015244D01*
X034477Y015125D02*
X032366Y015125D01*
X032264Y015007D02*
X034477Y015007D01*
X034477Y014888D02*
X032379Y014888D01*
X032434Y014770D02*
X034541Y014770D01*
X034660Y014651D02*
X032434Y014651D01*
X032434Y014533D02*
X034736Y014533D01*
X035256Y014554D02*
X035507Y014805D01*
X035757Y014554D01*
X035507Y014304D01*
X035256Y014554D01*
X035277Y014533D02*
X035736Y014533D01*
X035660Y014651D02*
X035353Y014651D01*
X035472Y014770D02*
X035541Y014770D01*
X035617Y014414D02*
X035396Y014414D01*
X036277Y014533D02*
X037993Y014533D01*
X037993Y014651D02*
X036353Y014651D01*
X036472Y014770D02*
X037993Y014770D01*
X037993Y014888D02*
X036537Y014888D01*
X036537Y015007D02*
X037993Y015007D01*
X037993Y015125D02*
X036537Y015125D01*
X036537Y015244D02*
X037993Y015244D01*
X037993Y015362D02*
X036448Y015362D01*
X036329Y015481D02*
X037993Y015481D01*
X037993Y015599D02*
X036301Y015599D01*
X036420Y015718D02*
X037993Y015718D01*
X037993Y015836D02*
X036537Y015836D01*
X036537Y015955D02*
X037993Y015955D01*
X037993Y016073D02*
X036537Y016073D01*
X036537Y016192D02*
X037993Y016192D01*
X037993Y016310D02*
X036500Y016310D01*
X036381Y016429D02*
X037993Y016429D01*
X037993Y016547D02*
X036263Y016547D01*
X036368Y016666D02*
X037993Y016666D01*
X037993Y016784D02*
X036486Y016784D01*
X036537Y016903D02*
X037993Y016903D01*
X037993Y017021D02*
X036537Y017021D01*
X036537Y017140D02*
X037993Y017140D01*
X037993Y017258D02*
X036537Y017258D01*
X036433Y017377D02*
X037993Y017377D01*
X037993Y017495D02*
X036315Y017495D01*
X036316Y017614D02*
X037993Y017614D01*
X037993Y017732D02*
X036434Y017732D01*
X036537Y017851D02*
X037993Y017851D01*
X037993Y017969D02*
X036537Y017969D01*
X036537Y018088D02*
X037993Y018088D01*
X037993Y018206D02*
X036537Y018206D01*
X036485Y018325D02*
X037993Y018325D01*
X037993Y018443D02*
X036367Y018443D01*
X036264Y018562D02*
X037993Y018562D01*
X037993Y018680D02*
X036382Y018680D01*
X036501Y018799D02*
X037993Y018799D01*
X037993Y018917D02*
X036537Y018917D01*
X036537Y019036D02*
X037993Y019036D01*
X037993Y019154D02*
X036537Y019154D01*
X036537Y019273D02*
X037993Y019273D01*
X037993Y019391D02*
X036419Y019391D01*
X036300Y019510D02*
X037993Y019510D01*
X037993Y019628D02*
X036330Y019628D01*
X036449Y019747D02*
X037993Y019747D01*
X037993Y019865D02*
X036537Y019865D01*
X036537Y019984D02*
X037993Y019984D01*
X037993Y020102D02*
X036537Y020102D01*
X036537Y020221D02*
X037993Y020221D01*
X037993Y020339D02*
X036471Y020339D01*
X036352Y020458D02*
X037993Y020458D01*
X037993Y020576D02*
X036278Y020576D01*
X036397Y020695D02*
X037993Y020695D01*
X037993Y020813D02*
X036515Y020813D01*
X036537Y020932D02*
X037993Y020932D01*
X037993Y021050D02*
X036537Y021050D01*
X036537Y021169D02*
X037993Y021169D01*
X037993Y021287D02*
X036523Y021287D01*
X036404Y021406D02*
X037993Y021406D01*
X037993Y021524D02*
X036286Y021524D01*
X036345Y021643D02*
X037993Y021643D01*
X037993Y021761D02*
X036463Y021761D01*
X036537Y021880D02*
X037993Y021880D01*
X037993Y021998D02*
X036537Y021998D01*
X036537Y022117D02*
X037993Y022117D01*
X037993Y022235D02*
X036537Y022235D01*
X036456Y022354D02*
X037993Y022354D01*
X037993Y022472D02*
X036338Y022472D01*
X036273Y022591D02*
X037993Y022591D01*
X037993Y022709D02*
X036411Y022709D01*
X036487Y022828D02*
X037993Y022828D01*
X037993Y022946D02*
X036536Y022946D01*
X036537Y023065D02*
X037993Y023065D01*
X037993Y023183D02*
X036527Y023183D01*
X036478Y023302D02*
X037993Y023302D01*
X037993Y023420D02*
X036390Y023420D01*
X036221Y023539D02*
X037993Y023539D01*
X037993Y023657D02*
X034091Y023657D01*
X034210Y023539D02*
X034792Y023539D01*
X034623Y023420D02*
X034264Y023420D01*
X034313Y023302D02*
X034536Y023302D01*
X034486Y023183D02*
X034346Y023183D01*
X034346Y023065D02*
X034477Y023065D01*
X034478Y022946D02*
X034346Y022946D01*
X034322Y022828D02*
X034527Y022828D01*
X034602Y022709D02*
X034273Y022709D01*
X034224Y022591D02*
X034740Y022591D01*
X034675Y022472D02*
X034113Y022472D01*
X033994Y022354D02*
X034557Y022354D01*
X034477Y022235D02*
X033725Y022235D01*
X033288Y022235D02*
X014627Y022235D01*
X014627Y022117D02*
X034477Y022117D01*
X034477Y021998D02*
X014627Y021998D01*
X014627Y021880D02*
X017011Y021880D01*
X016812Y021761D02*
X014627Y021761D01*
X014627Y021643D02*
X016711Y021643D01*
X016662Y021524D02*
X014627Y021524D01*
X014627Y021406D02*
X016643Y021406D01*
X016643Y021287D02*
X014627Y021287D01*
X014627Y021169D02*
X016684Y021169D01*
X016746Y021050D02*
X014627Y021050D01*
X014627Y020932D02*
X016864Y020932D01*
X016864Y020813D02*
X014627Y020813D01*
X014627Y020695D02*
X016745Y020695D01*
X016683Y020576D02*
X014627Y020576D01*
X014627Y020458D02*
X016643Y020458D01*
X016643Y020339D02*
X014627Y020339D01*
X014575Y020221D02*
X016662Y020221D01*
X016711Y020102D02*
X014457Y020102D01*
X014407Y020364D02*
X014010Y019967D01*
X012829Y019967D01*
X012633Y019771D01*
X012656Y020105D02*
X012656Y021845D01*
X013335Y022524D01*
X013512Y022524D01*
X013707Y022605D01*
X013856Y022754D01*
X013907Y022876D01*
X013957Y022754D01*
X014106Y022605D01*
X014187Y022572D01*
X014187Y020455D01*
X013919Y020187D01*
X012738Y020187D01*
X012656Y020105D01*
X012656Y020221D02*
X013953Y020221D01*
X014071Y020339D02*
X012656Y020339D01*
X012656Y020458D02*
X014187Y020458D01*
X014187Y020576D02*
X012656Y020576D01*
X012656Y020695D02*
X014187Y020695D01*
X014187Y020813D02*
X012656Y020813D01*
X012656Y020932D02*
X014187Y020932D01*
X014187Y021050D02*
X012656Y021050D01*
X012656Y021169D02*
X014187Y021169D01*
X014187Y021287D02*
X012656Y021287D01*
X012656Y021406D02*
X013106Y021406D01*
X013139Y021372D02*
X013334Y021292D01*
X013545Y021292D01*
X013740Y021372D01*
X013889Y021522D01*
X013970Y021716D01*
X013970Y021927D01*
X013889Y022122D01*
X013740Y022271D01*
X013545Y022352D01*
X013334Y022352D01*
X013139Y022271D01*
X012990Y022122D01*
X012910Y021927D01*
X012910Y021716D01*
X012990Y021522D01*
X013139Y021372D01*
X012989Y021524D02*
X012656Y021524D01*
X012656Y021643D02*
X012940Y021643D01*
X012910Y021761D02*
X012656Y021761D01*
X012691Y021880D02*
X012910Y021880D01*
X012939Y021998D02*
X012809Y021998D01*
X012928Y022117D02*
X012988Y022117D01*
X013046Y022235D02*
X013104Y022235D01*
X013165Y022354D02*
X014187Y022354D01*
X014187Y022472D02*
X013283Y022472D01*
X013673Y022591D02*
X014140Y022591D01*
X014002Y022709D02*
X013811Y022709D01*
X013887Y022828D02*
X013927Y022828D01*
X014407Y023054D02*
X014407Y020364D01*
X014054Y019747D02*
X013625Y019319D01*
X013965Y019036D02*
X016760Y019036D01*
X016690Y019154D02*
X014083Y019154D01*
X014202Y019273D02*
X016643Y019273D01*
X016643Y019391D02*
X014320Y019391D01*
X014439Y019510D02*
X016656Y019510D01*
X016705Y019628D02*
X014557Y019628D01*
X013970Y018917D02*
X016888Y018917D01*
X017228Y019318D02*
X017173Y019373D01*
X017228Y019318D02*
X019877Y019318D01*
X020073Y019219D01*
X021097Y018196D01*
X021097Y017235D01*
X021083Y017221D01*
X023062Y015243D01*
X027199Y015243D01*
X028025Y014417D01*
X028025Y014016D01*
X028230Y014016D01*
X028774Y013471D01*
X028577Y013275D02*
X027766Y013275D01*
X027025Y014016D01*
X026625Y014059D02*
X026425Y014059D01*
X026425Y014177D02*
X026625Y014177D01*
X026625Y014296D02*
X026425Y014296D01*
X026392Y014414D02*
X026658Y014414D01*
X026737Y014533D02*
X026314Y014533D01*
X026425Y013940D02*
X026625Y013940D01*
X026625Y013822D02*
X026530Y013822D01*
X025769Y013466D02*
X025282Y013466D01*
X025379Y013585D02*
X025671Y013585D01*
X025625Y013703D02*
X025425Y013703D01*
X025425Y013822D02*
X025625Y013822D01*
X025625Y013940D02*
X025425Y013940D01*
X027125Y015007D02*
X023303Y015007D01*
X023303Y014888D02*
X027243Y014888D01*
X027362Y014770D02*
X023341Y014770D01*
X023083Y015221D02*
X023083Y014221D01*
X023066Y014204D01*
X023083Y015221D02*
X023062Y015243D01*
X025233Y016429D02*
X025817Y016429D01*
X025688Y016547D02*
X025363Y016547D01*
X025413Y016666D02*
X025638Y016666D01*
X025625Y016784D02*
X025425Y016784D01*
X025425Y016903D02*
X025625Y016903D01*
X025625Y017021D02*
X025425Y017021D01*
X025425Y017140D02*
X025625Y017140D01*
X025625Y017258D02*
X025425Y017258D01*
X025408Y017377D02*
X025642Y017377D01*
X025699Y017495D02*
X025351Y017495D01*
X026025Y017612D02*
X026025Y017016D01*
X026425Y017021D02*
X026625Y017021D01*
X026625Y016903D02*
X026425Y016903D01*
X026425Y016784D02*
X026625Y016784D01*
X026638Y016666D02*
X026413Y016666D01*
X026363Y016547D02*
X026688Y016547D01*
X026817Y016429D02*
X026233Y016429D01*
X027025Y016713D02*
X029699Y014038D01*
X028934Y013229D02*
X034477Y013229D01*
X034477Y013111D02*
X029052Y013111D01*
X029171Y012992D02*
X034477Y012992D01*
X034477Y012874D02*
X029289Y012874D01*
X029408Y012755D02*
X034556Y012755D01*
X034674Y012637D02*
X029526Y012637D01*
X029645Y012518D02*
X034721Y012518D01*
X034603Y012400D02*
X029763Y012400D01*
X029882Y012281D02*
X034484Y012281D01*
X034477Y012163D02*
X030000Y012163D01*
X030119Y012044D02*
X034477Y012044D01*
X034477Y011926D02*
X030237Y011926D01*
X030356Y011807D02*
X034504Y011807D01*
X034622Y011689D02*
X030474Y011689D01*
X030593Y011570D02*
X034741Y011570D01*
X034655Y011452D02*
X030711Y011452D01*
X030830Y011333D02*
X034536Y011333D01*
X034477Y011215D02*
X030948Y011215D01*
X031067Y011096D02*
X034477Y011096D01*
X034477Y010978D02*
X031185Y010978D01*
X031304Y010859D02*
X034477Y010859D01*
X034570Y010741D02*
X031422Y010741D01*
X031541Y010622D02*
X034689Y010622D01*
X034707Y010504D02*
X031659Y010504D01*
X031778Y010385D02*
X034588Y010385D01*
X034477Y010267D02*
X031896Y010267D01*
X032015Y010148D02*
X034477Y010148D01*
X034477Y010030D02*
X032133Y010030D01*
X032252Y009911D02*
X034477Y009911D01*
X034518Y009793D02*
X032370Y009793D01*
X032489Y009674D02*
X034637Y009674D01*
X034755Y009556D02*
X032607Y009556D01*
X032726Y009437D02*
X034640Y009437D01*
X034522Y009319D02*
X032844Y009319D01*
X032963Y009200D02*
X034477Y009200D01*
X034477Y009082D02*
X033081Y009082D01*
X033200Y008963D02*
X034477Y008963D01*
X034477Y008845D02*
X033318Y008845D01*
X033302Y008550D02*
X028577Y013275D01*
X028440Y013495D02*
X028310Y013495D01*
X028364Y013549D01*
X028371Y013564D01*
X028440Y013495D01*
X028510Y012637D02*
X017637Y012637D01*
X017686Y012518D02*
X028629Y012518D01*
X028747Y012400D02*
X017703Y012400D01*
X017703Y012281D02*
X028866Y012281D01*
X028984Y012163D02*
X017659Y012163D01*
X017594Y012044D02*
X029103Y012044D01*
X029221Y011926D02*
X017475Y011926D01*
X017488Y011807D02*
X029340Y011807D01*
X029458Y011689D02*
X017606Y011689D01*
X017665Y011570D02*
X029577Y011570D01*
X029553Y011423D02*
X029748Y011342D01*
X029897Y011193D01*
X029978Y010998D01*
X029978Y010787D01*
X029897Y010592D01*
X029748Y010443D01*
X029668Y010410D01*
X029668Y007985D01*
X029670Y007982D01*
X029670Y007601D01*
X029401Y007331D01*
X029020Y007331D01*
X028750Y007601D01*
X028750Y007982D01*
X029020Y008251D01*
X029228Y008251D01*
X029228Y010410D01*
X029147Y010443D01*
X028998Y010592D01*
X028918Y010787D01*
X028918Y010998D01*
X028998Y011193D01*
X029147Y011342D01*
X029342Y011423D01*
X029553Y011423D01*
X029695Y011452D02*
X017703Y011452D01*
X017703Y011333D02*
X021808Y011333D01*
X021689Y011215D02*
X017681Y011215D01*
X017632Y011096D02*
X021639Y011096D01*
X021606Y010978D02*
X017527Y010978D01*
X017318Y010859D02*
X021606Y010859D01*
X021634Y010741D02*
X006543Y010741D01*
X006543Y010859D02*
X011028Y010859D01*
X010818Y010978D02*
X006543Y010978D01*
X006543Y011096D02*
X010714Y011096D01*
X010665Y011215D02*
X006543Y011215D01*
X006543Y011333D02*
X010643Y011333D01*
X010643Y011452D02*
X006543Y011452D01*
X006543Y011570D02*
X010681Y011570D01*
X010739Y011689D02*
X006543Y011689D01*
X006543Y011807D02*
X010858Y011807D01*
X010870Y011926D02*
X006543Y011926D01*
X006543Y012044D02*
X010752Y012044D01*
X010686Y012163D02*
X006543Y012163D01*
X006543Y012281D02*
X010643Y012281D01*
X010643Y012400D02*
X006543Y012400D01*
X006543Y012518D02*
X010659Y012518D01*
X010708Y012637D02*
X006543Y012637D01*
X006543Y012755D02*
X010806Y012755D01*
X011540Y012755D02*
X016806Y012755D01*
X016708Y012637D02*
X011637Y012637D01*
X011686Y012518D02*
X016659Y012518D01*
X016643Y012400D02*
X011703Y012400D01*
X011703Y012281D02*
X016643Y012281D01*
X016686Y012163D02*
X011659Y012163D01*
X011594Y012044D02*
X016752Y012044D01*
X016870Y011926D02*
X011475Y011926D01*
X011488Y011807D02*
X016858Y011807D01*
X016739Y011689D02*
X011606Y011689D01*
X011665Y011570D02*
X016681Y011570D01*
X016643Y011452D02*
X011703Y011452D01*
X011703Y011333D02*
X016643Y011333D01*
X016665Y011215D02*
X011681Y011215D01*
X011632Y011096D02*
X016714Y011096D01*
X016818Y010978D02*
X011527Y010978D01*
X011318Y010859D02*
X017028Y010859D01*
X017540Y012755D02*
X026974Y012755D01*
X026553Y011423D02*
X026342Y011423D01*
X026147Y011342D01*
X025998Y011193D01*
X025918Y010998D01*
X025918Y010787D01*
X025998Y010592D01*
X026147Y010443D01*
X026342Y010363D01*
X026553Y010363D01*
X026633Y010396D01*
X026830Y010199D01*
X026830Y008222D01*
X026590Y007982D01*
X026590Y007601D01*
X026860Y007331D01*
X027241Y007331D01*
X027510Y007601D01*
X027510Y007982D01*
X027270Y008222D01*
X027270Y010381D01*
X026944Y010707D01*
X026978Y010787D01*
X026978Y010998D01*
X026897Y011193D01*
X026748Y011342D01*
X026553Y011423D01*
X026756Y011333D02*
X029139Y011333D01*
X029020Y011215D02*
X026875Y011215D01*
X026937Y011096D02*
X028958Y011096D01*
X028918Y010978D02*
X026978Y010978D01*
X026978Y010859D02*
X028918Y010859D01*
X028937Y010741D02*
X026958Y010741D01*
X027029Y010622D02*
X028986Y010622D01*
X029087Y010504D02*
X027147Y010504D01*
X027266Y010385D02*
X029228Y010385D01*
X029228Y010267D02*
X027270Y010267D01*
X027270Y010148D02*
X029228Y010148D01*
X029228Y010030D02*
X027270Y010030D01*
X027270Y009911D02*
X029228Y009911D01*
X029228Y009793D02*
X027270Y009793D01*
X027270Y009674D02*
X029228Y009674D01*
X029228Y009556D02*
X027270Y009556D01*
X027270Y009437D02*
X029228Y009437D01*
X029228Y009319D02*
X027270Y009319D01*
X027270Y009200D02*
X029228Y009200D01*
X029228Y009082D02*
X027270Y009082D01*
X027270Y008963D02*
X029228Y008963D01*
X029228Y008845D02*
X027270Y008845D01*
X027270Y008726D02*
X029228Y008726D01*
X029228Y008608D02*
X027270Y008608D01*
X027270Y008489D02*
X029228Y008489D01*
X029228Y008371D02*
X027270Y008371D01*
X027270Y008252D02*
X029228Y008252D01*
X029448Y008028D02*
X029210Y007791D01*
X029448Y008028D02*
X029448Y010893D01*
X029937Y011096D02*
X030051Y011096D01*
X029978Y010978D02*
X030169Y010978D01*
X030288Y010859D02*
X029978Y010859D01*
X029958Y010741D02*
X030406Y010741D01*
X030525Y010622D02*
X029909Y010622D01*
X029808Y010504D02*
X030643Y010504D01*
X030762Y010385D02*
X029668Y010385D01*
X029668Y010267D02*
X030880Y010267D01*
X030999Y010148D02*
X029668Y010148D01*
X029668Y010030D02*
X031117Y010030D01*
X031236Y009911D02*
X029668Y009911D01*
X029668Y009793D02*
X031354Y009793D01*
X031473Y009674D02*
X029668Y009674D01*
X029668Y009556D02*
X031591Y009556D01*
X031710Y009437D02*
X029668Y009437D01*
X029668Y009319D02*
X031828Y009319D01*
X031947Y009200D02*
X029668Y009200D01*
X029668Y009082D02*
X032065Y009082D01*
X032184Y008963D02*
X029668Y008963D01*
X029668Y008845D02*
X032302Y008845D01*
X032421Y008726D02*
X029668Y008726D01*
X029668Y008608D02*
X032539Y008608D01*
X033105Y008353D02*
X033696Y008353D01*
X034995Y007054D01*
X035007Y007054D01*
X035387Y007423D02*
X035626Y007423D01*
X035744Y007541D02*
X035269Y007541D01*
X035256Y007554D02*
X035507Y007805D01*
X035757Y007554D01*
X035507Y007304D01*
X035506Y007304D01*
X035507Y007304D02*
X035256Y007554D01*
X035362Y007660D02*
X035651Y007660D01*
X035533Y007778D02*
X035480Y007778D01*
X035766Y008054D02*
X035270Y008550D01*
X033302Y008550D01*
X034030Y008330D02*
X034533Y008330D01*
X034477Y008274D01*
X034477Y007883D01*
X034030Y008330D01*
X034108Y008252D02*
X034477Y008252D01*
X034477Y008134D02*
X034226Y008134D01*
X034345Y008015D02*
X034477Y008015D01*
X034463Y007897D02*
X034477Y007897D01*
X034196Y007541D02*
X034188Y007541D01*
X034220Y007423D02*
X034315Y007423D01*
X034230Y007304D02*
X034433Y007304D01*
X034477Y007186D02*
X034230Y007186D01*
X034227Y007067D02*
X034477Y007067D01*
X034477Y006949D02*
X034196Y006949D01*
X034164Y006830D02*
X034481Y006830D01*
X034599Y006712D02*
X034110Y006712D01*
X034042Y006593D02*
X034718Y006593D01*
X034678Y006475D02*
X033955Y006475D01*
X033836Y006356D02*
X034559Y006356D01*
X034509Y006238D02*
X033670Y006238D01*
X033403Y006119D02*
X034477Y006119D01*
X034477Y006001D02*
X017550Y006001D01*
X017622Y006073D02*
X017473Y005924D01*
X017278Y005843D01*
X017067Y005843D01*
X016872Y005924D01*
X016723Y006073D01*
X016643Y006268D01*
X016643Y006478D01*
X016723Y006673D01*
X016872Y006822D01*
X016995Y006873D01*
X016872Y006924D01*
X016723Y007073D01*
X016643Y007268D01*
X016643Y007478D01*
X016723Y007673D01*
X016872Y007822D01*
X017067Y007903D01*
X017278Y007903D01*
X017473Y007822D01*
X017622Y007673D01*
X017703Y007478D01*
X017703Y007268D01*
X017622Y007073D01*
X017473Y006924D01*
X017351Y006873D01*
X017473Y006822D01*
X017622Y006673D01*
X017703Y006478D01*
X017703Y006268D01*
X017622Y006073D01*
X017641Y006119D02*
X019618Y006119D01*
X019351Y006238D02*
X017690Y006238D01*
X017703Y006356D02*
X019185Y006356D01*
X019066Y006475D02*
X017703Y006475D01*
X017655Y006593D02*
X018979Y006593D01*
X018911Y006712D02*
X017583Y006712D01*
X017453Y006830D02*
X018857Y006830D01*
X018825Y006949D02*
X017498Y006949D01*
X017617Y007067D02*
X018793Y007067D01*
X018790Y007186D02*
X017669Y007186D01*
X017703Y007304D02*
X018790Y007304D01*
X018801Y007423D02*
X017703Y007423D01*
X017677Y007541D02*
X018833Y007541D01*
X018864Y007660D02*
X017628Y007660D01*
X017517Y007778D02*
X018927Y007778D01*
X018995Y007897D02*
X017293Y007897D01*
X017052Y007897D02*
X015243Y007897D01*
X015227Y007778D02*
X016829Y007778D01*
X016718Y007660D02*
X015227Y007660D01*
X015227Y007541D02*
X016669Y007541D01*
X016643Y007423D02*
X015227Y007423D01*
X015227Y007304D02*
X016643Y007304D01*
X016677Y007186D02*
X015227Y007186D01*
X015227Y007067D02*
X016729Y007067D01*
X016847Y006949D02*
X015227Y006949D01*
X015227Y006830D02*
X016892Y006830D01*
X016762Y006712D02*
X015227Y006712D01*
X015227Y006593D02*
X016690Y006593D01*
X016643Y006475D02*
X015227Y006475D01*
X015227Y006356D02*
X016643Y006356D01*
X016655Y006238D02*
X015227Y006238D01*
X015227Y006119D02*
X016704Y006119D01*
X016795Y006001D02*
X015227Y006001D01*
X015227Y005882D02*
X016972Y005882D01*
X017373Y005882D02*
X034504Y005882D01*
X034553Y005764D02*
X015227Y005764D01*
X015227Y005645D02*
X034666Y005645D01*
X034894Y005527D02*
X015227Y005527D01*
X015227Y005408D02*
X037993Y005408D01*
X037993Y005290D02*
X015227Y005290D01*
X015227Y005171D02*
X037993Y005171D01*
X037993Y005053D02*
X015227Y005053D01*
X015227Y004934D02*
X037993Y004934D01*
X037993Y004816D02*
X036362Y004816D01*
X036551Y004697D02*
X037993Y004697D01*
X037993Y004579D02*
X036670Y004579D01*
X036747Y004460D02*
X037993Y004460D01*
X037993Y004342D02*
X036796Y004342D01*
X036846Y004223D02*
X037993Y004223D01*
X037993Y004105D02*
X036846Y004105D01*
X036846Y003986D02*
X037993Y003986D01*
X037993Y003868D02*
X036839Y003868D01*
X036789Y003749D02*
X037993Y003749D01*
X037993Y003631D02*
X036740Y003631D01*
X036653Y003512D02*
X037993Y003512D01*
X037993Y003394D02*
X036534Y003394D01*
X036321Y003275D02*
X037993Y003275D01*
X035692Y003275D02*
X014519Y003275D01*
X014641Y003394D02*
X035479Y003394D01*
X035360Y003512D02*
X014764Y003512D01*
X014507Y003876D02*
X014506Y003876D01*
X014507Y003876D01*
X014507Y003876D01*
X014461Y004342D02*
X014552Y004342D01*
X014663Y004460D02*
X014350Y004460D01*
X014125Y004579D02*
X014787Y004579D01*
X014787Y004697D02*
X013227Y004697D01*
X013227Y004579D02*
X013888Y004579D01*
X013663Y004460D02*
X013350Y004460D01*
X013461Y004342D02*
X013552Y004342D01*
X013510Y003868D02*
X013503Y003868D01*
X013451Y003749D02*
X013562Y003749D01*
X013680Y003631D02*
X013333Y003631D01*
X012680Y003631D02*
X012333Y003631D01*
X012451Y003749D02*
X012562Y003749D01*
X012510Y003868D02*
X012503Y003868D01*
X013007Y004054D02*
X013007Y009318D01*
X014010Y010322D01*
X021546Y010322D01*
X022136Y010912D01*
X022634Y011096D02*
X024639Y011096D01*
X024606Y011018D02*
X024606Y010807D01*
X024687Y010612D01*
X024836Y010463D01*
X025031Y010382D01*
X025242Y010382D01*
X025437Y010463D01*
X025586Y010612D01*
X025666Y010807D01*
X025666Y011018D01*
X025586Y011213D01*
X025437Y011362D01*
X025242Y011442D01*
X025031Y011442D01*
X024836Y011362D01*
X024687Y011213D01*
X024606Y011018D01*
X024606Y010978D02*
X022666Y010978D01*
X022666Y010859D02*
X024606Y010859D01*
X024634Y010741D02*
X022639Y010741D01*
X022590Y010622D02*
X024683Y010622D01*
X024795Y010504D02*
X022478Y010504D01*
X022249Y010385D02*
X025024Y010385D01*
X025249Y010385D02*
X026287Y010385D01*
X026087Y010504D02*
X025478Y010504D01*
X025590Y010622D02*
X025986Y010622D01*
X025937Y010741D02*
X025639Y010741D01*
X025666Y010859D02*
X025918Y010859D01*
X025918Y010978D02*
X025666Y010978D01*
X025634Y011096D02*
X025958Y011096D01*
X026020Y011215D02*
X025584Y011215D01*
X025465Y011333D02*
X026139Y011333D01*
X026448Y010893D02*
X027050Y010290D01*
X027050Y007791D01*
X026590Y007778D02*
X026430Y007778D01*
X026430Y007660D02*
X026590Y007660D01*
X026650Y007541D02*
X026371Y007541D01*
X026253Y007423D02*
X026768Y007423D01*
X026765Y007067D02*
X027336Y007067D01*
X027400Y007131D02*
X027130Y006862D01*
X027130Y006481D01*
X027400Y006211D01*
X027781Y006211D01*
X028050Y006481D01*
X028050Y006862D01*
X027781Y007131D01*
X027400Y007131D01*
X027218Y006949D02*
X026883Y006949D01*
X026970Y006830D02*
X027130Y006830D01*
X027130Y006712D02*
X026970Y006712D01*
X026970Y006593D02*
X027130Y006593D01*
X027136Y006475D02*
X026965Y006475D01*
X026846Y006356D02*
X027255Y006356D01*
X027373Y006238D02*
X026728Y006238D01*
X027808Y006238D02*
X028453Y006238D01*
X028480Y006211D02*
X028861Y006211D01*
X029130Y006481D01*
X029130Y006862D01*
X028861Y007131D01*
X028480Y007131D01*
X028210Y006862D01*
X028210Y006481D01*
X028480Y006211D01*
X028335Y006356D02*
X027926Y006356D01*
X028045Y006475D02*
X028216Y006475D01*
X028210Y006593D02*
X028050Y006593D01*
X028050Y006712D02*
X028210Y006712D01*
X028210Y006830D02*
X028050Y006830D01*
X027963Y006949D02*
X028298Y006949D01*
X028416Y007067D02*
X027845Y007067D01*
X027940Y007331D02*
X028321Y007331D01*
X028590Y007601D01*
X028590Y007982D01*
X028321Y008251D01*
X027940Y008251D01*
X027670Y007982D01*
X027670Y007601D01*
X027940Y007331D01*
X027848Y007423D02*
X027333Y007423D01*
X027451Y007541D02*
X027730Y007541D01*
X027670Y007660D02*
X027510Y007660D01*
X027510Y007778D02*
X027670Y007778D01*
X027670Y007897D02*
X027510Y007897D01*
X027477Y008015D02*
X027704Y008015D01*
X027823Y008134D02*
X027358Y008134D01*
X026830Y008252D02*
X022581Y008252D01*
X022462Y008371D02*
X026830Y008371D01*
X026830Y008489D02*
X022344Y008489D01*
X022225Y008608D02*
X026830Y008608D01*
X026830Y008726D02*
X022107Y008726D01*
X021988Y008845D02*
X026830Y008845D01*
X026830Y008963D02*
X021870Y008963D01*
X021721Y008489D02*
X015836Y008489D01*
X015717Y008371D02*
X019722Y008371D01*
X019399Y008252D02*
X015599Y008252D01*
X015480Y008134D02*
X019213Y008134D01*
X019094Y008015D02*
X015362Y008015D01*
X015095Y008371D02*
X013227Y008371D01*
X013227Y008489D02*
X015213Y008489D01*
X015332Y008608D02*
X013227Y008608D01*
X013227Y008726D02*
X015450Y008726D01*
X015569Y008845D02*
X013227Y008845D01*
X013227Y008963D02*
X015687Y008963D01*
X014976Y008252D02*
X013227Y008252D01*
X013227Y008134D02*
X014858Y008134D01*
X014787Y008015D02*
X013227Y008015D01*
X013227Y007897D02*
X014787Y007897D01*
X014787Y007778D02*
X013227Y007778D01*
X013227Y007660D02*
X014787Y007660D01*
X014787Y007541D02*
X013227Y007541D01*
X013227Y007423D02*
X014787Y007423D01*
X014787Y007304D02*
X013227Y007304D01*
X013227Y007186D02*
X014787Y007186D01*
X014787Y007067D02*
X013227Y007067D01*
X013227Y006949D02*
X014787Y006949D01*
X014787Y006830D02*
X013227Y006830D01*
X013227Y006712D02*
X014787Y006712D01*
X014787Y006593D02*
X013227Y006593D01*
X013227Y006475D02*
X014787Y006475D01*
X014787Y006356D02*
X013227Y006356D01*
X013227Y006238D02*
X014787Y006238D01*
X014787Y006119D02*
X013227Y006119D01*
X013227Y006001D02*
X014787Y006001D01*
X014787Y005882D02*
X013227Y005882D01*
X013227Y005764D02*
X014787Y005764D01*
X014787Y005645D02*
X013227Y005645D01*
X013227Y005527D02*
X014787Y005527D01*
X014787Y005408D02*
X013227Y005408D01*
X013227Y005290D02*
X014787Y005290D01*
X014787Y005171D02*
X013227Y005171D01*
X013227Y005053D02*
X014787Y005053D01*
X014787Y004934D02*
X013227Y004934D01*
X013227Y004816D02*
X014787Y004816D01*
X015227Y004816D02*
X035651Y004816D01*
X035462Y004697D02*
X015227Y004697D01*
X015227Y004579D02*
X015888Y004579D01*
X016125Y004579D02*
X017888Y004579D01*
X017901Y004584D02*
X017706Y004503D01*
X017557Y004354D01*
X017477Y004160D01*
X017477Y003949D01*
X017557Y003754D01*
X017706Y003605D01*
X017901Y003524D01*
X018112Y003524D01*
X018307Y003605D01*
X018456Y003754D01*
X018507Y003876D01*
X018557Y003754D01*
X018706Y003605D01*
X018901Y003524D01*
X019112Y003524D01*
X019307Y003605D01*
X019456Y003754D01*
X019507Y003876D01*
X019557Y003754D01*
X019706Y003605D01*
X019901Y003524D01*
X020112Y003524D01*
X020307Y003605D01*
X020456Y003754D01*
X020507Y003876D01*
X020557Y003754D01*
X020706Y003605D01*
X020901Y003524D01*
X021112Y003524D01*
X021307Y003605D01*
X021456Y003754D01*
X021507Y003876D01*
X021557Y003754D01*
X021706Y003605D01*
X021901Y003524D01*
X022112Y003524D01*
X022307Y003605D01*
X022456Y003754D01*
X022507Y003876D01*
X022557Y003754D01*
X022706Y003605D01*
X022901Y003524D01*
X023112Y003524D01*
X023307Y003605D01*
X023456Y003754D01*
X023507Y003876D01*
X023557Y003754D01*
X023706Y003605D01*
X023901Y003524D01*
X024112Y003524D01*
X024307Y003605D01*
X024456Y003754D01*
X024507Y003876D01*
X024557Y003754D01*
X024706Y003605D01*
X024901Y003524D01*
X025112Y003524D01*
X025307Y003605D01*
X025456Y003754D01*
X025537Y003949D01*
X025537Y004160D01*
X025456Y004354D01*
X025307Y004503D01*
X025112Y004584D01*
X024901Y004584D01*
X024706Y004503D01*
X024557Y004354D01*
X024507Y004232D01*
X024456Y004354D01*
X024307Y004503D01*
X024112Y004584D01*
X023901Y004584D01*
X023706Y004503D01*
X023557Y004354D01*
X023507Y004232D01*
X023456Y004354D01*
X023307Y004503D01*
X023112Y004584D01*
X022901Y004584D01*
X022706Y004503D01*
X022557Y004354D01*
X022507Y004232D01*
X022456Y004354D01*
X022307Y004503D01*
X022112Y004584D01*
X021901Y004584D01*
X021706Y004503D01*
X021557Y004354D01*
X021507Y004232D01*
X021456Y004354D01*
X021307Y004503D01*
X021112Y004584D01*
X020901Y004584D01*
X020706Y004503D01*
X020557Y004354D01*
X020507Y004232D01*
X020456Y004354D01*
X020307Y004503D01*
X020112Y004584D01*
X019901Y004584D01*
X019706Y004503D01*
X019557Y004354D01*
X019507Y004232D01*
X019456Y004354D01*
X019307Y004503D01*
X019112Y004584D01*
X018901Y004584D01*
X018706Y004503D01*
X018557Y004354D01*
X018507Y004232D01*
X018456Y004354D01*
X018307Y004503D01*
X018112Y004584D01*
X017901Y004584D01*
X018125Y004579D02*
X018888Y004579D01*
X019125Y004579D02*
X019888Y004579D01*
X020125Y004579D02*
X020888Y004579D01*
X021125Y004579D02*
X021888Y004579D01*
X022125Y004579D02*
X022888Y004579D01*
X023125Y004579D02*
X023888Y004579D01*
X024125Y004579D02*
X024888Y004579D01*
X025125Y004579D02*
X026888Y004579D01*
X026901Y004584D02*
X026706Y004503D01*
X026557Y004354D01*
X026477Y004160D01*
X026477Y003949D01*
X026557Y003754D01*
X026706Y003605D01*
X026901Y003524D01*
X027112Y003524D01*
X027307Y003605D01*
X027456Y003754D01*
X027507Y003876D01*
X027557Y003754D01*
X027706Y003605D01*
X027901Y003524D01*
X028112Y003524D01*
X028307Y003605D01*
X028456Y003754D01*
X028507Y003876D01*
X028557Y003754D01*
X028706Y003605D01*
X028901Y003524D01*
X029112Y003524D01*
X029307Y003605D01*
X029456Y003754D01*
X029507Y003876D01*
X029557Y003754D01*
X029706Y003605D01*
X029901Y003524D01*
X030112Y003524D01*
X030307Y003605D01*
X030456Y003754D01*
X030507Y003876D01*
X030557Y003754D01*
X030706Y003605D01*
X030901Y003524D01*
X031112Y003524D01*
X031307Y003605D01*
X031456Y003754D01*
X031507Y003876D01*
X031557Y003754D01*
X031706Y003605D01*
X031901Y003524D01*
X032112Y003524D01*
X032307Y003605D01*
X032456Y003754D01*
X032507Y003876D01*
X032557Y003754D01*
X032706Y003605D01*
X032901Y003524D01*
X033112Y003524D01*
X033307Y003605D01*
X033456Y003754D01*
X033507Y003876D01*
X033557Y003754D01*
X033706Y003605D01*
X033901Y003524D01*
X034112Y003524D01*
X034307Y003605D01*
X034456Y003754D01*
X034537Y003949D01*
X034537Y004160D01*
X034456Y004354D01*
X034307Y004503D01*
X034112Y004584D01*
X033901Y004584D01*
X033706Y004503D01*
X033557Y004354D01*
X033507Y004232D01*
X033456Y004354D01*
X033307Y004503D01*
X033112Y004584D01*
X032901Y004584D01*
X032706Y004503D01*
X032557Y004354D01*
X032507Y004232D01*
X032456Y004354D01*
X032307Y004503D01*
X032112Y004584D01*
X031901Y004584D01*
X031706Y004503D01*
X031557Y004354D01*
X031507Y004232D01*
X031456Y004354D01*
X031307Y004503D01*
X031112Y004584D01*
X030901Y004584D01*
X030706Y004503D01*
X030557Y004354D01*
X030507Y004232D01*
X030456Y004354D01*
X030307Y004503D01*
X030112Y004584D01*
X029901Y004584D01*
X029706Y004503D01*
X029557Y004354D01*
X029507Y004232D01*
X029456Y004354D01*
X029307Y004503D01*
X029112Y004584D01*
X028901Y004584D01*
X028706Y004503D01*
X028557Y004354D01*
X028507Y004232D01*
X028456Y004354D01*
X028307Y004503D01*
X028112Y004584D01*
X027901Y004584D01*
X027706Y004503D01*
X027557Y004354D01*
X027507Y004232D01*
X027456Y004354D01*
X027307Y004503D01*
X027112Y004584D01*
X026901Y004584D01*
X027125Y004579D02*
X027888Y004579D01*
X028125Y004579D02*
X028888Y004579D01*
X029125Y004579D02*
X029888Y004579D01*
X030125Y004579D02*
X030888Y004579D01*
X031125Y004579D02*
X031888Y004579D01*
X032125Y004579D02*
X032888Y004579D01*
X033125Y004579D02*
X033888Y004579D01*
X034125Y004579D02*
X035343Y004579D01*
X035266Y004460D02*
X034350Y004460D01*
X034461Y004342D02*
X035217Y004342D01*
X035168Y004223D02*
X034510Y004223D01*
X034537Y004105D02*
X035167Y004105D01*
X035167Y003986D02*
X034537Y003986D01*
X034503Y003868D02*
X035175Y003868D01*
X035224Y003749D02*
X034451Y003749D01*
X034333Y003631D02*
X035273Y003631D01*
X033680Y003631D02*
X033333Y003631D01*
X033451Y003749D02*
X033562Y003749D01*
X033510Y003868D02*
X033503Y003868D01*
X033461Y004342D02*
X033552Y004342D01*
X033663Y004460D02*
X033350Y004460D01*
X032663Y004460D02*
X032350Y004460D01*
X032461Y004342D02*
X032552Y004342D01*
X032510Y003868D02*
X032503Y003868D01*
X032451Y003749D02*
X032562Y003749D01*
X032680Y003631D02*
X032333Y003631D01*
X031680Y003631D02*
X031333Y003631D01*
X031451Y003749D02*
X031562Y003749D01*
X031510Y003868D02*
X031503Y003868D01*
X031461Y004342D02*
X031552Y004342D01*
X031663Y004460D02*
X031350Y004460D01*
X030663Y004460D02*
X030350Y004460D01*
X030461Y004342D02*
X030552Y004342D01*
X030510Y003868D02*
X030503Y003868D01*
X030451Y003749D02*
X030562Y003749D01*
X030680Y003631D02*
X030333Y003631D01*
X029680Y003631D02*
X029333Y003631D01*
X029451Y003749D02*
X029562Y003749D01*
X029510Y003868D02*
X029503Y003868D01*
X029461Y004342D02*
X029552Y004342D01*
X029663Y004460D02*
X029350Y004460D01*
X028663Y004460D02*
X028350Y004460D01*
X028461Y004342D02*
X028552Y004342D01*
X028510Y003868D02*
X028503Y003868D01*
X028451Y003749D02*
X028562Y003749D01*
X028680Y003631D02*
X028333Y003631D01*
X027680Y003631D02*
X027333Y003631D01*
X027451Y003749D02*
X027562Y003749D01*
X027510Y003868D02*
X027503Y003868D01*
X027461Y004342D02*
X027552Y004342D01*
X027663Y004460D02*
X027350Y004460D01*
X026663Y004460D02*
X025350Y004460D01*
X025461Y004342D02*
X026552Y004342D01*
X026503Y004223D02*
X025510Y004223D01*
X025537Y004105D02*
X026477Y004105D01*
X026477Y003986D02*
X025537Y003986D01*
X025503Y003868D02*
X026510Y003868D01*
X026562Y003749D02*
X025451Y003749D01*
X025333Y003631D02*
X026680Y003631D01*
X024680Y003631D02*
X024333Y003631D01*
X024451Y003749D02*
X024562Y003749D01*
X024510Y003868D02*
X024503Y003868D01*
X024461Y004342D02*
X024552Y004342D01*
X024663Y004460D02*
X024350Y004460D01*
X023663Y004460D02*
X023350Y004460D01*
X023461Y004342D02*
X023552Y004342D01*
X023510Y003868D02*
X023503Y003868D01*
X023451Y003749D02*
X023562Y003749D01*
X023680Y003631D02*
X023333Y003631D01*
X022680Y003631D02*
X022333Y003631D01*
X022451Y003749D02*
X022562Y003749D01*
X022510Y003868D02*
X022503Y003868D01*
X022461Y004342D02*
X022552Y004342D01*
X022663Y004460D02*
X022350Y004460D01*
X021663Y004460D02*
X021350Y004460D01*
X021461Y004342D02*
X021552Y004342D01*
X021510Y003868D02*
X021503Y003868D01*
X021451Y003749D02*
X021562Y003749D01*
X021680Y003631D02*
X021333Y003631D01*
X020680Y003631D02*
X020333Y003631D01*
X020451Y003749D02*
X020562Y003749D01*
X020510Y003868D02*
X020503Y003868D01*
X020461Y004342D02*
X020552Y004342D01*
X020663Y004460D02*
X020350Y004460D01*
X019663Y004460D02*
X019350Y004460D01*
X019461Y004342D02*
X019552Y004342D01*
X019510Y003868D02*
X019503Y003868D01*
X019451Y003749D02*
X019562Y003749D01*
X019680Y003631D02*
X019333Y003631D01*
X018680Y003631D02*
X018333Y003631D01*
X018451Y003749D02*
X018562Y003749D01*
X018510Y003868D02*
X018503Y003868D01*
X018461Y004342D02*
X018552Y004342D01*
X018663Y004460D02*
X018350Y004460D01*
X017663Y004460D02*
X016350Y004460D01*
X016461Y004342D02*
X017552Y004342D01*
X017503Y004223D02*
X016510Y004223D01*
X016537Y004105D02*
X017477Y004105D01*
X017477Y003986D02*
X016537Y003986D01*
X016503Y003868D02*
X017510Y003868D01*
X017562Y003749D02*
X016451Y003749D01*
X016333Y003631D02*
X017680Y003631D01*
X015680Y003631D02*
X015333Y003631D01*
X015451Y003749D02*
X015562Y003749D01*
X015510Y003868D02*
X015503Y003868D01*
X015461Y004342D02*
X015552Y004342D01*
X015663Y004460D02*
X015350Y004460D01*
X014212Y003284D02*
X007539Y003284D01*
X007412Y003338D01*
X007412Y003943D01*
X006543Y004579D02*
X010888Y004579D01*
X011125Y004579D02*
X011888Y004579D01*
X012125Y004579D02*
X012787Y004579D01*
X012787Y004697D02*
X006543Y004697D01*
X006543Y004816D02*
X012787Y004816D01*
X012787Y004934D02*
X006543Y004934D01*
X006543Y005053D02*
X012787Y005053D01*
X012787Y005171D02*
X006543Y005171D01*
X006543Y005290D02*
X012787Y005290D01*
X012787Y005408D02*
X006543Y005408D01*
X006543Y005527D02*
X012787Y005527D01*
X012787Y005645D02*
X006543Y005645D01*
X006543Y005764D02*
X012787Y005764D01*
X012787Y005882D02*
X011373Y005882D01*
X011278Y005843D02*
X011473Y005924D01*
X011622Y006073D01*
X011703Y006268D01*
X011703Y006478D01*
X011622Y006673D01*
X011473Y006822D01*
X011351Y006873D01*
X011473Y006924D01*
X011622Y007073D01*
X011703Y007268D01*
X011703Y007478D01*
X011622Y007673D01*
X011473Y007822D01*
X011351Y007873D01*
X011473Y007924D01*
X011622Y008073D01*
X011703Y008268D01*
X011703Y008478D01*
X011622Y008673D01*
X011473Y008822D01*
X011351Y008873D01*
X011473Y008924D01*
X011622Y009073D01*
X011703Y009268D01*
X011703Y009478D01*
X011622Y009673D01*
X011473Y009822D01*
X011278Y009903D01*
X011067Y009903D01*
X010872Y009822D01*
X010723Y009673D01*
X010643Y009478D01*
X010643Y009268D01*
X010723Y009073D01*
X010872Y008924D01*
X010995Y008873D01*
X010872Y008822D01*
X010723Y008673D01*
X010643Y008478D01*
X010643Y008268D01*
X010723Y008073D01*
X010872Y007924D01*
X010995Y007873D01*
X010872Y007822D01*
X010723Y007673D01*
X010643Y007478D01*
X010643Y007268D01*
X010723Y007073D01*
X010872Y006924D01*
X010995Y006873D01*
X010872Y006822D01*
X010723Y006673D01*
X010643Y006478D01*
X010643Y006268D01*
X010723Y006073D01*
X010872Y005924D01*
X011067Y005843D01*
X011278Y005843D01*
X010972Y005882D02*
X006543Y005882D01*
X006543Y006001D02*
X007240Y006001D01*
X007306Y005973D02*
X007112Y006054D01*
X006963Y006203D01*
X006882Y006398D01*
X006882Y006609D01*
X006963Y006804D01*
X007112Y006953D01*
X007306Y007033D01*
X007517Y007033D01*
X007712Y006953D01*
X007861Y006804D01*
X007942Y006609D01*
X007942Y006398D01*
X007861Y006203D01*
X007712Y006054D01*
X007517Y005973D01*
X007306Y005973D01*
X007584Y006001D02*
X009020Y006001D01*
X009086Y005973D02*
X009297Y005973D01*
X009492Y006054D01*
X009641Y006203D01*
X009722Y006398D01*
X009722Y006609D01*
X009641Y006804D01*
X009492Y006953D01*
X009297Y007033D01*
X009086Y007033D01*
X008892Y006953D01*
X008743Y006804D01*
X008662Y006609D01*
X008662Y006398D01*
X008743Y006203D01*
X008892Y006054D01*
X009086Y005973D01*
X009364Y006001D02*
X010795Y006001D01*
X010704Y006119D02*
X009557Y006119D01*
X009656Y006238D02*
X010655Y006238D01*
X010643Y006356D02*
X009705Y006356D01*
X009722Y006475D02*
X010643Y006475D01*
X010690Y006593D02*
X009722Y006593D01*
X009679Y006712D02*
X010762Y006712D01*
X010892Y006830D02*
X009614Y006830D01*
X009496Y006949D02*
X010847Y006949D01*
X010729Y007067D02*
X006543Y007067D01*
X006543Y006949D02*
X007108Y006949D01*
X006989Y006830D02*
X006543Y006830D01*
X006543Y006712D02*
X006925Y006712D01*
X006882Y006593D02*
X006543Y006593D01*
X006543Y006475D02*
X006882Y006475D01*
X006899Y006356D02*
X006543Y006356D01*
X006543Y006238D02*
X006948Y006238D01*
X007046Y006119D02*
X006543Y006119D01*
X007777Y006119D02*
X008826Y006119D01*
X008728Y006238D02*
X007876Y006238D01*
X007925Y006356D02*
X008679Y006356D01*
X008662Y006475D02*
X007942Y006475D01*
X007942Y006593D02*
X008662Y006593D01*
X008705Y006712D02*
X007899Y006712D01*
X007834Y006830D02*
X008769Y006830D01*
X008888Y006949D02*
X007716Y006949D01*
X006543Y007186D02*
X010677Y007186D01*
X010643Y007304D02*
X006543Y007304D01*
X006543Y007423D02*
X010643Y007423D01*
X010669Y007541D02*
X006543Y007541D01*
X006543Y007660D02*
X010718Y007660D01*
X010829Y007778D02*
X006543Y007778D01*
X006543Y007897D02*
X010937Y007897D01*
X010781Y008015D02*
X006543Y008015D01*
X006543Y008134D02*
X010698Y008134D01*
X010649Y008252D02*
X006543Y008252D01*
X006543Y008371D02*
X010643Y008371D01*
X010647Y008489D02*
X006543Y008489D01*
X006543Y008608D02*
X010696Y008608D01*
X010777Y008726D02*
X006543Y008726D01*
X006543Y008845D02*
X010927Y008845D01*
X010833Y008963D02*
X006543Y008963D01*
X006543Y009082D02*
X010720Y009082D01*
X010671Y009200D02*
X006543Y009200D01*
X006543Y009319D02*
X010643Y009319D01*
X010643Y009437D02*
X006543Y009437D01*
X006543Y009556D02*
X010675Y009556D01*
X010725Y009674D02*
X006543Y009674D01*
X006543Y009793D02*
X010843Y009793D01*
X011502Y009793D02*
X013170Y009793D01*
X013052Y009674D02*
X011621Y009674D01*
X011671Y009556D02*
X012933Y009556D01*
X012815Y009437D02*
X011703Y009437D01*
X011703Y009319D02*
X012787Y009319D01*
X012787Y009200D02*
X011675Y009200D01*
X011626Y009082D02*
X012787Y009082D01*
X012787Y008963D02*
X011513Y008963D01*
X011418Y008845D02*
X012787Y008845D01*
X012787Y008726D02*
X011569Y008726D01*
X011649Y008608D02*
X012787Y008608D01*
X012787Y008489D02*
X011698Y008489D01*
X011703Y008371D02*
X012787Y008371D01*
X012787Y008252D02*
X011696Y008252D01*
X011647Y008134D02*
X012787Y008134D01*
X012787Y008015D02*
X011565Y008015D01*
X011408Y007897D02*
X012787Y007897D01*
X012787Y007778D02*
X011517Y007778D01*
X011628Y007660D02*
X012787Y007660D01*
X012787Y007541D02*
X011677Y007541D01*
X011703Y007423D02*
X012787Y007423D01*
X012787Y007304D02*
X011703Y007304D01*
X011669Y007186D02*
X012787Y007186D01*
X012787Y007067D02*
X011617Y007067D01*
X011498Y006949D02*
X012787Y006949D01*
X012787Y006830D02*
X011453Y006830D01*
X011583Y006712D02*
X012787Y006712D01*
X012787Y006593D02*
X011655Y006593D01*
X011703Y006475D02*
X012787Y006475D01*
X012787Y006356D02*
X011703Y006356D01*
X011690Y006238D02*
X012787Y006238D01*
X012787Y006119D02*
X011641Y006119D01*
X011550Y006001D02*
X012787Y006001D01*
X012663Y004460D02*
X012350Y004460D01*
X012461Y004342D02*
X012552Y004342D01*
X011663Y004460D02*
X011350Y004460D01*
X011461Y004342D02*
X011552Y004342D01*
X011510Y003868D02*
X011503Y003868D01*
X011451Y003749D02*
X011562Y003749D01*
X011680Y003631D02*
X011333Y003631D01*
X011007Y004054D02*
X010108Y003943D01*
X009192Y003943D01*
X009543Y004342D02*
X010552Y004342D01*
X010503Y004223D02*
X009650Y004223D01*
X009329Y004460D02*
X010663Y004460D01*
X010562Y003749D02*
X010333Y003749D01*
X010680Y003631D02*
X009629Y003631D01*
X013227Y009082D02*
X026830Y009082D01*
X026830Y009200D02*
X013227Y009200D01*
X013319Y009319D02*
X026830Y009319D01*
X026830Y009437D02*
X013437Y009437D01*
X013556Y009556D02*
X026830Y009556D01*
X026830Y009674D02*
X013674Y009674D01*
X013793Y009793D02*
X026830Y009793D01*
X026830Y009911D02*
X013911Y009911D01*
X014030Y010030D02*
X026830Y010030D01*
X026830Y010148D02*
X021684Y010148D01*
X021802Y010267D02*
X026762Y010267D01*
X026644Y010385D02*
X026608Y010385D01*
X024808Y011333D02*
X022465Y011333D01*
X022584Y011215D02*
X024689Y011215D01*
X022024Y010385D02*
X021921Y010385D01*
X021535Y010622D02*
X006543Y010622D01*
X006543Y010504D02*
X013881Y010504D01*
X013763Y010385D02*
X006543Y010385D01*
X006543Y010267D02*
X013644Y010267D01*
X013526Y010148D02*
X006543Y010148D01*
X006543Y010030D02*
X013407Y010030D01*
X013289Y009911D02*
X006543Y009911D01*
X006543Y013111D02*
X016619Y013111D01*
X016500Y013229D02*
X006543Y013229D01*
X006543Y013348D02*
X016382Y013348D01*
X016263Y013466D02*
X006543Y013466D01*
X006543Y013585D02*
X016145Y013585D01*
X016026Y013703D02*
X006543Y013703D01*
X006543Y013822D02*
X015908Y013822D01*
X015789Y013940D02*
X006543Y013940D01*
X006543Y014059D02*
X015671Y014059D01*
X015552Y014177D02*
X006543Y014177D01*
X006543Y014296D02*
X015434Y014296D01*
X015315Y014414D02*
X006543Y014414D01*
X006543Y014533D02*
X015197Y014533D01*
X015078Y014651D02*
X006543Y014651D01*
X006543Y014770D02*
X014960Y014770D01*
X014841Y014888D02*
X006543Y014888D01*
X006543Y015007D02*
X014723Y015007D01*
X014604Y015125D02*
X006543Y015125D01*
X006543Y015244D02*
X014486Y015244D01*
X014367Y015362D02*
X006543Y015362D01*
X006543Y015481D02*
X014249Y015481D01*
X014130Y015599D02*
X006543Y015599D01*
X006543Y015718D02*
X014012Y015718D01*
X013893Y015836D02*
X006543Y015836D01*
X006543Y015955D02*
X010841Y015955D01*
X010872Y015924D02*
X011067Y015843D01*
X011278Y015843D01*
X011473Y015924D01*
X011622Y016073D01*
X011703Y016268D01*
X011703Y016478D01*
X011622Y016673D01*
X011473Y016822D01*
X011351Y016873D01*
X011473Y016924D01*
X011622Y017073D01*
X011703Y017268D01*
X011703Y017478D01*
X011622Y017673D01*
X011473Y017822D01*
X011278Y017903D01*
X011067Y017903D01*
X010872Y017822D01*
X010723Y017673D01*
X010643Y017478D01*
X010643Y017268D01*
X010723Y017073D01*
X010872Y016924D01*
X010995Y016873D01*
X010872Y016822D01*
X010723Y016673D01*
X010643Y016478D01*
X010643Y016268D01*
X010723Y016073D01*
X006543Y016073D01*
X006543Y016192D02*
X010674Y016192D01*
X010643Y016310D02*
X006543Y016310D01*
X006543Y016429D02*
X010643Y016429D01*
X010671Y016547D02*
X006543Y016547D01*
X006543Y016666D02*
X010720Y016666D01*
X010835Y016784D02*
X006543Y016784D01*
X006543Y016903D02*
X010923Y016903D01*
X010775Y017021D02*
X006543Y017021D01*
X006543Y017140D02*
X010696Y017140D01*
X010647Y017258D02*
X006543Y017258D01*
X006543Y017377D02*
X010643Y017377D01*
X010650Y017495D02*
X006543Y017495D01*
X006543Y017614D02*
X010699Y017614D01*
X010783Y017732D02*
X006543Y017732D01*
X006543Y017851D02*
X007767Y017851D01*
X007670Y017891D02*
X007873Y017807D01*
X008881Y017807D01*
X009084Y017891D01*
X009240Y018047D01*
X009324Y018250D01*
X009324Y018471D01*
X009240Y018674D01*
X009084Y018830D01*
X008881Y018914D01*
X007873Y018914D01*
X007670Y018830D01*
X007514Y018674D01*
X007430Y018471D01*
X007430Y018250D01*
X007514Y018047D01*
X007670Y017891D01*
X007591Y017969D02*
X006543Y017969D01*
X006543Y018088D02*
X007497Y018088D01*
X007448Y018206D02*
X006543Y018206D01*
X006543Y018325D02*
X007430Y018325D01*
X007430Y018443D02*
X006543Y018443D01*
X006543Y018562D02*
X007467Y018562D01*
X007520Y018680D02*
X006543Y018680D01*
X006543Y018799D02*
X007639Y018799D01*
X007212Y019391D02*
X009424Y019391D01*
X009448Y019381D02*
X009668Y019381D01*
X009872Y019466D01*
X010028Y019622D01*
X010112Y019825D01*
X010112Y020833D01*
X010028Y021036D01*
X009872Y021192D01*
X009668Y021276D01*
X009448Y021276D01*
X009244Y021192D01*
X009089Y021036D01*
X009004Y020833D01*
X009004Y019825D01*
X009089Y019622D01*
X009244Y019466D01*
X009448Y019381D01*
X009692Y019391D02*
X012216Y019391D01*
X012216Y019273D02*
X006543Y019273D01*
X006543Y019391D02*
X006944Y019391D01*
X006720Y019510D02*
X006543Y019510D01*
X006543Y019628D02*
X006606Y019628D01*
X006557Y019747D02*
X006543Y019747D01*
X007436Y019510D02*
X009200Y019510D01*
X009086Y019628D02*
X007550Y019628D01*
X007599Y019747D02*
X009037Y019747D01*
X009004Y019865D02*
X007632Y019865D01*
X007632Y019984D02*
X009004Y019984D01*
X009004Y020102D02*
X007632Y020102D01*
X007632Y020221D02*
X009004Y020221D01*
X009004Y020339D02*
X007632Y020339D01*
X007632Y020458D02*
X009004Y020458D01*
X009004Y020576D02*
X007632Y020576D01*
X007632Y020695D02*
X009004Y020695D01*
X009004Y020813D02*
X007632Y020813D01*
X007590Y020932D02*
X009046Y020932D01*
X009103Y021050D02*
X007533Y021050D01*
X007415Y021169D02*
X009221Y021169D01*
X009895Y021169D02*
X010684Y021169D01*
X010723Y021073D02*
X010643Y021268D01*
X010643Y021478D01*
X010723Y021673D01*
X010872Y021822D01*
X011067Y021903D01*
X011278Y021903D01*
X011473Y021822D01*
X011622Y021673D01*
X011703Y021478D01*
X011703Y021268D01*
X011622Y021073D01*
X011473Y020924D01*
X011351Y020873D01*
X011473Y020822D01*
X011622Y020673D01*
X011703Y020478D01*
X011703Y020268D01*
X011622Y020073D01*
X011473Y019924D01*
X011278Y019843D01*
X011067Y019843D01*
X010872Y019924D01*
X010723Y020073D01*
X010643Y020268D01*
X010643Y020478D01*
X010723Y020673D01*
X010872Y020822D01*
X010995Y020873D01*
X010872Y020924D01*
X010723Y021073D01*
X010746Y021050D02*
X010013Y021050D01*
X010071Y020932D02*
X010864Y020932D01*
X010864Y020813D02*
X010112Y020813D01*
X010112Y020695D02*
X010745Y020695D01*
X010683Y020576D02*
X010112Y020576D01*
X010112Y020458D02*
X010643Y020458D01*
X010643Y020339D02*
X010112Y020339D01*
X010112Y020221D02*
X010662Y020221D01*
X010711Y020102D02*
X010112Y020102D01*
X010112Y019984D02*
X010812Y019984D01*
X011013Y019865D02*
X010112Y019865D01*
X010079Y019747D02*
X012216Y019747D01*
X012216Y019865D02*
X011332Y019865D01*
X011533Y019984D02*
X012216Y019984D01*
X012216Y020102D02*
X011634Y020102D01*
X011683Y020221D02*
X012216Y020221D01*
X012216Y020339D02*
X011703Y020339D01*
X011703Y020458D02*
X012216Y020458D01*
X012216Y020576D02*
X011662Y020576D01*
X011600Y020695D02*
X012216Y020695D01*
X012216Y020813D02*
X011482Y020813D01*
X011481Y020932D02*
X012216Y020932D01*
X012216Y021050D02*
X011600Y021050D01*
X011662Y021169D02*
X012216Y021169D01*
X012216Y021287D02*
X011703Y021287D01*
X011703Y021406D02*
X012216Y021406D01*
X012216Y021524D02*
X011684Y021524D01*
X011635Y021643D02*
X012216Y021643D01*
X012216Y021761D02*
X011534Y021761D01*
X011334Y021880D02*
X012216Y021880D01*
X012216Y021998D02*
X006543Y021998D01*
X006543Y021880D02*
X011011Y021880D01*
X010812Y021761D02*
X006543Y021761D01*
X006543Y021643D02*
X010711Y021643D01*
X010662Y021524D02*
X006543Y021524D01*
X006543Y021406D02*
X010643Y021406D01*
X010643Y021287D02*
X006543Y021287D01*
X006543Y021169D02*
X006741Y021169D01*
X006623Y021050D02*
X006543Y021050D01*
X006543Y020932D02*
X006565Y020932D01*
X006543Y022117D02*
X012305Y022117D01*
X012424Y022235D02*
X006543Y022235D01*
X006543Y022354D02*
X012542Y022354D01*
X012661Y022472D02*
X006543Y022472D01*
X006543Y022591D02*
X007140Y022591D01*
X007002Y022709D02*
X006543Y022709D01*
X006543Y022828D02*
X006927Y022828D01*
X006878Y022946D02*
X006543Y022946D01*
X006543Y023065D02*
X006877Y023065D01*
X006886Y023183D02*
X006543Y023183D01*
X006543Y023302D02*
X006936Y023302D01*
X007023Y023420D02*
X006543Y023420D01*
X006543Y023539D02*
X007192Y023539D01*
X007621Y023539D02*
X008192Y023539D01*
X008023Y023420D02*
X007790Y023420D01*
X007878Y023302D02*
X007936Y023302D01*
X007927Y022828D02*
X007887Y022828D01*
X007811Y022709D02*
X008002Y022709D01*
X008140Y022591D02*
X007673Y022591D01*
X008673Y022591D02*
X009140Y022591D01*
X009002Y022709D02*
X008811Y022709D01*
X008887Y022828D02*
X008927Y022828D01*
X008936Y023302D02*
X008878Y023302D01*
X008790Y023420D02*
X009023Y023420D01*
X009192Y023539D02*
X008621Y023539D01*
X009621Y023539D02*
X010192Y023539D01*
X010023Y023420D02*
X009790Y023420D01*
X009878Y023302D02*
X009936Y023302D01*
X009927Y022828D02*
X009887Y022828D01*
X009811Y022709D02*
X010002Y022709D01*
X010140Y022591D02*
X009673Y022591D01*
X010673Y022591D02*
X011140Y022591D01*
X011002Y022709D02*
X010811Y022709D01*
X010887Y022828D02*
X010927Y022828D01*
X010936Y023302D02*
X010878Y023302D01*
X010790Y023420D02*
X011023Y023420D01*
X011192Y023539D02*
X010621Y023539D01*
X011621Y023539D02*
X012192Y023539D01*
X012023Y023420D02*
X011790Y023420D01*
X011878Y023302D02*
X011936Y023302D01*
X012621Y023539D02*
X013192Y023539D01*
X013023Y023420D02*
X012790Y023420D01*
X012878Y023302D02*
X012936Y023302D01*
X012927Y022828D02*
X012887Y022828D01*
X012898Y022709D02*
X012811Y022709D01*
X012779Y022591D02*
X012673Y022591D01*
X012140Y022591D02*
X011673Y022591D01*
X011811Y022709D02*
X012002Y022709D01*
X011927Y022828D02*
X011887Y022828D01*
X013776Y022235D02*
X014187Y022235D01*
X014187Y022117D02*
X013891Y022117D01*
X013940Y021998D02*
X014187Y021998D01*
X014187Y021880D02*
X013970Y021880D01*
X013970Y021761D02*
X014187Y021761D01*
X014187Y021643D02*
X013939Y021643D01*
X013890Y021524D02*
X014187Y021524D01*
X014187Y021406D02*
X013773Y021406D01*
X014627Y022354D02*
X033019Y022354D01*
X032900Y022472D02*
X014627Y022472D01*
X017703Y020458D02*
X017930Y020458D01*
X017811Y020339D02*
X017703Y020339D01*
X017693Y020221D02*
X017683Y020221D01*
X017971Y019876D02*
X018192Y020098D01*
X019394Y020098D01*
X019427Y020018D01*
X019576Y019869D01*
X019626Y019848D01*
X019440Y019848D01*
X019347Y019754D01*
X019347Y019538D01*
X017678Y019538D01*
X017631Y019652D01*
X017698Y019652D01*
X017794Y019747D01*
X017842Y019747D01*
X017971Y019876D01*
X017971Y019876D01*
X017960Y019865D02*
X019584Y019865D01*
X019461Y019984D02*
X018078Y019984D01*
X017793Y019747D02*
X019347Y019747D01*
X019347Y019628D02*
X017641Y019628D01*
X017585Y019036D02*
X019347Y019036D01*
X019347Y018917D02*
X017458Y018917D01*
X019429Y018799D02*
X013970Y018799D01*
X012216Y018799D02*
X009115Y018799D01*
X009234Y018680D02*
X012216Y018680D01*
X012216Y018562D02*
X009287Y018562D01*
X009324Y018443D02*
X012216Y018443D01*
X012216Y018325D02*
X009324Y018325D01*
X009306Y018206D02*
X012216Y018206D01*
X012216Y018088D02*
X009257Y018088D01*
X009163Y017969D02*
X012216Y017969D01*
X012216Y017851D02*
X011404Y017851D01*
X011563Y017732D02*
X012216Y017732D01*
X012216Y017614D02*
X011647Y017614D01*
X011696Y017495D02*
X012234Y017495D01*
X012353Y017377D02*
X011703Y017377D01*
X011699Y017258D02*
X012471Y017258D01*
X012590Y017140D02*
X011650Y017140D01*
X011571Y017021D02*
X012708Y017021D01*
X012827Y016903D02*
X011423Y016903D01*
X011511Y016784D02*
X012945Y016784D01*
X013064Y016666D02*
X011625Y016666D01*
X011674Y016547D02*
X013182Y016547D01*
X013301Y016429D02*
X011703Y016429D01*
X011703Y016310D02*
X013419Y016310D01*
X013538Y016192D02*
X011671Y016192D01*
X011622Y016073D02*
X013656Y016073D01*
X013775Y015955D02*
X011504Y015955D01*
X010872Y015924D02*
X010723Y016073D01*
X010941Y017851D02*
X008988Y017851D01*
X006543Y018917D02*
X012216Y018917D01*
X012216Y019036D02*
X006543Y019036D01*
X006543Y019154D02*
X012216Y019154D01*
X012216Y019510D02*
X009916Y019510D01*
X010030Y019628D02*
X012216Y019628D01*
X006543Y023657D02*
X032922Y023657D01*
X032804Y023539D02*
X032221Y023539D01*
X032390Y023420D02*
X032749Y023420D01*
X032700Y023302D02*
X032478Y023302D01*
X032527Y023183D02*
X032667Y023183D01*
X032667Y023065D02*
X032537Y023065D01*
X032536Y022946D02*
X032667Y022946D01*
X032691Y022828D02*
X032487Y022828D01*
X032411Y022709D02*
X032740Y022709D01*
X032789Y022591D02*
X032273Y022591D01*
X031740Y022591D02*
X031273Y022591D01*
X031411Y022709D02*
X031602Y022709D01*
X031527Y022828D02*
X031487Y022828D01*
X031478Y023302D02*
X031536Y023302D01*
X031623Y023420D02*
X031390Y023420D01*
X031221Y023539D02*
X031792Y023539D01*
X030792Y023539D02*
X030221Y023539D01*
X030390Y023420D02*
X030623Y023420D01*
X030536Y023302D02*
X030478Y023302D01*
X030487Y022828D02*
X030527Y022828D01*
X030602Y022709D02*
X030411Y022709D01*
X030273Y022591D02*
X030740Y022591D01*
X032095Y021880D02*
X034477Y021880D01*
X034550Y021761D02*
X032289Y021761D01*
X032387Y021643D02*
X034668Y021643D01*
X034727Y021524D02*
X032436Y021524D01*
X032454Y021406D02*
X034609Y021406D01*
X034490Y021287D02*
X032454Y021287D01*
X032411Y021169D02*
X034477Y021169D01*
X034477Y021050D02*
X032347Y021050D01*
X032228Y020932D02*
X034477Y020932D01*
X034498Y020813D02*
X032237Y020813D01*
X032355Y020695D02*
X034616Y020695D01*
X034735Y020576D02*
X032415Y020576D01*
X032454Y020458D02*
X034661Y020458D01*
X034542Y020339D02*
X032454Y020339D01*
X032433Y020221D02*
X034477Y020221D01*
X034477Y020102D02*
X032384Y020102D01*
X032280Y019984D02*
X034477Y019984D01*
X034477Y019865D02*
X032402Y019865D01*
X032454Y019747D02*
X034564Y019747D01*
X034683Y019628D02*
X032454Y019628D01*
X032454Y019510D02*
X034713Y019510D01*
X034594Y019391D02*
X032454Y019391D01*
X032454Y019273D02*
X034477Y019273D01*
X034477Y019154D02*
X032454Y019154D01*
X032454Y019036D02*
X034477Y019036D01*
X034477Y018917D02*
X032431Y018917D01*
X035256Y018554D02*
X035507Y018805D01*
X035757Y018554D01*
X035507Y018304D01*
X035256Y018554D01*
X035264Y018562D02*
X035749Y018562D01*
X035646Y018443D02*
X035367Y018443D01*
X035485Y018325D02*
X035528Y018325D01*
X035631Y018680D02*
X035382Y018680D01*
X035501Y018799D02*
X035512Y018799D01*
X035507Y019304D02*
X035256Y019554D01*
X035507Y019805D01*
X035757Y019554D01*
X035507Y019304D01*
X035419Y019391D02*
X035594Y019391D01*
X035713Y019510D02*
X035300Y019510D01*
X035330Y019628D02*
X035683Y019628D01*
X035564Y019747D02*
X035449Y019747D01*
X035507Y020304D02*
X035256Y020554D01*
X035507Y020805D01*
X035757Y020554D01*
X035507Y020304D01*
X035542Y020339D02*
X035471Y020339D01*
X035352Y020458D02*
X035661Y020458D01*
X035735Y020576D02*
X035278Y020576D01*
X035397Y020695D02*
X035616Y020695D01*
X035507Y021304D02*
X035256Y021554D01*
X035507Y021805D01*
X035757Y021554D01*
X035507Y021304D01*
X035404Y021406D02*
X035609Y021406D01*
X035727Y021524D02*
X035286Y021524D01*
X035345Y021643D02*
X035668Y021643D01*
X035550Y021761D02*
X035463Y021761D01*
X035507Y022304D02*
X035778Y022575D01*
X035706Y022605D01*
X035557Y022754D01*
X035507Y022876D01*
X035456Y022754D01*
X035307Y022605D01*
X035235Y022575D01*
X035507Y022304D01*
X035557Y022354D02*
X035456Y022354D01*
X035338Y022472D02*
X035675Y022472D01*
X035740Y022591D02*
X035273Y022591D01*
X035411Y022709D02*
X035602Y022709D01*
X035527Y022828D02*
X035487Y022828D01*
X035478Y023302D02*
X035536Y023302D01*
X035623Y023420D02*
X035390Y023420D01*
X035221Y023539D02*
X035792Y023539D01*
X033959Y023776D02*
X037993Y023776D01*
X033054Y023776D02*
X006543Y023776D01*
X020333Y016666D02*
X020833Y016666D01*
X020732Y016784D02*
X020435Y016784D01*
X020483Y016903D02*
X020683Y016903D01*
X020683Y017021D02*
X020483Y017021D01*
X020483Y017140D02*
X020683Y017140D01*
X020683Y017258D02*
X020483Y017258D01*
X020483Y017377D02*
X020683Y017377D01*
X020683Y017495D02*
X020483Y017495D01*
X020453Y017614D02*
X020714Y017614D01*
X020789Y017732D02*
X020378Y017732D01*
X022301Y020221D02*
X022358Y020221D01*
X022358Y020339D02*
X022301Y020339D01*
X022301Y020458D02*
X022373Y020458D01*
X022411Y020576D02*
X022422Y020576D01*
X023273Y022591D02*
X024740Y022591D01*
X024602Y022709D02*
X023411Y022709D01*
X023487Y022828D02*
X024527Y022828D01*
X024478Y022946D02*
X023536Y022946D01*
X023537Y023065D02*
X024477Y023065D01*
X024486Y023183D02*
X023527Y023183D01*
X023478Y023302D02*
X024536Y023302D01*
X024623Y023420D02*
X023390Y023420D01*
X023221Y023539D02*
X024792Y023539D01*
X026351Y017495D02*
X026699Y017495D01*
X026642Y017377D02*
X026408Y017377D01*
X026425Y017258D02*
X026625Y017258D01*
X026625Y017140D02*
X026425Y017140D01*
X027025Y017016D02*
X027025Y016713D01*
X035256Y016554D02*
X035507Y016805D01*
X035757Y016554D01*
X035507Y016304D01*
X035256Y016554D01*
X035263Y016547D02*
X035750Y016547D01*
X035645Y016666D02*
X035368Y016666D01*
X035486Y016784D02*
X035527Y016784D01*
X035632Y016429D02*
X035381Y016429D01*
X035500Y016310D02*
X035513Y016310D01*
X035507Y015805D02*
X035757Y015554D01*
X035507Y015304D01*
X035256Y015554D01*
X035507Y015805D01*
X035593Y015718D02*
X035420Y015718D01*
X035301Y015599D02*
X035712Y015599D01*
X035684Y015481D02*
X035329Y015481D01*
X035448Y015362D02*
X035565Y015362D01*
X036396Y014414D02*
X037993Y014414D01*
X037993Y014296D02*
X036514Y014296D01*
X036537Y014177D02*
X037993Y014177D01*
X037993Y014059D02*
X036537Y014059D01*
X036537Y013940D02*
X037993Y013940D01*
X037993Y013822D02*
X036524Y013822D01*
X036405Y013703D02*
X037993Y013703D01*
X037993Y013585D02*
X036287Y013585D01*
X036344Y013466D02*
X037993Y013466D01*
X037993Y013348D02*
X036462Y013348D01*
X036537Y013229D02*
X037993Y013229D01*
X037993Y013111D02*
X036537Y013111D01*
X036537Y012992D02*
X037993Y012992D01*
X037993Y012874D02*
X036537Y012874D01*
X036457Y012755D02*
X037993Y012755D01*
X037993Y012637D02*
X036339Y012637D01*
X036292Y012518D02*
X037993Y012518D01*
X037993Y012400D02*
X036410Y012400D01*
X036529Y012281D02*
X037993Y012281D01*
X037993Y012163D02*
X036537Y012163D01*
X036537Y012044D02*
X037993Y012044D01*
X037993Y011926D02*
X036537Y011926D01*
X036509Y011807D02*
X037993Y011807D01*
X037993Y011689D02*
X036391Y011689D01*
X036272Y011570D02*
X037993Y011570D01*
X037993Y011452D02*
X036358Y011452D01*
X036477Y011333D02*
X037993Y011333D01*
X037993Y011215D02*
X036537Y011215D01*
X036537Y011096D02*
X037993Y011096D01*
X037993Y010978D02*
X036537Y010978D01*
X036537Y010859D02*
X037993Y010859D01*
X037993Y010741D02*
X036443Y010741D01*
X036324Y010622D02*
X037993Y010622D01*
X037993Y010504D02*
X036306Y010504D01*
X036425Y010385D02*
X037993Y010385D01*
X037993Y010267D02*
X036537Y010267D01*
X036537Y010148D02*
X037993Y010148D01*
X037993Y010030D02*
X036537Y010030D01*
X036537Y009911D02*
X037993Y009911D01*
X037993Y009793D02*
X036495Y009793D01*
X036376Y009674D02*
X037993Y009674D01*
X037993Y009556D02*
X036258Y009556D01*
X036373Y009437D02*
X037993Y009437D01*
X037993Y009319D02*
X036491Y009319D01*
X036537Y009200D02*
X037993Y009200D01*
X037993Y009082D02*
X036537Y009082D01*
X036537Y008963D02*
X037993Y008963D01*
X037993Y008845D02*
X036537Y008845D01*
X036428Y008726D02*
X037993Y008726D01*
X037993Y008608D02*
X036310Y008608D01*
X036321Y008489D02*
X037993Y008489D01*
X037993Y008371D02*
X036439Y008371D01*
X036537Y008252D02*
X037993Y008252D01*
X037993Y008134D02*
X036537Y008134D01*
X036537Y008015D02*
X037993Y008015D01*
X037993Y007897D02*
X036537Y007897D01*
X036480Y007778D02*
X037993Y007778D01*
X037993Y007660D02*
X036362Y007660D01*
X036269Y007541D02*
X037993Y007541D01*
X037993Y007423D02*
X036387Y007423D01*
X036506Y007304D02*
X037993Y007304D01*
X037993Y007186D02*
X036537Y007186D01*
X036537Y007067D02*
X037993Y007067D01*
X037993Y006949D02*
X036537Y006949D01*
X036532Y006830D02*
X037993Y006830D01*
X037993Y006712D02*
X036414Y006712D01*
X036295Y006593D02*
X037993Y006593D01*
X037993Y006475D02*
X036335Y006475D01*
X036454Y006356D02*
X037993Y006356D01*
X037993Y006238D02*
X036504Y006238D01*
X036537Y006119D02*
X037993Y006119D01*
X037993Y006001D02*
X036537Y006001D01*
X036509Y005882D02*
X037993Y005882D01*
X037993Y005764D02*
X036460Y005764D01*
X036347Y005645D02*
X037993Y005645D01*
X037993Y005527D02*
X036119Y005527D01*
X035894Y005527D02*
X035119Y005527D01*
X035347Y005645D02*
X035666Y005645D01*
X035553Y005764D02*
X035460Y005764D01*
X035507Y006232D02*
X035456Y006354D01*
X035307Y006503D01*
X035235Y006533D01*
X035507Y006805D01*
X035778Y006533D01*
X035706Y006503D01*
X035557Y006354D01*
X035507Y006232D01*
X035504Y006238D02*
X035509Y006238D01*
X035559Y006356D02*
X035454Y006356D01*
X035335Y006475D02*
X035678Y006475D01*
X035718Y006593D02*
X035295Y006593D01*
X035414Y006712D02*
X035599Y006712D01*
X035766Y008054D02*
X036007Y008054D01*
X035667Y008464D02*
X035490Y008641D01*
X035417Y008715D01*
X035507Y008805D01*
X035757Y008554D01*
X035667Y008464D01*
X035642Y008489D02*
X035692Y008489D01*
X035703Y008608D02*
X035524Y008608D01*
X035585Y008726D02*
X035428Y008726D01*
X035507Y009304D02*
X035256Y009554D01*
X035507Y009805D01*
X035757Y009554D01*
X035507Y009304D01*
X035491Y009319D02*
X035522Y009319D01*
X035640Y009437D02*
X035373Y009437D01*
X035258Y009556D02*
X035755Y009556D01*
X035637Y009674D02*
X035376Y009674D01*
X035495Y009793D02*
X035518Y009793D01*
X035507Y010304D02*
X035256Y010554D01*
X035507Y010805D01*
X035757Y010554D01*
X035507Y010304D01*
X035588Y010385D02*
X035425Y010385D01*
X035306Y010504D02*
X035707Y010504D01*
X035689Y010622D02*
X035324Y010622D01*
X035443Y010741D02*
X035570Y010741D01*
X035507Y011304D02*
X035256Y011554D01*
X035507Y011805D01*
X035757Y011554D01*
X035507Y011304D01*
X035477Y011333D02*
X035536Y011333D01*
X035655Y011452D02*
X035358Y011452D01*
X035272Y011570D02*
X035741Y011570D01*
X035622Y011689D02*
X035391Y011689D01*
X035507Y012304D02*
X035256Y012554D01*
X035507Y012805D01*
X035757Y012554D01*
X035507Y012304D01*
X035603Y012400D02*
X035410Y012400D01*
X035292Y012518D02*
X035721Y012518D01*
X035674Y012637D02*
X035339Y012637D01*
X035457Y012755D02*
X035556Y012755D01*
X035507Y013304D02*
X035256Y013554D01*
X035507Y013805D01*
X035757Y013554D01*
X035507Y013304D01*
X035462Y013348D02*
X035551Y013348D01*
X035669Y013466D02*
X035344Y013466D01*
X035287Y013585D02*
X035726Y013585D01*
X035608Y013703D02*
X035405Y013703D01*
X035507Y017304D02*
X035256Y017554D01*
X035507Y017805D01*
X035757Y017554D01*
X035507Y017304D01*
X035433Y017377D02*
X035580Y017377D01*
X035698Y017495D02*
X035315Y017495D01*
X035316Y017614D02*
X035697Y017614D01*
X035579Y017732D02*
X035434Y017732D01*
X029814Y011333D02*
X029756Y011333D01*
X029875Y011215D02*
X029932Y011215D01*
X029864Y008015D02*
X029668Y008015D01*
X029670Y007897D02*
X029830Y007897D01*
X029830Y007778D02*
X029670Y007778D01*
X029670Y007660D02*
X029830Y007660D01*
X029890Y007541D02*
X029611Y007541D01*
X029493Y007423D02*
X030008Y007423D01*
X029941Y007131D02*
X029560Y007131D01*
X029290Y006862D01*
X029290Y006481D01*
X029560Y006211D01*
X029941Y006211D01*
X030210Y006481D01*
X030210Y006862D01*
X029941Y007131D01*
X030005Y007067D02*
X031913Y007067D01*
X031910Y007186D02*
X021110Y007186D01*
X021068Y007541D02*
X022330Y007541D01*
X022270Y007660D02*
X021037Y007660D01*
X020974Y007778D02*
X022270Y007778D01*
X022270Y007897D02*
X020906Y007897D01*
X020807Y008015D02*
X022195Y008015D01*
X022077Y008134D02*
X020688Y008134D01*
X020502Y008252D02*
X021958Y008252D01*
X021840Y008371D02*
X020179Y008371D01*
X020283Y006119D02*
X032738Y006119D01*
X032471Y006238D02*
X029968Y006238D01*
X030086Y006356D02*
X032305Y006356D01*
X032186Y006475D02*
X030205Y006475D01*
X030210Y006593D02*
X032099Y006593D01*
X032031Y006712D02*
X030210Y006712D01*
X030210Y006830D02*
X031977Y006830D01*
X031945Y006949D02*
X030123Y006949D01*
X029496Y007067D02*
X028925Y007067D01*
X029043Y006949D02*
X029378Y006949D01*
X029290Y006830D02*
X029130Y006830D01*
X029130Y006712D02*
X029290Y006712D01*
X029290Y006593D02*
X029130Y006593D01*
X029125Y006475D02*
X029296Y006475D01*
X029415Y006356D02*
X029006Y006356D01*
X028888Y006238D02*
X029533Y006238D01*
X028928Y007423D02*
X028413Y007423D01*
X028531Y007541D02*
X028810Y007541D01*
X028750Y007660D02*
X028590Y007660D01*
X028590Y007778D02*
X028750Y007778D01*
X028750Y007897D02*
X028590Y007897D01*
X028557Y008015D02*
X028784Y008015D01*
X028903Y008134D02*
X028438Y008134D01*
X026743Y008134D02*
X026278Y008134D01*
X026397Y008015D02*
X026624Y008015D01*
X026590Y007897D02*
X026430Y007897D01*
M02*
