G75*
%MOIN*%
%OFA0B0*%
%FSLAX24Y24*%
%IPPOS*%
%LPD*%
%AMOC8*
5,1,8,0,0,1.08239X$1,22.5*
%
%ADD10C,0.0000*%
D10*
X006333Y003038D02*
X006333Y024034D01*
X006333Y024038D02*
X038233Y024038D01*
X038203Y024034D02*
X038203Y003038D01*
X006333Y003038D01*
X019175Y007293D02*
X019177Y007343D01*
X019183Y007393D01*
X019193Y007443D01*
X019206Y007491D01*
X019223Y007539D01*
X019244Y007585D01*
X019268Y007629D01*
X019296Y007671D01*
X019327Y007711D01*
X019361Y007748D01*
X019398Y007783D01*
X019437Y007814D01*
X019478Y007843D01*
X019522Y007868D01*
X019568Y007890D01*
X019615Y007908D01*
X019663Y007922D01*
X019712Y007933D01*
X019762Y007940D01*
X019812Y007943D01*
X019863Y007942D01*
X019913Y007937D01*
X019963Y007928D01*
X020011Y007916D01*
X020059Y007899D01*
X020105Y007879D01*
X020150Y007856D01*
X020193Y007829D01*
X020233Y007799D01*
X020271Y007766D01*
X020306Y007730D01*
X020339Y007691D01*
X020368Y007650D01*
X020394Y007607D01*
X020417Y007562D01*
X020436Y007515D01*
X020451Y007467D01*
X020463Y007418D01*
X020471Y007368D01*
X020475Y007318D01*
X020475Y007268D01*
X020471Y007218D01*
X020463Y007168D01*
X020451Y007119D01*
X020436Y007071D01*
X020417Y007024D01*
X020394Y006979D01*
X020368Y006936D01*
X020339Y006895D01*
X020306Y006856D01*
X020271Y006820D01*
X020233Y006787D01*
X020193Y006757D01*
X020150Y006730D01*
X020105Y006707D01*
X020059Y006687D01*
X020011Y006670D01*
X019963Y006658D01*
X019913Y006649D01*
X019863Y006644D01*
X019812Y006643D01*
X019762Y006646D01*
X019712Y006653D01*
X019663Y006664D01*
X019615Y006678D01*
X019568Y006696D01*
X019522Y006718D01*
X019478Y006743D01*
X019437Y006772D01*
X019398Y006803D01*
X019361Y006838D01*
X019327Y006875D01*
X019296Y006915D01*
X019268Y006957D01*
X019244Y007001D01*
X019223Y007047D01*
X019206Y007095D01*
X019193Y007143D01*
X019183Y007193D01*
X019177Y007243D01*
X019175Y007293D01*
X032295Y007293D02*
X032297Y007343D01*
X032303Y007393D01*
X032313Y007443D01*
X032326Y007491D01*
X032343Y007539D01*
X032364Y007585D01*
X032388Y007629D01*
X032416Y007671D01*
X032447Y007711D01*
X032481Y007748D01*
X032518Y007783D01*
X032557Y007814D01*
X032598Y007843D01*
X032642Y007868D01*
X032688Y007890D01*
X032735Y007908D01*
X032783Y007922D01*
X032832Y007933D01*
X032882Y007940D01*
X032932Y007943D01*
X032983Y007942D01*
X033033Y007937D01*
X033083Y007928D01*
X033131Y007916D01*
X033179Y007899D01*
X033225Y007879D01*
X033270Y007856D01*
X033313Y007829D01*
X033353Y007799D01*
X033391Y007766D01*
X033426Y007730D01*
X033459Y007691D01*
X033488Y007650D01*
X033514Y007607D01*
X033537Y007562D01*
X033556Y007515D01*
X033571Y007467D01*
X033583Y007418D01*
X033591Y007368D01*
X033595Y007318D01*
X033595Y007268D01*
X033591Y007218D01*
X033583Y007168D01*
X033571Y007119D01*
X033556Y007071D01*
X033537Y007024D01*
X033514Y006979D01*
X033488Y006936D01*
X033459Y006895D01*
X033426Y006856D01*
X033391Y006820D01*
X033353Y006787D01*
X033313Y006757D01*
X033270Y006730D01*
X033225Y006707D01*
X033179Y006687D01*
X033131Y006670D01*
X033083Y006658D01*
X033033Y006649D01*
X032983Y006644D01*
X032932Y006643D01*
X032882Y006646D01*
X032832Y006653D01*
X032783Y006664D01*
X032735Y006678D01*
X032688Y006696D01*
X032642Y006718D01*
X032598Y006743D01*
X032557Y006772D01*
X032518Y006803D01*
X032481Y006838D01*
X032447Y006875D01*
X032416Y006915D01*
X032388Y006957D01*
X032364Y007001D01*
X032343Y007047D01*
X032326Y007095D01*
X032313Y007143D01*
X032303Y007193D01*
X032297Y007243D01*
X032295Y007293D01*
X035377Y004054D02*
X035379Y004104D01*
X035385Y004154D01*
X035395Y004203D01*
X035409Y004251D01*
X035426Y004298D01*
X035447Y004343D01*
X035472Y004387D01*
X035500Y004428D01*
X035532Y004467D01*
X035566Y004504D01*
X035603Y004538D01*
X035643Y004568D01*
X035685Y004595D01*
X035729Y004619D01*
X035775Y004640D01*
X035822Y004656D01*
X035870Y004669D01*
X035920Y004678D01*
X035969Y004683D01*
X036020Y004684D01*
X036070Y004681D01*
X036119Y004674D01*
X036168Y004663D01*
X036216Y004648D01*
X036262Y004630D01*
X036307Y004608D01*
X036350Y004582D01*
X036391Y004553D01*
X036430Y004521D01*
X036466Y004486D01*
X036498Y004448D01*
X036528Y004408D01*
X036555Y004365D01*
X036578Y004321D01*
X036597Y004275D01*
X036613Y004227D01*
X036625Y004178D01*
X036633Y004129D01*
X036637Y004079D01*
X036637Y004029D01*
X036633Y003979D01*
X036625Y003930D01*
X036613Y003881D01*
X036597Y003833D01*
X036578Y003787D01*
X036555Y003743D01*
X036528Y003700D01*
X036498Y003660D01*
X036466Y003622D01*
X036430Y003587D01*
X036391Y003555D01*
X036350Y003526D01*
X036307Y003500D01*
X036262Y003478D01*
X036216Y003460D01*
X036168Y003445D01*
X036119Y003434D01*
X036070Y003427D01*
X036020Y003424D01*
X035969Y003425D01*
X035920Y003430D01*
X035870Y003439D01*
X035822Y003452D01*
X035775Y003468D01*
X035729Y003489D01*
X035685Y003513D01*
X035643Y003540D01*
X035603Y003570D01*
X035566Y003604D01*
X035532Y003641D01*
X035500Y003680D01*
X035472Y003721D01*
X035447Y003765D01*
X035426Y003810D01*
X035409Y003857D01*
X035395Y003905D01*
X035385Y003954D01*
X035379Y004004D01*
X035377Y004054D01*
X009755Y019896D02*
X009755Y020762D01*
X009558Y020959D02*
X009532Y020957D01*
X009507Y020952D01*
X009483Y020944D01*
X009460Y020933D01*
X009438Y020918D01*
X009419Y020901D01*
X009402Y020882D01*
X009387Y020861D01*
X009376Y020837D01*
X009368Y020813D01*
X009363Y020788D01*
X009361Y020762D01*
X009361Y019896D01*
X009363Y019870D01*
X009368Y019845D01*
X009376Y019821D01*
X009387Y019798D01*
X009402Y019776D01*
X009419Y019757D01*
X009438Y019740D01*
X009460Y019725D01*
X009483Y019714D01*
X009507Y019706D01*
X009532Y019701D01*
X009558Y019699D01*
X009584Y019701D01*
X009609Y019706D01*
X009633Y019714D01*
X009657Y019725D01*
X009678Y019740D01*
X009697Y019757D01*
X009714Y019776D01*
X009729Y019798D01*
X009740Y019821D01*
X009748Y019845D01*
X009753Y019870D01*
X009755Y019896D01*
X009755Y020762D02*
X009753Y020788D01*
X009748Y020813D01*
X009740Y020837D01*
X009729Y020861D01*
X009714Y020882D01*
X009697Y020901D01*
X009678Y020918D01*
X009657Y020933D01*
X009633Y020944D01*
X009609Y020952D01*
X009584Y020957D01*
X009558Y020959D01*
X007275Y020762D02*
X007275Y019896D01*
X007078Y019699D02*
X007052Y019701D01*
X007027Y019706D01*
X007003Y019714D01*
X006980Y019725D01*
X006958Y019740D01*
X006939Y019757D01*
X006922Y019776D01*
X006907Y019798D01*
X006896Y019821D01*
X006888Y019845D01*
X006883Y019870D01*
X006881Y019896D01*
X006881Y020762D01*
X006883Y020788D01*
X006888Y020813D01*
X006896Y020837D01*
X006907Y020861D01*
X006922Y020882D01*
X006939Y020901D01*
X006958Y020918D01*
X006980Y020933D01*
X007003Y020944D01*
X007027Y020952D01*
X007052Y020957D01*
X007078Y020959D01*
X007104Y020957D01*
X007129Y020952D01*
X007153Y020944D01*
X007177Y020933D01*
X007198Y020918D01*
X007217Y020901D01*
X007234Y020882D01*
X007249Y020861D01*
X007260Y020837D01*
X007268Y020813D01*
X007273Y020788D01*
X007275Y020762D01*
X007275Y019896D02*
X007273Y019870D01*
X007268Y019845D01*
X007260Y019821D01*
X007249Y019798D01*
X007234Y019776D01*
X007217Y019757D01*
X007198Y019740D01*
X007177Y019725D01*
X007153Y019714D01*
X007129Y019706D01*
X007104Y019701D01*
X007078Y019699D01*
X007944Y018557D02*
X008810Y018557D01*
X008836Y018555D01*
X008861Y018550D01*
X008885Y018542D01*
X008909Y018531D01*
X008930Y018516D01*
X008949Y018499D01*
X008966Y018480D01*
X008981Y018459D01*
X008992Y018435D01*
X009000Y018411D01*
X009005Y018386D01*
X009007Y018360D01*
X009005Y018334D01*
X009000Y018309D01*
X008992Y018285D01*
X008981Y018262D01*
X008966Y018240D01*
X008949Y018221D01*
X008930Y018204D01*
X008909Y018189D01*
X008885Y018178D01*
X008861Y018170D01*
X008836Y018165D01*
X008810Y018163D01*
X008810Y018164D02*
X007944Y018164D01*
X007747Y018360D02*
X007749Y018386D01*
X007754Y018411D01*
X007762Y018435D01*
X007773Y018459D01*
X007788Y018480D01*
X007805Y018499D01*
X007824Y018516D01*
X007846Y018531D01*
X007869Y018542D01*
X007893Y018550D01*
X007918Y018555D01*
X007944Y018557D01*
X007747Y018360D02*
X007749Y018334D01*
X007754Y018309D01*
X007762Y018285D01*
X007773Y018262D01*
X007788Y018240D01*
X007805Y018221D01*
X007824Y018204D01*
X007846Y018189D01*
X007869Y018178D01*
X007893Y018170D01*
X007918Y018165D01*
X007944Y018163D01*
X032877Y023054D02*
X032879Y023104D01*
X032885Y023154D01*
X032895Y023203D01*
X032909Y023251D01*
X032926Y023298D01*
X032947Y023343D01*
X032972Y023387D01*
X033000Y023428D01*
X033032Y023467D01*
X033066Y023504D01*
X033103Y023538D01*
X033143Y023568D01*
X033185Y023595D01*
X033229Y023619D01*
X033275Y023640D01*
X033322Y023656D01*
X033370Y023669D01*
X033420Y023678D01*
X033469Y023683D01*
X033520Y023684D01*
X033570Y023681D01*
X033619Y023674D01*
X033668Y023663D01*
X033716Y023648D01*
X033762Y023630D01*
X033807Y023608D01*
X033850Y023582D01*
X033891Y023553D01*
X033930Y023521D01*
X033966Y023486D01*
X033998Y023448D01*
X034028Y023408D01*
X034055Y023365D01*
X034078Y023321D01*
X034097Y023275D01*
X034113Y023227D01*
X034125Y023178D01*
X034133Y023129D01*
X034137Y023079D01*
X034137Y023029D01*
X034133Y022979D01*
X034125Y022930D01*
X034113Y022881D01*
X034097Y022833D01*
X034078Y022787D01*
X034055Y022743D01*
X034028Y022700D01*
X033998Y022660D01*
X033966Y022622D01*
X033930Y022587D01*
X033891Y022555D01*
X033850Y022526D01*
X033807Y022500D01*
X033762Y022478D01*
X033716Y022460D01*
X033668Y022445D01*
X033619Y022434D01*
X033570Y022427D01*
X033520Y022424D01*
X033469Y022425D01*
X033420Y022430D01*
X033370Y022439D01*
X033322Y022452D01*
X033275Y022468D01*
X033229Y022489D01*
X033185Y022513D01*
X033143Y022540D01*
X033103Y022570D01*
X033066Y022604D01*
X033032Y022641D01*
X033000Y022680D01*
X032972Y022721D01*
X032947Y022765D01*
X032926Y022810D01*
X032909Y022857D01*
X032895Y022905D01*
X032885Y022954D01*
X032879Y023004D01*
X032877Y023054D01*
M02*
