%
M48
M72
T01C0.0197
T02C0.0236
T03C0.0276
T04C0.0315
T05C0.0320
T06C0.0354
T07C0.0394
T08C0.0400
T09C0.1260
%
T01
X17849Y12428
X15152Y18767
T02
X15625Y17074
X16510Y17074
X17751Y15873
X23951Y14180
X23774Y13137
X25664Y12153
X26471Y16523
T03
X20211Y15056
X20211Y14328
X20211Y13580
T04
X26873Y13097
X27873Y13097
X27873Y14097
X26873Y14097
X26873Y15097
X27873Y15097
T05
X30182Y15954
X30182Y16954
X30182Y17954
X30182Y18954
X33182Y18954
X33182Y17954
X33182Y16954
X33182Y15954
X33246Y14185
X33246Y13185
X33246Y12185
X33246Y11185
X30246Y11185
X30246Y12185
X30246Y13185
X30246Y14185
T06
X27755Y17074
X24755Y17074
X23306Y17074
X21491Y15582
X20306Y17074
X13440Y18822
X13440Y21822
X21491Y12582
T07
X8377Y18360
X9558Y20329
X7078Y20329
T08
X10897Y19948
X10897Y20948
X11273Y23097
X12273Y23097
X13273Y23097
X14273Y23097
X15273Y23097
X16273Y23097
X17273Y23097
X18273Y23097
X19873Y23097
X20873Y23097
X21873Y23097
X22873Y23097
X23873Y23097
X24873Y23097
X25873Y23097
X26873Y23097
X28873Y23097
X29873Y23097
X30873Y23097
X31873Y23097
X32873Y23097
X33873Y23097
X34873Y23097
X35873Y23097
X38873Y23097
X39873Y23097
X39873Y22097
X38873Y22097
X38873Y21097
X39873Y21097
X39873Y20097
X38873Y20097
X38873Y19097
X39873Y19097
X39873Y18097
X38873Y18097
X38873Y17097
X39873Y17097
X39873Y16097
X38873Y16097
X38873Y15097
X39873Y15097
X39873Y14097
X38873Y14097
X38873Y13097
X39873Y13097
X39873Y12097
X38873Y12097
X38873Y11097
X39873Y11097
X39873Y10097
X38873Y10097
X38873Y9097
X39873Y9097
X39873Y8097
X38873Y8097
X38873Y7097
X39873Y7097
X39873Y6097
X38873Y6097
X37873Y4097
X36873Y4097
X35873Y4097
X34873Y4097
X33873Y4097
X32873Y4097
X31873Y4097
X30873Y4097
X28873Y4097
X27873Y4097
X26873Y4097
X25873Y4097
X24873Y4097
X23873Y4097
X22873Y4097
X21873Y4097
X19873Y4097
X18873Y4097
X17873Y4097
X16873Y4097
X15873Y4097
X14873Y4097
X16897Y5948
X16897Y6948
X20192Y7385
X20192Y8385
X23223Y8404
X23223Y7404
X23223Y6404
X26235Y6404
X26235Y7404
X26235Y8404
X29306Y8404
X29306Y7404
X29306Y6404
X32342Y6412
X32342Y7412
X32342Y8412
X35408Y8424
X35408Y7424
X35408Y6424
X35408Y9424
X20192Y6385
X16897Y9948
X16897Y10948
X18814Y12587
X18814Y13687
X18794Y14910
X18794Y16010
X16897Y15948
X16897Y14948
X16897Y17948
X16897Y18948
X16897Y19948
X16897Y20948
X20546Y20672
X21546Y20672
X22546Y20672
X23546Y20672
X24546Y20672
X25546Y20672
X26546Y20672
X27546Y20672
X27546Y19672
X26546Y19672
X25546Y19672
X24546Y19672
X23546Y19672
X22546Y19672
X21546Y19672
X20546Y19672
X10897Y15948
X10897Y14948
X10897Y7948
X10897Y6948
X10897Y5948
X8975Y5341
X7195Y5341
X7195Y7901
X8975Y7901
X36014Y18582
X36014Y19582
X36014Y20582
T09
X7373Y4097
X39873Y4097
X37373Y23097
X7873Y23097
M30
