G75*
%MOIN*%
%OFA0B0*%
%FSLAX24Y24*%
%IPPOS*%
%LPD*%
%AMOC8*
5,1,8,0,0,1.08239X$1,22.5*
%
%ADD10C,0.0800*%
%ADD11C,0.0847*%
%ADD12R,0.0800X0.0800*%
%ADD13C,0.0050*%
%ADD14OC8,0.0800*%
%ADD15C,0.1320*%
%ADD16C,0.0540*%
%ADD17OC8,0.0660*%
%ADD18C,0.2060*%
D10*
X011007Y004054D03*
X012007Y004054D03*
X013007Y004054D03*
X014007Y004054D03*
X015007Y004054D03*
X016007Y004054D03*
X018007Y004054D03*
X019007Y004054D03*
X020007Y004054D03*
X021007Y004054D03*
X022007Y004054D03*
X023007Y004054D03*
X024007Y004054D03*
X025007Y004054D03*
X027007Y004054D03*
X028007Y004054D03*
X029007Y004054D03*
X030007Y004054D03*
X031007Y004054D03*
X032007Y004054D03*
X033007Y004054D03*
X034007Y004054D03*
X035007Y006054D03*
X036007Y006054D03*
X029448Y010893D03*
X026448Y010893D03*
X025136Y010912D03*
X022136Y010912D03*
X017173Y011373D03*
X017173Y012373D03*
X011173Y012373D03*
X011173Y011373D03*
X011173Y009373D03*
X011173Y008373D03*
X011173Y007373D03*
X011173Y006373D03*
X017173Y006373D03*
X017173Y007373D03*
X029699Y014038D03*
X031904Y015397D03*
X031904Y016397D03*
X029699Y017038D03*
X028878Y020365D03*
X028878Y021365D03*
X029007Y023054D03*
X030007Y023054D03*
X031007Y023054D03*
X032007Y023054D03*
X031924Y021377D03*
X031924Y020377D03*
X035007Y023054D03*
X036007Y023054D03*
X028007Y023054D03*
X027007Y023054D03*
X026007Y023054D03*
X025007Y023054D03*
X023007Y023054D03*
X022007Y023054D03*
X021007Y023054D03*
X020007Y023054D03*
X019007Y023054D03*
X018007Y023054D03*
X017007Y023054D03*
X016007Y023054D03*
X014407Y023054D03*
X013407Y023054D03*
X012407Y023054D03*
X011407Y023054D03*
X010407Y023054D03*
X009407Y023054D03*
X008407Y023054D03*
X007407Y023054D03*
X011173Y021373D03*
X011173Y020373D03*
X013440Y021822D03*
X017173Y021373D03*
X017173Y020373D03*
X017173Y019373D03*
X019877Y020318D03*
X019877Y021318D03*
X022888Y021318D03*
X022888Y020318D03*
X025837Y020310D03*
X025837Y021310D03*
X013440Y018822D03*
X011173Y017373D03*
X011173Y016373D03*
D11*
X008771Y018360D02*
X007983Y018360D01*
X007078Y019935D02*
X007078Y020723D01*
X009558Y020723D02*
X009558Y019935D01*
D12*
X019877Y019318D03*
X022888Y019318D03*
X025837Y019310D03*
X028878Y019365D03*
X031924Y019377D03*
X031904Y014397D03*
D13*
X007162Y003698D02*
X007120Y003750D01*
X007089Y003810D01*
X007070Y003874D01*
X007064Y003940D01*
X007065Y003937D01*
X007071Y004005D01*
X007090Y004070D01*
X007122Y004131D01*
X007164Y004184D01*
X007217Y004227D01*
X007276Y004260D01*
X007341Y004280D01*
X007409Y004287D01*
X007420Y004285D01*
X007486Y004278D01*
X007549Y004259D01*
X007607Y004227D01*
X007658Y004184D01*
X007700Y004133D01*
X007731Y004074D01*
X007750Y004010D01*
X007756Y003944D01*
X007754Y003941D01*
X007747Y003874D01*
X007728Y003809D01*
X007696Y003750D01*
X007653Y003697D01*
X007601Y003654D01*
X007542Y003622D01*
X007477Y003602D01*
X007410Y003595D01*
X007402Y003596D01*
X007335Y003604D01*
X007272Y003623D01*
X007213Y003656D01*
X007162Y003698D01*
X007146Y003717D02*
X007670Y003717D01*
X007705Y003766D02*
X007112Y003766D01*
X007087Y003814D02*
X007729Y003814D01*
X007744Y003863D02*
X007073Y003863D01*
X007066Y003911D02*
X007751Y003911D01*
X007754Y003960D02*
X007067Y003960D01*
X007072Y004008D02*
X007750Y004008D01*
X007736Y004057D02*
X007086Y004057D01*
X007108Y004105D02*
X007715Y004105D01*
X007683Y004154D02*
X007140Y004154D01*
X007187Y004202D02*
X007637Y004202D01*
X007563Y004251D02*
X007260Y004251D01*
X007197Y003669D02*
X007619Y003669D01*
X007536Y003620D02*
X007282Y003620D01*
X008853Y003876D02*
X008872Y003812D01*
X008903Y003752D01*
X008945Y003700D01*
X008996Y003658D01*
X009055Y003625D01*
X009118Y003606D01*
X009185Y003598D01*
X009193Y003597D01*
X009260Y003604D01*
X009325Y003624D01*
X009384Y003656D01*
X009436Y003699D01*
X009479Y003752D01*
X009511Y003811D01*
X009530Y003876D01*
X009537Y003943D01*
X009539Y003946D01*
X009533Y004012D01*
X009514Y004076D01*
X009483Y004135D01*
X009441Y004186D01*
X009390Y004229D01*
X009332Y004261D01*
X009269Y004280D01*
X009203Y004287D01*
X009192Y004289D01*
X009124Y004282D01*
X009059Y004262D01*
X009000Y004229D01*
X008947Y004186D01*
X008905Y004133D01*
X008873Y004072D01*
X008854Y004007D01*
X008848Y003939D01*
X008847Y003942D01*
X008853Y003876D01*
X008857Y003863D02*
X009526Y003863D01*
X009534Y003911D02*
X008850Y003911D01*
X008850Y003960D02*
X009538Y003960D01*
X009533Y004008D02*
X008854Y004008D01*
X008869Y004057D02*
X009520Y004057D01*
X009499Y004105D02*
X008890Y004105D01*
X008922Y004154D02*
X009468Y004154D01*
X009422Y004202D02*
X008967Y004202D01*
X009039Y004251D02*
X009350Y004251D01*
X009512Y003814D02*
X008871Y003814D01*
X008896Y003766D02*
X009487Y003766D01*
X009451Y003717D02*
X008931Y003717D01*
X008982Y003669D02*
X009400Y003669D01*
X009313Y003620D02*
X009071Y003620D01*
X009192Y006157D02*
X009259Y006164D01*
X009324Y006184D01*
X009383Y006216D01*
X009435Y006259D01*
X009478Y006312D01*
X009510Y006371D01*
X009529Y006436D01*
X009536Y006503D01*
X009538Y006506D01*
X009532Y006572D01*
X009513Y006636D01*
X009482Y006695D01*
X009440Y006746D01*
X009389Y006789D01*
X009331Y006821D01*
X009268Y006840D01*
X009202Y006847D01*
X009191Y006849D01*
X009123Y006842D01*
X009058Y006822D01*
X008999Y006789D01*
X008946Y006746D01*
X008904Y006693D01*
X008872Y006632D01*
X008853Y006567D01*
X008847Y006499D01*
X008846Y006502D01*
X008852Y006436D01*
X008871Y006372D01*
X008902Y006312D01*
X008944Y006260D01*
X008995Y006218D01*
X009054Y006185D01*
X009117Y006166D01*
X009184Y006158D01*
X009192Y006157D01*
X009336Y006191D02*
X009044Y006191D01*
X008969Y006239D02*
X009412Y006239D01*
X009459Y006288D02*
X008921Y006288D01*
X008889Y006336D02*
X009491Y006336D01*
X009514Y006385D02*
X008867Y006385D01*
X008853Y006433D02*
X009529Y006433D01*
X009534Y006482D02*
X008848Y006482D01*
X008850Y006530D02*
X009536Y006530D01*
X009530Y006579D02*
X008856Y006579D01*
X008871Y006627D02*
X009516Y006627D01*
X009492Y006676D02*
X008895Y006676D01*
X008929Y006724D02*
X009458Y006724D01*
X009409Y006773D02*
X008979Y006773D01*
X009057Y006821D02*
X009329Y006821D01*
X007751Y006572D02*
X007757Y006506D01*
X007755Y006503D01*
X007748Y006436D01*
X007729Y006371D01*
X007697Y006312D01*
X007654Y006259D01*
X007602Y006216D01*
X007543Y006184D01*
X007478Y006164D01*
X007411Y006157D01*
X007403Y006158D01*
X007336Y006166D01*
X007273Y006185D01*
X007214Y006218D01*
X007163Y006260D01*
X007121Y006312D01*
X007090Y006372D01*
X007071Y006436D01*
X007065Y006502D01*
X007066Y006499D01*
X007072Y006567D01*
X007091Y006632D01*
X007123Y006693D01*
X007165Y006746D01*
X007218Y006789D01*
X007277Y006822D01*
X007342Y006842D01*
X007410Y006849D01*
X007421Y006847D01*
X007487Y006840D01*
X007550Y006821D01*
X007608Y006789D01*
X007659Y006746D01*
X007701Y006695D01*
X007732Y006636D01*
X007751Y006572D01*
X007749Y006579D02*
X007075Y006579D01*
X007069Y006530D02*
X007755Y006530D01*
X007753Y006482D02*
X007067Y006482D01*
X007072Y006433D02*
X007748Y006433D01*
X007733Y006385D02*
X007086Y006385D01*
X007108Y006336D02*
X007710Y006336D01*
X007678Y006288D02*
X007140Y006288D01*
X007188Y006239D02*
X007630Y006239D01*
X007555Y006191D02*
X007263Y006191D01*
X007090Y006627D02*
X007735Y006627D01*
X007711Y006676D02*
X007114Y006676D01*
X007148Y006724D02*
X007677Y006724D01*
X007628Y006773D02*
X007198Y006773D01*
X007276Y006821D02*
X007548Y006821D01*
D14*
X035007Y007054D03*
X036007Y007054D03*
X036007Y008054D03*
X035007Y008054D03*
X035007Y009054D03*
X036007Y009054D03*
X036007Y010054D03*
X035007Y010054D03*
X035007Y011054D03*
X036007Y011054D03*
X036007Y012054D03*
X035007Y012054D03*
X035007Y013054D03*
X036007Y013054D03*
X036007Y014054D03*
X035007Y014054D03*
X035007Y015054D03*
X036007Y015054D03*
X036007Y016054D03*
X035007Y016054D03*
X035007Y017054D03*
X036007Y017054D03*
X036007Y018054D03*
X035007Y018054D03*
X035007Y019054D03*
X036007Y019054D03*
X036007Y020054D03*
X035007Y020054D03*
X035007Y021054D03*
X036007Y021054D03*
X036007Y022054D03*
X035007Y022054D03*
D15*
X033507Y023054D03*
X036007Y004054D03*
D16*
X028025Y013776D02*
X028025Y014256D01*
X027025Y014256D02*
X027025Y013776D01*
X026025Y013776D02*
X026025Y014256D01*
X025025Y014256D02*
X025025Y013776D01*
X023083Y013981D02*
X023083Y014461D01*
X022083Y014461D02*
X022083Y013981D01*
X021083Y013981D02*
X021083Y014461D01*
X020083Y014461D02*
X020083Y013981D01*
X020083Y016981D02*
X020083Y017461D01*
X021083Y017461D02*
X021083Y016981D01*
X022083Y016981D02*
X022083Y017461D01*
X023083Y017461D02*
X023083Y016981D01*
X025025Y016776D02*
X025025Y017256D01*
X026025Y017256D02*
X026025Y016776D01*
X027025Y016776D02*
X027025Y017256D01*
X028025Y017256D02*
X028025Y016776D01*
D17*
X028130Y007791D03*
X027050Y007791D03*
X025970Y007791D03*
X024890Y007791D03*
X023810Y007791D03*
X022730Y007791D03*
X023270Y006671D03*
X024350Y006671D03*
X025430Y006671D03*
X026510Y006671D03*
X027590Y006671D03*
X028670Y006671D03*
X029750Y006671D03*
X029210Y007791D03*
X030290Y007791D03*
D18*
X033070Y007231D03*
X019950Y007231D03*
M02*
