%
M48
M72
T01C0.0315
T02C0.0320
T03C0.0354
T04C0.0394
T05C0.0400
T06C0.0510
%
T01
X13200Y2680
X13200Y3680
X17200Y3580
X17200Y2580
X17200Y21780
X17200Y22780
X13300Y22680
X13300Y21680
T02
X13600Y14280
X14600Y14280
X15600Y14280
X16600Y14280
X17600Y14280
X18600Y14280
X19600Y14280
X19600Y11280
X18600Y11280
X17600Y11280
X16600Y11280
X15600Y11280
X14600Y11280
X13600Y11280
X11200Y11280
X10200Y11280
X9200Y11280
X8200Y11280
X7200Y11280
X6200Y11280
X5200Y11280
X5200Y14280
X6200Y14280
X7200Y14280
X8200Y14280
X9200Y14280
X10200Y14280
X11200Y14280
T03
X11200Y15780
X10100Y15780
X10100Y18780
X11200Y18780
X14600Y20680
X15800Y20680
X15800Y23680
X14600Y23680
X11300Y9580
X10300Y9580
X10300Y6580
X11300Y6580
X14500Y4580
X15800Y4580
X15800Y1580
X14500Y1580
T04
X3453Y2964
X4752Y996
X5933Y2964
T05
X6800Y6930
X6800Y8030
X6800Y17330
X6800Y18430
T06
X5300Y19980
X3300Y17980
X1300Y15980
X1300Y19980
X5300Y15980
X8000Y20180
X10000Y22180
X8000Y24180
X12000Y24180
X12000Y20180
X18700Y20180
X20700Y22180
X18700Y24180
X22700Y24180
X22700Y20180
X22700Y5180
X20700Y3180
X18700Y1180
X22700Y1180
X18700Y5180
X11800Y5180
X9800Y3180
X7800Y1180
X7800Y5180
X5300Y5480
X3300Y7480
X1300Y5480
X1300Y9480
X5300Y9480
X11800Y1180
M30
