G75*
%MOIN*%
%OFA0B0*%
%FSLAX24Y24*%
%IPPOS*%
%LPD*%
%AMOC8*
5,1,8,0,0,1.08239X$1,22.5*
%
%ADD10C,0.0800*%
%ADD11C,0.0532*%
%ADD12C,0.0847*%
%ADD13C,0.0540*%
%ADD14C,0.0050*%
%ADD15C,0.0825*%
D10*
X010300Y006580D03*
X011300Y006580D03*
X011300Y009580D03*
X010300Y009580D03*
X014500Y004580D03*
X015800Y004580D03*
X015800Y001580D03*
X014500Y001580D03*
X011200Y015780D03*
X010100Y015780D03*
X010100Y018780D03*
X011200Y018780D03*
X014600Y020680D03*
X015800Y020680D03*
X015800Y023680D03*
X014600Y023680D03*
D11*
X013300Y022680D03*
X013300Y021680D03*
X017200Y021780D03*
X017200Y022780D03*
X017200Y003580D03*
X017200Y002580D03*
X013200Y002680D03*
X013200Y003680D03*
D12*
X003453Y003358D02*
X003453Y002571D01*
X004358Y000996D02*
X005146Y000996D01*
X005933Y002571D02*
X005933Y003358D01*
D13*
X006200Y011040D02*
X006200Y011520D01*
X005200Y011520D02*
X005200Y011040D01*
X007200Y011040D02*
X007200Y011520D01*
X008200Y011520D02*
X008200Y011040D01*
X009200Y011040D02*
X009200Y011520D01*
X010200Y011520D02*
X010200Y011040D01*
X011200Y011040D02*
X011200Y011520D01*
X013600Y011520D02*
X013600Y011040D01*
X014600Y011040D02*
X014600Y011520D01*
X015600Y011520D02*
X015600Y011040D01*
X016600Y011040D02*
X016600Y011520D01*
X017600Y011520D02*
X017600Y011040D01*
X018600Y011040D02*
X018600Y011520D01*
X019600Y011520D02*
X019600Y011040D01*
X019600Y014040D02*
X019600Y014520D01*
X018600Y014520D02*
X018600Y014040D01*
X017600Y014040D02*
X017600Y014520D01*
X016600Y014520D02*
X016600Y014040D01*
X015600Y014040D02*
X015600Y014520D01*
X014600Y014520D02*
X014600Y014040D01*
X013600Y014040D02*
X013600Y014520D01*
X011200Y014520D02*
X011200Y014040D01*
X010200Y014040D02*
X010200Y014520D01*
X009200Y014520D02*
X009200Y014040D01*
X008200Y014040D02*
X008200Y014520D01*
X007200Y014520D02*
X007200Y014040D01*
X006200Y014040D02*
X006200Y014520D01*
X005200Y014520D02*
X005200Y014040D01*
D14*
X006651Y016987D02*
X006588Y017021D01*
X006532Y017068D01*
X006487Y017124D01*
X006454Y017188D01*
X006433Y017258D01*
X006427Y017330D01*
X006433Y017402D01*
X006453Y017472D01*
X006487Y017537D01*
X006532Y017594D01*
X006588Y017641D01*
X006651Y017676D01*
X006721Y017698D01*
X006793Y017706D01*
X006859Y017701D01*
X006923Y017685D01*
X006983Y017657D01*
X007038Y017620D01*
X007085Y017574D01*
X007124Y017520D01*
X007153Y017461D01*
X007170Y017397D01*
X007177Y017331D01*
X007170Y017265D01*
X007152Y017202D01*
X007123Y017142D01*
X007085Y017088D01*
X007037Y017042D01*
X006982Y017005D01*
X006922Y016978D01*
X006858Y016962D01*
X006792Y016957D01*
X006720Y016965D01*
X006651Y016987D01*
X006609Y017010D02*
X006989Y017010D01*
X007054Y017058D02*
X006544Y017058D01*
X006501Y017107D02*
X007098Y017107D01*
X007130Y017155D02*
X006471Y017155D01*
X006449Y017204D02*
X007153Y017204D01*
X007167Y017252D02*
X006435Y017252D01*
X006430Y017301D02*
X007174Y017301D01*
X007175Y017349D02*
X006429Y017349D01*
X006433Y017398D02*
X007170Y017398D01*
X007157Y017446D02*
X006446Y017446D01*
X006465Y017495D02*
X007136Y017495D01*
X007107Y017543D02*
X006492Y017543D01*
X006530Y017592D02*
X007067Y017592D01*
X007009Y017640D02*
X006587Y017640D01*
X006692Y017689D02*
X006907Y017689D01*
X006858Y018064D02*
X006792Y018059D01*
X006720Y018067D01*
X006651Y018089D01*
X006588Y018123D01*
X006532Y018170D01*
X006487Y018226D01*
X006454Y018290D01*
X006433Y018360D01*
X006427Y018432D01*
X006433Y018504D01*
X006453Y018574D01*
X006487Y018639D01*
X006532Y018696D01*
X006588Y018743D01*
X006651Y018778D01*
X006721Y018800D01*
X006793Y018808D01*
X006859Y018803D01*
X006923Y018787D01*
X006983Y018759D01*
X007038Y018722D01*
X007085Y018676D01*
X007124Y018622D01*
X007153Y018563D01*
X007170Y018499D01*
X007177Y018433D01*
X007170Y018367D01*
X007152Y018304D01*
X007123Y018244D01*
X007085Y018190D01*
X007037Y018144D01*
X006982Y018107D01*
X006922Y018080D01*
X006858Y018064D01*
X006909Y018077D02*
X006689Y018077D01*
X006586Y018125D02*
X007009Y018125D01*
X007067Y018174D02*
X006529Y018174D01*
X006490Y018222D02*
X007108Y018222D01*
X007136Y018271D02*
X006464Y018271D01*
X006445Y018319D02*
X007157Y018319D01*
X007170Y018368D02*
X006433Y018368D01*
X006428Y018416D02*
X007175Y018416D01*
X007174Y018465D02*
X006430Y018465D01*
X006436Y018513D02*
X007166Y018513D01*
X007153Y018562D02*
X006450Y018562D01*
X006472Y018610D02*
X007130Y018610D01*
X007098Y018659D02*
X006502Y018659D01*
X006546Y018707D02*
X007053Y018707D01*
X006989Y018756D02*
X006611Y018756D01*
X006759Y018804D02*
X006844Y018804D01*
X006848Y016961D02*
X006754Y016961D01*
X006793Y008408D02*
X006859Y008403D01*
X006923Y008387D01*
X006983Y008359D01*
X007038Y008322D01*
X007085Y008276D01*
X007124Y008222D01*
X007153Y008163D01*
X007170Y008099D01*
X007177Y008033D01*
X007170Y007967D01*
X007152Y007904D01*
X007123Y007844D01*
X007085Y007790D01*
X007037Y007744D01*
X006982Y007707D01*
X006922Y007680D01*
X006858Y007664D01*
X006792Y007659D01*
X006720Y007667D01*
X006651Y007689D01*
X006588Y007723D01*
X006532Y007770D01*
X006487Y007826D01*
X006454Y007890D01*
X006433Y007960D01*
X006427Y008032D01*
X006433Y008104D01*
X006453Y008174D01*
X006487Y008239D01*
X006532Y008296D01*
X006588Y008343D01*
X006651Y008378D01*
X006721Y008400D01*
X006793Y008408D01*
X006649Y008377D02*
X006945Y008377D01*
X007029Y008328D02*
X006570Y008328D01*
X006519Y008280D02*
X007082Y008280D01*
X007118Y008231D02*
X006483Y008231D01*
X006458Y008183D02*
X007143Y008183D01*
X007161Y008134D02*
X006442Y008134D01*
X006432Y008086D02*
X007172Y008086D01*
X007177Y008037D02*
X006427Y008037D01*
X006431Y007989D02*
X007172Y007989D01*
X007163Y007940D02*
X006439Y007940D01*
X006453Y007892D02*
X007146Y007892D01*
X007123Y007843D02*
X006478Y007843D01*
X006512Y007795D02*
X007088Y007795D01*
X007039Y007746D02*
X006561Y007746D01*
X006635Y007698D02*
X006961Y007698D01*
X006859Y007301D02*
X006923Y007285D01*
X006983Y007257D01*
X007038Y007220D01*
X007085Y007174D01*
X007124Y007120D01*
X007153Y007061D01*
X007170Y006997D01*
X007177Y006931D01*
X007170Y006865D01*
X007152Y006802D01*
X007123Y006742D01*
X007085Y006688D01*
X007037Y006642D01*
X006982Y006605D01*
X006922Y006578D01*
X006858Y006562D01*
X006792Y006557D01*
X006720Y006565D01*
X006651Y006587D01*
X006588Y006621D01*
X006532Y006668D01*
X006487Y006724D01*
X006454Y006788D01*
X006433Y006858D01*
X006427Y006930D01*
X006433Y007002D01*
X006453Y007072D01*
X006487Y007137D01*
X006532Y007194D01*
X006588Y007241D01*
X006651Y007276D01*
X006721Y007298D01*
X006793Y007306D01*
X006859Y007301D01*
X006975Y007261D02*
X006625Y007261D01*
X006554Y007213D02*
X007046Y007213D01*
X007092Y007164D02*
X006508Y007164D01*
X006476Y007116D02*
X007126Y007116D01*
X007149Y007067D02*
X006452Y007067D01*
X006438Y007019D02*
X007164Y007019D01*
X007173Y006970D02*
X006430Y006970D01*
X006428Y006922D02*
X007176Y006922D01*
X007171Y006873D02*
X006432Y006873D01*
X006443Y006825D02*
X007159Y006825D01*
X007140Y006776D02*
X006460Y006776D01*
X006485Y006728D02*
X007113Y006728D01*
X007075Y006679D02*
X006523Y006679D01*
X006577Y006631D02*
X007020Y006631D01*
X006931Y006582D02*
X006665Y006582D01*
D15*
X007800Y005180D03*
X009800Y003180D03*
X007800Y001180D03*
X011800Y001180D03*
X011800Y005180D03*
X005300Y005480D03*
X003300Y007480D03*
X001300Y005480D03*
X001300Y009480D03*
X005300Y009480D03*
X005300Y015980D03*
X003300Y017980D03*
X001300Y015980D03*
X001300Y019980D03*
X005300Y019980D03*
X008000Y020180D03*
X010000Y022180D03*
X008000Y024180D03*
X012000Y024180D03*
X012000Y020180D03*
X018700Y020180D03*
X020700Y022180D03*
X018700Y024180D03*
X022700Y024180D03*
X022700Y020180D03*
X022700Y005180D03*
X020700Y003180D03*
X018700Y001180D03*
X022700Y001180D03*
X018700Y005180D03*
M02*
