G75*
%MOIN*%
%OFA0B0*%
%FSLAX24Y24*%
%IPPOS*%
%LPD*%
%AMOC8*
5,1,8,0,0,1.08239X$1,22.5*
%
%ADD10C,0.0020*%
%ADD11C,0.0080*%
%ADD12C,0.0010*%
%ADD13C,0.0060*%
%ADD14C,0.0050*%
%ADD15C,0.0100*%
%ADD16C,0.0120*%
%ADD17C,0.0040*%
D10*
X005110Y010290D02*
X005183Y010290D01*
X005147Y010290D02*
X005147Y010510D01*
X005183Y010510D02*
X005110Y010510D01*
X005257Y010510D02*
X005331Y010510D01*
X005294Y010510D02*
X005294Y010290D01*
X005257Y010290D02*
X005331Y010290D01*
X005405Y010327D02*
X005441Y010290D01*
X005515Y010290D01*
X005551Y010327D01*
X005551Y010363D01*
X005515Y010400D01*
X005478Y010400D01*
X005515Y010400D02*
X005551Y010437D01*
X005551Y010473D01*
X005515Y010510D01*
X005441Y010510D01*
X005405Y010473D01*
X006110Y010510D02*
X006110Y010290D01*
X006257Y010290D02*
X006110Y010510D01*
X006257Y010510D02*
X006257Y010290D01*
X006331Y010290D02*
X006404Y010290D01*
X006368Y010290D02*
X006368Y010510D01*
X006404Y010510D02*
X006331Y010510D01*
X006478Y010510D02*
X006552Y010510D01*
X006515Y010510D02*
X006515Y010290D01*
X006478Y010290D02*
X006552Y010290D01*
X006626Y010327D02*
X006662Y010290D01*
X006736Y010290D01*
X006772Y010327D01*
X006772Y010363D01*
X006736Y010400D01*
X006699Y010400D01*
X006736Y010400D02*
X006772Y010437D01*
X006772Y010473D01*
X006736Y010510D01*
X006662Y010510D01*
X006626Y010473D01*
X007210Y010460D02*
X007283Y010460D01*
X007247Y010460D02*
X007247Y010240D01*
X007283Y010240D02*
X007210Y010240D01*
X007357Y010240D02*
X007431Y010240D01*
X007394Y010240D02*
X007394Y010460D01*
X007357Y010460D02*
X007431Y010460D01*
X007505Y010350D02*
X007615Y010460D01*
X007615Y010240D01*
X007651Y010350D02*
X007505Y010350D01*
X008110Y010290D02*
X008110Y010510D01*
X008257Y010290D01*
X008257Y010510D01*
X008331Y010510D02*
X008404Y010510D01*
X008368Y010510D02*
X008368Y010290D01*
X008404Y010290D02*
X008331Y010290D01*
X008478Y010290D02*
X008552Y010290D01*
X008515Y010290D02*
X008515Y010510D01*
X008478Y010510D02*
X008552Y010510D01*
X008626Y010400D02*
X008772Y010400D01*
X008736Y010290D02*
X008736Y010510D01*
X008626Y010400D01*
X009010Y010327D02*
X009047Y010290D01*
X009120Y010290D01*
X009157Y010327D01*
X009157Y010400D01*
X009083Y010400D01*
X009010Y010473D02*
X009010Y010327D01*
X009010Y010473D02*
X009047Y010510D01*
X009120Y010510D01*
X009157Y010473D01*
X009231Y010510D02*
X009378Y010290D01*
X009378Y010510D01*
X009452Y010510D02*
X009562Y010510D01*
X009599Y010473D01*
X009599Y010327D01*
X009562Y010290D01*
X009452Y010290D01*
X009452Y010510D01*
X009231Y010510D02*
X009231Y010290D01*
X010210Y010327D02*
X010247Y010290D01*
X010320Y010290D01*
X010357Y010327D01*
X010357Y010473D01*
X010320Y010510D01*
X010247Y010510D01*
X010210Y010473D01*
X010210Y010327D01*
X010431Y010400D02*
X010578Y010400D01*
X010541Y010290D02*
X010541Y010510D01*
X010431Y010400D01*
X011110Y010327D02*
X011147Y010290D01*
X011220Y010290D01*
X011257Y010327D01*
X011257Y010473D01*
X011220Y010510D01*
X011147Y010510D01*
X011110Y010473D01*
X011110Y010327D01*
X011331Y010327D02*
X011368Y010290D01*
X011441Y010290D01*
X011478Y010327D01*
X011478Y010363D01*
X011441Y010400D01*
X011404Y010400D01*
X011441Y010400D02*
X011478Y010437D01*
X011478Y010473D01*
X011441Y010510D01*
X011368Y010510D01*
X011331Y010473D01*
X013660Y010487D02*
X013733Y010560D01*
X013733Y010340D01*
X013660Y010340D02*
X013807Y010340D01*
X013881Y010340D02*
X013881Y010487D01*
X013954Y010560D01*
X014028Y010487D01*
X014028Y010340D01*
X014028Y010450D02*
X013881Y010450D01*
X014660Y010390D02*
X014807Y010390D01*
X014733Y010390D02*
X014733Y010610D01*
X014660Y010537D01*
X014881Y010500D02*
X014991Y010500D01*
X015028Y010463D01*
X015028Y010427D01*
X014991Y010390D01*
X014881Y010390D01*
X014881Y010610D01*
X014991Y010610D01*
X015028Y010573D01*
X015028Y010537D01*
X014991Y010500D01*
X015610Y010537D02*
X015683Y010610D01*
X015683Y010390D01*
X015610Y010390D02*
X015757Y010390D01*
X015904Y010390D02*
X015904Y010500D01*
X015978Y010573D01*
X015978Y010610D01*
X015904Y010500D02*
X015831Y010573D01*
X015831Y010610D01*
X016610Y010573D02*
X016647Y010610D01*
X016720Y010610D01*
X016757Y010573D01*
X016757Y010537D01*
X016610Y010390D01*
X016757Y010390D01*
X016831Y010390D02*
X016831Y010537D01*
X016904Y010610D01*
X016978Y010537D01*
X016978Y010390D01*
X016978Y010500D02*
X016831Y010500D01*
X017610Y010573D02*
X017647Y010610D01*
X017720Y010610D01*
X017757Y010573D01*
X017757Y010537D01*
X017610Y010390D01*
X017757Y010390D01*
X017831Y010390D02*
X017941Y010390D01*
X017978Y010427D01*
X017978Y010463D01*
X017941Y010500D01*
X017831Y010500D01*
X017831Y010390D02*
X017831Y010610D01*
X017941Y010610D01*
X017978Y010573D01*
X017978Y010537D01*
X017941Y010500D01*
X018560Y010573D02*
X018597Y010610D01*
X018670Y010610D01*
X018707Y010573D01*
X018707Y010537D01*
X018560Y010390D01*
X018707Y010390D01*
X018854Y010390D02*
X018854Y010500D01*
X018928Y010573D01*
X018928Y010610D01*
X018854Y010500D02*
X018781Y010573D01*
X018781Y010610D01*
X019660Y010623D02*
X019660Y010477D01*
X019697Y010440D01*
X019770Y010440D01*
X019807Y010477D01*
X019807Y010550D01*
X019733Y010550D01*
X019660Y010623D02*
X019697Y010660D01*
X019770Y010660D01*
X019807Y010623D01*
X019881Y010660D02*
X019881Y010440D01*
X020028Y010440D02*
X019881Y010660D01*
X020028Y010660D02*
X020028Y010440D01*
X020102Y010440D02*
X020212Y010440D01*
X020249Y010477D01*
X020249Y010623D01*
X020212Y010660D01*
X020102Y010660D01*
X020102Y010440D01*
X019804Y015190D02*
X019804Y015300D01*
X019878Y015373D01*
X019878Y015410D01*
X019804Y015300D02*
X019731Y015373D01*
X019731Y015410D01*
X019620Y015410D02*
X019620Y015190D01*
X019657Y015300D02*
X019510Y015300D01*
X019620Y015410D01*
X018778Y015273D02*
X018778Y015237D01*
X018741Y015200D01*
X018631Y015200D01*
X018557Y015200D02*
X018410Y015200D01*
X018520Y015310D01*
X018520Y015090D01*
X018631Y015090D02*
X018741Y015090D01*
X018778Y015127D01*
X018778Y015163D01*
X018741Y015200D01*
X018778Y015273D02*
X018741Y015310D01*
X018631Y015310D01*
X018631Y015090D01*
X017778Y015140D02*
X017778Y015287D01*
X017704Y015360D01*
X017631Y015287D01*
X017631Y015140D01*
X017631Y015250D02*
X017778Y015250D01*
X017557Y015250D02*
X017410Y015250D01*
X017520Y015360D01*
X017520Y015140D01*
X016778Y015273D02*
X016704Y015200D01*
X016704Y015090D01*
X016704Y015200D02*
X016631Y015273D01*
X016631Y015310D01*
X016557Y015273D02*
X016557Y015237D01*
X016520Y015200D01*
X016557Y015163D01*
X016557Y015127D01*
X016520Y015090D01*
X016447Y015090D01*
X016410Y015127D01*
X016483Y015200D02*
X016520Y015200D01*
X016557Y015273D02*
X016520Y015310D01*
X016447Y015310D01*
X016410Y015273D01*
X016778Y015273D02*
X016778Y015310D01*
X015878Y015273D02*
X015878Y015237D01*
X015841Y015200D01*
X015731Y015200D01*
X015657Y015163D02*
X015657Y015127D01*
X015620Y015090D01*
X015547Y015090D01*
X015510Y015127D01*
X015583Y015200D02*
X015620Y015200D01*
X015657Y015163D01*
X015620Y015200D02*
X015657Y015237D01*
X015657Y015273D01*
X015620Y015310D01*
X015547Y015310D01*
X015510Y015273D01*
X015731Y015310D02*
X015731Y015090D01*
X015841Y015090D01*
X015878Y015127D01*
X015878Y015163D01*
X015841Y015200D01*
X015878Y015273D02*
X015841Y015310D01*
X015731Y015310D01*
X014878Y015237D02*
X014878Y015090D01*
X014878Y015200D02*
X014731Y015200D01*
X014731Y015237D02*
X014731Y015090D01*
X014657Y015127D02*
X014620Y015090D01*
X014547Y015090D01*
X014510Y015127D01*
X014583Y015200D02*
X014620Y015200D01*
X014657Y015163D01*
X014657Y015127D01*
X014620Y015200D02*
X014657Y015237D01*
X014657Y015273D01*
X014620Y015310D01*
X014547Y015310D01*
X014510Y015273D01*
X014731Y015237D02*
X014804Y015310D01*
X014878Y015237D01*
X013828Y015150D02*
X013681Y015150D01*
X013607Y015113D02*
X013607Y015260D01*
X013607Y015113D02*
X013533Y015040D01*
X013460Y015113D01*
X013460Y015260D01*
X013754Y015223D02*
X013754Y015077D01*
X011428Y015040D02*
X011281Y015040D01*
X011354Y015040D02*
X011354Y015260D01*
X011281Y015187D01*
X011207Y015223D02*
X011170Y015260D01*
X011097Y015260D01*
X011060Y015223D01*
X011060Y015077D01*
X011097Y015040D01*
X011170Y015040D01*
X011207Y015077D01*
X011207Y015223D01*
X010328Y015187D02*
X010328Y015223D01*
X010291Y015260D01*
X010218Y015260D01*
X010181Y015223D01*
X010107Y015223D02*
X010070Y015260D01*
X009997Y015260D01*
X009960Y015223D01*
X009960Y015077D01*
X009997Y015040D01*
X010070Y015040D01*
X010107Y015077D01*
X010107Y015223D01*
X010181Y015040D02*
X010328Y015187D01*
X010328Y015040D02*
X010181Y015040D01*
X009428Y015200D02*
X009281Y015200D01*
X009207Y015163D02*
X009207Y015310D01*
X009207Y015163D02*
X009133Y015090D01*
X009060Y015163D01*
X009060Y015310D01*
X009354Y015273D02*
X009354Y015127D01*
X008451Y015090D02*
X008305Y015090D01*
X008378Y015090D02*
X008378Y015310D01*
X008305Y015237D01*
X008231Y015310D02*
X008157Y015310D01*
X008194Y015310D02*
X008194Y015090D01*
X008157Y015090D02*
X008231Y015090D01*
X008083Y015090D02*
X008010Y015090D01*
X008047Y015090D02*
X008047Y015310D01*
X008083Y015310D02*
X008010Y015310D01*
X007672Y015090D02*
X007526Y015090D01*
X007599Y015090D02*
X007599Y015310D01*
X007526Y015237D01*
X007452Y015310D02*
X007378Y015310D01*
X007415Y015310D02*
X007415Y015090D01*
X007378Y015090D02*
X007452Y015090D01*
X007304Y015090D02*
X007231Y015090D01*
X007268Y015090D02*
X007268Y015310D01*
X007304Y015310D02*
X007231Y015310D01*
X007157Y015310D02*
X007157Y015090D01*
X007010Y015310D01*
X007010Y015090D01*
X006551Y015040D02*
X006405Y015040D01*
X006551Y015187D01*
X006551Y015223D01*
X006515Y015260D01*
X006441Y015260D01*
X006405Y015223D01*
X006331Y015260D02*
X006257Y015260D01*
X006294Y015260D02*
X006294Y015040D01*
X006257Y015040D02*
X006331Y015040D01*
X006183Y015040D02*
X006110Y015040D01*
X006147Y015040D02*
X006147Y015260D01*
X006183Y015260D02*
X006110Y015260D01*
X005622Y015223D02*
X005622Y015187D01*
X005476Y015040D01*
X005622Y015040D01*
X005622Y015223D02*
X005586Y015260D01*
X005512Y015260D01*
X005476Y015223D01*
X005402Y015260D02*
X005328Y015260D01*
X005365Y015260D02*
X005365Y015040D01*
X005328Y015040D02*
X005402Y015040D01*
X005254Y015040D02*
X005181Y015040D01*
X005218Y015040D02*
X005218Y015260D01*
X005254Y015260D02*
X005181Y015260D01*
X005107Y015260D02*
X005107Y015040D01*
X004960Y015260D01*
X004960Y015040D01*
D11*
X001720Y000326D02*
X001720Y000307D01*
X001720Y003653D01*
X003063Y003653D01*
X003807Y003653D02*
X005500Y003653D01*
X005894Y002078D02*
X005894Y000307D01*
X001720Y000307D01*
X007739Y006473D02*
X007893Y006320D01*
X008046Y006320D01*
X008200Y006473D01*
X008200Y006780D01*
X008353Y006934D01*
X008507Y006934D01*
X008660Y006780D01*
X008660Y006473D01*
X008507Y006320D01*
X007739Y006473D02*
X007739Y006780D01*
X007893Y006934D01*
X007739Y007241D02*
X007739Y007548D01*
X007739Y007394D02*
X008660Y007394D01*
X008660Y007241D02*
X008660Y007548D01*
X008660Y007855D02*
X007739Y007855D01*
X008660Y008469D01*
X007739Y008469D01*
X010000Y009080D02*
X010000Y007080D01*
X010300Y007080D01*
X010300Y006980D01*
X010300Y007080D02*
X010600Y007080D01*
X010600Y009080D01*
X010300Y009080D01*
X010300Y009180D01*
X010300Y009080D02*
X010000Y009080D01*
X011000Y009080D02*
X011300Y009080D01*
X011300Y009180D01*
X011300Y009080D02*
X011600Y009080D01*
X011600Y007080D01*
X011300Y007080D01*
X011300Y006980D01*
X011300Y007080D02*
X011000Y007080D01*
X011000Y009080D01*
X014200Y004080D02*
X014500Y004080D01*
X014500Y004180D01*
X014500Y004080D02*
X014800Y004080D01*
X014800Y002080D01*
X014500Y002080D01*
X014500Y001980D01*
X014500Y002080D02*
X014200Y002080D01*
X014200Y004080D01*
X015500Y004080D02*
X015800Y004080D01*
X015800Y004180D01*
X015800Y004080D02*
X016100Y004080D01*
X016100Y002080D01*
X015800Y002080D01*
X015800Y001980D01*
X015800Y002080D02*
X015500Y002080D01*
X015500Y004080D01*
X011200Y016180D02*
X011200Y016280D01*
X010900Y016280D01*
X010900Y018280D01*
X011200Y018280D01*
X011200Y018380D01*
X011200Y018280D02*
X011500Y018280D01*
X011500Y016280D01*
X011200Y016280D01*
X010400Y016280D02*
X010100Y016280D01*
X010100Y016180D01*
X010100Y016280D02*
X009800Y016280D01*
X009800Y018280D01*
X010100Y018280D01*
X010100Y018380D01*
X010100Y018280D02*
X010400Y018280D01*
X010400Y016280D01*
X008760Y016573D02*
X008760Y016880D01*
X008607Y017034D01*
X008607Y017341D02*
X008760Y017494D01*
X008760Y017801D01*
X008607Y017955D01*
X007993Y017955D01*
X007839Y017801D01*
X007839Y017494D01*
X007993Y017341D01*
X008607Y017341D01*
X007993Y017034D02*
X007839Y016880D01*
X007839Y016573D01*
X007993Y016420D01*
X008607Y016420D01*
X008760Y016573D01*
X008607Y018262D02*
X008760Y018415D01*
X008760Y018722D01*
X008607Y018875D01*
X008453Y018875D01*
X008300Y018722D01*
X008300Y018415D01*
X008146Y018262D01*
X007993Y018262D01*
X007839Y018415D01*
X007839Y018722D01*
X007993Y018875D01*
X014300Y021180D02*
X014300Y023180D01*
X014600Y023180D01*
X014600Y023280D01*
X014600Y023180D02*
X014900Y023180D01*
X014900Y021180D01*
X014600Y021180D01*
X014600Y021080D01*
X014600Y021180D02*
X014300Y021180D01*
X015500Y021180D02*
X015500Y023180D01*
X015800Y023180D01*
X015800Y023280D01*
X015800Y023180D02*
X016100Y023180D01*
X016100Y021180D01*
X015800Y021180D01*
X015800Y021080D01*
X015800Y021180D02*
X015500Y021180D01*
D12*
X015255Y022890D02*
X015105Y022890D01*
X015105Y022965D01*
X015130Y022990D01*
X015180Y022990D01*
X015205Y022965D01*
X015205Y022890D01*
X015205Y022940D02*
X015255Y022990D01*
X015255Y023038D02*
X015230Y023038D01*
X015130Y023138D01*
X015105Y023138D01*
X015105Y023038D01*
X016305Y022965D02*
X016330Y022990D01*
X016380Y022990D01*
X016405Y022965D01*
X016405Y022890D01*
X016455Y022890D02*
X016305Y022890D01*
X016305Y022965D01*
X016405Y022940D02*
X016455Y022990D01*
X016430Y023038D02*
X016455Y023063D01*
X016455Y023113D01*
X016430Y023138D01*
X016405Y023138D01*
X016380Y023113D01*
X016380Y023038D01*
X016430Y023038D01*
X016380Y023038D02*
X016330Y023088D01*
X016305Y023138D01*
X011830Y018238D02*
X011855Y018213D01*
X011855Y018163D01*
X011830Y018138D01*
X011855Y018090D02*
X011805Y018040D01*
X011805Y018065D02*
X011805Y017990D01*
X011855Y017990D02*
X011705Y017990D01*
X011705Y018065D01*
X011730Y018090D01*
X011780Y018090D01*
X011805Y018065D01*
X011730Y018138D02*
X011705Y018163D01*
X011705Y018213D01*
X011730Y018238D01*
X011755Y018238D01*
X011780Y018213D01*
X011805Y018238D01*
X011830Y018238D01*
X011780Y018213D02*
X011780Y018188D01*
X010755Y018188D02*
X010605Y018188D01*
X010655Y018138D01*
X010680Y018090D02*
X010705Y018065D01*
X010705Y017990D01*
X010755Y017990D02*
X010605Y017990D01*
X010605Y018065D01*
X010630Y018090D01*
X010680Y018090D01*
X010705Y018040D02*
X010755Y018090D01*
X010755Y018138D02*
X010755Y018238D01*
X010720Y007332D02*
X010720Y007232D01*
X010645Y007307D01*
X010795Y007307D01*
X010795Y007185D02*
X010745Y007135D01*
X010745Y007160D02*
X010745Y007085D01*
X010795Y007085D02*
X010645Y007085D01*
X010645Y007160D01*
X010670Y007185D01*
X010720Y007185D01*
X010745Y007160D01*
X009795Y007185D02*
X009745Y007135D01*
X009745Y007160D02*
X009745Y007085D01*
X009795Y007085D02*
X009645Y007085D01*
X009645Y007160D01*
X009670Y007185D01*
X009720Y007185D01*
X009745Y007160D01*
X009770Y007232D02*
X009795Y007257D01*
X009795Y007307D01*
X009770Y007332D01*
X009720Y007332D01*
X009695Y007307D01*
X009695Y007282D01*
X009720Y007232D01*
X009645Y007232D01*
X009645Y007332D01*
X013870Y002332D02*
X013845Y002307D01*
X013845Y002257D01*
X013870Y002232D01*
X013870Y002185D02*
X013920Y002185D01*
X013945Y002160D01*
X013945Y002085D01*
X013995Y002085D02*
X013845Y002085D01*
X013845Y002160D01*
X013870Y002185D01*
X013945Y002135D02*
X013995Y002185D01*
X013995Y002232D02*
X013895Y002332D01*
X013870Y002332D01*
X013995Y002332D02*
X013995Y002232D01*
X015145Y002257D02*
X015145Y002307D01*
X015170Y002332D01*
X015195Y002332D01*
X015220Y002307D01*
X015220Y002257D01*
X015195Y002232D01*
X015170Y002232D01*
X015145Y002257D01*
X015220Y002257D02*
X015245Y002232D01*
X015270Y002232D01*
X015295Y002257D01*
X015295Y002307D01*
X015270Y002332D01*
X015245Y002332D01*
X015220Y002307D01*
X015220Y002185D02*
X015245Y002160D01*
X015245Y002085D01*
X015295Y002085D02*
X015145Y002085D01*
X015145Y002160D01*
X015170Y002185D01*
X015220Y002185D01*
X015245Y002135D02*
X015295Y002185D01*
D13*
X015580Y002367D02*
X015636Y002310D01*
X015580Y002367D02*
X015580Y002480D01*
X015636Y002537D01*
X015693Y002537D01*
X015920Y002310D01*
X015920Y002537D01*
X015863Y002678D02*
X015920Y002735D01*
X015920Y002848D01*
X015863Y002905D01*
X015750Y002905D01*
X015693Y002848D01*
X015693Y002792D01*
X015750Y002678D01*
X015580Y002678D01*
X015580Y002905D01*
X015636Y003047D02*
X015580Y003103D01*
X015580Y003217D01*
X015636Y003273D01*
X015863Y003047D01*
X015920Y003103D01*
X015920Y003217D01*
X015863Y003273D01*
X015636Y003273D01*
X015636Y003047D02*
X015863Y003047D01*
X014620Y003103D02*
X014563Y003047D01*
X014336Y003273D01*
X014563Y003273D01*
X014620Y003217D01*
X014620Y003103D01*
X014563Y003047D02*
X014336Y003047D01*
X014280Y003103D01*
X014280Y003217D01*
X014336Y003273D01*
X014280Y002905D02*
X014280Y002678D01*
X014450Y002678D01*
X014393Y002792D01*
X014393Y002848D01*
X014450Y002905D01*
X014563Y002905D01*
X014620Y002848D01*
X014620Y002735D01*
X014563Y002678D01*
X014620Y002537D02*
X014620Y002310D01*
X014393Y002537D01*
X014336Y002537D01*
X014280Y002480D01*
X014280Y002367D01*
X014336Y002310D01*
X011420Y007310D02*
X011420Y007537D01*
X011420Y007423D02*
X011080Y007423D01*
X011193Y007310D01*
X011136Y007678D02*
X011080Y007735D01*
X011080Y007848D01*
X011136Y007905D01*
X011363Y007678D01*
X011420Y007735D01*
X011420Y007848D01*
X011363Y007905D01*
X011136Y007905D01*
X011080Y008047D02*
X011420Y008047D01*
X011307Y008047D02*
X011193Y008217D01*
X011307Y008047D02*
X011420Y008217D01*
X011363Y007678D02*
X011136Y007678D01*
X010420Y007735D02*
X010363Y007678D01*
X010136Y007905D01*
X010363Y007905D01*
X010420Y007848D01*
X010420Y007735D01*
X010363Y007678D02*
X010136Y007678D01*
X010080Y007735D01*
X010080Y007848D01*
X010136Y007905D01*
X010080Y008047D02*
X010420Y008047D01*
X010307Y008047D02*
X010193Y008217D01*
X010307Y008047D02*
X010420Y008217D01*
X010420Y007537D02*
X010420Y007310D01*
X010420Y007423D02*
X010080Y007423D01*
X010193Y007310D01*
X011700Y011630D02*
X011700Y012380D01*
X011661Y012382D01*
X011622Y012388D01*
X011584Y012397D01*
X011547Y012410D01*
X011511Y012427D01*
X011478Y012447D01*
X011446Y012471D01*
X011417Y012497D01*
X011391Y012526D01*
X011367Y012558D01*
X011347Y012591D01*
X011330Y012627D01*
X011317Y012664D01*
X011308Y012702D01*
X011302Y012741D01*
X011300Y012780D01*
X011302Y012819D01*
X011308Y012858D01*
X011317Y012896D01*
X011330Y012933D01*
X011347Y012969D01*
X011367Y013002D01*
X011391Y013034D01*
X011417Y013063D01*
X011446Y013089D01*
X011478Y013113D01*
X011511Y013133D01*
X011547Y013150D01*
X011584Y013163D01*
X011622Y013172D01*
X011661Y013178D01*
X011700Y013180D01*
X011700Y013930D01*
X004700Y013930D01*
X004700Y011630D01*
X011700Y011630D01*
X013100Y011630D02*
X013100Y012380D01*
X013139Y012382D01*
X013178Y012388D01*
X013216Y012397D01*
X013253Y012410D01*
X013289Y012427D01*
X013322Y012447D01*
X013354Y012471D01*
X013383Y012497D01*
X013409Y012526D01*
X013433Y012558D01*
X013453Y012591D01*
X013470Y012627D01*
X013483Y012664D01*
X013492Y012702D01*
X013498Y012741D01*
X013500Y012780D01*
X013498Y012819D01*
X013492Y012858D01*
X013483Y012896D01*
X013470Y012933D01*
X013453Y012969D01*
X013433Y013002D01*
X013409Y013034D01*
X013383Y013063D01*
X013354Y013089D01*
X013322Y013113D01*
X013289Y013133D01*
X013253Y013150D01*
X013216Y013163D01*
X013178Y013172D01*
X013139Y013178D01*
X013100Y013180D01*
X013100Y013930D01*
X020100Y013930D01*
X020100Y011630D01*
X013100Y011630D01*
X011420Y017066D02*
X011420Y017293D01*
X011420Y017180D02*
X011080Y017180D01*
X011193Y017066D01*
X011136Y017435D02*
X011080Y017491D01*
X011080Y017605D01*
X011136Y017662D01*
X011363Y017435D01*
X011420Y017491D01*
X011420Y017605D01*
X011363Y017662D01*
X011136Y017662D01*
X011080Y017803D02*
X011420Y017803D01*
X011307Y017803D02*
X011193Y017973D01*
X011307Y017803D02*
X011420Y017973D01*
X011363Y017435D02*
X011136Y017435D01*
X010320Y017491D02*
X010263Y017435D01*
X010036Y017662D01*
X010263Y017662D01*
X010320Y017605D01*
X010320Y017491D01*
X010263Y017435D02*
X010036Y017435D01*
X009980Y017491D01*
X009980Y017605D01*
X010036Y017662D01*
X009980Y017803D02*
X010320Y017803D01*
X010207Y017803D02*
X010320Y017973D01*
X010207Y017803D02*
X010093Y017973D01*
X010320Y017293D02*
X010320Y017066D01*
X010320Y017180D02*
X009980Y017180D01*
X010093Y017066D01*
X014536Y021905D02*
X014480Y021962D01*
X014480Y022075D01*
X014536Y022132D01*
X014593Y022132D01*
X014820Y021905D01*
X014820Y022132D01*
X014763Y022273D02*
X014820Y022330D01*
X014820Y022444D01*
X014763Y022500D01*
X014650Y022500D01*
X014593Y022444D01*
X014593Y022387D01*
X014650Y022273D01*
X014480Y022273D01*
X014480Y022500D01*
X014536Y022642D02*
X014480Y022698D01*
X014480Y022812D01*
X014536Y022869D01*
X014763Y022642D01*
X014820Y022698D01*
X014820Y022812D01*
X014763Y022869D01*
X014536Y022869D01*
X014536Y022642D02*
X014763Y022642D01*
X015680Y022698D02*
X015680Y022812D01*
X015736Y022869D01*
X015963Y022642D01*
X016020Y022698D01*
X016020Y022812D01*
X015963Y022869D01*
X015736Y022869D01*
X015680Y022698D02*
X015736Y022642D01*
X015963Y022642D01*
X015963Y022500D02*
X015850Y022500D01*
X015793Y022444D01*
X015793Y022387D01*
X015850Y022273D01*
X015680Y022273D01*
X015680Y022500D01*
X015963Y022500D02*
X016020Y022444D01*
X016020Y022330D01*
X015963Y022273D01*
X016020Y022132D02*
X016020Y021905D01*
X015793Y022132D01*
X015736Y022132D01*
X015680Y022075D01*
X015680Y021962D01*
X015736Y021905D01*
X003888Y002451D02*
X003888Y001810D01*
X003675Y001810D02*
X004102Y001810D01*
X003675Y002237D02*
X003888Y002451D01*
X003457Y002451D02*
X003244Y002451D01*
X003350Y002451D02*
X003350Y001917D01*
X003244Y001810D01*
X003137Y001810D01*
X003030Y001917D01*
D14*
X012475Y011605D02*
X012475Y011755D01*
X012475Y011680D02*
X012925Y011680D01*
X012925Y011605D02*
X012925Y011755D01*
X012850Y011912D02*
X012925Y011987D01*
X012925Y012137D01*
X012850Y012212D01*
X012925Y012372D02*
X012625Y012673D01*
X012550Y012673D01*
X012475Y012598D01*
X012475Y012447D01*
X012550Y012372D01*
X012550Y012212D02*
X012475Y012137D01*
X012475Y011987D01*
X012550Y011912D01*
X012850Y011912D01*
X012925Y012372D02*
X012925Y012673D01*
X012325Y012777D02*
X012325Y012927D01*
X012325Y012852D02*
X011875Y012852D01*
X011875Y012777D02*
X011875Y012927D01*
X011950Y013084D02*
X012250Y013084D01*
X012325Y013159D01*
X012325Y013309D01*
X012250Y013384D01*
X012325Y013545D02*
X012325Y013845D01*
X012325Y013695D02*
X011875Y013695D01*
X012025Y013545D01*
X011950Y013384D02*
X011875Y013309D01*
X011875Y013159D01*
X011950Y013084D01*
X013000Y021330D02*
X013000Y022030D01*
X013300Y022030D01*
X013600Y022030D01*
X013600Y021880D01*
X013600Y021330D01*
X013000Y021330D01*
X013000Y022030D02*
X013000Y022330D01*
X013600Y022330D01*
X013300Y022030D01*
X013000Y022330D01*
X013000Y023030D01*
X013600Y023030D01*
X013600Y022480D01*
X013600Y022330D01*
X013600Y022030D01*
X013600Y021880D02*
X013634Y021882D01*
X013667Y021888D01*
X013699Y021897D01*
X013730Y021910D01*
X013760Y021926D01*
X013787Y021945D01*
X013812Y021968D01*
X013835Y021993D01*
X013854Y022020D01*
X013870Y022050D01*
X013883Y022081D01*
X013892Y022113D01*
X013898Y022146D01*
X013900Y022180D01*
X013898Y022214D01*
X013892Y022247D01*
X013883Y022279D01*
X013870Y022310D01*
X013854Y022340D01*
X013835Y022367D01*
X013812Y022392D01*
X013787Y022415D01*
X013760Y022434D01*
X013730Y022450D01*
X013699Y022463D01*
X013667Y022472D01*
X013634Y022478D01*
X013600Y022480D01*
X016900Y022430D02*
X016900Y022130D01*
X017200Y022430D01*
X016900Y022430D01*
X016900Y022580D01*
X016900Y023130D01*
X017500Y023130D01*
X017500Y022430D01*
X017200Y022430D01*
X017500Y022130D01*
X016900Y022130D01*
X016900Y021980D01*
X016900Y021430D01*
X017500Y021430D01*
X017500Y022130D01*
X017500Y022430D01*
X016900Y022580D02*
X016866Y022578D01*
X016833Y022572D01*
X016801Y022563D01*
X016770Y022550D01*
X016740Y022534D01*
X016713Y022515D01*
X016688Y022492D01*
X016665Y022467D01*
X016646Y022440D01*
X016630Y022410D01*
X016617Y022379D01*
X016608Y022347D01*
X016602Y022314D01*
X016600Y022280D01*
X016602Y022246D01*
X016608Y022213D01*
X016617Y022181D01*
X016630Y022150D01*
X016646Y022120D01*
X016665Y022093D01*
X016688Y022068D01*
X016713Y022045D01*
X016740Y022026D01*
X016770Y022010D01*
X016801Y021997D01*
X016833Y021988D01*
X016866Y021982D01*
X016900Y021980D01*
X016900Y003930D02*
X017500Y003930D01*
X017500Y003230D01*
X017200Y003230D01*
X016900Y003230D01*
X016900Y003380D01*
X016900Y003930D01*
X016900Y003230D02*
X016900Y002930D01*
X017200Y003230D01*
X017500Y002930D01*
X016900Y002930D01*
X016900Y002780D01*
X016900Y002230D01*
X017500Y002230D01*
X017500Y002930D01*
X017500Y003230D01*
X016900Y003380D02*
X016866Y003378D01*
X016833Y003372D01*
X016801Y003363D01*
X016770Y003350D01*
X016740Y003334D01*
X016713Y003315D01*
X016688Y003292D01*
X016665Y003267D01*
X016646Y003240D01*
X016630Y003210D01*
X016617Y003179D01*
X016608Y003147D01*
X016602Y003114D01*
X016600Y003080D01*
X016602Y003046D01*
X016608Y003013D01*
X016617Y002981D01*
X016630Y002950D01*
X016646Y002920D01*
X016665Y002893D01*
X016688Y002868D01*
X016713Y002845D01*
X016740Y002826D01*
X016770Y002810D01*
X016801Y002797D01*
X016833Y002788D01*
X016866Y002782D01*
X016900Y002780D01*
X013500Y002880D02*
X013500Y002330D01*
X012900Y002330D01*
X012900Y003030D01*
X013200Y003030D01*
X013500Y003030D01*
X013500Y002880D01*
X013500Y003030D02*
X013500Y003330D01*
X013200Y003030D01*
X012900Y003330D01*
X013500Y003330D01*
X013500Y003480D01*
X013500Y004030D01*
X012900Y004030D01*
X012900Y003330D01*
X012900Y003030D01*
X013500Y002880D02*
X013534Y002882D01*
X013567Y002888D01*
X013599Y002897D01*
X013630Y002910D01*
X013660Y002926D01*
X013687Y002945D01*
X013712Y002968D01*
X013735Y002993D01*
X013754Y003020D01*
X013770Y003050D01*
X013783Y003081D01*
X013792Y003113D01*
X013798Y003146D01*
X013800Y003180D01*
X013798Y003214D01*
X013792Y003247D01*
X013783Y003279D01*
X013770Y003310D01*
X013754Y003340D01*
X013735Y003367D01*
X013712Y003392D01*
X013687Y003415D01*
X013660Y003434D01*
X013630Y003450D01*
X013599Y003463D01*
X013567Y003472D01*
X013534Y003478D01*
X013500Y003480D01*
D15*
X012162Y004523D02*
X012162Y001837D01*
X011950Y002780D02*
X011600Y002780D01*
X011950Y002780D02*
X011950Y003580D01*
X011600Y003580D01*
X007991Y003180D02*
X007993Y003265D01*
X007999Y003349D01*
X008009Y003434D01*
X008023Y003517D01*
X008040Y003600D01*
X008062Y003682D01*
X008088Y003763D01*
X008117Y003843D01*
X008150Y003921D01*
X008186Y003997D01*
X008226Y004072D01*
X008270Y004145D01*
X008317Y004216D01*
X008367Y004284D01*
X008420Y004350D01*
X008477Y004413D01*
X008536Y004474D01*
X008598Y004532D01*
X008663Y004587D01*
X008730Y004639D01*
X008799Y004687D01*
X008871Y004732D01*
X008945Y004774D01*
X009021Y004812D01*
X009098Y004847D01*
X009177Y004878D01*
X009257Y004906D01*
X009339Y004929D01*
X009421Y004949D01*
X009504Y004965D01*
X009588Y004977D01*
X009673Y004985D01*
X009758Y004989D01*
X009842Y004989D01*
X009927Y004985D01*
X010012Y004977D01*
X010096Y004965D01*
X010179Y004949D01*
X010261Y004929D01*
X010343Y004906D01*
X010423Y004878D01*
X010502Y004847D01*
X010579Y004812D01*
X010655Y004774D01*
X010729Y004732D01*
X010801Y004687D01*
X010870Y004639D01*
X010937Y004587D01*
X011002Y004532D01*
X011064Y004474D01*
X011123Y004413D01*
X011180Y004350D01*
X011233Y004284D01*
X011283Y004216D01*
X011330Y004145D01*
X011374Y004072D01*
X011414Y003997D01*
X011450Y003921D01*
X011483Y003843D01*
X011512Y003763D01*
X011538Y003682D01*
X011560Y003600D01*
X011577Y003517D01*
X011591Y003434D01*
X011601Y003349D01*
X011607Y003265D01*
X011609Y003180D01*
X011607Y003095D01*
X011601Y003011D01*
X011591Y002926D01*
X011577Y002843D01*
X011560Y002760D01*
X011538Y002678D01*
X011512Y002597D01*
X011483Y002517D01*
X011450Y002439D01*
X011414Y002363D01*
X011374Y002288D01*
X011330Y002215D01*
X011283Y002144D01*
X011233Y002076D01*
X011180Y002010D01*
X011123Y001947D01*
X011064Y001886D01*
X011002Y001828D01*
X010937Y001773D01*
X010870Y001721D01*
X010801Y001673D01*
X010729Y001628D01*
X010655Y001586D01*
X010579Y001548D01*
X010502Y001513D01*
X010423Y001482D01*
X010343Y001454D01*
X010261Y001431D01*
X010179Y001411D01*
X010096Y001395D01*
X010012Y001383D01*
X009927Y001375D01*
X009842Y001371D01*
X009758Y001371D01*
X009673Y001375D01*
X009588Y001383D01*
X009504Y001395D01*
X009421Y001411D01*
X009339Y001431D01*
X009257Y001454D01*
X009177Y001482D01*
X009098Y001513D01*
X009021Y001548D01*
X008945Y001586D01*
X008871Y001628D01*
X008799Y001673D01*
X008730Y001721D01*
X008663Y001773D01*
X008598Y001828D01*
X008536Y001886D01*
X008477Y001947D01*
X008420Y002010D01*
X008367Y002076D01*
X008317Y002144D01*
X008270Y002215D01*
X008226Y002288D01*
X008186Y002363D01*
X008150Y002439D01*
X008117Y002517D01*
X008088Y002597D01*
X008062Y002678D01*
X008040Y002760D01*
X008023Y002843D01*
X008009Y002926D01*
X007999Y003011D01*
X007993Y003095D01*
X007991Y003180D01*
X008000Y002780D02*
X007650Y002780D01*
X007650Y003580D01*
X008000Y003580D01*
X007438Y004523D02*
X007438Y001837D01*
X008457Y000818D02*
X011143Y000818D01*
X011143Y005542D02*
X008457Y005542D01*
X007300Y006430D02*
X006300Y006430D01*
X006300Y008530D01*
X007300Y008530D01*
X007300Y006430D01*
X007050Y007480D02*
X006550Y007480D01*
X005450Y007080D02*
X005450Y007880D01*
X005100Y007880D01*
X005662Y008823D02*
X005662Y006137D01*
X005450Y007080D02*
X005100Y007080D01*
X001491Y007480D02*
X001493Y007565D01*
X001499Y007649D01*
X001509Y007734D01*
X001523Y007817D01*
X001540Y007900D01*
X001562Y007982D01*
X001588Y008063D01*
X001617Y008143D01*
X001650Y008221D01*
X001686Y008297D01*
X001726Y008372D01*
X001770Y008445D01*
X001817Y008516D01*
X001867Y008584D01*
X001920Y008650D01*
X001977Y008713D01*
X002036Y008774D01*
X002098Y008832D01*
X002163Y008887D01*
X002230Y008939D01*
X002299Y008987D01*
X002371Y009032D01*
X002445Y009074D01*
X002521Y009112D01*
X002598Y009147D01*
X002677Y009178D01*
X002757Y009206D01*
X002839Y009229D01*
X002921Y009249D01*
X003004Y009265D01*
X003088Y009277D01*
X003173Y009285D01*
X003258Y009289D01*
X003342Y009289D01*
X003427Y009285D01*
X003512Y009277D01*
X003596Y009265D01*
X003679Y009249D01*
X003761Y009229D01*
X003843Y009206D01*
X003923Y009178D01*
X004002Y009147D01*
X004079Y009112D01*
X004155Y009074D01*
X004229Y009032D01*
X004301Y008987D01*
X004370Y008939D01*
X004437Y008887D01*
X004502Y008832D01*
X004564Y008774D01*
X004623Y008713D01*
X004680Y008650D01*
X004733Y008584D01*
X004783Y008516D01*
X004830Y008445D01*
X004874Y008372D01*
X004914Y008297D01*
X004950Y008221D01*
X004983Y008143D01*
X005012Y008063D01*
X005038Y007982D01*
X005060Y007900D01*
X005077Y007817D01*
X005091Y007734D01*
X005101Y007649D01*
X005107Y007565D01*
X005109Y007480D01*
X005107Y007395D01*
X005101Y007311D01*
X005091Y007226D01*
X005077Y007143D01*
X005060Y007060D01*
X005038Y006978D01*
X005012Y006897D01*
X004983Y006817D01*
X004950Y006739D01*
X004914Y006663D01*
X004874Y006588D01*
X004830Y006515D01*
X004783Y006444D01*
X004733Y006376D01*
X004680Y006310D01*
X004623Y006247D01*
X004564Y006186D01*
X004502Y006128D01*
X004437Y006073D01*
X004370Y006021D01*
X004301Y005973D01*
X004229Y005928D01*
X004155Y005886D01*
X004079Y005848D01*
X004002Y005813D01*
X003923Y005782D01*
X003843Y005754D01*
X003761Y005731D01*
X003679Y005711D01*
X003596Y005695D01*
X003512Y005683D01*
X003427Y005675D01*
X003342Y005671D01*
X003258Y005671D01*
X003173Y005675D01*
X003088Y005683D01*
X003004Y005695D01*
X002921Y005711D01*
X002839Y005731D01*
X002757Y005754D01*
X002677Y005782D01*
X002598Y005813D01*
X002521Y005848D01*
X002445Y005886D01*
X002371Y005928D01*
X002299Y005973D01*
X002230Y006021D01*
X002163Y006073D01*
X002098Y006128D01*
X002036Y006186D01*
X001977Y006247D01*
X001920Y006310D01*
X001867Y006376D01*
X001817Y006444D01*
X001770Y006515D01*
X001726Y006588D01*
X001686Y006663D01*
X001650Y006739D01*
X001617Y006817D01*
X001588Y006897D01*
X001562Y006978D01*
X001540Y007060D01*
X001523Y007143D01*
X001509Y007226D01*
X001499Y007311D01*
X001493Y007395D01*
X001491Y007480D01*
X001500Y007080D02*
X001150Y007080D01*
X001150Y007880D01*
X001500Y007880D01*
X000938Y008823D02*
X000938Y006137D01*
X001957Y005118D02*
X004643Y005118D01*
X004643Y009842D02*
X001957Y009842D01*
X001957Y015618D02*
X004643Y015618D01*
X005662Y016637D02*
X005662Y019323D01*
X006300Y018930D02*
X007300Y018930D01*
X007300Y016830D01*
X006300Y016830D01*
X006300Y018930D01*
X005450Y018380D02*
X005100Y018380D01*
X005450Y018380D02*
X005450Y017580D01*
X005100Y017580D01*
X006550Y017880D02*
X007050Y017880D01*
X008657Y019818D02*
X011343Y019818D01*
X012362Y020837D02*
X012362Y023523D01*
X012150Y022580D02*
X011800Y022580D01*
X012150Y022580D02*
X012150Y021780D01*
X011800Y021780D01*
X008191Y022180D02*
X008193Y022265D01*
X008199Y022349D01*
X008209Y022434D01*
X008223Y022517D01*
X008240Y022600D01*
X008262Y022682D01*
X008288Y022763D01*
X008317Y022843D01*
X008350Y022921D01*
X008386Y022997D01*
X008426Y023072D01*
X008470Y023145D01*
X008517Y023216D01*
X008567Y023284D01*
X008620Y023350D01*
X008677Y023413D01*
X008736Y023474D01*
X008798Y023532D01*
X008863Y023587D01*
X008930Y023639D01*
X008999Y023687D01*
X009071Y023732D01*
X009145Y023774D01*
X009221Y023812D01*
X009298Y023847D01*
X009377Y023878D01*
X009457Y023906D01*
X009539Y023929D01*
X009621Y023949D01*
X009704Y023965D01*
X009788Y023977D01*
X009873Y023985D01*
X009958Y023989D01*
X010042Y023989D01*
X010127Y023985D01*
X010212Y023977D01*
X010296Y023965D01*
X010379Y023949D01*
X010461Y023929D01*
X010543Y023906D01*
X010623Y023878D01*
X010702Y023847D01*
X010779Y023812D01*
X010855Y023774D01*
X010929Y023732D01*
X011001Y023687D01*
X011070Y023639D01*
X011137Y023587D01*
X011202Y023532D01*
X011264Y023474D01*
X011323Y023413D01*
X011380Y023350D01*
X011433Y023284D01*
X011483Y023216D01*
X011530Y023145D01*
X011574Y023072D01*
X011614Y022997D01*
X011650Y022921D01*
X011683Y022843D01*
X011712Y022763D01*
X011738Y022682D01*
X011760Y022600D01*
X011777Y022517D01*
X011791Y022434D01*
X011801Y022349D01*
X011807Y022265D01*
X011809Y022180D01*
X011807Y022095D01*
X011801Y022011D01*
X011791Y021926D01*
X011777Y021843D01*
X011760Y021760D01*
X011738Y021678D01*
X011712Y021597D01*
X011683Y021517D01*
X011650Y021439D01*
X011614Y021363D01*
X011574Y021288D01*
X011530Y021215D01*
X011483Y021144D01*
X011433Y021076D01*
X011380Y021010D01*
X011323Y020947D01*
X011264Y020886D01*
X011202Y020828D01*
X011137Y020773D01*
X011070Y020721D01*
X011001Y020673D01*
X010929Y020628D01*
X010855Y020586D01*
X010779Y020548D01*
X010702Y020513D01*
X010623Y020482D01*
X010543Y020454D01*
X010461Y020431D01*
X010379Y020411D01*
X010296Y020395D01*
X010212Y020383D01*
X010127Y020375D01*
X010042Y020371D01*
X009958Y020371D01*
X009873Y020375D01*
X009788Y020383D01*
X009704Y020395D01*
X009621Y020411D01*
X009539Y020431D01*
X009457Y020454D01*
X009377Y020482D01*
X009298Y020513D01*
X009221Y020548D01*
X009145Y020586D01*
X009071Y020628D01*
X008999Y020673D01*
X008930Y020721D01*
X008863Y020773D01*
X008798Y020828D01*
X008736Y020886D01*
X008677Y020947D01*
X008620Y021010D01*
X008567Y021076D01*
X008517Y021144D01*
X008470Y021215D01*
X008426Y021288D01*
X008386Y021363D01*
X008350Y021439D01*
X008317Y021517D01*
X008288Y021597D01*
X008262Y021678D01*
X008240Y021760D01*
X008223Y021843D01*
X008209Y021926D01*
X008199Y022011D01*
X008193Y022095D01*
X008191Y022180D01*
X008200Y021780D02*
X007850Y021780D01*
X007850Y022580D01*
X008200Y022580D01*
X007638Y023523D02*
X007638Y020837D01*
X004643Y020342D02*
X001957Y020342D01*
X000938Y019323D02*
X000938Y016637D01*
X001150Y017580D02*
X001500Y017580D01*
X001150Y017580D02*
X001150Y018380D01*
X001500Y018380D01*
X001491Y017980D02*
X001493Y018065D01*
X001499Y018149D01*
X001509Y018234D01*
X001523Y018317D01*
X001540Y018400D01*
X001562Y018482D01*
X001588Y018563D01*
X001617Y018643D01*
X001650Y018721D01*
X001686Y018797D01*
X001726Y018872D01*
X001770Y018945D01*
X001817Y019016D01*
X001867Y019084D01*
X001920Y019150D01*
X001977Y019213D01*
X002036Y019274D01*
X002098Y019332D01*
X002163Y019387D01*
X002230Y019439D01*
X002299Y019487D01*
X002371Y019532D01*
X002445Y019574D01*
X002521Y019612D01*
X002598Y019647D01*
X002677Y019678D01*
X002757Y019706D01*
X002839Y019729D01*
X002921Y019749D01*
X003004Y019765D01*
X003088Y019777D01*
X003173Y019785D01*
X003258Y019789D01*
X003342Y019789D01*
X003427Y019785D01*
X003512Y019777D01*
X003596Y019765D01*
X003679Y019749D01*
X003761Y019729D01*
X003843Y019706D01*
X003923Y019678D01*
X004002Y019647D01*
X004079Y019612D01*
X004155Y019574D01*
X004229Y019532D01*
X004301Y019487D01*
X004370Y019439D01*
X004437Y019387D01*
X004502Y019332D01*
X004564Y019274D01*
X004623Y019213D01*
X004680Y019150D01*
X004733Y019084D01*
X004783Y019016D01*
X004830Y018945D01*
X004874Y018872D01*
X004914Y018797D01*
X004950Y018721D01*
X004983Y018643D01*
X005012Y018563D01*
X005038Y018482D01*
X005060Y018400D01*
X005077Y018317D01*
X005091Y018234D01*
X005101Y018149D01*
X005107Y018065D01*
X005109Y017980D01*
X005107Y017895D01*
X005101Y017811D01*
X005091Y017726D01*
X005077Y017643D01*
X005060Y017560D01*
X005038Y017478D01*
X005012Y017397D01*
X004983Y017317D01*
X004950Y017239D01*
X004914Y017163D01*
X004874Y017088D01*
X004830Y017015D01*
X004783Y016944D01*
X004733Y016876D01*
X004680Y016810D01*
X004623Y016747D01*
X004564Y016686D01*
X004502Y016628D01*
X004437Y016573D01*
X004370Y016521D01*
X004301Y016473D01*
X004229Y016428D01*
X004155Y016386D01*
X004079Y016348D01*
X004002Y016313D01*
X003923Y016282D01*
X003843Y016254D01*
X003761Y016231D01*
X003679Y016211D01*
X003596Y016195D01*
X003512Y016183D01*
X003427Y016175D01*
X003342Y016171D01*
X003258Y016171D01*
X003173Y016175D01*
X003088Y016183D01*
X003004Y016195D01*
X002921Y016211D01*
X002839Y016231D01*
X002757Y016254D01*
X002677Y016282D01*
X002598Y016313D01*
X002521Y016348D01*
X002445Y016386D01*
X002371Y016428D01*
X002299Y016473D01*
X002230Y016521D01*
X002163Y016573D01*
X002098Y016628D01*
X002036Y016686D01*
X001977Y016747D01*
X001920Y016810D01*
X001867Y016876D01*
X001817Y016944D01*
X001770Y017015D01*
X001726Y017088D01*
X001686Y017163D01*
X001650Y017239D01*
X001617Y017317D01*
X001588Y017397D01*
X001562Y017478D01*
X001540Y017560D01*
X001523Y017643D01*
X001509Y017726D01*
X001499Y017811D01*
X001493Y017895D01*
X001491Y017980D01*
X008657Y024542D02*
X011343Y024542D01*
X018338Y023523D02*
X018338Y020837D01*
X018550Y021780D02*
X018900Y021780D01*
X018550Y021780D02*
X018550Y022580D01*
X018900Y022580D01*
X018891Y022180D02*
X018893Y022265D01*
X018899Y022349D01*
X018909Y022434D01*
X018923Y022517D01*
X018940Y022600D01*
X018962Y022682D01*
X018988Y022763D01*
X019017Y022843D01*
X019050Y022921D01*
X019086Y022997D01*
X019126Y023072D01*
X019170Y023145D01*
X019217Y023216D01*
X019267Y023284D01*
X019320Y023350D01*
X019377Y023413D01*
X019436Y023474D01*
X019498Y023532D01*
X019563Y023587D01*
X019630Y023639D01*
X019699Y023687D01*
X019771Y023732D01*
X019845Y023774D01*
X019921Y023812D01*
X019998Y023847D01*
X020077Y023878D01*
X020157Y023906D01*
X020239Y023929D01*
X020321Y023949D01*
X020404Y023965D01*
X020488Y023977D01*
X020573Y023985D01*
X020658Y023989D01*
X020742Y023989D01*
X020827Y023985D01*
X020912Y023977D01*
X020996Y023965D01*
X021079Y023949D01*
X021161Y023929D01*
X021243Y023906D01*
X021323Y023878D01*
X021402Y023847D01*
X021479Y023812D01*
X021555Y023774D01*
X021629Y023732D01*
X021701Y023687D01*
X021770Y023639D01*
X021837Y023587D01*
X021902Y023532D01*
X021964Y023474D01*
X022023Y023413D01*
X022080Y023350D01*
X022133Y023284D01*
X022183Y023216D01*
X022230Y023145D01*
X022274Y023072D01*
X022314Y022997D01*
X022350Y022921D01*
X022383Y022843D01*
X022412Y022763D01*
X022438Y022682D01*
X022460Y022600D01*
X022477Y022517D01*
X022491Y022434D01*
X022501Y022349D01*
X022507Y022265D01*
X022509Y022180D01*
X022507Y022095D01*
X022501Y022011D01*
X022491Y021926D01*
X022477Y021843D01*
X022460Y021760D01*
X022438Y021678D01*
X022412Y021597D01*
X022383Y021517D01*
X022350Y021439D01*
X022314Y021363D01*
X022274Y021288D01*
X022230Y021215D01*
X022183Y021144D01*
X022133Y021076D01*
X022080Y021010D01*
X022023Y020947D01*
X021964Y020886D01*
X021902Y020828D01*
X021837Y020773D01*
X021770Y020721D01*
X021701Y020673D01*
X021629Y020628D01*
X021555Y020586D01*
X021479Y020548D01*
X021402Y020513D01*
X021323Y020482D01*
X021243Y020454D01*
X021161Y020431D01*
X021079Y020411D01*
X020996Y020395D01*
X020912Y020383D01*
X020827Y020375D01*
X020742Y020371D01*
X020658Y020371D01*
X020573Y020375D01*
X020488Y020383D01*
X020404Y020395D01*
X020321Y020411D01*
X020239Y020431D01*
X020157Y020454D01*
X020077Y020482D01*
X019998Y020513D01*
X019921Y020548D01*
X019845Y020586D01*
X019771Y020628D01*
X019699Y020673D01*
X019630Y020721D01*
X019563Y020773D01*
X019498Y020828D01*
X019436Y020886D01*
X019377Y020947D01*
X019320Y021010D01*
X019267Y021076D01*
X019217Y021144D01*
X019170Y021215D01*
X019126Y021288D01*
X019086Y021363D01*
X019050Y021439D01*
X019017Y021517D01*
X018988Y021597D01*
X018962Y021678D01*
X018940Y021760D01*
X018923Y021843D01*
X018909Y021926D01*
X018899Y022011D01*
X018893Y022095D01*
X018891Y022180D01*
X019357Y019818D02*
X022043Y019818D01*
X023062Y020837D02*
X023062Y023523D01*
X022850Y022580D02*
X022500Y022580D01*
X022850Y022580D02*
X022850Y021780D01*
X022500Y021780D01*
X022043Y024542D02*
X019357Y024542D01*
X019357Y005542D02*
X022043Y005542D01*
X023062Y004523D02*
X023062Y001837D01*
X022850Y002780D02*
X022500Y002780D01*
X022850Y002780D02*
X022850Y003580D01*
X022500Y003580D01*
X018891Y003180D02*
X018893Y003265D01*
X018899Y003349D01*
X018909Y003434D01*
X018923Y003517D01*
X018940Y003600D01*
X018962Y003682D01*
X018988Y003763D01*
X019017Y003843D01*
X019050Y003921D01*
X019086Y003997D01*
X019126Y004072D01*
X019170Y004145D01*
X019217Y004216D01*
X019267Y004284D01*
X019320Y004350D01*
X019377Y004413D01*
X019436Y004474D01*
X019498Y004532D01*
X019563Y004587D01*
X019630Y004639D01*
X019699Y004687D01*
X019771Y004732D01*
X019845Y004774D01*
X019921Y004812D01*
X019998Y004847D01*
X020077Y004878D01*
X020157Y004906D01*
X020239Y004929D01*
X020321Y004949D01*
X020404Y004965D01*
X020488Y004977D01*
X020573Y004985D01*
X020658Y004989D01*
X020742Y004989D01*
X020827Y004985D01*
X020912Y004977D01*
X020996Y004965D01*
X021079Y004949D01*
X021161Y004929D01*
X021243Y004906D01*
X021323Y004878D01*
X021402Y004847D01*
X021479Y004812D01*
X021555Y004774D01*
X021629Y004732D01*
X021701Y004687D01*
X021770Y004639D01*
X021837Y004587D01*
X021902Y004532D01*
X021964Y004474D01*
X022023Y004413D01*
X022080Y004350D01*
X022133Y004284D01*
X022183Y004216D01*
X022230Y004145D01*
X022274Y004072D01*
X022314Y003997D01*
X022350Y003921D01*
X022383Y003843D01*
X022412Y003763D01*
X022438Y003682D01*
X022460Y003600D01*
X022477Y003517D01*
X022491Y003434D01*
X022501Y003349D01*
X022507Y003265D01*
X022509Y003180D01*
X022507Y003095D01*
X022501Y003011D01*
X022491Y002926D01*
X022477Y002843D01*
X022460Y002760D01*
X022438Y002678D01*
X022412Y002597D01*
X022383Y002517D01*
X022350Y002439D01*
X022314Y002363D01*
X022274Y002288D01*
X022230Y002215D01*
X022183Y002144D01*
X022133Y002076D01*
X022080Y002010D01*
X022023Y001947D01*
X021964Y001886D01*
X021902Y001828D01*
X021837Y001773D01*
X021770Y001721D01*
X021701Y001673D01*
X021629Y001628D01*
X021555Y001586D01*
X021479Y001548D01*
X021402Y001513D01*
X021323Y001482D01*
X021243Y001454D01*
X021161Y001431D01*
X021079Y001411D01*
X020996Y001395D01*
X020912Y001383D01*
X020827Y001375D01*
X020742Y001371D01*
X020658Y001371D01*
X020573Y001375D01*
X020488Y001383D01*
X020404Y001395D01*
X020321Y001411D01*
X020239Y001431D01*
X020157Y001454D01*
X020077Y001482D01*
X019998Y001513D01*
X019921Y001548D01*
X019845Y001586D01*
X019771Y001628D01*
X019699Y001673D01*
X019630Y001721D01*
X019563Y001773D01*
X019498Y001828D01*
X019436Y001886D01*
X019377Y001947D01*
X019320Y002010D01*
X019267Y002076D01*
X019217Y002144D01*
X019170Y002215D01*
X019126Y002288D01*
X019086Y002363D01*
X019050Y002439D01*
X019017Y002517D01*
X018988Y002597D01*
X018962Y002678D01*
X018940Y002760D01*
X018923Y002843D01*
X018909Y002926D01*
X018899Y003011D01*
X018893Y003095D01*
X018891Y003180D01*
X018900Y002780D02*
X018550Y002780D01*
X018550Y003580D01*
X018900Y003580D01*
X018338Y004523D02*
X018338Y001837D01*
X019357Y000818D02*
X022043Y000818D01*
D16*
X021290Y003377D02*
X021273Y003422D01*
X021252Y003466D01*
X021228Y003508D01*
X021201Y003548D01*
X021171Y003586D01*
X021138Y003622D01*
X021102Y003655D01*
X021064Y003685D01*
X021023Y003711D01*
X020981Y003735D01*
X020937Y003755D01*
X020891Y003772D01*
X020844Y003785D01*
X020797Y003794D01*
X020749Y003800D01*
X020700Y003802D01*
X020651Y003800D01*
X020603Y003794D01*
X020556Y003785D01*
X020509Y003772D01*
X020463Y003755D01*
X020419Y003735D01*
X020377Y003711D01*
X020336Y003685D01*
X020298Y003655D01*
X020262Y003622D01*
X020229Y003586D01*
X020199Y003548D01*
X020172Y003508D01*
X020148Y003466D01*
X020127Y003422D01*
X020110Y003377D01*
X020110Y002983D02*
X020127Y002938D01*
X020148Y002894D01*
X020172Y002852D01*
X020199Y002812D01*
X020229Y002774D01*
X020262Y002738D01*
X020298Y002705D01*
X020336Y002675D01*
X020377Y002649D01*
X020419Y002625D01*
X020463Y002605D01*
X020509Y002588D01*
X020556Y002575D01*
X020603Y002566D01*
X020651Y002560D01*
X020700Y002558D01*
X020749Y002560D01*
X020797Y002566D01*
X020844Y002575D01*
X020891Y002588D01*
X020937Y002605D01*
X020981Y002625D01*
X021023Y002649D01*
X021064Y002675D01*
X021102Y002705D01*
X021138Y002738D01*
X021171Y002774D01*
X021201Y002812D01*
X021228Y002852D01*
X021252Y002894D01*
X021273Y002938D01*
X021290Y002983D01*
X010390Y002983D02*
X010373Y002938D01*
X010352Y002894D01*
X010328Y002852D01*
X010301Y002812D01*
X010271Y002774D01*
X010238Y002738D01*
X010202Y002705D01*
X010164Y002675D01*
X010123Y002649D01*
X010081Y002625D01*
X010037Y002605D01*
X009991Y002588D01*
X009944Y002575D01*
X009897Y002566D01*
X009849Y002560D01*
X009800Y002558D01*
X009751Y002560D01*
X009703Y002566D01*
X009656Y002575D01*
X009609Y002588D01*
X009563Y002605D01*
X009519Y002625D01*
X009477Y002649D01*
X009436Y002675D01*
X009398Y002705D01*
X009362Y002738D01*
X009329Y002774D01*
X009299Y002812D01*
X009272Y002852D01*
X009248Y002894D01*
X009227Y002938D01*
X009210Y002983D01*
X009210Y003377D02*
X009227Y003422D01*
X009248Y003466D01*
X009272Y003508D01*
X009299Y003548D01*
X009329Y003586D01*
X009362Y003622D01*
X009398Y003655D01*
X009436Y003685D01*
X009477Y003711D01*
X009519Y003735D01*
X009563Y003755D01*
X009609Y003772D01*
X009656Y003785D01*
X009703Y003794D01*
X009751Y003800D01*
X009800Y003802D01*
X009849Y003800D01*
X009897Y003794D01*
X009944Y003785D01*
X009991Y003772D01*
X010037Y003755D01*
X010081Y003735D01*
X010123Y003711D01*
X010164Y003685D01*
X010202Y003655D01*
X010238Y003622D01*
X010271Y003586D01*
X010301Y003548D01*
X010328Y003508D01*
X010352Y003466D01*
X010373Y003422D01*
X010390Y003377D01*
X003890Y007677D02*
X003873Y007722D01*
X003852Y007766D01*
X003828Y007808D01*
X003801Y007848D01*
X003771Y007886D01*
X003738Y007922D01*
X003702Y007955D01*
X003664Y007985D01*
X003623Y008011D01*
X003581Y008035D01*
X003537Y008055D01*
X003491Y008072D01*
X003444Y008085D01*
X003397Y008094D01*
X003349Y008100D01*
X003300Y008102D01*
X003251Y008100D01*
X003203Y008094D01*
X003156Y008085D01*
X003109Y008072D01*
X003063Y008055D01*
X003019Y008035D01*
X002977Y008011D01*
X002936Y007985D01*
X002898Y007955D01*
X002862Y007922D01*
X002829Y007886D01*
X002799Y007848D01*
X002772Y007808D01*
X002748Y007766D01*
X002727Y007722D01*
X002710Y007677D01*
X002710Y007283D02*
X002727Y007238D01*
X002748Y007194D01*
X002772Y007152D01*
X002799Y007112D01*
X002829Y007074D01*
X002862Y007038D01*
X002898Y007005D01*
X002936Y006975D01*
X002977Y006949D01*
X003019Y006925D01*
X003063Y006905D01*
X003109Y006888D01*
X003156Y006875D01*
X003203Y006866D01*
X003251Y006860D01*
X003300Y006858D01*
X003349Y006860D01*
X003397Y006866D01*
X003444Y006875D01*
X003491Y006888D01*
X003537Y006905D01*
X003581Y006925D01*
X003623Y006949D01*
X003664Y006975D01*
X003702Y007005D01*
X003738Y007038D01*
X003771Y007074D01*
X003801Y007112D01*
X003828Y007152D01*
X003852Y007194D01*
X003873Y007238D01*
X003890Y007283D01*
X003890Y018177D02*
X003873Y018222D01*
X003852Y018266D01*
X003828Y018308D01*
X003801Y018348D01*
X003771Y018386D01*
X003738Y018422D01*
X003702Y018455D01*
X003664Y018485D01*
X003623Y018511D01*
X003581Y018535D01*
X003537Y018555D01*
X003491Y018572D01*
X003444Y018585D01*
X003397Y018594D01*
X003349Y018600D01*
X003300Y018602D01*
X003251Y018600D01*
X003203Y018594D01*
X003156Y018585D01*
X003109Y018572D01*
X003063Y018555D01*
X003019Y018535D01*
X002977Y018511D01*
X002936Y018485D01*
X002898Y018455D01*
X002862Y018422D01*
X002829Y018386D01*
X002799Y018348D01*
X002772Y018308D01*
X002748Y018266D01*
X002727Y018222D01*
X002710Y018177D01*
X002710Y017783D02*
X002727Y017738D01*
X002748Y017694D01*
X002772Y017652D01*
X002799Y017612D01*
X002829Y017574D01*
X002862Y017538D01*
X002898Y017505D01*
X002936Y017475D01*
X002977Y017449D01*
X003019Y017425D01*
X003063Y017405D01*
X003109Y017388D01*
X003156Y017375D01*
X003203Y017366D01*
X003251Y017360D01*
X003300Y017358D01*
X003349Y017360D01*
X003397Y017366D01*
X003444Y017375D01*
X003491Y017388D01*
X003537Y017405D01*
X003581Y017425D01*
X003623Y017449D01*
X003664Y017475D01*
X003702Y017505D01*
X003738Y017538D01*
X003771Y017574D01*
X003801Y017612D01*
X003828Y017652D01*
X003852Y017694D01*
X003873Y017738D01*
X003890Y017783D01*
X009410Y022377D02*
X009427Y022422D01*
X009448Y022466D01*
X009472Y022508D01*
X009499Y022548D01*
X009529Y022586D01*
X009562Y022622D01*
X009598Y022655D01*
X009636Y022685D01*
X009677Y022711D01*
X009719Y022735D01*
X009763Y022755D01*
X009809Y022772D01*
X009856Y022785D01*
X009903Y022794D01*
X009951Y022800D01*
X010000Y022802D01*
X010049Y022800D01*
X010097Y022794D01*
X010144Y022785D01*
X010191Y022772D01*
X010237Y022755D01*
X010281Y022735D01*
X010323Y022711D01*
X010364Y022685D01*
X010402Y022655D01*
X010438Y022622D01*
X010471Y022586D01*
X010501Y022548D01*
X010528Y022508D01*
X010552Y022466D01*
X010573Y022422D01*
X010590Y022377D01*
X010590Y021983D02*
X010573Y021938D01*
X010552Y021894D01*
X010528Y021852D01*
X010501Y021812D01*
X010471Y021774D01*
X010438Y021738D01*
X010402Y021705D01*
X010364Y021675D01*
X010323Y021649D01*
X010281Y021625D01*
X010237Y021605D01*
X010191Y021588D01*
X010144Y021575D01*
X010097Y021566D01*
X010049Y021560D01*
X010000Y021558D01*
X009951Y021560D01*
X009903Y021566D01*
X009856Y021575D01*
X009809Y021588D01*
X009763Y021605D01*
X009719Y021625D01*
X009677Y021649D01*
X009636Y021675D01*
X009598Y021705D01*
X009562Y021738D01*
X009529Y021774D01*
X009499Y021812D01*
X009472Y021852D01*
X009448Y021894D01*
X009427Y021938D01*
X009410Y021983D01*
X020110Y022377D02*
X020127Y022422D01*
X020148Y022466D01*
X020172Y022508D01*
X020199Y022548D01*
X020229Y022586D01*
X020262Y022622D01*
X020298Y022655D01*
X020336Y022685D01*
X020377Y022711D01*
X020419Y022735D01*
X020463Y022755D01*
X020509Y022772D01*
X020556Y022785D01*
X020603Y022794D01*
X020651Y022800D01*
X020700Y022802D01*
X020749Y022800D01*
X020797Y022794D01*
X020844Y022785D01*
X020891Y022772D01*
X020937Y022755D01*
X020981Y022735D01*
X021023Y022711D01*
X021064Y022685D01*
X021102Y022655D01*
X021138Y022622D01*
X021171Y022586D01*
X021201Y022548D01*
X021228Y022508D01*
X021252Y022466D01*
X021273Y022422D01*
X021290Y022377D01*
X021290Y021983D02*
X021273Y021938D01*
X021252Y021894D01*
X021228Y021852D01*
X021201Y021812D01*
X021171Y021774D01*
X021138Y021738D01*
X021102Y021705D01*
X021064Y021675D01*
X021023Y021649D01*
X020981Y021625D01*
X020937Y021605D01*
X020891Y021588D01*
X020844Y021575D01*
X020797Y021566D01*
X020749Y021560D01*
X020700Y021558D01*
X020651Y021560D01*
X020603Y021566D01*
X020556Y021575D01*
X020509Y021588D01*
X020463Y021605D01*
X020419Y021625D01*
X020377Y021649D01*
X020336Y021675D01*
X020298Y021705D01*
X020262Y021738D01*
X020229Y021774D01*
X020199Y021812D01*
X020172Y021852D01*
X020148Y021894D01*
X020127Y021938D01*
X020110Y021983D01*
D17*
X020876Y019660D02*
X021029Y019660D01*
X021106Y019584D01*
X021106Y019277D01*
X021029Y019200D01*
X020876Y019200D01*
X020799Y019277D01*
X020799Y019584D01*
X020876Y019660D01*
X020953Y019353D02*
X021106Y019200D01*
X021260Y019200D02*
X021567Y019200D01*
X021413Y019200D02*
X021413Y019660D01*
X021260Y019507D01*
X010867Y019507D02*
X010867Y019584D01*
X010790Y019660D01*
X010636Y019660D01*
X010560Y019584D01*
X010406Y019584D02*
X010406Y019277D01*
X010329Y019200D01*
X010176Y019200D01*
X010099Y019277D01*
X010099Y019584D01*
X010176Y019660D01*
X010329Y019660D01*
X010406Y019584D01*
X010253Y019353D02*
X010406Y019200D01*
X010560Y019200D02*
X010867Y019507D01*
X010867Y019200D02*
X010560Y019200D01*
X003087Y020500D02*
X002780Y020500D01*
X002627Y020500D02*
X002320Y020960D01*
X002627Y020960D02*
X002320Y020500D01*
X002780Y020807D02*
X002934Y020960D01*
X002934Y020500D01*
X003011Y010460D02*
X002857Y010460D01*
X002780Y010384D01*
X002627Y010460D02*
X002320Y010000D01*
X002627Y010000D02*
X002320Y010460D01*
X002780Y010000D02*
X003087Y010307D01*
X003087Y010384D01*
X003011Y010460D01*
X003087Y010000D02*
X002780Y010000D01*
X008820Y006084D02*
X008820Y005777D01*
X008897Y005700D01*
X009050Y005700D01*
X009127Y005777D01*
X009127Y006084D01*
X009050Y006160D01*
X008897Y006160D01*
X008820Y006084D01*
X008973Y005853D02*
X009127Y005700D01*
X009280Y005777D02*
X009357Y005700D01*
X009511Y005700D01*
X009587Y005777D01*
X009587Y005853D01*
X009511Y005930D01*
X009434Y005930D01*
X009511Y005930D02*
X009587Y006007D01*
X009587Y006084D01*
X009511Y006160D01*
X009357Y006160D01*
X009280Y006084D01*
X019720Y006084D02*
X019720Y005777D01*
X019797Y005700D01*
X019950Y005700D01*
X020027Y005777D01*
X020027Y006084D01*
X019950Y006160D01*
X019797Y006160D01*
X019720Y006084D01*
X019873Y005853D02*
X020027Y005700D01*
X020180Y005930D02*
X020487Y005930D01*
X020411Y005700D02*
X020411Y006160D01*
X020180Y005930D01*
M02*
