G75*
%MOIN*%
%OFA0B0*%
%FSLAX24Y24*%
%IPPOS*%
%LPD*%
%AMOC8*
5,1,8,0,0,1.08239X$1,22.5*
%
%ADD10C,0.0740*%
%ADD11C,0.0472*%
%ADD12C,0.0787*%
%ADD13C,0.0480*%
%ADD14C,0.0800*%
%ADD15C,0.0765*%
%ADD16C,0.0120*%
%ADD17C,0.0160*%
D10*
X010300Y006580D03*
X011300Y006580D03*
X011300Y009580D03*
X010300Y009580D03*
X014500Y004580D03*
X015800Y004580D03*
X015800Y001580D03*
X014500Y001580D03*
X011200Y015780D03*
X010100Y015780D03*
X010100Y018780D03*
X011200Y018780D03*
X014600Y020680D03*
X015800Y020680D03*
X015800Y023680D03*
X014600Y023680D03*
D11*
X013300Y022680D03*
X013300Y021680D03*
X017200Y021780D03*
X017200Y022780D03*
X017200Y003580D03*
X017200Y002580D03*
X013200Y002680D03*
X013200Y003680D03*
D12*
X005933Y003358D02*
X005933Y002571D01*
X005146Y000996D02*
X004358Y000996D01*
X003453Y002571D02*
X003453Y003358D01*
D13*
X005200Y011040D02*
X005200Y011520D01*
X006200Y011520D02*
X006200Y011040D01*
X007200Y011040D02*
X007200Y011520D01*
X008200Y011520D02*
X008200Y011040D01*
X009200Y011040D02*
X009200Y011520D01*
X010200Y011520D02*
X010200Y011040D01*
X011200Y011040D02*
X011200Y011520D01*
X013600Y011520D02*
X013600Y011040D01*
X014600Y011040D02*
X014600Y011520D01*
X015600Y011520D02*
X015600Y011040D01*
X016600Y011040D02*
X016600Y011520D01*
X017600Y011520D02*
X017600Y011040D01*
X018600Y011040D02*
X018600Y011520D01*
X019600Y011520D02*
X019600Y011040D01*
X019600Y014040D02*
X019600Y014520D01*
X018600Y014520D02*
X018600Y014040D01*
X017600Y014040D02*
X017600Y014520D01*
X016600Y014520D02*
X016600Y014040D01*
X015600Y014040D02*
X015600Y014520D01*
X014600Y014520D02*
X014600Y014040D01*
X013600Y014040D02*
X013600Y014520D01*
X011200Y014520D02*
X011200Y014040D01*
X010200Y014040D02*
X010200Y014520D01*
X009200Y014520D02*
X009200Y014040D01*
X008200Y014040D02*
X008200Y014520D01*
X007200Y014520D02*
X007200Y014040D01*
X006200Y014040D02*
X006200Y014520D01*
X005200Y014520D02*
X005200Y014040D01*
D14*
X006800Y017330D03*
X006800Y018430D03*
X006800Y008030D03*
X006800Y006930D03*
D15*
X005300Y005480D03*
X003300Y007480D03*
X001300Y005480D03*
X001300Y009480D03*
X005300Y009480D03*
X007800Y005180D03*
X009800Y003180D03*
X007800Y001180D03*
X011800Y001180D03*
X011800Y005180D03*
X018700Y005180D03*
X020700Y003180D03*
X018700Y001180D03*
X022700Y001180D03*
X022700Y005180D03*
X022700Y020180D03*
X020700Y022180D03*
X018700Y020180D03*
X018700Y024180D03*
X022700Y024180D03*
X012000Y024180D03*
X010000Y022180D03*
X008000Y020180D03*
X005300Y019980D03*
X003300Y017980D03*
X001300Y015980D03*
X001300Y019980D03*
X005300Y015980D03*
X012000Y020180D03*
X008000Y024180D03*
D16*
X012000Y024180D01*
X012000Y023080D01*
X013300Y021780D01*
X013300Y021680D01*
X016100Y021680D01*
X017600Y020180D01*
X018700Y020180D01*
X022700Y020180D01*
X022700Y024180D01*
X018700Y024180D01*
X018600Y024180D01*
X017200Y022780D01*
X017200Y021780D02*
X015800Y023180D01*
X015800Y023680D01*
X014600Y023680D02*
X014300Y023680D01*
X013300Y022680D01*
X013300Y021680D02*
X013300Y021480D01*
X012000Y020180D01*
X008000Y020180D01*
X009800Y018780D02*
X009900Y018780D01*
X010100Y018780D01*
X011200Y018780D01*
X007200Y014280D02*
X006200Y014280D01*
X005300Y015980D02*
X001300Y015980D01*
X001300Y019980D01*
X005300Y019980D01*
X006200Y011280D02*
X007200Y011280D01*
X005300Y009480D02*
X001300Y009480D01*
X001300Y005480D01*
X005300Y005480D01*
X005350Y005480D01*
X006800Y006930D01*
X006250Y007480D02*
X006800Y008030D01*
X006250Y007480D02*
X003300Y007480D01*
X007800Y005180D02*
X011800Y005180D01*
X011300Y006580D02*
X010300Y006580D01*
X007800Y005180D02*
X007800Y001180D01*
X007900Y001280D01*
X011700Y001280D01*
X011800Y001180D01*
X011800Y001280D01*
X013200Y002680D01*
X014100Y003580D01*
X017200Y003580D01*
X017400Y003580D01*
X018300Y002680D01*
X018300Y001580D01*
X018700Y001180D01*
X022700Y001180D01*
X022700Y005180D01*
X018700Y005180D02*
X018700Y005080D01*
X017200Y003580D01*
X010300Y009580D02*
X010300Y010880D01*
X010200Y011280D01*
X007800Y001180D02*
X007616Y000996D01*
X004752Y000996D01*
D17*
X000630Y000410D02*
X000630Y024946D01*
X025140Y024946D01*
X025140Y000410D01*
X000630Y000410D01*
X000630Y000497D02*
X004073Y000497D01*
X004058Y000505D02*
X004138Y000464D01*
X004224Y000436D01*
X004313Y000422D01*
X004734Y000422D01*
X004734Y000977D01*
X004770Y000977D01*
X004770Y000422D01*
X005191Y000422D01*
X005280Y000436D01*
X005366Y000464D01*
X005446Y000505D01*
X005519Y000558D01*
X005583Y000622D01*
X005636Y000695D01*
X005677Y000776D01*
X005705Y000861D01*
X005719Y000951D01*
X005719Y000977D01*
X004770Y000977D01*
X004770Y001014D01*
X004734Y001014D01*
X004734Y001569D01*
X004313Y001569D01*
X004224Y001555D01*
X004138Y001527D01*
X004058Y001486D01*
X003985Y001433D01*
X003921Y001369D01*
X003868Y001296D01*
X003827Y001216D01*
X003799Y001130D01*
X003785Y001041D01*
X003785Y001014D01*
X004734Y001014D01*
X004734Y000977D01*
X003785Y000977D01*
X003785Y000951D01*
X003799Y000861D01*
X003827Y000776D01*
X003868Y000695D01*
X003921Y000622D01*
X003985Y000558D01*
X004058Y000505D01*
X003896Y000656D02*
X000630Y000656D01*
X000630Y000814D02*
X003814Y000814D01*
X003785Y000973D02*
X000630Y000973D01*
X000630Y001131D02*
X003799Y001131D01*
X003864Y001290D02*
X000630Y001290D01*
X000630Y001448D02*
X004005Y001448D01*
X003778Y002084D02*
X003567Y001997D01*
X003339Y001997D01*
X003128Y002084D01*
X002966Y002246D01*
X002879Y002456D01*
X002879Y003472D01*
X002966Y003683D01*
X003128Y003844D01*
X003339Y003932D01*
X003567Y003932D01*
X003778Y003844D01*
X003939Y003683D01*
X004026Y003472D01*
X004026Y002456D01*
X003939Y002246D01*
X003778Y002084D01*
X003772Y002082D02*
X005613Y002082D01*
X005608Y002084D02*
X005819Y001997D01*
X006047Y001997D01*
X006258Y002084D01*
X006419Y002246D01*
X006507Y002456D01*
X006507Y003472D01*
X006419Y003683D01*
X006258Y003844D01*
X006193Y003871D01*
X006193Y004605D01*
X007508Y005920D01*
X009952Y005920D01*
X010047Y005960D01*
X010139Y006051D01*
X010191Y006030D01*
X010409Y006030D01*
X010612Y006114D01*
X010766Y006268D01*
X010796Y006340D01*
X010804Y006340D01*
X010834Y006268D01*
X010988Y006114D01*
X011191Y006030D01*
X011409Y006030D01*
X011612Y006114D01*
X011766Y006268D01*
X011850Y006471D01*
X011850Y006689D01*
X011766Y006892D01*
X011612Y007046D01*
X011409Y007130D01*
X011191Y007130D01*
X010988Y007046D01*
X010834Y006892D01*
X010804Y006820D01*
X010796Y006820D01*
X010766Y006892D01*
X010612Y007046D01*
X010409Y007130D01*
X010191Y007130D01*
X009988Y007046D01*
X009834Y006892D01*
X009750Y006689D01*
X009750Y006471D01*
X009763Y006440D01*
X007348Y006440D01*
X007253Y006400D01*
X007180Y006327D01*
X005713Y004860D01*
X005673Y004765D01*
X005673Y003871D01*
X005608Y003844D01*
X005447Y003683D01*
X005359Y003472D01*
X005359Y002456D01*
X005447Y002246D01*
X005608Y002084D01*
X005452Y002241D02*
X003934Y002241D01*
X004003Y002399D02*
X005383Y002399D01*
X005359Y002558D02*
X004026Y002558D01*
X004026Y002716D02*
X005359Y002716D01*
X005359Y002875D02*
X004026Y002875D01*
X004026Y003033D02*
X005359Y003033D01*
X005359Y003192D02*
X004026Y003192D01*
X004026Y003350D02*
X005359Y003350D01*
X005374Y003509D02*
X004011Y003509D01*
X003946Y003667D02*
X005440Y003667D01*
X005589Y003826D02*
X003797Y003826D01*
X003109Y003826D02*
X000630Y003826D01*
X000630Y003984D02*
X005673Y003984D01*
X005673Y004143D02*
X000630Y004143D01*
X000630Y004301D02*
X005673Y004301D01*
X005673Y004460D02*
X000630Y004460D01*
X000630Y004618D02*
X005673Y004618D01*
X005678Y004777D02*
X000630Y004777D01*
X000630Y004935D02*
X001146Y004935D01*
X001188Y004918D02*
X001412Y004918D01*
X001619Y005003D01*
X001777Y005161D01*
X001809Y005240D01*
X004791Y005240D01*
X004823Y005161D01*
X004981Y005003D01*
X005188Y004918D01*
X005412Y004918D01*
X005619Y005003D01*
X005777Y005161D01*
X005862Y005368D01*
X005862Y005592D01*
X005845Y005635D01*
X006596Y006387D01*
X006685Y006350D01*
X006915Y006350D01*
X007129Y006438D01*
X007292Y006601D01*
X007380Y006815D01*
X007380Y007045D01*
X007352Y007114D01*
X007620Y007383D01*
X007660Y007478D01*
X007660Y009732D01*
X007620Y009827D01*
X007547Y009900D01*
X006582Y010865D01*
X006620Y010956D01*
X006620Y011040D01*
X006780Y011040D01*
X006780Y010956D01*
X006844Y010802D01*
X006962Y010684D01*
X007116Y010620D01*
X007284Y010620D01*
X007438Y010684D01*
X007556Y010802D01*
X007620Y010956D01*
X007620Y011604D01*
X007556Y011758D01*
X007438Y011876D01*
X007332Y011920D01*
X007792Y011920D01*
X007899Y011813D01*
X007844Y011758D01*
X007780Y011604D01*
X007780Y010956D01*
X007844Y010802D01*
X007962Y010684D01*
X008116Y010620D01*
X008284Y010620D01*
X008438Y010684D01*
X008556Y010802D01*
X008620Y010956D01*
X008620Y011604D01*
X008556Y011758D01*
X008460Y011854D01*
X008460Y011932D01*
X008420Y012027D01*
X008120Y012327D01*
X008047Y012400D01*
X007952Y012440D01*
X006048Y012440D01*
X005953Y012400D01*
X005431Y011879D01*
X005284Y011940D01*
X005116Y011940D01*
X004962Y011876D01*
X004844Y011758D01*
X004780Y011604D01*
X004780Y010956D01*
X004844Y010802D01*
X004962Y010684D01*
X005116Y010620D01*
X005284Y010620D01*
X005431Y010681D01*
X006540Y009572D01*
X006540Y008550D01*
X006471Y008522D01*
X006308Y008359D01*
X006220Y008145D01*
X006220Y007915D01*
X006257Y007826D01*
X006151Y007720D01*
X003809Y007720D01*
X003777Y007799D01*
X003619Y007957D01*
X003412Y008042D01*
X003188Y008042D01*
X002981Y007957D01*
X002823Y007799D01*
X002738Y007592D01*
X002738Y007368D01*
X002823Y007161D01*
X002981Y007003D01*
X003188Y006918D01*
X003412Y006918D01*
X003619Y007003D01*
X003777Y007161D01*
X003809Y007240D01*
X006298Y007240D01*
X006301Y007241D01*
X006220Y007045D01*
X006220Y006815D01*
X006257Y006726D01*
X005526Y005995D01*
X005412Y006042D01*
X005188Y006042D01*
X004981Y005957D01*
X004823Y005799D01*
X004791Y005720D01*
X001809Y005720D01*
X001777Y005799D01*
X001619Y005957D01*
X001540Y005989D01*
X001540Y008971D01*
X001619Y009003D01*
X001777Y009161D01*
X001809Y009240D01*
X004791Y009240D01*
X004823Y009161D01*
X004981Y009003D01*
X005188Y008918D01*
X005412Y008918D01*
X005619Y009003D01*
X005777Y009161D01*
X005862Y009368D01*
X005862Y009592D01*
X005777Y009799D01*
X005619Y009957D01*
X005412Y010042D01*
X005188Y010042D01*
X004981Y009957D01*
X004823Y009799D01*
X004791Y009720D01*
X001809Y009720D01*
X001777Y009799D01*
X001619Y009957D01*
X001412Y010042D01*
X001188Y010042D01*
X000981Y009957D01*
X000823Y009799D01*
X000738Y009592D01*
X000738Y009368D01*
X000823Y009161D01*
X000981Y009003D01*
X001060Y008971D01*
X001060Y005989D01*
X000981Y005957D01*
X000823Y005799D01*
X000738Y005592D01*
X000738Y005368D01*
X000823Y005161D01*
X000981Y005003D01*
X001188Y004918D01*
X001454Y004935D02*
X005146Y004935D01*
X004891Y005094D02*
X001709Y005094D01*
X001806Y005728D02*
X004794Y005728D01*
X004911Y005886D02*
X001689Y005886D01*
X001540Y006045D02*
X005575Y006045D01*
X005734Y006203D02*
X001540Y006203D01*
X001540Y006362D02*
X005892Y006362D01*
X006051Y006520D02*
X001540Y006520D01*
X001540Y006679D02*
X006209Y006679D01*
X006220Y006837D02*
X001540Y006837D01*
X001540Y006996D02*
X003000Y006996D01*
X002830Y007154D02*
X001540Y007154D01*
X001540Y007313D02*
X002761Y007313D01*
X002738Y007471D02*
X001540Y007471D01*
X001540Y007630D02*
X002753Y007630D01*
X002819Y007788D02*
X001540Y007788D01*
X001540Y007947D02*
X002971Y007947D01*
X003629Y007947D02*
X006220Y007947D01*
X006220Y008105D02*
X001540Y008105D01*
X001540Y008264D02*
X006269Y008264D01*
X006372Y008422D02*
X001540Y008422D01*
X001540Y008581D02*
X006540Y008581D01*
X006540Y008739D02*
X001540Y008739D01*
X001540Y008898D02*
X006540Y008898D01*
X006540Y009056D02*
X005672Y009056D01*
X005799Y009215D02*
X006540Y009215D01*
X006540Y009373D02*
X005862Y009373D01*
X005862Y009532D02*
X006540Y009532D01*
X006422Y009690D02*
X005822Y009690D01*
X005727Y009849D02*
X006264Y009849D01*
X006105Y010007D02*
X005498Y010007D01*
X005788Y010324D02*
X000630Y010324D01*
X000630Y010166D02*
X005947Y010166D01*
X005630Y010483D02*
X000630Y010483D01*
X000630Y010641D02*
X005066Y010641D01*
X005334Y010641D02*
X005471Y010641D01*
X005102Y010007D02*
X001498Y010007D01*
X001727Y009849D02*
X004873Y009849D01*
X004801Y009215D02*
X001799Y009215D01*
X001672Y009056D02*
X004928Y009056D01*
X003781Y007788D02*
X006219Y007788D01*
X006800Y008030D02*
X006800Y009680D01*
X005200Y011280D01*
X006100Y012180D01*
X007900Y012180D01*
X008200Y011880D01*
X008200Y011280D01*
X008620Y011275D02*
X008780Y011275D01*
X008780Y011280D02*
X008780Y011007D01*
X008790Y010942D01*
X008811Y010879D01*
X008841Y010820D01*
X008880Y010766D01*
X008926Y010720D01*
X008980Y010681D01*
X009039Y010651D01*
X009102Y010630D01*
X009167Y010620D01*
X009200Y010620D01*
X009233Y010620D01*
X009298Y010630D01*
X009361Y010651D01*
X009420Y010681D01*
X009474Y010720D01*
X009520Y010766D01*
X009559Y010820D01*
X009589Y010879D01*
X009610Y010942D01*
X009620Y011007D01*
X009620Y011280D01*
X009620Y011553D01*
X009610Y011618D01*
X009589Y011681D01*
X009559Y011740D01*
X009520Y011794D01*
X009474Y011840D01*
X009420Y011879D01*
X009361Y011909D01*
X009298Y011930D01*
X009233Y011940D01*
X009200Y011940D01*
X009200Y011280D01*
X009200Y011280D01*
X009620Y011280D01*
X009200Y011280D01*
X009200Y011280D01*
X009200Y011280D01*
X008780Y011280D01*
X008780Y011553D01*
X008790Y011618D01*
X008811Y011681D01*
X008841Y011740D01*
X008880Y011794D01*
X008926Y011840D01*
X008980Y011879D01*
X009039Y011909D01*
X009102Y011930D01*
X009167Y011940D01*
X009200Y011940D01*
X009200Y011280D01*
X009200Y010620D01*
X009200Y011280D01*
X009200Y011280D01*
X008780Y011280D01*
X008780Y011434D02*
X008620Y011434D01*
X008620Y011592D02*
X008786Y011592D01*
X008848Y011751D02*
X008559Y011751D01*
X008460Y011909D02*
X009038Y011909D01*
X009200Y011909D02*
X009200Y011909D01*
X009200Y011751D02*
X009200Y011751D01*
X009200Y011592D02*
X009200Y011592D01*
X009200Y011434D02*
X009200Y011434D01*
X009200Y011275D02*
X009200Y011275D01*
X009200Y011117D02*
X009200Y011117D01*
X009200Y010958D02*
X009200Y010958D01*
X009200Y010800D02*
X009200Y010800D01*
X009200Y010641D02*
X009200Y010641D01*
X009331Y010641D02*
X010060Y010641D01*
X010060Y010643D02*
X010060Y010076D01*
X009988Y010046D01*
X009834Y009892D01*
X009750Y009689D01*
X009750Y009471D01*
X009834Y009268D01*
X009988Y009114D01*
X010191Y009030D01*
X010409Y009030D01*
X010612Y009114D01*
X010766Y009268D01*
X010800Y009350D01*
X010834Y009268D01*
X010988Y009114D01*
X011191Y009030D01*
X011409Y009030D01*
X011612Y009114D01*
X011766Y009268D01*
X011850Y009471D01*
X011850Y009689D01*
X011766Y009892D01*
X011612Y010046D01*
X011560Y010068D01*
X011560Y010652D01*
X012180Y010033D01*
X012253Y009960D01*
X012348Y009920D01*
X013552Y009920D01*
X013647Y009960D01*
X014369Y010681D01*
X014516Y010620D01*
X014684Y010620D01*
X014838Y010684D01*
X014956Y010802D01*
X015020Y010956D01*
X015020Y011332D01*
X015180Y011492D01*
X015180Y010956D01*
X015244Y010802D01*
X015362Y010684D01*
X015516Y010620D01*
X015684Y010620D01*
X015838Y010684D01*
X015956Y010802D01*
X016020Y010956D01*
X016020Y011432D01*
X016180Y011592D01*
X016180Y011592D01*
X016180Y010956D01*
X016244Y010802D01*
X016362Y010684D01*
X016516Y010620D01*
X016684Y010620D01*
X016838Y010684D01*
X016956Y010802D01*
X017020Y010956D01*
X017020Y011604D01*
X016956Y011758D01*
X016838Y011876D01*
X016684Y011940D01*
X016528Y011940D01*
X017508Y012920D01*
X017802Y012920D01*
X017897Y012960D01*
X018247Y013310D01*
X018320Y013383D01*
X018360Y013478D01*
X018360Y013686D01*
X018362Y013684D01*
X018516Y013620D01*
X018684Y013620D01*
X018838Y013684D01*
X018956Y013802D01*
X019020Y013956D01*
X019020Y014604D01*
X018956Y014758D01*
X018838Y014876D01*
X018684Y014940D01*
X018516Y014940D01*
X018362Y014876D01*
X018360Y014874D01*
X018360Y015532D01*
X018320Y015627D01*
X018160Y015788D01*
X018160Y018632D01*
X018120Y018727D01*
X016329Y020519D01*
X016350Y020571D01*
X016350Y020789D01*
X016266Y020992D01*
X016112Y021146D01*
X015909Y021230D01*
X015691Y021230D01*
X015488Y021146D01*
X015334Y020992D01*
X015250Y020789D01*
X015250Y020571D01*
X015334Y020368D01*
X015488Y020214D01*
X015691Y020130D01*
X015909Y020130D01*
X015961Y020151D01*
X015960Y020151D01*
X015961Y020151D02*
X017640Y018472D01*
X017640Y015628D01*
X017680Y015533D01*
X017753Y015460D01*
X017840Y015372D01*
X017840Y014874D01*
X017838Y014876D01*
X017684Y014940D01*
X017516Y014940D01*
X017362Y014876D01*
X017244Y014758D01*
X017180Y014604D01*
X017180Y014228D01*
X017020Y014068D01*
X017020Y014604D01*
X016956Y014758D01*
X016838Y014876D01*
X016684Y014940D01*
X016516Y014940D01*
X016362Y014876D01*
X016244Y014758D01*
X016180Y014604D01*
X016180Y013956D01*
X016244Y013802D01*
X016362Y013684D01*
X016516Y013620D01*
X016572Y013620D01*
X014831Y011879D01*
X014684Y011940D01*
X014516Y011940D01*
X014362Y011876D01*
X014244Y011758D01*
X014180Y011604D01*
X014180Y011228D01*
X014020Y011068D01*
X014020Y011604D01*
X013956Y011758D01*
X013838Y011876D01*
X013684Y011940D01*
X013516Y011940D01*
X013362Y011876D01*
X013244Y011758D01*
X013180Y011604D01*
X013180Y010956D01*
X013244Y010802D01*
X013362Y010684D01*
X013516Y010620D01*
X013572Y010620D01*
X013392Y010440D01*
X012508Y010440D01*
X011620Y011328D01*
X011620Y011604D01*
X011556Y011758D01*
X011438Y011876D01*
X011284Y011940D01*
X011116Y011940D01*
X010962Y011876D01*
X010844Y011758D01*
X010780Y011604D01*
X010780Y010956D01*
X010844Y010802D01*
X010962Y010684D01*
X011040Y010652D01*
X011040Y010068D01*
X010988Y010046D01*
X010834Y009892D01*
X010800Y009810D01*
X010766Y009892D01*
X010612Y010046D01*
X010540Y010076D01*
X010540Y010786D01*
X010556Y010802D01*
X010620Y010956D01*
X010620Y011604D01*
X010556Y011758D01*
X010460Y011854D01*
X010460Y012872D01*
X010508Y012920D01*
X013552Y012920D01*
X013647Y012960D01*
X014369Y013681D01*
X014516Y013620D01*
X014684Y013620D01*
X014838Y013684D01*
X014956Y013802D01*
X015020Y013956D01*
X015020Y014604D01*
X014956Y014758D01*
X014838Y014876D01*
X014684Y014940D01*
X014516Y014940D01*
X014362Y014876D01*
X014244Y014758D01*
X014180Y014604D01*
X014180Y014228D01*
X014020Y014068D01*
X014020Y014604D01*
X013956Y014758D01*
X013838Y014876D01*
X013684Y014940D01*
X013516Y014940D01*
X013362Y014876D01*
X013244Y014758D01*
X013180Y014604D01*
X013180Y013956D01*
X013244Y013802D01*
X013362Y013684D01*
X013516Y013620D01*
X013572Y013620D01*
X013392Y013440D01*
X010348Y013440D01*
X010253Y013400D01*
X010180Y013327D01*
X009980Y013127D01*
X009940Y013032D01*
X009940Y011854D01*
X009844Y011758D01*
X009780Y011604D01*
X009780Y010956D01*
X009844Y010802D01*
X009962Y010684D01*
X010060Y010643D01*
X010060Y010483D02*
X006965Y010483D01*
X007066Y010641D02*
X006807Y010641D01*
X006847Y010800D02*
X006648Y010800D01*
X006620Y010958D02*
X006780Y010958D01*
X006200Y010880D02*
X007400Y009680D01*
X007400Y007530D01*
X006800Y006930D01*
X007210Y006520D02*
X009750Y006520D01*
X009750Y006679D02*
X007324Y006679D01*
X007380Y006837D02*
X009811Y006837D01*
X009938Y006996D02*
X007380Y006996D01*
X007392Y007154D02*
X020506Y007154D01*
X020348Y006996D02*
X011662Y006996D01*
X011789Y006837D02*
X016389Y006837D01*
X016453Y006900D02*
X014661Y005109D01*
X014609Y005130D01*
X014391Y005130D01*
X014188Y005046D01*
X014034Y004892D01*
X013950Y004689D01*
X013950Y004471D01*
X014034Y004268D01*
X014188Y004114D01*
X014391Y004030D01*
X014609Y004030D01*
X014812Y004114D01*
X014966Y004268D01*
X015050Y004471D01*
X015050Y004689D01*
X015029Y004741D01*
X016708Y006420D01*
X020452Y006420D01*
X020547Y006460D01*
X020620Y006533D01*
X021620Y007533D01*
X021660Y007628D01*
X021660Y011732D01*
X021620Y011827D01*
X019860Y013588D01*
X019860Y013706D01*
X019956Y013802D01*
X020020Y013956D01*
X020020Y014604D01*
X019956Y014758D01*
X019838Y014876D01*
X019684Y014940D01*
X019516Y014940D01*
X019362Y014876D01*
X019244Y014758D01*
X019180Y014604D01*
X019180Y013956D01*
X019244Y013802D01*
X019340Y013706D01*
X019340Y013428D01*
X019380Y013333D01*
X021140Y011572D01*
X021140Y007788D01*
X007660Y007788D01*
X007660Y007630D02*
X020982Y007630D01*
X021140Y007788D02*
X020292Y006940D01*
X016548Y006940D01*
X016453Y006900D01*
X016600Y006680D02*
X014500Y004580D01*
X014077Y004935D02*
X012306Y004935D01*
X012321Y004964D02*
X012349Y005048D01*
X012362Y005132D01*
X011848Y005132D01*
X011848Y005228D01*
X012362Y005228D01*
X012349Y005312D01*
X012321Y005396D01*
X012281Y005475D01*
X012229Y005546D01*
X012166Y005609D01*
X012095Y005661D01*
X012016Y005701D01*
X011932Y005729D01*
X011848Y005742D01*
X011848Y005228D01*
X011752Y005228D01*
X011752Y005742D01*
X011668Y005729D01*
X011584Y005701D01*
X011505Y005661D01*
X011434Y005609D01*
X011371Y005546D01*
X011319Y005475D01*
X011279Y005396D01*
X011251Y005312D01*
X011238Y005228D01*
X011752Y005228D01*
X011752Y005132D01*
X011848Y005132D01*
X011848Y004618D01*
X011932Y004631D01*
X012016Y004659D01*
X012095Y004699D01*
X012166Y004751D01*
X012229Y004814D01*
X012281Y004885D01*
X012321Y004964D01*
X012356Y005094D02*
X014303Y005094D01*
X013986Y004777D02*
X012192Y004777D01*
X011848Y004777D02*
X011752Y004777D01*
X011752Y004935D02*
X011848Y004935D01*
X011848Y005094D02*
X011752Y005094D01*
X011752Y005132D02*
X011752Y004618D01*
X011668Y004631D01*
X011584Y004659D01*
X011505Y004699D01*
X011434Y004751D01*
X011371Y004814D01*
X011319Y004885D01*
X011279Y004964D01*
X011251Y005048D01*
X011238Y005132D01*
X011752Y005132D01*
X011752Y005252D02*
X011848Y005252D01*
X011848Y005411D02*
X011752Y005411D01*
X011752Y005569D02*
X011848Y005569D01*
X011848Y005728D02*
X011752Y005728D01*
X011665Y005728D02*
X007935Y005728D01*
X007932Y005729D02*
X007848Y005742D01*
X007848Y005228D01*
X008362Y005228D01*
X008349Y005312D01*
X008321Y005396D01*
X008281Y005475D01*
X008229Y005546D01*
X008166Y005609D01*
X008095Y005661D01*
X008016Y005701D01*
X007932Y005729D01*
X007848Y005728D02*
X007752Y005728D01*
X007752Y005742D02*
X007668Y005729D01*
X007584Y005701D01*
X007505Y005661D01*
X007434Y005609D01*
X007371Y005546D01*
X007319Y005475D01*
X007279Y005396D01*
X007251Y005312D01*
X007238Y005228D01*
X007752Y005228D01*
X007752Y005742D01*
X007665Y005728D02*
X007315Y005728D01*
X007394Y005569D02*
X007157Y005569D01*
X007286Y005411D02*
X006998Y005411D01*
X006840Y005252D02*
X007242Y005252D01*
X007238Y005132D02*
X007251Y005048D01*
X007279Y004964D01*
X007319Y004885D01*
X007371Y004814D01*
X007434Y004751D01*
X007505Y004699D01*
X007584Y004659D01*
X007668Y004631D01*
X007752Y004618D01*
X007752Y005132D01*
X007848Y005132D01*
X007848Y005228D01*
X007752Y005228D01*
X007752Y005132D01*
X007238Y005132D01*
X007244Y005094D02*
X006681Y005094D01*
X006523Y004935D02*
X007294Y004935D01*
X007408Y004777D02*
X006364Y004777D01*
X006206Y004618D02*
X013950Y004618D01*
X013955Y004460D02*
X006193Y004460D01*
X006193Y004301D02*
X014020Y004301D01*
X014160Y004143D02*
X006193Y004143D01*
X006193Y003984D02*
X012915Y003984D01*
X012964Y004033D02*
X012847Y003916D01*
X012784Y003763D01*
X012784Y003597D01*
X012847Y003444D01*
X012964Y003327D01*
X013117Y003264D01*
X013283Y003264D01*
X013436Y003327D01*
X013553Y003444D01*
X013616Y003597D01*
X013616Y003763D01*
X013553Y003916D01*
X013436Y004033D01*
X013283Y004096D01*
X013117Y004096D01*
X012964Y004033D01*
X012810Y003826D02*
X006277Y003826D01*
X006426Y003667D02*
X009506Y003667D01*
X009481Y003657D02*
X009323Y003499D01*
X009238Y003292D01*
X009238Y003068D01*
X009323Y002861D01*
X009481Y002703D01*
X009688Y002618D01*
X009912Y002618D01*
X010119Y002703D01*
X010277Y002861D01*
X010362Y003068D01*
X010362Y003292D01*
X010277Y003499D01*
X010119Y003657D01*
X009912Y003742D01*
X009688Y003742D01*
X009481Y003657D01*
X009333Y003509D02*
X006492Y003509D01*
X006507Y003350D02*
X009262Y003350D01*
X009238Y003192D02*
X006507Y003192D01*
X006507Y003033D02*
X009252Y003033D01*
X009318Y002875D02*
X006507Y002875D01*
X006507Y002716D02*
X009469Y002716D01*
X010131Y002716D02*
X012784Y002716D01*
X012784Y002713D02*
X012784Y002680D01*
X012784Y002647D01*
X012794Y002583D01*
X012814Y002520D01*
X012844Y002462D01*
X012883Y002409D01*
X012929Y002363D01*
X012982Y002324D01*
X013040Y002294D01*
X013103Y002274D01*
X013167Y002264D01*
X013200Y002264D01*
X013233Y002264D01*
X013297Y002274D01*
X013360Y002294D01*
X013418Y002324D01*
X013471Y002363D01*
X013517Y002409D01*
X013556Y002462D01*
X013586Y002520D01*
X013606Y002583D01*
X013616Y002647D01*
X013616Y002680D01*
X013616Y002713D01*
X013606Y002777D01*
X013586Y002840D01*
X013556Y002898D01*
X013517Y002951D01*
X013471Y002997D01*
X013418Y003036D01*
X013360Y003066D01*
X013297Y003086D01*
X013233Y003096D01*
X013200Y003096D01*
X013167Y003096D01*
X013103Y003086D01*
X013040Y003066D01*
X012982Y003036D01*
X012929Y002997D01*
X012883Y002951D01*
X012844Y002898D01*
X012814Y002840D01*
X012794Y002777D01*
X012784Y002713D01*
X012784Y002680D02*
X013200Y002680D01*
X013200Y002680D01*
X013200Y003096D01*
X013200Y002680D01*
X013616Y002680D01*
X013200Y002680D01*
X013200Y002680D01*
X013200Y002680D01*
X013200Y002264D01*
X013200Y002680D01*
X013200Y002680D01*
X012784Y002680D01*
X012802Y002558D02*
X006507Y002558D01*
X006483Y002399D02*
X012892Y002399D01*
X013200Y002399D02*
X013200Y002399D01*
X013200Y002558D02*
X013200Y002558D01*
X013200Y002716D02*
X013200Y002716D01*
X013200Y002875D02*
X013200Y002875D01*
X013200Y003033D02*
X013200Y003033D01*
X012978Y003033D02*
X010348Y003033D01*
X010362Y003192D02*
X017049Y003192D01*
X017040Y003194D02*
X017103Y003174D01*
X017167Y003164D01*
X017200Y003164D01*
X017233Y003164D01*
X017297Y003174D01*
X017360Y003194D01*
X017418Y003224D01*
X017471Y003263D01*
X017517Y003309D01*
X017556Y003362D01*
X017586Y003420D01*
X017606Y003483D01*
X017616Y003547D01*
X017616Y003580D01*
X017616Y003613D01*
X017606Y003677D01*
X017586Y003740D01*
X017556Y003798D01*
X017517Y003851D01*
X017471Y003897D01*
X017418Y003936D01*
X017360Y003966D01*
X017297Y003986D01*
X017233Y003996D01*
X017200Y003996D01*
X017167Y003996D01*
X017103Y003986D01*
X017040Y003966D01*
X016982Y003936D01*
X016929Y003897D01*
X016883Y003851D01*
X016844Y003798D01*
X016814Y003740D01*
X016794Y003677D01*
X016784Y003613D01*
X016784Y003580D01*
X016784Y003547D01*
X016794Y003483D01*
X016814Y003420D01*
X016844Y003362D01*
X016883Y003309D01*
X016929Y003263D01*
X016982Y003224D01*
X017040Y003194D01*
X017200Y003192D02*
X017200Y003192D01*
X017200Y003164D02*
X017200Y003580D01*
X017200Y003580D01*
X017200Y003996D01*
X017200Y003580D01*
X017616Y003580D01*
X017200Y003580D01*
X017200Y003580D01*
X017200Y003580D01*
X016784Y003580D01*
X017200Y003580D01*
X017200Y003580D01*
X017200Y003164D01*
X017351Y003192D02*
X020138Y003192D01*
X020138Y003292D02*
X020138Y003068D01*
X020223Y002861D01*
X020381Y002703D01*
X020588Y002618D01*
X020812Y002618D01*
X021019Y002703D01*
X021177Y002861D01*
X021262Y003068D01*
X021262Y003292D01*
X021177Y003499D01*
X021019Y003657D01*
X020812Y003742D01*
X020588Y003742D01*
X020381Y003657D01*
X020223Y003499D01*
X020138Y003292D01*
X020162Y003350D02*
X017547Y003350D01*
X017610Y003509D02*
X020233Y003509D01*
X020406Y003667D02*
X017608Y003667D01*
X017536Y003826D02*
X025140Y003826D01*
X025140Y003984D02*
X017304Y003984D01*
X017200Y003984D02*
X017200Y003984D01*
X017096Y003984D02*
X013485Y003984D01*
X013590Y003826D02*
X016864Y003826D01*
X016792Y003667D02*
X013616Y003667D01*
X013579Y003509D02*
X016790Y003509D01*
X016853Y003350D02*
X013459Y003350D01*
X013422Y003033D02*
X020152Y003033D01*
X020218Y002875D02*
X017494Y002875D01*
X017436Y002933D02*
X017283Y002996D01*
X017117Y002996D01*
X016964Y002933D01*
X016847Y002816D01*
X016784Y002663D01*
X016784Y002497D01*
X016847Y002344D01*
X016964Y002227D01*
X017117Y002164D01*
X017283Y002164D01*
X017436Y002227D01*
X017553Y002344D01*
X017616Y002497D01*
X017616Y002663D01*
X017553Y002816D01*
X017436Y002933D01*
X017594Y002716D02*
X020369Y002716D01*
X021031Y002716D02*
X025140Y002716D01*
X025140Y002558D02*
X017616Y002558D01*
X017576Y002399D02*
X025140Y002399D01*
X025140Y002241D02*
X017449Y002241D01*
X016951Y002241D02*
X006414Y002241D01*
X006253Y002082D02*
X014275Y002082D01*
X014188Y002046D02*
X014034Y001892D01*
X013950Y001689D01*
X013950Y001471D01*
X014034Y001268D01*
X014188Y001114D01*
X014391Y001030D01*
X014609Y001030D01*
X014812Y001114D01*
X014966Y001268D01*
X015050Y001471D01*
X015050Y001689D01*
X014966Y001892D01*
X014812Y002046D01*
X014609Y002130D01*
X014391Y002130D01*
X014188Y002046D01*
X014066Y001924D02*
X000630Y001924D01*
X000630Y002082D02*
X003133Y002082D01*
X002971Y002241D02*
X000630Y002241D01*
X000630Y002399D02*
X002903Y002399D01*
X002879Y002558D02*
X000630Y002558D01*
X000630Y002716D02*
X002879Y002716D01*
X002879Y002875D02*
X000630Y002875D01*
X000630Y003033D02*
X002879Y003033D01*
X002879Y003192D02*
X000630Y003192D01*
X000630Y003350D02*
X002879Y003350D01*
X002894Y003509D02*
X000630Y003509D01*
X000630Y003667D02*
X002960Y003667D01*
X000891Y005094D02*
X000630Y005094D01*
X000630Y005252D02*
X000786Y005252D01*
X000738Y005411D02*
X000630Y005411D01*
X000630Y005569D02*
X000738Y005569D01*
X000794Y005728D02*
X000630Y005728D01*
X000630Y005886D02*
X000911Y005886D01*
X001060Y006045D02*
X000630Y006045D01*
X000630Y006203D02*
X001060Y006203D01*
X001060Y006362D02*
X000630Y006362D01*
X000630Y006520D02*
X001060Y006520D01*
X001060Y006679D02*
X000630Y006679D01*
X000630Y006837D02*
X001060Y006837D01*
X001060Y006996D02*
X000630Y006996D01*
X000630Y007154D02*
X001060Y007154D01*
X001060Y007313D02*
X000630Y007313D01*
X000630Y007471D02*
X001060Y007471D01*
X001060Y007630D02*
X000630Y007630D01*
X000630Y007788D02*
X001060Y007788D01*
X001060Y007947D02*
X000630Y007947D01*
X000630Y008105D02*
X001060Y008105D01*
X001060Y008264D02*
X000630Y008264D01*
X000630Y008422D02*
X001060Y008422D01*
X001060Y008581D02*
X000630Y008581D01*
X000630Y008739D02*
X001060Y008739D01*
X001060Y008898D02*
X000630Y008898D01*
X000630Y009056D02*
X000928Y009056D01*
X000801Y009215D02*
X000630Y009215D01*
X000630Y009373D02*
X000738Y009373D01*
X000738Y009532D02*
X000630Y009532D01*
X000630Y009690D02*
X000778Y009690D01*
X000873Y009849D02*
X000630Y009849D01*
X000630Y010007D02*
X001102Y010007D01*
X000630Y010800D02*
X004847Y010800D01*
X004780Y010958D02*
X000630Y010958D01*
X000630Y011117D02*
X004780Y011117D01*
X004780Y011275D02*
X000630Y011275D01*
X000630Y011434D02*
X004780Y011434D01*
X004780Y011592D02*
X000630Y011592D01*
X000630Y011751D02*
X004841Y011751D01*
X005042Y011909D02*
X000630Y011909D01*
X000630Y012068D02*
X005620Y012068D01*
X005778Y012226D02*
X000630Y012226D01*
X000630Y012385D02*
X005937Y012385D01*
X005848Y012920D02*
X007152Y012920D01*
X007247Y012960D01*
X007969Y013681D01*
X008116Y013620D01*
X008284Y013620D01*
X008438Y013684D01*
X008556Y013802D01*
X008620Y013956D01*
X008620Y014604D01*
X008556Y014758D01*
X008438Y014876D01*
X008284Y014940D01*
X008160Y014940D01*
X008160Y017732D01*
X008120Y017827D01*
X008047Y017900D01*
X007364Y018583D01*
X007292Y018759D01*
X007129Y018922D01*
X006915Y019010D01*
X006685Y019010D01*
X006471Y018922D01*
X006308Y018759D01*
X006280Y018690D01*
X003698Y018690D01*
X003603Y018650D01*
X003471Y018518D01*
X003412Y018542D01*
X003188Y018542D01*
X002981Y018457D01*
X002823Y018299D01*
X002738Y018092D01*
X002738Y017868D01*
X002823Y017661D01*
X002981Y017503D01*
X003188Y017418D01*
X003412Y017418D01*
X003619Y017503D01*
X003777Y017661D01*
X003862Y017868D01*
X003862Y018092D01*
X003838Y018151D01*
X003858Y018170D01*
X006280Y018170D01*
X006308Y018101D01*
X006471Y017938D01*
X006612Y017880D01*
X006471Y017822D01*
X006308Y017659D01*
X006220Y017445D01*
X006220Y017215D01*
X006248Y017146D01*
X005577Y016474D01*
X005412Y016542D01*
X005188Y016542D01*
X004981Y016457D01*
X004823Y016299D01*
X004791Y016220D01*
X001809Y016220D01*
X001777Y016299D01*
X001619Y016457D01*
X001540Y016489D01*
X001540Y019471D01*
X001619Y019503D01*
X001777Y019661D01*
X001809Y019740D01*
X004791Y019740D01*
X004823Y019661D01*
X004981Y019503D01*
X005188Y019418D01*
X005412Y019418D01*
X005619Y019503D01*
X005777Y019661D01*
X005862Y019868D01*
X005862Y020092D01*
X005777Y020299D01*
X005619Y020457D01*
X005412Y020542D01*
X005188Y020542D01*
X004981Y020457D01*
X004823Y020299D01*
X004791Y020220D01*
X001809Y020220D01*
X001777Y020299D01*
X001619Y020457D01*
X001412Y020542D01*
X001188Y020542D01*
X000981Y020457D01*
X000823Y020299D01*
X000738Y020092D01*
X000738Y019868D01*
X000823Y019661D01*
X000981Y019503D01*
X001060Y019471D01*
X001060Y016489D01*
X000981Y016457D01*
X000823Y016299D01*
X000738Y016092D01*
X000738Y015868D01*
X000823Y015661D01*
X000981Y015503D01*
X001188Y015418D01*
X001412Y015418D01*
X001619Y015503D01*
X001777Y015661D01*
X001809Y015740D01*
X004791Y015740D01*
X004823Y015661D01*
X004981Y015503D01*
X005188Y015418D01*
X005412Y015418D01*
X005619Y015503D01*
X005777Y015661D01*
X005862Y015868D01*
X005862Y016025D01*
X006616Y016778D01*
X006640Y016768D01*
X006640Y016288D01*
X005980Y015627D01*
X005940Y015532D01*
X005940Y014854D01*
X005844Y014758D01*
X005780Y014604D01*
X005780Y013956D01*
X005844Y013802D01*
X005962Y013684D01*
X006116Y013620D01*
X006284Y013620D01*
X006438Y013684D01*
X006556Y013802D01*
X006620Y013956D01*
X006620Y014040D01*
X006780Y014040D01*
X006780Y013956D01*
X006844Y013802D01*
X006962Y013684D01*
X007116Y013620D01*
X007172Y013620D01*
X006992Y013440D01*
X006008Y013440D01*
X005582Y013865D01*
X005620Y013956D01*
X005620Y014604D01*
X005556Y014758D01*
X005438Y014876D01*
X005284Y014940D01*
X005116Y014940D01*
X004962Y014876D01*
X004844Y014758D01*
X004780Y014604D01*
X004780Y013956D01*
X004844Y013802D01*
X004962Y013684D01*
X005075Y013637D01*
X005680Y013033D01*
X005753Y012960D01*
X005848Y012920D01*
X005694Y013019D02*
X000630Y013019D01*
X000630Y013177D02*
X005535Y013177D01*
X005377Y013336D02*
X000630Y013336D01*
X000630Y013494D02*
X005218Y013494D01*
X005038Y013653D02*
X000630Y013653D01*
X000630Y013811D02*
X004840Y013811D01*
X004780Y013970D02*
X000630Y013970D01*
X000630Y014128D02*
X004780Y014128D01*
X004780Y014287D02*
X000630Y014287D01*
X000630Y014445D02*
X004780Y014445D01*
X004780Y014604D02*
X000630Y014604D01*
X000630Y014762D02*
X004848Y014762D01*
X005069Y014921D02*
X000630Y014921D01*
X000630Y015079D02*
X005940Y015079D01*
X005940Y014921D02*
X005331Y014921D01*
X005552Y014762D02*
X005848Y014762D01*
X005780Y014604D02*
X005620Y014604D01*
X005620Y014445D02*
X005780Y014445D01*
X005780Y014287D02*
X005620Y014287D01*
X005620Y014128D02*
X005780Y014128D01*
X005780Y013970D02*
X005620Y013970D01*
X005637Y013811D02*
X005840Y013811D01*
X005795Y013653D02*
X006038Y013653D01*
X005954Y013494D02*
X007046Y013494D01*
X007038Y013653D02*
X006362Y013653D01*
X006560Y013811D02*
X006840Y013811D01*
X006780Y013970D02*
X006620Y013970D01*
X006200Y014280D02*
X006200Y015480D01*
X006900Y016180D01*
X006900Y017230D01*
X006800Y017330D01*
X005450Y015980D01*
X005300Y015980D01*
X004872Y016347D02*
X001728Y016347D01*
X001540Y016506D02*
X005099Y016506D01*
X005501Y016506D02*
X005608Y016506D01*
X005766Y016664D02*
X001540Y016664D01*
X001540Y016823D02*
X005925Y016823D01*
X006083Y016981D02*
X001540Y016981D01*
X001540Y017140D02*
X006242Y017140D01*
X006220Y017298D02*
X001540Y017298D01*
X001540Y017457D02*
X003094Y017457D01*
X002869Y017615D02*
X001540Y017615D01*
X001540Y017774D02*
X002777Y017774D01*
X002738Y017932D02*
X001540Y017932D01*
X001540Y018091D02*
X002738Y018091D01*
X002803Y018249D02*
X001540Y018249D01*
X001540Y018408D02*
X002932Y018408D01*
X003300Y017980D02*
X003750Y018430D01*
X006800Y018430D01*
X007150Y018430D01*
X007900Y017680D01*
X007900Y014580D01*
X008200Y014280D01*
X007100Y013180D01*
X005900Y013180D01*
X005200Y013880D01*
X005200Y014280D01*
X005940Y015238D02*
X000630Y015238D01*
X000630Y015396D02*
X005940Y015396D01*
X005949Y015555D02*
X005670Y015555D01*
X005798Y015713D02*
X006065Y015713D01*
X006224Y015872D02*
X005862Y015872D01*
X005868Y016030D02*
X006382Y016030D01*
X006541Y016189D02*
X006026Y016189D01*
X006185Y016347D02*
X006640Y016347D01*
X006640Y016506D02*
X006343Y016506D01*
X006502Y016664D02*
X006640Y016664D01*
X006225Y017457D02*
X003506Y017457D01*
X003731Y017615D02*
X006290Y017615D01*
X006423Y017774D02*
X003823Y017774D01*
X003862Y017932D02*
X006487Y017932D01*
X006319Y018091D02*
X003862Y018091D01*
X003518Y018566D02*
X001540Y018566D01*
X001540Y018725D02*
X006294Y018725D01*
X006433Y018883D02*
X001540Y018883D01*
X001540Y019042D02*
X009613Y019042D01*
X009634Y019092D02*
X009550Y018889D01*
X009550Y018798D01*
X008980Y018227D01*
X008940Y018132D01*
X008940Y014854D01*
X008844Y014758D01*
X008780Y014604D01*
X008780Y013956D01*
X008844Y013802D01*
X008962Y013684D01*
X009116Y013620D01*
X009284Y013620D01*
X009438Y013684D01*
X009556Y013802D01*
X009620Y013956D01*
X009620Y014604D01*
X009556Y014758D01*
X009460Y014854D01*
X009460Y017972D01*
X009798Y018310D01*
X009991Y018230D01*
X010209Y018230D01*
X010412Y018314D01*
X010566Y018468D01*
X010596Y018540D01*
X010704Y018540D01*
X010734Y018468D01*
X010888Y018314D01*
X011091Y018230D01*
X011309Y018230D01*
X011512Y018314D01*
X011666Y018468D01*
X011750Y018671D01*
X011750Y018889D01*
X011666Y019092D01*
X011512Y019246D01*
X011309Y019330D01*
X011091Y019330D01*
X010888Y019246D01*
X010734Y019092D01*
X010704Y019020D01*
X010596Y019020D01*
X010566Y019092D01*
X010412Y019246D01*
X010209Y019330D01*
X009991Y019330D01*
X009788Y019246D01*
X009634Y019092D01*
X009742Y019200D02*
X001540Y019200D01*
X001540Y019359D02*
X016754Y019359D01*
X016595Y019517D02*
X005633Y019517D01*
X005783Y019676D02*
X007751Y019676D01*
X007784Y019659D02*
X007868Y019631D01*
X007952Y019618D01*
X007952Y020132D01*
X008048Y020132D01*
X008048Y020228D01*
X008562Y020228D01*
X008549Y020312D01*
X008521Y020396D01*
X008481Y020475D01*
X008429Y020546D01*
X008366Y020609D01*
X008295Y020661D01*
X008216Y020701D01*
X008132Y020729D01*
X008048Y020742D01*
X008048Y020228D01*
X007952Y020228D01*
X007952Y020742D01*
X007868Y020729D01*
X007784Y020701D01*
X007705Y020661D01*
X007634Y020609D01*
X007571Y020546D01*
X007519Y020475D01*
X007479Y020396D01*
X007451Y020312D01*
X007438Y020228D01*
X007952Y020228D01*
X007952Y020132D01*
X007438Y020132D01*
X007451Y020048D01*
X007479Y019964D01*
X007519Y019885D01*
X007571Y019814D01*
X007634Y019751D01*
X007705Y019699D01*
X007784Y019659D01*
X007952Y019676D02*
X008048Y019676D01*
X008048Y019618D02*
X008132Y019631D01*
X008216Y019659D01*
X008295Y019699D01*
X008366Y019751D01*
X008429Y019814D01*
X008481Y019885D01*
X008521Y019964D01*
X008549Y020048D01*
X008562Y020132D01*
X008048Y020132D01*
X008048Y019618D01*
X008249Y019676D02*
X011751Y019676D01*
X011784Y019659D02*
X011705Y019699D01*
X011634Y019751D01*
X011571Y019814D01*
X011519Y019885D01*
X011479Y019964D01*
X011451Y020048D01*
X011438Y020132D01*
X011952Y020132D01*
X012048Y020132D01*
X012048Y020228D01*
X012562Y020228D01*
X012549Y020312D01*
X012521Y020396D01*
X012481Y020475D01*
X012429Y020546D01*
X012366Y020609D01*
X012295Y020661D01*
X012216Y020701D01*
X012132Y020729D01*
X012048Y020742D01*
X012048Y020228D01*
X011952Y020228D01*
X011952Y020742D01*
X011868Y020729D01*
X011784Y020701D01*
X011705Y020661D01*
X011634Y020609D01*
X011571Y020546D01*
X011519Y020475D01*
X011479Y020396D01*
X011451Y020312D01*
X011438Y020228D01*
X011952Y020228D01*
X011952Y020132D01*
X011952Y019618D01*
X011868Y019631D01*
X011784Y019659D01*
X011952Y019676D02*
X012048Y019676D01*
X012048Y019618D02*
X012132Y019631D01*
X012216Y019659D01*
X012295Y019699D01*
X012366Y019751D01*
X012429Y019814D01*
X012481Y019885D01*
X012521Y019964D01*
X012549Y020048D01*
X012562Y020132D01*
X012048Y020132D01*
X012048Y019618D01*
X012249Y019676D02*
X016437Y019676D01*
X016278Y019834D02*
X012444Y019834D01*
X012531Y019993D02*
X016120Y019993D01*
X015640Y020151D02*
X014760Y020151D01*
X014709Y020130D02*
X014912Y020214D01*
X015066Y020368D01*
X015150Y020571D01*
X015150Y020789D01*
X015066Y020992D01*
X014912Y021146D01*
X014709Y021230D01*
X014491Y021230D01*
X014288Y021146D01*
X014134Y020992D01*
X014050Y020789D01*
X014050Y020571D01*
X014134Y020368D01*
X014288Y020214D01*
X014491Y020130D01*
X014709Y020130D01*
X014440Y020151D02*
X012048Y020151D01*
X011952Y020151D02*
X008048Y020151D01*
X007952Y020151D02*
X005838Y020151D01*
X005862Y019993D02*
X007469Y019993D01*
X007556Y019834D02*
X005848Y019834D01*
X005766Y020310D02*
X007451Y020310D01*
X007515Y020468D02*
X005592Y020468D01*
X005008Y020468D02*
X001592Y020468D01*
X001766Y020310D02*
X004834Y020310D01*
X004817Y019676D02*
X001783Y019676D01*
X001633Y019517D02*
X004967Y019517D01*
X007167Y018883D02*
X009550Y018883D01*
X009477Y018725D02*
X007306Y018725D01*
X007382Y018566D02*
X009318Y018566D01*
X009160Y018408D02*
X007540Y018408D01*
X007699Y018249D02*
X009001Y018249D01*
X008940Y018091D02*
X007857Y018091D01*
X008016Y017932D02*
X008940Y017932D01*
X008940Y017774D02*
X008143Y017774D01*
X008160Y017615D02*
X008940Y017615D01*
X008940Y017457D02*
X008160Y017457D01*
X008160Y017298D02*
X008940Y017298D01*
X008940Y017140D02*
X008160Y017140D01*
X008160Y016981D02*
X008940Y016981D01*
X008940Y016823D02*
X008160Y016823D01*
X008160Y016664D02*
X008940Y016664D01*
X008940Y016506D02*
X008160Y016506D01*
X008160Y016347D02*
X008940Y016347D01*
X008940Y016189D02*
X008160Y016189D01*
X008160Y016030D02*
X008940Y016030D01*
X008940Y015872D02*
X008160Y015872D01*
X008160Y015713D02*
X008940Y015713D01*
X008940Y015555D02*
X008160Y015555D01*
X008160Y015396D02*
X008940Y015396D01*
X008940Y015238D02*
X008160Y015238D01*
X008160Y015079D02*
X008940Y015079D01*
X008940Y014921D02*
X008331Y014921D01*
X008552Y014762D02*
X008848Y014762D01*
X008780Y014604D02*
X008620Y014604D01*
X008620Y014445D02*
X008780Y014445D01*
X008780Y014287D02*
X008620Y014287D01*
X008620Y014128D02*
X008780Y014128D01*
X008780Y013970D02*
X008620Y013970D01*
X008560Y013811D02*
X008840Y013811D01*
X009038Y013653D02*
X008362Y013653D01*
X008038Y013653D02*
X007940Y013653D01*
X007782Y013494D02*
X013446Y013494D01*
X013438Y013653D02*
X011362Y013653D01*
X011438Y013684D02*
X011556Y013802D01*
X011620Y013956D01*
X011620Y014604D01*
X011556Y014758D01*
X011460Y014854D01*
X011460Y015292D01*
X011512Y015314D01*
X011666Y015468D01*
X011750Y015671D01*
X011750Y015889D01*
X011666Y016092D01*
X011512Y016246D01*
X011309Y016330D01*
X011091Y016330D01*
X010888Y016246D01*
X010734Y016092D01*
X010650Y015889D01*
X010566Y016092D01*
X010412Y016246D01*
X010209Y016330D01*
X009991Y016330D01*
X009788Y016246D01*
X009634Y016092D01*
X009550Y015889D01*
X009550Y015671D01*
X009634Y015468D01*
X009788Y015314D01*
X009840Y015292D01*
X009840Y014748D01*
X009780Y014604D01*
X009780Y013956D01*
X009844Y013802D01*
X009962Y013684D01*
X010116Y013620D01*
X010284Y013620D01*
X010438Y013684D01*
X010556Y013802D01*
X010620Y013956D01*
X010620Y014604D01*
X010556Y014758D01*
X010438Y014876D01*
X010360Y014908D01*
X010360Y015292D01*
X010412Y015314D01*
X010566Y015468D01*
X010650Y015671D01*
X010650Y015889D01*
X010650Y015671D01*
X010734Y015468D01*
X010888Y015314D01*
X010940Y015292D01*
X010940Y014854D01*
X010844Y014758D01*
X010780Y014604D01*
X010780Y013956D01*
X010844Y013802D01*
X010962Y013684D01*
X011116Y013620D01*
X011284Y013620D01*
X011438Y013684D01*
X011560Y013811D02*
X013240Y013811D01*
X013180Y013970D02*
X011620Y013970D01*
X011620Y014128D02*
X013180Y014128D01*
X013180Y014287D02*
X011620Y014287D01*
X011620Y014445D02*
X013180Y014445D01*
X013180Y014604D02*
X011620Y014604D01*
X011552Y014762D02*
X013248Y014762D01*
X013469Y014921D02*
X011460Y014921D01*
X011460Y015079D02*
X017840Y015079D01*
X017840Y014921D02*
X017731Y014921D01*
X017469Y014921D02*
X016731Y014921D01*
X016469Y014921D02*
X015731Y014921D01*
X015684Y014940D02*
X015516Y014940D01*
X015362Y014876D01*
X015244Y014758D01*
X015180Y014604D01*
X015180Y013956D01*
X015244Y013802D01*
X015362Y013684D01*
X015516Y013620D01*
X015684Y013620D01*
X015838Y013684D01*
X015956Y013802D01*
X016020Y013956D01*
X016020Y014604D01*
X015956Y014758D01*
X015838Y014876D01*
X015684Y014940D01*
X015469Y014921D02*
X014731Y014921D01*
X014469Y014921D02*
X013731Y014921D01*
X013952Y014762D02*
X014248Y014762D01*
X014180Y014604D02*
X014020Y014604D01*
X014020Y014445D02*
X014180Y014445D01*
X014180Y014287D02*
X014020Y014287D01*
X014020Y014128D02*
X014080Y014128D01*
X014600Y014280D02*
X013500Y013180D01*
X010400Y013180D01*
X010200Y012980D01*
X010200Y011280D01*
X009780Y011275D02*
X009620Y011275D01*
X009620Y011117D02*
X009780Y011117D01*
X009780Y010958D02*
X009612Y010958D01*
X009544Y010800D02*
X009847Y010800D01*
X010060Y010324D02*
X007124Y010324D01*
X007282Y010166D02*
X010060Y010166D01*
X009949Y010007D02*
X007441Y010007D01*
X007599Y009849D02*
X009816Y009849D01*
X009750Y009690D02*
X007660Y009690D01*
X007660Y009532D02*
X009750Y009532D01*
X009790Y009373D02*
X007660Y009373D01*
X007660Y009215D02*
X009888Y009215D01*
X010128Y009056D02*
X007660Y009056D01*
X007660Y008898D02*
X021140Y008898D01*
X021140Y009056D02*
X011472Y009056D01*
X011712Y009215D02*
X021140Y009215D01*
X021140Y009373D02*
X011810Y009373D01*
X011850Y009532D02*
X021140Y009532D01*
X021140Y009690D02*
X011850Y009690D01*
X011784Y009849D02*
X021140Y009849D01*
X021140Y010007D02*
X013695Y010007D01*
X013853Y010166D02*
X021140Y010166D01*
X021140Y010324D02*
X014012Y010324D01*
X014170Y010483D02*
X021140Y010483D01*
X021140Y010641D02*
X019731Y010641D01*
X019761Y010651D02*
X019820Y010681D01*
X019874Y010720D01*
X019920Y010766D01*
X019959Y010820D01*
X019989Y010879D01*
X020010Y010942D01*
X020020Y011007D01*
X020020Y011280D01*
X020020Y011553D01*
X020010Y011618D01*
X019989Y011681D01*
X019959Y011740D01*
X019920Y011794D01*
X019874Y011840D01*
X019820Y011879D01*
X019761Y011909D01*
X019698Y011930D01*
X019633Y011940D01*
X019600Y011940D01*
X019600Y011280D01*
X020020Y011280D01*
X019600Y011280D01*
X019600Y011280D01*
X019600Y011280D01*
X019600Y010620D01*
X019633Y010620D01*
X019698Y010630D01*
X019761Y010651D01*
X019600Y010641D02*
X019600Y010641D01*
X019600Y010620D02*
X019600Y011280D01*
X019600Y011280D01*
X019600Y011280D01*
X019180Y011280D01*
X019180Y011553D01*
X019190Y011618D01*
X019211Y011681D01*
X019241Y011740D01*
X019280Y011794D01*
X019326Y011840D01*
X019380Y011879D01*
X019439Y011909D01*
X019502Y011930D01*
X019567Y011940D01*
X019600Y011940D01*
X019600Y011280D01*
X019180Y011280D01*
X019180Y011007D01*
X019190Y010942D01*
X019211Y010879D01*
X019241Y010820D01*
X019280Y010766D01*
X019326Y010720D01*
X019380Y010681D01*
X019439Y010651D01*
X019502Y010630D01*
X019567Y010620D01*
X019600Y010620D01*
X019469Y010641D02*
X018734Y010641D01*
X018684Y010620D02*
X018838Y010684D01*
X018956Y010802D01*
X019020Y010956D01*
X019020Y011604D01*
X018956Y011758D01*
X018838Y011876D01*
X018684Y011940D01*
X018516Y011940D01*
X018362Y011876D01*
X018244Y011758D01*
X018180Y011604D01*
X018180Y010956D01*
X018244Y010802D01*
X018362Y010684D01*
X018516Y010620D01*
X018684Y010620D01*
X018466Y010641D02*
X017734Y010641D01*
X017684Y010620D02*
X017838Y010684D01*
X017956Y010802D01*
X018020Y010956D01*
X018020Y011604D01*
X017956Y011758D01*
X017838Y011876D01*
X017684Y011940D01*
X017516Y011940D01*
X017362Y011876D01*
X017244Y011758D01*
X017180Y011604D01*
X017180Y010956D01*
X017244Y010802D01*
X017362Y010684D01*
X017516Y010620D01*
X017684Y010620D01*
X017466Y010641D02*
X016734Y010641D01*
X016466Y010641D02*
X015734Y010641D01*
X015466Y010641D02*
X014734Y010641D01*
X014466Y010641D02*
X014329Y010641D01*
X014069Y011117D02*
X014020Y011117D01*
X014020Y011275D02*
X014180Y011275D01*
X014180Y011434D02*
X014020Y011434D01*
X014020Y011592D02*
X014180Y011592D01*
X014241Y011751D02*
X013959Y011751D01*
X013758Y011909D02*
X014442Y011909D01*
X014758Y011909D02*
X014861Y011909D01*
X015020Y012068D02*
X010460Y012068D01*
X010460Y012226D02*
X015178Y012226D01*
X015337Y012385D02*
X010460Y012385D01*
X010460Y012543D02*
X015495Y012543D01*
X015654Y012702D02*
X010460Y012702D01*
X010460Y012860D02*
X015812Y012860D01*
X015971Y013019D02*
X013706Y013019D01*
X013865Y013177D02*
X016129Y013177D01*
X016288Y013336D02*
X014023Y013336D01*
X014182Y013494D02*
X016446Y013494D01*
X016438Y013653D02*
X015762Y013653D01*
X015960Y013811D02*
X016240Y013811D01*
X016180Y013970D02*
X016020Y013970D01*
X016020Y014128D02*
X016180Y014128D01*
X016180Y014287D02*
X016020Y014287D01*
X016020Y014445D02*
X016180Y014445D01*
X016180Y014604D02*
X016020Y014604D01*
X015952Y014762D02*
X016248Y014762D01*
X016952Y014762D02*
X017248Y014762D01*
X017180Y014604D02*
X017020Y014604D01*
X017020Y014445D02*
X017180Y014445D01*
X017180Y014287D02*
X017020Y014287D01*
X017020Y014128D02*
X017080Y014128D01*
X017600Y014280D02*
X014600Y011280D01*
X013500Y010180D01*
X012400Y010180D01*
X011300Y011280D01*
X011200Y011280D01*
X011300Y011180D01*
X011300Y009580D01*
X010888Y009215D02*
X010712Y009215D01*
X010472Y009056D02*
X011128Y009056D01*
X010816Y009849D02*
X010784Y009849D01*
X010651Y010007D02*
X010949Y010007D01*
X011040Y010166D02*
X010540Y010166D01*
X010540Y010324D02*
X011040Y010324D01*
X011040Y010483D02*
X010540Y010483D01*
X010540Y010641D02*
X011040Y010641D01*
X010847Y010800D02*
X010553Y010800D01*
X010620Y010958D02*
X010780Y010958D01*
X010780Y011117D02*
X010620Y011117D01*
X010620Y011275D02*
X010780Y011275D01*
X010780Y011434D02*
X010620Y011434D01*
X010620Y011592D02*
X010780Y011592D01*
X010841Y011751D02*
X010559Y011751D01*
X010460Y011909D02*
X011042Y011909D01*
X011358Y011909D02*
X013442Y011909D01*
X013241Y011751D02*
X011559Y011751D01*
X011620Y011592D02*
X013180Y011592D01*
X013180Y011434D02*
X011620Y011434D01*
X011673Y011275D02*
X013180Y011275D01*
X013180Y011117D02*
X011831Y011117D01*
X011990Y010958D02*
X013180Y010958D01*
X013247Y010800D02*
X012148Y010800D01*
X012307Y010641D02*
X013466Y010641D01*
X013435Y010483D02*
X012465Y010483D01*
X012047Y010166D02*
X011560Y010166D01*
X011560Y010324D02*
X011888Y010324D01*
X011730Y010483D02*
X011560Y010483D01*
X011560Y010641D02*
X011571Y010641D01*
X011651Y010007D02*
X012205Y010007D01*
X009780Y011434D02*
X009620Y011434D01*
X009614Y011592D02*
X009780Y011592D01*
X009841Y011751D02*
X009552Y011751D01*
X009362Y011909D02*
X009940Y011909D01*
X009940Y012068D02*
X008380Y012068D01*
X008222Y012226D02*
X009940Y012226D01*
X009940Y012385D02*
X008063Y012385D01*
X007803Y011909D02*
X007358Y011909D01*
X007559Y011751D02*
X007841Y011751D01*
X007780Y011592D02*
X007620Y011592D01*
X007620Y011434D02*
X007780Y011434D01*
X007780Y011275D02*
X007620Y011275D01*
X007620Y011117D02*
X007780Y011117D01*
X007780Y010958D02*
X007620Y010958D01*
X007553Y010800D02*
X007847Y010800D01*
X008066Y010641D02*
X007334Y010641D01*
X008334Y010641D02*
X009069Y010641D01*
X008856Y010800D02*
X008553Y010800D01*
X008620Y010958D02*
X008788Y010958D01*
X008780Y011117D02*
X008620Y011117D01*
X009940Y012543D02*
X000630Y012543D01*
X000630Y012702D02*
X009940Y012702D01*
X009940Y012860D02*
X000630Y012860D01*
X000630Y015555D02*
X000930Y015555D01*
X000802Y015713D02*
X000630Y015713D01*
X000630Y015872D02*
X000738Y015872D01*
X000738Y016030D02*
X000630Y016030D01*
X000630Y016189D02*
X000778Y016189D01*
X000872Y016347D02*
X000630Y016347D01*
X000630Y016506D02*
X001060Y016506D01*
X001060Y016664D02*
X000630Y016664D01*
X000630Y016823D02*
X001060Y016823D01*
X001060Y016981D02*
X000630Y016981D01*
X000630Y017140D02*
X001060Y017140D01*
X001060Y017298D02*
X000630Y017298D01*
X000630Y017457D02*
X001060Y017457D01*
X001060Y017615D02*
X000630Y017615D01*
X000630Y017774D02*
X001060Y017774D01*
X001060Y017932D02*
X000630Y017932D01*
X000630Y018091D02*
X001060Y018091D01*
X001060Y018249D02*
X000630Y018249D01*
X000630Y018408D02*
X001060Y018408D01*
X001060Y018566D02*
X000630Y018566D01*
X000630Y018725D02*
X001060Y018725D01*
X001060Y018883D02*
X000630Y018883D01*
X000630Y019042D02*
X001060Y019042D01*
X001060Y019200D02*
X000630Y019200D01*
X000630Y019359D02*
X001060Y019359D01*
X000967Y019517D02*
X000630Y019517D01*
X000630Y019676D02*
X000817Y019676D01*
X000752Y019834D02*
X000630Y019834D01*
X000630Y019993D02*
X000738Y019993D01*
X000762Y020151D02*
X000630Y020151D01*
X000630Y020310D02*
X000834Y020310D01*
X001008Y020468D02*
X000630Y020468D01*
X000630Y020627D02*
X007658Y020627D01*
X007952Y020627D02*
X008048Y020627D01*
X008048Y020468D02*
X007952Y020468D01*
X007952Y020310D02*
X008048Y020310D01*
X008342Y020627D02*
X011658Y020627D01*
X011515Y020468D02*
X008485Y020468D01*
X008549Y020310D02*
X011451Y020310D01*
X011469Y019993D02*
X008531Y019993D01*
X008444Y019834D02*
X011556Y019834D01*
X011952Y019834D02*
X012048Y019834D01*
X012048Y019993D02*
X011952Y019993D01*
X011952Y020310D02*
X012048Y020310D01*
X012048Y020468D02*
X011952Y020468D01*
X011952Y020627D02*
X012048Y020627D01*
X012342Y020627D02*
X014050Y020627D01*
X014050Y020785D02*
X000630Y020785D01*
X000630Y020944D02*
X014114Y020944D01*
X014244Y021102D02*
X000630Y021102D01*
X000630Y021261D02*
X025140Y021261D01*
X025140Y021419D02*
X017416Y021419D01*
X017436Y021427D02*
X017553Y021544D01*
X017616Y021697D01*
X017616Y021863D01*
X017553Y022016D01*
X017436Y022133D01*
X017283Y022196D01*
X017123Y022196D01*
X016107Y023212D01*
X016112Y023214D01*
X016266Y023368D01*
X016350Y023571D01*
X016350Y023789D01*
X016266Y023992D01*
X016112Y024146D01*
X015909Y024230D01*
X015691Y024230D01*
X015488Y024146D01*
X015334Y023992D01*
X015250Y023789D01*
X015250Y023571D01*
X015334Y023368D01*
X015488Y023214D01*
X015560Y023184D01*
X015560Y023132D01*
X015597Y023044D01*
X016784Y021857D01*
X016784Y021697D01*
X016847Y021544D01*
X016964Y021427D01*
X017117Y021364D01*
X017283Y021364D01*
X017436Y021427D01*
X017567Y021578D02*
X025140Y021578D01*
X025140Y021736D02*
X021052Y021736D01*
X021019Y021703D02*
X021177Y021861D01*
X021262Y022068D01*
X021262Y022292D01*
X021177Y022499D01*
X021019Y022657D01*
X020812Y022742D01*
X020588Y022742D01*
X020381Y022657D01*
X020223Y022499D01*
X020138Y022292D01*
X020138Y022068D01*
X020223Y021861D01*
X020381Y021703D01*
X020588Y021618D01*
X020812Y021618D01*
X021019Y021703D01*
X021191Y021895D02*
X025140Y021895D01*
X025140Y022053D02*
X021256Y022053D01*
X021262Y022212D02*
X025140Y022212D01*
X025140Y022370D02*
X021230Y022370D01*
X021147Y022529D02*
X025140Y022529D01*
X025140Y022687D02*
X020946Y022687D01*
X020454Y022687D02*
X017607Y022687D01*
X017606Y022683D02*
X017616Y022747D01*
X017616Y022780D01*
X017616Y022813D01*
X017606Y022877D01*
X017586Y022940D01*
X017556Y022998D01*
X017517Y023051D01*
X017471Y023097D01*
X017418Y023136D01*
X017360Y023166D01*
X017297Y023186D01*
X017233Y023196D01*
X017200Y023196D01*
X017167Y023196D01*
X017103Y023186D01*
X017040Y023166D01*
X016982Y023136D01*
X016929Y023097D01*
X016883Y023051D01*
X016844Y022998D01*
X016814Y022940D01*
X016794Y022877D01*
X016784Y022813D01*
X016784Y022780D01*
X016784Y022747D01*
X016794Y022683D01*
X016814Y022620D01*
X016844Y022562D01*
X016883Y022509D01*
X016929Y022463D01*
X016982Y022424D01*
X017040Y022394D01*
X017103Y022374D01*
X017167Y022364D01*
X017200Y022364D01*
X017233Y022364D01*
X017297Y022374D01*
X017360Y022394D01*
X017418Y022424D01*
X017471Y022463D01*
X017517Y022509D01*
X017556Y022562D01*
X017586Y022620D01*
X017606Y022683D01*
X017616Y022780D02*
X017200Y022780D01*
X017200Y022780D01*
X017200Y023196D01*
X017200Y022780D01*
X017616Y022780D01*
X017611Y022846D02*
X025140Y022846D01*
X025140Y023004D02*
X017552Y023004D01*
X017366Y023163D02*
X025140Y023163D01*
X025140Y023321D02*
X016219Y023321D01*
X016157Y023163D02*
X017034Y023163D01*
X017200Y023163D02*
X017200Y023163D01*
X017200Y023004D02*
X017200Y023004D01*
X017200Y022846D02*
X017200Y022846D01*
X017200Y022780D02*
X017200Y022780D01*
X017200Y022780D01*
X016784Y022780D01*
X017200Y022780D01*
X017200Y022364D01*
X017200Y022780D01*
X017200Y022780D01*
X017200Y022687D02*
X017200Y022687D01*
X017200Y022529D02*
X017200Y022529D01*
X017200Y022370D02*
X017200Y022370D01*
X017272Y022370D02*
X020170Y022370D01*
X020138Y022212D02*
X017108Y022212D01*
X017128Y022370D02*
X016949Y022370D01*
X016868Y022529D02*
X016791Y022529D01*
X016793Y022687D02*
X016632Y022687D01*
X016789Y022846D02*
X016474Y022846D01*
X016315Y023004D02*
X016848Y023004D01*
X016312Y023480D02*
X025140Y023480D01*
X025140Y023638D02*
X022852Y023638D01*
X022832Y023631D02*
X022916Y023659D01*
X022995Y023699D01*
X023066Y023751D01*
X023129Y023814D01*
X023181Y023885D01*
X023221Y023964D01*
X023249Y024048D01*
X023262Y024132D01*
X022748Y024132D01*
X022748Y024228D01*
X023262Y024228D01*
X023249Y024312D01*
X023221Y024396D01*
X023181Y024475D01*
X023129Y024546D01*
X023066Y024609D01*
X022995Y024661D01*
X022916Y024701D01*
X022832Y024729D01*
X022748Y024742D01*
X022748Y024228D01*
X022652Y024228D01*
X022652Y024742D01*
X022568Y024729D01*
X022484Y024701D01*
X022405Y024661D01*
X022334Y024609D01*
X022271Y024546D01*
X022219Y024475D01*
X022179Y024396D01*
X022151Y024312D01*
X022138Y024228D01*
X022652Y024228D01*
X022652Y024132D01*
X022748Y024132D01*
X022748Y023618D01*
X022832Y023631D01*
X022748Y023638D02*
X022652Y023638D01*
X022652Y023618D02*
X022652Y024132D01*
X022138Y024132D01*
X022151Y024048D01*
X022179Y023964D01*
X022219Y023885D01*
X022271Y023814D01*
X022334Y023751D01*
X022405Y023699D01*
X022484Y023659D01*
X022568Y023631D01*
X022652Y023618D01*
X022548Y023638D02*
X018852Y023638D01*
X018832Y023631D02*
X018916Y023659D01*
X018995Y023699D01*
X019066Y023751D01*
X019129Y023814D01*
X019181Y023885D01*
X019221Y023964D01*
X019249Y024048D01*
X019262Y024132D01*
X018748Y024132D01*
X018748Y024228D01*
X019262Y024228D01*
X019249Y024312D01*
X019221Y024396D01*
X019181Y024475D01*
X019129Y024546D01*
X019066Y024609D01*
X018995Y024661D01*
X018916Y024701D01*
X018832Y024729D01*
X018748Y024742D01*
X018748Y024228D01*
X018652Y024228D01*
X018652Y024742D01*
X018568Y024729D01*
X018484Y024701D01*
X018405Y024661D01*
X018334Y024609D01*
X018271Y024546D01*
X018219Y024475D01*
X018179Y024396D01*
X018151Y024312D01*
X018138Y024228D01*
X018652Y024228D01*
X018652Y024132D01*
X018748Y024132D01*
X018748Y023618D01*
X018832Y023631D01*
X018748Y023638D02*
X018652Y023638D01*
X018652Y023618D02*
X018652Y024132D01*
X018138Y024132D01*
X018151Y024048D01*
X018179Y023964D01*
X018219Y023885D01*
X018271Y023814D01*
X018334Y023751D01*
X018405Y023699D01*
X018484Y023659D01*
X018568Y023631D01*
X018652Y023618D01*
X018548Y023638D02*
X016350Y023638D01*
X016347Y023797D02*
X018288Y023797D01*
X018183Y023955D02*
X016281Y023955D01*
X016144Y024114D02*
X018141Y024114D01*
X018145Y024272D02*
X012555Y024272D01*
X012549Y024312D02*
X012521Y024396D01*
X012481Y024475D01*
X012429Y024546D01*
X012366Y024609D01*
X012295Y024661D01*
X012216Y024701D01*
X012132Y024729D01*
X012048Y024742D01*
X012048Y024228D01*
X012562Y024228D01*
X012549Y024312D01*
X012504Y024431D02*
X018196Y024431D01*
X018314Y024589D02*
X012386Y024589D01*
X012048Y024589D02*
X011952Y024589D01*
X011952Y024742D02*
X011952Y024228D01*
X012048Y024228D01*
X012048Y024132D01*
X012562Y024132D01*
X012549Y024048D01*
X012521Y023964D01*
X012481Y023885D01*
X012429Y023814D01*
X012366Y023751D01*
X012295Y023699D01*
X012216Y023659D01*
X012132Y023631D01*
X012048Y023618D01*
X012048Y024132D01*
X011952Y024132D01*
X011952Y023618D01*
X011868Y023631D01*
X011784Y023659D01*
X011705Y023699D01*
X011634Y023751D01*
X011571Y023814D01*
X011519Y023885D01*
X011479Y023964D01*
X011451Y024048D01*
X011438Y024132D01*
X011952Y024132D01*
X011952Y024228D01*
X011438Y024228D01*
X011451Y024312D01*
X011479Y024396D01*
X011519Y024475D01*
X011571Y024546D01*
X011634Y024609D01*
X011705Y024661D01*
X011784Y024701D01*
X011868Y024729D01*
X011952Y024742D01*
X011952Y024431D02*
X012048Y024431D01*
X012048Y024272D02*
X011952Y024272D01*
X011952Y024114D02*
X012048Y024114D01*
X012048Y023955D02*
X011952Y023955D01*
X011952Y023797D02*
X012048Y023797D01*
X012048Y023638D02*
X011952Y023638D01*
X011848Y023638D02*
X008152Y023638D01*
X008132Y023631D02*
X008216Y023659D01*
X008295Y023699D01*
X008366Y023751D01*
X008429Y023814D01*
X008481Y023885D01*
X008521Y023964D01*
X008549Y024048D01*
X008562Y024132D01*
X008048Y024132D01*
X008048Y024228D01*
X008562Y024228D01*
X008549Y024312D01*
X008521Y024396D01*
X008481Y024475D01*
X008429Y024546D01*
X008366Y024609D01*
X008295Y024661D01*
X008216Y024701D01*
X008132Y024729D01*
X008048Y024742D01*
X008048Y024228D01*
X007952Y024228D01*
X007952Y024742D01*
X007868Y024729D01*
X007784Y024701D01*
X007705Y024661D01*
X007634Y024609D01*
X007571Y024546D01*
X007519Y024475D01*
X007479Y024396D01*
X007451Y024312D01*
X007438Y024228D01*
X007952Y024228D01*
X007952Y024132D01*
X008048Y024132D01*
X008048Y023618D01*
X008132Y023631D01*
X008048Y023638D02*
X007952Y023638D01*
X007952Y023618D02*
X007952Y024132D01*
X007438Y024132D01*
X007451Y024048D01*
X007479Y023964D01*
X007519Y023885D01*
X007571Y023814D01*
X007634Y023751D01*
X007705Y023699D01*
X007784Y023659D01*
X007868Y023631D01*
X007952Y023618D01*
X007848Y023638D02*
X000630Y023638D01*
X000630Y023480D02*
X013760Y023480D01*
X013919Y023638D02*
X012152Y023638D01*
X012412Y023797D02*
X014053Y023797D01*
X014050Y023789D02*
X014050Y023769D01*
X013377Y023096D01*
X013217Y023096D01*
X013064Y023033D01*
X012947Y022916D01*
X012884Y022763D01*
X012884Y022597D01*
X012947Y022444D01*
X013064Y022327D01*
X013217Y022264D01*
X013383Y022264D01*
X013536Y022327D01*
X013653Y022444D01*
X013716Y022597D01*
X013716Y022757D01*
X014231Y023271D01*
X014288Y023214D01*
X014491Y023130D01*
X014709Y023130D01*
X014912Y023214D01*
X015066Y023368D01*
X015150Y023571D01*
X015150Y023789D01*
X015066Y023992D01*
X014912Y024146D01*
X014709Y024230D01*
X014491Y024230D01*
X014288Y024146D01*
X014134Y023992D01*
X014050Y023789D01*
X014119Y023955D02*
X012517Y023955D01*
X012559Y024114D02*
X014256Y024114D01*
X014944Y024114D02*
X015456Y024114D01*
X015319Y023955D02*
X015081Y023955D01*
X015147Y023797D02*
X015253Y023797D01*
X015250Y023638D02*
X015150Y023638D01*
X015112Y023480D02*
X015288Y023480D01*
X015381Y023321D02*
X015019Y023321D01*
X014788Y023163D02*
X015560Y023163D01*
X015637Y023004D02*
X013963Y023004D01*
X013805Y022846D02*
X015795Y022846D01*
X015954Y022687D02*
X013716Y022687D01*
X013688Y022529D02*
X016112Y022529D01*
X016271Y022370D02*
X013579Y022370D01*
X013460Y022066D02*
X013397Y022086D01*
X013333Y022096D01*
X013300Y022096D01*
X013267Y022096D01*
X013203Y022086D01*
X013140Y022066D01*
X013082Y022036D01*
X013029Y021997D01*
X012983Y021951D01*
X012944Y021898D01*
X012914Y021840D01*
X012894Y021777D01*
X012884Y021713D01*
X012884Y021680D01*
X012884Y021647D01*
X012894Y021583D01*
X012914Y021520D01*
X012944Y021462D01*
X012983Y021409D01*
X013029Y021363D01*
X013082Y021324D01*
X013140Y021294D01*
X013203Y021274D01*
X013267Y021264D01*
X013300Y021264D01*
X013333Y021264D01*
X013397Y021274D01*
X013460Y021294D01*
X013518Y021324D01*
X013571Y021363D01*
X013617Y021409D01*
X013656Y021462D01*
X013686Y021520D01*
X013706Y021583D01*
X013716Y021647D01*
X013716Y021680D01*
X013716Y021713D01*
X013706Y021777D01*
X013686Y021840D01*
X013656Y021898D01*
X013617Y021951D01*
X013571Y021997D01*
X013518Y022036D01*
X013460Y022066D01*
X013485Y022053D02*
X016588Y022053D01*
X016746Y021895D02*
X013658Y021895D01*
X013713Y021736D02*
X016784Y021736D01*
X016833Y021578D02*
X013704Y021578D01*
X013716Y021680D02*
X013300Y021680D01*
X013300Y021680D01*
X013300Y022096D01*
X013300Y021680D01*
X013716Y021680D01*
X013625Y021419D02*
X016984Y021419D01*
X017616Y021736D02*
X020348Y021736D01*
X020209Y021895D02*
X017603Y021895D01*
X017516Y022053D02*
X020144Y022053D01*
X020253Y022529D02*
X017532Y022529D01*
X016429Y022212D02*
X010562Y022212D01*
X010562Y022292D02*
X010477Y022499D01*
X010319Y022657D01*
X010112Y022742D01*
X009888Y022742D01*
X009681Y022657D01*
X009523Y022499D01*
X009438Y022292D01*
X009438Y022068D01*
X009523Y021861D01*
X009681Y021703D01*
X009888Y021618D01*
X010112Y021618D01*
X010319Y021703D01*
X010477Y021861D01*
X010562Y022068D01*
X010562Y022292D01*
X010530Y022370D02*
X013021Y022370D01*
X012912Y022529D02*
X010447Y022529D01*
X010246Y022687D02*
X012884Y022687D01*
X012918Y022846D02*
X000630Y022846D01*
X000630Y023004D02*
X013035Y023004D01*
X013443Y023163D02*
X000630Y023163D01*
X000630Y023321D02*
X013602Y023321D01*
X014122Y023163D02*
X014412Y023163D01*
X013300Y022053D02*
X013300Y022053D01*
X013300Y021895D02*
X013300Y021895D01*
X013300Y021736D02*
X013300Y021736D01*
X013300Y021680D02*
X013300Y021680D01*
X013300Y021680D01*
X012884Y021680D01*
X013300Y021680D01*
X013300Y021264D01*
X013300Y021680D01*
X013300Y021680D01*
X013300Y021578D02*
X013300Y021578D01*
X013300Y021419D02*
X013300Y021419D01*
X012975Y021419D02*
X000630Y021419D01*
X000630Y021578D02*
X012896Y021578D01*
X012887Y021736D02*
X010352Y021736D01*
X010491Y021895D02*
X012942Y021895D01*
X013115Y022053D02*
X010556Y022053D01*
X009754Y022687D02*
X000630Y022687D01*
X000630Y022529D02*
X009553Y022529D01*
X009470Y022370D02*
X000630Y022370D01*
X000630Y022212D02*
X009438Y022212D01*
X009444Y022053D02*
X000630Y022053D01*
X000630Y021895D02*
X009509Y021895D01*
X009648Y021736D02*
X000630Y021736D01*
X000630Y023797D02*
X007588Y023797D01*
X007483Y023955D02*
X000630Y023955D01*
X000630Y024114D02*
X007441Y024114D01*
X007445Y024272D02*
X000630Y024272D01*
X000630Y024431D02*
X007496Y024431D01*
X007614Y024589D02*
X000630Y024589D01*
X000630Y024748D02*
X025140Y024748D01*
X025140Y024906D02*
X000630Y024906D01*
X007952Y024589D02*
X008048Y024589D01*
X008048Y024431D02*
X007952Y024431D01*
X007952Y024272D02*
X008048Y024272D01*
X008048Y024114D02*
X007952Y024114D01*
X007952Y023955D02*
X008048Y023955D01*
X008048Y023797D02*
X007952Y023797D01*
X008412Y023797D02*
X011588Y023797D01*
X011483Y023955D02*
X008517Y023955D01*
X008559Y024114D02*
X011441Y024114D01*
X011445Y024272D02*
X008555Y024272D01*
X008504Y024431D02*
X011496Y024431D01*
X011614Y024589D02*
X008386Y024589D01*
X012485Y020468D02*
X014092Y020468D01*
X014193Y020310D02*
X012549Y020310D01*
X011558Y019200D02*
X016912Y019200D01*
X017071Y019042D02*
X011687Y019042D01*
X011750Y018883D02*
X017229Y018883D01*
X017388Y018725D02*
X011750Y018725D01*
X011707Y018566D02*
X017546Y018566D01*
X017640Y018408D02*
X011605Y018408D01*
X011355Y018249D02*
X017640Y018249D01*
X017640Y018091D02*
X009578Y018091D01*
X009460Y017932D02*
X017640Y017932D01*
X017640Y017774D02*
X009460Y017774D01*
X009460Y017615D02*
X017640Y017615D01*
X017640Y017457D02*
X009460Y017457D01*
X009460Y017298D02*
X017640Y017298D01*
X017640Y017140D02*
X009460Y017140D01*
X009460Y016981D02*
X017640Y016981D01*
X017640Y016823D02*
X009460Y016823D01*
X009460Y016664D02*
X017640Y016664D01*
X017640Y016506D02*
X009460Y016506D01*
X009460Y016347D02*
X017640Y016347D01*
X017640Y016189D02*
X011569Y016189D01*
X011692Y016030D02*
X017640Y016030D01*
X017640Y015872D02*
X011750Y015872D01*
X011750Y015713D02*
X017640Y015713D01*
X017671Y015555D02*
X011702Y015555D01*
X011594Y015396D02*
X017816Y015396D01*
X017840Y015238D02*
X011460Y015238D01*
X010940Y015238D02*
X010360Y015238D01*
X010360Y015079D02*
X010940Y015079D01*
X010940Y014921D02*
X010360Y014921D01*
X010552Y014762D02*
X010848Y014762D01*
X010780Y014604D02*
X010620Y014604D01*
X010620Y014445D02*
X010780Y014445D01*
X010780Y014287D02*
X010620Y014287D01*
X010620Y014128D02*
X010780Y014128D01*
X010780Y013970D02*
X010620Y013970D01*
X010560Y013811D02*
X010840Y013811D01*
X011038Y013653D02*
X010362Y013653D01*
X010038Y013653D02*
X009362Y013653D01*
X009560Y013811D02*
X009840Y013811D01*
X009780Y013970D02*
X009620Y013970D01*
X009620Y014128D02*
X009780Y014128D01*
X009780Y014287D02*
X009620Y014287D01*
X009620Y014445D02*
X009780Y014445D01*
X009780Y014604D02*
X009620Y014604D01*
X009552Y014762D02*
X009840Y014762D01*
X009840Y014921D02*
X009460Y014921D01*
X009460Y015079D02*
X009840Y015079D01*
X009840Y015238D02*
X009460Y015238D01*
X009460Y015396D02*
X009706Y015396D01*
X009598Y015555D02*
X009460Y015555D01*
X009460Y015713D02*
X009550Y015713D01*
X009550Y015872D02*
X009460Y015872D01*
X009460Y016030D02*
X009608Y016030D01*
X009731Y016189D02*
X009460Y016189D01*
X010100Y015780D02*
X010100Y014380D01*
X010200Y014280D01*
X010188Y013336D02*
X007623Y013336D01*
X007465Y013177D02*
X010029Y013177D01*
X009940Y013019D02*
X007306Y013019D01*
X006200Y011280D02*
X006200Y010880D01*
X005461Y011909D02*
X005358Y011909D01*
X007660Y008739D02*
X021140Y008739D01*
X021140Y008581D02*
X007660Y008581D01*
X007660Y008422D02*
X021140Y008422D01*
X021140Y008264D02*
X007660Y008264D01*
X007660Y008105D02*
X021140Y008105D01*
X021140Y007947D02*
X007660Y007947D01*
X007657Y007471D02*
X020823Y007471D01*
X020665Y007313D02*
X007550Y007313D01*
X007214Y006362D02*
X006943Y006362D01*
X007055Y006203D02*
X006412Y006203D01*
X006254Y006045D02*
X006897Y006045D01*
X006738Y005886D02*
X006095Y005886D01*
X005937Y005728D02*
X006580Y005728D01*
X006421Y005569D02*
X005862Y005569D01*
X005862Y005411D02*
X006263Y005411D01*
X006104Y005252D02*
X005814Y005252D01*
X005709Y005094D02*
X005946Y005094D01*
X005787Y004935D02*
X005454Y004935D01*
X005933Y004713D02*
X007400Y006180D01*
X009900Y006180D01*
X010300Y006580D01*
X010701Y006203D02*
X010899Y006203D01*
X011156Y006045D02*
X010444Y006045D01*
X010156Y006045D02*
X010132Y006045D01*
X010789Y006837D02*
X010811Y006837D01*
X010938Y006996D02*
X010662Y006996D01*
X011444Y006045D02*
X015597Y006045D01*
X015755Y006203D02*
X011701Y006203D01*
X011805Y006362D02*
X015914Y006362D01*
X016072Y006520D02*
X011850Y006520D01*
X011850Y006679D02*
X016231Y006679D01*
X016600Y006680D02*
X020400Y006680D01*
X021400Y007680D01*
X021400Y011680D01*
X019600Y013480D01*
X019600Y014280D01*
X020020Y014287D02*
X025140Y014287D01*
X025140Y014445D02*
X020020Y014445D01*
X020020Y014604D02*
X025140Y014604D01*
X025140Y014762D02*
X019952Y014762D01*
X019731Y014921D02*
X025140Y014921D01*
X025140Y015079D02*
X018360Y015079D01*
X018360Y014921D02*
X018469Y014921D01*
X018731Y014921D02*
X019469Y014921D01*
X019248Y014762D02*
X018952Y014762D01*
X019020Y014604D02*
X019180Y014604D01*
X019180Y014445D02*
X019020Y014445D01*
X019020Y014287D02*
X019180Y014287D01*
X019180Y014128D02*
X019020Y014128D01*
X019020Y013970D02*
X019180Y013970D01*
X019240Y013811D02*
X018960Y013811D01*
X018762Y013653D02*
X019340Y013653D01*
X019340Y013494D02*
X018360Y013494D01*
X018360Y013653D02*
X018438Y013653D01*
X018273Y013336D02*
X019378Y013336D01*
X019535Y013177D02*
X018115Y013177D01*
X017956Y013019D02*
X019694Y013019D01*
X019852Y012860D02*
X017448Y012860D01*
X017289Y012702D02*
X020011Y012702D01*
X020169Y012543D02*
X017131Y012543D01*
X016972Y012385D02*
X020328Y012385D01*
X020486Y012226D02*
X016814Y012226D01*
X016655Y012068D02*
X020645Y012068D01*
X020803Y011909D02*
X019762Y011909D01*
X019600Y011909D02*
X019600Y011909D01*
X019600Y011751D02*
X019600Y011751D01*
X019600Y011592D02*
X019600Y011592D01*
X019600Y011434D02*
X019600Y011434D01*
X019600Y011275D02*
X019600Y011275D01*
X019600Y011117D02*
X019600Y011117D01*
X019600Y010958D02*
X019600Y010958D01*
X019600Y010800D02*
X019600Y010800D01*
X019944Y010800D02*
X021140Y010800D01*
X021140Y010958D02*
X020012Y010958D01*
X020020Y011117D02*
X021140Y011117D01*
X021140Y011275D02*
X020020Y011275D01*
X020020Y011434D02*
X021140Y011434D01*
X021120Y011592D02*
X020014Y011592D01*
X019952Y011751D02*
X020962Y011751D01*
X021380Y012068D02*
X025140Y012068D01*
X025140Y012226D02*
X021222Y012226D01*
X021063Y012385D02*
X025140Y012385D01*
X025140Y012543D02*
X020905Y012543D01*
X020746Y012702D02*
X025140Y012702D01*
X025140Y012860D02*
X020588Y012860D01*
X020429Y013019D02*
X025140Y013019D01*
X025140Y013177D02*
X020271Y013177D01*
X020112Y013336D02*
X025140Y013336D01*
X025140Y013494D02*
X019954Y013494D01*
X019860Y013653D02*
X025140Y013653D01*
X025140Y013811D02*
X019960Y013811D01*
X020020Y013970D02*
X025140Y013970D01*
X025140Y014128D02*
X020020Y014128D01*
X018360Y015238D02*
X025140Y015238D01*
X025140Y015396D02*
X018360Y015396D01*
X018351Y015555D02*
X025140Y015555D01*
X025140Y015713D02*
X018235Y015713D01*
X018160Y015872D02*
X025140Y015872D01*
X025140Y016030D02*
X018160Y016030D01*
X018160Y016189D02*
X025140Y016189D01*
X025140Y016347D02*
X018160Y016347D01*
X018160Y016506D02*
X025140Y016506D01*
X025140Y016664D02*
X018160Y016664D01*
X018160Y016823D02*
X025140Y016823D01*
X025140Y016981D02*
X018160Y016981D01*
X018160Y017140D02*
X025140Y017140D01*
X025140Y017298D02*
X018160Y017298D01*
X018160Y017457D02*
X025140Y017457D01*
X025140Y017615D02*
X018160Y017615D01*
X018160Y017774D02*
X025140Y017774D01*
X025140Y017932D02*
X018160Y017932D01*
X018160Y018091D02*
X025140Y018091D01*
X025140Y018249D02*
X018160Y018249D01*
X018160Y018408D02*
X025140Y018408D01*
X025140Y018566D02*
X018160Y018566D01*
X018122Y018725D02*
X025140Y018725D01*
X025140Y018883D02*
X017965Y018883D01*
X017806Y019042D02*
X025140Y019042D01*
X025140Y019200D02*
X017648Y019200D01*
X017489Y019359D02*
X025140Y019359D01*
X025140Y019517D02*
X017331Y019517D01*
X017172Y019676D02*
X018451Y019676D01*
X018484Y019659D02*
X018568Y019631D01*
X018652Y019618D01*
X018652Y020132D01*
X018748Y020132D01*
X018748Y020228D01*
X019262Y020228D01*
X019249Y020312D01*
X019221Y020396D01*
X019181Y020475D01*
X019129Y020546D01*
X019066Y020609D01*
X018995Y020661D01*
X018916Y020701D01*
X018832Y020729D01*
X018748Y020742D01*
X018748Y020228D01*
X018652Y020228D01*
X018652Y020742D01*
X018568Y020729D01*
X018484Y020701D01*
X018405Y020661D01*
X018334Y020609D01*
X018271Y020546D01*
X018219Y020475D01*
X018179Y020396D01*
X018151Y020312D01*
X018138Y020228D01*
X018652Y020228D01*
X018652Y020132D01*
X018138Y020132D01*
X018151Y020048D01*
X018179Y019964D01*
X018219Y019885D01*
X018271Y019814D01*
X018334Y019751D01*
X018405Y019699D01*
X018484Y019659D01*
X018652Y019676D02*
X018748Y019676D01*
X018748Y019618D02*
X018832Y019631D01*
X018916Y019659D01*
X018995Y019699D01*
X019066Y019751D01*
X019129Y019814D01*
X019181Y019885D01*
X019221Y019964D01*
X019249Y020048D01*
X019262Y020132D01*
X018748Y020132D01*
X018748Y019618D01*
X018949Y019676D02*
X022451Y019676D01*
X022484Y019659D02*
X022568Y019631D01*
X022652Y019618D01*
X022652Y020132D01*
X022748Y020132D01*
X022748Y020228D01*
X023262Y020228D01*
X023249Y020312D01*
X023221Y020396D01*
X023181Y020475D01*
X023129Y020546D01*
X023066Y020609D01*
X022995Y020661D01*
X022916Y020701D01*
X022832Y020729D01*
X022748Y020742D01*
X022748Y020228D01*
X022652Y020228D01*
X022652Y020742D01*
X022568Y020729D01*
X022484Y020701D01*
X022405Y020661D01*
X022334Y020609D01*
X022271Y020546D01*
X022219Y020475D01*
X022179Y020396D01*
X022151Y020312D01*
X022138Y020228D01*
X022652Y020228D01*
X022652Y020132D01*
X022138Y020132D01*
X022151Y020048D01*
X022179Y019964D01*
X022219Y019885D01*
X022271Y019814D01*
X022334Y019751D01*
X022405Y019699D01*
X022484Y019659D01*
X022652Y019676D02*
X022748Y019676D01*
X022748Y019618D02*
X022832Y019631D01*
X022916Y019659D01*
X022995Y019699D01*
X023066Y019751D01*
X023129Y019814D01*
X023181Y019885D01*
X023221Y019964D01*
X023249Y020048D01*
X023262Y020132D01*
X022748Y020132D01*
X022748Y019618D01*
X022949Y019676D02*
X025140Y019676D01*
X025140Y019834D02*
X023144Y019834D01*
X023231Y019993D02*
X025140Y019993D01*
X025140Y020151D02*
X022748Y020151D01*
X022652Y020151D02*
X018748Y020151D01*
X018652Y020151D02*
X016697Y020151D01*
X016855Y019993D02*
X018169Y019993D01*
X018256Y019834D02*
X017014Y019834D01*
X016538Y020310D02*
X018151Y020310D01*
X018215Y020468D02*
X016380Y020468D01*
X016350Y020627D02*
X018358Y020627D01*
X018652Y020627D02*
X018748Y020627D01*
X018748Y020468D02*
X018652Y020468D01*
X018652Y020310D02*
X018748Y020310D01*
X019042Y020627D02*
X022358Y020627D01*
X022215Y020468D02*
X019185Y020468D01*
X019249Y020310D02*
X022151Y020310D01*
X022169Y019993D02*
X019231Y019993D01*
X019144Y019834D02*
X022256Y019834D01*
X022652Y019834D02*
X022748Y019834D01*
X022748Y019993D02*
X022652Y019993D01*
X022652Y020310D02*
X022748Y020310D01*
X022748Y020468D02*
X022652Y020468D01*
X022652Y020627D02*
X022748Y020627D01*
X023042Y020627D02*
X025140Y020627D01*
X025140Y020785D02*
X016350Y020785D01*
X016286Y020944D02*
X025140Y020944D01*
X025140Y021102D02*
X016156Y021102D01*
X015800Y020680D02*
X017900Y018580D01*
X017900Y015680D01*
X018100Y015480D01*
X018100Y013530D01*
X017750Y013180D01*
X017400Y013180D01*
X015600Y011380D01*
X015600Y011280D01*
X015180Y011275D02*
X015020Y011275D01*
X015020Y011117D02*
X015180Y011117D01*
X015180Y010958D02*
X015020Y010958D01*
X014953Y010800D02*
X015247Y010800D01*
X015180Y011434D02*
X015121Y011434D01*
X016021Y011434D02*
X016180Y011434D01*
X016180Y011275D02*
X016020Y011275D01*
X016020Y011117D02*
X016180Y011117D01*
X016180Y010958D02*
X016020Y010958D01*
X015953Y010800D02*
X016247Y010800D01*
X016953Y010800D02*
X017247Y010800D01*
X017180Y010958D02*
X017020Y010958D01*
X017020Y011117D02*
X017180Y011117D01*
X017180Y011275D02*
X017020Y011275D01*
X017020Y011434D02*
X017180Y011434D01*
X017180Y011592D02*
X017020Y011592D01*
X016959Y011751D02*
X017241Y011751D01*
X017442Y011909D02*
X016758Y011909D01*
X017758Y011909D02*
X018442Y011909D01*
X018241Y011751D02*
X017959Y011751D01*
X018020Y011592D02*
X018180Y011592D01*
X018180Y011434D02*
X018020Y011434D01*
X018020Y011275D02*
X018180Y011275D01*
X018180Y011117D02*
X018020Y011117D01*
X018020Y010958D02*
X018180Y010958D01*
X018247Y010800D02*
X017953Y010800D01*
X018953Y010800D02*
X019256Y010800D01*
X019188Y010958D02*
X019020Y010958D01*
X019020Y011117D02*
X019180Y011117D01*
X019180Y011275D02*
X019020Y011275D01*
X019020Y011434D02*
X019180Y011434D01*
X019186Y011592D02*
X019020Y011592D01*
X018959Y011751D02*
X019248Y011751D01*
X019438Y011909D02*
X018758Y011909D01*
X021539Y011909D02*
X025140Y011909D01*
X025140Y011751D02*
X021652Y011751D01*
X021660Y011592D02*
X025140Y011592D01*
X025140Y011434D02*
X021660Y011434D01*
X021660Y011275D02*
X025140Y011275D01*
X025140Y011117D02*
X021660Y011117D01*
X021660Y010958D02*
X025140Y010958D01*
X025140Y010800D02*
X021660Y010800D01*
X021660Y010641D02*
X025140Y010641D01*
X025140Y010483D02*
X021660Y010483D01*
X021660Y010324D02*
X025140Y010324D01*
X025140Y010166D02*
X021660Y010166D01*
X021660Y010007D02*
X025140Y010007D01*
X025140Y009849D02*
X021660Y009849D01*
X021660Y009690D02*
X025140Y009690D01*
X025140Y009532D02*
X021660Y009532D01*
X021660Y009373D02*
X025140Y009373D01*
X025140Y009215D02*
X021660Y009215D01*
X021660Y009056D02*
X025140Y009056D01*
X025140Y008898D02*
X021660Y008898D01*
X021660Y008739D02*
X025140Y008739D01*
X025140Y008581D02*
X021660Y008581D01*
X021660Y008422D02*
X025140Y008422D01*
X025140Y008264D02*
X021660Y008264D01*
X021660Y008105D02*
X025140Y008105D01*
X025140Y007947D02*
X021660Y007947D01*
X021660Y007788D02*
X025140Y007788D01*
X025140Y007630D02*
X021660Y007630D01*
X021559Y007471D02*
X025140Y007471D01*
X025140Y007313D02*
X021400Y007313D01*
X021242Y007154D02*
X025140Y007154D01*
X025140Y006996D02*
X021083Y006996D01*
X020925Y006837D02*
X025140Y006837D01*
X025140Y006679D02*
X020766Y006679D01*
X020620Y006533D02*
X020620Y006533D01*
X020608Y006520D02*
X025140Y006520D01*
X025140Y006362D02*
X016649Y006362D01*
X016491Y006203D02*
X025140Y006203D01*
X025140Y006045D02*
X016332Y006045D01*
X016174Y005886D02*
X025140Y005886D01*
X025140Y005728D02*
X022835Y005728D01*
X022832Y005729D02*
X022748Y005742D01*
X022748Y005228D01*
X023262Y005228D01*
X023249Y005312D01*
X023221Y005396D01*
X023181Y005475D01*
X023129Y005546D01*
X023066Y005609D01*
X022995Y005661D01*
X022916Y005701D01*
X022832Y005729D01*
X022748Y005728D02*
X022652Y005728D01*
X022652Y005742D02*
X022568Y005729D01*
X022484Y005701D01*
X022405Y005661D01*
X022334Y005609D01*
X022271Y005546D01*
X022219Y005475D01*
X022179Y005396D01*
X022151Y005312D01*
X022138Y005228D01*
X022652Y005228D01*
X022652Y005742D01*
X022565Y005728D02*
X018835Y005728D01*
X018832Y005729D02*
X018748Y005742D01*
X018748Y005228D01*
X019262Y005228D01*
X019249Y005312D01*
X019221Y005396D01*
X019181Y005475D01*
X019129Y005546D01*
X019066Y005609D01*
X018995Y005661D01*
X018916Y005701D01*
X018832Y005729D01*
X018748Y005728D02*
X018652Y005728D01*
X018652Y005742D02*
X018568Y005729D01*
X018484Y005701D01*
X018405Y005661D01*
X018334Y005609D01*
X018271Y005546D01*
X018219Y005475D01*
X018179Y005396D01*
X018151Y005312D01*
X018138Y005228D01*
X018652Y005228D01*
X018652Y005742D01*
X018565Y005728D02*
X016015Y005728D01*
X015857Y005569D02*
X018294Y005569D01*
X018186Y005411D02*
X015698Y005411D01*
X015540Y005252D02*
X018142Y005252D01*
X018138Y005132D02*
X018151Y005048D01*
X018179Y004964D01*
X018219Y004885D01*
X018271Y004814D01*
X018334Y004751D01*
X018405Y004699D01*
X018484Y004659D01*
X018568Y004631D01*
X018652Y004618D01*
X018652Y005132D01*
X018748Y005132D01*
X018748Y005228D01*
X018652Y005228D01*
X018652Y005132D01*
X018138Y005132D01*
X018144Y005094D02*
X015997Y005094D01*
X015909Y005130D02*
X015691Y005130D01*
X015488Y005046D01*
X015334Y004892D01*
X015250Y004689D01*
X015250Y004471D01*
X015334Y004268D01*
X015488Y004114D01*
X015691Y004030D01*
X015909Y004030D01*
X016112Y004114D01*
X016266Y004268D01*
X016350Y004471D01*
X016350Y004689D01*
X016266Y004892D01*
X016112Y005046D01*
X015909Y005130D01*
X016223Y004935D02*
X018194Y004935D01*
X018308Y004777D02*
X016314Y004777D01*
X016350Y004618D02*
X025140Y004618D01*
X025140Y004460D02*
X016345Y004460D01*
X016280Y004301D02*
X025140Y004301D01*
X025140Y004143D02*
X016140Y004143D01*
X015460Y004143D02*
X014840Y004143D01*
X014980Y004301D02*
X015320Y004301D01*
X015255Y004460D02*
X015045Y004460D01*
X015050Y004618D02*
X015250Y004618D01*
X015286Y004777D02*
X015064Y004777D01*
X015223Y004935D02*
X015377Y004935D01*
X015381Y005094D02*
X015603Y005094D01*
X015121Y005569D02*
X012206Y005569D01*
X012314Y005411D02*
X014963Y005411D01*
X014804Y005252D02*
X012358Y005252D01*
X011935Y005728D02*
X015280Y005728D01*
X015438Y005886D02*
X007474Y005886D01*
X007752Y005569D02*
X007848Y005569D01*
X007848Y005411D02*
X007752Y005411D01*
X007752Y005252D02*
X007848Y005252D01*
X007848Y005132D02*
X008362Y005132D01*
X008349Y005048D01*
X008321Y004964D01*
X008281Y004885D01*
X008229Y004814D01*
X008166Y004751D01*
X008095Y004699D01*
X008016Y004659D01*
X007932Y004631D01*
X007848Y004618D01*
X007848Y005132D01*
X007848Y005094D02*
X007752Y005094D01*
X007752Y004935D02*
X007848Y004935D01*
X007848Y004777D02*
X007752Y004777D01*
X008192Y004777D02*
X011408Y004777D01*
X011294Y004935D02*
X008306Y004935D01*
X008356Y005094D02*
X011244Y005094D01*
X011242Y005252D02*
X008358Y005252D01*
X008314Y005411D02*
X011286Y005411D01*
X011394Y005569D02*
X008206Y005569D01*
X006657Y006362D02*
X006571Y006362D01*
X006220Y006996D02*
X003600Y006996D01*
X003770Y007154D02*
X006265Y007154D01*
X005933Y004713D02*
X005933Y002964D01*
X005366Y001527D02*
X005280Y001555D01*
X005191Y001569D01*
X004770Y001569D01*
X004770Y001014D01*
X005719Y001014D01*
X005719Y001041D01*
X005705Y001130D01*
X005677Y001216D01*
X005636Y001296D01*
X005583Y001369D01*
X005519Y001433D01*
X005446Y001486D01*
X005366Y001527D01*
X005499Y001448D02*
X007305Y001448D01*
X007319Y001475D02*
X007279Y001396D01*
X007251Y001312D01*
X007238Y001228D01*
X007752Y001228D01*
X007752Y001742D01*
X007668Y001729D01*
X007584Y001701D01*
X007505Y001661D01*
X007434Y001609D01*
X007371Y001546D01*
X007319Y001475D01*
X007431Y001607D02*
X000630Y001607D01*
X000630Y001765D02*
X013981Y001765D01*
X013950Y001607D02*
X012169Y001607D01*
X012166Y001609D02*
X012095Y001661D01*
X012016Y001701D01*
X011932Y001729D01*
X011848Y001742D01*
X011848Y001228D01*
X012362Y001228D01*
X012349Y001312D01*
X012321Y001396D01*
X012281Y001475D01*
X012229Y001546D01*
X012166Y001609D01*
X012295Y001448D02*
X013959Y001448D01*
X014025Y001290D02*
X012352Y001290D01*
X012362Y001132D02*
X011848Y001132D01*
X011848Y001228D01*
X011752Y001228D01*
X011752Y001742D01*
X011668Y001729D01*
X011584Y001701D01*
X011505Y001661D01*
X011434Y001609D01*
X011371Y001546D01*
X011319Y001475D01*
X011279Y001396D01*
X011251Y001312D01*
X011238Y001228D01*
X011752Y001228D01*
X011752Y001132D01*
X011848Y001132D01*
X011848Y000618D01*
X011932Y000631D01*
X012016Y000659D01*
X012095Y000699D01*
X012166Y000751D01*
X012229Y000814D01*
X018271Y000814D01*
X018334Y000751D01*
X018405Y000699D01*
X018484Y000659D01*
X018568Y000631D01*
X018652Y000618D01*
X018652Y001132D01*
X018748Y001132D01*
X018748Y001228D01*
X019262Y001228D01*
X019249Y001312D01*
X019221Y001396D01*
X019181Y001475D01*
X019129Y001546D01*
X019066Y001609D01*
X018995Y001661D01*
X018916Y001701D01*
X018832Y001729D01*
X018748Y001742D01*
X018748Y001228D01*
X018652Y001228D01*
X018652Y001742D01*
X018568Y001729D01*
X018484Y001701D01*
X018405Y001661D01*
X018334Y001609D01*
X018271Y001546D01*
X018219Y001475D01*
X018179Y001396D01*
X018151Y001312D01*
X018138Y001228D01*
X018652Y001228D01*
X018652Y001132D01*
X018138Y001132D01*
X018151Y001048D01*
X018179Y000964D01*
X018219Y000885D01*
X018271Y000814D01*
X018176Y000973D02*
X012324Y000973D01*
X012321Y000964D02*
X012349Y001048D01*
X012362Y001132D01*
X012362Y001131D02*
X014171Y001131D01*
X014829Y001131D02*
X015471Y001131D01*
X015488Y001114D02*
X015691Y001030D01*
X015909Y001030D01*
X016112Y001114D01*
X016266Y001268D01*
X016350Y001471D01*
X016350Y001689D01*
X016266Y001892D01*
X016112Y002046D01*
X015909Y002130D01*
X015691Y002130D01*
X015488Y002046D01*
X015334Y001892D01*
X015250Y001689D01*
X015250Y001471D01*
X015334Y001268D01*
X015488Y001114D01*
X015325Y001290D02*
X014975Y001290D01*
X015041Y001448D02*
X015259Y001448D01*
X015250Y001607D02*
X015050Y001607D01*
X015019Y001765D02*
X015281Y001765D01*
X015366Y001924D02*
X014934Y001924D01*
X014725Y002082D02*
X015575Y002082D01*
X016025Y002082D02*
X025140Y002082D01*
X025140Y001924D02*
X016234Y001924D01*
X016319Y001765D02*
X025140Y001765D01*
X025140Y001607D02*
X023069Y001607D01*
X023066Y001609D02*
X022995Y001661D01*
X022916Y001701D01*
X022832Y001729D01*
X022748Y001742D01*
X022748Y001228D01*
X023262Y001228D01*
X023249Y001312D01*
X023221Y001396D01*
X023181Y001475D01*
X023129Y001546D01*
X023066Y001609D01*
X023195Y001448D02*
X025140Y001448D01*
X025140Y001290D02*
X023252Y001290D01*
X023262Y001132D02*
X022748Y001132D01*
X022748Y001228D01*
X022652Y001228D01*
X022652Y001742D01*
X022568Y001729D01*
X022484Y001701D01*
X022405Y001661D01*
X022334Y001609D01*
X022271Y001546D01*
X022219Y001475D01*
X022179Y001396D01*
X022151Y001312D01*
X022138Y001228D01*
X022652Y001228D01*
X022652Y001132D01*
X022748Y001132D01*
X022748Y000618D01*
X022832Y000631D01*
X022916Y000659D01*
X022995Y000699D01*
X023066Y000751D01*
X023129Y000814D01*
X025140Y000814D01*
X025140Y000656D02*
X022906Y000656D01*
X022748Y000656D02*
X022652Y000656D01*
X022652Y000618D02*
X022652Y001132D01*
X022138Y001132D01*
X022151Y001048D01*
X022179Y000964D01*
X022219Y000885D01*
X022271Y000814D01*
X019129Y000814D01*
X019181Y000885D01*
X019221Y000964D01*
X019249Y001048D01*
X019262Y001132D01*
X018748Y001132D01*
X018748Y000618D01*
X018832Y000631D01*
X018916Y000659D01*
X018995Y000699D01*
X019066Y000751D01*
X019129Y000814D01*
X019224Y000973D02*
X022176Y000973D01*
X022138Y001131D02*
X019262Y001131D01*
X019252Y001290D02*
X022148Y001290D01*
X022205Y001448D02*
X019195Y001448D01*
X019069Y001607D02*
X022331Y001607D01*
X022652Y001607D02*
X022748Y001607D01*
X022748Y001448D02*
X022652Y001448D01*
X022652Y001290D02*
X022748Y001290D01*
X022748Y001131D02*
X022652Y001131D01*
X022652Y000973D02*
X022748Y000973D01*
X022748Y000814D02*
X022652Y000814D01*
X022652Y000618D02*
X022568Y000631D01*
X022484Y000659D01*
X022405Y000699D01*
X022334Y000751D01*
X022271Y000814D01*
X022494Y000656D02*
X018906Y000656D01*
X018748Y000656D02*
X018652Y000656D01*
X018652Y000814D02*
X018748Y000814D01*
X018748Y000973D02*
X018652Y000973D01*
X018652Y001131D02*
X018748Y001131D01*
X018748Y001290D02*
X018652Y001290D01*
X018652Y001448D02*
X018748Y001448D01*
X018748Y001607D02*
X018652Y001607D01*
X018331Y001607D02*
X016350Y001607D01*
X016341Y001448D02*
X018205Y001448D01*
X018148Y001290D02*
X016275Y001290D01*
X016129Y001131D02*
X018138Y001131D01*
X018494Y000656D02*
X012006Y000656D01*
X011848Y000656D02*
X011752Y000656D01*
X011752Y000618D02*
X011752Y001132D01*
X011238Y001132D01*
X011251Y001048D01*
X011279Y000964D01*
X011319Y000885D01*
X011371Y000814D01*
X008229Y000814D01*
X008281Y000885D01*
X008321Y000964D01*
X008349Y001048D01*
X008362Y001132D01*
X007848Y001132D01*
X007848Y001228D01*
X008362Y001228D01*
X008349Y001312D01*
X008321Y001396D01*
X008281Y001475D01*
X008229Y001546D01*
X008166Y001609D01*
X008095Y001661D01*
X008016Y001701D01*
X007932Y001729D01*
X007848Y001742D01*
X007848Y001228D01*
X007752Y001228D01*
X007752Y001132D01*
X007848Y001132D01*
X007848Y000618D01*
X007932Y000631D01*
X008016Y000659D01*
X008095Y000699D01*
X008166Y000751D01*
X008229Y000814D01*
X008324Y000973D02*
X011276Y000973D01*
X011238Y001131D02*
X008362Y001131D01*
X008352Y001290D02*
X011248Y001290D01*
X011305Y001448D02*
X008295Y001448D01*
X008169Y001607D02*
X011431Y001607D01*
X011752Y001607D02*
X011848Y001607D01*
X011848Y001448D02*
X011752Y001448D01*
X011752Y001290D02*
X011848Y001290D01*
X011848Y001131D02*
X011752Y001131D01*
X011752Y000973D02*
X011848Y000973D01*
X011848Y000814D02*
X011752Y000814D01*
X011752Y000618D02*
X011668Y000631D01*
X011584Y000659D01*
X011505Y000699D01*
X011434Y000751D01*
X011371Y000814D01*
X011594Y000656D02*
X008006Y000656D01*
X007848Y000656D02*
X007752Y000656D01*
X007752Y000618D02*
X007752Y001132D01*
X007238Y001132D01*
X007251Y001048D01*
X007279Y000964D01*
X007319Y000885D01*
X007371Y000814D01*
X005690Y000814D01*
X005719Y000973D02*
X007276Y000973D01*
X007238Y001131D02*
X005705Y001131D01*
X005640Y001290D02*
X007248Y001290D01*
X007371Y000814D02*
X007434Y000751D01*
X007505Y000699D01*
X007584Y000659D01*
X007668Y000631D01*
X007752Y000618D01*
X007594Y000656D02*
X005608Y000656D01*
X005431Y000497D02*
X025140Y000497D01*
X025140Y000973D02*
X023224Y000973D01*
X023221Y000964D02*
X023249Y001048D01*
X023262Y001132D01*
X023262Y001131D02*
X025140Y001131D01*
X025140Y002875D02*
X021182Y002875D01*
X021248Y003033D02*
X025140Y003033D01*
X025140Y003192D02*
X021262Y003192D01*
X021238Y003350D02*
X025140Y003350D01*
X025140Y003509D02*
X021167Y003509D01*
X020994Y003667D02*
X025140Y003667D01*
X025140Y004777D02*
X023092Y004777D01*
X023066Y004751D02*
X023129Y004814D01*
X023181Y004885D01*
X023221Y004964D01*
X023249Y005048D01*
X023262Y005132D01*
X022748Y005132D01*
X022748Y005228D01*
X022652Y005228D01*
X022652Y005132D01*
X022748Y005132D01*
X022748Y004618D01*
X022832Y004631D01*
X022916Y004659D01*
X022995Y004699D01*
X023066Y004751D01*
X023206Y004935D02*
X025140Y004935D01*
X025140Y005094D02*
X023256Y005094D01*
X023258Y005252D02*
X025140Y005252D01*
X025140Y005411D02*
X023214Y005411D01*
X023106Y005569D02*
X025140Y005569D01*
X022748Y005569D02*
X022652Y005569D01*
X022652Y005411D02*
X022748Y005411D01*
X022748Y005252D02*
X022652Y005252D01*
X022652Y005132D02*
X022138Y005132D01*
X022151Y005048D01*
X022179Y004964D01*
X022219Y004885D01*
X022271Y004814D01*
X022334Y004751D01*
X022405Y004699D01*
X022484Y004659D01*
X022568Y004631D01*
X022652Y004618D01*
X022652Y005132D01*
X022652Y005094D02*
X022748Y005094D01*
X022748Y004935D02*
X022652Y004935D01*
X022652Y004777D02*
X022748Y004777D01*
X022308Y004777D02*
X019092Y004777D01*
X019066Y004751D02*
X019129Y004814D01*
X019181Y004885D01*
X019221Y004964D01*
X019249Y005048D01*
X019262Y005132D01*
X018748Y005132D01*
X018748Y004618D01*
X018832Y004631D01*
X018916Y004659D01*
X018995Y004699D01*
X019066Y004751D01*
X019206Y004935D02*
X022194Y004935D01*
X022144Y005094D02*
X019256Y005094D01*
X019258Y005252D02*
X022142Y005252D01*
X022186Y005411D02*
X019214Y005411D01*
X019106Y005569D02*
X022294Y005569D01*
X018748Y005569D02*
X018652Y005569D01*
X018652Y005411D02*
X018748Y005411D01*
X018748Y005252D02*
X018652Y005252D01*
X018652Y005094D02*
X018748Y005094D01*
X018748Y004935D02*
X018652Y004935D01*
X018652Y004777D02*
X018748Y004777D01*
X017200Y003826D02*
X017200Y003826D01*
X017200Y003667D02*
X017200Y003667D01*
X017200Y003509D02*
X017200Y003509D01*
X017200Y003350D02*
X017200Y003350D01*
X016906Y002875D02*
X013568Y002875D01*
X013616Y002716D02*
X016806Y002716D01*
X016784Y002558D02*
X013598Y002558D01*
X013508Y002399D02*
X016824Y002399D01*
X012941Y003350D02*
X010338Y003350D01*
X010267Y003509D02*
X012821Y003509D01*
X012784Y003667D02*
X010094Y003667D01*
X010282Y002875D02*
X012832Y002875D01*
X012321Y000964D02*
X012281Y000885D01*
X012229Y000814D01*
X007848Y000814D02*
X007752Y000814D01*
X007752Y000973D02*
X007848Y000973D01*
X007848Y001131D02*
X007752Y001131D01*
X007752Y001290D02*
X007848Y001290D01*
X007848Y001448D02*
X007752Y001448D01*
X007752Y001607D02*
X007848Y001607D01*
X004770Y001448D02*
X004734Y001448D01*
X004734Y001290D02*
X004770Y001290D01*
X004770Y001131D02*
X004734Y001131D01*
X004734Y000973D02*
X004770Y000973D01*
X004770Y000814D02*
X004734Y000814D01*
X004734Y000656D02*
X004770Y000656D01*
X004770Y000497D02*
X004734Y000497D01*
X014340Y013653D02*
X014438Y013653D01*
X014762Y013653D02*
X015438Y013653D01*
X015240Y013811D02*
X014960Y013811D01*
X015020Y013970D02*
X015180Y013970D01*
X015180Y014128D02*
X015020Y014128D01*
X015020Y014287D02*
X015180Y014287D01*
X015180Y014445D02*
X015020Y014445D01*
X015020Y014604D02*
X015180Y014604D01*
X015248Y014762D02*
X014952Y014762D01*
X011200Y014280D02*
X011200Y015780D01*
X010831Y016189D02*
X010469Y016189D01*
X010592Y016030D02*
X010708Y016030D01*
X010650Y015872D02*
X010650Y015872D01*
X010650Y015713D02*
X010650Y015713D01*
X010602Y015555D02*
X010698Y015555D01*
X010806Y015396D02*
X010494Y015396D01*
X009200Y014280D02*
X009200Y018080D01*
X009900Y018780D01*
X010458Y019200D02*
X010842Y019200D01*
X010713Y019042D02*
X010587Y019042D01*
X010505Y018408D02*
X010795Y018408D01*
X011045Y018249D02*
X010255Y018249D01*
X009945Y018249D02*
X009737Y018249D01*
X008048Y019834D02*
X007952Y019834D01*
X007952Y019993D02*
X008048Y019993D01*
X004802Y015713D02*
X001798Y015713D01*
X001670Y015555D02*
X004930Y015555D01*
X015007Y020310D02*
X015393Y020310D01*
X015292Y020468D02*
X015108Y020468D01*
X015150Y020627D02*
X015250Y020627D01*
X015250Y020785D02*
X015150Y020785D01*
X015086Y020944D02*
X015314Y020944D01*
X015444Y021102D02*
X014956Y021102D01*
X018652Y019993D02*
X018748Y019993D01*
X018748Y019834D02*
X018652Y019834D01*
X018652Y023797D02*
X018748Y023797D01*
X018748Y023955D02*
X018652Y023955D01*
X018652Y024114D02*
X018748Y024114D01*
X018748Y024272D02*
X018652Y024272D01*
X018652Y024431D02*
X018748Y024431D01*
X018748Y024589D02*
X018652Y024589D01*
X019086Y024589D02*
X022314Y024589D01*
X022196Y024431D02*
X019204Y024431D01*
X019255Y024272D02*
X022145Y024272D01*
X022141Y024114D02*
X019259Y024114D01*
X019217Y023955D02*
X022183Y023955D01*
X022288Y023797D02*
X019112Y023797D01*
X022652Y023797D02*
X022748Y023797D01*
X022748Y023955D02*
X022652Y023955D01*
X022652Y024114D02*
X022748Y024114D01*
X022748Y024272D02*
X022652Y024272D01*
X022652Y024431D02*
X022748Y024431D01*
X022748Y024589D02*
X022652Y024589D01*
X023086Y024589D02*
X025140Y024589D01*
X025140Y024431D02*
X023204Y024431D01*
X023255Y024272D02*
X025140Y024272D01*
X025140Y024114D02*
X023259Y024114D01*
X023217Y023955D02*
X025140Y023955D01*
X025140Y023797D02*
X023112Y023797D01*
X023185Y020468D02*
X025140Y020468D01*
X025140Y020310D02*
X023249Y020310D01*
X023221Y000964D02*
X023181Y000885D01*
X023129Y000814D01*
M02*
