G75*
%MOIN*%
%OFA0B0*%
%FSLAX24Y24*%
%IPPOS*%
%LPD*%
%AMOC8*
5,1,8,0,0,1.08239X$1,22.5*
%
%ADD10C,0.0000*%
D10*
X006333Y006386D02*
X006333Y027382D01*
X006333Y027386D02*
X042348Y027425D01*
X042022Y027717D02*
X042062Y006386D01*
X006333Y006386D01*
X006743Y007445D02*
X006745Y007495D01*
X006751Y007545D01*
X006761Y007594D01*
X006775Y007642D01*
X006792Y007689D01*
X006813Y007734D01*
X006838Y007778D01*
X006866Y007819D01*
X006898Y007858D01*
X006932Y007895D01*
X006969Y007929D01*
X007009Y007959D01*
X007051Y007986D01*
X007095Y008010D01*
X007141Y008031D01*
X007188Y008047D01*
X007236Y008060D01*
X007286Y008069D01*
X007335Y008074D01*
X007386Y008075D01*
X007436Y008072D01*
X007485Y008065D01*
X007534Y008054D01*
X007582Y008039D01*
X007628Y008021D01*
X007673Y007999D01*
X007716Y007973D01*
X007757Y007944D01*
X007796Y007912D01*
X007832Y007877D01*
X007864Y007839D01*
X007894Y007799D01*
X007921Y007756D01*
X007944Y007712D01*
X007963Y007666D01*
X007979Y007618D01*
X007991Y007569D01*
X007999Y007520D01*
X008003Y007470D01*
X008003Y007420D01*
X007999Y007370D01*
X007991Y007321D01*
X007979Y007272D01*
X007963Y007224D01*
X007944Y007178D01*
X007921Y007134D01*
X007894Y007091D01*
X007864Y007051D01*
X007832Y007013D01*
X007796Y006978D01*
X007757Y006946D01*
X007716Y006917D01*
X007673Y006891D01*
X007628Y006869D01*
X007582Y006851D01*
X007534Y006836D01*
X007485Y006825D01*
X007436Y006818D01*
X007386Y006815D01*
X007335Y006816D01*
X007286Y006821D01*
X007236Y006830D01*
X007188Y006843D01*
X007141Y006859D01*
X007095Y006880D01*
X007051Y006904D01*
X007009Y006931D01*
X006969Y006961D01*
X006932Y006995D01*
X006898Y007032D01*
X006866Y007071D01*
X006838Y007112D01*
X006813Y007156D01*
X006792Y007201D01*
X006775Y007248D01*
X006761Y007296D01*
X006751Y007345D01*
X006745Y007395D01*
X006743Y007445D01*
X007806Y008873D02*
X008672Y008873D01*
X008869Y009070D02*
X008867Y009096D01*
X008862Y009121D01*
X008854Y009145D01*
X008843Y009169D01*
X008828Y009190D01*
X008811Y009209D01*
X008792Y009226D01*
X008771Y009241D01*
X008747Y009252D01*
X008723Y009260D01*
X008698Y009265D01*
X008672Y009267D01*
X007806Y009267D01*
X007780Y009265D01*
X007755Y009260D01*
X007731Y009252D01*
X007708Y009241D01*
X007686Y009226D01*
X007667Y009209D01*
X007650Y009190D01*
X007635Y009169D01*
X007624Y009145D01*
X007616Y009121D01*
X007611Y009096D01*
X007609Y009070D01*
X007611Y009044D01*
X007616Y009019D01*
X007624Y008995D01*
X007635Y008972D01*
X007650Y008950D01*
X007667Y008931D01*
X007686Y008914D01*
X007708Y008899D01*
X007731Y008888D01*
X007755Y008880D01*
X007780Y008875D01*
X007806Y008873D01*
X008672Y008873D02*
X008698Y008875D01*
X008723Y008880D01*
X008747Y008888D01*
X008771Y008899D01*
X008792Y008914D01*
X008811Y008931D01*
X008828Y008950D01*
X008843Y008972D01*
X008854Y008995D01*
X008862Y009019D01*
X008867Y009044D01*
X008869Y009070D01*
X009223Y010606D02*
X009223Y011472D01*
X009225Y011498D01*
X009230Y011523D01*
X009238Y011547D01*
X009249Y011571D01*
X009264Y011592D01*
X009281Y011611D01*
X009300Y011628D01*
X009322Y011643D01*
X009345Y011654D01*
X009369Y011662D01*
X009394Y011667D01*
X009420Y011669D01*
X009446Y011667D01*
X009471Y011662D01*
X009495Y011654D01*
X009519Y011643D01*
X009540Y011628D01*
X009559Y011611D01*
X009576Y011592D01*
X009591Y011571D01*
X009602Y011547D01*
X009610Y011523D01*
X009615Y011498D01*
X009617Y011472D01*
X009617Y010606D01*
X009420Y010409D02*
X009394Y010411D01*
X009369Y010416D01*
X009345Y010424D01*
X009322Y010435D01*
X009300Y010450D01*
X009281Y010467D01*
X009264Y010486D01*
X009249Y010508D01*
X009238Y010531D01*
X009230Y010555D01*
X009225Y010580D01*
X009223Y010606D01*
X009420Y010409D02*
X009446Y010411D01*
X009471Y010416D01*
X009495Y010424D01*
X009519Y010435D01*
X009540Y010450D01*
X009559Y010467D01*
X009576Y010486D01*
X009591Y010508D01*
X009602Y010531D01*
X009610Y010555D01*
X009615Y010580D01*
X009617Y010606D01*
X007137Y010606D02*
X007137Y011472D01*
X006940Y011669D02*
X006914Y011667D01*
X006889Y011662D01*
X006865Y011654D01*
X006842Y011643D01*
X006820Y011628D01*
X006801Y011611D01*
X006784Y011592D01*
X006769Y011571D01*
X006758Y011547D01*
X006750Y011523D01*
X006745Y011498D01*
X006743Y011472D01*
X006743Y010606D01*
X006745Y010580D01*
X006750Y010555D01*
X006758Y010531D01*
X006769Y010508D01*
X006784Y010486D01*
X006801Y010467D01*
X006820Y010450D01*
X006842Y010435D01*
X006865Y010424D01*
X006889Y010416D01*
X006914Y010411D01*
X006940Y010409D01*
X006966Y010411D01*
X006991Y010416D01*
X007015Y010424D01*
X007039Y010435D01*
X007060Y010450D01*
X007079Y010467D01*
X007096Y010486D01*
X007111Y010508D01*
X007122Y010531D01*
X007130Y010555D01*
X007135Y010580D01*
X007137Y010606D01*
X007137Y011472D02*
X007135Y011498D01*
X007130Y011523D01*
X007122Y011547D01*
X007111Y011571D01*
X007096Y011592D01*
X007079Y011611D01*
X007060Y011628D01*
X007039Y011643D01*
X007015Y011654D01*
X006991Y011662D01*
X006966Y011667D01*
X006940Y011669D01*
X007243Y026445D02*
X007245Y026495D01*
X007251Y026545D01*
X007261Y026594D01*
X007275Y026642D01*
X007292Y026689D01*
X007313Y026734D01*
X007338Y026778D01*
X007366Y026819D01*
X007398Y026858D01*
X007432Y026895D01*
X007469Y026929D01*
X007509Y026959D01*
X007551Y026986D01*
X007595Y027010D01*
X007641Y027031D01*
X007688Y027047D01*
X007736Y027060D01*
X007786Y027069D01*
X007835Y027074D01*
X007886Y027075D01*
X007936Y027072D01*
X007985Y027065D01*
X008034Y027054D01*
X008082Y027039D01*
X008128Y027021D01*
X008173Y026999D01*
X008216Y026973D01*
X008257Y026944D01*
X008296Y026912D01*
X008332Y026877D01*
X008364Y026839D01*
X008394Y026799D01*
X008421Y026756D01*
X008444Y026712D01*
X008463Y026666D01*
X008479Y026618D01*
X008491Y026569D01*
X008499Y026520D01*
X008503Y026470D01*
X008503Y026420D01*
X008499Y026370D01*
X008491Y026321D01*
X008479Y026272D01*
X008463Y026224D01*
X008444Y026178D01*
X008421Y026134D01*
X008394Y026091D01*
X008364Y026051D01*
X008332Y026013D01*
X008296Y025978D01*
X008257Y025946D01*
X008216Y025917D01*
X008173Y025891D01*
X008128Y025869D01*
X008082Y025851D01*
X008034Y025836D01*
X007985Y025825D01*
X007936Y025818D01*
X007886Y025815D01*
X007835Y025816D01*
X007786Y025821D01*
X007736Y025830D01*
X007688Y025843D01*
X007641Y025859D01*
X007595Y025880D01*
X007551Y025904D01*
X007509Y025931D01*
X007469Y025961D01*
X007432Y025995D01*
X007398Y026032D01*
X007366Y026071D01*
X007338Y026112D01*
X007313Y026156D01*
X007292Y026201D01*
X007275Y026248D01*
X007261Y026296D01*
X007251Y026345D01*
X007245Y026395D01*
X007243Y026445D01*
X036743Y026445D02*
X036745Y026495D01*
X036751Y026545D01*
X036761Y026594D01*
X036775Y026642D01*
X036792Y026689D01*
X036813Y026734D01*
X036838Y026778D01*
X036866Y026819D01*
X036898Y026858D01*
X036932Y026895D01*
X036969Y026929D01*
X037009Y026959D01*
X037051Y026986D01*
X037095Y027010D01*
X037141Y027031D01*
X037188Y027047D01*
X037236Y027060D01*
X037286Y027069D01*
X037335Y027074D01*
X037386Y027075D01*
X037436Y027072D01*
X037485Y027065D01*
X037534Y027054D01*
X037582Y027039D01*
X037628Y027021D01*
X037673Y026999D01*
X037716Y026973D01*
X037757Y026944D01*
X037796Y026912D01*
X037832Y026877D01*
X037864Y026839D01*
X037894Y026799D01*
X037921Y026756D01*
X037944Y026712D01*
X037963Y026666D01*
X037979Y026618D01*
X037991Y026569D01*
X037999Y026520D01*
X038003Y026470D01*
X038003Y026420D01*
X037999Y026370D01*
X037991Y026321D01*
X037979Y026272D01*
X037963Y026224D01*
X037944Y026178D01*
X037921Y026134D01*
X037894Y026091D01*
X037864Y026051D01*
X037832Y026013D01*
X037796Y025978D01*
X037757Y025946D01*
X037716Y025917D01*
X037673Y025891D01*
X037628Y025869D01*
X037582Y025851D01*
X037534Y025836D01*
X037485Y025825D01*
X037436Y025818D01*
X037386Y025815D01*
X037335Y025816D01*
X037286Y025821D01*
X037236Y025830D01*
X037188Y025843D01*
X037141Y025859D01*
X037095Y025880D01*
X037051Y025904D01*
X037009Y025931D01*
X036969Y025961D01*
X036932Y025995D01*
X036898Y026032D01*
X036866Y026071D01*
X036838Y026112D01*
X036813Y026156D01*
X036792Y026201D01*
X036775Y026248D01*
X036761Y026296D01*
X036751Y026345D01*
X036745Y026395D01*
X036743Y026445D01*
X039243Y007445D02*
X039245Y007495D01*
X039251Y007545D01*
X039261Y007594D01*
X039275Y007642D01*
X039292Y007689D01*
X039313Y007734D01*
X039338Y007778D01*
X039366Y007819D01*
X039398Y007858D01*
X039432Y007895D01*
X039469Y007929D01*
X039509Y007959D01*
X039551Y007986D01*
X039595Y008010D01*
X039641Y008031D01*
X039688Y008047D01*
X039736Y008060D01*
X039786Y008069D01*
X039835Y008074D01*
X039886Y008075D01*
X039936Y008072D01*
X039985Y008065D01*
X040034Y008054D01*
X040082Y008039D01*
X040128Y008021D01*
X040173Y007999D01*
X040216Y007973D01*
X040257Y007944D01*
X040296Y007912D01*
X040332Y007877D01*
X040364Y007839D01*
X040394Y007799D01*
X040421Y007756D01*
X040444Y007712D01*
X040463Y007666D01*
X040479Y007618D01*
X040491Y007569D01*
X040499Y007520D01*
X040503Y007470D01*
X040503Y007420D01*
X040499Y007370D01*
X040491Y007321D01*
X040479Y007272D01*
X040463Y007224D01*
X040444Y007178D01*
X040421Y007134D01*
X040394Y007091D01*
X040364Y007051D01*
X040332Y007013D01*
X040296Y006978D01*
X040257Y006946D01*
X040216Y006917D01*
X040173Y006891D01*
X040128Y006869D01*
X040082Y006851D01*
X040034Y006836D01*
X039985Y006825D01*
X039936Y006818D01*
X039886Y006815D01*
X039835Y006816D01*
X039786Y006821D01*
X039736Y006830D01*
X039688Y006843D01*
X039641Y006859D01*
X039595Y006880D01*
X039551Y006904D01*
X039509Y006931D01*
X039469Y006961D01*
X039432Y006995D01*
X039398Y007032D01*
X039366Y007071D01*
X039338Y007112D01*
X039313Y007156D01*
X039292Y007201D01*
X039275Y007248D01*
X039261Y007296D01*
X039251Y007345D01*
X039245Y007395D01*
X039243Y007445D01*
M02*
