G75*
%MOIN*%
%OFA0B0*%
%FSLAX24Y24*%
%IPPOS*%
%LPD*%
%AMOC8*
5,1,8,0,0,1.08239X$1,22.5*
%
%ADD10C,0.0030*%
%ADD11C,0.0060*%
%ADD12C,0.0020*%
%ADD13C,0.0040*%
%ADD14C,0.0080*%
%ADD15C,0.0050*%
%ADD16C,0.0010*%
%ADD17C,0.0100*%
%ADD18R,0.0050X0.0200*%
%ADD19C,0.0120*%
%ADD20C,0.0160*%
D10*
X020325Y008443D02*
X020325Y008813D01*
X020510Y008813D01*
X020572Y008751D01*
X020572Y008628D01*
X020510Y008566D01*
X020325Y008566D01*
X020693Y008566D02*
X020693Y008936D01*
X020693Y008751D02*
X020940Y008751D01*
X020940Y008936D02*
X020940Y008566D01*
X022687Y008507D02*
X022687Y008877D01*
X022934Y008877D01*
X023055Y008877D02*
X023117Y008877D01*
X023117Y008507D01*
X023055Y008507D02*
X023179Y008507D01*
X023301Y008569D02*
X023362Y008507D01*
X023486Y008507D01*
X023548Y008569D01*
X023548Y008692D01*
X023486Y008754D01*
X023362Y008754D01*
X023301Y008692D01*
X023301Y008569D01*
X023669Y008569D02*
X023669Y008754D01*
X023669Y008569D02*
X023731Y008507D01*
X023793Y008569D01*
X023854Y008507D01*
X023916Y008569D01*
X023916Y008754D01*
X022810Y008692D02*
X022687Y008692D01*
X025654Y008866D02*
X025901Y008866D01*
X025778Y008866D02*
X025778Y008495D01*
X026023Y008557D02*
X026023Y008680D01*
X026084Y008742D01*
X026208Y008742D01*
X026270Y008680D01*
X026270Y008619D01*
X026023Y008619D01*
X026023Y008557D02*
X026084Y008495D01*
X026208Y008495D01*
X026391Y008495D02*
X026391Y008742D01*
X026453Y008742D01*
X026515Y008680D01*
X026576Y008742D01*
X026638Y008680D01*
X026638Y008495D01*
X026759Y008495D02*
X026945Y008495D01*
X027006Y008557D01*
X027006Y008680D01*
X026945Y008742D01*
X026759Y008742D01*
X026759Y008372D01*
X026515Y008495D02*
X026515Y008680D01*
X028494Y008591D02*
X028679Y008591D01*
X028741Y008653D01*
X028741Y008776D01*
X028679Y008838D01*
X028494Y008838D01*
X028494Y008468D01*
X028862Y008529D02*
X028924Y008468D01*
X029109Y008468D01*
X029109Y008715D01*
X029231Y008715D02*
X029292Y008715D01*
X029354Y008653D01*
X029416Y008715D01*
X029478Y008653D01*
X029478Y008468D01*
X029599Y008468D02*
X029784Y008468D01*
X029846Y008529D01*
X029846Y008653D01*
X029784Y008715D01*
X029599Y008715D01*
X029599Y008344D01*
X029354Y008468D02*
X029354Y008653D01*
X029231Y008715D02*
X029231Y008468D01*
X028862Y008529D02*
X028862Y008715D01*
X031191Y008813D02*
X031191Y008443D01*
X031191Y008566D02*
X031376Y008566D01*
X031438Y008628D01*
X031438Y008751D01*
X031376Y008813D01*
X031191Y008813D01*
X031559Y008628D02*
X031559Y008566D01*
X031621Y008566D01*
X031621Y008628D01*
X031559Y008628D01*
X031743Y008566D02*
X031928Y008566D01*
X031990Y008628D01*
X031990Y008751D01*
X031928Y008813D01*
X031743Y008813D01*
X031743Y008443D01*
X032480Y008690D02*
X032480Y008936D01*
X032480Y008690D02*
X032603Y008566D01*
X032727Y008690D01*
X032727Y008936D01*
X032848Y008875D02*
X032910Y008936D01*
X033033Y008936D01*
X033095Y008875D01*
X033217Y008875D02*
X033278Y008936D01*
X033402Y008936D01*
X033463Y008875D01*
X033217Y008875D02*
X033217Y008628D01*
X033278Y008566D01*
X033402Y008566D01*
X033463Y008628D01*
X033095Y008628D02*
X033033Y008566D01*
X032910Y008566D01*
X032848Y008628D01*
X032848Y008875D01*
X034655Y008897D02*
X034655Y008527D01*
X034655Y008650D02*
X034841Y008650D01*
X034902Y008712D01*
X034902Y008835D01*
X034841Y008897D01*
X034655Y008897D01*
X034779Y008650D02*
X034902Y008527D01*
X035024Y008589D02*
X035024Y008712D01*
X035085Y008774D01*
X035209Y008774D01*
X035271Y008712D01*
X035271Y008650D01*
X035024Y008650D01*
X035024Y008589D02*
X035085Y008527D01*
X035209Y008527D01*
X035392Y008527D02*
X035515Y008527D01*
X035454Y008527D02*
X035454Y008897D01*
X035392Y008897D01*
X035699Y008774D02*
X035823Y008774D01*
X035884Y008712D01*
X035884Y008527D01*
X035699Y008527D01*
X035638Y008589D01*
X035699Y008650D01*
X035884Y008650D01*
X036006Y008589D02*
X036006Y008774D01*
X036006Y008589D02*
X036068Y008527D01*
X036253Y008527D01*
X036253Y008465D02*
X036191Y008403D01*
X036129Y008403D01*
X036253Y008465D02*
X036253Y008774D01*
X036154Y020413D02*
X036216Y020475D01*
X036216Y020784D01*
X036031Y020784D01*
X035969Y020722D01*
X035969Y020598D01*
X036031Y020537D01*
X036216Y020537D01*
X036337Y020537D02*
X036337Y020907D01*
X036399Y020784D02*
X036523Y020784D01*
X036584Y020722D01*
X036584Y020537D01*
X036767Y020598D02*
X036829Y020537D01*
X036767Y020598D02*
X036767Y020845D01*
X036706Y020784D02*
X036829Y020784D01*
X036399Y020784D02*
X036337Y020722D01*
X036154Y020413D02*
X036093Y020413D01*
X035847Y020537D02*
X035724Y020537D01*
X035785Y020537D02*
X035785Y020784D01*
X035724Y020784D01*
X035785Y020907D02*
X035785Y020969D01*
X035355Y020907D02*
X035355Y020537D01*
X035602Y020537D01*
X015833Y020548D02*
X015833Y020795D01*
X015833Y020672D02*
X015462Y020672D01*
X015586Y020548D01*
X015586Y020427D02*
X015647Y020365D01*
X015647Y020180D01*
X015462Y020180D02*
X015462Y020365D01*
X015524Y020427D01*
X015586Y020427D01*
X015647Y020365D02*
X015709Y020427D01*
X015771Y020427D01*
X015833Y020365D01*
X015833Y020180D01*
X015462Y020180D01*
X015524Y019795D02*
X015462Y019733D01*
X015462Y019610D01*
X015524Y019548D01*
X015524Y019427D02*
X015586Y019427D01*
X015647Y019365D01*
X015647Y019180D01*
X015462Y019180D02*
X015462Y019365D01*
X015524Y019427D01*
X015647Y019365D02*
X015709Y019427D01*
X015771Y019427D01*
X015833Y019365D01*
X015833Y019180D01*
X015462Y019180D01*
X015833Y019548D02*
X015586Y019795D01*
X015524Y019795D01*
X015833Y019795D02*
X015833Y019548D01*
X015833Y021180D02*
X015586Y021180D01*
X015462Y021303D01*
X015586Y021427D01*
X015833Y021427D01*
X015833Y021548D02*
X015586Y021795D01*
X015524Y021795D01*
X015462Y021733D01*
X015462Y021610D01*
X015524Y021548D01*
X015647Y021427D02*
X015647Y021180D01*
X015833Y021548D02*
X015833Y021795D01*
X015833Y022180D02*
X015586Y022180D01*
X015462Y022303D01*
X015586Y022427D01*
X015833Y022427D01*
X015833Y022548D02*
X015833Y022795D01*
X015833Y022672D02*
X015462Y022672D01*
X015586Y022548D01*
X015647Y022427D02*
X015647Y022180D01*
X015524Y017795D02*
X015462Y017733D01*
X015462Y017548D01*
X015833Y017548D01*
X015833Y017733D01*
X015771Y017795D01*
X015524Y017795D01*
X015462Y017427D02*
X015833Y017427D01*
X015462Y017180D01*
X015833Y017180D01*
X015771Y017059D02*
X015647Y017059D01*
X015647Y016935D01*
X015524Y016812D02*
X015771Y016812D01*
X015833Y016873D01*
X015833Y016997D01*
X015771Y017059D01*
X015524Y017059D02*
X015462Y016997D01*
X015462Y016873D01*
X015524Y016812D01*
X015647Y016295D02*
X015647Y016048D01*
X015524Y016172D02*
X015771Y016172D01*
X015833Y015927D02*
X015462Y015927D01*
X015586Y015803D01*
X015462Y015680D01*
X015833Y015680D01*
X007753Y015876D02*
X007704Y015827D01*
X007753Y015876D02*
X007753Y015972D01*
X007704Y016021D01*
X007656Y016021D01*
X007607Y015972D01*
X007607Y015876D01*
X007559Y015827D01*
X007511Y015827D01*
X007462Y015876D01*
X007462Y015972D01*
X007511Y016021D01*
X007462Y016122D02*
X007462Y016315D01*
X007462Y016219D02*
X007753Y016219D01*
X007704Y017033D02*
X007511Y017033D01*
X007462Y017081D01*
X007462Y017178D01*
X007511Y017226D01*
X007607Y017226D02*
X007607Y017129D01*
X007607Y017226D02*
X007704Y017226D01*
X007753Y017178D01*
X007753Y017081D01*
X007704Y017033D01*
X007753Y017327D02*
X007462Y017327D01*
X007753Y017521D01*
X007462Y017521D01*
X007462Y017622D02*
X007462Y017767D01*
X007511Y017815D01*
X007704Y017815D01*
X007753Y017767D01*
X007753Y017622D01*
X007462Y017622D01*
X007462Y018033D02*
X007656Y018033D01*
X007753Y018129D01*
X007656Y018226D01*
X007462Y018226D01*
X007511Y018327D02*
X007704Y018327D01*
X007753Y018376D01*
X007753Y018472D01*
X007704Y018521D01*
X007704Y018622D02*
X007753Y018670D01*
X007753Y018767D01*
X007704Y018815D01*
X007704Y018622D02*
X007511Y018622D01*
X007462Y018670D01*
X007462Y018767D01*
X007511Y018815D01*
X007511Y019033D02*
X007559Y019033D01*
X007607Y019081D01*
X007607Y019178D01*
X007656Y019226D01*
X007704Y019226D01*
X007753Y019178D01*
X007753Y019081D01*
X007704Y019033D01*
X007511Y019033D02*
X007462Y019081D01*
X007462Y019178D01*
X007511Y019226D01*
X007462Y019327D02*
X007753Y019327D01*
X007753Y019521D01*
X007753Y019622D02*
X007462Y019622D01*
X007462Y019767D01*
X007511Y019815D01*
X007607Y019815D01*
X007656Y019767D01*
X007656Y019622D01*
X007656Y020033D02*
X007656Y020178D01*
X007607Y020226D01*
X007511Y020226D01*
X007462Y020178D01*
X007462Y020033D01*
X007753Y020033D01*
X007656Y020129D02*
X007753Y020226D01*
X007704Y020327D02*
X007753Y020376D01*
X007753Y020472D01*
X007704Y020521D01*
X007656Y020521D01*
X007607Y020472D01*
X007607Y020376D01*
X007559Y020327D01*
X007511Y020327D01*
X007462Y020376D01*
X007462Y020472D01*
X007511Y020521D01*
X007462Y020622D02*
X007462Y020815D01*
X007462Y020719D02*
X007753Y020719D01*
X007753Y021327D02*
X007462Y021327D01*
X007559Y021424D01*
X007462Y021521D01*
X007753Y021521D01*
X007704Y021622D02*
X007753Y021670D01*
X007753Y021767D01*
X007704Y021815D01*
X007656Y021815D01*
X007607Y021767D01*
X007607Y021719D01*
X007607Y021767D02*
X007559Y021815D01*
X007511Y021815D01*
X007462Y021767D01*
X007462Y021670D01*
X007511Y021622D01*
X007462Y022327D02*
X007559Y022424D01*
X007462Y022521D01*
X007753Y022521D01*
X007753Y022622D02*
X007559Y022815D01*
X007511Y022815D01*
X007462Y022767D01*
X007462Y022670D01*
X007511Y022622D01*
X007753Y022622D02*
X007753Y022815D01*
X007753Y023327D02*
X007462Y023327D01*
X007559Y023424D01*
X007462Y023521D01*
X007753Y023521D01*
X007753Y023622D02*
X007753Y023815D01*
X007753Y023719D02*
X007462Y023719D01*
X007559Y023622D01*
X007607Y024327D02*
X007607Y024424D01*
X007462Y024327D02*
X007753Y024327D01*
X007753Y024521D01*
X007753Y024622D02*
X007462Y024622D01*
X007753Y024815D01*
X007462Y024815D01*
X007462Y024521D02*
X007462Y024327D01*
X007462Y022327D02*
X007753Y022327D01*
X007511Y018521D02*
X007462Y018472D01*
X007462Y018376D01*
X007511Y018327D01*
X007511Y015315D02*
X007607Y015315D01*
X007656Y015267D01*
X007656Y015122D01*
X007753Y015122D02*
X007462Y015122D01*
X007462Y015267D01*
X007511Y015315D01*
X007656Y015219D02*
X007753Y015315D01*
X007753Y015022D02*
X007753Y014925D01*
X007753Y014974D02*
X007462Y014974D01*
X007462Y015022D02*
X007462Y014925D01*
X007511Y014824D02*
X007462Y014776D01*
X007462Y014631D01*
X007753Y014631D01*
X007753Y014776D01*
X007704Y014824D01*
X007511Y014824D01*
D11*
X007303Y012529D02*
X007303Y011888D01*
X007730Y011888D01*
X007948Y011995D02*
X008054Y011888D01*
X008268Y011888D01*
X008375Y011995D01*
X008375Y012102D01*
X008268Y012209D01*
X008054Y012209D01*
X007948Y012315D01*
X007948Y012422D01*
X008054Y012529D01*
X008268Y012529D01*
X008375Y012422D01*
X008592Y012529D02*
X008592Y011888D01*
X009019Y011888D01*
X008806Y012209D02*
X008592Y012209D01*
X008592Y012529D02*
X009019Y012529D01*
X009237Y012529D02*
X009664Y012529D01*
X009450Y012529D02*
X009450Y011888D01*
X007730Y012529D02*
X007303Y012529D01*
X007086Y012422D02*
X007086Y012209D01*
X006979Y012102D01*
X006659Y012102D01*
X006872Y012102D02*
X007086Y011888D01*
X007303Y012209D02*
X007517Y012209D01*
X007086Y012422D02*
X006979Y012529D01*
X006659Y012529D01*
X006659Y011888D01*
X005089Y012084D02*
X004662Y012084D01*
X004875Y012084D02*
X004875Y012725D01*
X004662Y012511D01*
X004444Y012725D02*
X004017Y012084D01*
X004444Y012084D02*
X004017Y012725D01*
X013489Y023210D02*
X013489Y023437D01*
X013319Y023380D02*
X013489Y023210D01*
X013319Y023380D02*
X013660Y023380D01*
X013660Y023579D02*
X013660Y023635D01*
X013603Y023635D01*
X013603Y023579D01*
X013660Y023579D01*
X013660Y023763D02*
X013603Y023763D01*
X013376Y023990D01*
X013319Y023990D01*
X013319Y023763D01*
X013319Y024131D02*
X013660Y024131D01*
X013546Y024131D02*
X013319Y024358D01*
X013489Y024188D02*
X013660Y024358D01*
X020046Y024270D02*
X020046Y022770D01*
X020296Y022520D01*
X020796Y022520D01*
X021046Y022770D01*
X021046Y024270D01*
X021296Y024520D01*
X021796Y024520D01*
X022046Y024270D01*
X022046Y022770D01*
X022296Y022520D01*
X022796Y022520D01*
X023046Y022770D01*
X023046Y024270D01*
X023296Y024520D01*
X023796Y024520D01*
X024046Y024270D01*
X024046Y022770D01*
X024296Y022520D01*
X024796Y022520D01*
X025046Y022770D01*
X025046Y024270D01*
X025296Y024520D01*
X025796Y024520D01*
X026046Y024270D01*
X026046Y022770D01*
X026296Y022520D01*
X026796Y022520D01*
X027046Y022770D01*
X027046Y024270D01*
X027296Y024520D01*
X027796Y024520D01*
X028046Y024270D01*
X028046Y022770D01*
X027796Y022520D01*
X027296Y022520D01*
X027046Y022770D01*
X026046Y022770D02*
X025796Y022520D01*
X025296Y022520D01*
X025046Y022770D01*
X024046Y022770D02*
X023796Y022520D01*
X023296Y022520D01*
X023046Y022770D01*
X022046Y022770D02*
X021796Y022520D01*
X021296Y022520D01*
X021046Y022770D01*
X021046Y024270D02*
X020796Y024520D01*
X020296Y024520D01*
X020046Y024270D01*
X022046Y024270D02*
X022296Y024520D01*
X022796Y024520D01*
X023046Y024270D01*
X024046Y024270D02*
X024296Y024520D01*
X024796Y024520D01*
X025046Y024270D01*
X026046Y024270D02*
X026296Y024520D01*
X026796Y024520D01*
X027046Y024270D01*
X030532Y022801D02*
X031282Y022801D01*
X031284Y022762D01*
X031290Y022723D01*
X031299Y022685D01*
X031312Y022648D01*
X031329Y022612D01*
X031349Y022579D01*
X031373Y022547D01*
X031399Y022518D01*
X031428Y022492D01*
X031460Y022468D01*
X031493Y022448D01*
X031529Y022431D01*
X031566Y022418D01*
X031604Y022409D01*
X031643Y022403D01*
X031682Y022401D01*
X031721Y022403D01*
X031760Y022409D01*
X031798Y022418D01*
X031835Y022431D01*
X031871Y022448D01*
X031904Y022468D01*
X031936Y022492D01*
X031965Y022518D01*
X031991Y022547D01*
X032015Y022579D01*
X032035Y022612D01*
X032052Y022648D01*
X032065Y022685D01*
X032074Y022723D01*
X032080Y022762D01*
X032082Y022801D01*
X032832Y022801D01*
X032832Y018801D01*
X030532Y018801D01*
X030532Y022801D01*
X026727Y020544D02*
X026500Y020317D01*
X026556Y020260D01*
X026670Y020260D01*
X026727Y020317D01*
X026727Y020544D01*
X026670Y020601D01*
X026556Y020601D01*
X026500Y020544D01*
X026500Y020317D01*
X026358Y020317D02*
X026302Y020260D01*
X026188Y020260D01*
X026131Y020317D01*
X026358Y020544D01*
X026358Y020317D01*
X026131Y020317D02*
X026131Y020544D01*
X026188Y020601D01*
X026302Y020601D01*
X026358Y020544D01*
X025990Y020260D02*
X025763Y020260D01*
X025877Y020260D02*
X025877Y020601D01*
X025763Y020487D01*
X023596Y019448D02*
X023596Y016108D01*
X023594Y016085D01*
X023589Y016062D01*
X023580Y016040D01*
X023567Y016020D01*
X023552Y016002D01*
X023534Y015987D01*
X023514Y015974D01*
X023492Y015965D01*
X023469Y015960D01*
X023446Y015958D01*
X023251Y015958D01*
X022251Y015958D01*
X022056Y015958D01*
X022033Y015960D01*
X022010Y015965D01*
X021988Y015974D01*
X021968Y015987D01*
X021950Y016002D01*
X021935Y016020D01*
X021922Y016040D01*
X021913Y016062D01*
X021908Y016085D01*
X021906Y016108D01*
X021906Y019448D01*
X021908Y019471D01*
X021913Y019494D01*
X021922Y019516D01*
X021935Y019536D01*
X021950Y019554D01*
X021968Y019569D01*
X021988Y019582D01*
X022010Y019591D01*
X022033Y019596D01*
X022056Y019598D01*
X023446Y019598D01*
X023469Y019596D01*
X023492Y019591D01*
X023514Y019582D01*
X023534Y019569D01*
X023552Y019554D01*
X023567Y019536D01*
X023580Y019516D01*
X023589Y019494D01*
X023594Y019471D01*
X023596Y019448D01*
X022295Y020319D02*
X022238Y020262D01*
X022124Y020262D01*
X022068Y020319D01*
X022295Y020545D01*
X022295Y020319D01*
X022295Y020545D02*
X022238Y020602D01*
X022124Y020602D01*
X022068Y020545D01*
X022068Y020319D01*
X021926Y020319D02*
X021870Y020262D01*
X021756Y020262D01*
X021699Y020319D01*
X021926Y020545D01*
X021926Y020319D01*
X021926Y020545D02*
X021870Y020602D01*
X021756Y020602D01*
X021699Y020545D01*
X021699Y020319D01*
X021558Y020262D02*
X021331Y020262D01*
X021444Y020262D02*
X021444Y020602D01*
X021331Y020489D01*
X022251Y015958D02*
X022253Y016002D01*
X022259Y016045D01*
X022268Y016087D01*
X022281Y016129D01*
X022298Y016169D01*
X022318Y016208D01*
X022341Y016245D01*
X022368Y016279D01*
X022397Y016312D01*
X022430Y016341D01*
X022464Y016368D01*
X022501Y016391D01*
X022540Y016411D01*
X022580Y016428D01*
X022622Y016441D01*
X022664Y016450D01*
X022707Y016456D01*
X022751Y016458D01*
X022795Y016456D01*
X022838Y016450D01*
X022880Y016441D01*
X022922Y016428D01*
X022962Y016411D01*
X023001Y016391D01*
X023038Y016368D01*
X023072Y016341D01*
X023105Y016312D01*
X023134Y016279D01*
X023161Y016245D01*
X023184Y016208D01*
X023204Y016169D01*
X023221Y016129D01*
X023234Y016087D01*
X023243Y016045D01*
X023249Y016002D01*
X023251Y015958D01*
X022989Y015425D02*
X022876Y015312D01*
X022762Y015425D01*
X022762Y015085D01*
X022621Y015085D02*
X022394Y015085D01*
X022507Y015085D02*
X022507Y015425D01*
X022394Y015312D01*
X022989Y015425D02*
X022989Y015085D01*
X023881Y014448D02*
X021581Y014448D01*
X021530Y014446D01*
X021479Y014441D01*
X021429Y014431D01*
X021379Y014418D01*
X021331Y014402D01*
X021284Y014382D01*
X021238Y014358D01*
X021195Y014332D01*
X021153Y014302D01*
X021114Y014269D01*
X021077Y014234D01*
X021043Y014196D01*
X021012Y014155D01*
X020983Y014113D01*
X020958Y014068D01*
X020937Y014022D01*
X020918Y013974D01*
X020904Y013925D01*
X020893Y013875D01*
X020885Y013825D01*
X020881Y013774D01*
X020881Y013722D01*
X020885Y013671D01*
X020893Y013621D01*
X020904Y013571D01*
X020918Y013522D01*
X020937Y013474D01*
X020958Y013428D01*
X020983Y013383D01*
X021012Y013341D01*
X021043Y013300D01*
X021077Y013262D01*
X021114Y013227D01*
X021153Y013194D01*
X021195Y013164D01*
X021238Y013138D01*
X021284Y013114D01*
X021331Y013094D01*
X021379Y013078D01*
X021429Y013065D01*
X021479Y013055D01*
X021530Y013050D01*
X021581Y013048D01*
X023881Y013048D01*
X023932Y013050D01*
X023983Y013055D01*
X024033Y013065D01*
X024083Y013078D01*
X024131Y013094D01*
X024178Y013114D01*
X024224Y013138D01*
X024267Y013164D01*
X024309Y013194D01*
X024348Y013227D01*
X024385Y013262D01*
X024419Y013300D01*
X024450Y013341D01*
X024479Y013383D01*
X024504Y013428D01*
X024525Y013474D01*
X024544Y013522D01*
X024558Y013571D01*
X024569Y013621D01*
X024577Y013671D01*
X024581Y013722D01*
X024581Y013774D01*
X024577Y013825D01*
X024569Y013875D01*
X024558Y013925D01*
X024544Y013974D01*
X024525Y014022D01*
X024504Y014068D01*
X024479Y014113D01*
X024450Y014155D01*
X024419Y014196D01*
X024385Y014234D01*
X024348Y014269D01*
X024309Y014302D01*
X024267Y014332D01*
X024224Y014358D01*
X024178Y014382D01*
X024131Y014402D01*
X024083Y014418D01*
X024033Y014431D01*
X023983Y014441D01*
X023932Y014446D01*
X023881Y014448D01*
X030596Y014032D02*
X032896Y014032D01*
X032896Y018032D01*
X032146Y018032D01*
X032144Y017993D01*
X032138Y017954D01*
X032129Y017916D01*
X032116Y017879D01*
X032099Y017843D01*
X032079Y017810D01*
X032055Y017778D01*
X032029Y017749D01*
X032000Y017723D01*
X031968Y017699D01*
X031935Y017679D01*
X031899Y017662D01*
X031862Y017649D01*
X031824Y017640D01*
X031785Y017634D01*
X031746Y017632D01*
X031707Y017634D01*
X031668Y017640D01*
X031630Y017649D01*
X031593Y017662D01*
X031557Y017679D01*
X031524Y017699D01*
X031492Y017723D01*
X031463Y017749D01*
X031437Y017778D01*
X031413Y017810D01*
X031393Y017843D01*
X031376Y017879D01*
X031363Y017916D01*
X031354Y017954D01*
X031348Y017993D01*
X031346Y018032D01*
X030596Y018032D01*
X030596Y014032D01*
X038373Y014195D02*
X038623Y013945D01*
X040123Y013945D01*
X040373Y014195D01*
X040373Y014695D01*
X040123Y014945D01*
X038623Y014945D01*
X038373Y015195D01*
X038373Y015695D01*
X038623Y015945D01*
X040123Y015945D01*
X040373Y016195D01*
X040373Y016695D01*
X040123Y016945D01*
X038623Y016945D01*
X038373Y017195D01*
X038373Y017695D01*
X038623Y017945D01*
X040123Y017945D01*
X040373Y017695D01*
X040373Y017195D01*
X040123Y016945D01*
X040123Y015945D02*
X040373Y015695D01*
X040373Y015195D01*
X040123Y014945D01*
X040123Y013945D02*
X040373Y013695D01*
X040373Y013195D01*
X040123Y012945D01*
X038623Y012945D01*
X038373Y013195D01*
X038373Y013695D01*
X038623Y013945D01*
X038373Y014195D02*
X038373Y014695D01*
X038623Y014945D01*
X038623Y015945D02*
X038373Y016195D01*
X038373Y016695D01*
X038623Y016945D01*
X038623Y017945D02*
X038373Y018195D01*
X038373Y018695D01*
X038623Y018945D01*
X040123Y018945D01*
X040373Y019195D01*
X040373Y019695D01*
X040123Y019945D01*
X038623Y019945D01*
X038373Y020195D01*
X038373Y020695D01*
X038623Y020945D01*
X040123Y020945D01*
X040373Y021195D01*
X040373Y021695D01*
X040123Y021945D01*
X038623Y021945D01*
X038373Y022195D01*
X038373Y022695D01*
X038623Y022945D01*
X040123Y022945D01*
X040373Y023195D01*
X040373Y023695D01*
X040123Y023945D01*
X038623Y023945D01*
X038373Y024195D01*
X038373Y024695D01*
X038623Y024945D01*
X040123Y024945D01*
X040373Y024695D01*
X040373Y024195D01*
X040123Y023945D01*
X040123Y024945D02*
X040373Y025195D01*
X040373Y025695D01*
X040123Y025945D01*
X038623Y025945D02*
X038373Y025695D01*
X038373Y025195D01*
X038623Y024945D01*
X038623Y023945D02*
X038373Y023695D01*
X038373Y023195D01*
X038623Y022945D01*
X038623Y021945D02*
X038373Y021695D01*
X038373Y021195D01*
X038623Y020945D01*
X038623Y019945D02*
X038373Y019695D01*
X038373Y019195D01*
X038623Y018945D01*
X040123Y018945D02*
X040373Y018695D01*
X040373Y018195D01*
X040123Y017945D01*
X040123Y019945D02*
X040373Y020195D01*
X040373Y020695D01*
X040123Y020945D01*
X040123Y021945D02*
X040373Y022195D01*
X040373Y022695D01*
X040123Y022945D01*
X040123Y012945D02*
X040373Y012695D01*
X040373Y012195D01*
X040123Y011945D01*
X038623Y011945D01*
X038373Y012195D01*
X038373Y012695D01*
X038623Y012945D01*
X038623Y011945D02*
X038373Y011695D01*
X038373Y011195D01*
X038623Y010945D01*
X040123Y010945D01*
X040373Y011195D01*
X040373Y011695D01*
X040123Y011945D01*
X040123Y010945D02*
X040373Y010695D01*
X040373Y010195D01*
X040123Y009945D01*
X040653Y009468D02*
X040653Y009242D01*
X040709Y009185D01*
X040823Y009185D01*
X040880Y009242D01*
X040880Y009355D01*
X040766Y009355D01*
X040653Y009468D02*
X040709Y009525D01*
X040823Y009525D01*
X040880Y009468D01*
X041021Y009525D02*
X041248Y009185D01*
X041248Y009525D01*
X041389Y009525D02*
X041559Y009525D01*
X041616Y009468D01*
X041616Y009242D01*
X041559Y009185D01*
X041389Y009185D01*
X041389Y009525D01*
X041021Y009525D02*
X041021Y009185D01*
X038623Y009945D02*
X038373Y010195D01*
X038373Y010695D01*
X038623Y010945D01*
D12*
X036991Y010918D02*
X036955Y010955D01*
X036881Y010955D01*
X036845Y010918D01*
X036845Y010771D01*
X036881Y010734D01*
X036955Y010734D01*
X036991Y010771D01*
X036991Y010845D01*
X036918Y010845D01*
X036771Y010955D02*
X036697Y010955D01*
X036734Y010955D02*
X036734Y010734D01*
X036697Y010734D02*
X036771Y010734D01*
X036623Y010771D02*
X036586Y010734D01*
X036513Y010734D01*
X036476Y010771D01*
X036513Y010845D02*
X036476Y010881D01*
X036476Y010918D01*
X036513Y010955D01*
X036586Y010955D01*
X036623Y010918D01*
X036586Y010845D02*
X036623Y010808D01*
X036623Y010771D01*
X036586Y010845D02*
X036513Y010845D01*
X036516Y009951D02*
X036516Y009841D01*
X036589Y009877D01*
X036626Y009877D01*
X036662Y009841D01*
X036662Y009767D01*
X036626Y009730D01*
X036552Y009730D01*
X036516Y009767D01*
X036516Y009951D02*
X036662Y009951D01*
X036737Y009951D02*
X036737Y009804D01*
X036810Y009730D01*
X036883Y009804D01*
X036883Y009951D01*
X034053Y009678D02*
X034016Y009714D01*
X033906Y009714D01*
X033906Y009494D01*
X034016Y009494D01*
X034053Y009531D01*
X034053Y009678D01*
X033832Y009714D02*
X033832Y009494D01*
X033685Y009714D01*
X033685Y009494D01*
X033611Y009531D02*
X033611Y009604D01*
X033538Y009604D01*
X033611Y009531D02*
X033574Y009494D01*
X033501Y009494D01*
X033464Y009531D01*
X033464Y009678D01*
X033501Y009714D01*
X033574Y009714D01*
X033611Y009678D01*
X033535Y010518D02*
X033462Y010518D01*
X033425Y010555D01*
X033425Y010628D02*
X033498Y010665D01*
X033535Y010665D01*
X033572Y010628D01*
X033572Y010555D01*
X033535Y010518D01*
X033646Y010591D02*
X033719Y010518D01*
X033793Y010591D01*
X033793Y010738D01*
X033646Y010738D02*
X033646Y010591D01*
X033572Y010738D02*
X033425Y010738D01*
X033425Y010628D01*
X033366Y011699D02*
X033366Y011919D01*
X033513Y011699D01*
X033513Y011919D01*
X033587Y011882D02*
X033587Y011846D01*
X033624Y011809D01*
X033697Y011809D01*
X033734Y011772D01*
X033734Y011736D01*
X033697Y011699D01*
X033624Y011699D01*
X033587Y011736D01*
X033587Y011882D02*
X033624Y011919D01*
X033697Y011919D01*
X033734Y011882D01*
X032531Y013522D02*
X032531Y013742D01*
X032604Y013742D02*
X032457Y013742D01*
X032383Y013705D02*
X032346Y013742D01*
X032273Y013742D01*
X032236Y013705D01*
X032236Y013559D01*
X032273Y013522D01*
X032346Y013522D01*
X032383Y013559D01*
X032383Y013705D01*
X032162Y013705D02*
X032162Y013632D01*
X032125Y013595D01*
X032015Y013595D01*
X032015Y013522D02*
X032015Y013742D01*
X032125Y013742D01*
X032162Y013705D01*
X031720Y013632D02*
X031720Y013559D01*
X031683Y013522D01*
X031573Y013522D01*
X031573Y013448D02*
X031573Y013669D01*
X031683Y013669D01*
X031720Y013632D01*
X031499Y013632D02*
X031499Y013522D01*
X031426Y013522D02*
X031426Y013632D01*
X031462Y013669D01*
X031499Y013632D01*
X031426Y013632D02*
X031389Y013669D01*
X031352Y013669D01*
X031352Y013522D01*
X031278Y013522D02*
X031278Y013669D01*
X031131Y013669D02*
X031131Y013559D01*
X031168Y013522D01*
X031278Y013522D01*
X031057Y013632D02*
X031020Y013595D01*
X030910Y013595D01*
X030910Y013522D02*
X030910Y013742D01*
X031020Y013742D01*
X031057Y013705D01*
X031057Y013632D01*
X030702Y011840D02*
X030702Y011694D01*
X030629Y011620D01*
X030555Y011694D01*
X030555Y011840D01*
X030481Y011840D02*
X030334Y011840D01*
X030334Y011730D01*
X030408Y011767D01*
X030445Y011767D01*
X030481Y011730D01*
X030481Y011657D01*
X030445Y011620D01*
X030371Y011620D01*
X030334Y011657D01*
X030383Y010718D02*
X030383Y010572D01*
X030309Y010498D01*
X030236Y010572D01*
X030236Y010718D01*
X030457Y010645D02*
X030530Y010718D01*
X030604Y010645D01*
X030604Y010498D01*
X030678Y010498D02*
X030678Y010718D01*
X030788Y010718D01*
X030825Y010682D01*
X030825Y010608D01*
X030788Y010572D01*
X030678Y010572D01*
X030751Y010572D02*
X030825Y010498D01*
X030604Y010608D02*
X030457Y010608D01*
X030457Y010645D02*
X030457Y010498D01*
X030496Y009636D02*
X030643Y009416D01*
X030643Y009636D01*
X030717Y009636D02*
X030827Y009636D01*
X030864Y009599D01*
X030864Y009452D01*
X030827Y009416D01*
X030717Y009416D01*
X030717Y009636D01*
X030496Y009636D02*
X030496Y009416D01*
X030422Y009452D02*
X030422Y009526D01*
X030349Y009526D01*
X030422Y009599D02*
X030386Y009636D01*
X030312Y009636D01*
X030275Y009599D01*
X030275Y009452D01*
X030312Y009416D01*
X030386Y009416D01*
X030422Y009452D01*
X027887Y009511D02*
X027887Y009658D01*
X027850Y009695D01*
X027740Y009695D01*
X027740Y009475D01*
X027850Y009475D01*
X027887Y009511D01*
X027666Y009475D02*
X027666Y009695D01*
X027519Y009695D02*
X027666Y009475D01*
X027519Y009475D02*
X027519Y009695D01*
X027445Y009658D02*
X027408Y009695D01*
X027335Y009695D01*
X027298Y009658D01*
X027298Y009511D01*
X027335Y009475D01*
X027408Y009475D01*
X027445Y009511D01*
X027445Y009585D01*
X027371Y009585D01*
X027334Y010656D02*
X027261Y010656D01*
X027224Y010692D01*
X027224Y010766D02*
X027298Y010802D01*
X027334Y010802D01*
X027371Y010766D01*
X027371Y010692D01*
X027334Y010656D01*
X027445Y010729D02*
X027519Y010656D01*
X027592Y010729D01*
X027592Y010876D01*
X027445Y010876D02*
X027445Y010729D01*
X027371Y010876D02*
X027224Y010876D01*
X027224Y010766D01*
X027320Y011660D02*
X027283Y011696D01*
X027320Y011660D02*
X027393Y011660D01*
X027430Y011696D01*
X027430Y011733D01*
X027393Y011770D01*
X027320Y011770D01*
X027283Y011806D01*
X027283Y011843D01*
X027320Y011880D01*
X027393Y011880D01*
X027430Y011843D01*
X027504Y011880D02*
X027578Y011880D01*
X027541Y011880D02*
X027541Y011660D01*
X027504Y011660D02*
X027578Y011660D01*
X027652Y011696D02*
X027688Y011660D01*
X027762Y011660D01*
X027798Y011696D01*
X027798Y011770D01*
X027725Y011770D01*
X027652Y011843D02*
X027652Y011696D01*
X027652Y011843D02*
X027688Y011880D01*
X027762Y011880D01*
X027798Y011843D01*
X024806Y011823D02*
X024770Y011860D01*
X024696Y011860D01*
X024659Y011823D01*
X024659Y011677D01*
X024696Y011640D01*
X024770Y011640D01*
X024806Y011677D01*
X024806Y011750D01*
X024733Y011750D01*
X024586Y011640D02*
X024512Y011640D01*
X024549Y011640D02*
X024549Y011860D01*
X024512Y011860D02*
X024586Y011860D01*
X024438Y011823D02*
X024401Y011860D01*
X024328Y011860D01*
X024291Y011823D01*
X024291Y011787D01*
X024328Y011750D01*
X024401Y011750D01*
X024438Y011713D01*
X024438Y011677D01*
X024401Y011640D01*
X024328Y011640D01*
X024291Y011677D01*
X024271Y010876D02*
X024271Y010766D01*
X024345Y010802D01*
X024382Y010802D01*
X024418Y010766D01*
X024418Y010692D01*
X024382Y010656D01*
X024308Y010656D01*
X024271Y010692D01*
X024271Y010876D02*
X024418Y010876D01*
X024492Y010876D02*
X024492Y010729D01*
X024566Y010656D01*
X024639Y010729D01*
X024639Y010876D01*
X024639Y009695D02*
X024639Y009475D01*
X024492Y009695D01*
X024492Y009475D01*
X024418Y009511D02*
X024418Y009585D01*
X024345Y009585D01*
X024418Y009658D02*
X024382Y009695D01*
X024308Y009695D01*
X024271Y009658D01*
X024271Y009511D01*
X024308Y009475D01*
X024382Y009475D01*
X024418Y009511D01*
X024713Y009475D02*
X024824Y009475D01*
X024860Y009511D01*
X024860Y009658D01*
X024824Y009695D01*
X024713Y009695D01*
X024713Y009475D01*
X021967Y009520D02*
X021967Y009373D01*
X021930Y009337D01*
X021820Y009337D01*
X021820Y009557D01*
X021930Y009557D01*
X021967Y009520D01*
X021746Y009557D02*
X021746Y009337D01*
X021599Y009557D01*
X021599Y009337D01*
X021525Y009373D02*
X021525Y009447D01*
X021451Y009447D01*
X021378Y009520D02*
X021378Y009373D01*
X021414Y009337D01*
X021488Y009337D01*
X021525Y009373D01*
X021525Y009520D02*
X021488Y009557D01*
X021414Y009557D01*
X021378Y009520D01*
X021414Y010518D02*
X021378Y010555D01*
X021414Y010518D02*
X021488Y010518D01*
X021525Y010555D01*
X021525Y010628D01*
X021488Y010665D01*
X021451Y010665D01*
X021378Y010628D01*
X021378Y010738D01*
X021525Y010738D01*
X021599Y010738D02*
X021599Y010591D01*
X021672Y010518D01*
X021746Y010591D01*
X021746Y010738D01*
X021783Y011699D02*
X021856Y011699D01*
X021893Y011736D01*
X021893Y011809D01*
X021819Y011809D01*
X021746Y011736D02*
X021783Y011699D01*
X021746Y011736D02*
X021746Y011882D01*
X021783Y011919D01*
X021856Y011919D01*
X021893Y011882D01*
X021672Y011919D02*
X021599Y011919D01*
X021635Y011919D02*
X021635Y011699D01*
X021599Y011699D02*
X021672Y011699D01*
X021525Y011736D02*
X021488Y011699D01*
X021414Y011699D01*
X021378Y011736D01*
X021414Y011809D02*
X021488Y011809D01*
X021525Y011772D01*
X021525Y011736D01*
X021414Y011809D02*
X021378Y011846D01*
X021378Y011882D01*
X021414Y011919D01*
X021488Y011919D01*
X021525Y011882D01*
X015063Y008740D02*
X014963Y008740D01*
X014963Y008707D02*
X014963Y008774D01*
X014963Y008663D02*
X014963Y008596D01*
X015063Y008596D01*
X015063Y008663D01*
X015013Y008630D02*
X015013Y008596D01*
X015029Y008553D02*
X015046Y008553D01*
X015063Y008536D01*
X015063Y008503D01*
X015046Y008486D01*
X015013Y008503D02*
X015013Y008536D01*
X015029Y008553D01*
X014979Y008553D02*
X014963Y008536D01*
X014963Y008503D01*
X014979Y008486D01*
X014996Y008486D01*
X015013Y008503D01*
X015063Y008442D02*
X015063Y008375D01*
X014963Y008375D01*
X014963Y008442D01*
X015013Y008409D02*
X015013Y008375D01*
X015013Y008332D02*
X015029Y008315D01*
X015029Y008265D01*
X015029Y008298D02*
X015063Y008332D01*
X015013Y008332D02*
X014979Y008332D01*
X014963Y008315D01*
X014963Y008265D01*
X015063Y008265D01*
X031009Y018364D02*
X031155Y018364D01*
X031230Y018364D02*
X031303Y018364D01*
X031266Y018364D02*
X031266Y018511D01*
X031230Y018511D01*
X031266Y018585D02*
X031266Y018621D01*
X031377Y018474D02*
X031377Y018401D01*
X031414Y018364D01*
X031524Y018364D01*
X031524Y018328D02*
X031524Y018511D01*
X031414Y018511D01*
X031377Y018474D01*
X031450Y018291D02*
X031487Y018291D01*
X031524Y018328D01*
X031598Y018364D02*
X031598Y018585D01*
X031635Y018511D02*
X031708Y018511D01*
X031745Y018474D01*
X031745Y018364D01*
X031856Y018401D02*
X031892Y018364D01*
X031856Y018401D02*
X031856Y018548D01*
X031892Y018511D02*
X031819Y018511D01*
X031635Y018511D02*
X031598Y018474D01*
X032187Y018438D02*
X032297Y018438D01*
X032334Y018474D01*
X032334Y018548D01*
X032297Y018585D01*
X032187Y018585D01*
X032187Y018364D01*
X032408Y018401D02*
X032445Y018364D01*
X032518Y018364D01*
X032555Y018401D01*
X032555Y018548D01*
X032518Y018585D01*
X032445Y018585D01*
X032408Y018548D01*
X032408Y018401D01*
X032629Y018585D02*
X032776Y018585D01*
X032703Y018585D02*
X032703Y018364D01*
X031009Y018364D02*
X031009Y018585D01*
X027840Y022045D02*
X027877Y022082D01*
X027877Y022229D01*
X027840Y022266D01*
X027730Y022266D01*
X027730Y022045D01*
X027840Y022045D01*
X027656Y022045D02*
X027656Y022266D01*
X027509Y022266D02*
X027509Y022045D01*
X027435Y022082D02*
X027435Y022156D01*
X027362Y022156D01*
X027435Y022229D02*
X027398Y022266D01*
X027325Y022266D01*
X027288Y022229D01*
X027288Y022082D01*
X027325Y022045D01*
X027398Y022045D01*
X027435Y022082D01*
X027509Y022266D02*
X027656Y022045D01*
X026834Y022062D02*
X026834Y022209D01*
X026797Y022246D01*
X026687Y022246D01*
X026687Y022026D01*
X026797Y022026D01*
X026834Y022062D01*
X026613Y022026D02*
X026613Y022246D01*
X026466Y022246D02*
X026613Y022026D01*
X026466Y022026D02*
X026466Y022246D01*
X026392Y022209D02*
X026355Y022246D01*
X026282Y022246D01*
X026245Y022209D01*
X026245Y022062D01*
X026282Y022026D01*
X026355Y022026D01*
X026392Y022062D01*
X026392Y022136D01*
X026318Y022136D01*
X025727Y022153D02*
X025690Y022116D01*
X025580Y022116D01*
X025506Y022043D02*
X025469Y022006D01*
X025396Y022006D01*
X025359Y022043D01*
X025359Y022190D01*
X025396Y022226D01*
X025469Y022226D01*
X025506Y022190D01*
X025506Y022043D01*
X025506Y022006D02*
X025432Y022079D01*
X025580Y022006D02*
X025690Y022006D01*
X025727Y022043D01*
X025727Y022079D01*
X025690Y022116D01*
X025727Y022153D02*
X025727Y022190D01*
X025690Y022226D01*
X025580Y022226D01*
X025580Y022006D01*
X024762Y022045D02*
X024762Y022192D01*
X024689Y022266D01*
X024616Y022192D01*
X024616Y022045D01*
X024541Y022045D02*
X024468Y022119D01*
X024541Y022082D02*
X024505Y022045D01*
X024431Y022045D01*
X024395Y022082D01*
X024395Y022229D01*
X024431Y022266D01*
X024505Y022266D01*
X024541Y022229D01*
X024541Y022082D01*
X024616Y022156D02*
X024762Y022156D01*
X023739Y022173D02*
X023739Y022209D01*
X023702Y022246D01*
X023629Y022246D01*
X023592Y022209D01*
X023518Y022209D02*
X023518Y022173D01*
X023481Y022136D01*
X023371Y022136D01*
X023371Y022246D02*
X023481Y022246D01*
X023518Y022209D01*
X023481Y022136D02*
X023518Y022099D01*
X023518Y022062D01*
X023481Y022026D01*
X023371Y022026D01*
X023371Y022246D01*
X023592Y022026D02*
X023739Y022173D01*
X023739Y022026D02*
X023592Y022026D01*
X022735Y022045D02*
X022588Y022045D01*
X022661Y022045D02*
X022661Y022266D01*
X022588Y022192D01*
X022514Y022192D02*
X022477Y022156D01*
X022367Y022156D01*
X022367Y022266D02*
X022367Y022045D01*
X022477Y022045D01*
X022514Y022082D01*
X022514Y022119D01*
X022477Y022156D01*
X022514Y022192D02*
X022514Y022229D01*
X022477Y022266D01*
X022367Y022266D01*
X021750Y022249D02*
X021714Y022285D01*
X021640Y022285D01*
X021604Y022249D01*
X021529Y022212D02*
X021529Y022065D01*
X021604Y022065D02*
X021750Y022212D01*
X021750Y022249D01*
X021750Y022065D02*
X021604Y022065D01*
X021529Y022175D02*
X021383Y022175D01*
X021383Y022212D02*
X021456Y022285D01*
X021529Y022212D01*
X021383Y022212D02*
X021383Y022065D01*
X020668Y022065D02*
X020521Y022065D01*
X020594Y022065D02*
X020594Y022285D01*
X020521Y022212D01*
X020447Y022212D02*
X020447Y022065D01*
X020447Y022175D02*
X020300Y022175D01*
X020300Y022212D02*
X020373Y022285D01*
X020447Y022212D01*
X020300Y022212D02*
X020300Y022065D01*
X020435Y024782D02*
X020398Y024818D01*
X020435Y024782D02*
X020509Y024782D01*
X020545Y024818D01*
X020545Y024892D01*
X020509Y024928D01*
X020472Y024928D01*
X020398Y024892D01*
X020398Y025002D01*
X020545Y025002D01*
X020619Y025002D02*
X020619Y024855D01*
X020693Y024782D01*
X020766Y024855D01*
X020766Y025002D01*
X021343Y024965D02*
X021380Y025002D01*
X021453Y025002D01*
X021490Y024965D01*
X021490Y024818D01*
X021453Y024782D01*
X021380Y024782D01*
X021343Y024818D01*
X021343Y024965D01*
X021417Y024855D02*
X021490Y024782D01*
X021564Y024782D02*
X021564Y024928D01*
X021638Y025002D01*
X021711Y024928D01*
X021711Y024782D01*
X021711Y024892D02*
X021564Y024892D01*
X022328Y024965D02*
X022364Y025002D01*
X022438Y025002D01*
X022474Y024965D01*
X022474Y024818D01*
X022438Y024782D01*
X022364Y024782D01*
X022328Y024818D01*
X022328Y024965D01*
X022401Y024855D02*
X022474Y024782D01*
X022549Y024782D02*
X022659Y024782D01*
X022695Y024818D01*
X022695Y024855D01*
X022659Y024892D01*
X022549Y024892D01*
X022659Y024892D02*
X022695Y024928D01*
X022695Y024965D01*
X022659Y025002D01*
X022549Y025002D01*
X022549Y024782D01*
X023371Y024838D02*
X023408Y024801D01*
X023481Y024801D01*
X023518Y024838D01*
X023518Y024911D01*
X023444Y024911D01*
X023371Y024985D02*
X023371Y024838D01*
X023371Y024985D02*
X023408Y025022D01*
X023481Y025022D01*
X023518Y024985D01*
X023592Y025022D02*
X023739Y024801D01*
X023739Y025022D01*
X023813Y025022D02*
X023923Y025022D01*
X023960Y024985D01*
X023960Y024838D01*
X023923Y024801D01*
X023813Y024801D01*
X023813Y025022D01*
X023592Y025022D02*
X023592Y024801D01*
X024296Y024799D02*
X024333Y024799D01*
X024333Y024762D01*
X024296Y024762D01*
X024296Y024799D01*
X024407Y024799D02*
X024553Y024945D01*
X024553Y024799D01*
X024517Y024762D01*
X024443Y024762D01*
X024407Y024799D01*
X024407Y024945D01*
X024443Y024982D01*
X024517Y024982D01*
X024553Y024945D01*
X024628Y024982D02*
X024628Y024872D01*
X024701Y024909D01*
X024738Y024909D01*
X024774Y024872D01*
X024774Y024799D01*
X024738Y024762D01*
X024664Y024762D01*
X024628Y024799D01*
X024628Y024982D02*
X024774Y024982D01*
X024885Y024909D02*
X024959Y024909D01*
X024995Y024872D01*
X024995Y024762D01*
X024885Y024762D01*
X024849Y024799D01*
X024885Y024835D01*
X024995Y024835D01*
X025300Y024799D02*
X025337Y024799D01*
X025337Y024762D01*
X025300Y024762D01*
X025300Y024799D01*
X025411Y024799D02*
X025557Y024945D01*
X025557Y024799D01*
X025521Y024762D01*
X025447Y024762D01*
X025411Y024799D01*
X025411Y024945D01*
X025447Y024982D01*
X025521Y024982D01*
X025557Y024945D01*
X025632Y024982D02*
X025632Y024872D01*
X025705Y024909D01*
X025742Y024909D01*
X025778Y024872D01*
X025778Y024799D01*
X025742Y024762D01*
X025668Y024762D01*
X025632Y024799D01*
X025632Y024982D02*
X025778Y024982D01*
X025889Y024909D02*
X025963Y024909D01*
X025999Y024872D01*
X025999Y024762D01*
X025889Y024762D01*
X025852Y024799D01*
X025889Y024835D01*
X025999Y024835D01*
X026481Y024818D02*
X026518Y024782D01*
X026591Y024782D01*
X026628Y024818D01*
X026628Y024892D01*
X026591Y024928D01*
X026555Y024928D01*
X026481Y024892D01*
X026481Y025002D01*
X026628Y025002D01*
X026702Y025002D02*
X026702Y024855D01*
X026776Y024782D01*
X026849Y024855D01*
X026849Y025002D01*
X027505Y024982D02*
X027505Y024872D01*
X027578Y024909D01*
X027615Y024909D01*
X027652Y024872D01*
X027652Y024799D01*
X027615Y024762D01*
X027541Y024762D01*
X027505Y024799D01*
X027505Y024982D02*
X027652Y024982D01*
X027726Y024982D02*
X027726Y024835D01*
X027799Y024762D01*
X027873Y024835D01*
X027873Y024982D01*
X037224Y023002D02*
X037224Y022855D01*
X037298Y022782D01*
X037371Y022855D01*
X037371Y023002D01*
X037445Y022928D02*
X037519Y023002D01*
X037592Y022928D01*
X037592Y022782D01*
X037666Y022782D02*
X037666Y023002D01*
X037776Y023002D01*
X037813Y022965D01*
X037813Y022892D01*
X037776Y022855D01*
X037666Y022855D01*
X037740Y022855D02*
X037813Y022782D01*
X037592Y022892D02*
X037445Y022892D01*
X037445Y022928D02*
X037445Y022782D01*
X037453Y021893D02*
X037600Y021672D01*
X037600Y021893D01*
X037674Y021893D02*
X037784Y021893D01*
X037821Y021856D01*
X037821Y021709D01*
X037784Y021672D01*
X037674Y021672D01*
X037674Y021893D01*
X037453Y021893D02*
X037453Y021672D01*
X037379Y021709D02*
X037379Y021782D01*
X037306Y021782D01*
X037379Y021709D02*
X037342Y021672D01*
X037269Y021672D01*
X037232Y021709D01*
X037232Y021856D01*
X037269Y021893D01*
X037342Y021893D01*
X037379Y021856D01*
X037036Y013054D02*
X036926Y013054D01*
X036926Y012834D01*
X037036Y012834D01*
X037073Y012871D01*
X037073Y013017D01*
X037036Y013054D01*
X036852Y013054D02*
X036852Y012834D01*
X036705Y013054D01*
X036705Y012834D01*
X036631Y012871D02*
X036631Y012944D01*
X036557Y012944D01*
X036484Y013017D02*
X036521Y013054D01*
X036594Y013054D01*
X036631Y013017D01*
X036631Y012871D02*
X036594Y012834D01*
X036521Y012834D01*
X036484Y012871D01*
X036484Y013017D01*
X036493Y011978D02*
X036457Y011942D01*
X036457Y011905D01*
X036493Y011868D01*
X036567Y011868D01*
X036603Y011831D01*
X036603Y011795D01*
X036567Y011758D01*
X036493Y011758D01*
X036457Y011795D01*
X036493Y011978D02*
X036567Y011978D01*
X036603Y011942D01*
X036678Y011978D02*
X036751Y011978D01*
X036714Y011978D02*
X036714Y011758D01*
X036678Y011758D02*
X036751Y011758D01*
X036825Y011795D02*
X036862Y011758D01*
X036935Y011758D01*
X036972Y011795D01*
X036972Y011868D01*
X036898Y011868D01*
X036825Y011942D02*
X036825Y011795D01*
X036825Y011942D02*
X036862Y011978D01*
X036935Y011978D01*
X036972Y011942D01*
D13*
X037303Y012165D02*
X037303Y012365D01*
X037203Y012265D01*
X037336Y012265D01*
X037424Y012298D02*
X037424Y012332D01*
X037457Y012365D01*
X037524Y012365D01*
X037557Y012332D01*
X037557Y012298D01*
X037524Y012265D01*
X037457Y012265D01*
X037424Y012298D01*
X037457Y012265D02*
X037424Y012232D01*
X037424Y012198D01*
X037457Y012165D01*
X037524Y012165D01*
X037557Y012198D01*
X037557Y012232D01*
X037524Y012265D01*
X037524Y013165D02*
X037557Y013198D01*
X037557Y013232D01*
X037524Y013265D01*
X037424Y013265D01*
X037424Y013198D01*
X037457Y013165D01*
X037524Y013165D01*
X037424Y013265D02*
X037490Y013332D01*
X037557Y013365D01*
X037336Y013265D02*
X037203Y013265D01*
X037303Y013365D01*
X037303Y013165D01*
X037303Y014165D02*
X037303Y014365D01*
X037203Y014265D01*
X037336Y014265D01*
X037424Y014265D02*
X037557Y014265D01*
X037524Y014365D02*
X037424Y014265D01*
X037524Y014165D02*
X037524Y014365D01*
X037557Y015165D02*
X037424Y015165D01*
X037557Y015298D01*
X037557Y015332D01*
X037524Y015365D01*
X037457Y015365D01*
X037424Y015332D01*
X037336Y015265D02*
X037203Y015265D01*
X037303Y015365D01*
X037303Y015165D01*
X037303Y016165D02*
X037303Y016365D01*
X037203Y016265D01*
X037336Y016265D01*
X037424Y016332D02*
X037457Y016365D01*
X037524Y016365D01*
X037557Y016332D01*
X037424Y016198D01*
X037457Y016165D01*
X037524Y016165D01*
X037557Y016198D01*
X037557Y016332D01*
X037424Y016332D02*
X037424Y016198D01*
X037457Y017165D02*
X037424Y017198D01*
X037424Y017232D01*
X037457Y017265D01*
X037524Y017265D01*
X037557Y017232D01*
X037557Y017198D01*
X037524Y017165D01*
X037457Y017165D01*
X037457Y017265D02*
X037424Y017298D01*
X037424Y017332D01*
X037457Y017365D01*
X037524Y017365D01*
X037557Y017332D01*
X037557Y017298D01*
X037524Y017265D01*
X037336Y017298D02*
X037303Y017265D01*
X037336Y017232D01*
X037336Y017198D01*
X037303Y017165D01*
X037236Y017165D01*
X037203Y017198D01*
X037269Y017265D02*
X037303Y017265D01*
X037336Y017298D02*
X037336Y017332D01*
X037303Y017365D01*
X037236Y017365D01*
X037203Y017332D01*
X037236Y018165D02*
X037203Y018198D01*
X037236Y018165D02*
X037303Y018165D01*
X037336Y018198D01*
X037336Y018232D01*
X037303Y018265D01*
X037269Y018265D01*
X037303Y018265D02*
X037336Y018298D01*
X037336Y018332D01*
X037303Y018365D01*
X037236Y018365D01*
X037203Y018332D01*
X037424Y018265D02*
X037524Y018265D01*
X037557Y018232D01*
X037557Y018198D01*
X037524Y018165D01*
X037457Y018165D01*
X037424Y018198D01*
X037424Y018265D01*
X037490Y018332D01*
X037557Y018365D01*
X037524Y019165D02*
X037524Y019365D01*
X037424Y019265D01*
X037557Y019265D01*
X037336Y019298D02*
X037303Y019265D01*
X037336Y019232D01*
X037336Y019198D01*
X037303Y019165D01*
X037236Y019165D01*
X037203Y019198D01*
X037269Y019265D02*
X037303Y019265D01*
X037336Y019298D02*
X037336Y019332D01*
X037303Y019365D01*
X037236Y019365D01*
X037203Y019332D01*
X037236Y020165D02*
X037203Y020198D01*
X037236Y020165D02*
X037303Y020165D01*
X037336Y020198D01*
X037336Y020232D01*
X037303Y020265D01*
X037269Y020265D01*
X037303Y020265D02*
X037336Y020298D01*
X037336Y020332D01*
X037303Y020365D01*
X037236Y020365D01*
X037203Y020332D01*
X037424Y020332D02*
X037457Y020365D01*
X037524Y020365D01*
X037557Y020332D01*
X037557Y020298D01*
X037424Y020165D01*
X037557Y020165D01*
X037524Y021165D02*
X037457Y021165D01*
X037424Y021198D01*
X037557Y021332D01*
X037557Y021198D01*
X037524Y021165D01*
X037424Y021198D02*
X037424Y021332D01*
X037457Y021365D01*
X037524Y021365D01*
X037557Y021332D01*
X037336Y021332D02*
X037336Y021298D01*
X037303Y021265D01*
X037336Y021232D01*
X037336Y021198D01*
X037303Y021165D01*
X037236Y021165D01*
X037203Y021198D01*
X037269Y021265D02*
X037303Y021265D01*
X037336Y021332D02*
X037303Y021365D01*
X037236Y021365D01*
X037203Y021332D01*
X037203Y022165D02*
X037336Y022298D01*
X037336Y022332D01*
X037303Y022365D01*
X037236Y022365D01*
X037203Y022332D01*
X037203Y022165D02*
X037336Y022165D01*
X037424Y022198D02*
X037424Y022232D01*
X037457Y022265D01*
X037524Y022265D01*
X037557Y022232D01*
X037557Y022198D01*
X037524Y022165D01*
X037457Y022165D01*
X037424Y022198D01*
X037457Y022265D02*
X037424Y022298D01*
X037424Y022332D01*
X037457Y022365D01*
X037524Y022365D01*
X037557Y022332D01*
X037557Y022298D01*
X037524Y022265D01*
X037524Y023165D02*
X037557Y023198D01*
X037557Y023232D01*
X037524Y023265D01*
X037424Y023265D01*
X037424Y023198D01*
X037457Y023165D01*
X037524Y023165D01*
X037424Y023265D02*
X037490Y023332D01*
X037557Y023365D01*
X037336Y023332D02*
X037303Y023365D01*
X037236Y023365D01*
X037203Y023332D01*
X037336Y023332D02*
X037336Y023298D01*
X037203Y023165D01*
X037336Y023165D01*
X037336Y024165D02*
X037203Y024165D01*
X037336Y024298D01*
X037336Y024332D01*
X037303Y024365D01*
X037236Y024365D01*
X037203Y024332D01*
X037424Y024265D02*
X037557Y024265D01*
X037524Y024365D02*
X037424Y024265D01*
X037524Y024165D02*
X037524Y024365D01*
X037557Y025165D02*
X037424Y025165D01*
X037557Y025298D01*
X037557Y025332D01*
X037524Y025365D01*
X037457Y025365D01*
X037424Y025332D01*
X037336Y025332D02*
X037336Y025298D01*
X037203Y025165D01*
X037336Y025165D01*
X037336Y025332D02*
X037303Y025365D01*
X037236Y025365D01*
X037203Y025332D01*
X036003Y025269D02*
X036003Y025136D01*
X036003Y025203D02*
X035803Y025203D01*
X035869Y025136D01*
X035869Y025048D02*
X035836Y025048D01*
X035803Y025015D01*
X035803Y024948D01*
X035836Y024915D01*
X035869Y025048D02*
X036003Y024915D01*
X036003Y025048D01*
X035003Y025048D02*
X035003Y024915D01*
X034869Y025048D01*
X034836Y025048D01*
X034803Y025015D01*
X034803Y024948D01*
X034836Y024915D01*
X034836Y025136D02*
X034803Y025169D01*
X034803Y025236D01*
X034836Y025269D01*
X034969Y025136D01*
X035003Y025169D01*
X035003Y025236D01*
X034969Y025269D01*
X034836Y025269D01*
X034836Y025136D02*
X034969Y025136D01*
X034003Y025169D02*
X034003Y025236D01*
X033969Y025269D01*
X033836Y025269D01*
X033803Y025236D01*
X033803Y025169D01*
X033836Y025136D01*
X033869Y025136D01*
X033903Y025169D01*
X033903Y025269D01*
X034003Y025169D02*
X033969Y025136D01*
X034003Y025048D02*
X034003Y024915D01*
X034003Y024982D02*
X033803Y024982D01*
X033869Y024915D01*
X033003Y024915D02*
X033003Y025048D01*
X033003Y024982D02*
X032803Y024982D01*
X032869Y024915D01*
X032869Y025136D02*
X032836Y025136D01*
X032803Y025169D01*
X032803Y025236D01*
X032836Y025269D01*
X032869Y025269D01*
X032903Y025236D01*
X032903Y025169D01*
X032869Y025136D01*
X032903Y025169D02*
X032936Y025136D01*
X032969Y025136D01*
X033003Y025169D01*
X033003Y025236D01*
X032969Y025269D01*
X032936Y025269D01*
X032903Y025236D01*
X032003Y025136D02*
X031969Y025136D01*
X031836Y025269D01*
X031803Y025269D01*
X031803Y025136D01*
X031803Y024982D02*
X032003Y024982D01*
X032003Y025048D02*
X032003Y024915D01*
X031869Y024915D02*
X031803Y024982D01*
X031003Y024982D02*
X030803Y024982D01*
X030869Y024915D01*
X031003Y024915D02*
X031003Y025048D01*
X030969Y025136D02*
X031003Y025169D01*
X031003Y025236D01*
X030969Y025269D01*
X030936Y025269D01*
X030903Y025236D01*
X030903Y025136D01*
X030969Y025136D01*
X030903Y025136D02*
X030836Y025203D01*
X030803Y025269D01*
X030003Y025236D02*
X030003Y025169D01*
X029969Y025136D01*
X029903Y025136D02*
X029869Y025203D01*
X029869Y025236D01*
X029903Y025269D01*
X029969Y025269D01*
X030003Y025236D01*
X029903Y025136D02*
X029803Y025136D01*
X029803Y025269D01*
X029803Y024982D02*
X030003Y024982D01*
X030003Y025048D02*
X030003Y024915D01*
X029869Y024915D02*
X029803Y024982D01*
X029003Y024982D02*
X028803Y024982D01*
X028869Y024915D01*
X029003Y024915D02*
X029003Y025048D01*
X028903Y025136D02*
X028903Y025269D01*
X029003Y025236D02*
X028803Y025236D01*
X028903Y025136D01*
X027003Y025298D02*
X026969Y025265D01*
X026836Y025398D01*
X026969Y025398D01*
X027003Y025365D01*
X027003Y025298D01*
X026969Y025265D02*
X026836Y025265D01*
X026803Y025298D01*
X026803Y025365D01*
X026836Y025398D01*
X026003Y025398D02*
X026003Y025265D01*
X026003Y025332D02*
X025803Y025332D01*
X025869Y025265D01*
X025003Y025265D02*
X024869Y025398D01*
X024836Y025398D01*
X024803Y025365D01*
X024803Y025298D01*
X024836Y025265D01*
X025003Y025265D02*
X025003Y025398D01*
X024003Y025365D02*
X024003Y025298D01*
X023969Y025265D01*
X023903Y025332D02*
X023903Y025365D01*
X023936Y025398D01*
X023969Y025398D01*
X024003Y025365D01*
X023903Y025365D02*
X023869Y025398D01*
X023836Y025398D01*
X023803Y025365D01*
X023803Y025298D01*
X023836Y025265D01*
X023003Y025365D02*
X022803Y025365D01*
X022903Y025265D01*
X022903Y025398D01*
X022003Y025365D02*
X022003Y025298D01*
X021969Y025265D01*
X021903Y025265D02*
X021869Y025332D01*
X021869Y025365D01*
X021903Y025398D01*
X021969Y025398D01*
X022003Y025365D01*
X021903Y025265D02*
X021803Y025265D01*
X021803Y025398D01*
X021003Y025365D02*
X021003Y025298D01*
X020969Y025265D01*
X020903Y025265D01*
X020903Y025365D01*
X020936Y025398D01*
X020969Y025398D01*
X021003Y025365D01*
X020903Y025265D02*
X020836Y025332D01*
X020803Y025398D01*
X020003Y025265D02*
X019969Y025265D01*
X019836Y025398D01*
X019803Y025398D01*
X019803Y025265D01*
X018503Y025298D02*
X018469Y025265D01*
X018436Y025265D01*
X018403Y025298D01*
X018403Y025365D01*
X018436Y025398D01*
X018469Y025398D01*
X018503Y025365D01*
X018503Y025298D01*
X018403Y025298D02*
X018369Y025265D01*
X018336Y025265D01*
X018303Y025298D01*
X018303Y025365D01*
X018336Y025398D01*
X018369Y025398D01*
X018403Y025365D01*
X017503Y025365D02*
X017503Y025298D01*
X017469Y025265D01*
X017403Y025298D02*
X017403Y025398D01*
X017469Y025398D02*
X017336Y025398D01*
X017303Y025365D01*
X017303Y025298D01*
X017336Y025265D01*
X017369Y025265D01*
X017403Y025298D01*
X017469Y025398D02*
X017503Y025365D01*
X016503Y025398D02*
X016503Y025265D01*
X016503Y025332D02*
X016303Y025332D01*
X016369Y025265D01*
X016336Y025486D02*
X016303Y025519D01*
X016303Y025586D01*
X016336Y025619D01*
X016469Y025486D01*
X016503Y025519D01*
X016503Y025586D01*
X016469Y025619D01*
X016336Y025619D01*
X016336Y025486D02*
X016469Y025486D01*
X015503Y025486D02*
X015503Y025619D01*
X015503Y025553D02*
X015303Y025553D01*
X015369Y025486D01*
X015503Y025398D02*
X015503Y025265D01*
X015503Y025332D02*
X015303Y025332D01*
X015369Y025265D01*
X014503Y025265D02*
X014503Y025398D01*
X014503Y025332D02*
X014303Y025332D01*
X014369Y025265D01*
X014336Y025486D02*
X014303Y025519D01*
X014303Y025586D01*
X014336Y025619D01*
X014369Y025619D01*
X014503Y025486D01*
X014503Y025619D01*
X013503Y025586D02*
X013503Y025519D01*
X013469Y025486D01*
X013503Y025398D02*
X013503Y025265D01*
X013503Y025332D02*
X013303Y025332D01*
X013369Y025265D01*
X013336Y025486D02*
X013303Y025519D01*
X013303Y025586D01*
X013336Y025619D01*
X013369Y025619D01*
X013403Y025586D01*
X013436Y025619D01*
X013469Y025619D01*
X013503Y025586D01*
X013403Y025586D02*
X013403Y025553D01*
X012193Y025544D02*
X012193Y025644D01*
X012159Y025677D01*
X012026Y025677D01*
X011993Y025644D01*
X011993Y025544D01*
X012193Y025544D01*
X012193Y025456D02*
X011993Y025456D01*
X011993Y025323D02*
X012193Y025456D01*
X012193Y025323D02*
X011993Y025323D01*
X012026Y025235D02*
X011993Y025202D01*
X011993Y025135D01*
X012026Y025102D01*
X012159Y025102D01*
X012193Y025135D01*
X012193Y025202D01*
X012159Y025235D01*
X012093Y025235D01*
X012093Y025169D01*
X011243Y025235D02*
X011176Y025169D01*
X011176Y025202D02*
X011176Y025102D01*
X011243Y025102D02*
X011043Y025102D01*
X011043Y025202D01*
X011076Y025235D01*
X011143Y025235D01*
X011176Y025202D01*
X011143Y025323D02*
X011143Y025390D01*
X011243Y025456D02*
X011243Y025323D01*
X011043Y025323D01*
X011043Y025456D01*
X011043Y025544D02*
X011043Y025677D01*
X011143Y025611D02*
X011143Y025544D01*
X011243Y025544D02*
X011043Y025544D01*
X011109Y025014D02*
X011243Y025014D01*
X011143Y025014D02*
X011143Y024881D01*
X011109Y024881D02*
X011043Y024948D01*
X011109Y025014D01*
X011109Y024881D02*
X011243Y024881D01*
X025393Y018415D02*
X025459Y018348D01*
X025526Y018415D01*
X025526Y018215D01*
X025614Y018215D02*
X025680Y018215D01*
X025647Y018215D02*
X025647Y018415D01*
X025614Y018415D02*
X025680Y018415D01*
X025761Y018382D02*
X025761Y018348D01*
X025794Y018315D01*
X025861Y018315D01*
X025894Y018282D01*
X025894Y018248D01*
X025861Y018215D01*
X025794Y018215D01*
X025761Y018248D01*
X025761Y018382D02*
X025794Y018415D01*
X025861Y018415D01*
X025894Y018382D01*
X025982Y018382D02*
X025982Y018248D01*
X026015Y018215D01*
X026082Y018215D01*
X026115Y018248D01*
X026115Y018382D01*
X026082Y018415D01*
X026015Y018415D01*
X025982Y018382D01*
X025393Y018415D02*
X025393Y018215D01*
X025426Y017415D02*
X025393Y017382D01*
X025393Y017348D01*
X025426Y017315D01*
X025493Y017315D01*
X025526Y017282D01*
X025526Y017248D01*
X025493Y017215D01*
X025426Y017215D01*
X025393Y017248D01*
X025426Y017415D02*
X025493Y017415D01*
X025526Y017382D01*
X025614Y017382D02*
X025614Y017248D01*
X025647Y017215D01*
X025714Y017215D01*
X025747Y017248D01*
X025835Y017215D02*
X025835Y017415D01*
X025747Y017382D02*
X025714Y017415D01*
X025647Y017415D01*
X025614Y017382D01*
X025835Y017282D02*
X025968Y017415D01*
X025868Y017315D02*
X025968Y017215D01*
X025935Y016415D02*
X025868Y016415D01*
X025835Y016382D01*
X025835Y016348D01*
X025868Y016315D01*
X025935Y016315D01*
X025968Y016282D01*
X025968Y016248D01*
X025935Y016215D01*
X025868Y016215D01*
X025835Y016248D01*
X025747Y016215D02*
X025614Y016215D01*
X025614Y016415D01*
X025747Y016415D01*
X025680Y016315D02*
X025614Y016315D01*
X025526Y016315D02*
X025493Y016282D01*
X025393Y016282D01*
X025459Y016282D02*
X025526Y016215D01*
X025526Y016315D02*
X025526Y016382D01*
X025493Y016415D01*
X025393Y016415D01*
X025393Y016215D01*
X025935Y016415D02*
X025968Y016382D01*
X026056Y016415D02*
X026056Y016215D01*
X026189Y016215D01*
X026122Y016315D02*
X026056Y016315D01*
X026056Y016415D02*
X026189Y016415D01*
X026277Y016415D02*
X026410Y016415D01*
X026343Y016415D02*
X026343Y016215D01*
X028893Y016248D02*
X028926Y016215D01*
X028993Y016215D01*
X029026Y016248D01*
X029026Y016315D01*
X028959Y016315D01*
X028893Y016382D02*
X028893Y016248D01*
X028893Y016382D02*
X028926Y016415D01*
X028993Y016415D01*
X029026Y016382D01*
X029114Y016415D02*
X029247Y016215D01*
X029247Y016415D01*
X029335Y016415D02*
X029335Y016215D01*
X029435Y016215D01*
X029468Y016248D01*
X029468Y016382D01*
X029435Y016415D01*
X029335Y016415D01*
X029114Y016415D02*
X029114Y016215D01*
X029147Y017215D02*
X029214Y017215D01*
X029247Y017248D01*
X029247Y017382D01*
X029214Y017415D01*
X029147Y017415D01*
X029114Y017382D01*
X029114Y017248D01*
X029147Y017215D01*
X029026Y017215D02*
X029026Y017415D01*
X028959Y017348D01*
X028893Y017415D01*
X028893Y017215D01*
X029335Y017248D02*
X029368Y017215D01*
X029435Y017215D01*
X029468Y017248D01*
X029468Y017282D01*
X029435Y017315D01*
X029368Y017315D01*
X029335Y017348D01*
X029335Y017382D01*
X029368Y017415D01*
X029435Y017415D01*
X029468Y017382D01*
X029556Y017415D02*
X029622Y017415D01*
X029589Y017415D02*
X029589Y017215D01*
X029556Y017215D02*
X029622Y017215D01*
X029435Y018215D02*
X029468Y018248D01*
X029435Y018215D02*
X029368Y018215D01*
X029335Y018248D01*
X029335Y018382D01*
X029368Y018415D01*
X029435Y018415D01*
X029468Y018382D01*
X029247Y018382D02*
X029214Y018415D01*
X029147Y018415D01*
X029114Y018382D01*
X029114Y018248D01*
X029147Y018215D01*
X029214Y018215D01*
X029247Y018248D01*
X029026Y018282D02*
X029026Y018415D01*
X028893Y018415D02*
X028893Y018282D01*
X028959Y018215D01*
X029026Y018282D01*
X037203Y011365D02*
X037203Y011265D01*
X037269Y011298D01*
X037303Y011298D01*
X037336Y011265D01*
X037336Y011198D01*
X037303Y011165D01*
X037236Y011165D01*
X037203Y011198D01*
X037203Y011365D02*
X037336Y011365D01*
X037424Y011332D02*
X037457Y011365D01*
X037524Y011365D01*
X037557Y011332D01*
X037424Y011198D01*
X037457Y011165D01*
X037524Y011165D01*
X037557Y011198D01*
X037557Y011332D01*
X037424Y011332D02*
X037424Y011198D01*
X037457Y010365D02*
X037424Y010332D01*
X037457Y010365D02*
X037524Y010365D01*
X037557Y010332D01*
X037557Y010298D01*
X037424Y010165D01*
X037557Y010165D01*
X037336Y010198D02*
X037303Y010165D01*
X037236Y010165D01*
X037203Y010198D01*
X037203Y010265D02*
X037269Y010298D01*
X037303Y010298D01*
X037336Y010265D01*
X037336Y010198D01*
X037203Y010265D02*
X037203Y010365D01*
X037336Y010365D01*
X040643Y010375D02*
X040643Y010275D01*
X040709Y010308D01*
X040743Y010308D01*
X040776Y010275D01*
X040776Y010208D01*
X040743Y010175D01*
X040676Y010175D01*
X040643Y010208D01*
X040643Y010375D02*
X040776Y010375D01*
X040864Y010342D02*
X040897Y010375D01*
X040964Y010375D01*
X040997Y010342D01*
X040997Y010308D01*
X040964Y010275D01*
X040997Y010242D01*
X040997Y010208D01*
X040964Y010175D01*
X040897Y010175D01*
X040864Y010208D01*
X040930Y010275D02*
X040964Y010275D01*
X040997Y011175D02*
X040864Y011175D01*
X040930Y011175D02*
X040930Y011375D01*
X040864Y011308D01*
X040776Y011275D02*
X040776Y011208D01*
X040743Y011175D01*
X040676Y011175D01*
X040643Y011208D01*
X040643Y011275D02*
X040709Y011308D01*
X040743Y011308D01*
X040776Y011275D01*
X040776Y011375D02*
X040643Y011375D01*
X040643Y011275D01*
X040743Y012175D02*
X040743Y012375D01*
X040643Y012275D01*
X040776Y012275D01*
X040864Y012308D02*
X040897Y012275D01*
X040997Y012275D01*
X040997Y012342D02*
X040964Y012375D01*
X040897Y012375D01*
X040864Y012342D01*
X040864Y012308D01*
X040864Y012208D02*
X040897Y012175D01*
X040964Y012175D01*
X040997Y012208D01*
X040997Y012342D01*
X040864Y013175D02*
X040864Y013208D01*
X040997Y013342D01*
X040997Y013375D01*
X040864Y013375D01*
X040743Y013375D02*
X040643Y013275D01*
X040776Y013275D01*
X040743Y013175D02*
X040743Y013375D01*
X041187Y013390D02*
X041360Y013217D01*
X041707Y013217D01*
X041447Y013217D02*
X041447Y013564D01*
X041360Y013564D02*
X041707Y013564D01*
X041620Y013732D02*
X041360Y013732D01*
X041360Y013564D02*
X041187Y013390D01*
X041620Y013732D02*
X041707Y013819D01*
X041707Y014079D01*
X041360Y014079D01*
X041360Y014248D02*
X041707Y014595D01*
X041620Y014764D02*
X041707Y014851D01*
X041707Y015024D01*
X041620Y015111D01*
X041534Y015111D01*
X041447Y015024D01*
X041447Y014851D01*
X041360Y014764D01*
X041273Y014764D01*
X041187Y014851D01*
X041187Y015024D01*
X041273Y015111D01*
X041187Y015279D02*
X041707Y015279D01*
X041447Y015279D02*
X041360Y015366D01*
X041360Y015540D01*
X041447Y015626D01*
X041707Y015626D01*
X041707Y015795D02*
X041707Y015969D01*
X041707Y015882D02*
X041360Y015882D01*
X041360Y015795D01*
X041187Y015882D02*
X041100Y015882D01*
X040997Y016175D02*
X040864Y016175D01*
X040930Y016175D02*
X040930Y016375D01*
X040864Y016308D01*
X040776Y016275D02*
X040643Y016275D01*
X040743Y016375D01*
X040743Y016175D01*
X041360Y016226D02*
X041360Y016399D01*
X041447Y016486D01*
X041534Y016486D01*
X041534Y016139D01*
X041620Y016139D02*
X041447Y016139D01*
X041360Y016226D01*
X041620Y016139D02*
X041707Y016226D01*
X041707Y016399D01*
X041707Y016654D02*
X041707Y016828D01*
X041707Y016741D02*
X041187Y016741D01*
X041187Y016654D01*
X041447Y016998D02*
X041360Y017085D01*
X041360Y017345D01*
X041187Y017345D02*
X041707Y017345D01*
X041707Y017085D01*
X041620Y016998D01*
X041447Y016998D01*
X040997Y017208D02*
X040997Y017342D01*
X040964Y017375D01*
X040897Y017375D01*
X040864Y017342D01*
X040864Y017308D01*
X040897Y017275D01*
X040997Y017275D01*
X040997Y017208D02*
X040964Y017175D01*
X040897Y017175D01*
X040864Y017208D01*
X040776Y017208D02*
X040743Y017175D01*
X040676Y017175D01*
X040643Y017208D01*
X040709Y017275D02*
X040743Y017275D01*
X040776Y017242D01*
X040776Y017208D01*
X040743Y017275D02*
X040776Y017308D01*
X040776Y017342D01*
X040743Y017375D01*
X040676Y017375D01*
X040643Y017342D01*
X041187Y018029D02*
X041534Y018029D01*
X041707Y018203D01*
X041534Y018376D01*
X041187Y018376D01*
X040997Y018375D02*
X040997Y018342D01*
X040864Y018208D01*
X040864Y018175D01*
X040776Y018208D02*
X040743Y018175D01*
X040676Y018175D01*
X040643Y018208D01*
X040709Y018275D02*
X040743Y018275D01*
X040776Y018242D01*
X040776Y018208D01*
X040743Y018275D02*
X040776Y018308D01*
X040776Y018342D01*
X040743Y018375D01*
X040676Y018375D01*
X040643Y018342D01*
X040864Y018375D02*
X040997Y018375D01*
X041187Y018719D02*
X041707Y018719D01*
X041707Y018892D02*
X041707Y018545D01*
X041360Y018545D02*
X041187Y018719D01*
X040964Y019175D02*
X040897Y019175D01*
X040864Y019208D01*
X040864Y019275D02*
X040930Y019308D01*
X040964Y019308D01*
X040997Y019275D01*
X040997Y019208D01*
X040964Y019175D01*
X040864Y019275D02*
X040864Y019375D01*
X040997Y019375D01*
X041187Y019405D02*
X041187Y019579D01*
X041273Y019666D01*
X041620Y019666D01*
X041707Y019579D01*
X041707Y019405D01*
X041620Y019319D01*
X041620Y019148D02*
X041707Y019148D01*
X041707Y019061D01*
X041620Y019061D01*
X041620Y019148D01*
X041447Y019405D02*
X041447Y019666D01*
X041447Y019405D02*
X041360Y019319D01*
X041273Y019319D01*
X041187Y019405D01*
X040776Y019342D02*
X040776Y019308D01*
X040743Y019275D01*
X040776Y019242D01*
X040776Y019208D01*
X040743Y019175D01*
X040676Y019175D01*
X040643Y019208D01*
X040709Y019275D02*
X040743Y019275D01*
X040776Y019342D02*
X040743Y019375D01*
X040676Y019375D01*
X040643Y019342D01*
X040676Y020175D02*
X040643Y020208D01*
X040676Y020175D02*
X040743Y020175D01*
X040776Y020208D01*
X040776Y020242D01*
X040743Y020275D01*
X040709Y020275D01*
X040743Y020275D02*
X040776Y020308D01*
X040776Y020342D01*
X040743Y020375D01*
X040676Y020375D01*
X040643Y020342D01*
X040864Y020342D02*
X040897Y020375D01*
X040964Y020375D01*
X040997Y020342D01*
X040997Y020308D01*
X040964Y020275D01*
X040997Y020242D01*
X040997Y020208D01*
X040964Y020175D01*
X040897Y020175D01*
X040864Y020208D01*
X040930Y020275D02*
X040964Y020275D01*
X040997Y021175D02*
X040864Y021175D01*
X040930Y021175D02*
X040930Y021375D01*
X040864Y021308D01*
X040776Y021308D02*
X040743Y021275D01*
X040776Y021242D01*
X040776Y021208D01*
X040743Y021175D01*
X040676Y021175D01*
X040643Y021208D01*
X040709Y021275D02*
X040743Y021275D01*
X040776Y021308D02*
X040776Y021342D01*
X040743Y021375D01*
X040676Y021375D01*
X040643Y021342D01*
X040743Y015375D02*
X040643Y015275D01*
X040776Y015275D01*
X040743Y015175D02*
X040743Y015375D01*
X040864Y015342D02*
X040897Y015375D01*
X040964Y015375D01*
X040997Y015342D01*
X040997Y015308D01*
X040964Y015275D01*
X040997Y015242D01*
X040997Y015208D01*
X040964Y015175D01*
X040897Y015175D01*
X040864Y015208D01*
X040930Y015275D02*
X040964Y015275D01*
X041360Y014595D02*
X041707Y014248D01*
X040997Y014275D02*
X040997Y014208D01*
X040964Y014175D01*
X040897Y014175D01*
X040864Y014208D01*
X040864Y014275D02*
X040930Y014308D01*
X040964Y014308D01*
X040997Y014275D01*
X040997Y014375D02*
X040864Y014375D01*
X040864Y014275D01*
X040776Y014275D02*
X040643Y014275D01*
X040743Y014375D01*
X040743Y014175D01*
X022153Y008596D02*
X022153Y008529D01*
X022119Y008496D01*
X021986Y008629D01*
X022119Y008629D01*
X022153Y008596D01*
X022119Y008496D02*
X021986Y008496D01*
X021953Y008529D01*
X021953Y008596D01*
X021986Y008629D01*
X022019Y008408D02*
X022153Y008408D01*
X022053Y008408D02*
X022053Y008275D01*
X022019Y008275D02*
X021953Y008342D01*
X022019Y008408D01*
X022019Y008275D02*
X022153Y008275D01*
X020053Y008342D02*
X019986Y008408D01*
X019853Y008408D01*
X019919Y008496D02*
X019919Y008529D01*
X020053Y008529D01*
X020053Y008496D02*
X020053Y008563D01*
X020053Y008643D02*
X019919Y008643D01*
X019919Y008743D01*
X019953Y008777D01*
X020053Y008777D01*
X019853Y008529D02*
X019819Y008529D01*
X019853Y008275D02*
X019986Y008275D01*
X020053Y008342D01*
X019053Y008308D02*
X019053Y008375D01*
X019019Y008408D01*
X018953Y008408D01*
X018953Y008342D01*
X018886Y008408D02*
X018853Y008375D01*
X018853Y008308D01*
X018886Y008275D01*
X019019Y008275D01*
X019053Y008308D01*
X019053Y008496D02*
X018853Y008496D01*
X019053Y008629D01*
X018853Y008629D01*
X018853Y008717D02*
X018853Y008817D01*
X018886Y008850D01*
X019019Y008850D01*
X019053Y008817D01*
X019053Y008717D01*
X018853Y008717D01*
X018053Y008717D02*
X018053Y008817D01*
X018019Y008850D01*
X017886Y008850D01*
X017853Y008817D01*
X017853Y008717D01*
X018053Y008717D01*
X018053Y008629D02*
X017853Y008629D01*
X017853Y008496D02*
X018053Y008629D01*
X018053Y008496D02*
X017853Y008496D01*
X017886Y008408D02*
X017853Y008375D01*
X017853Y008308D01*
X017886Y008275D01*
X018019Y008275D01*
X018053Y008308D01*
X018053Y008375D01*
X018019Y008408D01*
X017953Y008408D01*
X017953Y008342D01*
X017053Y008375D02*
X017053Y008308D01*
X017019Y008275D01*
X016953Y008275D02*
X016919Y008342D01*
X016919Y008375D01*
X016953Y008408D01*
X017019Y008408D01*
X017053Y008375D01*
X016986Y008496D02*
X017053Y008563D01*
X016986Y008629D01*
X016853Y008629D01*
X016853Y008496D02*
X016986Y008496D01*
X016853Y008408D02*
X016853Y008275D01*
X016953Y008275D01*
X016053Y008308D02*
X016019Y008275D01*
X016053Y008308D02*
X016053Y008375D01*
X016019Y008408D01*
X015986Y008408D01*
X015953Y008375D01*
X015953Y008342D01*
X015953Y008375D02*
X015919Y008408D01*
X015886Y008408D01*
X015853Y008375D01*
X015853Y008308D01*
X015886Y008275D01*
X016019Y008496D02*
X016019Y008529D01*
X016053Y008529D01*
X016053Y008496D01*
X016019Y008496D01*
X016019Y008606D02*
X016053Y008640D01*
X016053Y008706D01*
X016019Y008740D01*
X015986Y008740D01*
X015953Y008706D01*
X015953Y008673D01*
X015953Y008706D02*
X015919Y008740D01*
X015886Y008740D01*
X015853Y008706D01*
X015853Y008640D01*
X015886Y008606D01*
X015853Y008827D02*
X015986Y008827D01*
X016053Y008894D01*
X015986Y008961D01*
X015853Y008961D01*
D14*
X009381Y008381D02*
X004027Y008381D01*
X004027Y011728D01*
X006566Y011728D01*
X007294Y011728D02*
X008987Y011728D01*
X009381Y010153D02*
X009381Y008381D01*
X014373Y007695D02*
X014373Y007195D01*
X014623Y006945D01*
X015123Y006945D01*
X015373Y007195D01*
X015623Y006945D01*
X016123Y006945D01*
X016373Y007195D01*
X016623Y006945D01*
X017123Y006945D01*
X017373Y007195D01*
X017623Y006945D01*
X018123Y006945D01*
X018373Y007195D01*
X018623Y006945D01*
X019123Y006945D01*
X019373Y007195D01*
X019623Y006945D01*
X020123Y006945D01*
X020373Y007195D01*
X020373Y007695D01*
X020123Y007945D01*
X019623Y007945D01*
X019373Y007695D01*
X019123Y007945D01*
X018623Y007945D01*
X018373Y007695D01*
X018123Y007945D01*
X017623Y007945D01*
X017373Y007695D01*
X017123Y007945D01*
X016623Y007945D01*
X016373Y007695D01*
X016123Y007945D01*
X015623Y007945D01*
X015373Y007695D01*
X015123Y007945D01*
X014623Y007945D01*
X014373Y007695D01*
X016445Y009300D02*
X017238Y009300D01*
X018045Y009650D02*
X018045Y011350D01*
X017250Y011700D02*
X016445Y011700D01*
X015645Y011350D02*
X015645Y009650D01*
X016145Y010500D02*
X016147Y010552D01*
X016153Y010604D01*
X016163Y010656D01*
X016176Y010706D01*
X016193Y010756D01*
X016214Y010804D01*
X016239Y010850D01*
X016267Y010894D01*
X016298Y010936D01*
X016332Y010976D01*
X016369Y011013D01*
X016409Y011047D01*
X016451Y011078D01*
X016495Y011106D01*
X016541Y011131D01*
X016589Y011152D01*
X016639Y011169D01*
X016689Y011182D01*
X016741Y011192D01*
X016793Y011198D01*
X016845Y011200D01*
X016897Y011198D01*
X016949Y011192D01*
X017001Y011182D01*
X017051Y011169D01*
X017101Y011152D01*
X017149Y011131D01*
X017195Y011106D01*
X017239Y011078D01*
X017281Y011047D01*
X017321Y011013D01*
X017358Y010976D01*
X017392Y010936D01*
X017423Y010894D01*
X017451Y010850D01*
X017476Y010804D01*
X017497Y010756D01*
X017514Y010706D01*
X017527Y010656D01*
X017537Y010604D01*
X017543Y010552D01*
X017545Y010500D01*
X017543Y010448D01*
X017537Y010396D01*
X017527Y010344D01*
X017514Y010294D01*
X017497Y010244D01*
X017476Y010196D01*
X017451Y010150D01*
X017423Y010106D01*
X017392Y010064D01*
X017358Y010024D01*
X017321Y009987D01*
X017281Y009953D01*
X017239Y009922D01*
X017195Y009894D01*
X017149Y009869D01*
X017101Y009848D01*
X017051Y009831D01*
X017001Y009818D01*
X016949Y009808D01*
X016897Y009802D01*
X016845Y009800D01*
X016793Y009802D01*
X016741Y009808D01*
X016689Y009818D01*
X016639Y009831D01*
X016589Y009848D01*
X016541Y009869D01*
X016495Y009894D01*
X016451Y009922D01*
X016409Y009953D01*
X016369Y009987D01*
X016332Y010024D01*
X016298Y010064D01*
X016267Y010106D01*
X016239Y010150D01*
X016214Y010196D01*
X016193Y010244D01*
X016176Y010294D01*
X016163Y010344D01*
X016153Y010396D01*
X016147Y010448D01*
X016145Y010500D01*
X021373Y007695D02*
X021373Y007195D01*
X021623Y006945D01*
X022123Y006945D01*
X022373Y007195D01*
X022623Y006945D01*
X023123Y006945D01*
X023373Y007195D01*
X023623Y006945D01*
X024123Y006945D01*
X024373Y007195D01*
X024623Y006945D01*
X025123Y006945D01*
X025373Y007195D01*
X025623Y006945D01*
X026123Y006945D01*
X026373Y007195D01*
X026623Y006945D01*
X027123Y006945D01*
X027373Y007195D01*
X027623Y006945D01*
X028123Y006945D01*
X028373Y007195D01*
X028623Y006945D01*
X029123Y006945D01*
X029373Y007195D01*
X029373Y007695D01*
X029123Y007945D01*
X028623Y007945D01*
X028373Y007695D01*
X028123Y007945D01*
X027623Y007945D01*
X027373Y007695D01*
X027123Y007945D01*
X026623Y007945D01*
X026373Y007695D01*
X026123Y007945D01*
X025623Y007945D01*
X025373Y007695D01*
X025123Y007945D01*
X024623Y007945D01*
X024373Y007695D01*
X024123Y007945D01*
X023623Y007945D01*
X023373Y007695D01*
X023123Y007945D01*
X022623Y007945D01*
X022373Y007695D01*
X022123Y007945D01*
X021623Y007945D01*
X021373Y007695D01*
X030373Y007695D02*
X030373Y007195D01*
X030623Y006945D01*
X031123Y006945D01*
X031373Y007195D01*
X031623Y006945D01*
X032123Y006945D01*
X032373Y007195D01*
X032623Y006945D01*
X033123Y006945D01*
X033373Y007195D01*
X033623Y006945D01*
X034123Y006945D01*
X034373Y007195D01*
X034623Y006945D01*
X035123Y006945D01*
X035373Y007195D01*
X035623Y006945D01*
X036123Y006945D01*
X036373Y007195D01*
X036623Y006945D01*
X037123Y006945D01*
X037373Y007195D01*
X037623Y006945D01*
X038123Y006945D01*
X038373Y007195D01*
X038373Y007695D01*
X038123Y007945D01*
X037623Y007945D01*
X037373Y007695D01*
X037123Y007945D01*
X036623Y007945D01*
X036373Y007695D01*
X036123Y007945D01*
X035623Y007945D01*
X035373Y007695D01*
X035123Y007945D01*
X034623Y007945D01*
X034373Y007695D01*
X034123Y007945D01*
X033623Y007945D01*
X033373Y007695D01*
X033123Y007945D01*
X032623Y007945D01*
X032373Y007695D01*
X032123Y007945D01*
X031623Y007945D01*
X031373Y007695D01*
X031123Y007945D01*
X030623Y007945D01*
X030373Y007695D01*
X038373Y009195D02*
X038623Y008945D01*
X040123Y008945D01*
X040373Y009195D01*
X040373Y009695D01*
X040123Y009945D01*
X038623Y009945D01*
X038373Y009695D01*
X038373Y009195D01*
X023851Y015224D02*
X023751Y015224D01*
X023751Y014924D01*
X021751Y014924D01*
X021751Y015224D01*
X021651Y015224D01*
X021751Y015224D02*
X021751Y015524D01*
X023751Y015524D01*
X023751Y015224D01*
X022806Y020121D02*
X020806Y020121D01*
X020806Y020421D01*
X020706Y020421D01*
X020806Y020421D02*
X020806Y020721D01*
X022806Y020721D01*
X022806Y020421D01*
X022906Y020421D01*
X022806Y020421D02*
X022806Y020121D01*
X025155Y020421D02*
X025255Y020421D01*
X025255Y020721D01*
X027255Y020721D01*
X027255Y020421D01*
X027355Y020421D01*
X027255Y020421D02*
X027255Y020121D01*
X025255Y020121D01*
X025255Y020421D01*
X025123Y025945D02*
X024623Y025945D01*
X024373Y026195D01*
X024123Y025945D01*
X023623Y025945D01*
X023373Y026195D01*
X023123Y025945D01*
X022623Y025945D01*
X022373Y026195D01*
X022123Y025945D01*
X021623Y025945D01*
X021373Y026195D01*
X021123Y025945D01*
X020623Y025945D01*
X020373Y026195D01*
X020123Y025945D01*
X019623Y025945D01*
X019373Y026195D01*
X019373Y026695D01*
X019623Y026945D01*
X020123Y026945D01*
X020373Y026695D01*
X020623Y026945D01*
X021123Y026945D01*
X021373Y026695D01*
X021623Y026945D01*
X022123Y026945D01*
X022373Y026695D01*
X022623Y026945D01*
X023123Y026945D01*
X023373Y026695D01*
X023623Y026945D01*
X024123Y026945D01*
X024373Y026695D01*
X024623Y026945D01*
X025123Y026945D01*
X025373Y026695D01*
X025623Y026945D01*
X026123Y026945D01*
X026373Y026695D01*
X026623Y026945D01*
X027123Y026945D01*
X027373Y026695D01*
X027373Y026195D01*
X027123Y025945D01*
X026623Y025945D01*
X026373Y026195D01*
X026123Y025945D01*
X025623Y025945D01*
X025373Y026195D01*
X025123Y025945D01*
X028373Y026195D02*
X028623Y025945D01*
X029123Y025945D01*
X029373Y026195D01*
X029623Y025945D01*
X030123Y025945D01*
X030373Y026195D01*
X030623Y025945D01*
X031123Y025945D01*
X031373Y026195D01*
X031623Y025945D01*
X032123Y025945D01*
X032373Y026195D01*
X032623Y025945D01*
X033123Y025945D01*
X033373Y026195D01*
X033623Y025945D01*
X034123Y025945D01*
X034373Y026195D01*
X034623Y025945D01*
X035123Y025945D01*
X035373Y026195D01*
X035623Y025945D01*
X036123Y025945D01*
X036373Y026195D01*
X036373Y026695D01*
X036123Y026945D01*
X035623Y026945D01*
X035373Y026695D01*
X035123Y026945D01*
X034623Y026945D01*
X034373Y026695D01*
X034123Y026945D01*
X033623Y026945D01*
X033373Y026695D01*
X033123Y026945D01*
X032623Y026945D01*
X032373Y026695D01*
X032123Y026945D01*
X031623Y026945D01*
X031373Y026695D01*
X031123Y026945D01*
X030623Y026945D01*
X030373Y026695D01*
X030123Y026945D01*
X029623Y026945D01*
X029373Y026695D01*
X029123Y026945D01*
X028623Y026945D01*
X028373Y026695D01*
X028373Y026195D01*
X018773Y026195D02*
X018523Y025945D01*
X018023Y025945D01*
X017773Y026195D01*
X017523Y025945D01*
X017023Y025945D01*
X016773Y026195D01*
X016523Y025945D01*
X016023Y025945D01*
X015773Y026195D01*
X015523Y025945D01*
X015023Y025945D01*
X014773Y026195D01*
X014523Y025945D01*
X014023Y025945D01*
X013773Y026195D01*
X013523Y025945D01*
X013023Y025945D01*
X012773Y026195D01*
X012523Y025945D01*
X012023Y025945D01*
X011773Y026195D01*
X011523Y025945D01*
X011023Y025945D01*
X010773Y026195D01*
X010773Y026695D01*
X011023Y026945D01*
X011523Y026945D01*
X011773Y026695D01*
X012023Y026945D01*
X012523Y026945D01*
X012773Y026695D01*
X013023Y026945D01*
X013523Y026945D01*
X013773Y026695D01*
X014023Y026945D01*
X014523Y026945D01*
X014773Y026695D01*
X015023Y026945D01*
X015523Y026945D01*
X015773Y026695D01*
X016023Y026945D01*
X016523Y026945D01*
X016773Y026695D01*
X017023Y026945D01*
X017523Y026945D01*
X017773Y026695D01*
X018023Y026945D01*
X018523Y026945D01*
X018773Y026695D01*
X018773Y026195D01*
X013740Y024669D02*
X013440Y024669D01*
X013440Y024769D01*
X013440Y024669D02*
X013140Y024669D01*
X013140Y022669D01*
X013440Y022669D01*
X013440Y022569D01*
X013440Y022669D02*
X013740Y022669D01*
X013740Y024669D01*
X038373Y026195D02*
X038623Y025945D01*
X040123Y025945D01*
X040373Y026195D01*
X040373Y026695D01*
X040123Y026945D01*
X038623Y026945D01*
X038373Y026695D01*
X038373Y026195D01*
D15*
X038320Y026970D02*
X038420Y027070D01*
X038420Y027270D01*
X038220Y027270D02*
X038220Y027070D01*
X038320Y026970D01*
X038098Y027020D02*
X038048Y026970D01*
X037948Y026970D01*
X037898Y027020D01*
X037898Y027120D02*
X037998Y027170D01*
X038048Y027170D01*
X038098Y027120D01*
X038098Y027020D01*
X037898Y027120D02*
X037898Y027270D01*
X038098Y027270D01*
X037014Y024429D02*
X034814Y024429D01*
X034814Y021429D01*
X037014Y021429D01*
X037014Y021929D01*
X036514Y021929D01*
X036514Y023929D01*
X037014Y023929D01*
X037014Y021929D01*
X037014Y023929D02*
X037014Y024429D01*
X036408Y013272D02*
X034208Y013272D01*
X034208Y009272D01*
X036408Y009272D01*
X036408Y009772D01*
X035908Y009772D01*
X035908Y012772D01*
X036408Y012772D01*
X036408Y009772D01*
X033318Y009693D02*
X033318Y011693D01*
X032818Y011693D01*
X032818Y009693D01*
X033318Y009693D01*
X033318Y009193D01*
X031118Y009193D01*
X031118Y012193D01*
X033318Y012193D01*
X033318Y011693D01*
X030232Y011720D02*
X029732Y011720D01*
X029732Y009720D01*
X030232Y009720D01*
X030232Y009220D01*
X028032Y009220D01*
X028032Y012220D01*
X030232Y012220D01*
X030232Y011720D01*
X030232Y009720D01*
X027235Y009752D02*
X027235Y009252D01*
X025035Y009252D01*
X025035Y012252D01*
X027235Y012252D01*
X027235Y011752D01*
X026735Y011752D01*
X026735Y009752D01*
X027235Y009752D01*
X027235Y011752D01*
X024223Y011752D02*
X024223Y009752D01*
X023723Y009752D01*
X023723Y011752D01*
X024223Y011752D01*
X024223Y012252D01*
X022023Y012252D01*
X022023Y009252D01*
X024223Y009252D01*
X024223Y009752D01*
X021192Y009732D02*
X021192Y009232D01*
X018992Y009232D01*
X018992Y012232D01*
X021192Y012232D01*
X021192Y011732D01*
X020692Y011732D01*
X020692Y009732D01*
X021192Y009732D01*
X021192Y011732D01*
X018820Y011365D02*
X018820Y011065D01*
X018820Y011215D02*
X018370Y011215D01*
X018520Y011065D01*
X018445Y010904D02*
X018370Y010829D01*
X018370Y010679D01*
X018445Y010604D01*
X018520Y010604D01*
X018595Y010679D01*
X018595Y010829D01*
X018670Y010904D01*
X018745Y010904D01*
X018820Y010829D01*
X018820Y010679D01*
X018745Y010604D01*
X018448Y012902D02*
X006448Y012902D01*
X006448Y027402D01*
X018448Y027402D01*
X018448Y012902D01*
X036408Y012772D02*
X036408Y013272D01*
D16*
X027187Y019766D02*
X027187Y019916D01*
X027112Y019841D01*
X027212Y019841D01*
X027065Y019841D02*
X027040Y019816D01*
X026965Y019816D01*
X026965Y019766D02*
X026965Y019916D01*
X027040Y019916D01*
X027065Y019891D01*
X027065Y019841D01*
X027015Y019816D02*
X027065Y019766D01*
X021058Y020926D02*
X020958Y020926D01*
X020911Y020926D02*
X020861Y020976D01*
X020886Y020976D02*
X020811Y020976D01*
X020811Y020926D02*
X020811Y021076D01*
X020886Y021076D01*
X020911Y021051D01*
X020911Y021001D01*
X020886Y020976D01*
X020958Y021026D02*
X021008Y021076D01*
X021008Y020926D01*
X014095Y024380D02*
X013945Y024380D01*
X013945Y024455D01*
X013970Y024480D01*
X014020Y024480D01*
X014045Y024455D01*
X014045Y024380D01*
X014045Y024430D02*
X014095Y024480D01*
X014070Y024527D02*
X014095Y024552D01*
X014095Y024602D01*
X014070Y024627D01*
X014045Y024627D01*
X014020Y024602D01*
X014020Y024577D01*
X014020Y024602D02*
X013995Y024627D01*
X013970Y024627D01*
X013945Y024602D01*
X013945Y024552D01*
X013970Y024527D01*
D17*
X019377Y014936D02*
X020377Y014936D01*
X020377Y012836D01*
X019377Y012836D01*
X019377Y014936D01*
X019627Y013886D02*
X020127Y013886D01*
X025262Y012856D02*
X026262Y012856D01*
X026262Y014956D01*
X025262Y014956D01*
X025262Y012856D01*
X025512Y013906D02*
X026012Y013906D01*
D18*
X023621Y016278D03*
X023621Y016278D03*
X023621Y016778D03*
X023621Y017278D03*
X023621Y017778D03*
X023621Y018278D03*
X023621Y018778D03*
X023621Y019278D03*
X021881Y019278D03*
X021881Y018778D03*
X021881Y018278D03*
X021881Y017778D03*
X021881Y017278D03*
X021881Y016778D03*
X021881Y016278D03*
X021881Y016278D03*
D19*
X038873Y008915D02*
X038873Y008625D01*
X039873Y008625D01*
X039873Y008925D01*
D20*
X023881Y012848D02*
X021581Y012848D01*
X021522Y012850D01*
X021464Y012856D01*
X021405Y012865D01*
X021348Y012879D01*
X021292Y012896D01*
X021237Y012917D01*
X021183Y012941D01*
X021131Y012969D01*
X021081Y013000D01*
X021033Y013034D01*
X020988Y013071D01*
X020945Y013112D01*
X020904Y013155D01*
X020867Y013200D01*
X020833Y013248D01*
X020802Y013298D01*
X020774Y013350D01*
X020750Y013404D01*
X020729Y013459D01*
X020712Y013515D01*
X020698Y013572D01*
X020689Y013631D01*
X020683Y013689D01*
X020681Y013748D01*
X020683Y013807D01*
X020689Y013865D01*
X020698Y013924D01*
X020712Y013981D01*
X020729Y014037D01*
X020750Y014092D01*
X020774Y014146D01*
X020802Y014198D01*
X020833Y014248D01*
X020867Y014296D01*
X020904Y014341D01*
X020945Y014384D01*
X020988Y014425D01*
X021033Y014462D01*
X021081Y014496D01*
X021131Y014527D01*
X021183Y014555D01*
X021237Y014579D01*
X021292Y014600D01*
X021348Y014617D01*
X021405Y014631D01*
X021464Y014640D01*
X021522Y014646D01*
X021581Y014648D01*
X023881Y014648D01*
X023940Y014646D01*
X023998Y014640D01*
X024057Y014631D01*
X024114Y014617D01*
X024170Y014600D01*
X024225Y014579D01*
X024279Y014555D01*
X024331Y014527D01*
X024381Y014496D01*
X024429Y014462D01*
X024474Y014425D01*
X024517Y014384D01*
X024558Y014341D01*
X024595Y014296D01*
X024629Y014248D01*
X024660Y014198D01*
X024688Y014146D01*
X024712Y014092D01*
X024733Y014037D01*
X024750Y013981D01*
X024764Y013924D01*
X024773Y013865D01*
X024779Y013807D01*
X024781Y013748D01*
X024779Y013689D01*
X024773Y013631D01*
X024764Y013572D01*
X024750Y013515D01*
X024733Y013459D01*
X024712Y013404D01*
X024688Y013350D01*
X024660Y013298D01*
X024629Y013248D01*
X024595Y013200D01*
X024558Y013155D01*
X024517Y013112D01*
X024474Y013071D01*
X024429Y013034D01*
X024381Y013000D01*
X024331Y012969D01*
X024279Y012941D01*
X024225Y012917D01*
X024170Y012896D01*
X024114Y012879D01*
X024057Y012865D01*
X023998Y012856D01*
X023940Y012850D01*
X023881Y012848D01*
M02*
