%
M48
M72
T01C0.0236
T02C0.0276
T03C0.0315
T04C0.0320
T05C0.0354
T06C0.0394
T07C0.0400
T08C0.1260
%
T01
X20290Y16248
X20251Y17272
X20251Y17783
X24719Y17272
X24759Y18276
X24759Y18768
X31176Y23689
X15172Y22902
X14542Y22272
T02
X21781Y13748
X22720Y13748
X23681Y13748
T03
X26873Y16445
X27873Y16445
X27873Y17445
X26873Y17445
X26873Y18445
X27873Y18445
X16448Y19402
X16448Y20402
X16448Y21402
X16448Y22402
X16448Y17402
X16448Y16402
X8448Y16402
X8448Y15402
X8448Y17402
X8448Y18402
X8448Y19402
X8448Y20402
X8448Y21402
X8448Y22402
X8448Y23402
X8448Y24402
T04
X30182Y22301
X30182Y21301
X30182Y20301
X30182Y19301
X30246Y17532
X30246Y16532
X30246Y15532
X30246Y14532
X33246Y14532
X33246Y15532
X33246Y16532
X33246Y17532
X33182Y19301
X33182Y20301
X33182Y21301
X33182Y22301
T05
X27755Y20421
X24755Y20421
X23306Y20421
X20306Y20421
X13440Y22169
X13440Y25169
X21251Y15224
X24251Y15224
T06
X9420Y11039
X6940Y11039
X8239Y9070
T07
X14873Y7445
X15873Y7445
X16873Y7445
X17873Y7445
X18873Y7445
X19873Y7445
X21873Y7445
X22873Y7445
X23873Y7445
X24873Y7445
X25873Y7445
X26873Y7445
X27873Y7445
X28873Y7445
X30873Y7445
X31873Y7445
X32873Y7445
X33873Y7445
X34873Y7445
X35873Y7445
X36873Y7445
X37873Y7445
X38873Y9445
X39873Y9445
X39873Y10445
X38873Y10445
X38873Y11445
X39873Y11445
X39873Y12445
X38873Y12445
X38873Y13445
X39873Y13445
X39873Y14445
X38873Y14445
X38873Y15445
X39873Y15445
X39873Y16445
X38873Y16445
X38873Y17445
X39873Y17445
X39873Y18445
X38873Y18445
X38873Y19445
X39873Y19445
X39873Y20445
X38873Y20445
X38873Y21445
X39873Y21445
X39873Y22445
X38873Y22445
X38873Y23445
X39873Y23445
X39873Y24445
X38873Y24445
X38873Y25445
X39873Y25445
X39873Y26445
X38873Y26445
X35873Y26445
X34873Y26445
X33873Y26445
X32873Y26445
X31873Y26445
X30873Y26445
X29873Y26445
X28873Y26445
X26873Y26445
X25873Y26445
X24873Y26445
X23873Y26445
X22873Y26445
X21873Y26445
X20873Y26445
X19873Y26445
X18273Y26445
X17273Y26445
X16273Y26445
X15273Y26445
X14273Y26445
X13273Y26445
X12273Y26445
X11273Y26445
X20546Y24020
X21546Y24020
X22546Y24020
X23546Y24020
X24546Y24020
X25546Y24020
X26546Y24020
X27546Y24020
X27546Y23020
X26546Y23020
X25546Y23020
X24546Y23020
X23546Y23020
X22546Y23020
X21546Y23020
X20546Y23020
X19877Y14436
X19877Y13336
X20192Y11732
X20192Y10732
X20192Y9732
X17735Y9220
X15955Y9220
X15955Y11780
X17735Y11780
X23223Y11752
X23223Y10752
X23223Y9752
X26235Y9752
X26235Y10752
X26235Y11752
X25762Y13356
X25762Y14456
X29232Y11720
X29232Y10720
X29232Y9720
X32318Y9693
X32318Y10693
X32318Y11693
X35408Y11772
X35408Y12772
X35408Y10772
X35408Y9772
X36014Y21929
X36014Y22929
X36014Y23929
T08
X7373Y7445
X7873Y26445
X37373Y26445
X39873Y7445
M30
