G75*
%MOIN*%
%OFA0B0*%
%FSLAX24Y24*%
%IPPOS*%
%LPD*%
%AMOC8*
5,1,8,0,0,1.08239X$1,22.5*
%
%ADD10R,0.0236X0.0472*%
%ADD11C,0.0800*%
%ADD12C,0.0520*%
%ADD13OC8,0.0720*%
%ADD14C,0.0740*%
%ADD15R,0.0740X0.0740*%
%ADD16C,0.0120*%
%ADD17C,0.0100*%
%ADD18OC8,0.0768*%
%ADD19C,0.0160*%
D10*
X001180Y000928D03*
X001680Y000928D03*
X002180Y000928D03*
X002680Y000928D03*
X003180Y000928D03*
X003680Y000928D03*
X004180Y000928D03*
X004180Y003132D03*
X003680Y003132D03*
X003180Y003132D03*
X002680Y003132D03*
X002180Y003132D03*
X001680Y003132D03*
X001180Y003132D03*
D11*
X004880Y005530D03*
X005980Y005530D03*
X007380Y005530D03*
X008480Y005530D03*
D12*
X007880Y004030D03*
X005980Y004030D03*
D13*
X003430Y004530D03*
X002430Y004530D03*
X001430Y004530D03*
X001430Y005530D03*
X002430Y005530D03*
X003430Y005530D03*
D14*
X005130Y002530D03*
X008130Y002530D03*
X009880Y001130D03*
X010880Y001130D03*
X011880Y001130D03*
X011430Y004530D03*
D15*
X011430Y003530D03*
X008880Y001130D03*
D16*
X005130Y002530D02*
X003930Y002530D01*
X003680Y002780D01*
X003680Y003132D01*
X003180Y003132D02*
X003180Y003780D01*
X003430Y004030D01*
X003930Y004030D01*
X004430Y004530D01*
X004430Y005080D01*
X004880Y005530D01*
X005980Y005530D02*
X005980Y004030D01*
X007880Y004030D02*
X008480Y004630D01*
X008480Y005530D01*
D17*
X007880Y006080D02*
X007380Y005530D01*
X007880Y006080D02*
X009430Y006080D01*
X009430Y004530D01*
X011880Y002080D01*
X011880Y001130D01*
X010880Y001130D02*
X009980Y002030D01*
X002930Y002030D01*
X002680Y001780D01*
X002680Y000928D01*
X003180Y000928D02*
X003180Y001280D01*
X003430Y001530D01*
X008130Y001530D01*
X008330Y001730D01*
X009280Y001730D01*
X009880Y001130D01*
X008880Y001130D02*
X008678Y000928D01*
X004180Y000928D01*
X002930Y002580D02*
X002830Y002530D01*
X001430Y002530D01*
X001180Y002780D01*
X001180Y003132D01*
X001430Y003530D02*
X001680Y003280D01*
X001680Y003132D01*
X001930Y003530D02*
X002180Y003280D01*
X002180Y003132D01*
X002680Y003132D02*
X002680Y004280D01*
X002430Y004530D01*
X001930Y005030D02*
X002430Y005530D01*
X001930Y005030D02*
X001930Y003530D01*
X001430Y003530D02*
X000780Y003530D01*
X000780Y005780D01*
X000930Y006030D01*
X002930Y006030D01*
X003430Y005530D01*
X003430Y004530D02*
X002930Y003980D01*
X002930Y002580D01*
X004180Y003132D02*
X006828Y003132D01*
X007430Y002530D01*
X008130Y002530D01*
D18*
X010430Y005530D03*
X011430Y005530D03*
D19*
X000710Y003288D02*
X000710Y000710D01*
X000862Y000710D01*
X000862Y001247D01*
X000979Y001364D01*
X001381Y001364D01*
X001430Y001315D01*
X001479Y001364D01*
X001881Y001364D01*
X001930Y001315D01*
X001979Y001364D01*
X002381Y001364D01*
X002430Y001315D01*
X002430Y001315D01*
X002430Y001830D01*
X002468Y001922D01*
X002718Y002172D01*
X002788Y002242D01*
X002880Y002280D01*
X003854Y002280D01*
X003783Y002310D01*
X003710Y002383D01*
X003460Y002633D01*
X003420Y002728D01*
X003420Y002755D01*
X003416Y002759D01*
X003409Y002752D01*
X003368Y002728D01*
X003322Y002716D01*
X003180Y002716D01*
X003425Y002716D01*
X003535Y002558D02*
X003182Y002558D01*
X003183Y002548D02*
X003180Y002589D01*
X003180Y003132D01*
X003180Y002716D01*
X003180Y002875D02*
X003180Y002875D01*
X003180Y003033D02*
X003180Y003033D01*
X003180Y003132D02*
X003180Y003132D01*
X003180Y003883D01*
X003259Y003970D01*
X003662Y003970D01*
X003990Y004298D01*
X003990Y004762D01*
X003722Y005030D01*
X003990Y005298D01*
X003990Y005762D01*
X003662Y006090D01*
X003224Y006090D01*
X003104Y006210D01*
X012250Y006210D01*
X012250Y001538D01*
X012238Y001550D01*
X012168Y001600D01*
X012091Y001640D01*
X012009Y001666D01*
X011923Y001680D01*
X011900Y001680D01*
X011900Y001150D01*
X011860Y001150D01*
X011860Y001680D01*
X011837Y001680D01*
X011751Y001666D01*
X011669Y001640D01*
X011592Y001600D01*
X011522Y001550D01*
X011460Y001488D01*
X011410Y001418D01*
X011392Y001384D01*
X011363Y001453D01*
X011203Y001613D01*
X010993Y001700D01*
X010767Y001700D01*
X010694Y001670D01*
X010122Y002242D01*
X010030Y002280D01*
X008643Y002280D01*
X008700Y002417D01*
X008700Y002643D01*
X008613Y002853D01*
X008453Y003013D01*
X008243Y003100D01*
X008017Y003100D01*
X007807Y003013D01*
X007647Y002853D01*
X007617Y002780D01*
X007534Y002780D01*
X006969Y003344D01*
X006877Y003382D01*
X004498Y003382D01*
X004498Y003451D01*
X004381Y003569D01*
X003979Y003569D01*
X003930Y003520D01*
X003881Y003569D01*
X003479Y003569D01*
X003416Y003505D01*
X003409Y003513D01*
X003368Y003536D01*
X003322Y003549D01*
X003180Y003549D01*
X003180Y003132D01*
X003180Y003132D01*
X003180Y003192D02*
X003180Y003192D01*
X003180Y003350D02*
X003180Y003350D01*
X003180Y003509D02*
X003180Y003509D01*
X003180Y003667D02*
X005692Y003667D01*
X005719Y003640D02*
X005590Y003769D01*
X005520Y003938D01*
X005520Y004121D01*
X005590Y004291D01*
X005719Y004420D01*
X005720Y004420D01*
X005720Y004988D01*
X005640Y005021D01*
X005471Y005190D01*
X005420Y005315D01*
X005418Y005307D01*
X005376Y005226D01*
X005322Y005152D01*
X005258Y005088D01*
X005184Y005034D01*
X005103Y004992D01*
X005016Y004964D01*
X004926Y004950D01*
X004900Y004950D01*
X004900Y005510D01*
X004860Y005510D01*
X004860Y004950D01*
X004834Y004950D01*
X004744Y004964D01*
X004657Y004992D01*
X004576Y005034D01*
X004502Y005088D01*
X004438Y005152D01*
X004384Y005226D01*
X004342Y005307D01*
X004314Y005394D01*
X004300Y005484D01*
X004300Y005510D01*
X004860Y005510D01*
X004860Y005550D01*
X004860Y006110D01*
X004834Y006110D01*
X004744Y006096D01*
X004657Y006068D01*
X004576Y006026D01*
X004502Y005972D01*
X004438Y005908D01*
X004384Y005834D01*
X004342Y005753D01*
X004314Y005666D01*
X004300Y005576D01*
X004300Y005550D01*
X004860Y005550D01*
X004900Y005550D01*
X004900Y006110D01*
X004926Y006110D01*
X005016Y006096D01*
X005103Y006068D01*
X005184Y006026D01*
X005258Y005972D01*
X005322Y005908D01*
X005376Y005834D01*
X005418Y005753D01*
X005420Y005745D01*
X005471Y005870D01*
X005640Y006039D01*
X005861Y006130D01*
X006099Y006130D01*
X006320Y006039D01*
X006489Y005870D01*
X006580Y005649D01*
X006580Y005411D01*
X006489Y005190D01*
X006320Y005021D01*
X006240Y004988D01*
X006240Y004420D01*
X006241Y004420D01*
X006370Y004291D01*
X006440Y004121D01*
X006440Y003938D01*
X006370Y003769D01*
X006241Y003640D01*
X006071Y003570D01*
X005888Y003570D01*
X005719Y003640D01*
X005567Y003826D02*
X003180Y003826D01*
X003676Y003984D02*
X005520Y003984D01*
X005529Y004143D02*
X003834Y004143D01*
X003990Y004301D02*
X005600Y004301D01*
X005720Y004460D02*
X003990Y004460D01*
X003990Y004618D02*
X005720Y004618D01*
X005720Y004777D02*
X003975Y004777D01*
X003817Y004935D02*
X005720Y004935D01*
X005568Y005094D02*
X005264Y005094D01*
X005389Y005252D02*
X005446Y005252D01*
X004900Y005252D02*
X004860Y005252D01*
X004860Y005094D02*
X004900Y005094D01*
X004496Y005094D02*
X003785Y005094D01*
X003944Y005252D02*
X004371Y005252D01*
X004312Y005411D02*
X003990Y005411D01*
X003990Y005569D02*
X004300Y005569D01*
X004334Y005728D02*
X003990Y005728D01*
X003866Y005886D02*
X004422Y005886D01*
X004612Y006045D02*
X003707Y006045D01*
X003111Y006203D02*
X012250Y006203D01*
X012250Y006045D02*
X011741Y006045D01*
X011672Y006114D02*
X011188Y006114D01*
X010930Y005856D01*
X010672Y006114D01*
X010188Y006114D01*
X009846Y005772D01*
X009846Y005288D01*
X010188Y004946D01*
X010672Y004946D01*
X010930Y005204D01*
X011117Y005017D01*
X011107Y005013D01*
X010947Y004853D01*
X010860Y004643D01*
X010860Y004417D01*
X010947Y004207D01*
X011054Y004100D01*
X010977Y004100D01*
X010860Y003983D01*
X010860Y003077D01*
X010977Y002960D01*
X011883Y002960D01*
X012000Y003077D01*
X012000Y003983D01*
X011883Y004100D01*
X011806Y004100D01*
X011913Y004207D01*
X012000Y004417D01*
X012000Y004643D01*
X011913Y004853D01*
X011753Y005013D01*
X011743Y005017D01*
X012014Y005288D01*
X012014Y005772D01*
X011672Y006114D01*
X011900Y005886D02*
X012250Y005886D01*
X012250Y005728D02*
X012014Y005728D01*
X012014Y005569D02*
X012250Y005569D01*
X012250Y005411D02*
X012014Y005411D01*
X011978Y005252D02*
X012250Y005252D01*
X012250Y005094D02*
X011819Y005094D01*
X011831Y004935D02*
X012250Y004935D01*
X012250Y004777D02*
X011945Y004777D01*
X012000Y004618D02*
X012250Y004618D01*
X012250Y004460D02*
X012000Y004460D01*
X011952Y004301D02*
X012250Y004301D01*
X012250Y004143D02*
X011849Y004143D01*
X011999Y003984D02*
X012250Y003984D01*
X012250Y003826D02*
X012000Y003826D01*
X012000Y003667D02*
X012250Y003667D01*
X012250Y003509D02*
X012000Y003509D01*
X012000Y003350D02*
X012250Y003350D01*
X012250Y003192D02*
X012000Y003192D01*
X011956Y003033D02*
X012250Y003033D01*
X012250Y002875D02*
X008592Y002875D01*
X008670Y002716D02*
X012250Y002716D01*
X012250Y002558D02*
X008700Y002558D01*
X008693Y002399D02*
X012250Y002399D01*
X012250Y002241D02*
X010123Y002241D01*
X010282Y002082D02*
X012250Y002082D01*
X012250Y001924D02*
X010440Y001924D01*
X010599Y001765D02*
X012250Y001765D01*
X012250Y001607D02*
X012156Y001607D01*
X011900Y001607D02*
X011860Y001607D01*
X011860Y001448D02*
X011900Y001448D01*
X011900Y001290D02*
X011860Y001290D01*
X011431Y001448D02*
X011365Y001448D01*
X011210Y001607D02*
X011604Y001607D01*
X010904Y003033D02*
X008405Y003033D01*
X007855Y003033D02*
X007281Y003033D01*
X007122Y003192D02*
X010860Y003192D01*
X010860Y003350D02*
X006955Y003350D01*
X007490Y003769D02*
X007619Y003640D01*
X007788Y003570D01*
X007971Y003570D01*
X008141Y003640D01*
X008270Y003769D01*
X008340Y003938D01*
X008340Y004121D01*
X008340Y004122D01*
X008700Y004483D01*
X008740Y004578D01*
X008740Y004988D01*
X008820Y005021D01*
X008989Y005190D01*
X009080Y005411D01*
X009080Y005649D01*
X008989Y005870D01*
X008820Y006039D01*
X008599Y006130D01*
X008361Y006130D01*
X008140Y006039D01*
X007971Y005870D01*
X007920Y005745D01*
X007918Y005753D01*
X007876Y005834D01*
X007822Y005908D01*
X007758Y005972D01*
X007684Y006026D01*
X007603Y006068D01*
X007516Y006096D01*
X007426Y006110D01*
X007400Y006110D01*
X007400Y005550D01*
X007360Y005550D01*
X007360Y006110D01*
X007334Y006110D01*
X007244Y006096D01*
X007157Y006068D01*
X007076Y006026D01*
X007002Y005972D01*
X006938Y005908D01*
X006884Y005834D01*
X006842Y005753D01*
X006814Y005666D01*
X006800Y005576D01*
X006800Y005550D01*
X007360Y005550D01*
X007360Y005510D01*
X007400Y005510D01*
X007400Y004950D01*
X007426Y004950D01*
X007516Y004964D01*
X007603Y004992D01*
X007684Y005034D01*
X007758Y005088D01*
X007822Y005152D01*
X007876Y005226D01*
X007918Y005307D01*
X007920Y005315D01*
X007971Y005190D01*
X008140Y005021D01*
X008220Y004988D01*
X008220Y004738D01*
X007972Y004490D01*
X007971Y004490D01*
X007788Y004490D01*
X007619Y004420D01*
X007490Y004291D01*
X007420Y004121D01*
X007420Y003938D01*
X007490Y003769D01*
X007467Y003826D02*
X006393Y003826D01*
X006440Y003984D02*
X007420Y003984D01*
X007429Y004143D02*
X006431Y004143D01*
X006360Y004301D02*
X007500Y004301D01*
X007715Y004460D02*
X006240Y004460D01*
X006240Y004618D02*
X008100Y004618D01*
X008220Y004777D02*
X006240Y004777D01*
X006240Y004935D02*
X008220Y004935D01*
X008068Y005094D02*
X007764Y005094D01*
X007889Y005252D02*
X007946Y005252D01*
X007400Y005252D02*
X007360Y005252D01*
X007360Y005094D02*
X007400Y005094D01*
X007334Y004950D02*
X007244Y004964D01*
X007157Y004992D01*
X007076Y005034D01*
X007002Y005088D01*
X006938Y005152D01*
X006884Y005226D01*
X006842Y005307D01*
X006814Y005394D01*
X006800Y005484D01*
X006800Y005510D01*
X007360Y005510D01*
X007360Y004950D01*
X007334Y004950D01*
X006996Y005094D02*
X006392Y005094D01*
X006514Y005252D02*
X006871Y005252D01*
X006812Y005411D02*
X006580Y005411D01*
X006580Y005569D02*
X006800Y005569D01*
X006834Y005728D02*
X006548Y005728D01*
X006473Y005886D02*
X006922Y005886D01*
X007112Y006045D02*
X006306Y006045D01*
X005654Y006045D02*
X005148Y006045D01*
X005338Y005886D02*
X005487Y005886D01*
X004900Y005886D02*
X004860Y005886D01*
X004860Y005728D02*
X004900Y005728D01*
X004900Y005569D02*
X004860Y005569D01*
X004860Y005411D02*
X004900Y005411D01*
X004900Y006045D02*
X004860Y006045D01*
X007360Y006045D02*
X007400Y006045D01*
X007400Y005886D02*
X007360Y005886D01*
X007360Y005728D02*
X007400Y005728D01*
X007400Y005569D02*
X007360Y005569D01*
X007360Y005411D02*
X007400Y005411D01*
X007838Y005886D02*
X007987Y005886D01*
X008154Y006045D02*
X007648Y006045D01*
X008806Y006045D02*
X010119Y006045D01*
X009960Y005886D02*
X008973Y005886D01*
X009048Y005728D02*
X009846Y005728D01*
X009846Y005569D02*
X009080Y005569D01*
X009080Y005411D02*
X009846Y005411D01*
X009882Y005252D02*
X009014Y005252D01*
X008892Y005094D02*
X010041Y005094D01*
X010819Y005094D02*
X011041Y005094D01*
X011029Y004935D02*
X008740Y004935D01*
X008740Y004777D02*
X010915Y004777D01*
X010860Y004618D02*
X008740Y004618D01*
X008677Y004460D02*
X010860Y004460D01*
X010908Y004301D02*
X008519Y004301D01*
X008360Y004143D02*
X011011Y004143D01*
X010861Y003984D02*
X008340Y003984D01*
X008293Y003826D02*
X010860Y003826D01*
X010860Y003667D02*
X008168Y003667D01*
X007592Y003667D02*
X006268Y003667D01*
X007439Y002875D02*
X007668Y002875D01*
X010860Y003509D02*
X004441Y003509D01*
X003419Y003509D02*
X003413Y003509D01*
X003183Y002548D02*
X003180Y002539D01*
X003180Y002530D01*
X003164Y002493D01*
X003151Y002454D01*
X003145Y002447D01*
X003142Y002438D01*
X003113Y002410D01*
X003086Y002379D01*
X003078Y002375D01*
X003072Y002368D01*
X003034Y002352D01*
X002978Y002325D01*
X002972Y002318D01*
X002934Y002302D01*
X002897Y002284D01*
X002888Y002284D01*
X002880Y002280D01*
X002839Y002280D01*
X002798Y002277D01*
X002789Y002280D01*
X001380Y002280D01*
X001288Y002318D01*
X001218Y002388D01*
X000968Y002638D01*
X000930Y002730D01*
X000930Y002745D01*
X000862Y002813D01*
X000862Y003280D01*
X000730Y003280D01*
X000710Y003288D01*
X000710Y003192D02*
X000862Y003192D01*
X000862Y003033D02*
X000710Y003033D01*
X000710Y002875D02*
X000862Y002875D01*
X000936Y002716D02*
X000710Y002716D01*
X000710Y002558D02*
X001049Y002558D01*
X001207Y002399D02*
X000710Y002399D01*
X000710Y002241D02*
X002787Y002241D01*
X002628Y002082D02*
X000710Y002082D01*
X000710Y001924D02*
X002470Y001924D01*
X002430Y001765D02*
X000710Y001765D01*
X000710Y001607D02*
X002430Y001607D01*
X002430Y001448D02*
X000710Y001448D01*
X000710Y001290D02*
X000905Y001290D01*
X000862Y001131D02*
X000710Y001131D01*
X000710Y000973D02*
X000862Y000973D01*
X000862Y000814D02*
X000710Y000814D01*
X003104Y002399D02*
X003693Y002399D01*
X010741Y006045D02*
X011119Y006045D01*
X010960Y005886D02*
X010900Y005886D01*
M02*
