%
M48
M72
T01C0.0320
T02C0.0354
T03C0.0400
T04C0.0472
T05C0.0512
%
T01
X5980Y4030
X7880Y4030
T02
X5130Y2530
X8130Y2530
T03
X8880Y1130
X9880Y1130
X10880Y1130
X11880Y1130
X11430Y3530
X11430Y4530
X8480Y5530
X7380Y5530
X5980Y5530
X4880Y5530
T04
X3430Y5530
X2430Y5530
X1430Y5530
X1430Y4530
X2430Y4530
X3430Y4530
T05
X10430Y5530
X11430Y5530
M30
