G75*
%MOIN*%
%OFA0B0*%
%FSLAX24Y24*%
%IPPOS*%
%LPD*%
%AMOC8*
5,1,8,0,0,1.08239X$1,22.5*
%
%ADD10C,0.0050*%
%ADD11C,0.0600*%
%ADD12OC8,0.0800*%
%ADD13C,0.0820*%
%ADD14R,0.0820X0.0820*%
%ADD15OC8,0.0848*%
D10*
X004806Y005163D02*
X004878Y005157D01*
X004950Y005163D01*
X005020Y005184D01*
X005084Y005217D01*
X005140Y005262D01*
X005187Y005318D01*
X005221Y005381D01*
X005243Y005450D01*
X005251Y005522D01*
X005246Y005588D01*
X005230Y005652D01*
X005203Y005712D01*
X005166Y005767D01*
X005120Y005815D01*
X005066Y005853D01*
X005006Y005882D01*
X004943Y005900D01*
X004877Y005907D01*
X004811Y005900D01*
X004747Y005883D01*
X004688Y005854D01*
X004634Y005815D01*
X004588Y005768D01*
X004551Y005713D01*
X004523Y005653D01*
X004507Y005589D01*
X004502Y005523D01*
X004510Y005451D01*
X004532Y005381D01*
X004567Y005318D01*
X004614Y005262D01*
X004671Y005217D01*
X004736Y005183D01*
X004806Y005163D01*
X004763Y005176D02*
X004992Y005176D01*
X005093Y005224D02*
X004662Y005224D01*
X004605Y005273D02*
X005149Y005273D01*
X005188Y005321D02*
X004566Y005321D01*
X004539Y005370D02*
X005215Y005370D01*
X005233Y005418D02*
X004521Y005418D01*
X004508Y005467D02*
X005245Y005467D01*
X005250Y005515D02*
X004503Y005515D01*
X004505Y005564D02*
X005248Y005564D01*
X005240Y005612D02*
X004513Y005612D01*
X004527Y005661D02*
X005226Y005661D01*
X005204Y005709D02*
X004549Y005709D01*
X004581Y005758D02*
X005172Y005758D01*
X005128Y005806D02*
X004625Y005806D01*
X004689Y005855D02*
X005064Y005855D01*
X004916Y005903D02*
X004837Y005903D01*
X005625Y005653D02*
X005609Y005589D01*
X005604Y005523D01*
X005612Y005451D01*
X005634Y005381D01*
X005669Y005318D01*
X005716Y005262D01*
X005773Y005217D01*
X005838Y005183D01*
X005908Y005163D01*
X005980Y005157D01*
X006052Y005163D01*
X006122Y005184D01*
X006186Y005217D01*
X006242Y005262D01*
X006289Y005318D01*
X006323Y005381D01*
X006345Y005450D01*
X006353Y005522D01*
X006348Y005588D01*
X006332Y005652D01*
X006305Y005712D01*
X006268Y005767D01*
X006222Y005815D01*
X006168Y005853D01*
X006108Y005882D01*
X006045Y005900D01*
X005979Y005907D01*
X005913Y005900D01*
X005849Y005883D01*
X005790Y005854D01*
X005736Y005815D01*
X005690Y005768D01*
X005653Y005713D01*
X005625Y005653D01*
X005629Y005661D02*
X006328Y005661D01*
X006342Y005612D02*
X005615Y005612D01*
X005607Y005564D02*
X006350Y005564D01*
X006352Y005515D02*
X005605Y005515D01*
X005610Y005467D02*
X006347Y005467D01*
X006335Y005418D02*
X005623Y005418D01*
X005641Y005370D02*
X006317Y005370D01*
X006291Y005321D02*
X005668Y005321D01*
X005707Y005273D02*
X006251Y005273D01*
X006195Y005224D02*
X005764Y005224D01*
X005865Y005176D02*
X006094Y005176D01*
X006306Y005709D02*
X005651Y005709D01*
X005683Y005758D02*
X006274Y005758D01*
X006230Y005806D02*
X005727Y005806D01*
X005791Y005855D02*
X006166Y005855D01*
X006018Y005903D02*
X005939Y005903D01*
X007013Y005612D02*
X007740Y005612D01*
X007746Y005588D02*
X007751Y005522D01*
X007743Y005450D01*
X007721Y005381D01*
X007687Y005318D01*
X007640Y005262D01*
X007584Y005217D01*
X007520Y005184D01*
X007450Y005163D01*
X007378Y005157D01*
X007306Y005163D01*
X007236Y005183D01*
X007171Y005217D01*
X007114Y005262D01*
X007067Y005318D01*
X007032Y005381D01*
X007010Y005451D01*
X007002Y005523D01*
X007007Y005589D01*
X007023Y005653D01*
X007051Y005713D01*
X007088Y005768D01*
X007134Y005815D01*
X007188Y005854D01*
X007247Y005883D01*
X007311Y005900D01*
X007377Y005907D01*
X007443Y005900D01*
X007506Y005882D01*
X007566Y005853D01*
X007620Y005815D01*
X007666Y005767D01*
X007703Y005712D01*
X007730Y005652D01*
X007746Y005588D01*
X007748Y005564D02*
X007005Y005564D01*
X007003Y005515D02*
X007750Y005515D01*
X007745Y005467D02*
X007008Y005467D01*
X007021Y005418D02*
X007733Y005418D01*
X007715Y005370D02*
X007039Y005370D01*
X007066Y005321D02*
X007688Y005321D01*
X007649Y005273D02*
X007105Y005273D01*
X007162Y005224D02*
X007593Y005224D01*
X007492Y005176D02*
X007263Y005176D01*
X008112Y005451D02*
X008134Y005381D01*
X008169Y005318D01*
X008216Y005262D01*
X008273Y005217D01*
X008338Y005183D01*
X008408Y005163D01*
X008480Y005157D01*
X008552Y005163D01*
X008622Y005184D01*
X008686Y005217D01*
X008742Y005262D01*
X008789Y005318D01*
X008823Y005381D01*
X008845Y005450D01*
X008853Y005522D01*
X008848Y005588D01*
X008832Y005652D01*
X008805Y005712D01*
X008768Y005767D01*
X008722Y005815D01*
X008668Y005853D01*
X008608Y005882D01*
X008545Y005900D01*
X008479Y005907D01*
X008413Y005900D01*
X008349Y005883D01*
X008290Y005854D01*
X008236Y005815D01*
X008190Y005768D01*
X008153Y005713D01*
X008125Y005653D01*
X008109Y005589D01*
X008104Y005523D01*
X008112Y005451D01*
X008110Y005467D02*
X008847Y005467D01*
X008852Y005515D02*
X008105Y005515D01*
X008107Y005564D02*
X008850Y005564D01*
X008842Y005612D02*
X008115Y005612D01*
X008129Y005661D02*
X008828Y005661D01*
X008806Y005709D02*
X008151Y005709D01*
X008183Y005758D02*
X008774Y005758D01*
X008730Y005806D02*
X008227Y005806D01*
X008291Y005855D02*
X008666Y005855D01*
X008518Y005903D02*
X008439Y005903D01*
X007726Y005661D02*
X007027Y005661D01*
X007049Y005709D02*
X007704Y005709D01*
X007672Y005758D02*
X007081Y005758D01*
X007125Y005806D02*
X007628Y005806D01*
X007564Y005855D02*
X007189Y005855D01*
X007337Y005903D02*
X007416Y005903D01*
X008123Y005418D02*
X008835Y005418D01*
X008817Y005370D02*
X008141Y005370D01*
X008168Y005321D02*
X008791Y005321D01*
X008751Y005273D02*
X008207Y005273D01*
X008264Y005224D02*
X008695Y005224D01*
X008594Y005176D02*
X008365Y005176D01*
D11*
X007880Y004030D03*
X005980Y004030D03*
D12*
X003430Y004530D03*
X002430Y004530D03*
X001430Y004530D03*
X001430Y005530D03*
X002430Y005530D03*
X003430Y005530D03*
D13*
X005130Y002530D03*
X008130Y002530D03*
X009880Y001130D03*
X010880Y001130D03*
X011880Y001130D03*
X011430Y004530D03*
D14*
X011430Y003530D03*
X008880Y001130D03*
D15*
X010430Y005530D03*
X011430Y005530D03*
M02*
