G75*
%MOIN*%
%OFA0B0*%
%FSLAX24Y24*%
%IPPOS*%
%LPD*%
%AMOC8*
5,1,8,0,0,1.08239X$1,22.5*
%
%ADD10C,0.0030*%
%ADD11C,0.0020*%
%ADD12C,0.0060*%
%ADD13R,0.0200X0.0050*%
%ADD14C,0.0100*%
%ADD15C,0.0160*%
%ADD16C,0.0050*%
%ADD17C,0.0080*%
D10*
X001695Y001895D02*
X001888Y001895D01*
X001990Y001943D02*
X002038Y001895D01*
X002135Y001895D01*
X002183Y001943D01*
X002183Y001992D01*
X002135Y002040D01*
X002038Y002040D01*
X001990Y002088D01*
X001990Y002137D01*
X002038Y002185D01*
X002135Y002185D01*
X002183Y002137D01*
X002284Y002185D02*
X002478Y002185D01*
X002478Y002137D01*
X002284Y001943D01*
X002284Y001895D01*
X002579Y001943D02*
X002627Y001895D01*
X002724Y001895D01*
X002772Y001943D01*
X002772Y001992D01*
X002724Y002040D01*
X002676Y002040D01*
X002724Y002040D02*
X002772Y002088D01*
X002772Y002137D01*
X002724Y002185D01*
X002627Y002185D01*
X002579Y002137D01*
X002874Y002040D02*
X002874Y001943D01*
X002922Y001895D01*
X003019Y001895D01*
X003067Y001943D01*
X003067Y001992D01*
X003019Y002040D01*
X002874Y002040D01*
X002970Y002137D01*
X003067Y002185D01*
X003168Y002040D02*
X003313Y002040D01*
X003362Y001992D01*
X003362Y001943D01*
X003313Y001895D01*
X003217Y001895D01*
X003168Y001943D01*
X003168Y002040D01*
X003265Y002137D01*
X003362Y002185D01*
X003463Y002185D02*
X003608Y002185D01*
X003656Y002137D01*
X003656Y002040D01*
X003608Y001992D01*
X003463Y001992D01*
X003560Y001992D02*
X003656Y001895D01*
X003463Y001895D02*
X003463Y002185D01*
X004595Y001945D02*
X004595Y001655D01*
X004788Y001655D01*
X004890Y001703D02*
X004938Y001655D01*
X005035Y001655D01*
X005083Y001703D01*
X005083Y001752D01*
X005035Y001800D01*
X004938Y001800D01*
X004890Y001848D01*
X004890Y001897D01*
X004938Y001945D01*
X005035Y001945D01*
X005083Y001897D01*
X005184Y001945D02*
X005378Y001945D01*
X005378Y001897D01*
X005184Y001703D01*
X005184Y001655D01*
X005479Y001703D02*
X005527Y001655D01*
X005624Y001655D01*
X005672Y001703D01*
X005672Y001752D01*
X005624Y001800D01*
X005576Y001800D01*
X005624Y001800D02*
X005672Y001848D01*
X005672Y001897D01*
X005624Y001945D01*
X005527Y001945D01*
X005479Y001897D01*
X005774Y001800D02*
X005919Y001800D01*
X005967Y001752D01*
X005967Y001703D01*
X005919Y001655D01*
X005822Y001655D01*
X005774Y001703D01*
X005774Y001800D01*
X005870Y001897D01*
X005967Y001945D01*
X006068Y001800D02*
X006165Y001897D01*
X006262Y001945D01*
X006363Y001945D02*
X006508Y001945D01*
X006556Y001897D01*
X006556Y001800D01*
X006508Y001752D01*
X006363Y001752D01*
X006460Y001752D02*
X006556Y001655D01*
X006363Y001655D02*
X006363Y001945D01*
X006213Y001800D02*
X006068Y001800D01*
X006068Y001703D01*
X006117Y001655D01*
X006213Y001655D01*
X006262Y001703D01*
X006262Y001752D01*
X006213Y001800D01*
X005723Y001465D02*
X005723Y001175D01*
X005626Y001175D02*
X005820Y001175D01*
X005626Y001368D02*
X005723Y001465D01*
X005525Y001417D02*
X005332Y001223D01*
X005380Y001175D01*
X005477Y001175D01*
X005525Y001223D01*
X005525Y001417D01*
X005477Y001465D01*
X005380Y001465D01*
X005332Y001417D01*
X005332Y001223D01*
X005233Y001223D02*
X005233Y001175D01*
X005184Y001175D01*
X005184Y001223D01*
X005233Y001223D01*
X005083Y001175D02*
X004890Y001175D01*
X004986Y001175D02*
X004986Y001465D01*
X004890Y001368D01*
X004788Y001272D02*
X004788Y001465D01*
X004595Y001465D02*
X004595Y001272D01*
X004692Y001175D01*
X004788Y001272D01*
X004740Y000985D02*
X004643Y000985D01*
X004595Y000937D01*
X004595Y000888D01*
X004643Y000840D01*
X004740Y000840D01*
X004788Y000792D01*
X004788Y000743D01*
X004740Y000695D01*
X004643Y000695D01*
X004595Y000743D01*
X004890Y000743D02*
X004938Y000743D01*
X004938Y000695D01*
X004890Y000695D01*
X004890Y000743D01*
X005037Y000695D02*
X005037Y000985D01*
X004788Y000937D02*
X004740Y000985D01*
X005037Y000792D02*
X005230Y000985D01*
X005332Y000840D02*
X005332Y000743D01*
X005380Y000695D01*
X005477Y000695D01*
X005525Y000743D01*
X005525Y000840D01*
X005477Y000888D01*
X005380Y000888D01*
X005332Y000840D01*
X005230Y000695D02*
X005085Y000840D01*
X005626Y000695D02*
X005723Y000695D01*
X005675Y000695D02*
X005675Y000985D01*
X005626Y000985D01*
X005823Y000985D02*
X005823Y000695D01*
X005823Y000792D02*
X005968Y000888D01*
X005823Y000792D02*
X005968Y000695D01*
X006952Y001703D02*
X007001Y001655D01*
X007097Y001655D01*
X007146Y001703D01*
X007146Y001752D01*
X007097Y001800D01*
X007001Y001800D01*
X006952Y001848D01*
X006952Y001897D01*
X007001Y001945D01*
X007097Y001945D01*
X007146Y001897D01*
X007247Y001945D02*
X007247Y001655D01*
X007440Y001655D02*
X007440Y001800D01*
X007392Y001848D01*
X007295Y001848D01*
X007247Y001800D01*
X007542Y001848D02*
X007590Y001848D01*
X007590Y001655D01*
X007542Y001655D02*
X007638Y001655D01*
X007738Y001703D02*
X007738Y001800D01*
X007786Y001848D01*
X007883Y001848D01*
X007931Y001800D01*
X007931Y001752D01*
X007738Y001752D01*
X007738Y001703D02*
X007786Y001655D01*
X007883Y001655D01*
X008033Y001655D02*
X008129Y001655D01*
X008081Y001655D02*
X008081Y001945D01*
X008033Y001945D01*
X008229Y001800D02*
X008277Y001848D01*
X008423Y001848D01*
X008423Y001945D02*
X008423Y001655D01*
X008277Y001655D01*
X008229Y001703D01*
X008229Y001800D01*
X007590Y001945D02*
X007590Y001994D01*
X008795Y002493D02*
X008843Y002445D01*
X008940Y002445D01*
X008988Y002493D01*
X008988Y002590D01*
X008940Y002638D01*
X008892Y002638D01*
X008795Y002590D01*
X008795Y002735D01*
X008988Y002735D01*
X009090Y002590D02*
X009283Y002590D01*
X009186Y002687D02*
X009186Y002493D01*
X009695Y002445D02*
X009695Y002638D01*
X009792Y002735D01*
X009888Y002638D01*
X009888Y002445D01*
X009888Y002590D02*
X009695Y002590D01*
X010695Y002590D02*
X010840Y002590D01*
X010888Y002542D01*
X010888Y002493D01*
X010840Y002445D01*
X010695Y002445D01*
X010695Y002735D01*
X010840Y002735D01*
X010888Y002687D01*
X010888Y002638D01*
X010840Y002590D01*
X011495Y002493D02*
X011543Y002445D01*
X011640Y002445D01*
X011688Y002493D01*
X011688Y002590D01*
X011592Y002590D01*
X011495Y002687D02*
X011495Y002493D01*
X011495Y002687D02*
X011543Y002735D01*
X011640Y002735D01*
X011688Y002687D01*
X011790Y002735D02*
X011983Y002445D01*
X011983Y002735D01*
X012084Y002735D02*
X012229Y002735D01*
X012278Y002687D01*
X012278Y002493D01*
X012229Y002445D01*
X012084Y002445D01*
X012084Y002735D01*
X011790Y002735D02*
X011790Y002445D01*
X009938Y003433D02*
X009938Y003482D01*
X009890Y003530D01*
X009793Y003530D01*
X009745Y003578D01*
X009745Y003627D01*
X009793Y003675D01*
X009890Y003675D01*
X009938Y003627D01*
X009644Y003675D02*
X009644Y003385D01*
X009450Y003675D01*
X009450Y003385D01*
X009745Y003433D02*
X009793Y003385D01*
X009890Y003385D01*
X009938Y003433D01*
X009595Y004385D02*
X009499Y004385D01*
X009450Y004433D01*
X009450Y004530D02*
X009547Y004578D01*
X009595Y004578D01*
X009644Y004530D01*
X009644Y004433D01*
X009595Y004385D01*
X009450Y004530D02*
X009450Y004675D01*
X009644Y004675D01*
X009745Y004530D02*
X009938Y004530D01*
X009842Y004627D02*
X009842Y004433D01*
X001695Y002185D02*
X001695Y001895D01*
D11*
X001642Y003690D02*
X001532Y003690D01*
X001532Y003910D01*
X001642Y003910D01*
X001679Y003873D01*
X001679Y003727D01*
X001642Y003690D01*
X001458Y003690D02*
X001458Y003910D01*
X001311Y003910D02*
X001458Y003690D01*
X001311Y003690D02*
X001311Y003910D01*
X001237Y003873D02*
X001200Y003910D01*
X001127Y003910D01*
X001090Y003873D01*
X001090Y003727D01*
X001127Y003690D01*
X001200Y003690D01*
X001237Y003727D01*
X001237Y003800D01*
X001163Y003800D01*
X002090Y003837D02*
X002127Y003800D01*
X002200Y003800D01*
X002237Y003763D01*
X002237Y003727D01*
X002200Y003690D01*
X002127Y003690D01*
X002090Y003727D01*
X002090Y003837D02*
X002090Y003873D01*
X002127Y003910D01*
X002200Y003910D01*
X002237Y003873D01*
X002311Y003873D02*
X002311Y003837D01*
X002348Y003800D01*
X002421Y003800D01*
X002458Y003763D01*
X002458Y003727D01*
X002421Y003690D01*
X002348Y003690D01*
X002311Y003727D01*
X002311Y003873D02*
X002348Y003910D01*
X002421Y003910D01*
X002458Y003873D01*
X003090Y003910D02*
X003090Y003690D01*
X003237Y003690D02*
X003237Y003910D01*
X003163Y003837D01*
X003090Y003910D01*
X003311Y003873D02*
X003311Y003727D01*
X003348Y003690D01*
X003421Y003690D01*
X003458Y003727D01*
X003458Y003873D01*
X003421Y003910D01*
X003348Y003910D01*
X003311Y003873D01*
X003532Y003873D02*
X003532Y003837D01*
X003569Y003800D01*
X003642Y003800D01*
X003679Y003763D01*
X003679Y003727D01*
X003642Y003690D01*
X003569Y003690D01*
X003532Y003727D01*
X003532Y003873D02*
X003569Y003910D01*
X003642Y003910D01*
X003679Y003873D01*
X003753Y003910D02*
X003826Y003910D01*
X003790Y003910D02*
X003790Y003690D01*
X003826Y003690D02*
X003753Y003690D01*
X003716Y006190D02*
X003789Y006190D01*
X003826Y006227D01*
X003826Y006373D01*
X003789Y006410D01*
X003716Y006410D01*
X003679Y006373D01*
X003679Y006227D01*
X003716Y006190D01*
X003605Y006227D02*
X003568Y006190D01*
X003495Y006190D01*
X003458Y006227D01*
X003495Y006300D02*
X003568Y006300D01*
X003605Y006263D01*
X003605Y006227D01*
X003495Y006300D02*
X003458Y006337D01*
X003458Y006373D01*
X003495Y006410D01*
X003568Y006410D01*
X003605Y006373D01*
X003384Y006410D02*
X003311Y006410D01*
X003348Y006410D02*
X003348Y006190D01*
X003384Y006190D02*
X003311Y006190D01*
X003237Y006190D02*
X003237Y006410D01*
X003163Y006337D01*
X003090Y006410D01*
X003090Y006190D01*
X002679Y006190D02*
X002569Y006300D01*
X002532Y006263D02*
X002679Y006410D01*
X002532Y006410D02*
X002532Y006190D01*
X002458Y006227D02*
X002421Y006190D01*
X002348Y006190D01*
X002311Y006227D01*
X002311Y006373D01*
X002348Y006410D01*
X002421Y006410D01*
X002458Y006373D01*
X002237Y006373D02*
X002200Y006410D01*
X002127Y006410D01*
X002090Y006373D01*
X002090Y006337D01*
X002127Y006300D01*
X002200Y006300D01*
X002237Y006263D01*
X002237Y006227D01*
X002200Y006190D01*
X002127Y006190D01*
X002090Y006227D01*
X001679Y006227D02*
X001642Y006190D01*
X001532Y006190D01*
X001532Y006410D01*
X001642Y006410D01*
X001679Y006373D01*
X001679Y006227D01*
X001458Y006190D02*
X001458Y006410D01*
X001311Y006410D02*
X001458Y006190D01*
X001311Y006190D02*
X001311Y006410D01*
X001237Y006373D02*
X001200Y006410D01*
X001127Y006410D01*
X001090Y006373D01*
X001090Y006227D01*
X001127Y006190D01*
X001200Y006190D01*
X001237Y006227D01*
X001237Y006300D01*
X001163Y006300D01*
D12*
X005730Y004680D02*
X008130Y004680D01*
X007180Y004330D02*
X007180Y004030D01*
X007430Y004030D01*
X007180Y004030D02*
X007180Y003730D01*
X007030Y003730D02*
X006830Y003730D01*
X006830Y004330D01*
X007030Y004330D01*
X007030Y003730D01*
X006680Y003730D02*
X006680Y004030D01*
X006430Y004030D01*
X006680Y004030D02*
X006680Y004330D01*
X005730Y004680D02*
X005680Y004678D01*
X005631Y004672D01*
X005582Y004663D01*
X005534Y004650D01*
X005487Y004633D01*
X005442Y004613D01*
X005398Y004589D01*
X005356Y004562D01*
X005316Y004531D01*
X005279Y004498D01*
X005245Y004462D01*
X005213Y004424D01*
X005184Y004383D01*
X005159Y004341D01*
X005137Y004296D01*
X005118Y004250D01*
X005103Y004202D01*
X005092Y004154D01*
X005084Y004105D01*
X005080Y004055D01*
X005080Y004005D01*
X005084Y003955D01*
X005092Y003906D01*
X005103Y003858D01*
X005118Y003810D01*
X005137Y003764D01*
X005159Y003719D01*
X005184Y003677D01*
X005213Y003636D01*
X005245Y003598D01*
X005279Y003562D01*
X005316Y003529D01*
X005356Y003498D01*
X005398Y003471D01*
X005442Y003447D01*
X005487Y003427D01*
X005534Y003410D01*
X005582Y003397D01*
X005631Y003388D01*
X005680Y003382D01*
X005730Y003380D01*
X008130Y003380D01*
X008180Y003382D01*
X008229Y003388D01*
X008278Y003397D01*
X008326Y003410D01*
X008373Y003427D01*
X008418Y003447D01*
X008462Y003471D01*
X008504Y003498D01*
X008544Y003529D01*
X008581Y003562D01*
X008615Y003598D01*
X008647Y003636D01*
X008676Y003677D01*
X008701Y003719D01*
X008723Y003764D01*
X008742Y003810D01*
X008757Y003858D01*
X008768Y003906D01*
X008776Y003955D01*
X008780Y004005D01*
X008780Y004055D01*
X008776Y004105D01*
X008768Y004154D01*
X008757Y004202D01*
X008742Y004250D01*
X008723Y004296D01*
X008701Y004341D01*
X008676Y004383D01*
X008647Y004424D01*
X008615Y004462D01*
X008581Y004498D01*
X008544Y004531D01*
X008504Y004562D01*
X008462Y004589D01*
X008418Y004613D01*
X008373Y004633D01*
X008326Y004650D01*
X008278Y004663D01*
X008229Y004672D01*
X008180Y004678D01*
X008130Y004680D01*
X006955Y002750D02*
X006955Y002410D01*
X006728Y002410D02*
X006728Y002750D01*
X006842Y002637D01*
X006955Y002750D01*
X006473Y002750D02*
X006473Y002410D01*
X006360Y002410D02*
X006587Y002410D01*
X006360Y002637D02*
X006473Y002750D01*
X004500Y002725D02*
X004500Y002530D01*
X004500Y001530D01*
X004500Y001335D01*
X004498Y001312D01*
X004493Y001289D01*
X004484Y001267D01*
X004471Y001247D01*
X004456Y001229D01*
X004438Y001214D01*
X004418Y001201D01*
X004396Y001192D01*
X004373Y001187D01*
X004350Y001185D01*
X001010Y001185D01*
X000987Y001187D01*
X000964Y001192D01*
X000942Y001201D01*
X000922Y001214D01*
X000904Y001229D01*
X000889Y001247D01*
X000876Y001267D01*
X000867Y001289D01*
X000862Y001312D01*
X000860Y001335D01*
X000860Y002725D01*
X000862Y002748D01*
X000867Y002771D01*
X000876Y002793D01*
X000889Y002813D01*
X000904Y002831D01*
X000922Y002846D01*
X000942Y002859D01*
X000964Y002868D01*
X000987Y002873D01*
X001010Y002875D01*
X004350Y002875D01*
X004373Y002873D01*
X004396Y002868D01*
X004418Y002859D01*
X004438Y002846D01*
X004456Y002831D01*
X004471Y002813D01*
X004484Y002793D01*
X004493Y002771D01*
X004498Y002748D01*
X004500Y002725D01*
X004500Y002530D02*
X004456Y002528D01*
X004413Y002522D01*
X004371Y002513D01*
X004329Y002500D01*
X004289Y002483D01*
X004250Y002463D01*
X004213Y002440D01*
X004179Y002413D01*
X004146Y002384D01*
X004117Y002351D01*
X004090Y002317D01*
X004067Y002280D01*
X004047Y002241D01*
X004030Y002201D01*
X004017Y002159D01*
X004008Y002117D01*
X004002Y002074D01*
X004000Y002030D01*
X004002Y001986D01*
X004008Y001943D01*
X004017Y001901D01*
X004030Y001859D01*
X004047Y001819D01*
X004067Y001780D01*
X004090Y001743D01*
X004117Y001709D01*
X004146Y001676D01*
X004179Y001647D01*
X004213Y001620D01*
X004250Y001597D01*
X004289Y001577D01*
X004329Y001560D01*
X004371Y001547D01*
X004413Y001538D01*
X004456Y001532D01*
X004500Y001530D01*
D13*
X001180Y001160D03*
X001680Y001160D03*
X002180Y001160D03*
X002680Y001160D03*
X003180Y001160D03*
X003680Y001160D03*
X004180Y001160D03*
X004180Y001160D03*
X004180Y002900D03*
X004180Y002900D03*
X003680Y002900D03*
X003180Y002900D03*
X002680Y002900D03*
X002180Y002900D03*
X001680Y002900D03*
X001180Y002900D03*
D14*
X004380Y005030D02*
X004380Y006030D01*
X006480Y006030D01*
X006480Y005030D01*
X004380Y005030D01*
X005430Y005280D02*
X005430Y005780D01*
X006880Y006030D02*
X006880Y005030D01*
X008980Y005030D01*
X008980Y006030D01*
X006880Y006030D01*
X007930Y005780D02*
X007930Y005280D01*
D15*
X008130Y004880D02*
X005730Y004880D01*
X005673Y004878D01*
X005617Y004872D01*
X005561Y004863D01*
X005505Y004850D01*
X005451Y004833D01*
X005398Y004813D01*
X005347Y004789D01*
X005297Y004761D01*
X005249Y004731D01*
X005203Y004697D01*
X005160Y004660D01*
X005119Y004621D01*
X005081Y004579D01*
X005046Y004534D01*
X005014Y004487D01*
X004985Y004438D01*
X004959Y004388D01*
X004937Y004335D01*
X004918Y004282D01*
X004903Y004227D01*
X004892Y004171D01*
X004884Y004115D01*
X004880Y004058D01*
X004880Y004002D01*
X004884Y003945D01*
X004892Y003889D01*
X004903Y003833D01*
X004918Y003778D01*
X004937Y003725D01*
X004959Y003672D01*
X004985Y003622D01*
X005014Y003573D01*
X005046Y003526D01*
X005081Y003481D01*
X005119Y003439D01*
X005160Y003400D01*
X005203Y003363D01*
X005249Y003329D01*
X005297Y003299D01*
X005347Y003271D01*
X005398Y003247D01*
X005451Y003227D01*
X005505Y003210D01*
X005561Y003197D01*
X005617Y003188D01*
X005673Y003182D01*
X005730Y003180D01*
X008130Y003180D01*
X008187Y003182D01*
X008243Y003188D01*
X008299Y003197D01*
X008355Y003210D01*
X008409Y003227D01*
X008462Y003247D01*
X008513Y003271D01*
X008563Y003299D01*
X008611Y003329D01*
X008657Y003363D01*
X008700Y003400D01*
X008741Y003439D01*
X008779Y003481D01*
X008814Y003526D01*
X008846Y003573D01*
X008875Y003622D01*
X008901Y003672D01*
X008923Y003725D01*
X008942Y003778D01*
X008957Y003833D01*
X008968Y003889D01*
X008976Y003945D01*
X008980Y004002D01*
X008980Y004058D01*
X008976Y004115D01*
X008968Y004171D01*
X008957Y004227D01*
X008942Y004282D01*
X008923Y004335D01*
X008901Y004388D01*
X008875Y004438D01*
X008846Y004487D01*
X008814Y004534D01*
X008779Y004579D01*
X008741Y004621D01*
X008700Y004660D01*
X008657Y004697D01*
X008611Y004731D01*
X008563Y004761D01*
X008513Y004789D01*
X008462Y004813D01*
X008409Y004833D01*
X008355Y004850D01*
X008299Y004863D01*
X008243Y004872D01*
X008187Y004878D01*
X008130Y004880D01*
D16*
X010230Y005030D02*
X010230Y003030D01*
X012430Y003030D01*
X012430Y003530D01*
X011930Y003530D01*
X011930Y004530D01*
X012430Y004530D01*
X012430Y003530D01*
X012430Y004530D02*
X012430Y005030D01*
X010230Y005030D01*
X008380Y002330D02*
X012380Y002330D01*
X012380Y000130D01*
X011880Y000130D01*
X011880Y000630D01*
X008880Y000630D01*
X008880Y000130D01*
X008380Y000130D01*
X008380Y002330D01*
X008880Y000130D02*
X011880Y000130D01*
X003930Y004280D02*
X003680Y004030D01*
X003180Y004030D01*
X002930Y004280D01*
X002680Y004030D01*
X002180Y004030D01*
X001930Y004280D01*
X001680Y004030D01*
X001180Y004030D01*
X000930Y004280D01*
X000930Y004780D01*
X001180Y005030D01*
X000930Y005280D01*
X000930Y005780D01*
X001180Y006030D01*
X001680Y006030D01*
X001930Y005780D01*
X002180Y006030D01*
X002680Y006030D01*
X002930Y005780D01*
X003180Y006030D01*
X003680Y006030D01*
X003930Y005780D01*
X003930Y005280D01*
X003680Y005030D01*
X003930Y004780D01*
X003930Y004280D01*
X002930Y004530D02*
X002930Y005530D01*
X001930Y005530D02*
X001930Y004530D01*
X003180Y006180D02*
X003680Y006180D01*
D17*
X005630Y002830D02*
X005630Y002530D01*
X005530Y002530D01*
X005630Y002530D02*
X005630Y002230D01*
X007630Y002230D01*
X007630Y002530D01*
X007730Y002530D01*
X007630Y002530D02*
X007630Y002830D01*
X005630Y002830D01*
M02*
